<?xml version="1.0" encoding="utf-8"?>
<!-- Generator: Adobe Illustrator 18.1.1, SVG Export Plug-In . SVG Version: 6.00 Build 0)  -->
<svg version="1.1" id="Layer_1" xmlns="http://www.w3.org/2000/svg" xmlns:xlink="http://www.w3.org/1999/xlink" x="0px" y="0px"
	 viewBox="0 0 1798.2 858.2" enable-background="new 0 0 1798.2 858.2" xml:space="preserve">
<rect x="0" y="243" fill="#D1D3D4" width="190.3" height="190.1"/>
<rect x="239" y="241" fill="#F08921" width="189.2" height="190.2"/>
<rect x="475.7" y="241" fill="#D1D3D4" width="1083.7" height="190.1"/>
<g>
	<g>
		<rect x="1381.1" y="252.1" fill="#645243" width="169.2" height="169.2"/>
		<g>
			<path fill="#FFFFFF" d="M1439,398.3h2.7v1.4c0.7-0.9,1.6-1.6,3-1.6c2.3,0,4.4,1.8,4.4,5v0c0,3.2-2.1,5-4.4,5
				c-1.5,0-2.4-0.7-3-1.4v4.1h-2.7V398.3z M1446.4,403.2L1446.4,403.2c0-1.6-1.1-2.7-2.4-2.7s-2.3,1.1-2.3,2.7v0
				c0,1.6,1.1,2.7,2.3,2.7S1446.4,404.8,1446.4,403.2z"/>
			<path fill="#FFFFFF" d="M1450.6,403.2L1450.6,403.2c0-2.8,2.2-5.1,5.2-5.1c3,0,5.2,2.2,5.2,5v0c0,2.8-2.2,5-5.2,5
				C1452.9,408.2,1450.6,406,1450.6,403.2z M1458.4,403.2L1458.4,403.2c0-1.5-1-2.7-2.5-2.7c-1.6,0-2.5,1.2-2.5,2.6v0
				c0,1.4,1,2.7,2.5,2.7C1457.4,405.8,1458.4,404.6,1458.4,403.2z"/>
			<path fill="#FFFFFF" d="M1463.2,394.8h2.7V408h-2.7V394.8z"/>
			<path fill="#FFFFFF" d="M1468.5,394.8h2.9v2.4h-2.9V394.8z M1468.6,398.3h2.7v9.7h-2.7V398.3z"/>
			<path fill="#FFFFFF" d="M1473.5,403.2L1473.5,403.2c0-2.8,2.1-5.1,5.1-5.1c1.8,0,3,0.6,3.9,1.6l-1.7,1.8
				c-0.6-0.6-1.2-1.1-2.2-1.1c-1.4,0-2.3,1.2-2.3,2.6v0c0,1.5,1,2.7,2.4,2.7c0.9,0,1.5-0.4,2.2-1l1.6,1.6c-0.9,1-2,1.8-3.9,1.8
				C1475.6,408.2,1473.5,406,1473.5,403.2z"/>
			<path fill="#FFFFFF" d="M1484,410.3l0.9-2c0.4,0.2,0.8,0.4,1.2,0.4c0.5,0,0.7-0.1,1-0.6l-3.8-9.7h2.9l2.2,6.6l2.1-6.6h2.8
				l-3.7,9.9c-0.7,2-1.5,2.7-3.2,2.7C1485.4,410.9,1484.7,410.7,1484,410.3z"/>
		</g>
	</g>
	<g>
		<g>
			<path fill="#FFFFFF" d="M1511.3,376.6h-89.8c-2.4,0-4.3-1.9-4.3-4.3v-30.3c0-2.4,1.9-4.3,4.3-4.3h27.8c2.4,0,4.3,1.9,4.3,4.3v6
				h25.7v-6c0-2.4,1.9-4.3,4.3-4.3h27.8c2.4,0,4.3,1.9,4.3,4.3v30.3C1515.5,374.7,1513.6,376.6,1511.3,376.6L1511.3,376.6z
				 M1425.7,368.1h81.2v-21.7h-19.2v1.8c0,4.7-3.8,8.6-8.6,8.6h-25.7c-4.7,0-8.6-3.8-8.6-8.6v-1.8h-19.2V368.1L1425.7,368.1z"/>
		</g>
		<g>
			<path fill="#FFFFFF" d="M1506.5,345.7c-2.4,0-4.3-1.9-4.3-4.3v-29.9h-70.5v29.9c0,2.4-1.9,4.3-4.3,4.3c-2.4,0-4.3-1.9-4.3-4.3
				v-34.2c0-2.4,1.9-4.3,4.3-4.3h79.1c2.4,0,4.3,1.9,4.3,4.3v34.2C1510.7,343.8,1508.8,345.7,1506.5,345.7L1506.5,345.7z"/>
		</g>
		<g>
			<path fill="#FFFFFF" d="M1501.5,298.7h-69.1c-1.2,0-2.1-1-2.1-2.1c0-1.2,1-2.1,2.1-2.1h69.1c1.2,0,2.1,1,2.1,2.1
				C1503.6,297.7,1502.7,298.7,1501.5,298.7L1501.5,298.7z"/>
		</g>
		<g>
			<path fill="#FFFFFF" d="M1497.4,290.1h-60.9c-1.2,0-2.1-1-2.1-2.1c0-1.2,1-2.1,2.1-2.1h60.9c1.2,0,2.1,1,2.1,2.1
				C1499.5,289.2,1498.6,290.1,1497.4,290.1L1497.4,290.1z"/>
		</g>
	</g>
</g>
<g>
	<g>
		<rect x="1201.1" y="251.8" fill="#644463" width="169.2" height="169.2"/>
		<g>
			<path fill="#FFFFFF" d="M1253.6,406.4l1.2-1.8c1,0.8,2.1,1.2,3,1.2c0.8,0,1.2-0.3,1.2-0.7v0c0-0.6-0.9-0.8-2-1.1
				c-1.4-0.4-2.9-1-2.9-2.9v0c0-2,1.6-3.1,3.5-3.1c1.2,0,2.6,0.4,3.6,1.1l-1,1.9c-1-0.6-1.9-0.9-2.6-0.9c-0.7,0-1,0.3-1,0.7v0
				c0,0.5,0.9,0.8,2,1.2c1.3,0.5,2.9,1.1,2.9,2.9v0c0,2.1-1.6,3.1-3.7,3.1C1256.4,407.8,1254.9,407.4,1253.6,406.4z"/>
			<path fill="#FFFFFF" d="M1262.9,402.9L1262.9,402.9c0-2.8,2-5.1,4.8-5.1c3.2,0,4.7,2.5,4.7,5.2c0,0.2,0,0.5,0,0.7h-6.7
				c0.3,1.2,1.1,1.9,2.4,1.9c0.9,0,1.6-0.3,2.3-1l1.6,1.4c-0.9,1.1-2.2,1.8-3.9,1.8C1265.1,407.9,1262.9,405.8,1262.9,402.9z
				 M1269.7,402.1c-0.2-1.2-0.9-2.1-2-2.1c-1.1,0-1.9,0.8-2.1,2.1H1269.7z"/>
			<path fill="#FFFFFF" d="M1273.9,402.9L1273.9,402.9c0-2.8,2.1-5.1,5.1-5.1c1.8,0,3,0.6,3.9,1.6l-1.7,1.8
				c-0.6-0.6-1.2-1.1-2.2-1.1c-1.4,0-2.3,1.2-2.3,2.6v0c0,1.5,1,2.7,2.4,2.7c0.9,0,1.5-0.4,2.2-1l1.6,1.6c-0.9,1-2,1.8-3.9,1.8
				C1276.1,407.9,1273.9,405.6,1273.9,402.9z"/>
			<path fill="#FFFFFF" d="M1284.7,398h2.7v1.9c0.6-1.3,1.5-2.2,3.1-2.1v2.9h-0.1c-1.8,0-2.9,1.1-2.9,3.4v3.6h-2.7V398z"/>
			<path fill="#FFFFFF" d="M1291.5,402.9L1291.5,402.9c0-2.8,2-5.1,4.8-5.1c3.2,0,4.7,2.5,4.7,5.2c0,0.2,0,0.5,0,0.7h-6.7
				c0.3,1.2,1.1,1.9,2.4,1.9c0.9,0,1.6-0.3,2.3-1l1.6,1.4c-0.9,1.1-2.2,1.8-3.9,1.8C1293.6,407.9,1291.5,405.8,1291.5,402.9z
				 M1298.3,402.1c-0.2-1.2-0.9-2.1-2-2.1c-1.1,0-1.9,0.8-2.1,2.1H1298.3z"/>
			<path fill="#FFFFFF" d="M1303.4,404.9v-4.6h-1.2V398h1.2v-2.5h2.7v2.5h2.3v2.3h-2.3v4.1c0,0.6,0.3,0.9,0.9,0.9
				c0.5,0,1-0.1,1.4-0.3v2.2c-0.6,0.3-1.2,0.6-2.2,0.6C1304.6,407.8,1303.4,407.2,1303.4,404.9z"/>
			<path fill="#FFFFFF" d="M1309.7,406.4l1.2-1.8c1,0.8,2.1,1.2,3,1.2c0.8,0,1.2-0.3,1.2-0.7v0c0-0.6-0.9-0.8-2-1.1
				c-1.3-0.4-2.9-1-2.9-2.9v0c0-2,1.6-3.1,3.5-3.1c1.2,0,2.6,0.4,3.6,1.1l-1,1.9c-1-0.6-1.9-0.9-2.6-0.9c-0.7,0-1,0.3-1,0.7v0
				c0,0.5,0.9,0.8,2,1.2c1.4,0.5,2.9,1.1,2.9,2.9v0c0,2.1-1.6,3.1-3.7,3.1C1312.5,407.8,1311,407.4,1309.7,406.4z"/>
		</g>
	</g>
	<g>
		<g>
			<g>
				<path fill="#FFFFFF" d="M1331,375.2h-86.3c-2.2,0-4-1.8-4-4v-86.3c0-2.2,1.8-4,4-4h86.3c2.2,0,4,1.8,4,4v86.3
					C1335,373.4,1333.2,375.2,1331,375.2L1331,375.2z M1248.7,367.2h78.3V289h-78.3V367.2L1248.7,367.2z"/>
			</g>
			<g>
				<path fill="#FFFFFF" d="M1318.3,360.5h-60.8c-1.1,0-2-0.9-2-2v-60.8c0-1.1,0.9-2,2-2h60.8c1.1,0,2,0.9,2,2v60.8
					C1320.3,359.6,1319.4,360.5,1318.3,360.5L1318.3,360.5z M1259.4,356.5h56.8v-56.8h-56.8V356.5L1259.4,356.5z"/>
			</g>
			<g>
				<g>
					<path fill="#FFFFFF" d="M1257.4,320.4c-2.2,0-4-1.8-4-4v-5c0-2.2,1.8-4,4-4s4,1.8,4,4v5
						C1261.4,318.6,1259.6,320.4,1257.4,320.4L1257.4,320.4z"/>
				</g>
				<g>
					<path fill="#FFFFFF" d="M1257.4,348.7c-2.2,0-4-1.8-4-4v-5c0-2.2,1.8-4,4-4s4,1.8,4,4v5
						C1261.4,346.9,1259.6,348.7,1257.4,348.7L1257.4,348.7z"/>
				</g>
			</g>
		</g>
		<g>
			<g>
				<path fill="#FFFFFF" d="M1287.8,340.2c-6.7,0-12.1-5.4-12.1-12.1c0-6.7,5.4-12.1,12.1-12.1c6.7,0,12.1,5.4,12.1,12.1
					C1299.9,334.7,1294.5,340.2,1287.8,340.2L1287.8,340.2z M1287.8,320c-4.4,0-8.1,3.6-8.1,8.1c0,4.5,3.6,8.1,8.1,8.1
					c4.5,0,8.1-3.6,8.1-8.1C1295.9,323.6,1292.3,320,1287.8,320L1287.8,320z"/>
			</g>
			<g>
				<g>
					<path fill="#FFFFFF" d="M1280.2,322.5c-0.5,0-1-0.2-1.4-0.6l-2.8-2.8c-0.8-0.8-0.8-2.1,0-2.8c0.8-0.8,2.1-0.8,2.8,0l2.8,2.8
						c0.8,0.8,0.8,2.1,0,2.8C1281.3,322.3,1280.8,322.5,1280.2,322.5L1280.2,322.5z"/>
				</g>
				<g>
					<path fill="#FFFFFF" d="M1298.3,340.5c-0.5,0-1-0.2-1.4-0.6l-3.3-3.3c-0.8-0.8-0.8-2.1,0-2.8c0.8-0.8,2.1-0.8,2.8,0l3.3,3.3
						c0.8,0.8,0.8,2.1,0,2.8C1299.3,340.3,1298.8,340.5,1298.3,340.5L1298.3,340.5z"/>
				</g>
			</g>
			<g>
				<g>
					<path fill="#FFFFFF" d="M1295.4,322.5c-0.5,0-1-0.2-1.4-0.6c-0.8-0.8-0.8-2.1,0-2.8l2.8-2.8c0.8-0.8,2.1-0.8,2.8,0
						c0.8,0.8,0.8,2.1,0,2.8l-2.8,2.8C1296.5,322.3,1296,322.5,1295.4,322.5L1295.4,322.5z"/>
				</g>
				<g>
					<path fill="#FFFFFF" d="M1277.4,340.5c-0.5,0-1-0.2-1.4-0.6c-0.8-0.8-0.8-2.1,0-2.8l3.3-3.3c0.8-0.8,2.1-0.8,2.8,0
						c0.8,0.8,0.8,2.1,0,2.8l-3.3,3.3C1278.5,340.3,1277.9,340.5,1277.4,340.5L1277.4,340.5z"/>
				</g>
			</g>
			<g>
				<g>
					<path fill="#FFFFFF" d="M1287.8,319.3c-1.1,0-2-0.9-2-2v-4c0-1.1,0.9-2,2-2c1.1,0,2,0.9,2,2v4
						C1289.9,318.4,1289,319.3,1287.8,319.3L1287.8,319.3z"/>
				</g>
				<g>
					<path fill="#FFFFFF" d="M1287.8,344.8L1287.8,344.8c-1.1,0-2-0.9-2-2l0-4.7c0-1.1,0.9-2,2-2l0,0c1.1,0,2,0.9,2,2l0,4.7
						C1289.8,343.9,1288.9,344.8,1287.8,344.8L1287.8,344.8z"/>
				</g>
			</g>
			<g>
				<g>
					<path fill="#FFFFFF" d="M1302.6,330.1h-4c-1.1,0-2-0.9-2-2c0-1.1,0.9-2,2-2h4c1.1,0,2,0.9,2,2
						C1304.6,329.2,1303.7,330.1,1302.6,330.1L1302.6,330.1z"/>
				</g>
				<g>
					<path fill="#FFFFFF" d="M1277.8,330.1h-4.7c-1.1,0-2-0.9-2-2c0-1.1,0.9-2,2-2h4.7c1.1,0,2,0.9,2,2
						C1279.8,329.2,1278.9,330.1,1277.8,330.1L1277.8,330.1z"/>
				</g>
			</g>
		</g>
	</g>
</g>
<g>
	<g>
		<rect x="1022.6" y="251.6" fill="#59B8B3" width="169.2" height="169.2"/>
		<g>
			<path fill="#FFFFFF" d="M1087.1,404.8v-4.6h-1.2v-2.3h1.2v-2.5h2.7v2.5h2.3v2.3h-2.3v4.1c0,0.6,0.3,0.9,0.9,0.9
				c0.5,0,1-0.1,1.4-0.3v2.2c-0.6,0.3-1.2,0.6-2.2,0.6C1088.3,407.7,1087.1,407,1087.1,404.8z"/>
			<path fill="#FFFFFF" d="M1093.4,402.7L1093.4,402.7c0-2.8,2-5.1,4.8-5.1c3.2,0,4.7,2.5,4.7,5.2c0,0.2,0,0.5,0,0.7h-6.7
				c0.3,1.2,1.1,1.9,2.4,1.9c0.9,0,1.6-0.3,2.3-1l1.6,1.4c-0.9,1.1-2.2,1.8-3.9,1.8C1095.5,407.7,1093.4,405.7,1093.4,402.7z
				 M1100.2,401.9c-0.2-1.2-0.9-2.1-2-2.1c-1.1,0-1.9,0.8-2.1,2.1H1100.2z"/>
			<path fill="#FFFFFF" d="M1104.1,406.2l1.2-1.8c1,0.8,2.1,1.2,3,1.2c0.8,0,1.2-0.3,1.2-0.7v0c0-0.6-0.9-0.8-2-1.1
				c-1.3-0.4-2.9-1-2.9-2.9v0c0-2,1.6-3.1,3.5-3.1c1.2,0,2.6,0.4,3.6,1.1l-1,1.9c-1-0.6-1.9-0.9-2.6-0.9c-0.7,0-1,0.3-1,0.7v0
				c0,0.5,0.9,0.8,2,1.2c1.4,0.5,2.9,1.1,2.9,2.9v0c0,2.1-1.6,3.1-3.7,3.1C1106.9,407.7,1105.4,407.2,1104.1,406.2z"/>
			<path fill="#FFFFFF" d="M1114.2,404.8v-4.6h-1.2v-2.3h1.2v-2.5h2.7v2.5h2.3v2.3h-2.3v4.1c0,0.6,0.3,0.9,0.9,0.9
				c0.5,0,1-0.1,1.4-0.3v2.2c-0.6,0.3-1.2,0.6-2.2,0.6C1115.3,407.7,1114.2,407,1114.2,404.8z"/>
			<path fill="#FFFFFF" d="M1120.5,406.2l1.2-1.8c1,0.8,2.1,1.2,3,1.2c0.8,0,1.2-0.3,1.2-0.7v0c0-0.6-0.9-0.8-2-1.1
				c-1.4-0.4-2.9-1-2.9-2.9v0c0-2,1.6-3.1,3.5-3.1c1.2,0,2.6,0.4,3.6,1.1l-1,1.9c-1-0.6-1.9-0.9-2.6-0.9c-0.7,0-1,0.3-1,0.7v0
				c0,0.5,0.9,0.8,2,1.2c1.3,0.5,2.9,1.1,2.9,2.9v0c0,2.1-1.6,3.1-3.7,3.1C1123.3,407.7,1121.8,407.2,1120.5,406.2z"/>
		</g>
	</g>
	<g>
		<g>
			<path fill="#FFFFFF" d="M1119.4,373.6c-1.1,0-2-0.9-2-2v-24.4c0-1.1,0.9-2,2-2h24.4c1.1,0,2,0.9,2,2c0,1.1-0.9,2-2,2h-22.3v22.3
				C1121.5,372.7,1120.6,373.6,1119.4,373.6L1119.4,373.6z"/>
		</g>
		<g>
			<path fill="#FFFFFF" d="M1119.4,375.6h-41.9c-2.2,0-4.1-1.8-4.1-4.1v-83.3c0-2.2,1.8-4.1,4.1-4.1h66.3c2.2,0,4.1,1.8,4.1,4.1v59
				c0,1.1-0.4,2.1-1.2,2.9l-24.4,24.4C1121.5,375.2,1120.5,375.6,1119.4,375.6L1119.4,375.6z M1081.6,367.5h36.2l22-22v-53.2h-58.2
				V367.5L1081.6,367.5z"/>
		</g>
		<g>
			<path fill="#FFFFFF" d="M1066.1,366c-2.2,0-4.1-1.8-4.1-4.1v-81.7c0-4.5,3.6-8.1,8.1-8.1h62.2c2.2,0,4.1,1.8,4.1,4.1
				c0,2.2-1.8,4.1-4.1,4.1h-62.2V362C1070.1,364.2,1068.3,366,1066.1,366L1066.1,366z"/>
		</g>
		<g>
			<g>
				<path fill="#FFFFFF" d="M1108.5,324.8c-0.4,0-0.8-0.2-1.1-0.5l-3.9-4.1c-0.6-0.6-0.5-1.6,0.1-2.1c0.6-0.6,1.6-0.6,2.1,0.1
					l2.7,2.9l7.5-9.2c0.5-0.6,1.5-0.7,2.1-0.2c0.6,0.5,0.7,1.5,0.2,2.1l-8.6,10.5C1109.4,324.6,1109,324.8,1108.5,324.8
					C1108.5,324.8,1108.5,324.8,1108.5,324.8L1108.5,324.8z"/>
			</g>
			<g>
				<path fill="#FFFFFF" d="M1127.2,336.7h-32.8c-0.8,0-1.5-0.7-1.5-1.5v-32.8c0-0.8,0.7-1.5,1.5-1.5h32.8c0.8,0,1.5,0.7,1.5,1.5
					v32.8C1128.7,336,1128.1,336.7,1127.2,336.7L1127.2,336.7z M1095.9,333.7h29.8v-29.8h-29.8V333.7L1095.9,333.7z"/>
			</g>
		</g>
	</g>
</g>
<g>
	<g>
		<rect x="843.9" y="252" fill="#FCB716" width="169.2" height="169.2"/>
		<g>
			<path fill="#FFFFFF" d="M906.6,395.2h5.8c1.6,0,2.8,0.4,3.7,1.3c0.7,0.7,1.1,1.7,1.1,2.9v0c0,2-1.1,3.3-2.7,3.9l3.1,4.5h-3.2
				l-2.7-4h0h-2.1v4h-2.8V395.2z M912.2,401.4c1.4,0,2.1-0.7,2.1-1.8v0c0-1.2-0.8-1.8-2.2-1.8h-2.8v3.6H912.2z"/>
			<path fill="#FFFFFF" d="M919.3,404.4v-6.2h2.7v5.4c0,1.3,0.6,2,1.7,2c1,0,1.7-0.7,1.7-2v-5.4h2.7v9.7h-2.7v-1.4
				c-0.6,0.8-1.4,1.5-2.8,1.5C920.5,408,919.3,406.7,919.3,404.4z"/>
			<path fill="#FFFFFF" d="M933.3,406.6v1.3h-2.7v-13.1h2.7v4.9c0.7-0.9,1.6-1.6,3-1.6c2.3,0,4.4,1.8,4.4,5v0c0,3.2-2.1,5-4.4,5
				C934.9,408,934,407.4,933.3,406.6z M938,403L938,403c0-1.6-1.1-2.7-2.4-2.7s-2.3,1.1-2.3,2.7v0c0,1.6,1.1,2.7,2.3,2.7
				S938,404.7,938,403z"/>
			<path fill="#FFFFFF" d="M942.1,410.1l0.9-2c0.4,0.2,0.8,0.4,1.2,0.4c0.5,0,0.7-0.1,1-0.6l-3.8-9.7h2.9l2.2,6.6l2.1-6.6h2.8
				l-3.7,9.9c-0.7,2-1.5,2.7-3.2,2.7C943.6,410.8,942.8,410.5,942.1,410.1z"/>
		</g>
	</g>
	<g>
		<g>
			<path fill="#FFFFFF" d="M892.7,363.7c-0.6-0.8-1.2-1.9-1-3l10-70.4c0.3-1.9,2-3.2,3.9-3l27.7,2.7c0.8,0.1,1.6,0.4,2.2,1
				l30.4,30.4c0.6,0.6,0.9,1.4,1,2.2l2.7,27.7c0.2,1.9-1.2,3.6-3.1,3.9l-70.8,9.6C894.6,364.9,893.5,364.5,892.7,363.7L892.7,363.7z
				 M908.2,294.7l-8.8,62.3l62.7-8.5l-2.3-23L931.2,297L908.2,294.7L908.2,294.7z"/>
		</g>
		<g>
			<path fill="#FFFFFF" d="M964.7,352.9l-60.8-60.8c-0.5-0.5-0.7-1.3-0.3-2c0.3-0.7,1-1.1,1.8-1l27.7,2.7c0.4,0,0.8,0.2,1.1,0.5
				l30.4,30.4c0.3,0.3,0.5,0.7,0.5,1.1l2.7,27.7c0.1,0.7-0.3,1.5-1,1.8C966.1,353.6,965.3,353.4,964.7,352.9L964.7,352.9z
				 M910,293.1l53.7,53.7l-2.2-22.1l-29.5-29.5L910,293.1L910,293.1z"/>
		</g>
		<g>
			<path fill="#FFFFFF" d="M893.8,363c-0.6-0.6-0.7-1.4-0.3-2.1l37.5-67c0.5-0.9,1.6-1.2,2.4-0.7c0.9,0.5,1.2,1.6,0.7,2.4
				l-34.4,61.5l61.5-34.4c0.9-0.5,1.9-0.2,2.4,0.7c0.5,0.9,0.2,1.9-0.7,2.4l-67,37.5C895.3,363.7,894.4,363.6,893.8,363L893.8,363z"
				/>
		</g>
		<g>
			<path fill="#FFFFFF" d="M934.4,322.4c-0.3-0.3-0.5-0.6-0.5-1.1l-3.1-26.4c-0.1-1,0.6-1.9,1.6-2c1-0.1,1.9,0.6,2,1.6l2.9,25
				l25,2.9c1,0.1,1.7,1,1.6,2c-0.1,1-1,1.7-2,1.6l-26.4-3.1C935.1,322.9,934.7,322.7,934.4,322.4L934.4,322.4z"/>
		</g>
		<g>
			<path fill="#FFFFFF" d="M963.1,350.9c-0.1-0.1-0.2-0.3-0.3-0.4L944,312.8L906.4,294c-0.8-0.4-1.1-1.4-0.7-2.2
				c0.4-0.8,1.4-1.1,2.2-0.7l38.1,19c0.3,0.2,0.6,0.4,0.7,0.7l19,38.2c0.4,0.8,0.1,1.8-0.7,2.2C964.3,351.5,963.6,351.4,963.1,350.9
				L963.1,350.9z"/>
		</g>
	</g>
</g>
<g>
	<g>
		<rect x="664.4" y="251.6" fill="#6CB2E2" width="169.2" height="169.2"/>
		<g>
			<path fill="#FFFFFF" d="M717.1,397.9h2.7v1.9c0.6-1.3,1.5-2.2,3.1-2.1v2.9h-0.1c-1.8,0-2.9,1.1-2.9,3.4v3.6h-2.7V397.9z"/>
			<path fill="#FFFFFF" d="M723.9,402.7L723.9,402.7c0-2.8,2-5.1,4.8-5.1c3.2,0,4.7,2.5,4.7,5.2c0,0.2,0,0.5,0,0.7h-6.7
				c0.3,1.2,1.1,1.9,2.4,1.9c0.9,0,1.6-0.3,2.3-1l1.6,1.4c-0.9,1.1-2.2,1.8-3.9,1.8C726,407.7,723.9,405.7,723.9,402.7z
				 M730.7,401.9c-0.2-1.2-0.9-2.1-2-2.1c-1.1,0-1.9,0.8-2.1,2.1H730.7z"/>
			<path fill="#FFFFFF" d="M734.9,402.7L734.9,402.7c0-2.8,2.1-5.1,5.1-5.1c1.8,0,3,0.6,3.9,1.6l-1.7,1.8c-0.6-0.6-1.2-1.1-2.2-1.1
				c-1.4,0-2.3,1.2-2.3,2.6v0c0,1.5,1,2.7,2.4,2.7c0.9,0,1.5-0.4,2.2-1l1.6,1.6c-0.9,1-2,1.8-3.9,1.8
				C737.1,407.7,734.9,405.5,734.9,402.7z"/>
			<path fill="#FFFFFF" d="M745.7,394.4h2.9v2.4h-2.9V394.4z M745.8,397.9h2.7v9.7h-2.7V397.9z"/>
			<path fill="#FFFFFF" d="M751.1,397.9h2.7v1.4c0.7-0.9,1.6-1.6,3-1.6c2.2,0,4.4,1.8,4.4,5v0c0,3.2-2.1,5-4.4,5
				c-1.5,0-2.4-0.7-3-1.4v4.1h-2.7V397.9z M758.5,402.7L758.5,402.7c0-1.6-1.1-2.7-2.4-2.7c-1.3,0-2.3,1.1-2.3,2.7v0
				c0,1.6,1.1,2.7,2.3,2.7C757.4,405.4,758.5,404.3,758.5,402.7z"/>
			<path fill="#FFFFFF" d="M762.8,402.7L762.8,402.7c0-2.8,2-5.1,4.8-5.1c3.2,0,4.7,2.5,4.7,5.2c0,0.2,0,0.5,0,0.7h-6.7
				c0.3,1.2,1.1,1.9,2.4,1.9c0.9,0,1.6-0.3,2.3-1l1.6,1.4c-0.9,1.1-2.2,1.8-3.9,1.8C764.9,407.7,762.8,405.7,762.8,402.7z
				 M769.6,401.9c-0.2-1.2-0.9-2.1-2-2.1c-1.1,0-1.9,0.8-2.1,2.1H769.6z"/>
			<path fill="#FFFFFF" d="M773.5,406.2l1.2-1.8c1,0.8,2.1,1.2,3,1.2c0.8,0,1.2-0.3,1.2-0.7v0c0-0.6-0.9-0.8-2-1.1
				c-1.3-0.4-2.9-1-2.9-2.9v0c0-2,1.6-3.1,3.5-3.1c1.2,0,2.6,0.4,3.6,1.1l-1,1.9c-1-0.6-1.9-0.9-2.6-0.9c-0.7,0-1,0.3-1,0.7v0
				c0,0.5,0.9,0.8,2,1.2c1.4,0.5,2.9,1.1,2.9,2.9v0c0,2.1-1.6,3.1-3.7,3.1C776.3,407.7,774.8,407.2,773.5,406.2z"/>
		</g>
	</g>
	<g>
		<path fill="#FFFFFF" d="M772.2,356.5v-83.9c0-1-0.8-1.8-1.8-1.8h-63.1c-1,0-1.8,0.8-1.8,1.8v83.9c0,1,0.8,1.8,1.8,1.8h63.1
			C771.4,358.3,772.2,357.5,772.2,356.5z M747,280.3h8.8c1,0,1.8,0.8,1.8,1.8c0,1-0.8,1.8-1.8,1.8H747c-1,0-1.8-0.8-1.8-1.8
			C745.2,281.1,746,280.3,747,280.3z M754.9,289.8c0,1-0.8,1.8-1.8,1.8h-31.7c-1,0-1.8-0.8-1.8-1.8c0-1,0.8-1.8,1.8-1.8h31.7
			C754.1,288,754.9,288.8,754.9,289.8z M731.7,280.3h8.8c1,0,1.8,0.8,1.8,1.8c0,1-0.8,1.8-1.8,1.8h-8.8c-1,0-1.8-0.8-1.8-1.8
			C729.9,281.1,730.7,280.3,731.7,280.3z M716.5,280.3h8.8c1,0,1.8,0.8,1.8,1.8c0,1-0.8,1.8-1.8,1.8h-8.8c-1,0-1.8-0.8-1.8-1.8
			C714.7,281.1,715.5,280.3,716.5,280.3z M746.9,306.4h-25.5c-1,0-1.8-0.8-1.8-1.8c0-1,0.8-1.8,1.8-1.8h25.5c1,0,1.8,0.8,1.8,1.8
			C748.6,305.6,747.8,306.4,746.9,306.4z M748.6,312c0,1-0.8,1.8-1.8,1.8h-25.5c-1,0-1.8-0.8-1.8-1.8c0-1,0.8-1.8,1.8-1.8h25.5
			C747.8,310.2,748.6,311,748.6,312z M725.3,329h-8.8c-1,0-1.8-0.8-1.8-1.8c0-1,0.8-1.8,1.8-1.8h8.8c1,0,1.8,0.8,1.8,1.8
			C727.1,328.2,726.3,329,725.3,329z M760.6,321.4h-39.2c-1,0-1.8-0.8-1.8-1.8c0-1,0.8-1.8,1.8-1.8h39.2c1,0,1.8,0.8,1.8,1.8
			C762.4,320.6,761.6,321.4,760.6,321.4z M760.6,299.2h-39.2c-1,0-1.8-0.8-1.8-1.8c0-1,0.8-1.8,1.8-1.8h39.2c1,0,1.8,0.8,1.8,1.8
			C762.4,298.4,761.6,299.2,760.6,299.2z"/>
		<path fill="#FFFFFF" d="M782.3,370.2h-63.1c-1,0-1.8-0.8-1.8-1.8v-4.1h59c1,0,1.8-0.8,1.8-1.8v-79.8h4.2c1,0,1.8,0.8,1.8,1.8v83.9
			C784.1,369.4,783.3,370.2,782.3,370.2z"/>
		<path fill="#FFFFFF" d="M796,296.4v83.9c0,1-0.8,1.8-1.8,1.8h-63.1c-1,0-1.8-0.8-1.8-1.8v-4.1h59c1,0,1.8-0.8,1.8-1.8v-79.8h4.1
			C795.2,294.6,796,295.4,796,296.4z"/>
	</g>
</g>
<g>
	<rect x="10.6" y="252.4" fill="#5872AD" width="169.2" height="169.2"/>
	<g>
		<path fill="#FFFFFF" d="M146.3,321.6l-45.8-45.8c-2.6-2.6-6.9-2.6-9.6,0l-9.5,9.5l12.1,12.1c2.8-0.9,6-0.3,8.3,1.9
			c2.2,2.2,2.9,5.5,1.9,8.3l11.6,11.6c2.8-1,6.1-0.3,8.3,1.9c3.1,3.1,3.1,8.2,0,11.4c-3.1,3.1-8.2,3.1-11.4,0
			c-2.4-2.4-2.9-5.8-1.7-8.7l-10.8-10.8v28.5c0.8,0.4,1.5,0.9,2.1,1.5c3.1,3.1,3.1,8.2,0,11.4c-3.1,3.1-8.2,3.1-11.4,0
			c-3.1-3.1-3.1-8.2,0-11.4c0.8-0.8,1.7-1.4,2.6-1.8v-28.8c-1-0.4-1.9-1-2.6-1.8c-2.4-2.4-2.9-5.9-1.7-8.8L76.8,290l-31.4,31.4
			c-2.6,2.6-2.6,6.9,0,9.6l45.8,45.8c2.6,2.6,6.9,2.6,9.6,0l45.6-45.6C148.9,328.5,148.9,324.2,146.3,321.6z"/>
	</g>
	<g>
		<path fill="#FFFFFF" d="M51.4,403.6L51.4,403.6c0-2.8,2.1-5.1,5.1-5.1c1.8,0,3,0.6,3.9,1.6l-1.7,1.8c-0.6-0.6-1.2-1.1-2.2-1.1
			c-1.4,0-2.3,1.2-2.3,2.6v0c0,1.5,1,2.7,2.4,2.7c0.9,0,1.5-0.4,2.2-1l1.6,1.6c-0.9,1-2,1.8-3.9,1.8
			C53.5,408.5,51.4,406.3,51.4,403.6z"/>
		<path fill="#FFFFFF" d="M62.1,395.2h2.7v4.9c0.6-0.8,1.4-1.5,2.8-1.5c2.1,0,3.3,1.4,3.3,3.6v6.2h-2.7v-5.4c0-1.3-0.6-2-1.7-2
			c-1,0-1.7,0.7-1.7,2v5.4h-2.7V395.2z"/>
		<path fill="#FFFFFF" d="M72.9,403.6L72.9,403.6c0-2.8,2-5.1,4.8-5.1c3.2,0,4.7,2.5,4.7,5.2c0,0.2,0,0.5,0,0.7h-6.7
			c0.3,1.2,1.1,1.9,2.4,1.9c0.9,0,1.6-0.3,2.3-1l1.6,1.4c-0.9,1.1-2.2,1.8-3.9,1.8C75,408.5,72.9,406.5,72.9,403.6z M79.7,402.7
			c-0.2-1.2-0.9-2.1-2-2.1c-1.1,0-1.9,0.8-2.1,2.1H79.7z"/>
		<path fill="#FFFFFF" d="M84.8,401h-1.1v-2.3h1.1v-0.6c0-1.1,0.3-1.8,0.8-2.3c0.5-0.5,1.2-0.8,2.2-0.8c0.9,0,1.4,0.1,1.9,0.3v2.3
			c-0.4-0.1-0.8-0.2-1.2-0.2c-0.6,0-1,0.3-1,1v0.4h2.2v2.2h-2.2v7.3h-2.7V401z"/>
		<path fill="#FFFFFF" d="M90.9,401.4h5.5v2.6h-5.5V401.4z"/>
		<path fill="#FFFFFF" d="M98.6,398.7h2.7v1.9c0.6-1.3,1.5-2.2,3.1-2.1v2.9h-0.1c-1.8,0-2.9,1.1-2.9,3.4v3.6h-2.7V398.7z"/>
		<path fill="#FFFFFF" d="M105.4,403.6L105.4,403.6c0-2.8,2-5.1,4.8-5.1c3.2,0,4.7,2.5,4.7,5.2c0,0.2,0,0.5,0,0.7h-6.7
			c0.3,1.2,1.1,1.9,2.4,1.9c0.9,0,1.6-0.3,2.3-1l1.6,1.4c-0.9,1.1-2.2,1.8-3.9,1.8C107.5,408.5,105.4,406.5,105.4,403.6z
			 M112.2,402.7c-0.2-1.2-0.9-2.1-2-2.1c-1.1,0-1.9,0.8-2.1,2.1H112.2z"/>
		<path fill="#FFFFFF" d="M116.9,398.7h2.7v1.4c0.7-0.9,1.6-1.6,3-1.6c2.3,0,4.4,1.8,4.4,5v0c0,3.2-2.1,5-4.4,5
			c-1.5,0-2.4-0.7-3-1.4v4.1h-2.7V398.7z M124.3,403.5L124.3,403.5c0-1.6-1.1-2.7-2.4-2.7c-1.3,0-2.3,1.1-2.3,2.7v0
			c0,1.6,1.1,2.7,2.3,2.7C123.2,406.2,124.3,405.1,124.3,403.5z"/>
		<path fill="#FFFFFF" d="M128.6,403.6L128.6,403.6c0-2.8,2.2-5.1,5.2-5.1c3,0,5.2,2.2,5.2,5v0c0,2.8-2.2,5-5.2,5
			C130.8,408.5,128.6,406.3,128.6,403.6z M136.3,403.6L136.3,403.6c0-1.5-1-2.7-2.5-2.7c-1.6,0-2.5,1.2-2.5,2.6v0
			c0,1.4,1,2.7,2.5,2.7C135.4,406.2,136.3,405,136.3,403.6z"/>
	</g>
</g>
<g>
	<g>
		<rect x="10.6" y="252.8" fill="#7F888D" width="169.2" height="169.2"/>
		<g>
			<path fill="#FFFFFF" d="M51.4,403.9L51.4,403.9c0-2.8,2.1-5.1,5.1-5.1c1.8,0,3,0.6,3.9,1.6l-1.7,1.8c-0.6-0.6-1.2-1.1-2.2-1.1
				c-1.4,0-2.3,1.2-2.3,2.6v0c0,1.5,1,2.7,2.4,2.7c0.9,0,1.5-0.4,2.2-1l1.6,1.6c-0.9,1-2,1.8-3.9,1.8
				C53.5,408.9,51.4,406.6,51.4,403.9z"/>
			<path fill="#FFFFFF" d="M62.1,395.5h2.7v4.9c0.6-0.8,1.4-1.5,2.8-1.5c2.1,0,3.3,1.4,3.3,3.6v6.2h-2.7v-5.4c0-1.3-0.6-2-1.7-2
				c-1,0-1.7,0.7-1.7,2v5.4h-2.7V395.5z"/>
			<path fill="#FFFFFF" d="M72.9,403.9L72.9,403.9c0-2.8,2-5.1,4.8-5.1c3.2,0,4.7,2.5,4.7,5.2c0,0.2,0,0.5,0,0.7h-6.7
				c0.3,1.2,1.1,1.9,2.4,1.9c0.9,0,1.6-0.3,2.3-1l1.6,1.4c-0.9,1.1-2.2,1.8-3.9,1.8C75,408.9,72.9,406.8,72.9,403.9z M79.7,403.1
				c-0.2-1.2-0.9-2.1-2-2.1c-1.1,0-1.9,0.8-2.1,2.1H79.7z"/>
			<path fill="#FFFFFF" d="M84.8,401.3h-1.1v-2.3h1.1v-0.6c0-1.1,0.3-1.8,0.8-2.3c0.5-0.5,1.2-0.8,2.2-0.8c0.9,0,1.4,0.1,1.9,0.3
				v2.3c-0.4-0.1-0.8-0.2-1.2-0.2c-0.6,0-1,0.3-1,1v0.4h2.2v2.2h-2.2v7.3h-2.7V401.3z"/>
			<path fill="#FFFFFF" d="M90.9,401.8h5.5v2.6h-5.5V401.8z"/>
			<path fill="#FFFFFF" d="M98.6,399h2.7v1.9c0.6-1.3,1.5-2.2,3.1-2.1v2.9h-0.1c-1.8,0-2.9,1.1-2.9,3.4v3.6h-2.7V399z"/>
			<path fill="#FFFFFF" d="M105.4,403.9L105.4,403.9c0-2.8,2-5.1,4.8-5.1c3.2,0,4.7,2.5,4.7,5.2c0,0.2,0,0.5,0,0.7h-6.7
				c0.3,1.2,1.1,1.9,2.4,1.9c0.9,0,1.6-0.3,2.3-1l1.6,1.4c-0.9,1.1-2.2,1.8-3.9,1.8C107.5,408.9,105.4,406.8,105.4,403.9z
				 M112.2,403.1c-0.2-1.2-0.9-2.1-2-2.1c-1.1,0-1.9,0.8-2.1,2.1H112.2z"/>
			<path fill="#FFFFFF" d="M116.9,399h2.7v1.4c0.7-0.9,1.6-1.6,3-1.6c2.3,0,4.4,1.8,4.4,5v0c0,3.2-2.1,5-4.4,5c-1.5,0-2.4-0.7-3-1.4
				v4.1h-2.7V399z M124.3,403.9L124.3,403.9c0-1.6-1.1-2.7-2.4-2.7c-1.3,0-2.3,1.1-2.3,2.7v0c0,1.6,1.1,2.7,2.3,2.7
				C123.2,406.5,124.3,405.5,124.3,403.9z"/>
			<path fill="#FFFFFF" d="M128.6,403.9L128.6,403.9c0-2.8,2.2-5.1,5.2-5.1c3,0,5.2,2.2,5.2,5v0c0,2.8-2.2,5-5.2,5
				C130.8,408.9,128.6,406.7,128.6,403.9z M136.3,403.9L136.3,403.9c0-1.5-1-2.7-2.5-2.7c-1.6,0-2.5,1.2-2.5,2.6v0
				c0,1.4,1,2.7,2.5,2.7C135.4,406.5,136.3,405.3,136.3,403.9z"/>
		</g>
	</g>
	<g>
		<path fill="#FFFFFF" d="M94.8,354c11.6,0,21.5-3.1,24.9-7.4v-6.8c-0.1-0.2-0.3-0.3-0.4-0.5c-3.4,4.4-13.3,7.5-25,7.5
			c-11.2,0-20.7-2.9-24.5-6.9c0,0-0.1,0.1-0.1,0.1v6.5C73,350.8,83,354,94.8,354z"/>
		<path fill="#FFFFFF" d="M75.7,335.8c4.8,2.1,11.6,3.4,19.1,3.4s14.3-1.3,19.1-3.4c2.2-1,4-2.1,5.2-3.3c0.2-0.2,0.4-0.5,0.6-0.7
			V325c-0.1-0.2-0.3-0.3-0.4-0.5c-1.2,1.5-3.2,2.9-5.9,4.1c-4.8,2.1-11.6,3.4-19.1,3.4c-7.5,0-14.3-1.3-19.1-3.4
			c-2.3-1-4.2-2.2-5.4-3.5c0,0-0.1,0.1-0.1,0.1v6.5c0.1,0.1,0.2,0.2,0.3,0.3C71.2,333.4,73.1,334.7,75.7,335.8z"/>
		<path fill="#FFFFFF" d="M75.9,320.8c4.5,2.2,11.3,3.5,18.8,3.5c7.6,0,14.3-1.4,18.9-3.6c2.3-1.1,4-2.4,5-3.9
			c0.6-0.9,0.9-1.8,0.9-2.8c0-5.6-11.1-10.2-24.8-10.2c-13.7,0-24.8,4.6-24.8,10.2c0,0.8,0.2,1.6,0.6,2.3
			C71.4,318.1,73.3,319.6,75.9,320.8z"/>
		<path fill="#FFFFFF" d="M137.6,283H52.3c-2.2,0-3.9,1.7-3.9,3.9v85.3c0,2.2,1.8,3.9,3.9,3.9h85.3c2.2,0,3.9-1.8,3.9-3.9v-85.3
			C141.6,284.8,139.8,283,137.6,283z M133.7,368.3H56.2v-77.5h77.5V368.3z"/>
	</g>
</g>
<rect x="190.1" y="252.4" fill="#D1D3D4" width="48.7" height="168.1"/>
<rect x="427.6" y="251.7" fill="#D1D3D4" width="48.7" height="169"/>
<g>
	<g>
		<rect x="248.7" y="251.8" fill="#7F888D" width="169.2" height="169.2"/>
		<g>
			<path fill="#FFFFFF" d="M279.7,398h2.8l1.5,5.9l1.8-5.9h2.4l1.8,5.9l1.6-5.9h2.7l-3,9.7h-2.5l-1.9-5.9l-1.9,5.9h-2.4L279.7,398z"
				/>
			<path fill="#FFFFFF" d="M295,402.9L295,402.9c0-2.8,2.2-5.1,5.2-5.1c3,0,5.2,2.2,5.2,5v0c0,2.8-2.2,5-5.2,5
				C297.2,407.9,295,405.7,295,402.9z M302.8,402.9L302.8,402.9c0-1.5-1-2.7-2.5-2.7c-1.6,0-2.5,1.2-2.5,2.6v0c0,1.4,1,2.7,2.5,2.7
				C301.8,405.5,302.8,404.3,302.8,402.9z"/>
			<path fill="#FFFFFF" d="M307.4,398h2.7v1.9c0.6-1.3,1.5-2.2,3.1-2.1v2.9h-0.1c-1.8,0-2.9,1.1-2.9,3.4v3.6h-2.7V398z"/>
			<path fill="#FFFFFF" d="M315,394.5h2.7v7l3.2-3.5h3.3l-3.7,3.8l3.8,5.9h-3.1l-2.5-3.9l-1,1v2.9H315V394.5z"/>
			<path fill="#FFFFFF" d="M324.9,406.4l1.2-1.8c1,0.8,2.1,1.2,3,1.2c0.8,0,1.2-0.3,1.2-0.7v0c0-0.6-0.9-0.8-2-1.1
				c-1.4-0.4-2.9-1-2.9-2.9v0c0-2,1.6-3.1,3.5-3.1c1.2,0,2.6,0.4,3.6,1.1l-1,1.9c-1-0.6-1.9-0.9-2.6-0.9c-0.7,0-1,0.3-1,0.7v0
				c0,0.5,0.9,0.8,2,1.2c1.4,0.5,2.9,1.1,2.9,2.9v0c0,2.1-1.6,3.1-3.7,3.1C327.7,407.8,326.1,407.4,324.9,406.4z"/>
			<path fill="#FFFFFF" d="M334.9,404.9v-4.6h-1.2V398h1.2v-2.5h2.7v2.5h2.3v2.3h-2.3v4.1c0,0.6,0.3,0.9,0.9,0.9
				c0.5,0,1-0.1,1.4-0.3v2.2c-0.6,0.3-1.2,0.6-2.2,0.6C336.1,407.8,334.9,407.1,334.9,404.9z"/>
			<path fill="#FFFFFF" d="M341.4,404.9L341.4,404.9c0-2.1,1.6-3.1,3.9-3.1c1,0,1.7,0.2,2.4,0.4V402c0-1.1-0.7-1.8-2.1-1.8
				c-1,0-1.8,0.2-2.7,0.5l-0.7-2.1c1.1-0.5,2.1-0.8,3.7-0.8c1.5,0,2.6,0.4,3.3,1.1c0.7,0.7,1,1.8,1,3.1v5.6h-2.6v-1
				c-0.7,0.7-1.6,1.2-2.9,1.2C342.9,407.8,341.4,406.8,341.4,404.9z M347.7,404.2v-0.5c-0.5-0.2-1.1-0.4-1.7-0.4
				c-1.2,0-1.9,0.5-1.9,1.3v0c0,0.7,0.6,1.2,1.5,1.2C346.8,405.9,347.7,405.2,347.7,404.2z"/>
			<path fill="#FFFFFF" d="M353,404.9v-4.6h-1.2V398h1.2v-2.5h2.7v2.5h2.3v2.3h-2.3v4.1c0,0.6,0.3,0.9,0.9,0.9c0.5,0,1-0.1,1.4-0.3
				v2.2c-0.6,0.3-1.2,0.6-2.2,0.6C354.1,407.8,353,407.1,353,404.9z"/>
			<path fill="#FFFFFF" d="M360,394.5h2.9v2.4H360V394.5z M360.1,398h2.7v9.7h-2.7V398z"/>
			<path fill="#FFFFFF" d="M365,402.9L365,402.9c0-2.8,2.2-5.1,5.2-5.1c3,0,5.2,2.2,5.2,5v0c0,2.8-2.2,5-5.2,5
				C367.2,407.9,365,405.7,365,402.9z M372.7,402.9L372.7,402.9c0-1.5-1-2.7-2.5-2.7c-1.6,0-2.5,1.2-2.5,2.6v0c0,1.4,1,2.7,2.5,2.7
				C371.8,405.5,372.7,404.3,372.7,402.9z"/>
			<path fill="#FFFFFF" d="M377.4,398h2.7v1.4c0.6-0.8,1.4-1.5,2.8-1.5c2.1,0,3.3,1.4,3.3,3.6v6.2h-2.7v-5.4c0-1.3-0.6-2-1.7-2
				c-1,0-1.7,0.7-1.7,2v5.4h-2.7V398z"/>
		</g>
	</g>
	<g>
		<g>
			<path fill="#FFFFFF" d="M380.1,355.8h-94.4c-2.4,0-4.3-1.9-4.3-4.3v-60.1c0-2.4,1.9-4.3,4.3-4.3h94.4c2.4,0,4.3,1.9,4.3,4.3v60.1
				C384.4,353.9,382.5,355.8,380.1,355.8L380.1,355.8z M290,347.2h85.8v-51.5H290V347.2L290,347.2z"/>
		</g>
		<g>
			<path fill="#FFFFFF" d="M371.5,345.1h-77.2c-1.2,0-2.1-1-2.1-2.1V300c0-1.2,1-2.1,2.1-2.1h77.2c1.2,0,2.1,1,2.1,2.1v42.9
				C373.6,344.1,372.7,345.1,371.5,345.1L371.5,345.1z M296.4,340.8h72.9v-38.6h-72.9V340.8L296.4,340.8z"/>
		</g>
		<g>
			<path fill="#FFFFFF" d="M393.3,368.3H273.9c-2.4,0-4.3-1.9-4.3-4.3c0-2.4,1.9-4.3,4.3-4.3h119.4c2.4,0,4.3,1.9,4.3,4.3
				C397.6,366.4,395.7,368.3,393.3,368.3L393.3,368.3z"/>
		</g>
	</g>
</g>
<g>
	<g>
		<g>
			<path fill="#FFFFFF" d="M1588.2,116.8c-0.5,0-1-0.2-1.5-0.5c-1.1-0.8-1.4-2.4-0.6-3.5l11.7-16.1l-11.7-16.1
				c-0.8-1.1-0.6-2.7,0.6-3.5c1.1-0.8,2.7-0.6,3.5,0.6l12.8,17.5c0.6,0.9,0.6,2.1,0,2.9l-12.8,17.5
				C1589.8,116.5,1589,116.8,1588.2,116.8L1588.2,116.8z"/>
		</g>
	</g>
	<g>
		<g>
			<path fill="#FFFFFF" d="M1571.6,116.8c-0.5,0-1-0.2-1.5-0.5c-1.1-0.8-1.4-2.4-0.6-3.5l11.7-16.1l-11.7-16.1
				c-0.8-1.1-0.6-2.7,0.6-3.5c1.1-0.8,2.7-0.6,3.5,0.6l12.8,17.5c0.6,0.9,0.6,2.1,0,2.9l-12.8,17.5
				C1573.1,116.5,1572.4,116.8,1571.6,116.8L1571.6,116.8z"/>
		</g>
	</g>
</g>
<g>
	<g>
		<g>
			<path fill="#FFFFFF" d="M213.1,276.1c0.5,0,1,0.2,1.5,0.5c1.1,0.8,1.4,2.4,0.6,3.5l-11.7,16.1l11.7,16.1c0.8,1.1,0.6,2.7-0.6,3.5
				c-1.1,0.8-2.7,0.6-3.5-0.6l-12.8-17.5c-0.6-0.9-0.6-2.1,0-2.9l12.8-17.5C211.5,276.5,212.3,276.1,213.1,276.1L213.1,276.1z"/>
		</g>
	</g>
	<g>
		<g>
			<path fill="#FFFFFF" d="M229.7,276.1c0.5,0,1,0.2,1.5,0.5c1.1,0.8,1.4,2.4,0.6,3.5L220,296.1l11.7,16.1c0.8,1.1,0.6,2.7-0.6,3.5
				c-1.1,0.8-2.7,0.6-3.5-0.6l-12.8-17.5c-0.6-0.9-0.6-2.1,0-2.9l12.8-17.5C228.2,276.5,228.9,276.1,229.7,276.1L229.7,276.1z"/>
		</g>
	</g>
</g>
<g>
	<g>
		<g>
			<path fill="#FFFFFF" d="M206.9,396.5c-0.5,0-1-0.2-1.5-0.5c-1.1-0.8-1.4-2.4-0.6-3.5l11.7-16.1l-11.7-16.1
				c-0.8-1.1-0.6-2.7,0.6-3.5c1.1-0.8,2.7-0.6,3.5,0.6l12.8,17.5c0.6,0.9,0.6,2.1,0,2.9L209,395.5
				C208.5,396.1,207.7,396.5,206.9,396.5L206.9,396.5z"/>
		</g>
	</g>
	<g>
		<g>
			<path fill="#FFFFFF" d="M190.3,396.5c-0.5,0-1-0.2-1.5-0.5c-1.1-0.8-1.4-2.4-0.6-3.5l11.7-16.1l-11.7-16.1
				c-0.8-1.1-0.6-2.7,0.6-3.5c1.1-0.8,2.7-0.6,3.5,0.6l12.8,17.5c0.6,0.9,0.6,2.1,0,2.9l-12.8,17.5
				C191.8,396.1,191.1,396.5,190.3,396.5L190.3,396.5z"/>
		</g>
	</g>
</g>
<g>
	<g>
		<g>
			<path fill="#FFFFFF" d="M1576.5,113.5c-0.5,0-1-0.2-1.5-0.5c-1.1-0.8-1.4-2.4-0.6-3.5l11.7-16.1l-11.7-16.1
				c-0.8-1.1-0.6-2.7,0.6-3.5c1.1-0.8,2.7-0.6,3.5,0.6l12.8,17.5c0.6,0.9,0.6,2.1,0,2.9l-12.8,17.5
				C1578.1,113.2,1577.3,113.5,1576.5,113.5L1576.5,113.5z"/>
		</g>
	</g>
	<g>
		<g>
			<path fill="#FFFFFF" d="M1559.9,113.5c-0.5,0-1-0.2-1.5-0.5c-1.1-0.8-1.4-2.4-0.6-3.5l11.7-16.1l-11.7-16.1
				c-0.8-1.1-0.6-2.7,0.6-3.5c1.1-0.8,2.7-0.6,3.5,0.6l12.8,17.5c0.6,0.9,0.6,2.1,0,2.9l-12.8,17.5
				C1561.4,113.2,1560.7,113.5,1559.9,113.5L1559.9,113.5z"/>
		</g>
	</g>
</g>
<g>
	<g>
		<g>
			<path fill="#FFFFFF" d="M436.1,364.9c0-0.7,0.6-1.3,1.3-1.3h32.1c0.7,0,1.3,0.6,1.3,1.3c0,0.7-0.6,1.3-1.3,1.3h-32.1
				C436.6,366.2,436.1,365.6,436.1,364.9L436.1,364.9z"/>
		</g>
		<g>
			<path fill="#FFFFFF" d="M436.1,378.8c0-0.7,0.6-1.3,1.3-1.3h32.1c0.7,0,1.3,0.6,1.3,1.3c0,0.7-0.6,1.3-1.3,1.3h-32.1
				C436.6,380.1,436.1,379.5,436.1,378.8L436.1,378.8z"/>
		</g>
		<g>
			<path fill="#FFFFFF" d="M436.1,392.7c0-0.7,0.6-1.3,1.3-1.3h32.1c0.7,0,1.3,0.6,1.3,1.3c0,0.7-0.6,1.3-1.3,1.3h-32.1
				C436.6,394,436.1,393.4,436.1,392.7L436.1,392.7z"/>
		</g>
		<g>
			<polygon fill="#FFFFFF" points="451.9,368.7 451.9,361.1 471,361.1 471,368.7 451.9,368.7 			"/>
		</g>
		<g>
			<polygon fill="#FFFFFF" points="451.9,382.6 451.9,375 471,375 471,382.6 451.9,382.6 			"/>
		</g>
		<g>
			<polygon fill="#FFFFFF" points="451.9,396.5 451.9,388.9 471,388.9 471,396.5 451.9,396.5 			"/>
		</g>
	</g>
	<g>
		<g>
			<path fill="#FFFFFF" d="M436.1,323.1c0-0.7,0.6-1.3,1.3-1.3h32.1c0.7,0,1.3,0.6,1.3,1.3c0,0.7-0.6,1.3-1.3,1.3h-32.1
				C436.6,324.3,436.1,323.8,436.1,323.1L436.1,323.1z"/>
		</g>
		<g>
			<path fill="#FFFFFF" d="M436.1,337c0-0.7,0.6-1.3,1.3-1.3h32.1c0.7,0,1.3,0.6,1.3,1.3c0,0.7-0.6,1.3-1.3,1.3h-32.1
				C436.6,338.2,436.1,337.7,436.1,337L436.1,337z"/>
		</g>
		<g>
			<path fill="#FFFFFF" d="M436.1,350.9c0-0.7,0.6-1.3,1.3-1.3h32.1c0.7,0,1.3,0.6,1.3,1.3c0,0.7-0.6,1.3-1.3,1.3h-32.1
				C436.6,352.1,436.1,351.6,436.1,350.9L436.1,350.9z"/>
		</g>
		<g>
			<polygon fill="#FFFFFF" points="451.9,326.9 451.9,319.3 471,319.3 471,326.9 451.9,326.9 			"/>
		</g>
		<g>
			<polygon fill="#FFFFFF" points="451.9,340.8 451.9,333.2 471,333.2 471,340.8 451.9,340.8 			"/>
		</g>
		<g>
			<polygon fill="#FFFFFF" points="451.9,354.7 451.9,347.1 471,347.1 471,354.7 451.9,354.7 			"/>
		</g>
	</g>
	<g>
		<g>
			<path fill="#FFFFFF" d="M436.1,281.2c0-0.7,0.6-1.3,1.3-1.3h32.1c0.7,0,1.3,0.6,1.3,1.3c0,0.7-0.6,1.3-1.3,1.3h-32.1
				C436.6,282.5,436.1,281.9,436.1,281.2L436.1,281.2z"/>
		</g>
		<g>
			<path fill="#FFFFFF" d="M436.1,295.1c0-0.7,0.6-1.3,1.3-1.3h32.1c0.7,0,1.3,0.6,1.3,1.3c0,0.7-0.6,1.3-1.3,1.3h-32.1
				C436.6,296.4,436.1,295.8,436.1,295.1L436.1,295.1z"/>
		</g>
		<g>
			<path fill="#FFFFFF" d="M436.1,309c0-0.7,0.6-1.3,1.3-1.3h32.1c0.7,0,1.3,0.6,1.3,1.3c0,0.7-0.6,1.3-1.3,1.3h-32.1
				C436.6,310.3,436.1,309.7,436.1,309L436.1,309z"/>
		</g>
		<g>
			<polygon fill="#FFFFFF" points="451.9,285 451.9,277.4 471,277.4 471,285 451.9,285 			"/>
		</g>
		<g>
			<polygon fill="#FFFFFF" points="451.9,298.9 451.9,291.3 471,291.3 471,298.9 451.9,298.9 			"/>
		</g>
		<g>
			<polygon fill="#FFFFFF" points="451.9,312.8 451.9,305.2 471,305.2 471,312.8 451.9,312.8 			"/>
		</g>
	</g>
</g>
<g>
	<g>
		<rect x="485.8" y="251.6" fill="#445464" width="169.2" height="169.2"/>
		<g>
			<path fill="#FFFFFF" d="M521,402.7L521,402.7c0-2.8,2.1-5.1,5.1-5.1c1.8,0,3,0.6,3.9,1.6l-1.7,1.8c-0.6-0.6-1.2-1.1-2.2-1.1
				c-1.4,0-2.3,1.2-2.3,2.6v0c0,1.5,1,2.7,2.4,2.7c0.9,0,1.5-0.4,2.2-1l1.6,1.6c-0.9,1-2,1.8-3.9,1.8
				C523.1,407.7,521,405.5,521,402.7z"/>
			<path fill="#FFFFFF" d="M531,402.7L531,402.7c0-2.8,2.2-5.1,5.2-5.1c3,0,5.2,2.2,5.2,5v0c0,2.8-2.2,5-5.2,5
				C533.2,407.7,531,405.5,531,402.7z M538.8,402.7L538.8,402.7c0-1.5-1-2.7-2.5-2.7c-1.6,0-2.5,1.2-2.5,2.6v0c0,1.4,1,2.7,2.5,2.7
				C537.8,405.4,538.8,404.2,538.8,402.7z"/>
			<path fill="#FFFFFF" d="M543,402.7L543,402.7c0-2.8,2.2-5.1,5.2-5.1c3,0,5.2,2.2,5.2,5v0c0,2.8-2.2,5-5.2,5
				C545.2,407.7,543,405.5,543,402.7z M550.7,402.7L550.7,402.7c0-1.5-1-2.7-2.5-2.7c-1.6,0-2.5,1.2-2.5,2.6v0c0,1.4,1,2.7,2.5,2.7
				C549.8,405.4,550.7,404.2,550.7,402.7z"/>
			<path fill="#FFFFFF" d="M555.4,394.4h2.7v7l3.2-3.5h3.3l-3.7,3.8l3.8,5.9h-3.1l-2.5-3.9l-1,1v2.9h-2.7V394.4z"/>
			<path fill="#FFFFFF" d="M568.8,406.3v1.3H566v-13.1h2.7v4.9c0.7-0.9,1.6-1.6,3-1.6c2.3,0,4.4,1.8,4.4,5v0c0,3.2-2.1,5-4.4,5
				C570.3,407.7,569.4,407,568.8,406.3z M573.4,402.7L573.4,402.7c0-1.6-1.1-2.7-2.4-2.7c-1.3,0-2.3,1.1-2.3,2.7v0
				c0,1.6,1.1,2.7,2.3,2.7C572.4,405.4,573.4,404.3,573.4,402.7z"/>
			<path fill="#FFFFFF" d="M577.7,402.7L577.7,402.7c0-2.8,2.2-5.1,5.2-5.1c3,0,5.2,2.2,5.2,5v0c0,2.8-2.2,5-5.2,5
				C579.9,407.7,577.7,405.5,577.7,402.7z M585.5,402.7L585.5,402.7c0-1.5-1-2.7-2.5-2.7c-1.6,0-2.5,1.2-2.5,2.6v0
				c0,1.4,1,2.7,2.5,2.7C584.5,405.4,585.5,404.2,585.5,402.7z"/>
			<path fill="#FFFFFF" d="M589.7,402.7L589.7,402.7c0-2.8,2.2-5.1,5.2-5.1c3,0,5.2,2.2,5.2,5v0c0,2.8-2.2,5-5.2,5
				C591.9,407.7,589.7,405.5,589.7,402.7z M597.4,402.7L597.4,402.7c0-1.5-1-2.7-2.5-2.7c-1.6,0-2.5,1.2-2.5,2.6v0
				c0,1.4,1,2.7,2.5,2.7C596.5,405.4,597.4,404.2,597.4,402.7z"/>
			<path fill="#FFFFFF" d="M602.1,394.4h2.7v7l3.2-3.5h3.3l-3.7,3.8l3.8,5.9h-3.1l-2.5-3.9l-1,1v2.9h-2.7V394.4z"/>
			<path fill="#FFFFFF" d="M612,406.2l1.2-1.8c1,0.8,2.1,1.2,3,1.2c0.8,0,1.2-0.3,1.2-0.7v0c0-0.6-0.9-0.8-2-1.1
				c-1.4-0.4-2.9-1-2.9-2.9v0c0-2,1.6-3.1,3.5-3.1c1.2,0,2.6,0.4,3.6,1.1l-1,1.9c-1-0.6-1.9-0.9-2.6-0.9c-0.7,0-1,0.3-1,0.7v0
				c0,0.5,0.9,0.8,2,1.2c1.4,0.5,2.9,1.1,2.9,2.9v0c0,2.1-1.6,3.1-3.7,3.1C614.8,407.7,613.3,407.2,612,406.2z"/>
		</g>
	</g>
	<g>
		<g>
			<path fill="#FFFFFF" d="M589.9,320.5h-31.4c-1.1,0-2-0.9-2-2v-17.7c0-1.1,0.9-2,2-2h31.4c1.1,0,2,0.9,2,2v17.7
				C591.9,319.6,591,320.5,589.9,320.5L589.9,320.5z M560.6,316.4h27.3v-13.6h-27.3V316.4L560.6,316.4z"/>
		</g>
		<g>
			<g>
				<path fill="#FFFFFF" d="M607.1,376.7h-70.2c-2.3,0-4.1-1.8-4.1-4.1v-88.3c0-2.3,1.8-4.1,4.1-4.1h70.2c2.3,0,4.1,1.8,4.1,4.1
					v88.3C611.2,374.8,609.4,376.7,607.1,376.7L607.1,376.7z M541,368.5h62v-80.1h-62V368.5L541,368.5z"/>
			</g>
			<g>
				<path fill="#FFFFFF" d="M544,304.9h-14.3c-2.3,0-4.1-1.8-4.1-4.1c0-2.3,1.8-4.1,4.1-4.1H544c2.3,0,4.1,1.8,4.1,4.1
					C548.1,303.1,546.3,304.9,544,304.9L544,304.9z"/>
			</g>
			<g>
				<path fill="#FFFFFF" d="M544,323.2h-14.3c-2.3,0-4.1-1.8-4.1-4.1c0-2.3,1.8-4.1,4.1-4.1H544c2.3,0,4.1,1.8,4.1,4.1
					C548.1,321.3,546.3,323.2,544,323.2L544,323.2z"/>
			</g>
			<g>
				<path fill="#FFFFFF" d="M544,341.4h-14.3c-2.3,0-4.1-1.8-4.1-4.1s1.8-4.1,4.1-4.1H544c2.3,0,4.1,1.8,4.1,4.1
					S546.3,341.4,544,341.4L544,341.4z"/>
			</g>
			<g>
				<path fill="#FFFFFF" d="M544,359.7h-14.3c-2.3,0-4.1-1.8-4.1-4.1c0-2.3,1.8-4.1,4.1-4.1H544c2.3,0,4.1,1.8,4.1,4.1
					C548.1,357.9,546.3,359.7,544,359.7L544,359.7z"/>
			</g>
		</g>
	</g>
</g>
</svg>
