<?xml version="1.0" encoding="utf-8"?>
<!-- Generator: Adobe Illustrator 18.1.1, SVG Export Plug-In . SVG Version: 6.00 Build 0)  -->
<svg version="1.1" id="Layer_1" xmlns="http://www.w3.org/2000/svg" xmlns:xlink="http://www.w3.org/1999/xlink" x="0px" y="0px"
	 viewBox="0 0 1798.2 858.2" enable-background="new 0 0 1798.2 858.2" xml:space="preserve">
<g>
	<rect x="476.9" y="468.2" fill="#F08921" width="751.4" height="389"/>
	<g>
		<g>
			<rect x="490.3" y="489" fill="#F08921" width="169.2" height="169.2"/>
			<text transform="matrix(1 0 0 1 521.2476 644.911)" fill="#FFFFFF" font-family="'Gotham-Bold'" font-size="18">Chef Server</text>
		</g>
		<g>
			<g>
				<path fill="#FFFFFF" d="M575.6,583.6c-9.7,0-17.6-7.9-17.6-17.6c0-9.7,7.9-17.6,17.6-17.6c8,0,14.8,5.4,16.9,12.7h6.8
					c-2.3-11-12-19.3-23.7-19.3c-13.3,0-24.2,10.9-24.2,24.2c0,13.3,10.9,24.2,24.2,24.2c11.7,0,21.4-8.3,23.7-19.3h-6.8
					C590.3,578.3,583.6,583.6,575.6,583.6"/>
				<path fill="#FFFFFF" d="M563.7,577.9c3,3,7.2,4.9,11.9,4.9v-7c-2.7,0-5.1-1.1-6.9-2.9L563.7,577.9z"/>
				<path fill="#FFFFFF" d="M558.8,566c0,2.4,0.5,4.7,1.4,6.8l6.4-2.8c-0.5-1.2-0.8-2.5-0.8-3.9c0-5.4,4.4-9.8,9.8-9.8v-7
					C566.3,549.3,558.8,556.8,558.8,566"/>
				<path fill="#FFFFFF" d="M581.7,550.4l-2.5,6.5c2.1,0.8,3.8,2.3,4.9,4.2h7.6C590.1,556.2,586.4,552.3,581.7,550.4"/>
				<path fill="#FFFFFF" d="M579.1,575.1l2.5,6.5c4.8-1.9,8.5-5.8,10-10.8H584C582.9,572.8,581.2,574.3,579.1,575.1"/>
				<path fill="#FFFFFF" d="M544.5,575.4c-0.1-0.4-0.2-0.7-0.3-1.1c0,0,0,0,0-0.1c-0.1-0.3-0.2-0.7-0.3-1c0-0.1,0-0.1,0-0.2
					c-0.1-0.3-0.1-0.6-0.2-0.9c0-0.1,0-0.3-0.1-0.4c0-0.2-0.1-0.5-0.1-0.7c0-0.2-0.1-0.4-0.1-0.6c-0.2-1.4-0.3-2.9-0.3-4.3h-6.6
					c0,1.6,0.1,3.2,0.3,4.7h0c0,0,0,0.1,0,0.1c0.1,0.4,0.1,0.8,0.2,1.3c0,0.1,0,0.2,0.1,0.3c0.1,0.3,0.1,0.7,0.2,1
					c0,0.2,0.1,0.4,0.1,0.5c0.1,0.3,0.1,0.5,0.2,0.8c0.1,0.2,0.1,0.5,0.2,0.7c0.1,0.2,0.1,0.4,0.2,0.6c0.1,0.3,0.2,0.6,0.2,0.8
					c0,0.1,0.1,0.2,0.1,0.3l0,0c0.5,1.5,1,3,1.6,4.4l6.1-2.7C545.4,577.9,544.9,576.7,544.5,575.4z"/>
				<path fill="#FFFFFF" d="M575.6,598.5c-8.9,0-17.1-3.6-22.9-9.5l-4.7,4.7c7.1,7.1,16.8,11.4,27.6,11.4
					c19.9,0,36.4-14.9,38.8-34.2h-6.7C605.3,586.5,591.8,598.5,575.6,598.5"/>
				<path fill="#FFFFFF" d="M575.6,533.6c7.3,0,14,2.4,19.4,6.5l4-5.3c-6.5-4.9-14.6-7.8-23.4-7.8c-16.6,0-30.7,10.3-36.4,24.9
					l6.2,2.4C550.1,542.2,561.8,533.6,575.6,533.6"/>
				<path fill="#FFFFFF" d="M607.6,561.2h6.7c-0.7-5.7-2.7-11.1-5.6-15.8l-5.6,3.5C605.4,552.5,607,556.7,607.6,561.2"/>
				<path fill="#FFFFFF" d="M600.1,561.2h6.7c-1.8-11.3-9.5-20.6-19.8-24.6l-2.4,6.2C592.5,545.8,598.4,552.7,600.1,561.2"/>
				<path fill="#FFFFFF" d="M575.6,541L575.6,541l0-6.6h0c-13.4,0-24.9,8.4-29.5,20.2l6.2,2.4C555.9,547.7,565,541,575.6,541"/>
				<path fill="#FFFFFF" d="M550.6,566L550.6,566l-6.6,0v0c0,13.3,8.2,24.7,19.9,29.4l2.5-6.1C557.1,585.6,550.6,576.6,550.6,566"/>
				<path fill="#FFFFFF" d="M575.6,591.1v6.6c15.8,0,28.9-11.6,31.2-26.7h-6.7C597.8,582.4,587.7,591.1,575.6,591.1"/>
			</g>
			<path fill="#FFFFFF" d="M629.4,620.5H520.1V511.8h109.2V620.5z M524.1,616.5h101.2V515.8H524.1V616.5z"/>
		</g>
	</g>
	<g>
		<g>
			<rect x="1048.3" y="489" fill="#F9A33F" width="169.2" height="169.2"/>
			<text transform="matrix(1 0 0 1 1077.8491 644.911)" fill="#FFFFFF" font-family="'Gotham-Bold'" font-size="18">node object</text>
		</g>
		<g>
			<g>
				<path fill="#FFFFFF" d="M1177.4,612.3h-86.3c-2.2,0-4-1.8-4-4v-84.7c0-2.2,1.8-4,4-4h86.3c2.2,0,4,1.8,4,4v84.7
					C1181.3,610.5,1179.6,612.3,1177.4,612.3L1177.4,612.3z M1095.1,604.4h78.3v-76.8h-78.3V604.4L1095.1,604.4z"/>
			</g>
			<path fill="#FFFFFF" d="M1104.8,536.1v58.4h58.4v-58.4H1104.8z M1134,545.9c4.4,0,8.5,1.5,11.8,3.9l-2,2.7
				c-2.7-2-6.1-3.2-9.8-3.2c-6.9,0-12.8,4.3-15.2,10.4l-3.1-1.2C1118.5,551.1,1125.6,545.9,1134,545.9z M1121.4,565.6
				c0,5.3,3.3,9.8,7.9,11.7l-1.2,3.1c-2.9-1.2-5.4-3.2-7.2-5.8c-1.8-2.6-2.8-5.7-2.8-9H1121.4z M1119.2,559.8c1.2-3,3.2-5.5,5.8-7.3
				c2.6-1.8,5.7-2.8,9.1-2.8v3.3c-5.3,0-9.9,3.3-11.7,8L1119.2,559.8z M1121.8,565.6c0-6.7,5.5-12.2,12.2-12.2
				c5.9,0,10.8,4.2,11.9,9.7h-3.4c-1.1-3.7-4.5-6.4-8.5-6.4c-4.9,0-8.9,4-8.9,8.9s4,8.9,8.9,8.9c4,0,7.4-2.7,8.5-6.4h3.4
				c-1.1,5.5-6.1,9.7-11.9,9.7C1127.3,577.8,1121.8,572.3,1121.8,565.6z M1138.2,563.1c-0.6-1-1.4-1.7-2.5-2.1l1.3-3.3
				c2.4,0.9,4.3,2.9,5,5.4H1138.2z M1142.1,568.1c-0.8,2.5-2.6,4.5-5,5.4l-1.3-3.3c1-0.4,1.9-1.2,2.5-2.1H1142.1z M1129.1,565.6
				c0,0.7,0.1,1.4,0.4,2l-3.2,1.4c-0.5-1-0.7-2.2-0.7-3.4c0-4.7,3.8-8.4,8.4-8.4v3.5C1131.3,560.7,1129.1,562.9,1129.1,565.6z
				 M1134,570.5v3.5c-2.3,0-4.4-1-6-2.5l2.5-2.5C1131.4,570,1132.6,570.5,1134,570.5z M1134,578.2c6.1,0,11.2-4.4,12.3-10.1h3.4
				c-1.2,7.6-7.8,13.5-15.7,13.5V578.2z M1146.3,563.1c-0.8-4.2-3.8-7.7-7.8-9.3l1.2-3.1c5.2,2,9.1,6.7,10,12.4H1146.3z M1116,573.5
				c-0.3-0.7-0.6-1.5-0.8-2.2c0-0.1,0-0.1-0.1-0.2c0-0.1-0.1-0.3-0.1-0.4c0-0.1-0.1-0.2-0.1-0.3c0-0.1-0.1-0.2-0.1-0.4
				c0-0.1-0.1-0.3-0.1-0.4c0-0.1,0-0.2-0.1-0.3c0-0.2-0.1-0.3-0.1-0.5c0-0.1,0-0.1,0-0.2c0-0.2-0.1-0.4-0.1-0.6c0,0,0,0,0-0.1
				c-0.1-0.8-0.1-1.6-0.1-2.4h3.3c0,0.7,0.1,1.5,0.1,2.2c0,0.1,0,0.2,0,0.3c0,0.1,0,0.2,0.1,0.4c0,0.1,0,0.1,0,0.2
				c0,0.1,0.1,0.3,0.1,0.5c0,0,0,0.1,0,0.1c0,0.2,0.1,0.3,0.1,0.5c0,0,0,0,0,0c0.1,0.2,0.1,0.4,0.2,0.6c0.2,0.6,0.4,1.2,0.7,1.8
				L1116,573.5z M1134,585.3c-5.4,0-10.3-2.2-13.9-5.8l2.4-2.4c3,3,7,4.8,11.5,4.8c8.2,0,15-6,16.1-13.9h3.4
				C1152.3,577.8,1144,585.3,1134,585.3z M1150.1,563.1c-0.3-2.2-1.1-4.3-2.3-6.2l2.8-1.8c1.5,2.4,2.5,5.1,2.8,7.9H1150.1z"/>
		</g>
	</g>
	<g>
		<rect x="670.4" y="479.1" fill="#D1D3D4" width="368" height="369.2"/>
		<g>
			<g>
				<rect x="680.3" y="489.1" fill="#F9A33F" width="169.2" height="169.2"/>
				<text transform="matrix(1 0 0 1 714.5917 645.0214)" fill="#FFFFFF" font-family="'Gotham-Bold'" font-size="18">cookbooks</text>
			</g>
			<g>
				<g>
					<path fill="#FFFFFF" d="M782.9,556.6h-31.4c-1.1,0-2-0.9-2-2v-17.7c0-1.1,0.9-2,2-2h31.4c1.1,0,2,0.9,2,2v17.7
						C784.9,555.6,784,556.6,782.9,556.6L782.9,556.6z M753.5,552.5h27.3v-13.6h-27.3V552.5L753.5,552.5z"/>
				</g>
				<g>
					<g>
						<path fill="#FFFFFF" d="M800.1,612.7h-70.2c-2.3,0-4.1-1.8-4.1-4.1v-88.3c0-2.3,1.8-4.1,4.1-4.1h70.2c2.3,0,4.1,1.8,4.1,4.1
							v88.3C804.2,610.9,802.3,612.7,800.1,612.7L800.1,612.7z M734,604.5h62v-80.1h-62V604.5L734,604.5z"/>
					</g>
					<g>
						<path fill="#FFFFFF" d="M737,540.9h-14.3c-2.3,0-4.1-1.8-4.1-4.1s1.8-4.1,4.1-4.1H737c2.3,0,4.1,1.8,4.1,4.1
							S739.3,540.9,737,540.9L737,540.9z"/>
					</g>
					<g>
						<path fill="#FFFFFF" d="M737,559.2h-14.3c-2.3,0-4.1-1.8-4.1-4.1c0-2.3,1.8-4.1,4.1-4.1H737c2.3,0,4.1,1.8,4.1,4.1
							C741.1,557.3,739.3,559.2,737,559.2L737,559.2z"/>
					</g>
					<g>
						<path fill="#FFFFFF" d="M737,577.5h-14.3c-2.3,0-4.1-1.8-4.1-4.1c0-2.3,1.8-4.1,4.1-4.1H737c2.3,0,4.1,1.8,4.1,4.1
							C741.1,575.6,739.3,577.5,737,577.5L737,577.5z"/>
					</g>
					<g>
						<path fill="#FFFFFF" d="M737,595.7h-14.3c-2.3,0-4.1-1.8-4.1-4.1c0-2.3,1.8-4.1,4.1-4.1H737c2.3,0,4.1,1.8,4.1,4.1
							C741.1,593.9,739.3,595.7,737,595.7L737,595.7z"/>
					</g>
				</g>
			</g>
		</g>
		<g>
			<g>
				<rect x="859.3" y="668.1" fill="#F9A33F" width="169.2" height="169.2"/>
				<text transform="matrix(1 0 0 1 915.8579 824.0214)" fill="#FFFFFF" font-family="'Gotham-Bold'" font-size="18">policy</text>
			</g>
			<g>
				<g>
					<path fill="#FFFFFF" d="M988.4,792.7h-89.8c-2.4,0-4.3-1.9-4.3-4.3v-30.3c0-2.4,1.9-4.3,4.3-4.3h27.8c2.4,0,4.3,1.9,4.3,4.3v6
						h25.7v-6c0-2.4,1.9-4.3,4.3-4.3h27.8c2.4,0,4.3,1.9,4.3,4.3v30.3C992.7,790.8,990.8,792.7,988.4,792.7L988.4,792.7z
						 M902.9,784.1h81.2v-21.7h-19.2v1.8c0,4.7-3.8,8.6-8.6,8.6h-25.7c-4.7,0-8.6-3.8-8.6-8.6v-1.8h-19.2V784.1L902.9,784.1z"/>
				</g>
				<g>
					<path fill="#FFFFFF" d="M983.6,761.8c-2.4,0-4.3-1.9-4.3-4.3v-29.9h-70.5v29.9c0,2.4-1.9,4.3-4.3,4.3c-2.4,0-4.3-1.9-4.3-4.3
						v-34.2c0-2.4,1.9-4.3,4.3-4.3h79.1c2.4,0,4.3,1.9,4.3,4.3v34.2C987.9,759.8,986,761.8,983.6,761.8L983.6,761.8z"/>
				</g>
				<g>
					<path fill="#FFFFFF" d="M978.7,714.7h-69.1c-1.2,0-2.1-1-2.1-2.1c0-1.2,1-2.1,2.1-2.1h69.1c1.2,0,2.1,1,2.1,2.1
						C980.8,713.8,979.8,714.7,978.7,714.7L978.7,714.7z"/>
				</g>
				<g>
					<path fill="#FFFFFF" d="M974.6,706.2h-60.9c-1.2,0-2.1-1-2.1-2.1c0-1.2,1-2.1,2.1-2.1h60.9c1.2,0,2.1,1,2.1,2.1
						C976.7,705.2,975.7,706.2,974.6,706.2L974.6,706.2z"/>
				</g>
			</g>
		</g>
		<g>
			<g>
				<rect x="858.4" y="488.4" fill="#F9A33F" width="169.2" height="169.2"/>
				<text transform="matrix(1 0 0 1 910.337 644.3319)" fill="#FFFFFF" font-family="'Gotham-Bold'" font-size="18">secrets</text>
			</g>
			<g>
				<g>
					<g>
						<path fill="#FFFFFF" d="M987.5,614.5h-86.3c-2.2,0-4-1.8-4-4v-86.3c0-2.2,1.8-4,4-4h86.3c2.2,0,4,1.8,4,4v86.3
							C991.5,612.7,989.7,614.5,987.5,614.5L987.5,614.5z M905.2,606.4h78.3v-78.2h-78.3V606.4L905.2,606.4z"/>
					</g>
					<g>
						<path fill="#FFFFFF" d="M974.7,599.7h-60.8c-1.1,0-2-0.9-2-2v-60.8c0-1.1,0.9-2,2-2h60.8c1.1,0,2,0.9,2,2v60.8
							C976.8,598.8,975.9,599.7,974.7,599.7L974.7,599.7z M915.9,595.7h56.8v-56.8h-56.8V595.7L915.9,595.7z"/>
					</g>
					<g>
						<g>
							<path fill="#FFFFFF" d="M913.9,559.7c-2.2,0-4-1.8-4-4v-5c0-2.2,1.8-4,4-4c2.2,0,4,1.8,4,4v5
								C917.9,557.9,916.1,559.7,913.9,559.7L913.9,559.7z"/>
						</g>
						<g>
							<path fill="#FFFFFF" d="M913.9,587.9c-2.2,0-4-1.8-4-4v-5c0-2.2,1.8-4,4-4c2.2,0,4,1.8,4,4v5
								C917.9,586.2,916.1,587.9,913.9,587.9L913.9,587.9z"/>
						</g>
					</g>
				</g>
				<g>
					<g>
						<path fill="#FFFFFF" d="M944.3,579.4c-6.7,0-12.1-5.4-12.1-12.1c0-6.7,5.4-12.1,12.1-12.1c6.7,0,12.1,5.4,12.1,12.1
							C956.4,574,951,579.4,944.3,579.4L944.3,579.4z M944.3,559.2c-4.4,0-8.1,3.6-8.1,8.1c0,4.5,3.6,8.1,8.1,8.1
							c4.5,0,8.1-3.6,8.1-8.1C952.4,562.9,948.8,559.2,944.3,559.2L944.3,559.2z"/>
					</g>
					<g>
						<g>
							<path fill="#FFFFFF" d="M936.7,561.7c-0.5,0-1-0.2-1.4-0.6l-2.8-2.8c-0.8-0.8-0.8-2.1,0-2.8c0.8-0.8,2.1-0.8,2.8,0l2.8,2.8
								c0.8,0.8,0.8,2.1,0,2.8C937.8,561.5,937.2,561.7,936.7,561.7L936.7,561.7z"/>
						</g>
						<g>
							<path fill="#FFFFFF" d="M954.7,579.7c-0.5,0-1-0.2-1.4-0.6l-3.3-3.3c-0.8-0.8-0.8-2.1,0-2.8c0.8-0.8,2.1-0.8,2.8,0l3.3,3.3
								c0.8,0.8,0.8,2.1,0,2.8C955.8,579.5,955.3,579.7,954.7,579.7L954.7,579.7z"/>
						</g>
					</g>
					<g>
						<g>
							<path fill="#FFFFFF" d="M951.9,561.7c-0.5,0-1-0.2-1.4-0.6c-0.8-0.8-0.8-2.1,0-2.8l2.8-2.8c0.8-0.8,2.1-0.8,2.8,0
								c0.8,0.8,0.8,2.1,0,2.8l-2.8,2.8C953,561.5,952.5,561.7,951.9,561.7L951.9,561.7z"/>
						</g>
						<g>
							<path fill="#FFFFFF" d="M933.9,579.7c-0.5,0-1-0.2-1.4-0.6c-0.8-0.8-0.8-2.1,0-2.8l3.3-3.3c0.8-0.8,2.1-0.8,2.8,0
								c0.8,0.8,0.8,2.1,0,2.8l-3.3,3.3C934.9,579.5,934.4,579.7,933.9,579.7L933.9,579.7z"/>
						</g>
					</g>
					<g>
						<g>
							<path fill="#FFFFFF" d="M944.3,558.6c-1.1,0-2-0.9-2-2v-4c0-1.1,0.9-2,2-2c1.1,0,2,0.9,2,2v4
								C946.3,557.7,945.4,558.6,944.3,558.6L944.3,558.6z"/>
						</g>
						<g>
							<path fill="#FFFFFF" d="M944.3,584L944.3,584c-1.1,0-2-0.9-2-2l0-4.7c0-1.1,0.9-2,2-2l0,0c1.1,0,2,0.9,2,2l0,4.7
								C946.3,583.1,945.4,584,944.3,584L944.3,584z"/>
						</g>
					</g>
					<g>
						<g>
							<path fill="#FFFFFF" d="M959.1,569.3h-4c-1.1,0-2-0.9-2-2c0-1.1,0.9-2,2-2h4c1.1,0,2,0.9,2,2
								C961.1,568.4,960.2,569.3,959.1,569.3L959.1,569.3z"/>
						</g>
						<g>
							<path fill="#FFFFFF" d="M934.3,569.3h-4.7c-1.1,0-2-0.9-2-2c0-1.1,0.9-2,2-2h4.7c1.1,0,2,0.9,2,2
								C936.3,568.4,935.4,569.3,934.3,569.3L934.3,569.3z"/>
						</g>
					</g>
				</g>
			</g>
		</g>
		<g>
			<g>
				<rect x="679.9" y="668.2" fill="#F9A23E" width="169.2" height="169.2"/>
				<text transform="matrix(1 0 0 1 742.4951 824.0721)" fill="#FFFFFF" font-family="'Gotham-Bold'" font-size="18">tests</text>
			</g>
			<g>
				<g>
					<path fill="#FFFFFF" d="M776.7,790.2c-1.1,0-2-0.9-2-2v-24.4c0-1.1,0.9-2,2-2h24.4c1.1,0,2,0.9,2,2c0,1.1-0.9,2-2,2h-22.3v22.3
						C778.7,789.2,777.8,790.2,776.7,790.2L776.7,790.2z"/>
				</g>
				<g>
					<path fill="#FFFFFF" d="M776.7,792.2h-41.9c-2.2,0-4.1-1.8-4.1-4.1v-83.3c0-2.2,1.8-4.1,4.1-4.1h66.3c2.2,0,4.1,1.8,4.1,4.1v59
						c0,1.1-0.4,2.1-1.2,2.9L779.6,791C778.8,791.8,777.8,792.2,776.7,792.2L776.7,792.2z M738.8,784.1H775l22-22v-53.2h-58.2V784.1
						L738.8,784.1z"/>
				</g>
				<g>
					<path fill="#FFFFFF" d="M723.4,782.6c-2.2,0-4.1-1.8-4.1-4.1v-81.7c0-4.5,3.6-8.1,8.1-8.1h62.2c2.2,0,4.1,1.8,4.1,4.1
						c0,2.2-1.8,4.1-4.1,4.1h-62.2v81.7C727.4,780.8,725.6,782.6,723.4,782.6L723.4,782.6z"/>
				</g>
				<g>
					<g>
						<path fill="#FFFFFF" d="M765.7,741.3c-0.4,0-0.8-0.2-1.1-0.5l-3.9-4.1c-0.6-0.6-0.5-1.6,0.1-2.1c0.6-0.6,1.6-0.6,2.1,0.1
							l2.7,2.9l7.5-9.2c0.5-0.6,1.5-0.7,2.1-0.2c0.6,0.5,0.7,1.5,0.2,2.1l-8.6,10.5C766.6,741.1,766.2,741.3,765.7,741.3
							C765.8,741.3,765.8,741.3,765.7,741.3L765.7,741.3z"/>
					</g>
					<g>
						<path fill="#FFFFFF" d="M784.5,753.2h-32.8c-0.8,0-1.5-0.7-1.5-1.5v-32.8c0-0.8,0.7-1.5,1.5-1.5h32.8c0.8,0,1.5,0.7,1.5,1.5
							v32.8C786,752.6,785.3,753.2,784.5,753.2L784.5,753.2z M753.2,750.2H783v-29.8h-29.8V750.2L753.2,750.2z"/>
					</g>
				</g>
			</g>
		</g>
	</g>
</g>
<rect x="0" y="243" fill="#D1D3D4" width="190.3" height="190.1"/>
<rect x="238.3" y="2.6" fill="#D1D2D4" width="189.7" height="189.9"/>
<rect x="239" y="241" fill="#F08921" width="189.2" height="190.2"/>
<g>
	<rect x="476.4" y="468.2" fill="#F08921" width="571.9" height="389"/>
	<g>
		<g>
			<rect x="489.8" y="489" fill="#F08921" width="169.2" height="169.2"/>
			<text transform="matrix(1 0 0 1 520.757 644.911)" fill="#FFFFFF" font-family="'Gotham-Bold'" font-size="18">Chef Server</text>
		</g>
		<g>
			<g>
				<path fill="#FFFFFF" d="M575.1,583.6c-9.7,0-17.6-7.9-17.6-17.6c0-9.7,7.9-17.6,17.6-17.6c8,0,14.8,5.4,16.9,12.7h6.8
					c-2.3-11-12-19.3-23.7-19.3c-13.3,0-24.2,10.9-24.2,24.2c0,13.3,10.9,24.2,24.2,24.2c11.7,0,21.4-8.3,23.7-19.3H592
					C589.9,578.3,583.1,583.6,575.1,583.6"/>
				<path fill="#FFFFFF" d="M563.2,577.9c3,3,7.2,4.9,11.9,4.9v-7c-2.7,0-5.1-1.1-6.9-2.9L563.2,577.9z"/>
				<path fill="#FFFFFF" d="M558.3,566c0,2.4,0.5,4.7,1.4,6.8l6.4-2.8c-0.5-1.2-0.8-2.5-0.8-3.9c0-5.4,4.4-9.8,9.8-9.8v-7
					C565.8,549.3,558.3,556.8,558.3,566"/>
				<path fill="#FFFFFF" d="M581.2,550.4l-2.5,6.5c2.1,0.8,3.8,2.3,4.9,4.2h7.6C589.6,556.2,585.9,552.3,581.2,550.4"/>
				<path fill="#FFFFFF" d="M578.6,575.1l2.5,6.5c4.8-1.9,8.5-5.8,10-10.8h-7.6C582.4,572.8,580.7,574.3,578.6,575.1"/>
				<path fill="#FFFFFF" d="M544,575.4c-0.1-0.4-0.2-0.7-0.3-1.1c0,0,0,0,0-0.1c-0.1-0.3-0.2-0.7-0.3-1c0-0.1,0-0.1,0-0.2
					c-0.1-0.3-0.1-0.6-0.2-0.9c0-0.1,0-0.3-0.1-0.4c0-0.2-0.1-0.5-0.1-0.7c0-0.2-0.1-0.4-0.1-0.6c-0.2-1.4-0.3-2.9-0.3-4.3H536
					c0,1.6,0.1,3.2,0.3,4.7h0c0,0,0,0.1,0,0.1c0.1,0.4,0.1,0.8,0.2,1.3c0,0.1,0,0.2,0.1,0.3c0.1,0.3,0.1,0.7,0.2,1
					c0,0.2,0.1,0.4,0.1,0.5c0.1,0.3,0.1,0.5,0.2,0.8c0.1,0.2,0.1,0.5,0.2,0.7c0.1,0.2,0.1,0.4,0.2,0.6c0.1,0.3,0.2,0.6,0.2,0.8
					c0,0.1,0.1,0.2,0.1,0.3l0,0c0.5,1.5,1,3,1.6,4.4l6.1-2.7C544.9,577.9,544.4,576.7,544,575.4z"/>
				<path fill="#FFFFFF" d="M575.1,598.5c-8.9,0-17.1-3.6-22.9-9.5l-4.7,4.7c7.1,7.1,16.8,11.4,27.6,11.4
					c19.9,0,36.4-14.9,38.8-34.2h-6.7C604.8,586.5,591.3,598.5,575.1,598.5"/>
				<path fill="#FFFFFF" d="M575.1,533.6c7.3,0,14,2.4,19.4,6.5l4-5.3c-6.5-4.9-14.6-7.8-23.4-7.8c-16.6,0-30.7,10.3-36.4,24.9
					l6.2,2.4C549.6,542.2,561.3,533.6,575.1,533.6"/>
				<path fill="#FFFFFF" d="M607.2,561.2h6.7c-0.7-5.7-2.7-11.1-5.6-15.8l-5.6,3.5C604.9,552.5,606.5,556.7,607.2,561.2"/>
				<path fill="#FFFFFF" d="M599.6,561.2h6.7c-1.8-11.3-9.5-20.6-19.8-24.6l-2.4,6.2C592,545.8,597.9,552.7,599.6,561.2"/>
				<path fill="#FFFFFF" d="M575.1,541L575.1,541l0-6.6h0c-13.4,0-24.9,8.4-29.5,20.2l6.2,2.4C555.4,547.7,564.5,541,575.1,541"/>
				<path fill="#FFFFFF" d="M550.1,566L550.1,566l-6.6,0v0c0,13.3,8.2,24.7,19.9,29.4l2.5-6.1C556.6,585.6,550.1,576.6,550.1,566"/>
				<path fill="#FFFFFF" d="M575.1,591.1v6.6c15.8,0,28.9-11.6,31.2-26.7h-6.7C597.3,582.4,587.2,591.1,575.1,591.1"/>
			</g>
			<path fill="#FFFFFF" d="M628.9,620.5H519.7V511.8h109.2V620.5z M523.7,616.5h101.2V515.8H523.7V616.5z"/>
		</g>
	</g>
	<rect x="1036.9" y="490" fill="#D1D3D4" width="240" height="168.4"/>
	<g>
		<g>
			<g>
				<path fill="#FFFFFF" d="M1074.5,594.2c-0.5,0-1-0.2-1.5-0.5c-1.1-0.8-1.4-2.4-0.6-3.5l11.7-16.1l-11.7-16.1
					c-0.8-1.1-0.6-2.7,0.6-3.5c1.1-0.8,2.7-0.6,3.5,0.6l12.8,17.5c0.6,0.9,0.6,2.1,0,2.9l-12.8,17.5
					C1076.1,593.8,1075.3,594.2,1074.5,594.2L1074.5,594.2z"/>
			</g>
		</g>
		<g>
			<g>
				<path fill="#FFFFFF" d="M1057.9,594.2c-0.5,0-1-0.2-1.5-0.5c-1.1-0.8-1.4-2.4-0.6-3.5l11.7-16.1l-11.7-16.1
					c-0.8-1.1-0.6-2.7,0.6-3.5c1.1-0.8,2.7-0.6,3.5,0.6l12.8,17.5c0.6,0.9,0.6,2.1,0,2.9l-12.8,17.5
					C1059.4,593.8,1058.7,594.2,1057.9,594.2L1057.9,594.2z"/>
			</g>
		</g>
		<g>
			<g>
				<path fill="#FFFFFF" d="M1108.5,593.9c-0.5,0-1-0.2-1.5-0.5c-1.1-0.8-1.4-2.4-0.6-3.5l11.7-16.1l-11.7-16.1
					c-0.8-1.1-0.6-2.7,0.6-3.5c1.1-0.8,2.7-0.6,3.5,0.6l12.8,17.5c0.6,0.9,0.6,2.1,0,2.9l-12.8,17.5
					C1110.1,593.5,1109.3,593.9,1108.5,593.9L1108.5,593.9z"/>
			</g>
		</g>
		<g>
			<g>
				<path fill="#FFFFFF" d="M1091.9,593.9c-0.5,0-1-0.2-1.5-0.5c-1.1-0.8-1.4-2.4-0.6-3.5l11.7-16.1l-11.7-16.1
					c-0.8-1.1-0.6-2.7,0.6-3.5c1.1-0.8,2.7-0.6,3.5,0.6l12.8,17.5c0.6,0.9,0.6,2.1,0,2.9l-12.8,17.5
					C1093.4,593.5,1092.7,593.9,1091.9,593.9L1091.9,593.9z"/>
			</g>
		</g>
		<g>
			<g>
				<path fill="#FFFFFF" d="M1142,593.9c-0.5,0-1-0.2-1.5-0.5c-1.1-0.8-1.4-2.4-0.6-3.5l11.7-16.1l-11.7-16.1
					c-0.8-1.1-0.6-2.7,0.6-3.5c1.1-0.8,2.7-0.6,3.5,0.6l12.8,17.5c0.6,0.9,0.6,2.1,0,2.9l-12.8,17.5
					C1143.6,593.5,1142.8,593.9,1142,593.9L1142,593.9z"/>
			</g>
		</g>
		<g>
			<g>
				<path fill="#FFFFFF" d="M1125.4,593.9c-0.5,0-1-0.2-1.5-0.5c-1.1-0.8-1.4-2.4-0.6-3.5l11.7-16.1l-11.7-16.1
					c-0.8-1.1-0.6-2.7,0.6-3.5c1.1-0.8,2.7-0.6,3.5,0.6l12.8,17.5c0.6,0.9,0.6,2.1,0,2.9l-12.8,17.5
					C1126.9,593.5,1126.2,593.9,1125.4,593.9L1125.4,593.9z"/>
			</g>
		</g>
		<g>
			<g>
				<path fill="#FFFFFF" d="M1176,593.5c-0.5,0-1-0.2-1.5-0.5c-1.1-0.8-1.4-2.4-0.6-3.5l11.7-16.1l-11.7-16.1
					c-0.8-1.1-0.6-2.7,0.6-3.5c1.1-0.8,2.7-0.6,3.5,0.6l12.8,17.5c0.6,0.9,0.6,2.1,0,2.9l-12.8,17.5
					C1177.6,593.2,1176.8,593.5,1176,593.5L1176,593.5z"/>
			</g>
		</g>
		<g>
			<g>
				<path fill="#FFFFFF" d="M1159.4,593.5c-0.5,0-1-0.2-1.5-0.5c-1.1-0.8-1.4-2.4-0.6-3.5l11.7-16.1l-11.7-16.1
					c-0.8-1.1-0.6-2.7,0.6-3.5c1.1-0.8,2.7-0.6,3.5,0.6l12.8,17.5c0.6,0.9,0.6,2.1,0,2.9l-12.8,17.5
					C1160.9,593.2,1160.2,593.5,1159.4,593.5L1159.4,593.5z"/>
			</g>
		</g>
		<g>
			<g>
				<path fill="#FFFFFF" d="M1209.5,593.7c-0.5,0-1-0.2-1.5-0.5c-1.1-0.8-1.4-2.4-0.6-3.5l11.7-16.1l-11.7-16.1
					c-0.8-1.1-0.6-2.7,0.6-3.5c1.1-0.8,2.7-0.6,3.5,0.6l12.8,17.5c0.6,0.9,0.6,2.1,0,2.9l-12.8,17.5
					C1211.1,593.3,1210.3,593.7,1209.5,593.7L1209.5,593.7z"/>
			</g>
		</g>
		<g>
			<g>
				<path fill="#FFFFFF" d="M1192.9,593.7c-0.5,0-1-0.2-1.5-0.5c-1.1-0.8-1.4-2.4-0.6-3.5l11.7-16.1l-11.7-16.1
					c-0.8-1.1-0.6-2.7,0.6-3.5c1.1-0.8,2.7-0.6,3.5,0.6l12.8,17.5c0.6,0.9,0.6,2.1,0,2.9l-12.8,17.5
					C1194.4,593.3,1193.7,593.7,1192.9,593.7L1192.9,593.7z"/>
			</g>
		</g>
		<g>
			<g>
				<path fill="#FFFFFF" d="M1243.5,593.4c-0.5,0-1-0.2-1.5-0.5c-1.1-0.8-1.4-2.4-0.6-3.5l11.7-16.1l-11.7-16.1
					c-0.8-1.1-0.6-2.7,0.6-3.5c1.1-0.8,2.7-0.6,3.5,0.6l12.8,17.5c0.6,0.9,0.6,2.1,0,2.9l-12.8,17.5
					C1245.1,593,1244.3,593.4,1243.5,593.4L1243.5,593.4z"/>
			</g>
		</g>
		<g>
			<g>
				<path fill="#FFFFFF" d="M1226.9,593.4c-0.5,0-1-0.2-1.5-0.5c-1.1-0.8-1.4-2.4-0.6-3.5l11.7-16.1l-11.7-16.1
					c-0.8-1.1-0.6-2.7,0.6-3.5c1.1-0.8,2.7-0.6,3.5,0.6l12.8,17.5c0.6,0.9,0.6,2.1,0,2.9l-12.8,17.5
					C1228.4,593,1227.7,593.4,1226.9,593.4L1226.9,593.4z"/>
			</g>
		</g>
	</g>
	<g>
		<rect x="669.9" y="479.1" fill="#D1D3D4" width="368" height="369.2"/>
		<g>
			<g>
				<rect x="679.8" y="489.1" fill="#F9A33F" width="169.2" height="169.2"/>
				<text transform="matrix(1 0 0 1 714.1011 645.0214)" fill="#FFFFFF" font-family="'Gotham-Bold'" font-size="18">cookbooks</text>
			</g>
			<g>
				<g>
					<path fill="#FFFFFF" d="M782.4,556.6H751c-1.1,0-2-0.9-2-2v-17.7c0-1.1,0.9-2,2-2h31.4c1.1,0,2,0.9,2,2v17.7
						C784.4,555.6,783.5,556.6,782.4,556.6L782.4,556.6z M753.1,552.5h27.3v-13.6h-27.3V552.5L753.1,552.5z"/>
				</g>
				<g>
					<g>
						<path fill="#FFFFFF" d="M799.6,612.7h-70.2c-2.3,0-4.1-1.8-4.1-4.1v-88.3c0-2.3,1.8-4.1,4.1-4.1h70.2c2.3,0,4.1,1.8,4.1,4.1
							v88.3C803.7,610.9,801.9,612.7,799.6,612.7L799.6,612.7z M733.5,604.5h62v-80.1h-62V604.5L733.5,604.5z"/>
					</g>
					<g>
						<path fill="#FFFFFF" d="M736.5,540.9h-14.3c-2.3,0-4.1-1.8-4.1-4.1s1.8-4.1,4.1-4.1h14.3c2.3,0,4.1,1.8,4.1,4.1
							S738.8,540.9,736.5,540.9L736.5,540.9z"/>
					</g>
					<g>
						<path fill="#FFFFFF" d="M736.5,559.2h-14.3c-2.3,0-4.1-1.8-4.1-4.1c0-2.3,1.8-4.1,4.1-4.1h14.3c2.3,0,4.1,1.8,4.1,4.1
							C740.6,557.3,738.8,559.2,736.5,559.2L736.5,559.2z"/>
					</g>
					<g>
						<path fill="#FFFFFF" d="M736.5,577.5h-14.3c-2.3,0-4.1-1.8-4.1-4.1c0-2.3,1.8-4.1,4.1-4.1h14.3c2.3,0,4.1,1.8,4.1,4.1
							C740.6,575.6,738.8,577.5,736.5,577.5L736.5,577.5z"/>
					</g>
					<g>
						<path fill="#FFFFFF" d="M736.5,595.7h-14.3c-2.3,0-4.1-1.8-4.1-4.1c0-2.3,1.8-4.1,4.1-4.1h14.3c2.3,0,4.1,1.8,4.1,4.1
							C740.6,593.9,738.8,595.7,736.5,595.7L736.5,595.7z"/>
					</g>
				</g>
			</g>
		</g>
		<g>
			<g>
				<rect x="858.8" y="668.1" fill="#F9A33F" width="169.2" height="169.2"/>
				<text transform="matrix(1 0 0 1 915.3673 824.0214)" fill="#FFFFFF" font-family="'Gotham-Bold'" font-size="18">policy</text>
			</g>
			<g>
				<g>
					<path fill="#FFFFFF" d="M987.9,792.7h-89.8c-2.4,0-4.3-1.9-4.3-4.3v-30.3c0-2.4,1.9-4.3,4.3-4.3h27.8c2.4,0,4.3,1.9,4.3,4.3v6
						h25.7v-6c0-2.4,1.9-4.3,4.3-4.3h27.8c2.4,0,4.3,1.9,4.3,4.3v30.3C992.2,790.8,990.3,792.7,987.9,792.7L987.9,792.7z
						 M902.4,784.1h81.2v-21.7h-19.2v1.8c0,4.7-3.8,8.6-8.6,8.6h-25.7c-4.7,0-8.6-3.8-8.6-8.6v-1.8h-19.2V784.1L902.4,784.1z"/>
				</g>
				<g>
					<path fill="#FFFFFF" d="M983.2,761.8c-2.4,0-4.3-1.9-4.3-4.3v-29.9h-70.5v29.9c0,2.4-1.9,4.3-4.3,4.3c-2.4,0-4.3-1.9-4.3-4.3
						v-34.2c0-2.4,1.9-4.3,4.3-4.3h79.1c2.4,0,4.3,1.9,4.3,4.3v34.2C987.4,759.8,985.5,761.8,983.2,761.8L983.2,761.8z"/>
				</g>
				<g>
					<path fill="#FFFFFF" d="M978.2,714.7H909c-1.2,0-2.1-1-2.1-2.1c0-1.2,1-2.1,2.1-2.1h69.1c1.2,0,2.1,1,2.1,2.1
						C980.3,713.8,979.4,714.7,978.2,714.7L978.2,714.7z"/>
				</g>
				<g>
					<path fill="#FFFFFF" d="M974.1,706.2h-60.9c-1.2,0-2.1-1-2.1-2.1c0-1.2,1-2.1,2.1-2.1h60.9c1.2,0,2.1,1,2.1,2.1
						C976.2,705.2,975.3,706.2,974.1,706.2L974.1,706.2z"/>
				</g>
			</g>
		</g>
		<g>
			<g>
				<rect x="857.9" y="488.4" fill="#F9A33F" width="169.2" height="169.2"/>
				<text transform="matrix(1 0 0 1 909.8464 644.3319)" fill="#FFFFFF" font-family="'Gotham-Bold'" font-size="18">secrets</text>
			</g>
			<g>
				<g>
					<g>
						<path fill="#FFFFFF" d="M987,614.5h-86.3c-2.2,0-4-1.8-4-4v-86.3c0-2.2,1.8-4,4-4H987c2.2,0,4,1.8,4,4v86.3
							C991,612.7,989.2,614.5,987,614.5L987,614.5z M904.7,606.4H983v-78.2h-78.3V606.4L904.7,606.4z"/>
					</g>
					<g>
						<path fill="#FFFFFF" d="M974.3,599.7h-60.8c-1.1,0-2-0.9-2-2v-60.8c0-1.1,0.9-2,2-2h60.8c1.1,0,2,0.9,2,2v60.8
							C976.3,598.8,975.4,599.7,974.3,599.7L974.3,599.7z M915.4,595.7h56.8v-56.8h-56.8V595.7L915.4,595.7z"/>
					</g>
					<g>
						<g>
							<path fill="#FFFFFF" d="M913.4,559.7c-2.2,0-4-1.8-4-4v-5c0-2.2,1.8-4,4-4s4,1.8,4,4v5C917.4,557.9,915.6,559.7,913.4,559.7
								L913.4,559.7z"/>
						</g>
						<g>
							<path fill="#FFFFFF" d="M913.4,587.9c-2.2,0-4-1.8-4-4v-5c0-2.2,1.8-4,4-4s4,1.8,4,4v5C917.4,586.2,915.6,587.9,913.4,587.9
								L913.4,587.9z"/>
						</g>
					</g>
				</g>
				<g>
					<g>
						<path fill="#FFFFFF" d="M943.8,579.4c-6.7,0-12.1-5.4-12.1-12.1c0-6.7,5.4-12.1,12.1-12.1c6.7,0,12.1,5.4,12.1,12.1
							C955.9,574,950.5,579.4,943.8,579.4L943.8,579.4z M943.8,559.2c-4.4,0-8.1,3.6-8.1,8.1c0,4.5,3.6,8.1,8.1,8.1
							c4.5,0,8.1-3.6,8.1-8.1C951.9,562.9,948.3,559.2,943.8,559.2L943.8,559.2z"/>
					</g>
					<g>
						<g>
							<path fill="#FFFFFF" d="M936.2,561.7c-0.5,0-1-0.2-1.4-0.6l-2.8-2.8c-0.8-0.8-0.8-2.1,0-2.8c0.8-0.8,2.1-0.8,2.8,0l2.8,2.8
								c0.8,0.8,0.8,2.1,0,2.8C937.3,561.5,936.8,561.7,936.2,561.7L936.2,561.7z"/>
						</g>
						<g>
							<path fill="#FFFFFF" d="M954.3,579.7c-0.5,0-1-0.2-1.4-0.6l-3.3-3.3c-0.8-0.8-0.8-2.1,0-2.8c0.8-0.8,2.1-0.8,2.8,0l3.3,3.3
								c0.8,0.8,0.8,2.1,0,2.8C955.3,579.5,954.8,579.7,954.3,579.7L954.3,579.7z"/>
						</g>
					</g>
					<g>
						<g>
							<path fill="#FFFFFF" d="M951.4,561.7c-0.5,0-1-0.2-1.4-0.6c-0.8-0.8-0.8-2.1,0-2.8l2.8-2.8c0.8-0.8,2.1-0.8,2.8,0
								c0.8,0.8,0.8,2.1,0,2.8l-2.8,2.8C952.5,561.5,952,561.7,951.4,561.7L951.4,561.7z"/>
						</g>
						<g>
							<path fill="#FFFFFF" d="M933.4,579.7c-0.5,0-1-0.2-1.4-0.6c-0.8-0.8-0.8-2.1,0-2.8l3.3-3.3c0.8-0.8,2.1-0.8,2.8,0
								c0.8,0.8,0.8,2.1,0,2.8l-3.3,3.3C934.5,579.5,933.9,579.7,933.4,579.7L933.4,579.7z"/>
						</g>
					</g>
					<g>
						<g>
							<path fill="#FFFFFF" d="M943.8,558.6c-1.1,0-2-0.9-2-2v-4c0-1.1,0.9-2,2-2c1.1,0,2,0.9,2,2v4
								C945.9,557.7,945,558.6,943.8,558.6L943.8,558.6z"/>
						</g>
						<g>
							<path fill="#FFFFFF" d="M943.8,584L943.8,584c-1.1,0-2-0.9-2-2l0-4.7c0-1.1,0.9-2,2-2l0,0c1.1,0,2,0.9,2,2l0,4.7
								C945.8,583.1,944.9,584,943.8,584L943.8,584z"/>
						</g>
					</g>
					<g>
						<g>
							<path fill="#FFFFFF" d="M958.6,569.3h-4c-1.1,0-2-0.9-2-2c0-1.1,0.9-2,2-2h4c1.1,0,2,0.9,2,2
								C960.6,568.4,959.7,569.3,958.6,569.3L958.6,569.3z"/>
						</g>
						<g>
							<path fill="#FFFFFF" d="M933.8,569.3h-4.7c-1.1,0-2-0.9-2-2c0-1.1,0.9-2,2-2h4.7c1.1,0,2,0.9,2,2
								C935.8,568.4,934.9,569.3,933.8,569.3L933.8,569.3z"/>
						</g>
					</g>
				</g>
			</g>
		</g>
		<g>
			<g>
				<rect x="679.4" y="668.2" fill="#F9A23E" width="169.2" height="169.2"/>
				<text transform="matrix(1 0 0 1 742.0045 824.0721)" fill="#FFFFFF" font-family="'Gotham-Bold'" font-size="18">tests</text>
			</g>
			<g>
				<g>
					<path fill="#FFFFFF" d="M776.2,790.2c-1.1,0-2-0.9-2-2v-24.4c0-1.1,0.9-2,2-2h24.4c1.1,0,2,0.9,2,2c0,1.1-0.9,2-2,2h-22.3v22.3
						C778.3,789.2,777.3,790.2,776.2,790.2L776.2,790.2z"/>
				</g>
				<g>
					<path fill="#FFFFFF" d="M776.2,792.2h-41.9c-2.2,0-4.1-1.8-4.1-4.1v-83.3c0-2.2,1.8-4.1,4.1-4.1h66.3c2.2,0,4.1,1.8,4.1,4.1v59
						c0,1.1-0.4,2.1-1.2,2.9L779.1,791C778.3,791.8,777.3,792.2,776.2,792.2L776.2,792.2z M738.3,784.1h36.2l22-22v-53.2h-58.2
						V784.1L738.3,784.1z"/>
				</g>
				<g>
					<path fill="#FFFFFF" d="M722.9,782.6c-2.2,0-4.1-1.8-4.1-4.1v-81.7c0-4.5,3.6-8.1,8.1-8.1h62.2c2.2,0,4.1,1.8,4.1,4.1
						c0,2.2-1.8,4.1-4.1,4.1h-62.2v81.7C726.9,780.8,725.1,782.6,722.9,782.6L722.9,782.6z"/>
				</g>
				<g>
					<g>
						<path fill="#FFFFFF" d="M765.2,741.3c-0.4,0-0.8-0.2-1.1-0.5l-3.9-4.1c-0.6-0.6-0.5-1.6,0.1-2.1c0.6-0.6,1.6-0.6,2.1,0.1
							l2.7,2.9l7.5-9.2c0.5-0.6,1.5-0.7,2.1-0.2c0.6,0.5,0.7,1.5,0.2,2.1l-8.6,10.5C766.1,741.1,765.7,741.3,765.2,741.3
							C765.3,741.3,765.3,741.3,765.2,741.3L765.2,741.3z"/>
					</g>
					<g>
						<path fill="#FFFFFF" d="M784,753.2h-32.8c-0.8,0-1.5-0.7-1.5-1.5v-32.8c0-0.8,0.7-1.5,1.5-1.5H784c0.8,0,1.5,0.7,1.5,1.5v32.8
							C785.5,752.6,784.9,753.2,784,753.2L784,753.2z M752.7,750.2h29.8v-29.8h-29.8V750.2L752.7,750.2z"/>
					</g>
				</g>
			</g>
		</g>
	</g>
</g>
<g>
	<g>
		<rect x="844.4" y="251.6" fill="#FFD134" width="169.2" height="169.2"/>
		<text transform="matrix(1 0 0 1 905.3948 407.5135)" fill="#FFFFFF" font-family="'Gotham-Bold'" font-size="18">Ruby</text>
	</g>
	<g>
		<g>
			<path fill="#FFFFFF" d="M893.2,363.4c-0.6-0.8-1.2-1.9-1-3l10-70.4c0.3-1.9,2-3.2,3.9-3l27.7,2.7c0.8,0.1,1.6,0.4,2.2,1
				l30.4,30.4c0.6,0.6,0.9,1.4,1,2.2L970,351c0.2,1.9-1.2,3.6-3.1,3.9l-70.8,9.6C895.1,364.6,894,364.2,893.2,363.4L893.2,363.4z
				 M908.7,294.4l-8.8,62.3l62.7-8.5l-2.3-23l-28.6-28.6L908.7,294.4L908.7,294.4z"/>
		</g>
		<g>
			<path fill="#FFFFFF" d="M965.2,352.6l-60.8-60.8c-0.5-0.5-0.7-1.3-0.3-2c0.3-0.7,1-1.1,1.8-1l27.7,2.7c0.4,0,0.8,0.2,1.1,0.5
				l30.4,30.4c0.3,0.3,0.5,0.7,0.5,1.1l2.7,27.7c0.1,0.7-0.3,1.5-1,1.8C966.6,353.2,965.8,353.1,965.2,352.6L965.2,352.6z
				 M910.5,292.8l53.7,53.7l-2.2-22.1L932.6,295L910.5,292.8L910.5,292.8z"/>
		</g>
		<g>
			<path fill="#FFFFFF" d="M894.3,362.7c-0.6-0.6-0.7-1.4-0.3-2.1l37.5-67c0.5-0.9,1.6-1.2,2.4-0.7c0.9,0.5,1.2,1.6,0.7,2.4
				l-34.4,61.5l61.5-34.4c0.9-0.5,1.9-0.2,2.4,0.7c0.5,0.9,0.2,1.9-0.7,2.4l-67,37.5C895.8,363.4,894.9,363.3,894.3,362.7
				L894.3,362.7z"/>
		</g>
		<g>
			<path fill="#FFFFFF" d="M934.9,322.1c-0.3-0.3-0.5-0.6-0.5-1.1l-3.1-26.4c-0.1-1,0.6-1.9,1.6-2c1-0.1,1.9,0.6,2,1.6l2.9,25
				l25,2.9c1,0.1,1.7,1,1.6,2c-0.1,1-1,1.7-2,1.6l-26.4-3.1C935.6,322.6,935.2,322.4,934.9,322.1L934.9,322.1z"/>
		</g>
		<g>
			<path fill="#FFFFFF" d="M963.6,350.5c-0.1-0.1-0.2-0.3-0.3-0.4l-18.8-37.7l-37.6-18.8c-0.8-0.4-1.1-1.4-0.7-2.2
				c0.4-0.8,1.4-1.1,2.2-0.7l38.1,19c0.3,0.2,0.6,0.4,0.7,0.7l19,38.2c0.4,0.8,0.1,1.8-0.7,2.2C964.8,351.2,964.1,351,963.6,350.5
				L963.6,350.5z"/>
		</g>
	</g>
</g>
<rect x="475.7" y="241" fill="#D1D3D4" width="1083.7" height="190.1"/>
<g>
	<g>
		<rect x="843.9" y="251.6" fill="#7F888D" width="169.2" height="169.2"/>
		<text transform="matrix(1 0 0 1 904.8948 407.5135)" fill="#FFFFFF" font-family="'Gotham-Bold'" font-size="18">Ruby</text>
	</g>
	<g>
		<g>
			<path fill="#FFFFFF" d="M892.7,363.4c-0.6-0.8-1.2-1.9-1-3l10-70.4c0.3-1.9,2-3.2,3.9-3l27.7,2.7c0.8,0.1,1.6,0.4,2.2,1
				l30.4,30.4c0.6,0.6,0.9,1.4,1,2.2l2.7,27.7c0.2,1.9-1.2,3.6-3.1,3.9l-70.8,9.6C894.6,364.6,893.5,364.2,892.7,363.4L892.7,363.4z
				 M908.2,294.4l-8.8,62.3l62.7-8.5l-2.3-23l-28.6-28.6L908.2,294.4L908.2,294.4z"/>
		</g>
		<g>
			<path fill="#FFFFFF" d="M964.7,352.6l-60.8-60.8c-0.5-0.5-0.7-1.3-0.3-2c0.3-0.7,1-1.1,1.8-1l27.7,2.7c0.4,0,0.8,0.2,1.1,0.5
				l30.4,30.4c0.3,0.3,0.5,0.7,0.5,1.1l2.7,27.7c0.1,0.7-0.3,1.5-1,1.8C966.1,353.2,965.3,353.1,964.7,352.6L964.7,352.6z
				 M910,292.8l53.7,53.7l-2.2-22.1L932.1,295L910,292.8L910,292.8z"/>
		</g>
		<g>
			<path fill="#FFFFFF" d="M893.8,362.7c-0.6-0.6-0.7-1.4-0.3-2.1l37.5-67c0.5-0.9,1.6-1.2,2.4-0.7c0.9,0.5,1.2,1.6,0.7,2.4
				l-34.4,61.5l61.5-34.4c0.9-0.5,1.9-0.2,2.4,0.7c0.5,0.9,0.2,1.9-0.7,2.4L896,363C895.3,363.4,894.4,363.3,893.8,362.7
				L893.8,362.7z"/>
		</g>
		<g>
			<path fill="#FFFFFF" d="M934.4,322.1c-0.3-0.3-0.5-0.6-0.5-1.1l-3.1-26.4c-0.1-1,0.6-1.9,1.6-2c1-0.1,1.9,0.6,2,1.6l2.9,25
				l25,2.9c1,0.1,1.7,1,1.6,2c-0.1,1-1,1.7-2,1.6l-26.4-3.1C935.1,322.6,934.7,322.4,934.4,322.1L934.4,322.1z"/>
		</g>
		<g>
			<path fill="#FFFFFF" d="M963.1,350.5c-0.1-0.1-0.2-0.3-0.3-0.4L944,312.5l-37.6-18.8c-0.8-0.4-1.1-1.4-0.7-2.2
				c0.4-0.8,1.4-1.1,2.2-0.7l38.1,19c0.3,0.2,0.6,0.4,0.7,0.7l19,38.2c0.4,0.8,0.1,1.8-0.7,2.2C964.3,351.2,963.6,351,963.1,350.5
				L963.1,350.5z"/>
		</g>
	</g>
</g>
<g>
	<rect x="10.6" y="252.4" fill="#5872AD" width="169.2" height="169.2"/>
	<g>
		<path fill="#FFFFFF" d="M146.3,321.6l-45.8-45.8c-2.6-2.6-6.9-2.6-9.6,0l-9.5,9.5l12.1,12.1c2.8-0.9,6-0.3,8.3,1.9
			c2.2,2.2,2.9,5.5,1.9,8.3l11.6,11.6c2.8-1,6.1-0.3,8.3,1.9c3.1,3.1,3.1,8.2,0,11.4c-3.1,3.1-8.2,3.1-11.4,0
			c-2.4-2.4-2.9-5.8-1.7-8.7l-10.8-10.8v28.5c0.8,0.4,1.5,0.9,2.1,1.5c3.1,3.1,3.1,8.2,0,11.4c-3.1,3.1-8.2,3.1-11.4,0
			c-3.1-3.1-3.1-8.2,0-11.4c0.8-0.8,1.7-1.4,2.6-1.8v-28.8c-1-0.4-1.9-1-2.6-1.8c-2.4-2.4-2.9-5.9-1.7-8.8L76.8,290l-31.4,31.4
			c-2.6,2.6-2.6,6.9,0,9.6l45.8,45.8c2.6,2.6,6.9,2.6,9.6,0l45.6-45.6C148.9,328.5,148.9,324.2,146.3,321.6z"/>
	</g>
	<text transform="matrix(1 0 0 1 50.4793 408.3265)" fill="#FFFFFF" font-family="'Gotham-Bold'" font-size="18">chef-repo</text>
</g>
<g>
	<g>
		<g>
			<rect x="1022.5" y="252.1" fill="#65BAAF" width="169.2" height="169.2"/>
			<text transform="matrix(1 0 0 1 1085.0549 408.0135)" fill="#FFFFFF" font-family="'Gotham-Bold'" font-size="18">tests</text>
		</g>
		<g>
			<g>
				<path fill="#FFFFFF" d="M1119.3,374.1c-1.1,0-2-0.9-2-2v-24.4c0-1.1,0.9-2,2-2h24.4c1.1,0,2,0.9,2,2c0,1.1-0.9,2-2,2h-22.3v22.3
					C1121.3,373.2,1120.4,374.1,1119.3,374.1L1119.3,374.1z"/>
			</g>
			<g>
				<path fill="#FFFFFF" d="M1119.3,376.1h-41.9c-2.2,0-4.1-1.8-4.1-4.1v-83.3c0-2.2,1.8-4.1,4.1-4.1h66.3c2.2,0,4.1,1.8,4.1,4.1v59
					c0,1.1-0.4,2.1-1.2,2.9l-24.4,24.4C1121.4,375.7,1120.4,376.1,1119.3,376.1L1119.3,376.1z M1081.4,368h36.2l22-22v-53.2h-58.2
					V368L1081.4,368z"/>
			</g>
			<g>
				<path fill="#FFFFFF" d="M1065.9,366.5c-2.2,0-4.1-1.8-4.1-4.1v-81.7c0-4.5,3.6-8.1,8.1-8.1h62.2c2.2,0,4.1,1.8,4.1,4.1
					c0,2.2-1.8,4.1-4.1,4.1H1070v81.7C1070,364.7,1068.2,366.5,1065.9,366.5L1065.9,366.5z"/>
			</g>
			<g>
				<g>
					<path fill="#FFFFFF" d="M1108.3,325.3c-0.4,0-0.8-0.2-1.1-0.5l-3.9-4.1c-0.6-0.6-0.5-1.6,0.1-2.1c0.6-0.6,1.6-0.6,2.1,0.1
						l2.7,2.9l7.5-9.2c0.5-0.6,1.5-0.7,2.1-0.2c0.6,0.5,0.7,1.5,0.2,2.1l-8.6,10.5C1109.2,325.1,1108.8,325.3,1108.3,325.3
						C1108.3,325.3,1108.3,325.3,1108.3,325.3L1108.3,325.3z"/>
				</g>
				<g>
					<path fill="#FFFFFF" d="M1127.1,337.2h-32.8c-0.8,0-1.5-0.7-1.5-1.5v-32.8c0-0.8,0.7-1.5,1.5-1.5h32.8c0.8,0,1.5,0.7,1.5,1.5
						v32.8C1128.6,336.5,1127.9,337.2,1127.1,337.2L1127.1,337.2z M1095.7,334.2h29.8v-29.8h-29.8V334.2L1095.7,334.2z"/>
				</g>
			</g>
		</g>
	</g>
	<g>
		<g>
			<rect x="486" y="251.8" fill="#768593" width="169.2" height="169.2"/>
			<text transform="matrix(1 0 0 1 520.2788 407.68)" fill="#FFFFFF" font-family="'Gotham-Bold'" font-size="18">cookbooks</text>
		</g>
		<g>
			<g>
				<path fill="#FFFFFF" d="M590.1,320.7h-31.4c-1.1,0-2-0.9-2-2v-17.7c0-1.1,0.9-2,2-2h31.4c1.1,0,2,0.9,2,2v17.7
					C592.1,319.8,591.2,320.7,590.1,320.7L590.1,320.7z M560.7,316.6H588V303h-27.3V316.6L560.7,316.6z"/>
			</g>
			<g>
				<g>
					<path fill="#FFFFFF" d="M607.3,376.8H537c-2.3,0-4.1-1.8-4.1-4.1v-88.3c0-2.3,1.8-4.1,4.1-4.1h70.2c2.3,0,4.1,1.8,4.1,4.1v88.3
						C611.4,375,609.5,376.8,607.3,376.8L607.3,376.8z M541.1,368.7h62v-80.1h-62V368.7L541.1,368.7z"/>
				</g>
				<g>
					<path fill="#FFFFFF" d="M544.2,305.1h-14.3c-2.3,0-4.1-1.8-4.1-4.1s1.8-4.1,4.1-4.1h14.3c2.3,0,4.1,1.8,4.1,4.1
						S546.5,305.1,544.2,305.1L544.2,305.1z"/>
				</g>
				<g>
					<path fill="#FFFFFF" d="M544.2,323.3h-14.3c-2.3,0-4.1-1.8-4.1-4.1c0-2.3,1.8-4.1,4.1-4.1h14.3c2.3,0,4.1,1.8,4.1,4.1
						C548.3,321.5,546.5,323.3,544.2,323.3L544.2,323.3z"/>
				</g>
				<g>
					<path fill="#FFFFFF" d="M544.2,341.6h-14.3c-2.3,0-4.1-1.8-4.1-4.1c0-2.3,1.8-4.1,4.1-4.1h14.3c2.3,0,4.1,1.8,4.1,4.1
						C548.3,339.8,546.5,341.6,544.2,341.6L544.2,341.6z"/>
				</g>
				<g>
					<path fill="#FFFFFF" d="M544.2,359.9h-14.3c-2.3,0-4.1-1.8-4.1-4.1c0-2.3,1.8-4.1,4.1-4.1h14.3c2.3,0,4.1,1.8,4.1,4.1
						C548.3,358.1,546.5,359.9,544.2,359.9L544.2,359.9z"/>
				</g>
			</g>
		</g>
	</g>
	<g>
		<g>
			<rect x="1201.1" y="251.8" fill="#7D5D7D" width="169.2" height="169.2"/>
			<text transform="matrix(1 0 0 1 1252.9871 407.68)" fill="#FFFFFF" font-family="'Gotham-Bold'" font-size="18">secrets</text>
		</g>
		<g>
			<g>
				<g>
					<path fill="#FFFFFF" d="M1331,375.3h-86.3c-2.2,0-4-1.8-4-4V285c0-2.2,1.8-4,4-4h86.3c2.2,0,4,1.8,4,4v86.3
						C1335,373.5,1333.2,375.3,1331,375.3L1331,375.3z M1248.7,367.2h78.3V289h-78.3V367.2L1248.7,367.2z"/>
				</g>
				<g>
					<path fill="#FFFFFF" d="M1318.3,360.5h-60.8c-1.1,0-2-0.9-2-2v-60.8c0-1.1,0.9-2,2-2h60.8c1.1,0,2,0.9,2,2v60.8
						C1320.3,359.6,1319.4,360.5,1318.3,360.5L1318.3,360.5z M1259.4,356.5h56.8v-56.8h-56.8V356.5L1259.4,356.5z"/>
				</g>
				<g>
					<g>
						<path fill="#FFFFFF" d="M1257.4,320.4c-2.2,0-4-1.8-4-4v-5c0-2.2,1.8-4,4-4s4,1.8,4,4v5
							C1261.4,318.6,1259.6,320.4,1257.4,320.4L1257.4,320.4z"/>
					</g>
					<g>
						<path fill="#FFFFFF" d="M1257.4,348.7c-2.2,0-4-1.8-4-4v-5c0-2.2,1.8-4,4-4s4,1.8,4,4v5
							C1261.4,346.9,1259.6,348.7,1257.4,348.7L1257.4,348.7z"/>
					</g>
				</g>
			</g>
			<g>
				<g>
					<path fill="#FFFFFF" d="M1287.8,340.2c-6.7,0-12.1-5.4-12.1-12.1c0-6.7,5.4-12.1,12.1-12.1c6.7,0,12.1,5.4,12.1,12.1
						C1299.9,334.8,1294.5,340.2,1287.8,340.2L1287.8,340.2z M1287.8,320c-4.4,0-8.1,3.6-8.1,8.1c0,4.5,3.6,8.1,8.1,8.1
						c4.5,0,8.1-3.6,8.1-8.1C1295.9,323.6,1292.3,320,1287.8,320L1287.8,320z"/>
				</g>
				<g>
					<g>
						<path fill="#FFFFFF" d="M1280.2,322.5c-0.5,0-1-0.2-1.4-0.6l-2.8-2.8c-0.8-0.8-0.8-2.1,0-2.8c0.8-0.8,2.1-0.8,2.8,0l2.8,2.8
							c0.8,0.8,0.8,2.1,0,2.8C1281.3,322.3,1280.8,322.5,1280.2,322.5L1280.2,322.5z"/>
					</g>
					<g>
						<path fill="#FFFFFF" d="M1298.3,340.5c-0.5,0-1-0.2-1.4-0.6l-3.3-3.3c-0.8-0.8-0.8-2.1,0-2.8c0.8-0.8,2.1-0.8,2.8,0l3.3,3.3
							c0.8,0.8,0.8,2.1,0,2.8C1299.3,340.3,1298.8,340.5,1298.3,340.5L1298.3,340.5z"/>
					</g>
				</g>
				<g>
					<g>
						<path fill="#FFFFFF" d="M1295.4,322.5c-0.5,0-1-0.2-1.4-0.6c-0.8-0.8-0.8-2.1,0-2.8l2.8-2.8c0.8-0.8,2.1-0.8,2.8,0
							c0.8,0.8,0.8,2.1,0,2.8l-2.8,2.8C1296.5,322.3,1296,322.5,1295.4,322.5L1295.4,322.5z"/>
					</g>
					<g>
						<path fill="#FFFFFF" d="M1277.4,340.5c-0.5,0-1-0.2-1.4-0.6c-0.8-0.8-0.8-2.1,0-2.8l3.3-3.3c0.8-0.8,2.1-0.8,2.8,0
							c0.8,0.8,0.8,2.1,0,2.8l-3.3,3.3C1278.5,340.3,1277.9,340.5,1277.4,340.5L1277.4,340.5z"/>
					</g>
				</g>
				<g>
					<g>
						<path fill="#FFFFFF" d="M1287.8,319.4c-1.1,0-2-0.9-2-2v-4c0-1.1,0.9-2,2-2c1.1,0,2,0.9,2,2v4
							C1289.9,318.5,1289,319.4,1287.8,319.4L1287.8,319.4z"/>
					</g>
					<g>
						<path fill="#FFFFFF" d="M1287.8,344.8L1287.8,344.8c-1.1,0-2-0.9-2-2l0-4.7c0-1.1,0.9-2,2-2l0,0c1.1,0,2,0.9,2,2l0,4.7
							C1289.8,343.9,1288.9,344.8,1287.8,344.8L1287.8,344.8z"/>
					</g>
				</g>
				<g>
					<g>
						<path fill="#FFFFFF" d="M1302.6,330.1h-4c-1.1,0-2-0.9-2-2c0-1.1,0.9-2,2-2h4c1.1,0,2,0.9,2,2
							C1304.6,329.2,1303.7,330.1,1302.6,330.1L1302.6,330.1z"/>
					</g>
					<g>
						<path fill="#FFFFFF" d="M1277.8,330.1h-4.7c-1.1,0-2-0.9-2-2c0-1.1,0.9-2,2-2h4.7c1.1,0,2,0.9,2,2
							C1279.8,329.2,1278.9,330.1,1277.8,330.1L1277.8,330.1z"/>
					</g>
				</g>
			</g>
		</g>
	</g>
	<g>
		<g>
			<rect x="665.6" y="251.9" fill="#768593" width="169.2" height="169.2"/>
			<text transform="matrix(1 0 0 1 716.9231 407.8299)" fill="#FFFFFF" font-family="'Gotham-Bold'" font-size="18">recipes</text>
		</g>
		<g>
			<path fill="#FFFFFF" d="M773.4,356.8v-83.9c0-1-0.8-1.8-1.8-1.8h-63.1c-1,0-1.8,0.8-1.8,1.8v83.9c0,1,0.8,1.8,1.8,1.8h63.1
				C772.6,358.6,773.4,357.8,773.4,356.8z M748.1,280.6h8.8c1,0,1.8,0.8,1.8,1.8c0,1-0.8,1.8-1.8,1.8h-8.8c-1,0-1.8-0.8-1.8-1.8
				C746.3,281.4,747.1,280.6,748.1,280.6z M756,290.1c0,1-0.8,1.8-1.8,1.8h-31.7c-1,0-1.8-0.8-1.8-1.8c0-1,0.8-1.8,1.8-1.8h31.7
				C755.3,288.3,756,289.1,756,290.1z M732.9,280.6h8.8c1,0,1.8,0.8,1.8,1.8c0,1-0.8,1.8-1.8,1.8h-8.8c-1,0-1.8-0.8-1.8-1.8
				C731.1,281.4,731.9,280.6,732.9,280.6z M717.7,280.6h8.8c1,0,1.8,0.8,1.8,1.8c0,1-0.8,1.8-1.8,1.8h-8.8c-1,0-1.8-0.8-1.8-1.8
				C715.9,281.4,716.7,280.6,717.7,280.6z M748,306.7h-25.5c-1,0-1.8-0.8-1.8-1.8c0-1,0.8-1.8,1.8-1.8H748c1,0,1.8,0.8,1.8,1.8
				C749.8,305.9,749,306.7,748,306.7z M749.8,312.3c0,1-0.8,1.8-1.8,1.8h-25.5c-1,0-1.8-0.8-1.8-1.8c0-1,0.8-1.8,1.8-1.8H748
				C749,310.5,749.8,311.3,749.8,312.3z M726.5,329.3h-8.8c-1,0-1.8-0.8-1.8-1.8c0-1,0.8-1.8,1.8-1.8h8.8c1,0,1.8,0.8,1.8,1.8
				C728.3,328.6,727.5,329.3,726.5,329.3z M761.8,321.7h-39.2c-1,0-1.8-0.8-1.8-1.8c0-1,0.8-1.8,1.8-1.8h39.2c1,0,1.8,0.8,1.8,1.8
				C763.5,320.9,762.7,321.7,761.8,321.7z M761.8,299.5h-39.2c-1,0-1.8-0.8-1.8-1.8c0-1,0.8-1.8,1.8-1.8h39.2c1,0,1.8,0.8,1.8,1.8
				C763.5,298.7,762.7,299.5,761.8,299.5z"/>
			<path fill="#FFFFFF" d="M783.5,370.5h-63.1c-1,0-1.8-0.8-1.8-1.8v-4.1h59c1,0,1.8-0.8,1.8-1.8V283h4.2c1,0,1.8,0.8,1.8,1.8v83.9
				C785.3,369.7,784.5,370.5,783.5,370.5z"/>
			<path fill="#FFFFFF" d="M797.2,296.7v83.9c0,1-0.8,1.8-1.8,1.8h-63.1c-1,0-1.8-0.8-1.8-1.8v-4.1h59c1,0,1.8-0.8,1.8-1.8v-79.8
				h4.1C796.4,294.9,797.2,295.7,797.2,296.7z"/>
		</g>
	</g>
	<g>
		<g>
			<rect x="1381" y="251.9" fill="#7D6C5D" width="169.2" height="169.2"/>
			<text transform="matrix(1 0 0 1 1437.6316 407.7845)" fill="#FFFFFF" font-family="'Gotham-Bold'" font-size="18">policy</text>
		</g>
		<g>
			<g>
				<path fill="#FFFFFF" d="M1511.2,376.4h-89.8c-2.4,0-4.3-1.9-4.3-4.3v-30.3c0-2.4,1.9-4.3,4.3-4.3h27.8c2.4,0,4.3,1.9,4.3,4.3v6
					h25.7v-6c0-2.4,1.9-4.3,4.3-4.3h27.8c2.4,0,4.3,1.9,4.3,4.3v30.3C1515.5,374.5,1513.6,376.4,1511.2,376.4L1511.2,376.4z
					 M1425.7,367.9h81.2v-21.7h-19.2v1.8c0,4.7-3.8,8.6-8.6,8.6h-25.7c-4.7,0-8.6-3.8-8.6-8.6v-1.8h-19.2V367.9L1425.7,367.9z"/>
			</g>
			<g>
				<path fill="#FFFFFF" d="M1506.4,345.5c-2.4,0-4.3-1.9-4.3-4.3v-29.9h-70.5v29.9c0,2.4-1.9,4.3-4.3,4.3c-2.4,0-4.3-1.9-4.3-4.3
					V307c0-2.4,1.9-4.3,4.3-4.3h79.1c2.4,0,4.3,1.9,4.3,4.3v34.2C1510.7,343.6,1508.8,345.5,1506.4,345.5L1506.4,345.5z"/>
			</g>
			<g>
				<path fill="#FFFFFF" d="M1501.4,298.5h-69.1c-1.2,0-2.1-1-2.1-2.1c0-1.2,1-2.1,2.1-2.1h69.1c1.2,0,2.1,1,2.1,2.1
					C1503.6,297.5,1502.6,298.5,1501.4,298.5L1501.4,298.5z"/>
			</g>
			<g>
				<path fill="#FFFFFF" d="M1497.3,289.9h-60.9c-1.2,0-2.1-1-2.1-2.1c0-1.2,1-2.1,2.1-2.1h60.9c1.2,0,2.1,1,2.1,2.1
					C1499.5,289,1498.5,289.9,1497.3,289.9L1497.3,289.9z"/>
			</g>
		</g>
	</g>
</g>
<rect x="248.2" y="430.7" fill="#D1D3D4" width="169.3" height="50.8"/>
<rect x="248.8" y="189.7" fill="#D1D3D4" width="168.9" height="51.6"/>
<g>
	<g>
		<rect x="248.7" y="12.6" fill="#7F888D" width="169.2" height="169.2"/>
		<text transform="matrix(1 0 0 1 259.6998 168.4847)" fill="#FFFFFF" font-family="'Gotham-Bold'" font-size="16">Chef Supermarket</text>
	</g>
	<g>
		<g>
			<path fill="#FFFFFF" d="M334.3,107.7c-9.7,0-17.6-7.9-17.6-17.6c0-9.7,7.9-17.6,17.6-17.6c8,0,14.8,5.4,16.9,12.7h6.8
				c-2.3-11-12-19.3-23.7-19.3c-13.3,0-24.2,10.9-24.2,24.2c0,13.3,10.9,24.2,24.2,24.2c11.7,0,21.4-8.3,23.7-19.3h-6.8
				C349.1,102.4,342.3,107.7,334.3,107.7"/>
			<path fill="#FFFFFF" d="M322.4,102c3,3,7.2,4.9,11.9,4.9v-7c-2.7,0-5.1-1.1-6.9-2.9L322.4,102z"/>
			<path fill="#FFFFFF" d="M317.5,90.1c0,2.4,0.5,4.7,1.4,6.8l6.4-2.8c-0.5-1.2-0.8-2.5-0.8-3.9c0-5.4,4.4-9.8,9.8-9.8v-7
				C325,73.4,317.5,80.9,317.5,90.1"/>
			<path fill="#FFFFFF" d="M340.4,74.5l-2.5,6.5c2.1,0.8,3.8,2.3,4.9,4.2h7.6C348.9,80.3,345.1,76.4,340.4,74.5"/>
			<path fill="#FFFFFF" d="M337.8,99.2l2.5,6.5c4.8-1.9,8.5-5.8,10-10.8h-7.6C341.7,96.9,339.9,98.4,337.8,99.2"/>
			<path fill="#FFFFFF" d="M303.3,99.5c-0.1-0.4-0.2-0.7-0.3-1.1c0,0,0,0,0-0.1c-0.1-0.3-0.2-0.7-0.3-1c0-0.1,0-0.1,0-0.2
				c-0.1-0.3-0.1-0.6-0.2-0.9c0-0.1,0-0.3-0.1-0.4c0-0.2-0.1-0.5-0.1-0.7c0-0.2-0.1-0.4-0.1-0.6c-0.2-1.4-0.3-2.9-0.3-4.3h-6.6
				c0,1.6,0.1,3.2,0.3,4.7h0c0,0,0,0.1,0,0.1c0.1,0.4,0.1,0.8,0.2,1.3c0,0.1,0,0.2,0.1,0.3c0.1,0.3,0.1,0.7,0.2,1
				c0,0.2,0.1,0.4,0.1,0.5c0.1,0.3,0.1,0.5,0.2,0.8c0.1,0.2,0.1,0.5,0.2,0.7c0.1,0.2,0.1,0.4,0.2,0.6c0.1,0.3,0.2,0.6,0.2,0.8
				c0,0.1,0.1,0.2,0.1,0.3l0,0c0.5,1.5,1,3,1.6,4.4l6.1-2.7C304.1,102,303.6,100.8,303.3,99.5z"/>
			<path fill="#FFFFFF" d="M334.3,122.6c-8.9,0-17.1-3.6-22.9-9.5l-4.7,4.7c7.1,7.1,16.8,11.4,27.6,11.4c19.9,0,36.4-14.9,38.8-34.2
				h-6.7C364,110.6,350.5,122.6,334.3,122.6"/>
			<path fill="#FFFFFF" d="M334.3,57.7c7.3,0,14,2.4,19.4,6.5l4-5.3c-6.5-4.9-14.6-7.8-23.4-7.8c-16.6,0-30.7,10.3-36.4,24.9
				l6.2,2.4C308.8,66.3,320.6,57.7,334.3,57.7"/>
			<path fill="#FFFFFF" d="M366.4,85.3h6.7c-0.7-5.7-2.7-11.1-5.6-15.8l-5.6,3.5C364.1,76.6,365.7,80.8,366.4,85.3"/>
			<path fill="#FFFFFF" d="M358.8,85.3h6.7c-1.8-11.3-9.5-20.6-19.8-24.6l-2.4,6.2C351.2,69.9,357.2,76.8,358.8,85.3"/>
			<path fill="#FFFFFF" d="M334.3,65.1L334.3,65.1l0-6.6h0c-13.4,0-24.9,8.4-29.5,20.2l6.2,2.4C314.6,71.7,323.7,65.1,334.3,65.1"/>
			<path fill="#FFFFFF" d="M309.3,90.1L309.3,90.1l-6.6,0v0c0,13.3,8.2,24.7,19.9,29.4l2.5-6.1C315.8,109.7,309.3,100.6,309.3,90.1"
				/>
			<path fill="#FFFFFF" d="M334.3,115.2v6.6c15.8,0,28.9-11.6,31.2-26.7h-6.7C356.6,106.5,346.4,115.2,334.3,115.2"/>
		</g>
		<path fill="#FFFFFF" d="M388.1,144.6H278.9V35.9h109.2V144.6z M282.9,140.6h101.2V39.9H282.9V140.6z"/>
	</g>
</g>
<g>
	<g>
		<rect x="10.6" y="252.8" fill="#7F888D" width="169.2" height="169.2"/>
		<text transform="matrix(1 0 0 1 50.4793 408.66)" fill="#FFFFFF" font-family="'Gotham-Bold'" font-size="18">chef-repo</text>
	</g>
	<g>
		<path fill="#FFFFFF" d="M94.8,354c11.6,0,21.5-3.1,24.9-7.4v-6.8c-0.1-0.2-0.3-0.3-0.4-0.5c-3.4,4.4-13.3,7.5-25,7.5
			c-11.2,0-20.7-2.9-24.5-6.9c0,0-0.1,0.1-0.1,0.1v6.5C73,350.8,83,354,94.8,354z"/>
		<path fill="#FFFFFF" d="M75.7,335.8c4.8,2.1,11.6,3.4,19.1,3.4s14.3-1.3,19.1-3.4c2.2-1,4-2.1,5.2-3.3c0.2-0.2,0.4-0.5,0.6-0.7
			V325c-0.1-0.2-0.3-0.3-0.4-0.5c-1.2,1.5-3.2,2.9-5.9,4.1c-4.8,2.1-11.6,3.4-19.1,3.4c-7.5,0-14.3-1.3-19.1-3.4
			c-2.3-1-4.2-2.2-5.4-3.5c0,0-0.1,0.1-0.1,0.1v6.5c0.1,0.1,0.2,0.2,0.3,0.3C71.2,333.4,73.1,334.7,75.7,335.8z"/>
		<path fill="#FFFFFF" d="M75.9,320.8c4.5,2.2,11.3,3.5,18.8,3.5c7.6,0,14.3-1.4,18.9-3.6c2.3-1.1,4-2.4,5-3.9
			c0.6-0.9,0.9-1.8,0.9-2.8c0-5.6-11.1-10.2-24.8-10.2c-13.7,0-24.8,4.6-24.8,10.2c0,0.8,0.2,1.6,0.6,2.3
			C71.4,318.1,73.3,319.6,75.9,320.8z"/>
		<path fill="#FFFFFF" d="M137.6,283H52.3c-2.2,0-3.9,1.7-3.9,3.9v85.3c0,2.2,1.8,3.9,3.9,3.9h85.3c2.2,0,3.9-1.8,3.9-3.9v-85.3
			C141.6,284.8,139.8,283,137.6,283z M133.7,368.3H56.2v-77.5h77.5V368.3z"/>
	</g>
</g>
<rect x="426.3" y="491.2" fill="#D1D3D4" width="50.4" height="168.1"/>
<g>
	<rect x="1277" y="478.7" fill="#D1D3D4" width="189.7" height="189.9"/>
	<g>
		<g>
			<rect x="1286.9" y="489.4" fill="#404447" width="169.2" height="169.2"/>
			<text transform="matrix(1 0 0 1 1348.3804 645.2645)" fill="#FFFFFF" font-family="'Gotham-Bold'" font-size="18">node</text>
		</g>
		<g>
			<path fill="#FFFFFF" d="M1415.1,612.1h-86.3c-2.2,0-4-1.8-4-4v-84.7c0-2.2,1.8-4,4-4h86.3c2.2,0,4,1.8,4,4v84.7
				C1419.1,610.3,1417.3,612.1,1415.1,612.1L1415.1,612.1z M1332.8,604.1h78.3v-76.8h-78.3V604.1L1332.8,604.1z"/>
		</g>
	</g>
</g>
<rect x="190.1" y="252.4" fill="#D1D3D4" width="48.7" height="168.1"/>
<rect x="427.6" y="251.7" fill="#D1D3D4" width="48.7" height="169"/>
<g>
	<g>
		<rect x="248.7" y="251.8" fill="#7F888D" width="169.2" height="169.2"/>
		<text transform="matrix(1 0 0 1 278.863 407.6512)" fill="#FFFFFF" font-family="'Gotham-Bold'" font-size="18">workstation</text>
	</g>
	<g>
		<g>
			<path fill="#FFFFFF" d="M380.1,355.8h-94.4c-2.4,0-4.3-1.9-4.3-4.3v-60.1c0-2.4,1.9-4.3,4.3-4.3h94.4c2.4,0,4.3,1.9,4.3,4.3v60.1
				C384.4,353.9,382.5,355.8,380.1,355.8L380.1,355.8z M290,347.2h85.8v-51.5H290V347.2L290,347.2z"/>
		</g>
		<g>
			<path fill="#FFFFFF" d="M371.5,345.1h-77.2c-1.2,0-2.1-1-2.1-2.1V300c0-1.2,1-2.1,2.1-2.1h77.2c1.2,0,2.1,1,2.1,2.1v42.9
				C373.6,344.1,372.7,345.1,371.5,345.1L371.5,345.1z M296.4,340.8h72.9v-38.6h-72.9V340.8L296.4,340.8z"/>
		</g>
		<g>
			<path fill="#FFFFFF" d="M393.3,368.3H273.9c-2.4,0-4.3-1.9-4.3-4.3c0-2.4,1.9-4.3,4.3-4.3h119.4c2.4,0,4.3,1.9,4.3,4.3
				C397.6,366.4,395.7,368.3,393.3,368.3L393.3,368.3z"/>
		</g>
	</g>
</g>
<g>
	<g>
		<rect x="1022.3" y="252" fill="#7F888D" width="169.2" height="169.2"/>
		<text transform="matrix(1 0 0 1 1084.8883 407.847)" fill="#FFFFFF" font-family="'Gotham-Bold'" font-size="18">tests</text>
	</g>
	<g>
		<g>
			<path fill="#FFFFFF" d="M1119.1,373.9c-1.1,0-2-0.9-2-2v-24.4c0-1.1,0.9-2,2-2h24.4c1.1,0,2,0.9,2,2c0,1.1-0.9,2-2,2h-22.3v22.3
				C1121.1,373,1120.2,373.9,1119.1,373.9L1119.1,373.9z"/>
		</g>
		<g>
			<path fill="#FFFFFF" d="M1119.1,376h-41.9c-2.2,0-4.1-1.8-4.1-4.1v-83.3c0-2.2,1.8-4.1,4.1-4.1h66.3c2.2,0,4.1,1.8,4.1,4.1v59
				c0,1.1-0.4,2.1-1.2,2.9l-24.4,24.4C1121.2,375.5,1120.2,376,1119.1,376L1119.1,376z M1081.2,367.8h36.2l22-22v-53.2h-58.2V367.8
				L1081.2,367.8z"/>
		</g>
		<g>
			<path fill="#FFFFFF" d="M1065.8,366.3c-2.2,0-4.1-1.8-4.1-4.1v-81.7c0-4.5,3.6-8.1,8.1-8.1h62.2c2.2,0,4.1,1.8,4.1,4.1
				c0,2.2-1.8,4.1-4.1,4.1h-62.2v81.7C1069.8,364.5,1068,366.3,1065.8,366.3L1065.8,366.3z"/>
		</g>
		<g>
			<g>
				<path fill="#FFFFFF" d="M1108.1,325.1c-0.4,0-0.8-0.2-1.1-0.5l-3.9-4.1c-0.6-0.6-0.5-1.6,0.1-2.1c0.6-0.6,1.6-0.6,2.1,0.1
					l2.7,2.9l7.5-9.2c0.5-0.6,1.5-0.7,2.1-0.2c0.6,0.5,0.7,1.5,0.2,2.1l-8.6,10.5C1109,324.9,1108.6,325.1,1108.1,325.1
					C1108.2,325.1,1108.2,325.1,1108.1,325.1L1108.1,325.1z"/>
			</g>
			<g>
				<path fill="#FFFFFF" d="M1126.9,337h-32.8c-0.8,0-1.5-0.7-1.5-1.5v-32.8c0-0.8,0.7-1.5,1.5-1.5h32.8c0.8,0,1.5,0.7,1.5,1.5v32.8
					C1128.4,336.3,1127.7,337,1126.9,337L1126.9,337z M1095.6,334h29.8v-29.8h-29.8V334L1095.6,334z"/>
			</g>
		</g>
	</g>
</g>
<g>
	<g>
		<rect x="485.8" y="251.6" fill="#7F888D" width="169.2" height="169.2"/>
		<text transform="matrix(1 0 0 1 520.1121 407.5135)" fill="#FFFFFF" font-family="'Gotham-Bold'" font-size="18">cookbooks</text>
	</g>
	<g>
		<g>
			<path fill="#FFFFFF" d="M589.9,320.5h-31.4c-1.1,0-2-0.9-2-2v-17.7c0-1.1,0.9-2,2-2h31.4c1.1,0,2,0.9,2,2v17.7
				C591.9,319.6,591,320.5,589.9,320.5L589.9,320.5z M560.6,316.4h27.3v-13.6h-27.3V316.4L560.6,316.4z"/>
		</g>
		<g>
			<g>
				<path fill="#FFFFFF" d="M607.1,376.7h-70.2c-2.3,0-4.1-1.8-4.1-4.1v-88.3c0-2.3,1.8-4.1,4.1-4.1h70.2c2.3,0,4.1,1.8,4.1,4.1
					v88.3C611.2,374.8,609.4,376.7,607.1,376.7L607.1,376.7z M541,368.5h62v-80.1h-62V368.5L541,368.5z"/>
			</g>
			<g>
				<path fill="#FFFFFF" d="M544,304.9h-14.3c-2.3,0-4.1-1.8-4.1-4.1c0-2.3,1.8-4.1,4.1-4.1H544c2.3,0,4.1,1.8,4.1,4.1
					C548.1,303.1,546.3,304.9,544,304.9L544,304.9z"/>
			</g>
			<g>
				<path fill="#FFFFFF" d="M544,323.2h-14.3c-2.3,0-4.1-1.8-4.1-4.1c0-2.3,1.8-4.1,4.1-4.1H544c2.3,0,4.1,1.8,4.1,4.1
					C548.1,321.3,546.3,323.2,544,323.2L544,323.2z"/>
			</g>
			<g>
				<path fill="#FFFFFF" d="M544,341.4h-14.3c-2.3,0-4.1-1.8-4.1-4.1s1.8-4.1,4.1-4.1H544c2.3,0,4.1,1.8,4.1,4.1
					S546.3,341.4,544,341.4L544,341.4z"/>
			</g>
			<g>
				<path fill="#FFFFFF" d="M544,359.7h-14.3c-2.3,0-4.1-1.8-4.1-4.1c0-2.3,1.8-4.1,4.1-4.1H544c2.3,0,4.1,1.8,4.1,4.1
					C548.1,357.9,546.3,359.7,544,359.7L544,359.7z"/>
			</g>
		</g>
	</g>
</g>
<g>
	<g>
		<rect x="1200.9" y="251.6" fill="#7F888D" width="169.2" height="169.2"/>
		<text transform="matrix(1 0 0 1 1252.8204 407.5135)" fill="#FFFFFF" font-family="'Gotham-Bold'" font-size="18">secrets</text>
	</g>
	<g>
		<g>
			<g>
				<path fill="#FFFFFF" d="M1330.8,375.1h-86.3c-2.2,0-4-1.8-4-4v-86.3c0-2.2,1.8-4,4-4h86.3c2.2,0,4,1.8,4,4v86.3
					C1334.8,373.3,1333,375.1,1330.8,375.1L1330.8,375.1z M1248.5,367.1h78.3v-78.2h-78.3V367.1L1248.5,367.1z"/>
			</g>
			<g>
				<path fill="#FFFFFF" d="M1318.1,360.4h-60.8c-1.1,0-2-0.9-2-2v-60.8c0-1.1,0.9-2,2-2h60.8c1.1,0,2,0.9,2,2v60.8
					C1320.1,359.5,1319.2,360.4,1318.1,360.4L1318.1,360.4z M1259.3,356.3h56.8v-56.8h-56.8V356.3L1259.3,356.3z"/>
			</g>
			<g>
				<g>
					<path fill="#FFFFFF" d="M1257.3,320.3c-2.2,0-4-1.8-4-4v-5c0-2.2,1.8-4,4-4s4,1.8,4,4v5
						C1261.3,318.5,1259.5,320.3,1257.3,320.3L1257.3,320.3z"/>
				</g>
				<g>
					<path fill="#FFFFFF" d="M1257.3,348.6c-2.2,0-4-1.8-4-4v-5c0-2.2,1.8-4,4-4s4,1.8,4,4v5
						C1261.3,346.8,1259.5,348.6,1257.3,348.6L1257.3,348.6z"/>
				</g>
			</g>
		</g>
		<g>
			<g>
				<path fill="#FFFFFF" d="M1287.7,340c-6.7,0-12.1-5.4-12.1-12.1c0-6.7,5.4-12.1,12.1-12.1c6.7,0,12.1,5.4,12.1,12.1
					C1299.8,334.6,1294.3,340,1287.7,340L1287.7,340z M1287.7,319.9c-4.4,0-8.1,3.6-8.1,8.1c0,4.5,3.6,8.1,8.1,8.1
					c4.5,0,8.1-3.6,8.1-8.1C1295.7,323.5,1292.1,319.9,1287.7,319.9L1287.7,319.9z"/>
			</g>
			<g>
				<g>
					<path fill="#FFFFFF" d="M1280.1,322.3c-0.5,0-1-0.2-1.4-0.6l-2.8-2.8c-0.8-0.8-0.8-2.1,0-2.8c0.8-0.8,2.1-0.8,2.8,0l2.8,2.8
						c0.8,0.8,0.8,2.1,0,2.8C1281.1,322.1,1280.6,322.3,1280.1,322.3L1280.1,322.3z"/>
				</g>
				<g>
					<path fill="#FFFFFF" d="M1298.1,340.4c-0.5,0-1-0.2-1.4-0.6l-3.3-3.3c-0.8-0.8-0.8-2.1,0-2.8c0.8-0.8,2.1-0.8,2.8,0l3.3,3.3
						c0.8,0.8,0.8,2.1,0,2.8C1299.1,340.2,1298.6,340.4,1298.1,340.4L1298.1,340.4z"/>
				</g>
			</g>
			<g>
				<g>
					<path fill="#FFFFFF" d="M1295.3,322.3c-0.5,0-1-0.2-1.4-0.6c-0.8-0.8-0.8-2.1,0-2.8l2.8-2.8c0.8-0.8,2.1-0.8,2.8,0
						c0.8,0.8,0.8,2.1,0,2.8l-2.8,2.8C1296.3,322.1,1295.8,322.3,1295.3,322.3L1295.3,322.3z"/>
				</g>
				<g>
					<path fill="#FFFFFF" d="M1277.3,340.4c-0.5,0-1-0.2-1.4-0.6c-0.8-0.8-0.8-2.1,0-2.8l3.3-3.3c0.8-0.8,2.1-0.8,2.8,0
						c0.8,0.8,0.8,2.1,0,2.8l-3.3,3.3C1278.3,340.2,1277.8,340.4,1277.3,340.4L1277.3,340.4z"/>
				</g>
			</g>
			<g>
				<g>
					<path fill="#FFFFFF" d="M1287.7,319.2c-1.1,0-2-0.9-2-2v-4c0-1.1,0.9-2,2-2c1.1,0,2,0.9,2,2v4
						C1289.7,318.3,1288.8,319.2,1287.7,319.2L1287.7,319.2z"/>
				</g>
				<g>
					<path fill="#FFFFFF" d="M1287.7,344.7L1287.7,344.7c-1.1,0-2-0.9-2-2l0-4.7c0-1.1,0.9-2,2-2l0,0c1.1,0,2,0.9,2,2l0,4.7
						C1289.7,343.8,1288.8,344.7,1287.7,344.7L1287.7,344.7z"/>
				</g>
			</g>
			<g>
				<g>
					<path fill="#FFFFFF" d="M1302.4,329.9h-4c-1.1,0-2-0.9-2-2c0-1.1,0.9-2,2-2h4c1.1,0,2,0.9,2,2
						C1304.4,329,1303.5,329.9,1302.4,329.9L1302.4,329.9z"/>
				</g>
				<g>
					<path fill="#FFFFFF" d="M1277.6,329.9h-4.7c-1.1,0-2-0.9-2-2c0-1.1,0.9-2,2-2h4.7c1.1,0,2,0.9,2,2
						C1279.7,329,1278.8,329.9,1277.6,329.9L1277.6,329.9z"/>
				</g>
			</g>
		</g>
	</g>
</g>
<g>
	<g>
		<rect x="665.4" y="251.8" fill="#7F888D" width="169.2" height="169.2"/>
		<text transform="matrix(1 0 0 1 716.7564 407.6634)" fill="#FFFFFF" font-family="'Gotham-Bold'" font-size="18">recipes</text>
	</g>
	<g>
		<path fill="#FFFFFF" d="M773.2,356.7v-83.9c0-1-0.8-1.8-1.8-1.8h-63.1c-1,0-1.8,0.8-1.8,1.8v83.9c0,1,0.8,1.8,1.8,1.8h63.1
			C772.4,358.5,773.2,357.7,773.2,356.7z M748,280.4h8.8c1,0,1.8,0.8,1.8,1.8c0,1-0.8,1.8-1.8,1.8H748c-1,0-1.8-0.8-1.8-1.8
			C746.2,281.2,747,280.4,748,280.4z M755.9,289.9c0,1-0.8,1.8-1.8,1.8h-31.7c-1,0-1.8-0.8-1.8-1.8c0-1,0.8-1.8,1.8-1.8h31.7
			C755.1,288.2,755.9,289,755.9,289.9z M732.7,280.4h8.8c1,0,1.8,0.8,1.8,1.8c0,1-0.8,1.8-1.8,1.8h-8.8c-1,0-1.8-0.8-1.8-1.8
			C730.9,281.2,731.7,280.4,732.7,280.4z M717.5,280.4h8.8c1,0,1.8,0.8,1.8,1.8c0,1-0.8,1.8-1.8,1.8h-8.8c-1,0-1.8-0.8-1.8-1.8
			C715.7,281.2,716.5,280.4,717.5,280.4z M747.9,306.5h-25.5c-1,0-1.8-0.8-1.8-1.8c0-1,0.8-1.8,1.8-1.8h25.5c1,0,1.8,0.8,1.8,1.8
			C749.6,305.7,748.8,306.5,747.9,306.5z M749.6,312.1c0,1-0.8,1.8-1.8,1.8h-25.5c-1,0-1.8-0.8-1.8-1.8c0-1,0.8-1.8,1.8-1.8h25.5
			C748.8,310.3,749.6,311.1,749.6,312.1z M726.3,329.2h-8.8c-1,0-1.8-0.8-1.8-1.8c0-1,0.8-1.8,1.8-1.8h8.8c1,0,1.8,0.8,1.8,1.8
			C728.1,328.4,727.3,329.2,726.3,329.2z M761.6,321.5h-39.2c-1,0-1.8-0.8-1.8-1.8c0-1,0.8-1.8,1.8-1.8h39.2c1,0,1.8,0.8,1.8,1.8
			C763.4,320.7,762.6,321.5,761.6,321.5z M761.6,299.4h-39.2c-1,0-1.8-0.8-1.8-1.8c0-1,0.8-1.8,1.8-1.8h39.2c1,0,1.8,0.8,1.8,1.8
			C763.4,298.6,762.6,299.4,761.6,299.4z"/>
		<path fill="#FFFFFF" d="M783.3,370.4h-63.1c-1,0-1.8-0.8-1.8-1.8v-4.1h59c1,0,1.8-0.8,1.8-1.8v-79.8h4.2c1,0,1.8,0.8,1.8,1.8v83.9
			C785.1,369.6,784.3,370.4,783.3,370.4z"/>
		<path fill="#FFFFFF" d="M797,296.6v83.9c0,1-0.8,1.8-1.8,1.8h-63.1c-1,0-1.8-0.8-1.8-1.8v-4.1h59c1,0,1.8-0.8,1.8-1.8v-79.8h4.1
			C796.2,294.8,797,295.6,797,296.6z"/>
	</g>
</g>
<g>
	<g>
		<rect x="1380.9" y="251.7" fill="#7F888D" width="169.2" height="169.2"/>
		<text transform="matrix(1 0 0 1 1437.4648 407.618)" fill="#FFFFFF" font-family="'Gotham-Bold'" font-size="18">policy</text>
	</g>
	<g>
		<g>
			<path fill="#FFFFFF" d="M1511,376.3h-89.8c-2.4,0-4.3-1.9-4.3-4.3v-30.3c0-2.4,1.9-4.3,4.3-4.3h27.8c2.4,0,4.3,1.9,4.3,4.3v6
				h25.7v-6c0-2.4,1.9-4.3,4.3-4.3h27.8c2.4,0,4.3,1.9,4.3,4.3V372C1515.3,374.4,1513.4,376.3,1511,376.3L1511,376.3z M1425.5,367.7
				h81.2V346h-19.2v1.8c0,4.7-3.8,8.6-8.6,8.6h-25.7c-4.7,0-8.6-3.8-8.6-8.6V346h-19.2V367.7L1425.5,367.7z"/>
		</g>
		<g>
			<path fill="#FFFFFF" d="M1506.2,345.4c-2.4,0-4.3-1.9-4.3-4.3v-29.9h-70.5v29.9c0,2.4-1.9,4.3-4.3,4.3c-2.4,0-4.3-1.9-4.3-4.3
				v-34.2c0-2.4,1.9-4.3,4.3-4.3h79.1c2.4,0,4.3,1.9,4.3,4.3v34.2C1510.5,343.4,1508.6,345.4,1506.2,345.4L1506.2,345.4z"/>
		</g>
		<g>
			<path fill="#FFFFFF" d="M1501.3,298.3h-69.1c-1.2,0-2.1-1-2.1-2.1c0-1.2,1-2.1,2.1-2.1h69.1c1.2,0,2.1,1,2.1,2.1
				C1503.4,297.4,1502.4,298.3,1501.3,298.3L1501.3,298.3z"/>
		</g>
		<g>
			<path fill="#FFFFFF" d="M1497.2,289.8h-60.9c-1.2,0-2.1-1-2.1-2.1c0-1.2,1-2.1,2.1-2.1h60.9c1.2,0,2.1,1,2.1,2.1
				C1499.3,288.8,1498.3,289.8,1497.2,289.8L1497.2,289.8z"/>
		</g>
	</g>
</g>
<g>
	<rect x="238.1" y="480.1" fill="#D1D3D4" width="189.7" height="189.9"/>
	<g>
		<g>
			<rect x="248.4" y="490.2" fill="#7F888D" width="169.2" height="169.2"/>
			<text transform="matrix(1 0 0 1 268.5514 646.1337)" fill="#FFFFFF" font-family="'Gotham-Bold'" font-size="18">command line</text>
		</g>
		<g>
			<g>
				<g>
					<path fill="#FFFFFF" d="M376.1,612.9h-85.2c-2.2,0-3.9-1.8-3.9-3.9v-85.2c0-2.2,1.8-3.9,3.9-3.9h85.2c2.2,0,3.9,1.8,3.9,3.9
						v85.2C380,611.1,378.3,612.9,376.1,612.9L376.1,612.9z M294.8,605h77.4v-77.4h-77.4V605L294.8,605z"/>
				</g>
				<g>
					<path fill="#FFFFFF" d="M374.7,548.5h-82.4c-1.1,0-2-0.9-2-2c0-1.1,0.9-2,2-2h82.4c1.1,0,2,0.9,2,2
						C376.7,547.6,375.8,548.5,374.7,548.5L374.7,548.5z"/>
				</g>
				<path fill="#FFFFFF" d="M304.8,531.3c-2.7,0-4.9,2.2-4.9,4.9c0,2.7,2.2,4.9,4.9,4.9c2.7,0,4.9-2.2,4.9-4.9
					C309.7,533.5,307.5,531.3,304.8,531.3L304.8,531.3z"/>
				<path fill="#FFFFFF" d="M318.1,531.3c-2.7,0-4.9,2.2-4.9,4.9c0,2.7,2.2,4.9,4.9,4.9s4.9-2.2,4.9-4.9
					C323.1,533.5,320.8,531.3,318.1,531.3L318.1,531.3z"/>
				<path fill="#FFFFFF" d="M331.5,531.3c-2.7,0-4.9,2.2-4.9,4.9c0,2.7,2.2,4.9,4.9,4.9c2.7,0,4.9-2.2,4.9-4.9
					C336.4,533.5,334.2,531.3,331.5,531.3L331.5,531.3z"/>
			</g>
			<g>
				<g>
					<g>
						<path fill="#FFFFFF" d="M357,592.9h-25c-2.2,0-3.9-1.8-3.9-3.9c0-2.2,1.8-3.9,3.9-3.9h25c2.2,0,3.9,1.8,3.9,3.9
							C360.9,591.1,359.2,592.9,357,592.9L357,592.9z"/>
					</g>
				</g>
				<g>
					<g>
						<path fill="#FFFFFF" d="M310,592.9c-1,0-2-0.4-2.8-1.1c-1.5-1.5-1.5-4,0-5.5l11.4-11.4l-11.4-11.4c-1.5-1.5-1.5-4,0-5.5
							c1.5-1.5,4-1.5,5.5,0L327,572c1.5,1.5,1.5,4,0,5.5l-14.2,14.2C312,592.5,311,592.9,310,592.9L310,592.9z"/>
					</g>
				</g>
			</g>
		</g>
	</g>
</g>
<g>
	<g>
		<g>
			<path fill="#FFFFFF" d="M314.7,457.3c0-0.5,0.2-1,0.5-1.5c0.8-1.1,2.4-1.4,3.5-0.6l16.1,11.7l16.1-11.7c1.1-0.8,2.7-0.6,3.5,0.6
				c0.8,1.1,0.6,2.7-0.6,3.5l-17.5,12.8c-0.9,0.6-2.1,0.6-2.9,0l-17.5-12.8C315.1,458.8,314.7,458.1,314.7,457.3L314.7,457.3z"/>
		</g>
	</g>
	<g>
		<g>
			<path fill="#FFFFFF" d="M314.7,440.7c0-0.5,0.2-1,0.5-1.5c0.8-1.1,2.4-1.4,3.5-0.6l16.1,11.7l16.1-11.7c1.1-0.8,2.7-0.6,3.5,0.6
				c0.8,1.1,0.6,2.7-0.6,3.5l-17.5,12.8c-0.9,0.6-2.1,0.6-2.9,0l-17.5-12.8C315.1,442.2,314.7,441.4,314.7,440.7L314.7,440.7z"/>
		</g>
	</g>
</g>
<g>
	<g>
		<g>
			<path fill="#FFFFFF" d="M213.1,276.1c0.5,0,1,0.2,1.5,0.5c1.1,0.8,1.4,2.4,0.6,3.5l-11.7,16.1l11.7,16.1c0.8,1.1,0.6,2.7-0.6,3.5
				c-1.1,0.8-2.7,0.6-3.5-0.6l-12.8-17.5c-0.6-0.9-0.6-2.1,0-2.9l12.8-17.5C211.5,276.5,212.3,276.1,213.1,276.1L213.1,276.1z"/>
		</g>
	</g>
	<g>
		<g>
			<path fill="#FFFFFF" d="M229.7,276.1c0.5,0,1,0.2,1.5,0.5c1.1,0.8,1.4,2.4,0.6,3.5L220,296.1l11.7,16.1c0.8,1.1,0.6,2.7-0.6,3.5
				c-1.1,0.8-2.7,0.6-3.5-0.6l-12.8-17.5c-0.6-0.9-0.6-2.1,0-2.9l12.8-17.5C228.2,276.5,228.9,276.1,229.7,276.1L229.7,276.1z"/>
		</g>
	</g>
</g>
<g>
	<g>
		<g>
			<path fill="#FFFFFF" d="M206.9,396.5c-0.5,0-1-0.2-1.5-0.5c-1.1-0.8-1.4-2.4-0.6-3.5l11.7-16.1l-11.7-16.1
				c-0.8-1.1-0.6-2.7,0.6-3.5c1.1-0.8,2.7-0.6,3.5,0.6l12.8,17.5c0.6,0.9,0.6,2.1,0,2.9L209,395.5
				C208.5,396.1,207.7,396.5,206.9,396.5L206.9,396.5z"/>
		</g>
	</g>
	<g>
		<g>
			<path fill="#FFFFFF" d="M190.3,396.5c-0.5,0-1-0.2-1.5-0.5c-1.1-0.8-1.4-2.4-0.6-3.5l11.7-16.1l-11.7-16.1
				c-0.8-1.1-0.6-2.7,0.6-3.5c1.1-0.8,2.7-0.6,3.5,0.6l12.8,17.5c0.6,0.9,0.6,2.1,0,2.9l-12.8,17.5
				C191.8,396.1,191.1,396.5,190.3,396.5L190.3,396.5z"/>
		</g>
	</g>
</g>
<g>
	<g>
		<g>
			<path fill="#FFFFFF" d="M313.5,208c0-0.5,0.2-1,0.5-1.5c0.8-1.1,2.4-1.4,3.5-0.6l16.1,11.7l16.1-11.7c1.1-0.8,2.7-0.6,3.5,0.6
				c0.8,1.1,0.6,2.7-0.6,3.5L335,222.7c-0.9,0.6-2.1,0.6-2.9,0L314.6,210C313.9,209.5,313.5,208.7,313.5,208L313.5,208z"/>
		</g>
	</g>
	<g>
		<g>
			<path fill="#FFFFFF" d="M313.5,191.3c0-0.5,0.2-1,0.5-1.5c0.8-1.1,2.4-1.4,3.5-0.6l16.1,11.7l16.1-11.7c1.1-0.8,2.7-0.6,3.5,0.6
				c0.8,1.1,0.6,2.7-0.6,3.5L335,206.1c-0.9,0.6-2.1,0.6-2.9,0l-17.5-12.8C313.9,192.9,313.5,192.1,313.5,191.3L313.5,191.3z"/>
		</g>
	</g>
</g>
<g>
	<g>
		<g>
			<path fill="#FFFFFF" d="M443.8,593.3c-0.5,0-1-0.2-1.5-0.5c-1.1-0.8-1.4-2.4-0.6-3.5l11.7-16.1l-11.7-16.1
				c-0.8-1.1-0.6-2.7,0.6-3.5c1.1-0.8,2.7-0.6,3.5,0.6l12.8,17.5c0.6,0.9,0.6,2.1,0,2.9l-12.8,17.5
				C445.3,593,444.5,593.3,443.8,593.3L443.8,593.3z"/>
		</g>
	</g>
	<g>
		<g>
			<path fill="#FFFFFF" d="M427.1,593.3c-0.5,0-1-0.2-1.5-0.5c-1.1-0.8-1.4-2.4-0.6-3.5l11.7-16.1l-11.7-16.1
				c-0.8-1.1-0.6-2.7,0.6-3.5c1.1-0.8,2.7-0.6,3.5,0.6l12.8,17.5c0.6,0.9,0.6,2.1,0,2.9l-12.8,17.5
				C428.7,593,427.9,593.3,427.1,593.3L427.1,593.3z"/>
		</g>
	</g>
</g>
<g>
	<g>
		<g>
			<path fill="#FFFFFF" d="M436.1,364.9c0-0.7,0.6-1.3,1.3-1.3h32.1c0.7,0,1.3,0.6,1.3,1.3c0,0.7-0.6,1.3-1.3,1.3h-32.1
				C436.6,366.2,436.1,365.6,436.1,364.9L436.1,364.9z"/>
		</g>
		<g>
			<path fill="#FFFFFF" d="M436.1,378.8c0-0.7,0.6-1.3,1.3-1.3h32.1c0.7,0,1.3,0.6,1.3,1.3c0,0.7-0.6,1.3-1.3,1.3h-32.1
				C436.6,380.1,436.1,379.5,436.1,378.8L436.1,378.8z"/>
		</g>
		<g>
			<path fill="#FFFFFF" d="M436.1,392.7c0-0.7,0.6-1.3,1.3-1.3h32.1c0.7,0,1.3,0.6,1.3,1.3c0,0.7-0.6,1.3-1.3,1.3h-32.1
				C436.6,394,436.1,393.4,436.1,392.7L436.1,392.7z"/>
		</g>
		<g>
			<polygon fill="#FFFFFF" points="451.9,368.7 451.9,361.1 471,361.1 471,368.7 451.9,368.7 			"/>
		</g>
		<g>
			<polygon fill="#FFFFFF" points="451.9,382.6 451.9,375 471,375 471,382.6 451.9,382.6 			"/>
		</g>
		<g>
			<polygon fill="#FFFFFF" points="451.9,396.5 451.9,388.9 471,388.9 471,396.5 451.9,396.5 			"/>
		</g>
	</g>
	<g>
		<g>
			<path fill="#FFFFFF" d="M436.1,323.1c0-0.7,0.6-1.3,1.3-1.3h32.1c0.7,0,1.3,0.6,1.3,1.3c0,0.7-0.6,1.3-1.3,1.3h-32.1
				C436.6,324.3,436.1,323.8,436.1,323.1L436.1,323.1z"/>
		</g>
		<g>
			<path fill="#FFFFFF" d="M436.1,337c0-0.7,0.6-1.3,1.3-1.3h32.1c0.7,0,1.3,0.6,1.3,1.3c0,0.7-0.6,1.3-1.3,1.3h-32.1
				C436.6,338.2,436.1,337.7,436.1,337L436.1,337z"/>
		</g>
		<g>
			<path fill="#FFFFFF" d="M436.1,350.9c0-0.7,0.6-1.3,1.3-1.3h32.1c0.7,0,1.3,0.6,1.3,1.3c0,0.7-0.6,1.3-1.3,1.3h-32.1
				C436.6,352.1,436.1,351.6,436.1,350.9L436.1,350.9z"/>
		</g>
		<g>
			<polygon fill="#FFFFFF" points="451.9,326.9 451.9,319.3 471,319.3 471,326.9 451.9,326.9 			"/>
		</g>
		<g>
			<polygon fill="#FFFFFF" points="451.9,340.8 451.9,333.2 471,333.2 471,340.8 451.9,340.8 			"/>
		</g>
		<g>
			<polygon fill="#FFFFFF" points="451.9,354.7 451.9,347.1 471,347.1 471,354.7 451.9,354.7 			"/>
		</g>
	</g>
	<g>
		<g>
			<path fill="#FFFFFF" d="M436.1,281.2c0-0.7,0.6-1.3,1.3-1.3h32.1c0.7,0,1.3,0.6,1.3,1.3c0,0.7-0.6,1.3-1.3,1.3h-32.1
				C436.6,282.5,436.1,281.9,436.1,281.2L436.1,281.2z"/>
		</g>
		<g>
			<path fill="#FFFFFF" d="M436.1,295.1c0-0.7,0.6-1.3,1.3-1.3h32.1c0.7,0,1.3,0.6,1.3,1.3c0,0.7-0.6,1.3-1.3,1.3h-32.1
				C436.6,296.4,436.1,295.8,436.1,295.1L436.1,295.1z"/>
		</g>
		<g>
			<path fill="#FFFFFF" d="M436.1,309c0-0.7,0.6-1.3,1.3-1.3h32.1c0.7,0,1.3,0.6,1.3,1.3c0,0.7-0.6,1.3-1.3,1.3h-32.1
				C436.6,310.3,436.1,309.7,436.1,309L436.1,309z"/>
		</g>
		<g>
			<polygon fill="#FFFFFF" points="451.9,285 451.9,277.4 471,277.4 471,285 451.9,285 			"/>
		</g>
		<g>
			<polygon fill="#FFFFFF" points="451.9,298.9 451.9,291.3 471,291.3 471,298.9 451.9,298.9 			"/>
		</g>
		<g>
			<polygon fill="#FFFFFF" points="451.9,312.8 451.9,305.2 471,305.2 471,312.8 451.9,312.8 			"/>
		</g>
	</g>
</g>
</svg>
