<?xml version="1.0" encoding="utf-8"?>
<!-- Generator: Adobe Illustrator 18.1.1, SVG Export Plug-In . SVG Version: 6.00 Build 0)  -->
<svg version="1.1" id="Layer_1" xmlns="http://www.w3.org/2000/svg" xmlns:xlink="http://www.w3.org/1999/xlink" x="0px" y="0px"
	 viewBox="0 0 1798.2 858.2" enable-background="new 0 0 1798.2 858.2" xml:space="preserve">
<rect x="239" y="241" fill="#F08921" width="189.2" height="190.2"/>
<rect x="238.3" y="2.6" fill="#D1D2D4" width="189.7" height="189.9"/>
<rect x="0" y="243" fill="#D1D3D4" width="190.3" height="190.1"/>
<g>
	<rect x="10.6" y="252.4" fill="#5872AD" width="169.2" height="169.2"/>
	<g>
		<path fill="#FFFFFF" d="M146.3,321.6l-45.8-45.8c-2.6-2.6-6.9-2.6-9.6,0l-9.5,9.5l12.1,12.1c2.8-0.9,6-0.3,8.3,1.9
			c2.2,2.2,2.9,5.5,1.9,8.3l11.6,11.6c2.8-1,6.1-0.3,8.3,1.9c3.1,3.1,3.1,8.2,0,11.4c-3.1,3.1-8.2,3.1-11.4,0
			c-2.4-2.4-2.9-5.8-1.7-8.7l-10.8-10.8v28.5c0.8,0.4,1.5,0.9,2.1,1.5c3.1,3.1,3.1,8.2,0,11.4c-3.1,3.1-8.2,3.1-11.4,0
			c-3.1-3.1-3.1-8.2,0-11.4c0.8-0.8,1.7-1.4,2.6-1.8v-28.8c-1-0.4-1.9-1-2.6-1.8c-2.4-2.4-2.9-5.9-1.7-8.8L76.8,290l-31.4,31.4
			c-2.6,2.6-2.6,6.9,0,9.6l45.8,45.8c2.6,2.6,6.9,2.6,9.6,0l45.6-45.6C148.9,328.5,148.9,324.2,146.3,321.6z"/>
	</g>
	<text transform="matrix(1 0 0 1 50.4793 408.3265)" fill="#FFFFFF" font-family="'Gotham-Bold'" font-size="18">chef-repo</text>
</g>
<g>
	<g>
		<g>
			<rect x="1022.5" y="252.1" fill="#65BAAF" width="169.2" height="169.2"/>
			<text transform="matrix(1 0 0 1 1085.0549 408.0135)" fill="#FFFFFF" font-family="'Gotham-Bold'" font-size="18">tests</text>
		</g>
		<g>
			<g>
				<path fill="#FFFFFF" d="M1119.3,374.1c-1.1,0-2-0.9-2-2v-24.4c0-1.1,0.9-2,2-2h24.4c1.1,0,2,0.9,2,2c0,1.1-0.9,2-2,2h-22.3v22.3
					C1121.3,373.2,1120.4,374.1,1119.3,374.1L1119.3,374.1z"/>
			</g>
			<g>
				<path fill="#FFFFFF" d="M1119.3,376.1h-41.9c-2.2,0-4.1-1.8-4.1-4.1v-83.3c0-2.2,1.8-4.1,4.1-4.1h66.3c2.2,0,4.1,1.8,4.1,4.1v59
					c0,1.1-0.4,2.1-1.2,2.9l-24.4,24.4C1121.4,375.7,1120.4,376.1,1119.3,376.1L1119.3,376.1z M1081.4,368h36.2l22-22v-53.2h-58.2
					V368L1081.4,368z"/>
			</g>
			<g>
				<path fill="#FFFFFF" d="M1065.9,366.5c-2.2,0-4.1-1.8-4.1-4.1v-81.7c0-4.5,3.6-8.1,8.1-8.1h62.2c2.2,0,4.1,1.8,4.1,4.1
					c0,2.2-1.8,4.1-4.1,4.1H1070v81.7C1070,364.7,1068.2,366.5,1065.9,366.5L1065.9,366.5z"/>
			</g>
			<g>
				<g>
					<path fill="#FFFFFF" d="M1108.3,325.3c-0.4,0-0.8-0.2-1.1-0.5l-3.9-4.1c-0.6-0.6-0.5-1.6,0.1-2.1c0.6-0.6,1.6-0.6,2.1,0.1
						l2.7,2.9l7.5-9.2c0.5-0.6,1.5-0.7,2.1-0.2c0.6,0.5,0.7,1.5,0.2,2.1l-8.6,10.5C1109.2,325.1,1108.8,325.3,1108.3,325.3
						C1108.3,325.3,1108.3,325.3,1108.3,325.3L1108.3,325.3z"/>
				</g>
				<g>
					<path fill="#FFFFFF" d="M1127.1,337.2h-32.8c-0.8,0-1.5-0.7-1.5-1.5v-32.8c0-0.8,0.7-1.5,1.5-1.5h32.8c0.8,0,1.5,0.7,1.5,1.5
						v32.8C1128.6,336.5,1127.9,337.2,1127.1,337.2L1127.1,337.2z M1095.7,334.2h29.8v-29.8h-29.8V334.2L1095.7,334.2z"/>
				</g>
			</g>
		</g>
	</g>
	<g>
		<g>
			<rect x="486" y="251.8" fill="#768593" width="169.2" height="169.2"/>
			<text transform="matrix(1 0 0 1 520.2788 407.68)" fill="#FFFFFF" font-family="'Gotham-Bold'" font-size="18">cookbooks</text>
		</g>
		<g>
			<g>
				<path fill="#FFFFFF" d="M590.1,320.7h-31.4c-1.1,0-2-0.9-2-2v-17.7c0-1.1,0.9-2,2-2h31.4c1.1,0,2,0.9,2,2v17.7
					C592.1,319.8,591.2,320.7,590.1,320.7L590.1,320.7z M560.7,316.6H588V303h-27.3V316.6L560.7,316.6z"/>
			</g>
			<g>
				<g>
					<path fill="#FFFFFF" d="M607.3,376.8H537c-2.3,0-4.1-1.8-4.1-4.1v-88.3c0-2.3,1.8-4.1,4.1-4.1h70.2c2.3,0,4.1,1.8,4.1,4.1v88.3
						C611.4,375,609.5,376.8,607.3,376.8L607.3,376.8z M541.1,368.7h62v-80.1h-62V368.7L541.1,368.7z"/>
				</g>
				<g>
					<path fill="#FFFFFF" d="M544.2,305.1h-14.3c-2.3,0-4.1-1.8-4.1-4.1s1.8-4.1,4.1-4.1h14.3c2.3,0,4.1,1.8,4.1,4.1
						S546.5,305.1,544.2,305.1L544.2,305.1z"/>
				</g>
				<g>
					<path fill="#FFFFFF" d="M544.2,323.3h-14.3c-2.3,0-4.1-1.8-4.1-4.1c0-2.3,1.8-4.1,4.1-4.1h14.3c2.3,0,4.1,1.8,4.1,4.1
						C548.3,321.5,546.5,323.3,544.2,323.3L544.2,323.3z"/>
				</g>
				<g>
					<path fill="#FFFFFF" d="M544.2,341.6h-14.3c-2.3,0-4.1-1.8-4.1-4.1c0-2.3,1.8-4.1,4.1-4.1h14.3c2.3,0,4.1,1.8,4.1,4.1
						C548.3,339.8,546.5,341.6,544.2,341.6L544.2,341.6z"/>
				</g>
				<g>
					<path fill="#FFFFFF" d="M544.2,359.9h-14.3c-2.3,0-4.1-1.8-4.1-4.1c0-2.3,1.8-4.1,4.1-4.1h14.3c2.3,0,4.1,1.8,4.1,4.1
						C548.3,358.1,546.5,359.9,544.2,359.9L544.2,359.9z"/>
				</g>
			</g>
		</g>
	</g>
	<g>
		<g>
			<rect x="1201.1" y="251.8" fill="#7D5D7D" width="169.2" height="169.2"/>
			<text transform="matrix(1 0 0 1 1252.9871 407.68)" fill="#FFFFFF" font-family="'Gotham-Bold'" font-size="18">secrets</text>
		</g>
		<g>
			<g>
				<g>
					<path fill="#FFFFFF" d="M1331,375.3h-86.3c-2.2,0-4-1.8-4-4V285c0-2.2,1.8-4,4-4h86.3c2.2,0,4,1.8,4,4v86.3
						C1335,373.5,1333.2,375.3,1331,375.3L1331,375.3z M1248.7,367.2h78.3V289h-78.3V367.2L1248.7,367.2z"/>
				</g>
				<g>
					<path fill="#FFFFFF" d="M1318.3,360.5h-60.8c-1.1,0-2-0.9-2-2v-60.8c0-1.1,0.9-2,2-2h60.8c1.1,0,2,0.9,2,2v60.8
						C1320.3,359.6,1319.4,360.5,1318.3,360.5L1318.3,360.5z M1259.4,356.5h56.8v-56.8h-56.8V356.5L1259.4,356.5z"/>
				</g>
				<g>
					<g>
						<path fill="#FFFFFF" d="M1257.4,320.4c-2.2,0-4-1.8-4-4v-5c0-2.2,1.8-4,4-4s4,1.8,4,4v5
							C1261.4,318.6,1259.6,320.4,1257.4,320.4L1257.4,320.4z"/>
					</g>
					<g>
						<path fill="#FFFFFF" d="M1257.4,348.7c-2.2,0-4-1.8-4-4v-5c0-2.2,1.8-4,4-4s4,1.8,4,4v5
							C1261.4,346.9,1259.6,348.7,1257.4,348.7L1257.4,348.7z"/>
					</g>
				</g>
			</g>
			<g>
				<g>
					<path fill="#FFFFFF" d="M1287.8,340.2c-6.7,0-12.1-5.4-12.1-12.1c0-6.7,5.4-12.1,12.1-12.1c6.7,0,12.1,5.4,12.1,12.1
						C1299.9,334.8,1294.5,340.2,1287.8,340.2L1287.8,340.2z M1287.8,320c-4.4,0-8.1,3.6-8.1,8.1c0,4.5,3.6,8.1,8.1,8.1
						c4.5,0,8.1-3.6,8.1-8.1C1295.9,323.6,1292.3,320,1287.8,320L1287.8,320z"/>
				</g>
				<g>
					<g>
						<path fill="#FFFFFF" d="M1280.2,322.5c-0.5,0-1-0.2-1.4-0.6l-2.8-2.8c-0.8-0.8-0.8-2.1,0-2.8c0.8-0.8,2.1-0.8,2.8,0l2.8,2.8
							c0.8,0.8,0.8,2.1,0,2.8C1281.3,322.3,1280.8,322.5,1280.2,322.5L1280.2,322.5z"/>
					</g>
					<g>
						<path fill="#FFFFFF" d="M1298.3,340.5c-0.5,0-1-0.2-1.4-0.6l-3.3-3.3c-0.8-0.8-0.8-2.1,0-2.8c0.8-0.8,2.1-0.8,2.8,0l3.3,3.3
							c0.8,0.8,0.8,2.1,0,2.8C1299.3,340.3,1298.8,340.5,1298.3,340.5L1298.3,340.5z"/>
					</g>
				</g>
				<g>
					<g>
						<path fill="#FFFFFF" d="M1295.4,322.5c-0.5,0-1-0.2-1.4-0.6c-0.8-0.8-0.8-2.1,0-2.8l2.8-2.8c0.8-0.8,2.1-0.8,2.8,0
							c0.8,0.8,0.8,2.1,0,2.8l-2.8,2.8C1296.5,322.3,1296,322.5,1295.4,322.5L1295.4,322.5z"/>
					</g>
					<g>
						<path fill="#FFFFFF" d="M1277.4,340.5c-0.5,0-1-0.2-1.4-0.6c-0.8-0.8-0.8-2.1,0-2.8l3.3-3.3c0.8-0.8,2.1-0.8,2.8,0
							c0.8,0.8,0.8,2.1,0,2.8l-3.3,3.3C1278.5,340.3,1277.9,340.5,1277.4,340.5L1277.4,340.5z"/>
					</g>
				</g>
				<g>
					<g>
						<path fill="#FFFFFF" d="M1287.8,319.4c-1.1,0-2-0.9-2-2v-4c0-1.1,0.9-2,2-2c1.1,0,2,0.9,2,2v4
							C1289.9,318.5,1289,319.4,1287.8,319.4L1287.8,319.4z"/>
					</g>
					<g>
						<path fill="#FFFFFF" d="M1287.8,344.8L1287.8,344.8c-1.1,0-2-0.9-2-2l0-4.7c0-1.1,0.9-2,2-2l0,0c1.1,0,2,0.9,2,2l0,4.7
							C1289.8,343.9,1288.9,344.8,1287.8,344.8L1287.8,344.8z"/>
					</g>
				</g>
				<g>
					<g>
						<path fill="#FFFFFF" d="M1302.6,330.1h-4c-1.1,0-2-0.9-2-2c0-1.1,0.9-2,2-2h4c1.1,0,2,0.9,2,2
							C1304.6,329.2,1303.7,330.1,1302.6,330.1L1302.6,330.1z"/>
					</g>
					<g>
						<path fill="#FFFFFF" d="M1277.8,330.1h-4.7c-1.1,0-2-0.9-2-2c0-1.1,0.9-2,2-2h4.7c1.1,0,2,0.9,2,2
							C1279.8,329.2,1278.9,330.1,1277.8,330.1L1277.8,330.1z"/>
					</g>
				</g>
			</g>
		</g>
	</g>
	<g>
		<g>
			<rect x="665.6" y="251.9" fill="#768593" width="169.2" height="169.2"/>
			<text transform="matrix(1 0 0 1 716.9231 407.8299)" fill="#FFFFFF" font-family="'Gotham-Bold'" font-size="18">recipes</text>
		</g>
		<g>
			<path fill="#FFFFFF" d="M773.4,356.8v-83.9c0-1-0.8-1.8-1.8-1.8h-63.1c-1,0-1.8,0.8-1.8,1.8v83.9c0,1,0.8,1.8,1.8,1.8h63.1
				C772.6,358.6,773.4,357.8,773.4,356.8z M748.1,280.6h8.8c1,0,1.8,0.8,1.8,1.8c0,1-0.8,1.8-1.8,1.8h-8.8c-1,0-1.8-0.8-1.8-1.8
				C746.3,281.4,747.1,280.6,748.1,280.6z M756,290.1c0,1-0.8,1.8-1.8,1.8h-31.7c-1,0-1.8-0.8-1.8-1.8c0-1,0.8-1.8,1.8-1.8h31.7
				C755.3,288.3,756,289.1,756,290.1z M732.9,280.6h8.8c1,0,1.8,0.8,1.8,1.8c0,1-0.8,1.8-1.8,1.8h-8.8c-1,0-1.8-0.8-1.8-1.8
				C731.1,281.4,731.9,280.6,732.9,280.6z M717.7,280.6h8.8c1,0,1.8,0.8,1.8,1.8c0,1-0.8,1.8-1.8,1.8h-8.8c-1,0-1.8-0.8-1.8-1.8
				C715.9,281.4,716.7,280.6,717.7,280.6z M748,306.7h-25.5c-1,0-1.8-0.8-1.8-1.8c0-1,0.8-1.8,1.8-1.8H748c1,0,1.8,0.8,1.8,1.8
				C749.8,305.9,749,306.7,748,306.7z M749.8,312.3c0,1-0.8,1.8-1.8,1.8h-25.5c-1,0-1.8-0.8-1.8-1.8c0-1,0.8-1.8,1.8-1.8H748
				C749,310.5,749.8,311.3,749.8,312.3z M726.5,329.3h-8.8c-1,0-1.8-0.8-1.8-1.8c0-1,0.8-1.8,1.8-1.8h8.8c1,0,1.8,0.8,1.8,1.8
				C728.3,328.6,727.5,329.3,726.5,329.3z M761.8,321.7h-39.2c-1,0-1.8-0.8-1.8-1.8c0-1,0.8-1.8,1.8-1.8h39.2c1,0,1.8,0.8,1.8,1.8
				C763.5,320.9,762.7,321.7,761.8,321.7z M761.8,299.5h-39.2c-1,0-1.8-0.8-1.8-1.8c0-1,0.8-1.8,1.8-1.8h39.2c1,0,1.8,0.8,1.8,1.8
				C763.5,298.7,762.7,299.5,761.8,299.5z"/>
			<path fill="#FFFFFF" d="M783.5,370.5h-63.1c-1,0-1.8-0.8-1.8-1.8v-4.1h59c1,0,1.8-0.8,1.8-1.8V283h4.2c1,0,1.8,0.8,1.8,1.8v83.9
				C785.3,369.7,784.5,370.5,783.5,370.5z"/>
			<path fill="#FFFFFF" d="M797.2,296.7v83.9c0,1-0.8,1.8-1.8,1.8h-63.1c-1,0-1.8-0.8-1.8-1.8v-4.1h59c1,0,1.8-0.8,1.8-1.8v-79.8
				h4.1C796.4,294.9,797.2,295.7,797.2,296.7z"/>
		</g>
	</g>
	<g>
		<g>
			<rect x="1381" y="251.9" fill="#7D6C5D" width="169.2" height="169.2"/>
			<text transform="matrix(1 0 0 1 1437.6316 407.7845)" fill="#FFFFFF" font-family="'Gotham-Bold'" font-size="18">policy</text>
		</g>
		<g>
			<g>
				<path fill="#FFFFFF" d="M1511.2,376.4h-89.8c-2.4,0-4.3-1.9-4.3-4.3v-30.3c0-2.4,1.9-4.3,4.3-4.3h27.8c2.4,0,4.3,1.9,4.3,4.3v6
					h25.7v-6c0-2.4,1.9-4.3,4.3-4.3h27.8c2.4,0,4.3,1.9,4.3,4.3v30.3C1515.5,374.5,1513.6,376.4,1511.2,376.4L1511.2,376.4z
					 M1425.7,367.9h81.2v-21.7h-19.2v1.8c0,4.7-3.8,8.6-8.6,8.6h-25.7c-4.7,0-8.6-3.8-8.6-8.6v-1.8h-19.2V367.9L1425.7,367.9z"/>
			</g>
			<g>
				<path fill="#FFFFFF" d="M1506.4,345.5c-2.4,0-4.3-1.9-4.3-4.3v-29.9h-70.5v29.9c0,2.4-1.9,4.3-4.3,4.3c-2.4,0-4.3-1.9-4.3-4.3
					V307c0-2.4,1.9-4.3,4.3-4.3h79.1c2.4,0,4.3,1.9,4.3,4.3v34.2C1510.7,343.6,1508.8,345.5,1506.4,345.5L1506.4,345.5z"/>
			</g>
			<g>
				<path fill="#FFFFFF" d="M1501.4,298.5h-69.1c-1.2,0-2.1-1-2.1-2.1c0-1.2,1-2.1,2.1-2.1h69.1c1.2,0,2.1,1,2.1,2.1
					C1503.6,297.5,1502.6,298.5,1501.4,298.5L1501.4,298.5z"/>
			</g>
			<g>
				<path fill="#FFFFFF" d="M1497.3,289.9h-60.9c-1.2,0-2.1-1-2.1-2.1c0-1.2,1-2.1,2.1-2.1h60.9c1.2,0,2.1,1,2.1,2.1
					C1499.5,289,1498.5,289.9,1497.3,289.9L1497.3,289.9z"/>
			</g>
		</g>
	</g>
</g>
<rect x="248.8" y="189.7" fill="#D1D3D4" width="168.9" height="51.6"/>
<g>
	<g>
		<rect x="248.7" y="12.6" fill="#7F888D" width="169.2" height="169.2"/>
		<text transform="matrix(1 0 0 1 259.6998 168.4847)" fill="#FFFFFF" font-family="'Gotham-Bold'" font-size="16">Chef Supermarket</text>
	</g>
	<g>
		<g>
			<path fill="#FFFFFF" d="M334.3,107.7c-9.7,0-17.6-7.9-17.6-17.6c0-9.7,7.9-17.6,17.6-17.6c8,0,14.8,5.4,16.9,12.7h6.8
				c-2.3-11-12-19.3-23.7-19.3c-13.3,0-24.2,10.9-24.2,24.2c0,13.3,10.9,24.2,24.2,24.2c11.7,0,21.4-8.3,23.7-19.3h-6.8
				C349.1,102.4,342.3,107.7,334.3,107.7"/>
			<path fill="#FFFFFF" d="M322.4,102c3,3,7.2,4.9,11.9,4.9v-7c-2.7,0-5.1-1.1-6.9-2.9L322.4,102z"/>
			<path fill="#FFFFFF" d="M317.5,90.1c0,2.4,0.5,4.7,1.4,6.8l6.4-2.8c-0.5-1.2-0.8-2.5-0.8-3.9c0-5.4,4.4-9.8,9.8-9.8v-7
				C325,73.4,317.5,80.9,317.5,90.1"/>
			<path fill="#FFFFFF" d="M340.4,74.5l-2.5,6.5c2.1,0.8,3.8,2.3,4.9,4.2h7.6C348.9,80.3,345.1,76.4,340.4,74.5"/>
			<path fill="#FFFFFF" d="M337.8,99.2l2.5,6.5c4.8-1.9,8.5-5.8,10-10.8h-7.6C341.7,96.9,339.9,98.4,337.8,99.2"/>
			<path fill="#FFFFFF" d="M303.3,99.5c-0.1-0.4-0.2-0.7-0.3-1.1c0,0,0,0,0-0.1c-0.1-0.3-0.2-0.7-0.3-1c0-0.1,0-0.1,0-0.2
				c-0.1-0.3-0.1-0.6-0.2-0.9c0-0.1,0-0.3-0.1-0.4c0-0.2-0.1-0.5-0.1-0.7c0-0.2-0.1-0.4-0.1-0.6c-0.2-1.4-0.3-2.9-0.3-4.3h-6.6
				c0,1.6,0.1,3.2,0.3,4.7h0c0,0,0,0.1,0,0.1c0.1,0.4,0.1,0.8,0.2,1.3c0,0.1,0,0.2,0.1,0.3c0.1,0.3,0.1,0.7,0.2,1
				c0,0.2,0.1,0.4,0.1,0.5c0.1,0.3,0.1,0.5,0.2,0.8c0.1,0.2,0.1,0.5,0.2,0.7c0.1,0.2,0.1,0.4,0.2,0.6c0.1,0.3,0.2,0.6,0.2,0.8
				c0,0.1,0.1,0.2,0.1,0.3l0,0c0.5,1.5,1,3,1.6,4.4l6.1-2.7C304.1,102,303.6,100.8,303.3,99.5z"/>
			<path fill="#FFFFFF" d="M334.3,122.6c-8.9,0-17.1-3.6-22.9-9.5l-4.7,4.7c7.1,7.1,16.8,11.4,27.6,11.4c19.9,0,36.4-14.9,38.8-34.2
				h-6.7C364,110.6,350.5,122.6,334.3,122.6"/>
			<path fill="#FFFFFF" d="M334.3,57.7c7.3,0,14,2.4,19.4,6.5l4-5.3c-6.5-4.9-14.6-7.8-23.4-7.8c-16.6,0-30.7,10.3-36.4,24.9
				l6.2,2.4C308.8,66.3,320.6,57.7,334.3,57.7"/>
			<path fill="#FFFFFF" d="M366.4,85.3h6.7c-0.7-5.7-2.7-11.1-5.6-15.8l-5.6,3.5C364.1,76.6,365.7,80.8,366.4,85.3"/>
			<path fill="#FFFFFF" d="M358.8,85.3h6.7c-1.8-11.3-9.5-20.6-19.8-24.6l-2.4,6.2C351.2,69.9,357.2,76.8,358.8,85.3"/>
			<path fill="#FFFFFF" d="M334.3,65.1L334.3,65.1l0-6.6h0c-13.4,0-24.9,8.4-29.5,20.2l6.2,2.4C314.6,71.7,323.7,65.1,334.3,65.1"/>
			<path fill="#FFFFFF" d="M309.3,90.1L309.3,90.1l-6.6,0v0c0,13.3,8.2,24.7,19.9,29.4l2.5-6.1C315.8,109.7,309.3,100.6,309.3,90.1"
				/>
			<path fill="#FFFFFF" d="M334.3,115.2v6.6c15.8,0,28.9-11.6,31.2-26.7h-6.7C356.6,106.5,346.4,115.2,334.3,115.2"/>
		</g>
		<path fill="#FFFFFF" d="M388.1,144.6H278.9V35.9h109.2V144.6z M282.9,140.6h101.2V39.9H282.9V140.6z"/>
	</g>
</g>
<g>
	<g>
		<rect x="10.6" y="252.8" fill="#7F888D" width="169.2" height="169.2"/>
		<text transform="matrix(1 0 0 1 50.4793 408.66)" fill="#FFFFFF" font-family="'Gotham-Bold'" font-size="18">chef-repo</text>
	</g>
	<g>
		<path fill="#FFFFFF" d="M94.8,354c11.6,0,21.5-3.1,24.9-7.4v-6.8c-0.1-0.2-0.3-0.3-0.4-0.5c-3.4,4.4-13.3,7.5-25,7.5
			c-11.2,0-20.7-2.9-24.5-6.9c0,0-0.1,0.1-0.1,0.1v6.5C73,350.8,83,354,94.8,354z"/>
		<path fill="#FFFFFF" d="M75.7,335.8c4.8,2.1,11.6,3.4,19.1,3.4s14.3-1.3,19.1-3.4c2.2-1,4-2.1,5.2-3.3c0.2-0.2,0.4-0.5,0.6-0.7
			V325c-0.1-0.2-0.3-0.3-0.4-0.5c-1.2,1.5-3.2,2.9-5.9,4.1c-4.8,2.1-11.6,3.4-19.1,3.4c-7.5,0-14.3-1.3-19.1-3.4
			c-2.3-1-4.2-2.2-5.4-3.5c0,0-0.1,0.1-0.1,0.1v6.5c0.1,0.1,0.2,0.2,0.3,0.3C71.2,333.4,73.1,334.7,75.7,335.8z"/>
		<path fill="#FFFFFF" d="M75.9,320.8c4.5,2.2,11.3,3.5,18.8,3.5c7.6,0,14.3-1.4,18.9-3.6c2.3-1.1,4-2.4,5-3.9
			c0.6-0.9,0.9-1.8,0.9-2.8c0-5.6-11.1-10.2-24.8-10.2c-13.7,0-24.8,4.6-24.8,10.2c0,0.8,0.2,1.6,0.6,2.3
			C71.4,318.1,73.3,319.6,75.9,320.8z"/>
		<path fill="#FFFFFF" d="M137.6,283H52.3c-2.2,0-3.9,1.7-3.9,3.9v85.3c0,2.2,1.8,3.9,3.9,3.9h85.3c2.2,0,3.9-1.8,3.9-3.9v-85.3
			C141.6,284.8,139.8,283,137.6,283z M133.7,368.3H56.2v-77.5h77.5V368.3z"/>
	</g>
</g>
<rect x="190.1" y="252.4" fill="#D1D3D4" width="48.7" height="168.1"/>
<rect x="427.6" y="251.7" fill="#D1D3D4" width="48.7" height="169"/>
<g>
	<g>
		<rect x="248.7" y="251.8" fill="#7F888D" width="169.2" height="169.2"/>
		<text transform="matrix(1 0 0 1 278.863 407.6512)" fill="#FFFFFF" font-family="'Gotham-Bold'" font-size="18">workstation</text>
	</g>
	<g>
		<g>
			<path fill="#FFFFFF" d="M380.1,355.8h-94.4c-2.4,0-4.3-1.9-4.3-4.3v-60.1c0-2.4,1.9-4.3,4.3-4.3h94.4c2.4,0,4.3,1.9,4.3,4.3v60.1
				C384.4,353.9,382.5,355.8,380.1,355.8L380.1,355.8z M290,347.2h85.8v-51.5H290V347.2L290,347.2z"/>
		</g>
		<g>
			<path fill="#FFFFFF" d="M371.5,345.1h-77.2c-1.2,0-2.1-1-2.1-2.1V300c0-1.2,1-2.1,2.1-2.1h77.2c1.2,0,2.1,1,2.1,2.1v42.9
				C373.6,344.1,372.7,345.1,371.5,345.1L371.5,345.1z M296.4,340.8h72.9v-38.6h-72.9V340.8L296.4,340.8z"/>
		</g>
		<g>
			<path fill="#FFFFFF" d="M393.3,368.3H273.9c-2.4,0-4.3-1.9-4.3-4.3c0-2.4,1.9-4.3,4.3-4.3h119.4c2.4,0,4.3,1.9,4.3,4.3
				C397.6,366.4,395.7,368.3,393.3,368.3L393.3,368.3z"/>
		</g>
	</g>
</g>
<rect x="475.7" y="241" fill="#D1D3D4" width="1083.7" height="190.1"/>
<g>
	<g>
		<rect x="1022.3" y="252" fill="#7F888D" width="169.2" height="169.2"/>
		<text transform="matrix(1 0 0 1 1084.8883 407.847)" fill="#FFFFFF" font-family="'Gotham-Bold'" font-size="18">tests</text>
	</g>
	<g>
		<g>
			<path fill="#FFFFFF" d="M1119.1,373.9c-1.1,0-2-0.9-2-2v-24.4c0-1.1,0.9-2,2-2h24.4c1.1,0,2,0.9,2,2c0,1.1-0.9,2-2,2h-22.3v22.3
				C1121.1,373,1120.2,373.9,1119.1,373.9L1119.1,373.9z"/>
		</g>
		<g>
			<path fill="#FFFFFF" d="M1119.1,376h-41.9c-2.2,0-4.1-1.8-4.1-4.1v-83.3c0-2.2,1.8-4.1,4.1-4.1h66.3c2.2,0,4.1,1.8,4.1,4.1v59
				c0,1.1-0.4,2.1-1.2,2.9l-24.4,24.4C1121.2,375.5,1120.2,376,1119.1,376L1119.1,376z M1081.2,367.8h36.2l22-22v-53.2h-58.2V367.8
				L1081.2,367.8z"/>
		</g>
		<g>
			<path fill="#FFFFFF" d="M1065.8,366.3c-2.2,0-4.1-1.8-4.1-4.1v-81.7c0-4.5,3.6-8.1,8.1-8.1h62.2c2.2,0,4.1,1.8,4.1,4.1
				c0,2.2-1.8,4.1-4.1,4.1h-62.2v81.7C1069.8,364.5,1068,366.3,1065.8,366.3L1065.8,366.3z"/>
		</g>
		<g>
			<g>
				<path fill="#FFFFFF" d="M1108.1,325.1c-0.4,0-0.8-0.2-1.1-0.5l-3.9-4.1c-0.6-0.6-0.5-1.6,0.1-2.1c0.6-0.6,1.6-0.6,2.1,0.1
					l2.7,2.9l7.5-9.2c0.5-0.6,1.5-0.7,2.1-0.2c0.6,0.5,0.7,1.5,0.2,2.1l-8.6,10.5C1109,324.9,1108.6,325.1,1108.1,325.1
					C1108.2,325.1,1108.2,325.1,1108.1,325.1L1108.1,325.1z"/>
			</g>
			<g>
				<path fill="#FFFFFF" d="M1126.9,337h-32.8c-0.8,0-1.5-0.7-1.5-1.5v-32.8c0-0.8,0.7-1.5,1.5-1.5h32.8c0.8,0,1.5,0.7,1.5,1.5v32.8
					C1128.4,336.3,1127.7,337,1126.9,337L1126.9,337z M1095.6,334h29.8v-29.8h-29.8V334L1095.6,334z"/>
			</g>
		</g>
	</g>
</g>
<g>
	<g>
		<rect x="485.8" y="251.6" fill="#7F888D" width="169.2" height="169.2"/>
		<text transform="matrix(1 0 0 1 520.1121 407.5135)" fill="#FFFFFF" font-family="'Gotham-Bold'" font-size="18">cookbooks</text>
	</g>
	<g>
		<g>
			<path fill="#FFFFFF" d="M589.9,320.5h-31.4c-1.1,0-2-0.9-2-2v-17.7c0-1.1,0.9-2,2-2h31.4c1.1,0,2,0.9,2,2v17.7
				C591.9,319.6,591,320.5,589.9,320.5L589.9,320.5z M560.6,316.4h27.3v-13.6h-27.3V316.4L560.6,316.4z"/>
		</g>
		<g>
			<g>
				<path fill="#FFFFFF" d="M607.1,376.7h-70.2c-2.3,0-4.1-1.8-4.1-4.1v-88.3c0-2.3,1.8-4.1,4.1-4.1h70.2c2.3,0,4.1,1.8,4.1,4.1
					v88.3C611.2,374.8,609.4,376.7,607.1,376.7L607.1,376.7z M541,368.5h62v-80.1h-62V368.5L541,368.5z"/>
			</g>
			<g>
				<path fill="#FFFFFF" d="M544,304.9h-14.3c-2.3,0-4.1-1.8-4.1-4.1c0-2.3,1.8-4.1,4.1-4.1H544c2.3,0,4.1,1.8,4.1,4.1
					C548.1,303.1,546.3,304.9,544,304.9L544,304.9z"/>
			</g>
			<g>
				<path fill="#FFFFFF" d="M544,323.2h-14.3c-2.3,0-4.1-1.8-4.1-4.1c0-2.3,1.8-4.1,4.1-4.1H544c2.3,0,4.1,1.8,4.1,4.1
					C548.1,321.3,546.3,323.2,544,323.2L544,323.2z"/>
			</g>
			<g>
				<path fill="#FFFFFF" d="M544,341.4h-14.3c-2.3,0-4.1-1.8-4.1-4.1s1.8-4.1,4.1-4.1H544c2.3,0,4.1,1.8,4.1,4.1
					S546.3,341.4,544,341.4L544,341.4z"/>
			</g>
			<g>
				<path fill="#FFFFFF" d="M544,359.7h-14.3c-2.3,0-4.1-1.8-4.1-4.1c0-2.3,1.8-4.1,4.1-4.1H544c2.3,0,4.1,1.8,4.1,4.1
					C548.1,357.9,546.3,359.7,544,359.7L544,359.7z"/>
			</g>
		</g>
	</g>
</g>
<g>
	<g>
		<rect x="1200.9" y="251.6" fill="#7F888D" width="169.2" height="169.2"/>
		<text transform="matrix(1 0 0 1 1252.8204 407.5135)" fill="#FFFFFF" font-family="'Gotham-Bold'" font-size="18">secrets</text>
	</g>
	<g>
		<g>
			<g>
				<path fill="#FFFFFF" d="M1330.8,375.1h-86.3c-2.2,0-4-1.8-4-4v-86.3c0-2.2,1.8-4,4-4h86.3c2.2,0,4,1.8,4,4v86.3
					C1334.8,373.3,1333,375.1,1330.8,375.1L1330.8,375.1z M1248.5,367.1h78.3v-78.2h-78.3V367.1L1248.5,367.1z"/>
			</g>
			<g>
				<path fill="#FFFFFF" d="M1318.1,360.4h-60.8c-1.1,0-2-0.9-2-2v-60.8c0-1.1,0.9-2,2-2h60.8c1.1,0,2,0.9,2,2v60.8
					C1320.1,359.5,1319.2,360.4,1318.1,360.4L1318.1,360.4z M1259.3,356.3h56.8v-56.8h-56.8V356.3L1259.3,356.3z"/>
			</g>
			<g>
				<g>
					<path fill="#FFFFFF" d="M1257.3,320.3c-2.2,0-4-1.8-4-4v-5c0-2.2,1.8-4,4-4s4,1.8,4,4v5
						C1261.3,318.5,1259.5,320.3,1257.3,320.3L1257.3,320.3z"/>
				</g>
				<g>
					<path fill="#FFFFFF" d="M1257.3,348.6c-2.2,0-4-1.8-4-4v-5c0-2.2,1.8-4,4-4s4,1.8,4,4v5
						C1261.3,346.8,1259.5,348.6,1257.3,348.6L1257.3,348.6z"/>
				</g>
			</g>
		</g>
		<g>
			<g>
				<path fill="#FFFFFF" d="M1287.7,340c-6.7,0-12.1-5.4-12.1-12.1c0-6.7,5.4-12.1,12.1-12.1c6.7,0,12.1,5.4,12.1,12.1
					C1299.8,334.6,1294.3,340,1287.7,340L1287.7,340z M1287.7,319.9c-4.4,0-8.1,3.6-8.1,8.1c0,4.5,3.6,8.1,8.1,8.1
					c4.5,0,8.1-3.6,8.1-8.1C1295.7,323.5,1292.1,319.9,1287.7,319.9L1287.7,319.9z"/>
			</g>
			<g>
				<g>
					<path fill="#FFFFFF" d="M1280.1,322.3c-0.5,0-1-0.2-1.4-0.6l-2.8-2.8c-0.8-0.8-0.8-2.1,0-2.8c0.8-0.8,2.1-0.8,2.8,0l2.8,2.8
						c0.8,0.8,0.8,2.1,0,2.8C1281.1,322.1,1280.6,322.3,1280.1,322.3L1280.1,322.3z"/>
				</g>
				<g>
					<path fill="#FFFFFF" d="M1298.1,340.4c-0.5,0-1-0.2-1.4-0.6l-3.3-3.3c-0.8-0.8-0.8-2.1,0-2.8c0.8-0.8,2.1-0.8,2.8,0l3.3,3.3
						c0.8,0.8,0.8,2.1,0,2.8C1299.1,340.2,1298.6,340.4,1298.1,340.4L1298.1,340.4z"/>
				</g>
			</g>
			<g>
				<g>
					<path fill="#FFFFFF" d="M1295.3,322.3c-0.5,0-1-0.2-1.4-0.6c-0.8-0.8-0.8-2.1,0-2.8l2.8-2.8c0.8-0.8,2.1-0.8,2.8,0
						c0.8,0.8,0.8,2.1,0,2.8l-2.8,2.8C1296.3,322.1,1295.8,322.3,1295.3,322.3L1295.3,322.3z"/>
				</g>
				<g>
					<path fill="#FFFFFF" d="M1277.3,340.4c-0.5,0-1-0.2-1.4-0.6c-0.8-0.8-0.8-2.1,0-2.8l3.3-3.3c0.8-0.8,2.1-0.8,2.8,0
						c0.8,0.8,0.8,2.1,0,2.8l-3.3,3.3C1278.3,340.2,1277.8,340.4,1277.3,340.4L1277.3,340.4z"/>
				</g>
			</g>
			<g>
				<g>
					<path fill="#FFFFFF" d="M1287.7,319.2c-1.1,0-2-0.9-2-2v-4c0-1.1,0.9-2,2-2c1.1,0,2,0.9,2,2v4
						C1289.7,318.3,1288.8,319.2,1287.7,319.2L1287.7,319.2z"/>
				</g>
				<g>
					<path fill="#FFFFFF" d="M1287.7,344.7L1287.7,344.7c-1.1,0-2-0.9-2-2l0-4.7c0-1.1,0.9-2,2-2l0,0c1.1,0,2,0.9,2,2l0,4.7
						C1289.7,343.8,1288.8,344.7,1287.7,344.7L1287.7,344.7z"/>
				</g>
			</g>
			<g>
				<g>
					<path fill="#FFFFFF" d="M1302.4,329.9h-4c-1.1,0-2-0.9-2-2c0-1.1,0.9-2,2-2h4c1.1,0,2,0.9,2,2
						C1304.4,329,1303.5,329.9,1302.4,329.9L1302.4,329.9z"/>
				</g>
				<g>
					<path fill="#FFFFFF" d="M1277.6,329.9h-4.7c-1.1,0-2-0.9-2-2c0-1.1,0.9-2,2-2h4.7c1.1,0,2,0.9,2,2
						C1279.7,329,1278.8,329.9,1277.6,329.9L1277.6,329.9z"/>
				</g>
			</g>
		</g>
	</g>
</g>
<g>
	<g>
		<rect x="843.9" y="251.6" fill="#7F888D" width="169.2" height="169.2"/>
		<text transform="matrix(1 0 0 1 904.8948 407.5135)" fill="#FFFFFF" font-family="'Gotham-Bold'" font-size="18">Ruby</text>
	</g>
	<g>
		<g>
			<path fill="#FFFFFF" d="M892.7,363.4c-0.6-0.8-1.2-1.9-1-3l10-70.4c0.3-1.9,2-3.2,3.9-3l27.7,2.7c0.8,0.1,1.6,0.4,2.2,1
				l30.4,30.4c0.6,0.6,0.9,1.4,1,2.2l2.7,27.7c0.2,1.9-1.2,3.6-3.1,3.9l-70.8,9.6C894.6,364.6,893.5,364.2,892.7,363.4L892.7,363.4z
				 M908.2,294.4l-8.8,62.3l62.7-8.5l-2.3-23l-28.6-28.6L908.2,294.4L908.2,294.4z"/>
		</g>
		<g>
			<path fill="#FFFFFF" d="M964.7,352.6l-60.8-60.8c-0.5-0.5-0.7-1.3-0.3-2c0.3-0.7,1-1.1,1.8-1l27.7,2.7c0.4,0,0.8,0.2,1.1,0.5
				l30.4,30.4c0.3,0.3,0.5,0.7,0.5,1.1l2.7,27.7c0.1,0.7-0.3,1.5-1,1.8C966.1,353.2,965.3,353.1,964.7,352.6L964.7,352.6z
				 M910,292.8l53.7,53.7l-2.2-22.1L932.1,295L910,292.8L910,292.8z"/>
		</g>
		<g>
			<path fill="#FFFFFF" d="M893.8,362.7c-0.6-0.6-0.7-1.4-0.3-2.1l37.5-67c0.5-0.9,1.6-1.2,2.4-0.7c0.9,0.5,1.2,1.6,0.7,2.4
				l-34.4,61.5l61.5-34.4c0.9-0.5,1.9-0.2,2.4,0.7c0.5,0.9,0.2,1.9-0.7,2.4L896,363C895.3,363.4,894.4,363.3,893.8,362.7
				L893.8,362.7z"/>
		</g>
		<g>
			<path fill="#FFFFFF" d="M934.4,322.1c-0.3-0.3-0.5-0.6-0.5-1.1l-3.1-26.4c-0.1-1,0.6-1.9,1.6-2c1-0.1,1.9,0.6,2,1.6l2.9,25
				l25,2.9c1,0.1,1.7,1,1.6,2c-0.1,1-1,1.7-2,1.6l-26.4-3.1C935.1,322.6,934.7,322.4,934.4,322.1L934.4,322.1z"/>
		</g>
		<g>
			<path fill="#FFFFFF" d="M963.1,350.5c-0.1-0.1-0.2-0.3-0.3-0.4L944,312.5l-37.6-18.8c-0.8-0.4-1.1-1.4-0.7-2.2
				c0.4-0.8,1.4-1.1,2.2-0.7l38.1,19c0.3,0.2,0.6,0.4,0.7,0.7l19,38.2c0.4,0.8,0.1,1.8-0.7,2.2C964.3,351.2,963.6,351,963.1,350.5
				L963.1,350.5z"/>
		</g>
	</g>
</g>
<g>
	<g>
		<rect x="665.4" y="251.8" fill="#7F888D" width="169.2" height="169.2"/>
		<text transform="matrix(1 0 0 1 716.7564 407.6634)" fill="#FFFFFF" font-family="'Gotham-Bold'" font-size="18">recipes</text>
	</g>
	<g>
		<path fill="#FFFFFF" d="M773.2,356.7v-83.9c0-1-0.8-1.8-1.8-1.8h-63.1c-1,0-1.8,0.8-1.8,1.8v83.9c0,1,0.8,1.8,1.8,1.8h63.1
			C772.4,358.5,773.2,357.7,773.2,356.7z M748,280.4h8.8c1,0,1.8,0.8,1.8,1.8c0,1-0.8,1.8-1.8,1.8H748c-1,0-1.8-0.8-1.8-1.8
			C746.2,281.2,747,280.4,748,280.4z M755.9,289.9c0,1-0.8,1.8-1.8,1.8h-31.7c-1,0-1.8-0.8-1.8-1.8c0-1,0.8-1.8,1.8-1.8h31.7
			C755.1,288.2,755.9,289,755.9,289.9z M732.7,280.4h8.8c1,0,1.8,0.8,1.8,1.8c0,1-0.8,1.8-1.8,1.8h-8.8c-1,0-1.8-0.8-1.8-1.8
			C730.9,281.2,731.7,280.4,732.7,280.4z M717.5,280.4h8.8c1,0,1.8,0.8,1.8,1.8c0,1-0.8,1.8-1.8,1.8h-8.8c-1,0-1.8-0.8-1.8-1.8
			C715.7,281.2,716.5,280.4,717.5,280.4z M747.9,306.5h-25.5c-1,0-1.8-0.8-1.8-1.8c0-1,0.8-1.8,1.8-1.8h25.5c1,0,1.8,0.8,1.8,1.8
			C749.6,305.7,748.8,306.5,747.9,306.5z M749.6,312.1c0,1-0.8,1.8-1.8,1.8h-25.5c-1,0-1.8-0.8-1.8-1.8c0-1,0.8-1.8,1.8-1.8h25.5
			C748.8,310.3,749.6,311.1,749.6,312.1z M726.3,329.2h-8.8c-1,0-1.8-0.8-1.8-1.8c0-1,0.8-1.8,1.8-1.8h8.8c1,0,1.8,0.8,1.8,1.8
			C728.1,328.4,727.3,329.2,726.3,329.2z M761.6,321.5h-39.2c-1,0-1.8-0.8-1.8-1.8c0-1,0.8-1.8,1.8-1.8h39.2c1,0,1.8,0.8,1.8,1.8
			C763.4,320.7,762.6,321.5,761.6,321.5z M761.6,299.4h-39.2c-1,0-1.8-0.8-1.8-1.8c0-1,0.8-1.8,1.8-1.8h39.2c1,0,1.8,0.8,1.8,1.8
			C763.4,298.6,762.6,299.4,761.6,299.4z"/>
		<path fill="#FFFFFF" d="M783.3,370.4h-63.1c-1,0-1.8-0.8-1.8-1.8v-4.1h59c1,0,1.8-0.8,1.8-1.8v-79.8h4.2c1,0,1.8,0.8,1.8,1.8v83.9
			C785.1,369.6,784.3,370.4,783.3,370.4z"/>
		<path fill="#FFFFFF" d="M797,296.6v83.9c0,1-0.8,1.8-1.8,1.8h-63.1c-1,0-1.8-0.8-1.8-1.8v-4.1h59c1,0,1.8-0.8,1.8-1.8v-79.8h4.1
			C796.2,294.8,797,295.6,797,296.6z"/>
	</g>
</g>
<g>
	<g>
		<rect x="1380.9" y="251.7" fill="#7F888D" width="169.2" height="169.2"/>
		<text transform="matrix(1 0 0 1 1437.4648 407.618)" fill="#FFFFFF" font-family="'Gotham-Bold'" font-size="18">policy</text>
	</g>
	<g>
		<g>
			<path fill="#FFFFFF" d="M1511,376.3h-89.8c-2.4,0-4.3-1.9-4.3-4.3v-30.3c0-2.4,1.9-4.3,4.3-4.3h27.8c2.4,0,4.3,1.9,4.3,4.3v6
				h25.7v-6c0-2.4,1.9-4.3,4.3-4.3h27.8c2.4,0,4.3,1.9,4.3,4.3V372C1515.3,374.4,1513.4,376.3,1511,376.3L1511,376.3z M1425.5,367.7
				h81.2V346h-19.2v1.8c0,4.7-3.8,8.6-8.6,8.6h-25.7c-4.7,0-8.6-3.8-8.6-8.6V346h-19.2V367.7L1425.5,367.7z"/>
		</g>
		<g>
			<path fill="#FFFFFF" d="M1506.2,345.4c-2.4,0-4.3-1.9-4.3-4.3v-29.9h-70.5v29.9c0,2.4-1.9,4.3-4.3,4.3c-2.4,0-4.3-1.9-4.3-4.3
				v-34.2c0-2.4,1.9-4.3,4.3-4.3h79.1c2.4,0,4.3,1.9,4.3,4.3v34.2C1510.5,343.4,1508.6,345.4,1506.2,345.4L1506.2,345.4z"/>
		</g>
		<g>
			<path fill="#FFFFFF" d="M1501.3,298.3h-69.1c-1.2,0-2.1-1-2.1-2.1c0-1.2,1-2.1,2.1-2.1h69.1c1.2,0,2.1,1,2.1,2.1
				C1503.4,297.4,1502.4,298.3,1501.3,298.3L1501.3,298.3z"/>
		</g>
		<g>
			<path fill="#FFFFFF" d="M1497.2,289.8h-60.9c-1.2,0-2.1-1-2.1-2.1c0-1.2,1-2.1,2.1-2.1h60.9c1.2,0,2.1,1,2.1,2.1
				C1499.3,288.8,1498.3,289.8,1497.2,289.8L1497.2,289.8z"/>
		</g>
	</g>
</g>
<g>
	<g>
		<g>
			<path fill="#FFFFFF" d="M213.1,276.1c0.5,0,1,0.2,1.5,0.5c1.1,0.8,1.4,2.4,0.6,3.5l-11.7,16.1l11.7,16.1c0.8,1.1,0.6,2.7-0.6,3.5
				c-1.1,0.8-2.7,0.6-3.5-0.6l-12.8-17.5c-0.6-0.9-0.6-2.1,0-2.9l12.8-17.5C211.5,276.5,212.3,276.1,213.1,276.1L213.1,276.1z"/>
		</g>
	</g>
	<g>
		<g>
			<path fill="#FFFFFF" d="M229.7,276.1c0.5,0,1,0.2,1.5,0.5c1.1,0.8,1.4,2.4,0.6,3.5L220,296.1l11.7,16.1c0.8,1.1,0.6,2.7-0.6,3.5
				c-1.1,0.8-2.7,0.6-3.5-0.6l-12.8-17.5c-0.6-0.9-0.6-2.1,0-2.9l12.8-17.5C228.2,276.5,228.9,276.1,229.7,276.1L229.7,276.1z"/>
		</g>
	</g>
</g>
<g>
	<g>
		<g>
			<path fill="#FFFFFF" d="M206.9,396.5c-0.5,0-1-0.2-1.5-0.5c-1.1-0.8-1.4-2.4-0.6-3.5l11.7-16.1l-11.7-16.1
				c-0.8-1.1-0.6-2.7,0.6-3.5c1.1-0.8,2.7-0.6,3.5,0.6l12.8,17.5c0.6,0.9,0.6,2.1,0,2.9L209,395.5
				C208.5,396.1,207.7,396.5,206.9,396.5L206.9,396.5z"/>
		</g>
	</g>
	<g>
		<g>
			<path fill="#FFFFFF" d="M190.3,396.5c-0.5,0-1-0.2-1.5-0.5c-1.1-0.8-1.4-2.4-0.6-3.5l11.7-16.1l-11.7-16.1
				c-0.8-1.1-0.6-2.7,0.6-3.5c1.1-0.8,2.7-0.6,3.5,0.6l12.8,17.5c0.6,0.9,0.6,2.1,0,2.9l-12.8,17.5
				C191.8,396.1,191.1,396.5,190.3,396.5L190.3,396.5z"/>
		</g>
	</g>
</g>
<g>
	<g>
		<g>
			<path fill="#FFFFFF" d="M313.5,208c0-0.5,0.2-1,0.5-1.5c0.8-1.1,2.4-1.4,3.5-0.6l16.1,11.7l16.1-11.7c1.1-0.8,2.7-0.6,3.5,0.6
				c0.8,1.1,0.6,2.7-0.6,3.5L335,222.7c-0.9,0.6-2.1,0.6-2.9,0L314.6,210C313.9,209.5,313.5,208.7,313.5,208L313.5,208z"/>
		</g>
	</g>
	<g>
		<g>
			<path fill="#FFFFFF" d="M313.5,191.3c0-0.5,0.2-1,0.5-1.5c0.8-1.1,2.4-1.4,3.5-0.6l16.1,11.7l16.1-11.7c1.1-0.8,2.7-0.6,3.5,0.6
				c0.8,1.1,0.6,2.7-0.6,3.5L335,206.1c-0.9,0.6-2.1,0.6-2.9,0l-17.5-12.8C313.9,192.9,313.5,192.1,313.5,191.3L313.5,191.3z"/>
		</g>
	</g>
</g>
<g>
	<g>
		<g>
			<path fill="#FFFFFF" d="M436.1,364.9c0-0.7,0.6-1.3,1.3-1.3h32.1c0.7,0,1.3,0.6,1.3,1.3c0,0.7-0.6,1.3-1.3,1.3h-32.1
				C436.6,366.2,436.1,365.6,436.1,364.9L436.1,364.9z"/>
		</g>
		<g>
			<path fill="#FFFFFF" d="M436.1,378.8c0-0.7,0.6-1.3,1.3-1.3h32.1c0.7,0,1.3,0.6,1.3,1.3c0,0.7-0.6,1.3-1.3,1.3h-32.1
				C436.6,380.1,436.1,379.5,436.1,378.8L436.1,378.8z"/>
		</g>
		<g>
			<path fill="#FFFFFF" d="M436.1,392.7c0-0.7,0.6-1.3,1.3-1.3h32.1c0.7,0,1.3,0.6,1.3,1.3c0,0.7-0.6,1.3-1.3,1.3h-32.1
				C436.6,394,436.1,393.4,436.1,392.7L436.1,392.7z"/>
		</g>
		<g>
			<polygon fill="#FFFFFF" points="451.9,368.7 451.9,361.1 471,361.1 471,368.7 451.9,368.7 			"/>
		</g>
		<g>
			<polygon fill="#FFFFFF" points="451.9,382.6 451.9,375 471,375 471,382.6 451.9,382.6 			"/>
		</g>
		<g>
			<polygon fill="#FFFFFF" points="451.9,396.5 451.9,388.9 471,388.9 471,396.5 451.9,396.5 			"/>
		</g>
	</g>
	<g>
		<g>
			<path fill="#FFFFFF" d="M436.1,323.1c0-0.7,0.6-1.3,1.3-1.3h32.1c0.7,0,1.3,0.6,1.3,1.3c0,0.7-0.6,1.3-1.3,1.3h-32.1
				C436.6,324.3,436.1,323.8,436.1,323.1L436.1,323.1z"/>
		</g>
		<g>
			<path fill="#FFFFFF" d="M436.1,337c0-0.7,0.6-1.3,1.3-1.3h32.1c0.7,0,1.3,0.6,1.3,1.3c0,0.7-0.6,1.3-1.3,1.3h-32.1
				C436.6,338.2,436.1,337.7,436.1,337L436.1,337z"/>
		</g>
		<g>
			<path fill="#FFFFFF" d="M436.1,350.9c0-0.7,0.6-1.3,1.3-1.3h32.1c0.7,0,1.3,0.6,1.3,1.3c0,0.7-0.6,1.3-1.3,1.3h-32.1
				C436.6,352.1,436.1,351.6,436.1,350.9L436.1,350.9z"/>
		</g>
		<g>
			<polygon fill="#FFFFFF" points="451.9,326.9 451.9,319.3 471,319.3 471,326.9 451.9,326.9 			"/>
		</g>
		<g>
			<polygon fill="#FFFFFF" points="451.9,340.8 451.9,333.2 471,333.2 471,340.8 451.9,340.8 			"/>
		</g>
		<g>
			<polygon fill="#FFFFFF" points="451.9,354.7 451.9,347.1 471,347.1 471,354.7 451.9,354.7 			"/>
		</g>
	</g>
	<g>
		<g>
			<path fill="#FFFFFF" d="M436.1,281.2c0-0.7,0.6-1.3,1.3-1.3h32.1c0.7,0,1.3,0.6,1.3,1.3c0,0.7-0.6,1.3-1.3,1.3h-32.1
				C436.6,282.5,436.1,281.9,436.1,281.2L436.1,281.2z"/>
		</g>
		<g>
			<path fill="#FFFFFF" d="M436.1,295.1c0-0.7,0.6-1.3,1.3-1.3h32.1c0.7,0,1.3,0.6,1.3,1.3c0,0.7-0.6,1.3-1.3,1.3h-32.1
				C436.6,296.4,436.1,295.8,436.1,295.1L436.1,295.1z"/>
		</g>
		<g>
			<path fill="#FFFFFF" d="M436.1,309c0-0.7,0.6-1.3,1.3-1.3h32.1c0.7,0,1.3,0.6,1.3,1.3c0,0.7-0.6,1.3-1.3,1.3h-32.1
				C436.6,310.3,436.1,309.7,436.1,309L436.1,309z"/>
		</g>
		<g>
			<polygon fill="#FFFFFF" points="451.9,285 451.9,277.4 471,277.4 471,285 451.9,285 			"/>
		</g>
		<g>
			<polygon fill="#FFFFFF" points="451.9,298.9 451.9,291.3 471,291.3 471,298.9 451.9,298.9 			"/>
		</g>
		<g>
			<polygon fill="#FFFFFF" points="451.9,312.8 451.9,305.2 471,305.2 471,312.8 451.9,312.8 			"/>
		</g>
	</g>
</g>
<g>
	<g>
		<g>
			<rect x="1022.6" y="251.6" fill="#59B8B3" width="169.2" height="169.2"/>
			<text transform="matrix(1 0 0 1 1085.2216 407.5135)" fill="#FFFFFF" font-family="'Gotham-Bold'" font-size="18">tests</text>
		</g>
		<g>
			<g>
				<path fill="#FFFFFF" d="M1119.4,373.6c-1.1,0-2-0.9-2-2v-24.4c0-1.1,0.9-2,2-2h24.4c1.1,0,2,0.9,2,2c0,1.1-0.9,2-2,2h-22.3v22.3
					C1121.5,372.7,1120.6,373.6,1119.4,373.6L1119.4,373.6z"/>
			</g>
			<g>
				<path fill="#FFFFFF" d="M1119.4,375.6h-41.9c-2.2,0-4.1-1.8-4.1-4.1v-83.3c0-2.2,1.8-4.1,4.1-4.1h66.3c2.2,0,4.1,1.8,4.1,4.1v59
					c0,1.1-0.4,2.1-1.2,2.9l-24.4,24.4C1121.5,375.2,1120.5,375.6,1119.4,375.6L1119.4,375.6z M1081.6,367.5h36.2l22-22v-53.2h-58.2
					V367.5L1081.6,367.5z"/>
			</g>
			<g>
				<path fill="#FFFFFF" d="M1066.1,366c-2.2,0-4.1-1.8-4.1-4.1v-81.7c0-4.5,3.6-8.1,8.1-8.1h62.2c2.2,0,4.1,1.8,4.1,4.1
					c0,2.2-1.8,4.1-4.1,4.1h-62.2V362C1070.1,364.2,1068.3,366,1066.1,366L1066.1,366z"/>
			</g>
			<g>
				<g>
					<path fill="#FFFFFF" d="M1108.5,324.8c-0.4,0-0.8-0.2-1.1-0.5l-3.9-4.1c-0.6-0.6-0.5-1.6,0.1-2.1c0.6-0.6,1.6-0.6,2.1,0.1
						l2.7,2.9l7.5-9.2c0.5-0.6,1.5-0.7,2.1-0.2c0.6,0.5,0.7,1.5,0.2,2.1l-8.6,10.5C1109.4,324.6,1109,324.8,1108.5,324.8
						C1108.5,324.8,1108.5,324.8,1108.5,324.8L1108.5,324.8z"/>
				</g>
				<g>
					<path fill="#FFFFFF" d="M1127.2,336.7h-32.8c-0.8,0-1.5-0.7-1.5-1.5v-32.8c0-0.8,0.7-1.5,1.5-1.5h32.8c0.8,0,1.5,0.7,1.5,1.5
						v32.8C1128.7,336,1128.1,336.7,1127.2,336.7L1127.2,336.7z M1095.9,333.7h29.8v-29.8h-29.8V333.7L1095.9,333.7z"/>
				</g>
			</g>
		</g>
	</g>
	<g>
		<rect x="476.2" y="2" fill="#D1D3D4" width="1083.7" height="190.1"/>
		<g>
			<g>
				<rect x="1201.5" y="11.8" fill="#59B8B3" width="169.2" height="169.2"/>
				<text transform="matrix(1 0 0 1 1243.2794 167.6522)" fill="#FFFFFF" font-family="'Gotham-Bold'" font-size="18">RuboCop</text>
			</g>
			<g>
				<path fill="#FFFFFF" d="M1330.8,81.2c0-1.8-0.7-3.3-2.1-4.4c-0.4-0.3-0.5-0.6-0.5-1c0-1,0-2,0-2.9c-0.1-2.8-2-5-4.6-5.9
					c-0.8-0.3-1.6-0.3-2.4-0.3h-67c-0.4,0-0.8,0-1.2,0c-1.7,0.1-3.1,0.8-4.3,2c-1.2,1.2-1.8,2.7-1.8,4.4c0,1,0,1.9,0,2.9
					c0,0.3-0.1,0.6-0.4,0.8c-0.1,0.1-0.2,0.1-0.3,0.2c-1.2,1-1.9,2.3-1.9,3.9c0,3,0,6,0,9c0,0.4,0,0.7,0.1,1.1c0.3,1.3,1,2.3,2,3
					c0.3,0.2,0.4,0.4,0.4,0.8c0,1,0,2.1,0,3.1c0.1,3,2.2,5.5,5.1,6.1c0.7,0.1,1.3,0.2,2,0.2c22.4,0,44.7,0,67.1,0c0.3,0,0.6,0,0.8,0
					c2.8-0.2,4.8-1.6,5.9-4.2c0.3-0.8,0.4-1.6,0.4-2.5c0-0.9,0-1.7,0-2.6c0-0.4,0.1-0.7,0.5-1c1.4-1.1,2.1-2.6,2.1-4.4
					C1330.8,86.7,1330.8,84,1330.8,81.2z M1315.4,90.3c-0.3,0-0.5,0-0.8,0h-54.2c-0.5,0-0.9,0-1.4-0.1c-2.2-0.3-4-2.4-4.1-4.6
					c-0.1-2.4,1.8-4.5,3.9-4.8c0.5-0.1,1-0.1,1.5-0.1h12.3c14,0,28,0,42,0c0.6,0,1.2,0,1.7,0.1c2,0.4,3.7,2.3,3.8,4.4
					C1320.3,87.7,1318.4,90.1,1315.4,90.3z"/>
				<path fill="#FFFFFF" d="M1287.5,64.7c-11.5,0-23.1,0-34.6,0c-1.4,0-1.2,0.1-1-1.2c1.6-9.5,6.3-17.2,14-23.1c3-2.3,6.4-4,10-5.3
					c2.8-1,5.7-1.6,8.6-1.8c3.3-0.3,6.5-0.1,9.7,0.5c5.8,1.1,11,3.4,15.6,7c4.7,3.7,8.3,8.2,10.8,13.6c1.3,2.8,2.2,5.7,2.7,8.7
					c0.1,0.5,0.2,0.9,0.2,1.4c0,0.2-0.1,0.3-0.3,0.3c-0.3,0-0.5,0-0.8,0C1310.7,64.7,1299.1,64.7,1287.5,64.7z"/>
				<path fill="#FFFFFF" d="M1287.5,135.4c-6,0-12,0-18,0c-0.5,0-1.1,0-1.6,0c-5.9-0.4-10.2-3.2-12.9-8.4c-1.1-2-1.6-4.2-1.7-6.5
					c0-2.5,0-5,0-7.5c0-1.9,0-3.9,0-5.8c0-0.2,0-0.5,0-0.7c0-0.1,0.1-0.2,0.2-0.2c0.2,0,0.3,0,0.5,0c2.3,0,4.7,0,7,0
					c0.1,0,0.2,0,0.4,0c0.2,0,0.3,0.1,0.3,0.3c0,0.2,0,0.5,0,0.7c0,4.2,0,8.5,0,12.7c0,1.7,0.5,3.2,1.6,4.5c1.3,1.5,3,2.4,5,2.5
					c1.3,0.1,2.6,0,3.9,0c1,0,1.7-0.4,2.3-1.2c1.3-1.7,2.6-3.4,3.9-5c0.2-0.2,0.3-0.4,0.5-0.6c0.5-0.6,1.2-0.9,2-0.9
					c0.4,0,0.9,0,1.3,0c3.7,0,7.4,0,11.1,0c0.2,0,0.5,0,0.7,0c0.9,0,1.5,0.3,2.1,1c0.6,0.7,1.1,1.4,1.6,2.1c0.8,1.1,1.6,2.1,2.5,3.2
					c0.1,0.2,0.3,0.4,0.5,0.6c0.5,0.6,1.1,0.9,1.8,0.9c0.3,0,0.5,0,0.8,0c1,0,2.1,0,3.1,0c2.2-0.1,4-0.9,5.3-2.5
					c1.1-1.3,1.5-2.7,1.6-4.4c0-0.8,0-1.6,0-2.4c0-3.5,0-7.1,0-10.6c0-0.8,0-0.8,0.9-0.8c2.3,0,4.5,0,6.8,0c0.2,0,0.4,0,0.5,0
					c0.2,0,0.3,0.1,0.3,0.3c0,0.1,0,0.2,0,0.4c0,4.5,0,9,0,13.5c-0.1,4.3-1.7,7.9-4.8,10.8c-2.7,2.6-6,4-9.8,4.2c-0.5,0-1.1,0-1.6,0
					C1299.6,135.4,1293.6,135.4,1287.5,135.4z"/>
				<path fill="#FFFFFF" d="M1287.6,109.3c3.9,0,7.7,0,11.6,0c0.2,0,0.4,0,0.5,0c0.4,0,0.6,0.1,0.9,0.4c0.8,1,1.7,1.9,2.5,2.9
					c0.1,0.1,0.2,0.3,0.4,0.4c0.2,0.3,0.2,0.4-0.1,0.6c-0.9,0.8-1.8,1.6-2.7,2.3c-0.2,0.2-0.3,0.2-0.5-0.1c-0.5-0.6-1-1.1-1.5-1.7
					c-0.3-0.4-0.6-0.5-1.1-0.5c-0.6,0-1.2,0-1.8,0c-5.8,0-11.7,0-17.5,0c-0.1,0-0.2,0-0.4,0c-1.2,0-0.9-0.1-1.6,0.7
					c-0.4,0.5-0.8,0.9-1.2,1.4c-0.3,0.4-0.4,0.4-0.8,0c-0.8-0.7-1.6-1.4-2.4-2.1c-0.4-0.4-0.4-0.4-0.1-0.8c0.3-0.3,0.5-0.6,0.8-0.9
					c0.6-0.7,1.3-1.5,1.9-2.2c0.3-0.4,0.6-0.6,1.1-0.5c0.1,0,0.3,0,0.5,0C1279.8,109.3,1283.7,109.3,1287.6,109.3z"/>
			</g>
		</g>
		<g>
			<g>
				<rect x="485.3" y="11.8" fill="#59B8B3" width="169.2" height="169.2"/>
				<text transform="matrix(1 0 0 1 526.1752 167.6522)" fill="#FFFFFF" font-family="'Gotham-Bold'" font-size="18">ChefSpec</text>
			</g>
			<g>
				<path fill="#FFFFFF" d="M570.4,141.6c-29.8,0-54.1-24.3-54.1-54.1c0-29.8,24.3-54.1,54.1-54.1c29.8,0,54.1,24.3,54.1,54.1
					C624.5,117.4,600.2,141.6,570.4,141.6L570.4,141.6z M570.4,42.7c-24.7,0-44.9,20.1-44.9,44.9c0,24.7,20.1,44.9,44.9,44.9
					c24.8,0,44.9-20.1,44.9-44.9C615.3,62.8,595.2,42.7,570.4,42.7L570.4,42.7z"/>
				<polygon fill="#FFFFFF" points="553.4,68.7 553.4,68.7 541.2,80.8 570.7,110.3 582.9,98.2 600.2,80.8 588.1,68.7 588.1,68.6 
					553.4,68.6 				"/>
			</g>
		</g>
		<g>
			<g>
				<rect x="1022.5" y="11.8" fill="#59B8B3" width="169.2" height="169.2"/>
				<text transform="matrix(1 0 0 1 1072.2018 167.6522)" fill="#FFFFFF" font-family="'Gotham-Bold'" font-size="18">Kitchen</text>
			</g>
			<g>
				<path fill="#FFFFFF" d="M1146.1,36.7h-79c-6.6,0-12,5.4-12,12V125c0,6.6,5.4,12,12,12h79c6.6,0,12-5.4,12-12V48.7
					C1158.1,42.1,1152.7,36.7,1146.1,36.7z M1100.4,100.5c0,9.2-7.3,16.6-16.2,16.6c-8.4,0-15.4-6.7-16.1-15.2h-0.2l0.1-31.5h0.1
					c0.2-9,7.4-16.3,16.2-16.3c8.8,0,16,7.4,16.1,16.4h0l-0.1,28.3c0,0,0,0,0,0C1100.4,99.4,1100.4,99.9,1100.4,100.5z
					 M1142.7,103.5v24H1120v-0.1c-1.3,0-2.6-0.2-3.8-0.5c-1.4-0.4-2.7-1-3.9-1.7c-4.4-2.7-7.3-7.5-7.3-13c0-0.3,0-0.6,0-0.9h0v-24
					h22.7v0c8.3,0.2,14.9,6.9,14.9,15.2C1142.7,102.8,1142.7,103.1,1142.7,103.5L1142.7,103.5z M1145,68.7L1145,68.7
					c-0.3,8.5-7.1,15.3-15.4,15.3c-0.3,0-0.6,0-0.9,0v0l-24-0.1l0.1-22.9v-0.4h0c0.2-8.5,7-15.3,15.3-15.3c0.3,0,0.7,0,1,0v0l24,0.1
					L1145,68.7z"/>
				<g>
					<path fill="#FFFFFF" d="M1093.2,69.9c0,0.2,0,0.4,0,0.6c-0.3,4.4-4.3,7.8-9,7.8c-4.8,0-8.7-3.5-9-7.9c0-0.2,0-0.4,0-0.6
						c0-4.6,4.1-8.4,9.1-8.4C1089.1,61.5,1093.2,65.2,1093.2,69.9z"/>
				</g>
			</g>
		</g>
		<g>
			<g>
				<rect x="664.5" y="11.7" fill="#59B8B3" width="169.2" height="169.2"/>
				<text transform="matrix(1 0 0 1 711.671 167.6405)" fill="#FFFFFF" font-family="'Gotham-Bold'" font-size="18">controls</text>
			</g>
			<g>
				<g>
					<path fill="#FFFFFF" d="M774.8,136.2h-51c-1.6,0-3-0.8-3.8-2.2l-25.5-44.1c-0.8-1.4-0.8-3,0-4.4L720,41.3
						c0.8-1.4,2.2-2.2,3.8-2.2h51c1.6,0,3,0.8,3.8,2.2l25.5,44.2c0.8,1.4,0.8,3,0,4.4L778.6,134
						C777.8,135.3,776.4,136.2,774.8,136.2L774.8,136.2z M726.4,127.4h45.9l23-39.8l-23-39.8h-45.9l-23,39.8L726.4,127.4
						L726.4,127.4z"/>
				</g>
				<g>
					<path fill="#FFFFFF" d="M749.3,114c-14.5,0-26.4-11.8-26.4-26.4s11.8-26.4,26.4-26.4c14.5,0,26.4,11.8,26.4,26.4
						S763.8,114,749.3,114L749.3,114z M749.3,70c-9.7,0-17.6,7.9-17.6,17.6s7.9,17.6,17.6,17.6c9.7,0,17.6-7.9,17.6-17.6
						S759,70,749.3,70L749.3,70z"/>
				</g>
			</g>
		</g>
		<g>
			<g>
				<rect x="1380.6" y="11.8" fill="#59B8B3" width="169.2" height="169.2"/>
				<text transform="matrix(1 0 0 1 1414.2316 167.6522)" fill="#FFFFFF" font-family="'Gotham-Bold'" font-size="18">Serverspec</text>
			</g>
			<g>
				<g>
					<path fill="#FFFFFF" d="M1459.7,104.7c-1.1,0-2.1-0.4-2.9-1.2l-10.3-10.8c-1.5-1.6-1.4-4.1,0.1-5.6c1.6-1.5,4.1-1.5,5.6,0.1
						l7.2,7.5l19.8-24.2c1.4-1.7,3.9-1.9,5.6-0.6s1.9,3.9,0.5,5.6l-22.7,27.6c-0.7,0.9-1.8,1.4-2.9,1.4
						C1459.8,104.7,1459.7,104.7,1459.7,104.7L1459.7,104.7z"/>
				</g>
				<g>
					<path fill="#FFFFFF" d="M1509.1,136h-86.4c-2.2,0-4-1.8-4-4V45.6c0-2.2,1.8-4,4-4h86.4c2.2,0,4,1.8,4,4v86.4
						C1513,134.3,1511.3,136,1509.1,136L1509.1,136z M1426.6,128.1h78.5V49.6h-78.5V128.1L1426.6,128.1z"/>
				</g>
			</g>
		</g>
		<g>
			<rect x="843" y="11.8" fill="#59B8B3" width="169.2" height="169.2"/>
			<text transform="matrix(1 0 0 1 880.4461 167.6522)" fill="#FFFFFF" font-family="'Gotham-Bold'" font-size="18">Foodcritic</text>
			<g>
				<path fill="#FFFFFF" d="M919.5,53.1c-8.2,1.4-15.7,2.7-21.6,8.2c-2.3,2.1-4.4,4.6-6.5,6.9c-1,1.1-2.8,1.3-3.8,0.3
					c-0.3-0.3-0.4-1.2-0.1-1.6c0.6-0.9,1.4-1.7,2.3-2.4c1.8-1.2,3.6-2.4,5.5-3.4c1.2-0.6,1.2-1.2,0.7-2.2c-2.3-4.4-4.5-8.7-6.7-13.1
					c-0.8-1.7-1.6-3.3-2.5-5c-0.5-0.9-0.4-1.6,0.2-2.4c2.5-3.7,6.1-5.9,10.1-7.5c4.4-1.9,9-3.1,13.9-2.3c0.4,0.1,0.8,0.1,1.2,0.2
					c2.3,0.3,3.4,1.6,3.8,4c1.1,6,2.6,12,3.9,18c0.2,1,0.6,1.3,1.7,1.1c2.4-0.4,4.8-0.6,7.2-0.7c1.1-0.1,2.4,0,3,1.2
					c0.3,0.7-1.1,2.7-2.3,3.1c-0.4,0.2-1,0-1.5-0.2C924.9,54.7,921.9,53.8,919.5,53.1z M912.5,47.7c-0.2,0-0.5,0-0.8,0.1
					c-4.5,0.8-8.8,2.4-12.7,4.7c-2.3,1.4-2.3,1.5-1,3.8c0.1,0.1,0.1,0.3,0.2,0.4c0.4,0.8,1,0.9,1.7,0.5c4.4-2.4,9.1-4.3,14-5.3
					c0.4-0.1,0.9-0.4,1-0.7C915.3,50.3,913.7,47.8,912.5,47.7z"/>
				<path fill="#FFFFFF" d="M965.9,60.8h-57.8c-0.9,0-1.6,0.7-1.6,1.6v76.8c0,0.9,0.7,1.6,1.6,1.6h57.8c0.9,0,1.6-0.7,1.6-1.6V62.4
					C967.5,61.5,966.8,60.8,965.9,60.8z M958.5,85.9c0,0.9-0.7,1.6-1.6,1.6H921c-0.9,0-1.6-0.7-1.6-1.6c0-0.9,0.7-1.6,1.6-1.6h35.9
					C957.8,84.3,958.5,85,958.5,85.9z M921,97.6h23.3c0.9,0,1.6,0.7,1.6,1.6c0,0.9-0.7,1.6-1.6,1.6H921c-0.9,0-1.6-0.7-1.6-1.6
					C919.3,98.3,920.1,97.6,921,97.6z M919.3,92.5c0-0.9,0.7-1.6,1.6-1.6h23.3c0.9,0,1.6,0.7,1.6,1.6c0,0.9-0.7,1.6-1.6,1.6H921
					C920.1,94.1,919.3,93.4,919.3,92.5z M921,104.6h35.9c0.9,0,1.6,0.7,1.6,1.6c0,0.9-0.7,1.6-1.6,1.6H921c-0.9,0-1.6-0.7-1.6-1.6
					C919.3,105.3,920.1,104.6,921,104.6z M919.3,78.9c0-0.9,0.7-1.6,1.6-1.6h29c0.9,0,1.6,0.7,1.6,1.6c0,0.9-0.7,1.6-1.6,1.6h-29
					C920.1,80.5,919.3,79.8,919.3,78.9z M944.4,70.2h8.1c0.9,0,1.6,0.7,1.6,1.6c0,0.9-0.7,1.6-1.6,1.6h-8.1c-0.9,0-1.6-0.7-1.6-1.6
					C942.7,70.9,943.5,70.2,944.4,70.2z M930.4,70.2h8.1c0.9,0,1.6,0.7,1.6,1.6c0,0.9-0.7,1.6-1.6,1.6h-8.1c-0.9,0-1.6-0.7-1.6-1.6
					C928.8,70.9,929.5,70.2,930.4,70.2z M916.5,70.2h8.1c0.9,0,1.6,0.7,1.6,1.6c0,0.9-0.7,1.6-1.6,1.6h-8.1c-0.9,0-1.6-0.7-1.6-1.6
					C914.8,70.9,915.6,70.2,916.5,70.2z M924.5,114.8h-8.1c-0.9,0-1.6-0.7-1.6-1.6c0-0.9,0.7-1.6,1.6-1.6h8.1c0.9,0,1.6,0.7,1.6,1.6
					C926.2,114.1,925.5,114.8,924.5,114.8z M960.3,138.4C960.3,138.4,960.3,138.4,960.3,138.4L960.3,138.4c0,0.5-0.4,0.9-0.9,0.9
					c0,0-0.1,0-0.1,0H946c-0.1,0-0.3,0-0.4-0.1l0,0l-3.6-3.6c-0.1-0.1-0.1-0.2-0.1-0.3v-10.4c0-0.5,0.4-0.9,0.9-0.9h5v-5.5h0
					c0-1.2,1-2.1,2.1-2.1c0.8,0,1.5,0.4,1.8,1.1h0l3.6,6.3c0.1,0.1,0.1,0.1,0.2,0.2h3.7c0,0,0,0,0,0c0.5,0,0.9,0.4,0.9,0.9V138.4z
					 M964.9,137.8H963v0c-0.5,0-0.9-0.4-0.9-0.8h0v-10.1h0c0-0.5,0.4-0.9,0.9-0.9v0h1.8c0,0,0,0,0.1,0c0.5,0,0.9,0.4,0.9,0.9v9.9
					c0,0,0,0.1,0,0.1C965.8,137.3,965.4,137.8,964.9,137.8z"/>
			</g>
		</g>
	</g>
	<g>
		<rect x="1011.8" y="181.1" fill="#D1D3D4" width="188.9" height="70.2"/>
		<rect x="1022.3" y="181" fill="#77CCC9" width="168.8" height="70.5"/>
	</g>
</g>
</svg>
