<?xml version="1.0" encoding="utf-8"?>
<!-- Generator: Adobe Illustrator 18.1.1, SVG Export Plug-In . SVG Version: 6.00 Build 0)  -->
<svg version="1.1" id="Layer_1" xmlns="http://www.w3.org/2000/svg" xmlns:xlink="http://www.w3.org/1999/xlink" x="0px" y="0px"
	 viewBox="0 0 1798.2 858.2" enable-background="new 0 0 1798.2 858.2" xml:space="preserve">
<rect x="239" y="241" fill="#F08921" width="189.2" height="190.2"/>
<g>
	<rect x="10.6" y="252.4" fill="#5872AD" width="169.2" height="169.2"/>
	<g>
		<path fill="#FFFFFF" d="M146.3,321.6l-45.8-45.8c-2.6-2.6-6.9-2.6-9.6,0l-9.5,9.5l12.1,12.1c2.8-0.9,6-0.3,8.3,1.9
			c2.2,2.2,2.9,5.5,1.9,8.3l11.6,11.6c2.8-1,6.1-0.3,8.3,1.9c3.1,3.1,3.1,8.2,0,11.4c-3.1,3.1-8.2,3.1-11.4,0
			c-2.4-2.4-2.9-5.8-1.7-8.7l-10.8-10.8v28.5c0.8,0.4,1.5,0.9,2.1,1.5c3.1,3.1,3.1,8.2,0,11.4c-3.1,3.1-8.2,3.1-11.4,0
			c-3.1-3.1-3.1-8.2,0-11.4c0.8-0.8,1.7-1.4,2.6-1.8v-28.8c-1-0.4-1.9-1-2.6-1.8c-2.4-2.4-2.9-5.9-1.7-8.8L76.8,290l-31.4,31.4
			c-2.6,2.6-2.6,6.9,0,9.6l45.8,45.8c2.6,2.6,6.9,2.6,9.6,0l45.6-45.6C148.9,328.5,148.9,324.2,146.3,321.6z"/>
	</g>
	<g>
		<path fill="#FFFFFF" d="M51.4,403.6L51.4,403.6c0-2.8,2.1-5.1,5.1-5.1c1.8,0,3,0.6,3.9,1.6l-1.7,1.8c-0.6-0.6-1.2-1.1-2.2-1.1
			c-1.4,0-2.3,1.2-2.3,2.6v0c0,1.5,1,2.7,2.4,2.7c0.9,0,1.5-0.4,2.2-1l1.6,1.6c-0.9,1-2,1.8-3.9,1.8
			C53.5,408.5,51.4,406.3,51.4,403.6z"/>
		<path fill="#FFFFFF" d="M62.1,395.2h2.7v4.9c0.6-0.8,1.4-1.5,2.8-1.5c2.1,0,3.3,1.4,3.3,3.6v6.2h-2.7v-5.4c0-1.3-0.6-2-1.7-2
			c-1,0-1.7,0.7-1.7,2v5.4h-2.7V395.2z"/>
		<path fill="#FFFFFF" d="M72.9,403.6L72.9,403.6c0-2.8,2-5.1,4.8-5.1c3.2,0,4.7,2.5,4.7,5.2c0,0.2,0,0.5,0,0.7h-6.7
			c0.3,1.2,1.1,1.9,2.4,1.9c0.9,0,1.6-0.3,2.3-1l1.6,1.4c-0.9,1.1-2.2,1.8-3.9,1.8C75,408.5,72.9,406.5,72.9,403.6z M79.7,402.7
			c-0.2-1.2-0.9-2.1-2-2.1c-1.1,0-1.9,0.8-2.1,2.1H79.7z"/>
		<path fill="#FFFFFF" d="M84.8,401h-1.1v-2.3h1.1v-0.6c0-1.1,0.3-1.8,0.8-2.3c0.5-0.5,1.2-0.8,2.2-0.8c0.9,0,1.4,0.1,1.9,0.3v2.3
			c-0.4-0.1-0.8-0.2-1.2-0.2c-0.6,0-1,0.3-1,1v0.4h2.2v2.2h-2.2v7.3h-2.7V401z"/>
		<path fill="#FFFFFF" d="M90.9,401.4h5.5v2.6h-5.5V401.4z"/>
		<path fill="#FFFFFF" d="M98.6,398.7h2.7v1.9c0.6-1.3,1.5-2.2,3.1-2.1v2.9h-0.1c-1.8,0-2.9,1.1-2.9,3.4v3.6h-2.7V398.7z"/>
		<path fill="#FFFFFF" d="M105.4,403.6L105.4,403.6c0-2.8,2-5.1,4.8-5.1c3.2,0,4.7,2.5,4.7,5.2c0,0.2,0,0.5,0,0.7h-6.7
			c0.3,1.2,1.1,1.9,2.4,1.9c0.9,0,1.6-0.3,2.3-1l1.6,1.4c-0.9,1.1-2.2,1.8-3.9,1.8C107.5,408.5,105.4,406.5,105.4,403.6z
			 M112.2,402.7c-0.2-1.2-0.9-2.1-2-2.1c-1.1,0-1.9,0.8-2.1,2.1H112.2z"/>
		<path fill="#FFFFFF" d="M116.9,398.7h2.7v1.4c0.7-0.9,1.6-1.6,3-1.6c2.3,0,4.4,1.8,4.4,5v0c0,3.2-2.1,5-4.4,5
			c-1.5,0-2.4-0.7-3-1.4v4.1h-2.7V398.7z M124.3,403.5L124.3,403.5c0-1.6-1.1-2.7-2.4-2.7c-1.3,0-2.3,1.1-2.3,2.7v0
			c0,1.6,1.1,2.7,2.3,2.7C123.2,406.2,124.3,405.1,124.3,403.5z"/>
		<path fill="#FFFFFF" d="M128.6,403.6L128.6,403.6c0-2.8,2.2-5.1,5.2-5.1c3,0,5.2,2.2,5.2,5v0c0,2.8-2.2,5-5.2,5
			C130.8,408.5,128.6,406.3,128.6,403.6z M136.3,403.6L136.3,403.6c0-1.5-1-2.7-2.5-2.7c-1.6,0-2.5,1.2-2.5,2.6v0
			c0,1.4,1,2.7,2.5,2.7C135.4,406.2,136.3,405,136.3,403.6z"/>
	</g>
</g>
<g>
	<g>
		<rect x="10.6" y="252.8" fill="#7F888D" width="169.2" height="169.2"/>
		<g>
			<path fill="#FFFFFF" d="M51.4,403.9L51.4,403.9c0-2.8,2.1-5.1,5.1-5.1c1.8,0,3,0.6,3.9,1.6l-1.7,1.8c-0.6-0.6-1.2-1.1-2.2-1.1
				c-1.4,0-2.3,1.2-2.3,2.6v0c0,1.5,1,2.7,2.4,2.7c0.9,0,1.5-0.4,2.2-1l1.6,1.6c-0.9,1-2,1.8-3.9,1.8
				C53.5,408.9,51.4,406.6,51.4,403.9z"/>
			<path fill="#FFFFFF" d="M62.1,395.5h2.7v4.9c0.6-0.8,1.4-1.5,2.8-1.5c2.1,0,3.3,1.4,3.3,3.6v6.2h-2.7v-5.4c0-1.3-0.6-2-1.7-2
				c-1,0-1.7,0.7-1.7,2v5.4h-2.7V395.5z"/>
			<path fill="#FFFFFF" d="M72.9,403.9L72.9,403.9c0-2.8,2-5.1,4.8-5.1c3.2,0,4.7,2.5,4.7,5.2c0,0.2,0,0.5,0,0.7h-6.7
				c0.3,1.2,1.1,1.9,2.4,1.9c0.9,0,1.6-0.3,2.3-1l1.6,1.4c-0.9,1.1-2.2,1.8-3.9,1.8C75,408.9,72.9,406.8,72.9,403.9z M79.7,403.1
				c-0.2-1.2-0.9-2.1-2-2.1c-1.1,0-1.9,0.8-2.1,2.1H79.7z"/>
			<path fill="#FFFFFF" d="M84.8,401.3h-1.1v-2.3h1.1v-0.6c0-1.1,0.3-1.8,0.8-2.3c0.5-0.5,1.2-0.8,2.2-0.8c0.9,0,1.4,0.1,1.9,0.3
				v2.3c-0.4-0.1-0.8-0.2-1.2-0.2c-0.6,0-1,0.3-1,1v0.4h2.2v2.2h-2.2v7.3h-2.7V401.3z"/>
			<path fill="#FFFFFF" d="M90.9,401.8h5.5v2.6h-5.5V401.8z"/>
			<path fill="#FFFFFF" d="M98.6,399h2.7v1.9c0.6-1.3,1.5-2.2,3.1-2.1v2.9h-0.1c-1.8,0-2.9,1.1-2.9,3.4v3.6h-2.7V399z"/>
			<path fill="#FFFFFF" d="M105.4,403.9L105.4,403.9c0-2.8,2-5.1,4.8-5.1c3.2,0,4.7,2.5,4.7,5.2c0,0.2,0,0.5,0,0.7h-6.7
				c0.3,1.2,1.1,1.9,2.4,1.9c0.9,0,1.6-0.3,2.3-1l1.6,1.4c-0.9,1.1-2.2,1.8-3.9,1.8C107.5,408.9,105.4,406.8,105.4,403.9z
				 M112.2,403.1c-0.2-1.2-0.9-2.1-2-2.1c-1.1,0-1.9,0.8-2.1,2.1H112.2z"/>
			<path fill="#FFFFFF" d="M116.9,399h2.7v1.4c0.7-0.9,1.6-1.6,3-1.6c2.3,0,4.4,1.8,4.4,5v0c0,3.2-2.1,5-4.4,5c-1.5,0-2.4-0.7-3-1.4
				v4.1h-2.7V399z M124.3,403.9L124.3,403.9c0-1.6-1.1-2.7-2.4-2.7c-1.3,0-2.3,1.1-2.3,2.7v0c0,1.6,1.1,2.7,2.3,2.7
				C123.2,406.5,124.3,405.5,124.3,403.9z"/>
			<path fill="#FFFFFF" d="M128.6,403.9L128.6,403.9c0-2.8,2.2-5.1,5.2-5.1c3,0,5.2,2.2,5.2,5v0c0,2.8-2.2,5-5.2,5
				C130.8,408.9,128.6,406.7,128.6,403.9z M136.3,403.9L136.3,403.9c0-1.5-1-2.7-2.5-2.7c-1.6,0-2.5,1.2-2.5,2.6v0
				c0,1.4,1,2.7,2.5,2.7C135.4,406.5,136.3,405.3,136.3,403.9z"/>
		</g>
	</g>
	<g>
		<path fill="#FFFFFF" d="M94.8,354c11.6,0,21.5-3.1,24.9-7.4v-6.8c-0.1-0.2-0.3-0.3-0.4-0.5c-3.4,4.4-13.3,7.5-25,7.5
			c-11.2,0-20.7-2.9-24.5-6.9c0,0-0.1,0.1-0.1,0.1v6.5C73,350.8,83,354,94.8,354z"/>
		<path fill="#FFFFFF" d="M75.7,335.8c4.8,2.1,11.6,3.4,19.1,3.4s14.3-1.3,19.1-3.4c2.2-1,4-2.1,5.2-3.3c0.2-0.2,0.4-0.5,0.6-0.7
			V325c-0.1-0.2-0.3-0.3-0.4-0.5c-1.2,1.5-3.2,2.9-5.9,4.1c-4.8,2.1-11.6,3.4-19.1,3.4c-7.5,0-14.3-1.3-19.1-3.4
			c-2.3-1-4.2-2.2-5.4-3.5c0,0-0.1,0.1-0.1,0.1v6.5c0.1,0.1,0.2,0.2,0.3,0.3C71.2,333.4,73.1,334.7,75.7,335.8z"/>
		<path fill="#FFFFFF" d="M75.9,320.8c4.5,2.2,11.3,3.5,18.8,3.5c7.6,0,14.3-1.4,18.9-3.6c2.3-1.1,4-2.4,5-3.9
			c0.6-0.9,0.9-1.8,0.9-2.8c0-5.6-11.1-10.2-24.8-10.2c-13.7,0-24.8,4.6-24.8,10.2c0,0.8,0.2,1.6,0.6,2.3
			C71.4,318.1,73.3,319.6,75.9,320.8z"/>
		<path fill="#FFFFFF" d="M137.6,283H52.3c-2.2,0-3.9,1.7-3.9,3.9v85.3c0,2.2,1.8,3.9,3.9,3.9h85.3c2.2,0,3.9-1.8,3.9-3.9v-85.3
			C141.6,284.8,139.8,283,137.6,283z M133.7,368.3H56.2v-77.5h77.5V368.3z"/>
	</g>
</g>
<rect x="190.1" y="252.4" fill="#D1D3D4" width="48.7" height="168.1"/>
<g>
	<g>
		<rect x="248.7" y="251.8" fill="#7F888D" width="169.2" height="169.2"/>
		<g>
			<path fill="#FFFFFF" d="M279.7,398h2.8l1.5,5.9l1.8-5.9h2.4l1.8,5.9l1.6-5.9h2.7l-3,9.7h-2.5l-1.9-5.9l-1.9,5.9h-2.4L279.7,398z"
				/>
			<path fill="#FFFFFF" d="M295,402.9L295,402.9c0-2.8,2.2-5.1,5.2-5.1c3,0,5.2,2.2,5.2,5v0c0,2.8-2.2,5-5.2,5
				C297.2,407.9,295,405.7,295,402.9z M302.8,402.9L302.8,402.9c0-1.5-1-2.7-2.5-2.7c-1.6,0-2.5,1.2-2.5,2.6v0c0,1.4,1,2.7,2.5,2.7
				C301.8,405.5,302.8,404.3,302.8,402.9z"/>
			<path fill="#FFFFFF" d="M307.4,398h2.7v1.9c0.6-1.3,1.5-2.2,3.1-2.1v2.9h-0.1c-1.8,0-2.9,1.1-2.9,3.4v3.6h-2.7V398z"/>
			<path fill="#FFFFFF" d="M315,394.5h2.7v7l3.2-3.5h3.3l-3.7,3.8l3.8,5.9h-3.1l-2.5-3.9l-1,1v2.9H315V394.5z"/>
			<path fill="#FFFFFF" d="M324.9,406.4l1.2-1.8c1,0.8,2.1,1.2,3,1.2c0.8,0,1.2-0.3,1.2-0.7v0c0-0.6-0.9-0.8-2-1.1
				c-1.4-0.4-2.9-1-2.9-2.9v0c0-2,1.6-3.1,3.5-3.1c1.2,0,2.6,0.4,3.6,1.1l-1,1.9c-1-0.6-1.9-0.9-2.6-0.9c-0.7,0-1,0.3-1,0.7v0
				c0,0.5,0.9,0.8,2,1.2c1.4,0.5,2.9,1.1,2.9,2.9v0c0,2.1-1.6,3.1-3.7,3.1C327.7,407.8,326.1,407.4,324.9,406.4z"/>
			<path fill="#FFFFFF" d="M334.9,404.9v-4.6h-1.2V398h1.2v-2.5h2.7v2.5h2.3v2.3h-2.3v4.1c0,0.6,0.3,0.9,0.9,0.9
				c0.5,0,1-0.1,1.4-0.3v2.2c-0.6,0.3-1.2,0.6-2.2,0.6C336.1,407.8,334.9,407.1,334.9,404.9z"/>
			<path fill="#FFFFFF" d="M341.4,404.9L341.4,404.9c0-2.1,1.6-3.1,3.9-3.1c1,0,1.7,0.2,2.4,0.4V402c0-1.1-0.7-1.8-2.1-1.8
				c-1,0-1.8,0.2-2.7,0.5l-0.7-2.1c1.1-0.5,2.1-0.8,3.7-0.8c1.5,0,2.6,0.4,3.3,1.1c0.7,0.7,1,1.8,1,3.1v5.6h-2.6v-1
				c-0.7,0.7-1.6,1.2-2.9,1.2C342.9,407.8,341.4,406.8,341.4,404.9z M347.7,404.2v-0.5c-0.5-0.2-1.1-0.4-1.7-0.4
				c-1.2,0-1.9,0.5-1.9,1.3v0c0,0.7,0.6,1.2,1.5,1.2C346.8,405.9,347.7,405.2,347.7,404.2z"/>
			<path fill="#FFFFFF" d="M353,404.9v-4.6h-1.2V398h1.2v-2.5h2.7v2.5h2.3v2.3h-2.3v4.1c0,0.6,0.3,0.9,0.9,0.9c0.5,0,1-0.1,1.4-0.3
				v2.2c-0.6,0.3-1.2,0.6-2.2,0.6C354.1,407.8,353,407.1,353,404.9z"/>
			<path fill="#FFFFFF" d="M360,394.5h2.9v2.4H360V394.5z M360.1,398h2.7v9.7h-2.7V398z"/>
			<path fill="#FFFFFF" d="M365,402.9L365,402.9c0-2.8,2.2-5.1,5.2-5.1c3,0,5.2,2.2,5.2,5v0c0,2.8-2.2,5-5.2,5
				C367.2,407.9,365,405.7,365,402.9z M372.7,402.9L372.7,402.9c0-1.5-1-2.7-2.5-2.7c-1.6,0-2.5,1.2-2.5,2.6v0c0,1.4,1,2.7,2.5,2.7
				C371.8,405.5,372.7,404.3,372.7,402.9z"/>
			<path fill="#FFFFFF" d="M377.4,398h2.7v1.4c0.6-0.8,1.4-1.5,2.8-1.5c2.1,0,3.3,1.4,3.3,3.6v6.2h-2.7v-5.4c0-1.3-0.6-2-1.7-2
				c-1,0-1.7,0.7-1.7,2v5.4h-2.7V398z"/>
		</g>
	</g>
	<g>
		<g>
			<path fill="#FFFFFF" d="M380.1,355.8h-94.4c-2.4,0-4.3-1.9-4.3-4.3v-60.1c0-2.4,1.9-4.3,4.3-4.3h94.4c2.4,0,4.3,1.9,4.3,4.3v60.1
				C384.4,353.9,382.5,355.8,380.1,355.8L380.1,355.8z M290,347.2h85.8v-51.5H290V347.2L290,347.2z"/>
		</g>
		<g>
			<path fill="#FFFFFF" d="M371.5,345.1h-77.2c-1.2,0-2.1-1-2.1-2.1V300c0-1.2,1-2.1,2.1-2.1h77.2c1.2,0,2.1,1,2.1,2.1v42.9
				C373.6,344.1,372.7,345.1,371.5,345.1L371.5,345.1z M296.4,340.8h72.9v-38.6h-72.9V340.8L296.4,340.8z"/>
		</g>
		<g>
			<path fill="#FFFFFF" d="M393.3,368.3H273.9c-2.4,0-4.3-1.9-4.3-4.3c0-2.4,1.9-4.3,4.3-4.3h119.4c2.4,0,4.3,1.9,4.3,4.3
				C397.6,366.4,395.7,368.3,393.3,368.3L393.3,368.3z"/>
		</g>
	</g>
</g>
<rect x="0" y="243" fill="#D1D3D4" width="190.3" height="190.1"/>
<g>
	<g>
		<rect x="10.6" y="252.8" fill="#5872AD" width="169.2" height="169.2"/>
		<g>
			<path fill="#FFFFFF" d="M51.4,403.9L51.4,403.9c0-2.8,2.1-5.1,5.1-5.1c1.8,0,3,0.6,3.9,1.6l-1.7,1.8c-0.6-0.6-1.2-1.1-2.2-1.1
				c-1.4,0-2.3,1.2-2.3,2.6v0c0,1.5,1,2.7,2.4,2.7c0.9,0,1.5-0.4,2.2-1l1.6,1.6c-0.9,1-2,1.8-3.9,1.8
				C53.5,408.9,51.4,406.6,51.4,403.9z"/>
			<path fill="#FFFFFF" d="M62.1,395.5h2.7v4.9c0.6-0.8,1.4-1.5,2.8-1.5c2.1,0,3.3,1.4,3.3,3.6v6.2h-2.7v-5.4c0-1.3-0.6-2-1.7-2
				c-1,0-1.7,0.7-1.7,2v5.4h-2.7V395.5z"/>
			<path fill="#FFFFFF" d="M72.9,403.9L72.9,403.9c0-2.8,2-5.1,4.8-5.1c3.2,0,4.7,2.5,4.7,5.2c0,0.2,0,0.5,0,0.7h-6.7
				c0.3,1.2,1.1,1.9,2.4,1.9c0.9,0,1.6-0.3,2.3-1l1.6,1.4c-0.9,1.1-2.2,1.8-3.9,1.8C75,408.9,72.9,406.8,72.9,403.9z M79.7,403.1
				c-0.2-1.2-0.9-2.1-2-2.1c-1.1,0-1.9,0.8-2.1,2.1H79.7z"/>
			<path fill="#FFFFFF" d="M84.8,401.3h-1.1v-2.3h1.1v-0.6c0-1.1,0.3-1.8,0.8-2.3c0.5-0.5,1.2-0.8,2.2-0.8c0.9,0,1.4,0.1,1.9,0.3
				v2.3c-0.4-0.1-0.8-0.2-1.2-0.2c-0.6,0-1,0.3-1,1v0.4h2.2v2.2h-2.2v7.3h-2.7V401.3z"/>
			<path fill="#FFFFFF" d="M90.9,401.8h5.5v2.6h-5.5V401.8z"/>
			<path fill="#FFFFFF" d="M98.6,399h2.7v1.9c0.6-1.3,1.5-2.2,3.1-2.1v2.9h-0.1c-1.8,0-2.9,1.1-2.9,3.4v3.6h-2.7V399z"/>
			<path fill="#FFFFFF" d="M105.4,403.9L105.4,403.9c0-2.8,2-5.1,4.8-5.1c3.2,0,4.7,2.5,4.7,5.2c0,0.2,0,0.5,0,0.7h-6.7
				c0.3,1.2,1.1,1.9,2.4,1.9c0.9,0,1.6-0.3,2.3-1l1.6,1.4c-0.9,1.1-2.2,1.8-3.9,1.8C107.5,408.9,105.4,406.8,105.4,403.9z
				 M112.2,403.1c-0.2-1.2-0.9-2.1-2-2.1c-1.1,0-1.9,0.8-2.1,2.1H112.2z"/>
			<path fill="#FFFFFF" d="M116.9,399h2.7v1.4c0.7-0.9,1.6-1.6,3-1.6c2.3,0,4.4,1.8,4.4,5v0c0,3.2-2.1,5-4.4,5c-1.5,0-2.4-0.7-3-1.4
				v4.1h-2.7V399z M124.3,403.9L124.3,403.9c0-1.6-1.1-2.7-2.4-2.7c-1.3,0-2.3,1.1-2.3,2.7v0c0,1.6,1.1,2.7,2.3,2.7
				C123.2,406.5,124.3,405.5,124.3,403.9z"/>
			<path fill="#FFFFFF" d="M128.6,403.9L128.6,403.9c0-2.8,2.2-5.1,5.2-5.1c3,0,5.2,2.2,5.2,5v0c0,2.8-2.2,5-5.2,5
				C130.8,408.9,128.6,406.7,128.6,403.9z M136.3,403.9L136.3,403.9c0-1.5-1-2.7-2.5-2.7c-1.6,0-2.5,1.2-2.5,2.6v0
				c0,1.4,1,2.7,2.5,2.7C135.4,406.5,136.3,405.3,136.3,403.9z"/>
		</g>
	</g>
	<g>
		<path fill="#FFFFFF" d="M94.8,354c11.6,0,21.5-3.1,24.9-7.4v-6.8c-0.1-0.2-0.3-0.3-0.4-0.5c-3.4,4.4-13.3,7.5-25,7.5
			c-11.2,0-20.7-2.9-24.5-6.9c0,0-0.1,0.1-0.1,0.1v6.5C73,350.8,83,354,94.8,354z"/>
		<path fill="#FFFFFF" d="M75.7,335.8c4.8,2.1,11.6,3.4,19.1,3.4s14.3-1.3,19.1-3.4c2.2-1,4-2.1,5.2-3.3c0.2-0.2,0.4-0.5,0.6-0.7
			V325c-0.1-0.2-0.3-0.3-0.4-0.5c-1.2,1.5-3.2,2.9-5.9,4.1c-4.8,2.1-11.6,3.4-19.1,3.4c-7.5,0-14.3-1.3-19.1-3.4
			c-2.3-1-4.2-2.2-5.4-3.5c0,0-0.1,0.1-0.1,0.1v6.5c0.1,0.1,0.2,0.2,0.3,0.3C71.2,333.4,73.1,334.7,75.7,335.8z"/>
		<path fill="#FFFFFF" d="M75.9,320.8c4.5,2.2,11.3,3.5,18.8,3.5c7.6,0,14.3-1.4,18.9-3.6c2.3-1.1,4-2.4,5-3.9
			c0.6-0.9,0.9-1.8,0.9-2.8c0-5.6-11.1-10.2-24.8-10.2c-13.7,0-24.8,4.6-24.8,10.2c0,0.8,0.2,1.6,0.6,2.3
			C71.4,318.1,73.3,319.6,75.9,320.8z"/>
		<path fill="#FFFFFF" d="M137.6,283H52.3c-2.2,0-3.9,1.7-3.9,3.9v85.3c0,2.2,1.8,3.9,3.9,3.9h85.3c2.2,0,3.9-1.8,3.9-3.9v-85.3
			C141.6,284.8,139.8,283,137.6,283z M133.7,368.3H56.2v-77.5h77.5V368.3z"/>
	</g>
</g>
<g>
	<g>
		<g>
			<path fill="#FFFFFF" d="M213.1,276.1c0.5,0,1,0.2,1.5,0.5c1.1,0.8,1.4,2.4,0.6,3.5l-11.7,16.1l11.7,16.1c0.8,1.1,0.6,2.7-0.6,3.5
				c-1.1,0.8-2.7,0.6-3.5-0.6l-12.8-17.5c-0.6-0.9-0.6-2.1,0-2.9l12.8-17.5C211.5,276.5,212.3,276.1,213.1,276.1L213.1,276.1z"/>
		</g>
	</g>
	<g>
		<g>
			<path fill="#FFFFFF" d="M229.7,276.1c0.5,0,1,0.2,1.5,0.5c1.1,0.8,1.4,2.4,0.6,3.5L220,296.1l11.7,16.1c0.8,1.1,0.6,2.7-0.6,3.5
				c-1.1,0.8-2.7,0.6-3.5-0.6l-12.8-17.5c-0.6-0.9-0.6-2.1,0-2.9l12.8-17.5C228.2,276.5,228.9,276.1,229.7,276.1L229.7,276.1z"/>
		</g>
	</g>
</g>
<g>
	<g>
		<g>
			<path fill="#FFFFFF" d="M206.9,396.5c-0.5,0-1-0.2-1.5-0.5c-1.1-0.8-1.4-2.4-0.6-3.5l11.7-16.1l-11.7-16.1
				c-0.8-1.1-0.6-2.7,0.6-3.5c1.1-0.8,2.7-0.6,3.5,0.6l12.8,17.5c0.6,0.9,0.6,2.1,0,2.9L209,395.5
				C208.5,396.1,207.7,396.5,206.9,396.5L206.9,396.5z"/>
		</g>
	</g>
	<g>
		<g>
			<path fill="#FFFFFF" d="M190.3,396.5c-0.5,0-1-0.2-1.5-0.5c-1.1-0.8-1.4-2.4-0.6-3.5l11.7-16.1l-11.7-16.1
				c-0.8-1.1-0.6-2.7,0.6-3.5c1.1-0.8,2.7-0.6,3.5,0.6l12.8,17.5c0.6,0.9,0.6,2.1,0,2.9l-12.8,17.5
				C191.8,396.1,191.1,396.5,190.3,396.5L190.3,396.5z"/>
		</g>
	</g>
</g>
<g>
	<g>
		<g>
			<path fill="#FFFFFF" d="M436.1,364.9c0-0.7,0.6-1.3,1.3-1.3h32.1c0.7,0,1.3,0.6,1.3,1.3c0,0.7-0.6,1.3-1.3,1.3h-32.1
				C436.6,366.2,436.1,365.6,436.1,364.9L436.1,364.9z"/>
		</g>
		<g>
			<path fill="#FFFFFF" d="M436.1,378.8c0-0.7,0.6-1.3,1.3-1.3h32.1c0.7,0,1.3,0.6,1.3,1.3c0,0.7-0.6,1.3-1.3,1.3h-32.1
				C436.6,380.1,436.1,379.5,436.1,378.8L436.1,378.8z"/>
		</g>
		<g>
			<path fill="#FFFFFF" d="M436.1,392.7c0-0.7,0.6-1.3,1.3-1.3h32.1c0.7,0,1.3,0.6,1.3,1.3c0,0.7-0.6,1.3-1.3,1.3h-32.1
				C436.6,394,436.1,393.4,436.1,392.7L436.1,392.7z"/>
		</g>
		<g>
			<polygon fill="#FFFFFF" points="451.9,368.7 451.9,361.1 471,361.1 471,368.7 451.9,368.7 			"/>
		</g>
		<g>
			<polygon fill="#FFFFFF" points="451.9,382.6 451.9,375 471,375 471,382.6 451.9,382.6 			"/>
		</g>
		<g>
			<polygon fill="#FFFFFF" points="451.9,396.5 451.9,388.9 471,388.9 471,396.5 451.9,396.5 			"/>
		</g>
	</g>
	<g>
		<g>
			<path fill="#FFFFFF" d="M436.1,323.1c0-0.7,0.6-1.3,1.3-1.3h32.1c0.7,0,1.3,0.6,1.3,1.3c0,0.7-0.6,1.3-1.3,1.3h-32.1
				C436.6,324.3,436.1,323.8,436.1,323.1L436.1,323.1z"/>
		</g>
		<g>
			<path fill="#FFFFFF" d="M436.1,337c0-0.7,0.6-1.3,1.3-1.3h32.1c0.7,0,1.3,0.6,1.3,1.3c0,0.7-0.6,1.3-1.3,1.3h-32.1
				C436.6,338.2,436.1,337.7,436.1,337L436.1,337z"/>
		</g>
		<g>
			<path fill="#FFFFFF" d="M436.1,350.9c0-0.7,0.6-1.3,1.3-1.3h32.1c0.7,0,1.3,0.6,1.3,1.3c0,0.7-0.6,1.3-1.3,1.3h-32.1
				C436.6,352.1,436.1,351.6,436.1,350.9L436.1,350.9z"/>
		</g>
		<g>
			<polygon fill="#FFFFFF" points="451.9,326.9 451.9,319.3 471,319.3 471,326.9 451.9,326.9 			"/>
		</g>
		<g>
			<polygon fill="#FFFFFF" points="451.9,340.8 451.9,333.2 471,333.2 471,340.8 451.9,340.8 			"/>
		</g>
		<g>
			<polygon fill="#FFFFFF" points="451.9,354.7 451.9,347.1 471,347.1 471,354.7 451.9,354.7 			"/>
		</g>
	</g>
	<g>
		<g>
			<path fill="#FFFFFF" d="M436.1,281.2c0-0.7,0.6-1.3,1.3-1.3h32.1c0.7,0,1.3,0.6,1.3,1.3c0,0.7-0.6,1.3-1.3,1.3h-32.1
				C436.6,282.5,436.1,281.9,436.1,281.2L436.1,281.2z"/>
		</g>
		<g>
			<path fill="#FFFFFF" d="M436.1,295.1c0-0.7,0.6-1.3,1.3-1.3h32.1c0.7,0,1.3,0.6,1.3,1.3c0,0.7-0.6,1.3-1.3,1.3h-32.1
				C436.6,296.4,436.1,295.8,436.1,295.1L436.1,295.1z"/>
		</g>
		<g>
			<path fill="#FFFFFF" d="M436.1,309c0-0.7,0.6-1.3,1.3-1.3h32.1c0.7,0,1.3,0.6,1.3,1.3c0,0.7-0.6,1.3-1.3,1.3h-32.1
				C436.6,310.3,436.1,309.7,436.1,309L436.1,309z"/>
		</g>
		<g>
			<polygon fill="#FFFFFF" points="451.9,285 451.9,277.4 471,277.4 471,285 451.9,285 			"/>
		</g>
		<g>
			<polygon fill="#FFFFFF" points="451.9,298.9 451.9,291.3 471,291.3 471,298.9 451.9,298.9 			"/>
		</g>
		<g>
			<polygon fill="#FFFFFF" points="451.9,312.8 451.9,305.2 471,305.2 471,312.8 451.9,312.8 			"/>
		</g>
	</g>
</g>
</svg>
