<?xml version="1.0" encoding="utf-8"?>
<!-- Generator: Adobe Illustrator 18.1.1, SVG Export Plug-In . SVG Version: 6.00 Build 0)  -->
<svg version="1.1" id="Layer_1" xmlns="http://www.w3.org/2000/svg" xmlns:xlink="http://www.w3.org/1999/xlink" x="0px" y="0px"
	 viewBox="0 0 1798.2 858.2" enable-background="new 0 0 1798.2 858.2" xml:space="preserve">
<rect x="239" y="241" fill="#F08921" width="189.2" height="190.2"/>
<rect x="0" y="243" fill="#D1D3D4" width="190.3" height="190.1"/>
<g>
	<rect x="10.6" y="252.4" fill="#5872AD" width="169.2" height="169.2"/>
	<g>
		<path fill="#FFFFFF" d="M146.3,321.6l-45.8-45.8c-2.6-2.6-6.9-2.6-9.6,0l-9.5,9.5l12.1,12.1c2.8-0.9,6-0.3,8.3,1.9
			c2.2,2.2,2.9,5.5,1.9,8.3l11.6,11.6c2.8-1,6.1-0.3,8.3,1.9c3.1,3.1,3.1,8.2,0,11.4c-3.1,3.1-8.2,3.1-11.4,0
			c-2.4-2.4-2.9-5.8-1.7-8.7l-10.8-10.8v28.5c0.8,0.4,1.5,0.9,2.1,1.5c3.1,3.1,3.1,8.2,0,11.4c-3.1,3.1-8.2,3.1-11.4,0
			c-3.1-3.1-3.1-8.2,0-11.4c0.8-0.8,1.7-1.4,2.6-1.8v-28.8c-1-0.4-1.9-1-2.6-1.8c-2.4-2.4-2.9-5.9-1.7-8.8L76.8,290l-31.4,31.4
			c-2.6,2.6-2.6,6.9,0,9.6l45.8,45.8c2.6,2.6,6.9,2.6,9.6,0l45.6-45.6C148.9,328.5,148.9,324.2,146.3,321.6z"/>
	</g>
	<g>
		<path fill="#FFFFFF" d="M51.4,403.6L51.4,403.6c0-2.8,2.1-5.1,5.1-5.1c1.8,0,3,0.6,3.9,1.6l-1.7,1.8c-0.6-0.6-1.2-1.1-2.2-1.1
			c-1.4,0-2.3,1.2-2.3,2.6v0c0,1.5,1,2.7,2.4,2.7c0.9,0,1.5-0.4,2.2-1l1.6,1.6c-0.9,1-2,1.8-3.9,1.8
			C53.5,408.5,51.4,406.3,51.4,403.6z"/>
		<path fill="#FFFFFF" d="M62.1,395.2h2.7v4.9c0.6-0.8,1.4-1.5,2.8-1.5c2.1,0,3.3,1.4,3.3,3.6v6.2h-2.7v-5.4c0-1.3-0.6-2-1.7-2
			c-1,0-1.7,0.7-1.7,2v5.4h-2.7V395.2z"/>
		<path fill="#FFFFFF" d="M72.9,403.6L72.9,403.6c0-2.8,2-5.1,4.8-5.1c3.2,0,4.7,2.5,4.7,5.2c0,0.2,0,0.5,0,0.7h-6.7
			c0.3,1.2,1.1,1.9,2.4,1.9c0.9,0,1.6-0.3,2.3-1l1.6,1.4c-0.9,1.1-2.2,1.8-3.9,1.8C75,408.5,72.9,406.5,72.9,403.6z M79.7,402.7
			c-0.2-1.2-0.9-2.1-2-2.1c-1.1,0-1.9,0.8-2.1,2.1H79.7z"/>
		<path fill="#FFFFFF" d="M84.8,401h-1.1v-2.3h1.1v-0.6c0-1.1,0.3-1.8,0.8-2.3c0.5-0.5,1.2-0.8,2.2-0.8c0.9,0,1.4,0.1,1.9,0.3v2.3
			c-0.4-0.1-0.8-0.2-1.2-0.2c-0.6,0-1,0.3-1,1v0.4h2.2v2.2h-2.2v7.3h-2.7V401z"/>
		<path fill="#FFFFFF" d="M90.9,401.4h5.5v2.6h-5.5V401.4z"/>
		<path fill="#FFFFFF" d="M98.6,398.7h2.7v1.9c0.6-1.3,1.5-2.2,3.1-2.1v2.9h-0.1c-1.8,0-2.9,1.1-2.9,3.4v3.6h-2.7V398.7z"/>
		<path fill="#FFFFFF" d="M105.4,403.6L105.4,403.6c0-2.8,2-5.1,4.8-5.1c3.2,0,4.7,2.5,4.7,5.2c0,0.2,0,0.5,0,0.7h-6.7
			c0.3,1.2,1.1,1.9,2.4,1.9c0.9,0,1.6-0.3,2.3-1l1.6,1.4c-0.9,1.1-2.2,1.8-3.9,1.8C107.5,408.5,105.4,406.5,105.4,403.6z
			 M112.2,402.7c-0.2-1.2-0.9-2.1-2-2.1c-1.1,0-1.9,0.8-2.1,2.1H112.2z"/>
		<path fill="#FFFFFF" d="M116.9,398.7h2.7v1.4c0.7-0.9,1.6-1.6,3-1.6c2.3,0,4.4,1.8,4.4,5v0c0,3.2-2.1,5-4.4,5
			c-1.5,0-2.4-0.7-3-1.4v4.1h-2.7V398.7z M124.3,403.5L124.3,403.5c0-1.6-1.1-2.7-2.4-2.7c-1.3,0-2.3,1.1-2.3,2.7v0
			c0,1.6,1.1,2.7,2.3,2.7C123.2,406.2,124.3,405.1,124.3,403.5z"/>
		<path fill="#FFFFFF" d="M128.6,403.6L128.6,403.6c0-2.8,2.2-5.1,5.2-5.1c3,0,5.2,2.2,5.2,5v0c0,2.8-2.2,5-5.2,5
			C130.8,408.5,128.6,406.3,128.6,403.6z M136.3,403.6L136.3,403.6c0-1.5-1-2.7-2.5-2.7c-1.6,0-2.5,1.2-2.5,2.6v0
			c0,1.4,1,2.7,2.5,2.7C135.4,406.2,136.3,405,136.3,403.6z"/>
	</g>
</g>
<g>
	<g>
		<g>
			<rect x="1022.5" y="252.1" fill="#65BAAF" width="169.2" height="169.2"/>
			<g>
				<path fill="#FFFFFF" d="M1087,405.3v-4.6h-1.2v-2.3h1.2v-2.5h2.7v2.5h2.3v2.3h-2.3v4.1c0,0.6,0.3,0.9,0.9,0.9
					c0.5,0,1-0.1,1.4-0.3v2.2c-0.6,0.3-1.2,0.6-2.2,0.6C1088.1,408.2,1087,407.5,1087,405.3z"/>
				<path fill="#FFFFFF" d="M1093.2,403.2L1093.2,403.2c0-2.8,2-5.1,4.8-5.1c3.2,0,4.7,2.5,4.7,5.2c0,0.2,0,0.5,0,0.7h-6.7
					c0.3,1.2,1.1,1.9,2.4,1.9c0.9,0,1.6-0.3,2.3-1l1.6,1.4c-0.9,1.1-2.2,1.8-3.9,1.8C1095.4,408.2,1093.2,406.2,1093.2,403.2z
					 M1100,402.4c-0.2-1.2-0.9-2.1-2-2.1c-1.1,0-1.9,0.8-2.1,2.1H1100z"/>
				<path fill="#FFFFFF" d="M1104,406.7l1.2-1.8c1,0.8,2.1,1.2,3,1.2c0.8,0,1.2-0.3,1.2-0.7v0c0-0.6-0.9-0.8-2-1.1
					c-1.4-0.4-2.9-1-2.9-2.9v0c0-2,1.6-3.1,3.5-3.1c1.2,0,2.6,0.4,3.6,1.1l-1,1.9c-1-0.6-1.9-0.9-2.6-0.9c-0.7,0-1,0.3-1,0.7v0
					c0,0.5,0.9,0.8,2,1.2c1.3,0.5,2.9,1.1,2.9,2.9v0c0,2.1-1.6,3.1-3.7,3.1C1106.8,408.2,1105.3,407.7,1104,406.7z"/>
				<path fill="#FFFFFF" d="M1114,405.3v-4.6h-1.2v-2.3h1.2v-2.5h2.7v2.5h2.3v2.3h-2.3v4.1c0,0.6,0.3,0.9,0.9,0.9
					c0.5,0,1-0.1,1.4-0.3v2.2c-0.6,0.3-1.2,0.6-2.2,0.6C1115.2,408.2,1114,407.5,1114,405.3z"/>
				<path fill="#FFFFFF" d="M1120.3,406.7l1.2-1.8c1,0.8,2.1,1.2,3,1.2c0.8,0,1.2-0.3,1.2-0.7v0c0-0.6-0.9-0.8-2-1.1
					c-1.3-0.4-2.9-1-2.9-2.9v0c0-2,1.6-3.1,3.5-3.1c1.2,0,2.6,0.4,3.6,1.1l-1,1.9c-1-0.6-1.9-0.9-2.6-0.9c-0.7,0-1,0.3-1,0.7v0
					c0,0.5,0.9,0.8,2,1.2c1.4,0.5,2.9,1.1,2.9,2.9v0c0,2.1-1.6,3.1-3.7,3.1C1123.1,408.2,1121.6,407.7,1120.3,406.7z"/>
			</g>
		</g>
		<g>
			<g>
				<path fill="#FFFFFF" d="M1119.3,374.1c-1.1,0-2-0.9-2-2v-24.4c0-1.1,0.9-2,2-2h24.4c1.1,0,2,0.9,2,2c0,1.1-0.9,2-2,2h-22.3v22.3
					C1121.3,373.2,1120.4,374.1,1119.3,374.1L1119.3,374.1z"/>
			</g>
			<g>
				<path fill="#FFFFFF" d="M1119.3,376.1h-41.9c-2.2,0-4.1-1.8-4.1-4.1v-83.3c0-2.2,1.8-4.1,4.1-4.1h66.3c2.2,0,4.1,1.8,4.1,4.1v59
					c0,1.1-0.4,2.1-1.2,2.9l-24.4,24.4C1121.4,375.7,1120.4,376.1,1119.3,376.1L1119.3,376.1z M1081.4,368h36.2l22-22v-53.2h-58.2
					V368L1081.4,368z"/>
			</g>
			<g>
				<path fill="#FFFFFF" d="M1065.9,366.5c-2.2,0-4.1-1.8-4.1-4.1v-81.7c0-4.5,3.6-8.1,8.1-8.1h62.2c2.2,0,4.1,1.8,4.1,4.1
					c0,2.2-1.8,4.1-4.1,4.1H1070v81.7C1070,364.7,1068.2,366.5,1065.9,366.5L1065.9,366.5z"/>
			</g>
			<g>
				<g>
					<path fill="#FFFFFF" d="M1108.3,325.3c-0.4,0-0.8-0.2-1.1-0.5l-3.9-4.1c-0.6-0.6-0.5-1.6,0.1-2.1c0.6-0.6,1.6-0.6,2.1,0.1
						l2.7,2.9l7.5-9.2c0.5-0.6,1.5-0.7,2.1-0.2c0.6,0.5,0.7,1.5,0.2,2.1l-8.6,10.5C1109.2,325.1,1108.8,325.3,1108.3,325.3
						C1108.3,325.3,1108.3,325.3,1108.3,325.3L1108.3,325.3z"/>
				</g>
				<g>
					<path fill="#FFFFFF" d="M1127.1,337.2h-32.8c-0.8,0-1.5-0.7-1.5-1.5v-32.8c0-0.8,0.7-1.5,1.5-1.5h32.8c0.8,0,1.5,0.7,1.5,1.5
						v32.8C1128.6,336.5,1127.9,337.2,1127.1,337.2L1127.1,337.2z M1095.7,334.2h29.8v-29.8h-29.8V334.2L1095.7,334.2z"/>
				</g>
			</g>
		</g>
	</g>
	<g>
		<g>
			<rect x="486" y="251.8" fill="#768593" width="169.2" height="169.2"/>
			<g>
				<path fill="#FFFFFF" d="M521.2,402.9L521.2,402.9c0-2.8,2.1-5.1,5.1-5.1c1.8,0,3,0.6,3.9,1.6l-1.7,1.8c-0.6-0.6-1.2-1.1-2.2-1.1
					c-1.4,0-2.3,1.2-2.3,2.6v0c0,1.5,1,2.7,2.4,2.7c0.9,0,1.5-0.4,2.2-1l1.6,1.6c-0.9,1-2,1.8-3.9,1.8
					C523.3,407.9,521.2,405.7,521.2,402.9z"/>
				<path fill="#FFFFFF" d="M531.2,402.9L531.2,402.9c0-2.8,2.2-5.1,5.2-5.1c3,0,5.2,2.2,5.2,5v0c0,2.8-2.2,5-5.2,5
					C533.4,407.9,531.2,405.7,531.2,402.9z M538.9,402.9L538.9,402.9c0-1.5-1-2.7-2.5-2.7c-1.6,0-2.5,1.2-2.5,2.6v0
					c0,1.4,1,2.7,2.5,2.7C538,405.5,538.9,404.3,538.9,402.9z"/>
				<path fill="#FFFFFF" d="M543.1,402.9L543.1,402.9c0-2.8,2.2-5.1,5.2-5.1c3,0,5.2,2.2,5.2,5v0c0,2.8-2.2,5-5.2,5
					C545.3,407.9,543.1,405.7,543.1,402.9z M550.9,402.9L550.9,402.9c0-1.5-1-2.7-2.5-2.7c-1.6,0-2.5,1.2-2.5,2.6v0
					c0,1.4,1,2.7,2.5,2.7C549.9,405.5,550.9,404.3,550.9,402.9z"/>
				<path fill="#FFFFFF" d="M555.6,394.5h2.7v7l3.2-3.5h3.3l-3.7,3.8l3.8,5.9h-3.1l-2.5-3.9l-1,1v2.9h-2.7V394.5z"/>
				<path fill="#FFFFFF" d="M568.9,406.4v1.3h-2.7v-13.1h2.7v4.9c0.7-0.9,1.6-1.6,3-1.6c2.3,0,4.4,1.8,4.4,5v0c0,3.2-2.1,5-4.4,5
					C570.5,407.9,569.6,407.2,568.9,406.4z M573.6,402.9L573.6,402.9c0-1.6-1.1-2.7-2.4-2.7c-1.3,0-2.3,1.1-2.3,2.7v0
					c0,1.6,1.1,2.7,2.3,2.7C572.5,405.5,573.6,404.5,573.6,402.9z"/>
				<path fill="#FFFFFF" d="M577.9,402.9L577.9,402.9c0-2.8,2.2-5.1,5.2-5.1c3,0,5.2,2.2,5.2,5v0c0,2.8-2.2,5-5.2,5
					C580.1,407.9,577.9,405.7,577.9,402.9z M585.6,402.9L585.6,402.9c0-1.5-1-2.7-2.5-2.7c-1.6,0-2.5,1.2-2.5,2.6v0
					c0,1.4,1,2.7,2.5,2.7C584.7,405.5,585.6,404.3,585.6,402.9z"/>
				<path fill="#FFFFFF" d="M589.8,402.9L589.8,402.9c0-2.8,2.2-5.1,5.2-5.1c3,0,5.2,2.2,5.2,5v0c0,2.8-2.2,5-5.2,5
					C592.1,407.9,589.8,405.7,589.8,402.9z M597.6,402.9L597.6,402.9c0-1.5-1-2.7-2.5-2.7c-1.6,0-2.5,1.2-2.5,2.6v0
					c0,1.4,1,2.7,2.5,2.7C596.6,405.5,597.6,404.3,597.6,402.9z"/>
				<path fill="#FFFFFF" d="M602.3,394.5h2.7v7l3.2-3.5h3.3l-3.7,3.8l3.8,5.9h-3.1l-2.5-3.9l-1,1v2.9h-2.7V394.5z"/>
				<path fill="#FFFFFF" d="M612.2,406.4l1.2-1.8c1,0.8,2.1,1.2,3,1.2c0.8,0,1.2-0.3,1.2-0.7v0c0-0.6-0.9-0.8-2-1.1
					c-1.4-0.4-2.9-1-2.9-2.9v0c0-2,1.6-3.1,3.5-3.1c1.2,0,2.6,0.4,3.6,1.1l-1,1.9c-1-0.6-1.9-0.9-2.6-0.9c-0.7,0-1,0.3-1,0.7v0
					c0,0.5,0.9,0.8,2,1.2c1.4,0.5,2.9,1.1,2.9,2.9v0c0,2.1-1.6,3.1-3.7,3.1C614.9,407.9,613.4,407.4,612.2,406.4z"/>
			</g>
		</g>
		<g>
			<g>
				<path fill="#FFFFFF" d="M590.1,320.7h-31.4c-1.1,0-2-0.9-2-2v-17.7c0-1.1,0.9-2,2-2h31.4c1.1,0,2,0.9,2,2v17.7
					C592.1,319.8,591.2,320.7,590.1,320.7L590.1,320.7z M560.7,316.6H588V303h-27.3V316.6L560.7,316.6z"/>
			</g>
			<g>
				<g>
					<path fill="#FFFFFF" d="M607.3,376.8H537c-2.3,0-4.1-1.8-4.1-4.1v-88.3c0-2.3,1.8-4.1,4.1-4.1h70.2c2.3,0,4.1,1.8,4.1,4.1v88.3
						C611.4,375,609.5,376.8,607.3,376.8L607.3,376.8z M541.1,368.7h62v-80.1h-62V368.7L541.1,368.7z"/>
				</g>
				<g>
					<path fill="#FFFFFF" d="M544.2,305.1h-14.3c-2.3,0-4.1-1.8-4.1-4.1s1.8-4.1,4.1-4.1h14.3c2.3,0,4.1,1.8,4.1,4.1
						S546.5,305.1,544.2,305.1L544.2,305.1z"/>
				</g>
				<g>
					<path fill="#FFFFFF" d="M544.2,323.3h-14.3c-2.3,0-4.1-1.8-4.1-4.1c0-2.3,1.8-4.1,4.1-4.1h14.3c2.3,0,4.1,1.8,4.1,4.1
						C548.3,321.5,546.5,323.3,544.2,323.3L544.2,323.3z"/>
				</g>
				<g>
					<path fill="#FFFFFF" d="M544.2,341.6h-14.3c-2.3,0-4.1-1.8-4.1-4.1c0-2.3,1.8-4.1,4.1-4.1h14.3c2.3,0,4.1,1.8,4.1,4.1
						C548.3,339.8,546.5,341.6,544.2,341.6L544.2,341.6z"/>
				</g>
				<g>
					<path fill="#FFFFFF" d="M544.2,359.9h-14.3c-2.3,0-4.1-1.8-4.1-4.1c0-2.3,1.8-4.1,4.1-4.1h14.3c2.3,0,4.1,1.8,4.1,4.1
						C548.3,358.1,546.5,359.9,544.2,359.9L544.2,359.9z"/>
				</g>
			</g>
		</g>
	</g>
	<g>
		<g>
			<rect x="1201.1" y="251.8" fill="#7D5D7D" width="169.2" height="169.2"/>
			<g>
				<path fill="#FFFFFF" d="M1253.6,406.4l1.2-1.8c1,0.8,2.1,1.2,3,1.2c0.8,0,1.2-0.3,1.2-0.7v0c0-0.6-0.9-0.8-2-1.1
					c-1.4-0.4-2.9-1-2.9-2.9v0c0-2,1.6-3.1,3.5-3.1c1.2,0,2.6,0.4,3.6,1.1l-1,1.9c-1-0.6-1.9-0.9-2.6-0.9c-0.7,0-1,0.3-1,0.7v0
					c0,0.5,0.9,0.8,2,1.2c1.3,0.5,2.9,1.1,2.9,2.9v0c0,2.1-1.6,3.1-3.7,3.1C1256.4,407.9,1254.9,407.4,1253.6,406.4z"/>
				<path fill="#FFFFFF" d="M1262.9,402.9L1262.9,402.9c0-2.8,2-5.1,4.8-5.1c3.2,0,4.7,2.5,4.7,5.2c0,0.2,0,0.5,0,0.7h-6.7
					c0.3,1.2,1.1,1.9,2.4,1.9c0.9,0,1.6-0.3,2.3-1l1.6,1.4c-0.9,1.1-2.2,1.8-3.9,1.8C1265.1,407.9,1262.9,405.9,1262.9,402.9z
					 M1269.7,402.1c-0.2-1.2-0.9-2.1-2-2.1c-1.1,0-1.9,0.8-2.1,2.1H1269.7z"/>
				<path fill="#FFFFFF" d="M1273.9,402.9L1273.9,402.9c0-2.8,2.1-5.1,5.1-5.1c1.8,0,3,0.6,3.9,1.6l-1.7,1.8
					c-0.6-0.6-1.2-1.1-2.2-1.1c-1.4,0-2.3,1.2-2.3,2.6v0c0,1.5,1,2.7,2.4,2.7c0.9,0,1.5-0.4,2.2-1l1.6,1.6c-0.9,1-2,1.8-3.9,1.8
					C1276.1,407.9,1273.9,405.7,1273.9,402.9z"/>
				<path fill="#FFFFFF" d="M1284.7,398h2.7v1.9c0.6-1.3,1.5-2.2,3.1-2.1v2.9h-0.1c-1.8,0-2.9,1.1-2.9,3.4v3.6h-2.7V398z"/>
				<path fill="#FFFFFF" d="M1291.5,402.9L1291.5,402.9c0-2.8,2-5.1,4.8-5.1c3.2,0,4.7,2.5,4.7,5.2c0,0.2,0,0.5,0,0.7h-6.7
					c0.3,1.2,1.1,1.9,2.4,1.9c0.9,0,1.6-0.3,2.3-1l1.6,1.4c-0.9,1.1-2.2,1.8-3.9,1.8C1293.6,407.9,1291.5,405.9,1291.5,402.9z
					 M1298.3,402.1c-0.2-1.2-0.9-2.1-2-2.1c-1.1,0-1.9,0.8-2.1,2.1H1298.3z"/>
				<path fill="#FFFFFF" d="M1303.4,404.9v-4.6h-1.2V398h1.2v-2.5h2.7v2.5h2.3v2.3h-2.3v4.1c0,0.6,0.3,0.9,0.9,0.9
					c0.5,0,1-0.1,1.4-0.3v2.2c-0.6,0.3-1.2,0.6-2.2,0.6C1304.6,407.8,1303.4,407.2,1303.4,404.9z"/>
				<path fill="#FFFFFF" d="M1309.7,406.4l1.2-1.8c1,0.8,2.1,1.2,3,1.2c0.8,0,1.2-0.3,1.2-0.7v0c0-0.6-0.9-0.8-2-1.1
					c-1.3-0.4-2.9-1-2.9-2.9v0c0-2,1.6-3.1,3.5-3.1c1.2,0,2.6,0.4,3.6,1.1l-1,1.9c-1-0.6-1.9-0.9-2.6-0.9c-0.7,0-1,0.3-1,0.7v0
					c0,0.5,0.9,0.8,2,1.2c1.4,0.5,2.9,1.1,2.9,2.9v0c0,2.1-1.6,3.1-3.7,3.1C1312.5,407.9,1311,407.4,1309.7,406.4z"/>
			</g>
		</g>
		<g>
			<g>
				<g>
					<path fill="#FFFFFF" d="M1331,375.3h-86.3c-2.2,0-4-1.8-4-4V285c0-2.2,1.8-4,4-4h86.3c2.2,0,4,1.8,4,4v86.3
						C1335,373.5,1333.2,375.3,1331,375.3L1331,375.3z M1248.7,367.2h78.3V289h-78.3V367.2L1248.7,367.2z"/>
				</g>
				<g>
					<path fill="#FFFFFF" d="M1318.3,360.5h-60.8c-1.1,0-2-0.9-2-2v-60.8c0-1.1,0.9-2,2-2h60.8c1.1,0,2,0.9,2,2v60.8
						C1320.3,359.6,1319.4,360.5,1318.3,360.5L1318.3,360.5z M1259.4,356.5h56.8v-56.8h-56.8V356.5L1259.4,356.5z"/>
				</g>
				<g>
					<g>
						<path fill="#FFFFFF" d="M1257.4,320.4c-2.2,0-4-1.8-4-4v-5c0-2.2,1.8-4,4-4s4,1.8,4,4v5
							C1261.4,318.6,1259.6,320.4,1257.4,320.4L1257.4,320.4z"/>
					</g>
					<g>
						<path fill="#FFFFFF" d="M1257.4,348.7c-2.2,0-4-1.8-4-4v-5c0-2.2,1.8-4,4-4s4,1.8,4,4v5
							C1261.4,346.9,1259.6,348.7,1257.4,348.7L1257.4,348.7z"/>
					</g>
				</g>
			</g>
			<g>
				<g>
					<path fill="#FFFFFF" d="M1287.8,340.2c-6.7,0-12.1-5.4-12.1-12.1c0-6.7,5.4-12.1,12.1-12.1c6.7,0,12.1,5.4,12.1,12.1
						C1299.9,334.8,1294.5,340.2,1287.8,340.2L1287.8,340.2z M1287.8,320c-4.4,0-8.1,3.6-8.1,8.1c0,4.5,3.6,8.1,8.1,8.1
						c4.5,0,8.1-3.6,8.1-8.1C1295.9,323.6,1292.3,320,1287.8,320L1287.8,320z"/>
				</g>
				<g>
					<g>
						<path fill="#FFFFFF" d="M1280.2,322.5c-0.5,0-1-0.2-1.4-0.6l-2.8-2.8c-0.8-0.8-0.8-2.1,0-2.8c0.8-0.8,2.1-0.8,2.8,0l2.8,2.8
							c0.8,0.8,0.8,2.1,0,2.8C1281.3,322.3,1280.8,322.5,1280.2,322.5L1280.2,322.5z"/>
					</g>
					<g>
						<path fill="#FFFFFF" d="M1298.3,340.5c-0.5,0-1-0.2-1.4-0.6l-3.3-3.3c-0.8-0.8-0.8-2.1,0-2.8c0.8-0.8,2.1-0.8,2.8,0l3.3,3.3
							c0.8,0.8,0.8,2.1,0,2.8C1299.3,340.3,1298.8,340.5,1298.3,340.5L1298.3,340.5z"/>
					</g>
				</g>
				<g>
					<g>
						<path fill="#FFFFFF" d="M1295.4,322.5c-0.5,0-1-0.2-1.4-0.6c-0.8-0.8-0.8-2.1,0-2.8l2.8-2.8c0.8-0.8,2.1-0.8,2.8,0
							c0.8,0.8,0.8,2.1,0,2.8l-2.8,2.8C1296.5,322.3,1296,322.5,1295.4,322.5L1295.4,322.5z"/>
					</g>
					<g>
						<path fill="#FFFFFF" d="M1277.4,340.5c-0.5,0-1-0.2-1.4-0.6c-0.8-0.8-0.8-2.1,0-2.8l3.3-3.3c0.8-0.8,2.1-0.8,2.8,0
							c0.8,0.8,0.8,2.1,0,2.8l-3.3,3.3C1278.5,340.3,1277.9,340.5,1277.4,340.5L1277.4,340.5z"/>
					</g>
				</g>
				<g>
					<g>
						<path fill="#FFFFFF" d="M1287.8,319.4c-1.1,0-2-0.9-2-2v-4c0-1.1,0.9-2,2-2c1.1,0,2,0.9,2,2v4
							C1289.9,318.5,1289,319.4,1287.8,319.4L1287.8,319.4z"/>
					</g>
					<g>
						<path fill="#FFFFFF" d="M1287.8,344.8L1287.8,344.8c-1.1,0-2-0.9-2-2l0-4.7c0-1.1,0.9-2,2-2l0,0c1.1,0,2,0.9,2,2l0,4.7
							C1289.8,343.9,1288.9,344.8,1287.8,344.8L1287.8,344.8z"/>
					</g>
				</g>
				<g>
					<g>
						<path fill="#FFFFFF" d="M1302.6,330.1h-4c-1.1,0-2-0.9-2-2c0-1.1,0.9-2,2-2h4c1.1,0,2,0.9,2,2
							C1304.6,329.2,1303.7,330.1,1302.6,330.1L1302.6,330.1z"/>
					</g>
					<g>
						<path fill="#FFFFFF" d="M1277.8,330.1h-4.7c-1.1,0-2-0.9-2-2c0-1.1,0.9-2,2-2h4.7c1.1,0,2,0.9,2,2
							C1279.8,329.2,1278.9,330.1,1277.8,330.1L1277.8,330.1z"/>
					</g>
				</g>
			</g>
		</g>
	</g>
	<g>
		<g>
			<rect x="665.6" y="251.9" fill="#768593" width="169.2" height="169.2"/>
			<g>
				<path fill="#FFFFFF" d="M718.3,398.2h2.7v1.9c0.6-1.3,1.5-2.2,3.1-2.1v2.9H724c-1.8,0-2.9,1.1-2.9,3.4v3.6h-2.7V398.2z"/>
				<path fill="#FFFFFF" d="M725.1,403.1L725.1,403.1c0-2.8,2-5.1,4.8-5.1c3.2,0,4.7,2.5,4.7,5.2c0,0.2,0,0.5,0,0.7h-6.7
					c0.3,1.2,1.1,1.9,2.4,1.9c0.9,0,1.6-0.3,2.3-1l1.6,1.4c-0.9,1.1-2.2,1.8-3.9,1.8C727.2,408,725.1,406,725.1,403.1z M731.9,402.2
					c-0.2-1.2-0.9-2.1-2-2.1c-1.1,0-1.9,0.8-2.1,2.1H731.9z"/>
				<path fill="#FFFFFF" d="M736.1,403.1L736.1,403.1c0-2.8,2.1-5.1,5.1-5.1c1.8,0,3,0.6,3.9,1.6l-1.7,1.8c-0.6-0.6-1.2-1.1-2.2-1.1
					c-1.4,0-2.3,1.2-2.3,2.6v0c0,1.5,1,2.7,2.4,2.7c0.9,0,1.5-0.4,2.2-1l1.6,1.6c-0.9,1-2,1.8-3.9,1.8
					C738.2,408,736.1,405.8,736.1,403.1z"/>
				<path fill="#FFFFFF" d="M746.9,394.7h2.9v2.4h-2.9V394.7z M747,398.2h2.7v9.7H747V398.2z"/>
				<path fill="#FFFFFF" d="M752.3,398.2h2.7v1.4c0.7-0.9,1.6-1.6,3-1.6c2.3,0,4.4,1.8,4.4,5v0c0,3.2-2.1,5-4.4,5
					c-1.5,0-2.4-0.7-3-1.4v4.1h-2.7V398.2z M759.7,403L759.7,403c0-1.6-1.1-2.7-2.4-2.7s-2.3,1.1-2.3,2.7v0c0,1.6,1.1,2.7,2.3,2.7
					S759.7,404.6,759.7,403z"/>
				<path fill="#FFFFFF" d="M764,403.1L764,403.1c0-2.8,2-5.1,4.8-5.1c3.2,0,4.7,2.5,4.7,5.2c0,0.2,0,0.5,0,0.7h-6.7
					c0.3,1.2,1.1,1.9,2.4,1.9c0.9,0,1.6-0.3,2.3-1l1.6,1.4c-0.9,1.1-2.2,1.8-3.9,1.8C766.1,408,764,406,764,403.1z M770.8,402.2
					c-0.2-1.2-0.9-2.1-2-2.1c-1.1,0-1.9,0.8-2.1,2.1H770.8z"/>
				<path fill="#FFFFFF" d="M774.7,406.6l1.2-1.8c1,0.8,2.1,1.2,3,1.2c0.8,0,1.2-0.3,1.2-0.7v0c0-0.6-0.9-0.8-2-1.1
					c-1.4-0.4-2.9-1-2.9-2.9v0c0-2,1.6-3.1,3.5-3.1c1.2,0,2.6,0.4,3.6,1.1l-1,1.9c-1-0.6-1.9-0.9-2.6-0.9c-0.7,0-1,0.3-1,0.7v0
					c0,0.5,0.9,0.8,2,1.2c1.3,0.5,2.9,1.1,2.9,2.9v0c0,2.1-1.6,3.1-3.7,3.1C777.5,408,776,407.6,774.7,406.6z"/>
			</g>
		</g>
		<g>
			<path fill="#FFFFFF" d="M773.4,356.8v-83.9c0-1-0.8-1.8-1.8-1.8h-63.1c-1,0-1.8,0.8-1.8,1.8v83.9c0,1,0.8,1.8,1.8,1.8h63.1
				C772.6,358.6,773.4,357.8,773.4,356.8z M748.1,280.6h8.8c1,0,1.8,0.8,1.8,1.8c0,1-0.8,1.8-1.8,1.8h-8.8c-1,0-1.8-0.8-1.8-1.8
				C746.3,281.4,747.1,280.6,748.1,280.6z M756,290.1c0,1-0.8,1.8-1.8,1.8h-31.7c-1,0-1.8-0.8-1.8-1.8c0-1,0.8-1.8,1.8-1.8h31.7
				C755.3,288.3,756,289.1,756,290.1z M732.9,280.6h8.8c1,0,1.8,0.8,1.8,1.8c0,1-0.8,1.8-1.8,1.8h-8.8c-1,0-1.8-0.8-1.8-1.8
				C731.1,281.4,731.9,280.6,732.9,280.6z M717.7,280.6h8.8c1,0,1.8,0.8,1.8,1.8c0,1-0.8,1.8-1.8,1.8h-8.8c-1,0-1.8-0.8-1.8-1.8
				C715.9,281.4,716.7,280.6,717.7,280.6z M748,306.7h-25.5c-1,0-1.8-0.8-1.8-1.8c0-1,0.8-1.8,1.8-1.8H748c1,0,1.8,0.8,1.8,1.8
				C749.8,305.9,749,306.7,748,306.7z M749.8,312.3c0,1-0.8,1.8-1.8,1.8h-25.5c-1,0-1.8-0.8-1.8-1.8c0-1,0.8-1.8,1.8-1.8H748
				C749,310.5,749.8,311.3,749.8,312.3z M726.5,329.3h-8.8c-1,0-1.8-0.8-1.8-1.8c0-1,0.8-1.8,1.8-1.8h8.8c1,0,1.8,0.8,1.8,1.8
				C728.3,328.6,727.5,329.3,726.5,329.3z M761.8,321.7h-39.2c-1,0-1.8-0.8-1.8-1.8c0-1,0.8-1.8,1.8-1.8h39.2c1,0,1.8,0.8,1.8,1.8
				C763.5,320.9,762.7,321.7,761.8,321.7z M761.8,299.5h-39.2c-1,0-1.8-0.8-1.8-1.8c0-1,0.8-1.8,1.8-1.8h39.2c1,0,1.8,0.8,1.8,1.8
				C763.5,298.7,762.7,299.5,761.8,299.5z"/>
			<path fill="#FFFFFF" d="M783.5,370.5h-63.1c-1,0-1.8-0.8-1.8-1.8v-4.1h59c1,0,1.8-0.8,1.8-1.8V283h4.2c1,0,1.8,0.8,1.8,1.8v83.9
				C785.3,369.7,784.5,370.5,783.5,370.5z"/>
			<path fill="#FFFFFF" d="M797.2,296.7v83.9c0,1-0.8,1.8-1.8,1.8h-63.1c-1,0-1.8-0.8-1.8-1.8v-4.1h59c1,0,1.8-0.8,1.8-1.8v-79.8
				h4.1C796.4,294.9,797.2,295.7,797.2,296.7z"/>
		</g>
	</g>
	<g>
		<g>
			<rect x="1381" y="251.9" fill="#7D6C5D" width="169.2" height="169.2"/>
			<g>
				<path fill="#FFFFFF" d="M1438.9,398.1h2.7v1.4c0.7-0.9,1.6-1.6,3-1.6c2.3,0,4.4,1.8,4.4,5v0c0,3.2-2.1,5-4.4,5
					c-1.5,0-2.4-0.7-3-1.4v4.1h-2.7V398.1z M1446.3,403L1446.3,403c0-1.6-1.1-2.7-2.4-2.7s-2.3,1.1-2.3,2.7v0c0,1.6,1.1,2.7,2.3,2.7
					S1446.3,404.6,1446.3,403z"/>
				<path fill="#FFFFFF" d="M1450.6,403L1450.6,403c0-2.8,2.2-5.1,5.2-5.1c3,0,5.2,2.2,5.2,5v0c0,2.8-2.2,5-5.2,5
					C1452.8,408,1450.6,405.8,1450.6,403z M1458.3,403L1458.3,403c0-1.5-1-2.7-2.5-2.7c-1.6,0-2.5,1.2-2.5,2.6v0
					c0,1.4,1,2.7,2.5,2.7C1457.4,405.6,1458.3,404.4,1458.3,403z"/>
				<path fill="#FFFFFF" d="M1463.1,394.6h2.7v13.1h-2.7V394.6z"/>
				<path fill="#FFFFFF" d="M1468.5,394.6h2.9v2.4h-2.9V394.6z M1468.6,398.1h2.7v9.7h-2.7V398.1z"/>
				<path fill="#FFFFFF" d="M1473.4,403L1473.4,403c0-2.8,2.1-5.1,5.1-5.1c1.8,0,3,0.6,3.9,1.6l-1.7,1.8c-0.6-0.6-1.2-1.1-2.2-1.1
					c-1.4,0-2.3,1.2-2.3,2.6v0c0,1.5,1,2.7,2.4,2.7c0.9,0,1.5-0.4,2.2-1l1.6,1.6c-0.9,1-2,1.8-3.9,1.8
					C1475.5,408,1473.4,405.8,1473.4,403z"/>
				<path fill="#FFFFFF" d="M1483.9,410.1l0.9-2c0.4,0.2,0.8,0.4,1.2,0.4c0.5,0,0.7-0.1,1-0.6l-3.8-9.7h2.9l2.2,6.6l2.1-6.6h2.8
					l-3.7,9.9c-0.7,2-1.5,2.7-3.2,2.7C1485.4,410.7,1484.6,410.5,1483.9,410.1z"/>
			</g>
		</g>
		<g>
			<g>
				<path fill="#FFFFFF" d="M1511.2,376.4h-89.8c-2.4,0-4.3-1.9-4.3-4.3v-30.3c0-2.4,1.9-4.3,4.3-4.3h27.8c2.4,0,4.3,1.9,4.3,4.3v6
					h25.7v-6c0-2.4,1.9-4.3,4.3-4.3h27.8c2.4,0,4.3,1.9,4.3,4.3v30.3C1515.5,374.5,1513.6,376.4,1511.2,376.4L1511.2,376.4z
					 M1425.7,367.9h81.2v-21.7h-19.2v1.8c0,4.7-3.8,8.6-8.6,8.6h-25.7c-4.7,0-8.6-3.8-8.6-8.6v-1.8h-19.2V367.9L1425.7,367.9z"/>
			</g>
			<g>
				<path fill="#FFFFFF" d="M1506.4,345.5c-2.4,0-4.3-1.9-4.3-4.3v-29.9h-70.5v29.9c0,2.4-1.9,4.3-4.3,4.3c-2.4,0-4.3-1.9-4.3-4.3
					V307c0-2.4,1.9-4.3,4.3-4.3h79.1c2.4,0,4.3,1.9,4.3,4.3v34.2C1510.7,343.6,1508.8,345.5,1506.4,345.5L1506.4,345.5z"/>
			</g>
			<g>
				<path fill="#FFFFFF" d="M1501.4,298.5h-69.1c-1.2,0-2.1-1-2.1-2.1c0-1.2,1-2.1,2.1-2.1h69.1c1.2,0,2.1,1,2.1,2.1
					C1503.6,297.5,1502.6,298.5,1501.4,298.5L1501.4,298.5z"/>
			</g>
			<g>
				<path fill="#FFFFFF" d="M1497.3,289.9h-60.9c-1.2,0-2.1-1-2.1-2.1c0-1.2,1-2.1,2.1-2.1h60.9c1.2,0,2.1,1,2.1,2.1
					C1499.5,289,1498.5,289.9,1497.3,289.9L1497.3,289.9z"/>
			</g>
		</g>
	</g>
</g>
<g>
	<g>
		<rect x="10.6" y="252.8" fill="#7F888D" width="169.2" height="169.2"/>
		<g>
			<path fill="#FFFFFF" d="M51.4,403.9L51.4,403.9c0-2.8,2.1-5.1,5.1-5.1c1.8,0,3,0.6,3.9,1.6l-1.7,1.8c-0.6-0.6-1.2-1.1-2.2-1.1
				c-1.4,0-2.3,1.2-2.3,2.6v0c0,1.5,1,2.7,2.4,2.7c0.9,0,1.5-0.4,2.2-1l1.6,1.6c-0.9,1-2,1.8-3.9,1.8
				C53.5,408.9,51.4,406.6,51.4,403.9z"/>
			<path fill="#FFFFFF" d="M62.1,395.5h2.7v4.9c0.6-0.8,1.4-1.5,2.8-1.5c2.1,0,3.3,1.4,3.3,3.6v6.2h-2.7v-5.4c0-1.3-0.6-2-1.7-2
				c-1,0-1.7,0.7-1.7,2v5.4h-2.7V395.5z"/>
			<path fill="#FFFFFF" d="M72.9,403.9L72.9,403.9c0-2.8,2-5.1,4.8-5.1c3.2,0,4.7,2.5,4.7,5.2c0,0.2,0,0.5,0,0.7h-6.7
				c0.3,1.2,1.1,1.9,2.4,1.9c0.9,0,1.6-0.3,2.3-1l1.6,1.4c-0.9,1.1-2.2,1.8-3.9,1.8C75,408.9,72.9,406.8,72.9,403.9z M79.7,403.1
				c-0.2-1.2-0.9-2.1-2-2.1c-1.1,0-1.9,0.8-2.1,2.1H79.7z"/>
			<path fill="#FFFFFF" d="M84.8,401.3h-1.1v-2.3h1.1v-0.6c0-1.1,0.3-1.8,0.8-2.3c0.5-0.5,1.2-0.8,2.2-0.8c0.9,0,1.4,0.1,1.9,0.3
				v2.3c-0.4-0.1-0.8-0.2-1.2-0.2c-0.6,0-1,0.3-1,1v0.4h2.2v2.2h-2.2v7.3h-2.7V401.3z"/>
			<path fill="#FFFFFF" d="M90.9,401.8h5.5v2.6h-5.5V401.8z"/>
			<path fill="#FFFFFF" d="M98.6,399h2.7v1.9c0.6-1.3,1.5-2.2,3.1-2.1v2.9h-0.1c-1.8,0-2.9,1.1-2.9,3.4v3.6h-2.7V399z"/>
			<path fill="#FFFFFF" d="M105.4,403.9L105.4,403.9c0-2.8,2-5.1,4.8-5.1c3.2,0,4.7,2.5,4.7,5.2c0,0.2,0,0.5,0,0.7h-6.7
				c0.3,1.2,1.1,1.9,2.4,1.9c0.9,0,1.6-0.3,2.3-1l1.6,1.4c-0.9,1.1-2.2,1.8-3.9,1.8C107.5,408.9,105.4,406.8,105.4,403.9z
				 M112.2,403.1c-0.2-1.2-0.9-2.1-2-2.1c-1.1,0-1.9,0.8-2.1,2.1H112.2z"/>
			<path fill="#FFFFFF" d="M116.9,399h2.7v1.4c0.7-0.9,1.6-1.6,3-1.6c2.3,0,4.4,1.8,4.4,5v0c0,3.2-2.1,5-4.4,5c-1.5,0-2.4-0.7-3-1.4
				v4.1h-2.7V399z M124.3,403.9L124.3,403.9c0-1.6-1.1-2.7-2.4-2.7c-1.3,0-2.3,1.1-2.3,2.7v0c0,1.6,1.1,2.7,2.3,2.7
				C123.2,406.5,124.3,405.5,124.3,403.9z"/>
			<path fill="#FFFFFF" d="M128.6,403.9L128.6,403.9c0-2.8,2.2-5.1,5.2-5.1c3,0,5.2,2.2,5.2,5v0c0,2.8-2.2,5-5.2,5
				C130.8,408.9,128.6,406.7,128.6,403.9z M136.3,403.9L136.3,403.9c0-1.5-1-2.7-2.5-2.7c-1.6,0-2.5,1.2-2.5,2.6v0
				c0,1.4,1,2.7,2.5,2.7C135.4,406.5,136.3,405.3,136.3,403.9z"/>
		</g>
	</g>
	<g>
		<path fill="#FFFFFF" d="M94.8,354c11.6,0,21.5-3.1,24.9-7.4v-6.8c-0.1-0.2-0.3-0.3-0.4-0.5c-3.4,4.4-13.3,7.5-25,7.5
			c-11.2,0-20.7-2.9-24.5-6.9c0,0-0.1,0.1-0.1,0.1v6.5C73,350.8,83,354,94.8,354z"/>
		<path fill="#FFFFFF" d="M75.7,335.8c4.8,2.1,11.6,3.4,19.1,3.4s14.3-1.3,19.1-3.4c2.2-1,4-2.1,5.2-3.3c0.2-0.2,0.4-0.5,0.6-0.7
			V325c-0.1-0.2-0.3-0.3-0.4-0.5c-1.2,1.5-3.2,2.9-5.9,4.1c-4.8,2.1-11.6,3.4-19.1,3.4c-7.5,0-14.3-1.3-19.1-3.4
			c-2.3-1-4.2-2.2-5.4-3.5c0,0-0.1,0.1-0.1,0.1v6.5c0.1,0.1,0.2,0.2,0.3,0.3C71.2,333.4,73.1,334.7,75.7,335.8z"/>
		<path fill="#FFFFFF" d="M75.9,320.8c4.5,2.2,11.3,3.5,18.8,3.5c7.6,0,14.3-1.4,18.9-3.6c2.3-1.1,4-2.4,5-3.9
			c0.6-0.9,0.9-1.8,0.9-2.8c0-5.6-11.1-10.2-24.8-10.2c-13.7,0-24.8,4.6-24.8,10.2c0,0.8,0.2,1.6,0.6,2.3
			C71.4,318.1,73.3,319.6,75.9,320.8z"/>
		<path fill="#FFFFFF" d="M137.6,283H52.3c-2.2,0-3.9,1.7-3.9,3.9v85.3c0,2.2,1.8,3.9,3.9,3.9h85.3c2.2,0,3.9-1.8,3.9-3.9v-85.3
			C141.6,284.8,139.8,283,137.6,283z M133.7,368.3H56.2v-77.5h77.5V368.3z"/>
	</g>
</g>
<rect x="190.1" y="252.4" fill="#D1D3D4" width="48.7" height="168.1"/>
<rect x="427.6" y="251.7" fill="#D1D3D4" width="48.7" height="169"/>
<g>
	<g>
		<rect x="248.7" y="251.8" fill="#7F888D" width="169.2" height="169.2"/>
		<g>
			<path fill="#FFFFFF" d="M279.7,398h2.8l1.5,5.9l1.8-5.9h2.4l1.8,5.9l1.6-5.9h2.7l-3,9.7h-2.5l-1.9-5.9l-1.9,5.9h-2.4L279.7,398z"
				/>
			<path fill="#FFFFFF" d="M295,402.9L295,402.9c0-2.8,2.2-5.1,5.2-5.1c3,0,5.2,2.2,5.2,5v0c0,2.8-2.2,5-5.2,5
				C297.2,407.9,295,405.7,295,402.9z M302.8,402.9L302.8,402.9c0-1.5-1-2.7-2.5-2.7c-1.6,0-2.5,1.2-2.5,2.6v0c0,1.4,1,2.7,2.5,2.7
				C301.8,405.5,302.8,404.3,302.8,402.9z"/>
			<path fill="#FFFFFF" d="M307.4,398h2.7v1.9c0.6-1.3,1.5-2.2,3.1-2.1v2.9h-0.1c-1.8,0-2.9,1.1-2.9,3.4v3.6h-2.7V398z"/>
			<path fill="#FFFFFF" d="M315,394.5h2.7v7l3.2-3.5h3.3l-3.7,3.8l3.8,5.9h-3.1l-2.5-3.9l-1,1v2.9H315V394.5z"/>
			<path fill="#FFFFFF" d="M324.9,406.4l1.2-1.8c1,0.8,2.1,1.2,3,1.2c0.8,0,1.2-0.3,1.2-0.7v0c0-0.6-0.9-0.8-2-1.1
				c-1.4-0.4-2.9-1-2.9-2.9v0c0-2,1.6-3.1,3.5-3.1c1.2,0,2.6,0.4,3.6,1.1l-1,1.9c-1-0.6-1.9-0.9-2.6-0.9c-0.7,0-1,0.3-1,0.7v0
				c0,0.5,0.9,0.8,2,1.2c1.4,0.5,2.9,1.1,2.9,2.9v0c0,2.1-1.6,3.1-3.7,3.1C327.7,407.8,326.1,407.4,324.9,406.4z"/>
			<path fill="#FFFFFF" d="M334.9,404.9v-4.6h-1.2V398h1.2v-2.5h2.7v2.5h2.3v2.3h-2.3v4.1c0,0.6,0.3,0.9,0.9,0.9
				c0.5,0,1-0.1,1.4-0.3v2.2c-0.6,0.3-1.2,0.6-2.2,0.6C336.1,407.8,334.9,407.1,334.9,404.9z"/>
			<path fill="#FFFFFF" d="M341.4,404.9L341.4,404.9c0-2.1,1.6-3.1,3.9-3.1c1,0,1.7,0.2,2.4,0.4V402c0-1.1-0.7-1.8-2.1-1.8
				c-1,0-1.8,0.2-2.7,0.5l-0.7-2.1c1.1-0.5,2.1-0.8,3.7-0.8c1.5,0,2.6,0.4,3.3,1.1c0.7,0.7,1,1.8,1,3.1v5.6h-2.6v-1
				c-0.7,0.7-1.6,1.2-2.9,1.2C342.9,407.8,341.4,406.8,341.4,404.9z M347.7,404.2v-0.5c-0.5-0.2-1.1-0.4-1.7-0.4
				c-1.2,0-1.9,0.5-1.9,1.3v0c0,0.7,0.6,1.2,1.5,1.2C346.8,405.9,347.7,405.2,347.7,404.2z"/>
			<path fill="#FFFFFF" d="M353,404.9v-4.6h-1.2V398h1.2v-2.5h2.7v2.5h2.3v2.3h-2.3v4.1c0,0.6,0.3,0.9,0.9,0.9c0.5,0,1-0.1,1.4-0.3
				v2.2c-0.6,0.3-1.2,0.6-2.2,0.6C354.1,407.8,353,407.1,353,404.9z"/>
			<path fill="#FFFFFF" d="M360,394.5h2.9v2.4H360V394.5z M360.1,398h2.7v9.7h-2.7V398z"/>
			<path fill="#FFFFFF" d="M365,402.9L365,402.9c0-2.8,2.2-5.1,5.2-5.1c3,0,5.2,2.2,5.2,5v0c0,2.8-2.2,5-5.2,5
				C367.2,407.9,365,405.7,365,402.9z M372.7,402.9L372.7,402.9c0-1.5-1-2.7-2.5-2.7c-1.6,0-2.5,1.2-2.5,2.6v0c0,1.4,1,2.7,2.5,2.7
				C371.8,405.5,372.7,404.3,372.7,402.9z"/>
			<path fill="#FFFFFF" d="M377.4,398h2.7v1.4c0.6-0.8,1.4-1.5,2.8-1.5c2.1,0,3.3,1.4,3.3,3.6v6.2h-2.7v-5.4c0-1.3-0.6-2-1.7-2
				c-1,0-1.7,0.7-1.7,2v5.4h-2.7V398z"/>
		</g>
	</g>
	<g>
		<g>
			<path fill="#FFFFFF" d="M380.1,355.8h-94.4c-2.4,0-4.3-1.9-4.3-4.3v-60.1c0-2.4,1.9-4.3,4.3-4.3h94.4c2.4,0,4.3,1.9,4.3,4.3v60.1
				C384.4,353.9,382.5,355.8,380.1,355.8L380.1,355.8z M290,347.2h85.8v-51.5H290V347.2L290,347.2z"/>
		</g>
		<g>
			<path fill="#FFFFFF" d="M371.5,345.1h-77.2c-1.2,0-2.1-1-2.1-2.1V300c0-1.2,1-2.1,2.1-2.1h77.2c1.2,0,2.1,1,2.1,2.1v42.9
				C373.6,344.1,372.7,345.1,371.5,345.1L371.5,345.1z M296.4,340.8h72.9v-38.6h-72.9V340.8L296.4,340.8z"/>
		</g>
		<g>
			<path fill="#FFFFFF" d="M393.3,368.3H273.9c-2.4,0-4.3-1.9-4.3-4.3c0-2.4,1.9-4.3,4.3-4.3h119.4c2.4,0,4.3,1.9,4.3,4.3
				C397.6,366.4,395.7,368.3,393.3,368.3L393.3,368.3z"/>
		</g>
	</g>
</g>
<rect x="475.7" y="241" fill="#D1D3D4" width="1083.7" height="190.1"/>
<g>
	<g>
		<rect x="1022.3" y="252" fill="#7F888D" width="169.2" height="169.2"/>
		<g>
			<path fill="#FFFFFF" d="M1086.8,405.1v-4.6h-1.2v-2.3h1.2v-2.5h2.7v2.5h2.3v2.3h-2.3v4.1c0,0.6,0.3,0.9,0.9,0.9
				c0.5,0,1-0.1,1.4-0.3v2.2c-0.6,0.3-1.2,0.6-2.2,0.6C1087.9,408,1086.8,407.3,1086.8,405.1z"/>
			<path fill="#FFFFFF" d="M1093.1,403.1L1093.1,403.1c0-2.8,2-5.1,4.8-5.1c3.2,0,4.7,2.5,4.7,5.2c0,0.2,0,0.5,0,0.7h-6.7
				c0.3,1.2,1.1,1.9,2.4,1.9c0.9,0,1.6-0.3,2.3-1l1.6,1.4c-0.9,1.1-2.2,1.8-3.9,1.8C1095.2,408.1,1093.1,406,1093.1,403.1z
				 M1099.9,402.3c-0.2-1.2-0.9-2.1-2-2.1c-1.1,0-1.9,0.8-2.1,2.1H1099.9z"/>
			<path fill="#FFFFFF" d="M1103.8,406.6l1.2-1.8c1,0.8,2.1,1.2,3,1.2c0.8,0,1.2-0.3,1.2-0.7v0c0-0.6-0.9-0.8-2-1.1
				c-1.3-0.4-2.9-1-2.9-2.9v0c0-2,1.6-3.1,3.5-3.1c1.2,0,2.6,0.4,3.6,1.1l-1,1.9c-1-0.6-1.9-0.9-2.6-0.9c-0.7,0-1,0.3-1,0.7v0
				c0,0.5,0.9,0.8,2,1.2c1.4,0.5,2.9,1.1,2.9,2.9v0c0,2.1-1.6,3.1-3.7,3.1C1106.6,408,1105.1,407.6,1103.8,406.6z"/>
			<path fill="#FFFFFF" d="M1113.9,405.1v-4.6h-1.2v-2.3h1.2v-2.5h2.7v2.5h2.3v2.3h-2.3v4.1c0,0.6,0.3,0.9,0.9,0.9
				c0.5,0,1-0.1,1.4-0.3v2.2c-0.6,0.3-1.2,0.6-2.2,0.6C1115,408,1113.9,407.3,1113.9,405.1z"/>
			<path fill="#FFFFFF" d="M1120.1,406.6l1.2-1.8c1,0.8,2.1,1.2,3,1.2c0.8,0,1.2-0.3,1.2-0.7v0c0-0.6-0.9-0.8-2-1.1
				c-1.4-0.4-2.9-1-2.9-2.9v0c0-2,1.6-3.1,3.5-3.1c1.2,0,2.6,0.4,3.6,1.1l-1,1.9c-1-0.6-1.9-0.9-2.6-0.9c-0.7,0-1,0.3-1,0.7v0
				c0,0.5,0.9,0.8,2,1.2c1.3,0.5,2.9,1.1,2.9,2.9v0c0,2.1-1.6,3.1-3.7,3.1C1122.9,408,1121.4,407.6,1120.1,406.6z"/>
		</g>
	</g>
	<g>
		<g>
			<path fill="#FFFFFF" d="M1119.1,373.9c-1.1,0-2-0.9-2-2v-24.4c0-1.1,0.9-2,2-2h24.4c1.1,0,2,0.9,2,2c0,1.1-0.9,2-2,2h-22.3v22.3
				C1121.1,373,1120.2,373.9,1119.1,373.9L1119.1,373.9z"/>
		</g>
		<g>
			<path fill="#FFFFFF" d="M1119.1,376h-41.9c-2.2,0-4.1-1.8-4.1-4.1v-83.3c0-2.2,1.8-4.1,4.1-4.1h66.3c2.2,0,4.1,1.8,4.1,4.1v59
				c0,1.1-0.4,2.1-1.2,2.9l-24.4,24.4C1121.2,375.5,1120.2,376,1119.1,376L1119.1,376z M1081.2,367.8h36.2l22-22v-53.2h-58.2V367.8
				L1081.2,367.8z"/>
		</g>
		<g>
			<path fill="#FFFFFF" d="M1065.8,366.3c-2.2,0-4.1-1.8-4.1-4.1v-81.7c0-4.5,3.6-8.1,8.1-8.1h62.2c2.2,0,4.1,1.8,4.1,4.1
				c0,2.2-1.8,4.1-4.1,4.1h-62.2v81.7C1069.8,364.5,1068,366.3,1065.8,366.3L1065.8,366.3z"/>
		</g>
		<g>
			<g>
				<path fill="#FFFFFF" d="M1108.1,325.1c-0.4,0-0.8-0.2-1.1-0.5l-3.9-4.1c-0.6-0.6-0.5-1.6,0.1-2.1c0.6-0.6,1.6-0.6,2.1,0.1
					l2.7,2.9l7.5-9.2c0.5-0.6,1.5-0.7,2.1-0.2c0.6,0.5,0.7,1.5,0.2,2.1l-8.6,10.5C1109,324.9,1108.6,325.1,1108.1,325.1
					C1108.2,325.1,1108.2,325.1,1108.1,325.1L1108.1,325.1z"/>
			</g>
			<g>
				<path fill="#FFFFFF" d="M1126.9,337h-32.8c-0.8,0-1.5-0.7-1.5-1.5v-32.8c0-0.8,0.7-1.5,1.5-1.5h32.8c0.8,0,1.5,0.7,1.5,1.5v32.8
					C1128.4,336.3,1127.7,337,1126.9,337L1126.9,337z M1095.6,334h29.8v-29.8h-29.8V334L1095.6,334z"/>
			</g>
		</g>
	</g>
</g>
<g>
	<g>
		<rect x="485.8" y="251.6" fill="#7F888D" width="169.2" height="169.2"/>
		<g>
			<path fill="#FFFFFF" d="M521,402.7L521,402.7c0-2.8,2.1-5.1,5.1-5.1c1.8,0,3,0.6,3.9,1.6l-1.7,1.8c-0.6-0.6-1.2-1.1-2.2-1.1
				c-1.4,0-2.3,1.2-2.3,2.6v0c0,1.5,1,2.7,2.4,2.7c0.9,0,1.5-0.4,2.2-1l1.6,1.6c-0.9,1-2,1.8-3.9,1.8
				C523.1,407.7,521,405.5,521,402.7z"/>
			<path fill="#FFFFFF" d="M531,402.7L531,402.7c0-2.8,2.2-5.1,5.2-5.1c3,0,5.2,2.2,5.2,5v0c0,2.8-2.2,5-5.2,5
				C533.2,407.7,531,405.5,531,402.7z M538.8,402.7L538.8,402.7c0-1.5-1-2.7-2.5-2.7c-1.6,0-2.5,1.2-2.5,2.6v0c0,1.4,1,2.7,2.5,2.7
				C537.8,405.4,538.8,404.2,538.8,402.7z"/>
			<path fill="#FFFFFF" d="M543,402.7L543,402.7c0-2.8,2.2-5.1,5.2-5.1c3,0,5.2,2.2,5.2,5v0c0,2.8-2.2,5-5.2,5
				C545.2,407.7,543,405.5,543,402.7z M550.7,402.7L550.7,402.7c0-1.5-1-2.7-2.5-2.7c-1.6,0-2.5,1.2-2.5,2.6v0c0,1.4,1,2.7,2.5,2.7
				C549.8,405.4,550.7,404.2,550.7,402.7z"/>
			<path fill="#FFFFFF" d="M555.4,394.4h2.7v7l3.2-3.5h3.3l-3.7,3.8l3.8,5.9h-3.1l-2.5-3.9l-1,1v2.9h-2.7V394.4z"/>
			<path fill="#FFFFFF" d="M568.8,406.3v1.3H566v-13.1h2.7v4.9c0.7-0.9,1.6-1.6,3-1.6c2.3,0,4.4,1.8,4.4,5v0c0,3.2-2.1,5-4.4,5
				C570.3,407.7,569.4,407,568.8,406.3z M573.4,402.7L573.4,402.7c0-1.6-1.1-2.7-2.4-2.7c-1.3,0-2.3,1.1-2.3,2.7v0
				c0,1.6,1.1,2.7,2.3,2.7C572.4,405.4,573.4,404.3,573.4,402.7z"/>
			<path fill="#FFFFFF" d="M577.7,402.7L577.7,402.7c0-2.8,2.2-5.1,5.2-5.1c3,0,5.2,2.2,5.2,5v0c0,2.8-2.2,5-5.2,5
				C579.9,407.7,577.7,405.5,577.7,402.7z M585.5,402.7L585.5,402.7c0-1.5-1-2.7-2.5-2.7c-1.6,0-2.5,1.2-2.5,2.6v0
				c0,1.4,1,2.7,2.5,2.7C584.5,405.4,585.5,404.2,585.5,402.7z"/>
			<path fill="#FFFFFF" d="M589.7,402.7L589.7,402.7c0-2.8,2.2-5.1,5.2-5.1c3,0,5.2,2.2,5.2,5v0c0,2.8-2.2,5-5.2,5
				C591.9,407.7,589.7,405.5,589.7,402.7z M597.4,402.7L597.4,402.7c0-1.5-1-2.7-2.5-2.7c-1.6,0-2.5,1.2-2.5,2.6v0
				c0,1.4,1,2.7,2.5,2.7C596.5,405.4,597.4,404.2,597.4,402.7z"/>
			<path fill="#FFFFFF" d="M602.1,394.4h2.7v7l3.2-3.5h3.3l-3.7,3.8l3.8,5.9h-3.1l-2.5-3.9l-1,1v2.9h-2.7V394.4z"/>
			<path fill="#FFFFFF" d="M612,406.2l1.2-1.8c1,0.8,2.1,1.2,3,1.2c0.8,0,1.2-0.3,1.2-0.7v0c0-0.6-0.9-0.8-2-1.1
				c-1.4-0.4-2.9-1-2.9-2.9v0c0-2,1.6-3.1,3.5-3.1c1.2,0,2.6,0.4,3.6,1.1l-1,1.9c-1-0.6-1.9-0.9-2.6-0.9c-0.7,0-1,0.3-1,0.7v0
				c0,0.5,0.9,0.8,2,1.2c1.4,0.5,2.9,1.1,2.9,2.9v0c0,2.1-1.6,3.1-3.7,3.1C614.8,407.7,613.3,407.2,612,406.2z"/>
		</g>
	</g>
	<g>
		<g>
			<path fill="#FFFFFF" d="M589.9,320.5h-31.4c-1.1,0-2-0.9-2-2v-17.7c0-1.1,0.9-2,2-2h31.4c1.1,0,2,0.9,2,2v17.7
				C591.9,319.6,591,320.5,589.9,320.5L589.9,320.5z M560.6,316.4h27.3v-13.6h-27.3V316.4L560.6,316.4z"/>
		</g>
		<g>
			<g>
				<path fill="#FFFFFF" d="M607.1,376.7h-70.2c-2.3,0-4.1-1.8-4.1-4.1v-88.3c0-2.3,1.8-4.1,4.1-4.1h70.2c2.3,0,4.1,1.8,4.1,4.1
					v88.3C611.2,374.8,609.4,376.7,607.1,376.7L607.1,376.7z M541,368.5h62v-80.1h-62V368.5L541,368.5z"/>
			</g>
			<g>
				<path fill="#FFFFFF" d="M544,304.9h-14.3c-2.3,0-4.1-1.8-4.1-4.1c0-2.3,1.8-4.1,4.1-4.1H544c2.3,0,4.1,1.8,4.1,4.1
					C548.1,303.1,546.3,304.9,544,304.9L544,304.9z"/>
			</g>
			<g>
				<path fill="#FFFFFF" d="M544,323.2h-14.3c-2.3,0-4.1-1.8-4.1-4.1c0-2.3,1.8-4.1,4.1-4.1H544c2.3,0,4.1,1.8,4.1,4.1
					C548.1,321.3,546.3,323.2,544,323.2L544,323.2z"/>
			</g>
			<g>
				<path fill="#FFFFFF" d="M544,341.4h-14.3c-2.3,0-4.1-1.8-4.1-4.1s1.8-4.1,4.1-4.1H544c2.3,0,4.1,1.8,4.1,4.1
					S546.3,341.4,544,341.4L544,341.4z"/>
			</g>
			<g>
				<path fill="#FFFFFF" d="M544,359.7h-14.3c-2.3,0-4.1-1.8-4.1-4.1c0-2.3,1.8-4.1,4.1-4.1H544c2.3,0,4.1,1.8,4.1,4.1
					C548.1,357.9,546.3,359.7,544,359.7L544,359.7z"/>
			</g>
		</g>
	</g>
</g>
<g>
	<g>
		<rect x="1200.9" y="251.6" fill="#7F888D" width="169.2" height="169.2"/>
		<g>
			<path fill="#FFFFFF" d="M1253.4,406.2l1.2-1.8c1,0.8,2.1,1.2,3,1.2c0.8,0,1.2-0.3,1.2-0.7v0c0-0.6-0.9-0.8-2-1.1
				c-1.3-0.4-2.9-1-2.9-2.9v0c0-2,1.6-3.1,3.5-3.1c1.2,0,2.6,0.4,3.6,1.1l-1,1.9c-1-0.6-1.9-0.9-2.6-0.9c-0.7,0-1,0.3-1,0.7v0
				c0,0.5,0.9,0.8,2,1.2c1.4,0.5,2.9,1.1,2.9,2.9v0c0,2.1-1.6,3.1-3.7,3.1C1256.2,407.7,1254.7,407.2,1253.4,406.2z"/>
			<path fill="#FFFFFF" d="M1262.7,402.7L1262.7,402.7c0-2.8,2-5.1,4.8-5.1c3.2,0,4.7,2.5,4.7,5.2c0,0.2,0,0.5,0,0.7h-6.7
				c0.3,1.2,1.1,1.9,2.4,1.9c0.9,0,1.6-0.3,2.3-1l1.6,1.4c-0.9,1.1-2.2,1.8-3.9,1.8C1264.9,407.7,1262.7,405.7,1262.7,402.7z
				 M1269.6,401.9c-0.2-1.2-0.9-2.1-2-2.1c-1.1,0-1.9,0.8-2.1,2.1H1269.6z"/>
			<path fill="#FFFFFF" d="M1273.8,402.7L1273.8,402.7c0-2.8,2.1-5.1,5.1-5.1c1.8,0,3,0.6,3.9,1.6l-1.7,1.8
				c-0.6-0.6-1.2-1.1-2.2-1.1c-1.4,0-2.3,1.2-2.3,2.6v0c0,1.5,1,2.7,2.4,2.7c0.9,0,1.5-0.4,2.2-1l1.6,1.6c-0.9,1-2,1.8-3.9,1.8
				C1275.9,407.7,1273.8,405.5,1273.8,402.7z"/>
			<path fill="#FFFFFF" d="M1284.5,397.9h2.7v1.9c0.6-1.3,1.5-2.2,3.1-2.1v2.9h-0.1c-1.8,0-2.9,1.1-2.9,3.4v3.6h-2.7V397.9z"/>
			<path fill="#FFFFFF" d="M1291.3,402.7L1291.3,402.7c0-2.8,2-5.1,4.8-5.1c3.2,0,4.7,2.5,4.7,5.2c0,0.2,0,0.5,0,0.7h-6.7
				c0.3,1.2,1.1,1.9,2.4,1.9c0.9,0,1.6-0.3,2.3-1l1.6,1.4c-0.9,1.1-2.2,1.8-3.9,1.8C1293.5,407.7,1291.3,405.7,1291.3,402.7z
				 M1298.1,401.9c-0.2-1.2-0.9-2.1-2-2.1c-1.1,0-1.9,0.8-2.1,2.1H1298.1z"/>
			<path fill="#FFFFFF" d="M1303.3,404.8v-4.6h-1.2v-2.3h1.2v-2.5h2.7v2.5h2.3v2.3h-2.3v4.1c0,0.6,0.3,0.9,0.9,0.9
				c0.5,0,1-0.1,1.4-0.3v2.2c-0.6,0.3-1.2,0.6-2.2,0.6C1304.4,407.7,1303.3,407,1303.3,404.8z"/>
			<path fill="#FFFFFF" d="M1309.5,406.2l1.2-1.8c1,0.8,2.1,1.2,3,1.2c0.8,0,1.2-0.3,1.2-0.7v0c0-0.6-0.9-0.8-2-1.1
				c-1.4-0.4-2.9-1-2.9-2.9v0c0-2,1.6-3.1,3.5-3.1c1.2,0,2.6,0.4,3.6,1.1l-1,1.9c-1-0.6-1.9-0.9-2.6-0.9c-0.7,0-1,0.3-1,0.7v0
				c0,0.5,0.9,0.8,2,1.2c1.3,0.5,2.9,1.1,2.9,2.9v0c0,2.1-1.6,3.1-3.7,3.1C1312.3,407.7,1310.8,407.2,1309.5,406.2z"/>
		</g>
	</g>
	<g>
		<g>
			<g>
				<path fill="#FFFFFF" d="M1330.8,375.1h-86.3c-2.2,0-4-1.8-4-4v-86.3c0-2.2,1.8-4,4-4h86.3c2.2,0,4,1.8,4,4v86.3
					C1334.8,373.3,1333,375.1,1330.8,375.1L1330.8,375.1z M1248.5,367.1h78.3v-78.2h-78.3V367.1L1248.5,367.1z"/>
			</g>
			<g>
				<path fill="#FFFFFF" d="M1318.1,360.4h-60.8c-1.1,0-2-0.9-2-2v-60.8c0-1.1,0.9-2,2-2h60.8c1.1,0,2,0.9,2,2v60.8
					C1320.1,359.5,1319.2,360.4,1318.1,360.4L1318.1,360.4z M1259.3,356.3h56.8v-56.8h-56.8V356.3L1259.3,356.3z"/>
			</g>
			<g>
				<g>
					<path fill="#FFFFFF" d="M1257.3,320.3c-2.2,0-4-1.8-4-4v-5c0-2.2,1.8-4,4-4s4,1.8,4,4v5
						C1261.3,318.5,1259.5,320.3,1257.3,320.3L1257.3,320.3z"/>
				</g>
				<g>
					<path fill="#FFFFFF" d="M1257.3,348.6c-2.2,0-4-1.8-4-4v-5c0-2.2,1.8-4,4-4s4,1.8,4,4v5
						C1261.3,346.8,1259.5,348.6,1257.3,348.6L1257.3,348.6z"/>
				</g>
			</g>
		</g>
		<g>
			<g>
				<path fill="#FFFFFF" d="M1287.7,340c-6.7,0-12.1-5.4-12.1-12.1c0-6.7,5.4-12.1,12.1-12.1c6.7,0,12.1,5.4,12.1,12.1
					C1299.8,334.6,1294.3,340,1287.7,340L1287.7,340z M1287.7,319.9c-4.4,0-8.1,3.6-8.1,8.1c0,4.5,3.6,8.1,8.1,8.1
					c4.5,0,8.1-3.6,8.1-8.1C1295.7,323.5,1292.1,319.9,1287.7,319.9L1287.7,319.9z"/>
			</g>
			<g>
				<g>
					<path fill="#FFFFFF" d="M1280.1,322.3c-0.5,0-1-0.2-1.4-0.6l-2.8-2.8c-0.8-0.8-0.8-2.1,0-2.8c0.8-0.8,2.1-0.8,2.8,0l2.8,2.8
						c0.8,0.8,0.8,2.1,0,2.8C1281.1,322.1,1280.6,322.3,1280.1,322.3L1280.1,322.3z"/>
				</g>
				<g>
					<path fill="#FFFFFF" d="M1298.1,340.4c-0.5,0-1-0.2-1.4-0.6l-3.3-3.3c-0.8-0.8-0.8-2.1,0-2.8c0.8-0.8,2.1-0.8,2.8,0l3.3,3.3
						c0.8,0.8,0.8,2.1,0,2.8C1299.1,340.2,1298.6,340.4,1298.1,340.4L1298.1,340.4z"/>
				</g>
			</g>
			<g>
				<g>
					<path fill="#FFFFFF" d="M1295.3,322.3c-0.5,0-1-0.2-1.4-0.6c-0.8-0.8-0.8-2.1,0-2.8l2.8-2.8c0.8-0.8,2.1-0.8,2.8,0
						c0.8,0.8,0.8,2.1,0,2.8l-2.8,2.8C1296.3,322.1,1295.8,322.3,1295.3,322.3L1295.3,322.3z"/>
				</g>
				<g>
					<path fill="#FFFFFF" d="M1277.3,340.4c-0.5,0-1-0.2-1.4-0.6c-0.8-0.8-0.8-2.1,0-2.8l3.3-3.3c0.8-0.8,2.1-0.8,2.8,0
						c0.8,0.8,0.8,2.1,0,2.8l-3.3,3.3C1278.3,340.2,1277.8,340.4,1277.3,340.4L1277.3,340.4z"/>
				</g>
			</g>
			<g>
				<g>
					<path fill="#FFFFFF" d="M1287.7,319.2c-1.1,0-2-0.9-2-2v-4c0-1.1,0.9-2,2-2c1.1,0,2,0.9,2,2v4
						C1289.7,318.3,1288.8,319.2,1287.7,319.2L1287.7,319.2z"/>
				</g>
				<g>
					<path fill="#FFFFFF" d="M1287.7,344.7L1287.7,344.7c-1.1,0-2-0.9-2-2l0-4.7c0-1.1,0.9-2,2-2l0,0c1.1,0,2,0.9,2,2l0,4.7
						C1289.7,343.8,1288.8,344.7,1287.7,344.7L1287.7,344.7z"/>
				</g>
			</g>
			<g>
				<g>
					<path fill="#FFFFFF" d="M1302.4,329.9h-4c-1.1,0-2-0.9-2-2c0-1.1,0.9-2,2-2h4c1.1,0,2,0.9,2,2
						C1304.4,329,1303.5,329.9,1302.4,329.9L1302.4,329.9z"/>
				</g>
				<g>
					<path fill="#FFFFFF" d="M1277.6,329.9h-4.7c-1.1,0-2-0.9-2-2c0-1.1,0.9-2,2-2h4.7c1.1,0,2,0.9,2,2
						C1279.7,329,1278.8,329.9,1277.6,329.9L1277.6,329.9z"/>
				</g>
			</g>
		</g>
	</g>
</g>
<g>
	<g>
		<rect x="843.9" y="251.6" fill="#7F888D" width="169.2" height="169.2"/>
		<g>
			<path fill="#FFFFFF" d="M906.6,394.9h5.8c1.6,0,2.8,0.4,3.7,1.3c0.7,0.7,1.1,1.7,1.1,2.9v0c0,2-1.1,3.3-2.7,3.9l3.1,4.5h-3.2
				l-2.7-4h0h-2.1v4h-2.8V394.9z M912.2,401c1.4,0,2.1-0.7,2.1-1.8v0c0-1.2-0.8-1.8-2.2-1.8h-2.8v3.6H912.2z"/>
			<path fill="#FFFFFF" d="M919.3,404.1v-6.2h2.7v5.4c0,1.3,0.6,2,1.7,2c1,0,1.7-0.7,1.7-2v-5.4h2.7v9.7h-2.7v-1.4
				c-0.6,0.8-1.4,1.5-2.8,1.5C920.5,407.7,919.3,406.3,919.3,404.1z"/>
			<path fill="#FFFFFF" d="M933.3,406.3v1.3h-2.7v-13.1h2.7v4.9c0.7-0.9,1.6-1.6,3-1.6c2.3,0,4.4,1.8,4.4,5v0c0,3.2-2.1,5-4.4,5
				C934.9,407.7,934,407,933.3,406.3z M938,402.7L938,402.7c0-1.6-1.1-2.7-2.4-2.7s-2.3,1.1-2.3,2.7v0c0,1.6,1.1,2.7,2.3,2.7
				S938,404.3,938,402.7z"/>
			<path fill="#FFFFFF" d="M942.1,409.8l0.9-2c0.4,0.2,0.8,0.4,1.2,0.4c0.5,0,0.7-0.1,1-0.6l-3.8-9.7h2.9l2.2,6.6l2.1-6.6h2.8
				l-3.7,9.9c-0.7,2-1.5,2.7-3.2,2.7C943.6,410.4,942.8,410.2,942.1,409.8z"/>
		</g>
	</g>
	<g>
		<g>
			<path fill="#FFFFFF" d="M892.7,363.4c-0.6-0.8-1.2-1.9-1-3l10-70.4c0.3-1.9,2-3.2,3.9-3l27.7,2.7c0.8,0.1,1.6,0.4,2.2,1
				l30.4,30.4c0.6,0.6,0.9,1.4,1,2.2l2.7,27.7c0.2,1.9-1.2,3.6-3.1,3.9l-70.8,9.6C894.6,364.6,893.5,364.2,892.7,363.4L892.7,363.4z
				 M908.2,294.4l-8.8,62.3l62.7-8.5l-2.3-23l-28.6-28.6L908.2,294.4L908.2,294.4z"/>
		</g>
		<g>
			<path fill="#FFFFFF" d="M964.7,352.6l-60.8-60.8c-0.5-0.5-0.7-1.3-0.3-2c0.3-0.7,1-1.1,1.8-1l27.7,2.7c0.4,0,0.8,0.2,1.1,0.5
				l30.4,30.4c0.3,0.3,0.5,0.7,0.5,1.1l2.7,27.7c0.1,0.7-0.3,1.5-1,1.8C966.1,353.2,965.3,353.1,964.7,352.6L964.7,352.6z
				 M910,292.8l53.7,53.7l-2.2-22.1L932.1,295L910,292.8L910,292.8z"/>
		</g>
		<g>
			<path fill="#FFFFFF" d="M893.8,362.7c-0.6-0.6-0.7-1.4-0.3-2.1l37.5-67c0.5-0.9,1.6-1.2,2.4-0.7c0.9,0.5,1.2,1.6,0.7,2.4
				l-34.4,61.5l61.5-34.4c0.9-0.5,1.9-0.2,2.4,0.7c0.5,0.9,0.2,1.9-0.7,2.4L896,363C895.3,363.4,894.4,363.3,893.8,362.7
				L893.8,362.7z"/>
		</g>
		<g>
			<path fill="#FFFFFF" d="M934.4,322.1c-0.3-0.3-0.5-0.6-0.5-1.1l-3.1-26.4c-0.1-1,0.6-1.9,1.6-2c1-0.1,1.9,0.6,2,1.6l2.9,25
				l25,2.9c1,0.1,1.7,1,1.6,2c-0.1,1-1,1.7-2,1.6l-26.4-3.1C935.1,322.6,934.7,322.4,934.4,322.1L934.4,322.1z"/>
		</g>
		<g>
			<path fill="#FFFFFF" d="M963.1,350.5c-0.1-0.1-0.2-0.3-0.3-0.4L944,312.5l-37.6-18.8c-0.8-0.4-1.1-1.4-0.7-2.2
				c0.4-0.8,1.4-1.1,2.2-0.7l38.1,19c0.3,0.2,0.6,0.4,0.7,0.7l19,38.2c0.4,0.8,0.1,1.8-0.7,2.2C964.3,351.2,963.6,351,963.1,350.5
				L963.1,350.5z"/>
		</g>
	</g>
</g>
<g>
	<g>
		<rect x="665.4" y="251.8" fill="#7F888D" width="169.2" height="169.2"/>
		<g>
			<path fill="#FFFFFF" d="M718.1,398h2.7v1.9c0.6-1.3,1.5-2.2,3.1-2.1v2.9h-0.1c-1.8,0-2.9,1.1-2.9,3.4v3.6h-2.7V398z"/>
			<path fill="#FFFFFF" d="M724.9,402.9L724.9,402.9c0-2.8,2-5.1,4.8-5.1c3.2,0,4.7,2.5,4.7,5.2c0,0.2,0,0.5,0,0.7h-6.7
				c0.3,1.2,1.1,1.9,2.4,1.9c0.9,0,1.6-0.3,2.3-1l1.6,1.4c-0.9,1.1-2.2,1.8-3.9,1.8C727,407.9,724.9,405.8,724.9,402.9z
				 M731.7,402.1c-0.2-1.2-0.9-2.1-2-2.1c-1.1,0-1.9,0.8-2.1,2.1H731.7z"/>
			<path fill="#FFFFFF" d="M735.9,402.9L735.9,402.9c0-2.8,2.1-5.1,5.1-5.1c1.8,0,3,0.6,3.9,1.6l-1.7,1.8c-0.6-0.6-1.2-1.1-2.2-1.1
				c-1.4,0-2.3,1.2-2.3,2.6v0c0,1.5,1,2.7,2.4,2.7c0.9,0,1.5-0.4,2.2-1l1.6,1.6c-0.9,1-2,1.8-3.9,1.8
				C738.1,407.9,735.9,405.6,735.9,402.9z"/>
			<path fill="#FFFFFF" d="M746.7,394.5h2.9v2.4h-2.9V394.5z M746.8,398h2.7v9.7h-2.7V398z"/>
			<path fill="#FFFFFF" d="M752.1,398h2.7v1.4c0.7-0.9,1.6-1.6,3-1.6c2.2,0,4.4,1.8,4.4,5v0c0,3.2-2.1,5-4.4,5c-1.5,0-2.4-0.7-3-1.4
				v4.1h-2.7V398z M759.5,402.9L759.5,402.9c0-1.6-1.1-2.7-2.4-2.7c-1.3,0-2.3,1.1-2.3,2.7v0c0,1.6,1.1,2.7,2.3,2.7
				C758.4,405.5,759.5,404.5,759.5,402.9z"/>
			<path fill="#FFFFFF" d="M763.8,402.9L763.8,402.9c0-2.8,2-5.1,4.8-5.1c3.2,0,4.7,2.5,4.7,5.2c0,0.2,0,0.5,0,0.7h-6.7
				c0.3,1.2,1.1,1.9,2.4,1.9c0.9,0,1.6-0.3,2.3-1l1.6,1.4c-0.9,1.1-2.2,1.8-3.9,1.8C765.9,407.9,763.8,405.8,763.8,402.9z
				 M770.6,402.1c-0.2-1.2-0.9-2.1-2-2.1c-1.1,0-1.9,0.8-2.1,2.1H770.6z"/>
			<path fill="#FFFFFF" d="M774.5,406.4l1.2-1.8c1,0.8,2.1,1.2,3,1.2c0.8,0,1.2-0.3,1.2-0.7v0c0-0.6-0.9-0.8-2-1.1
				c-1.3-0.4-2.9-1-2.9-2.9v0c0-2,1.6-3.1,3.5-3.1c1.2,0,2.6,0.4,3.6,1.1l-1,1.9c-1-0.6-1.9-0.9-2.6-0.9c-0.7,0-1,0.3-1,0.7v0
				c0,0.5,0.9,0.8,2,1.2c1.4,0.5,2.9,1.1,2.9,2.9v0c0,2.1-1.6,3.1-3.7,3.1C777.3,407.8,775.8,407.4,774.5,406.4z"/>
		</g>
	</g>
	<g>
		<path fill="#FFFFFF" d="M773.2,356.7v-83.9c0-1-0.8-1.8-1.8-1.8h-63.1c-1,0-1.8,0.8-1.8,1.8v83.9c0,1,0.8,1.8,1.8,1.8h63.1
			C772.4,358.5,773.2,357.7,773.2,356.7z M748,280.4h8.8c1,0,1.8,0.8,1.8,1.8c0,1-0.8,1.8-1.8,1.8H748c-1,0-1.8-0.8-1.8-1.8
			C746.2,281.2,747,280.4,748,280.4z M755.9,289.9c0,1-0.8,1.8-1.8,1.8h-31.7c-1,0-1.8-0.8-1.8-1.8c0-1,0.8-1.8,1.8-1.8h31.7
			C755.1,288.2,755.9,289,755.9,289.9z M732.7,280.4h8.8c1,0,1.8,0.8,1.8,1.8c0,1-0.8,1.8-1.8,1.8h-8.8c-1,0-1.8-0.8-1.8-1.8
			C730.9,281.2,731.7,280.4,732.7,280.4z M717.5,280.4h8.8c1,0,1.8,0.8,1.8,1.8c0,1-0.8,1.8-1.8,1.8h-8.8c-1,0-1.8-0.8-1.8-1.8
			C715.7,281.2,716.5,280.4,717.5,280.4z M747.9,306.5h-25.5c-1,0-1.8-0.8-1.8-1.8c0-1,0.8-1.8,1.8-1.8h25.5c1,0,1.8,0.8,1.8,1.8
			C749.6,305.7,748.8,306.5,747.9,306.5z M749.6,312.1c0,1-0.8,1.8-1.8,1.8h-25.5c-1,0-1.8-0.8-1.8-1.8c0-1,0.8-1.8,1.8-1.8h25.5
			C748.8,310.3,749.6,311.1,749.6,312.1z M726.3,329.2h-8.8c-1,0-1.8-0.8-1.8-1.8c0-1,0.8-1.8,1.8-1.8h8.8c1,0,1.8,0.8,1.8,1.8
			C728.1,328.4,727.3,329.2,726.3,329.2z M761.6,321.5h-39.2c-1,0-1.8-0.8-1.8-1.8c0-1,0.8-1.8,1.8-1.8h39.2c1,0,1.8,0.8,1.8,1.8
			C763.4,320.7,762.6,321.5,761.6,321.5z M761.6,299.4h-39.2c-1,0-1.8-0.8-1.8-1.8c0-1,0.8-1.8,1.8-1.8h39.2c1,0,1.8,0.8,1.8,1.8
			C763.4,298.6,762.6,299.4,761.6,299.4z"/>
		<path fill="#FFFFFF" d="M783.3,370.4h-63.1c-1,0-1.8-0.8-1.8-1.8v-4.1h59c1,0,1.8-0.8,1.8-1.8v-79.8h4.2c1,0,1.8,0.8,1.8,1.8v83.9
			C785.1,369.6,784.3,370.4,783.3,370.4z"/>
		<path fill="#FFFFFF" d="M797,296.6v83.9c0,1-0.8,1.8-1.8,1.8h-63.1c-1,0-1.8-0.8-1.8-1.8v-4.1h59c1,0,1.8-0.8,1.8-1.8v-79.8h4.1
			C796.2,294.8,797,295.6,797,296.6z"/>
	</g>
</g>
<g>
	<g>
		<rect x="1380.9" y="251.7" fill="#7F888D" width="169.2" height="169.2"/>
		<g>
			<path fill="#FFFFFF" d="M1438.7,398h2.7v1.4c0.7-0.9,1.6-1.6,3-1.6c2.3,0,4.4,1.8,4.4,5v0c0,3.2-2.1,5-4.4,5
				c-1.5,0-2.4-0.7-3-1.4v4.1h-2.7V398z M1446.1,402.8L1446.1,402.8c0-1.6-1.1-2.7-2.4-2.7s-2.3,1.1-2.3,2.7v0
				c0,1.6,1.1,2.7,2.3,2.7S1446.1,404.4,1446.1,402.8z"/>
			<path fill="#FFFFFF" d="M1450.4,402.8L1450.4,402.8c0-2.8,2.2-5.1,5.2-5.1c3,0,5.2,2.2,5.2,5v0c0,2.8-2.2,5-5.2,5
				C1452.6,407.8,1450.4,405.6,1450.4,402.8z M1458.2,402.8L1458.2,402.8c0-1.5-1-2.7-2.5-2.7c-1.6,0-2.5,1.2-2.5,2.6v0
				c0,1.4,1,2.7,2.5,2.7C1457.2,405.5,1458.2,404.3,1458.2,402.8z"/>
			<path fill="#FFFFFF" d="M1463,394.5h2.7v13.1h-2.7V394.5z"/>
			<path fill="#FFFFFF" d="M1468.3,394.5h2.9v2.4h-2.9V394.5z M1468.4,398h2.7v9.7h-2.7V398z"/>
			<path fill="#FFFFFF" d="M1473.2,402.8L1473.2,402.8c0-2.8,2.1-5.1,5.1-5.1c1.8,0,3,0.6,3.9,1.6l-1.7,1.8
				c-0.6-0.6-1.2-1.1-2.2-1.1c-1.4,0-2.3,1.2-2.3,2.6v0c0,1.5,1,2.7,2.4,2.7c0.9,0,1.5-0.4,2.2-1l1.6,1.6c-0.9,1-2,1.8-3.9,1.8
				C1475.4,407.8,1473.2,405.6,1473.2,402.8z"/>
			<path fill="#FFFFFF" d="M1483.8,409.9l0.9-2c0.4,0.2,0.8,0.4,1.2,0.4c0.5,0,0.7-0.1,1-0.6l-3.8-9.7h2.9l2.2,6.6l2.1-6.6h2.8
				l-3.7,9.9c-0.7,2-1.5,2.7-3.2,2.7C1485.2,410.6,1484.5,410.3,1483.8,409.9z"/>
		</g>
	</g>
	<g>
		<g>
			<path fill="#FFFFFF" d="M1511,376.3h-89.8c-2.4,0-4.3-1.9-4.3-4.3v-30.3c0-2.4,1.9-4.3,4.3-4.3h27.8c2.4,0,4.3,1.9,4.3,4.3v6
				h25.7v-6c0-2.4,1.9-4.3,4.3-4.3h27.8c2.4,0,4.3,1.9,4.3,4.3V372C1515.3,374.4,1513.4,376.3,1511,376.3L1511,376.3z M1425.5,367.7
				h81.2V346h-19.2v1.8c0,4.7-3.8,8.6-8.6,8.6h-25.7c-4.7,0-8.6-3.8-8.6-8.6V346h-19.2V367.7L1425.5,367.7z"/>
		</g>
		<g>
			<path fill="#FFFFFF" d="M1506.2,345.4c-2.4,0-4.3-1.9-4.3-4.3v-29.9h-70.5v29.9c0,2.4-1.9,4.3-4.3,4.3c-2.4,0-4.3-1.9-4.3-4.3
				v-34.2c0-2.4,1.9-4.3,4.3-4.3h79.1c2.4,0,4.3,1.9,4.3,4.3v34.2C1510.5,343.4,1508.6,345.4,1506.2,345.4L1506.2,345.4z"/>
		</g>
		<g>
			<path fill="#FFFFFF" d="M1501.3,298.3h-69.1c-1.2,0-2.1-1-2.1-2.1c0-1.2,1-2.1,2.1-2.1h69.1c1.2,0,2.1,1,2.1,2.1
				C1503.4,297.4,1502.4,298.3,1501.3,298.3L1501.3,298.3z"/>
		</g>
		<g>
			<path fill="#FFFFFF" d="M1497.2,289.8h-60.9c-1.2,0-2.1-1-2.1-2.1c0-1.2,1-2.1,2.1-2.1h60.9c1.2,0,2.1,1,2.1,2.1
				C1499.3,288.8,1498.3,289.8,1497.2,289.8L1497.2,289.8z"/>
		</g>
	</g>
</g>
<g>
	<g>
		<g>
			<path fill="#FFFFFF" d="M213.1,276.1c0.5,0,1,0.2,1.5,0.5c1.1,0.8,1.4,2.4,0.6,3.5l-11.7,16.1l11.7,16.1c0.8,1.1,0.6,2.7-0.6,3.5
				c-1.1,0.8-2.7,0.6-3.5-0.6l-12.8-17.5c-0.6-0.9-0.6-2.1,0-2.9l12.8-17.5C211.5,276.5,212.3,276.1,213.1,276.1L213.1,276.1z"/>
		</g>
	</g>
	<g>
		<g>
			<path fill="#FFFFFF" d="M229.7,276.1c0.5,0,1,0.2,1.5,0.5c1.1,0.8,1.4,2.4,0.6,3.5L220,296.1l11.7,16.1c0.8,1.1,0.6,2.7-0.6,3.5
				c-1.1,0.8-2.7,0.6-3.5-0.6l-12.8-17.5c-0.6-0.9-0.6-2.1,0-2.9l12.8-17.5C228.2,276.5,228.9,276.1,229.7,276.1L229.7,276.1z"/>
		</g>
	</g>
</g>
<g>
	<g>
		<g>
			<path fill="#FFFFFF" d="M206.9,396.5c-0.5,0-1-0.2-1.5-0.5c-1.1-0.8-1.4-2.4-0.6-3.5l11.7-16.1l-11.7-16.1
				c-0.8-1.1-0.6-2.7,0.6-3.5c1.1-0.8,2.7-0.6,3.5,0.6l12.8,17.5c0.6,0.9,0.6,2.1,0,2.9L209,395.5
				C208.5,396.1,207.7,396.5,206.9,396.5L206.9,396.5z"/>
		</g>
	</g>
	<g>
		<g>
			<path fill="#FFFFFF" d="M190.3,396.5c-0.5,0-1-0.2-1.5-0.5c-1.1-0.8-1.4-2.4-0.6-3.5l11.7-16.1l-11.7-16.1
				c-0.8-1.1-0.6-2.7,0.6-3.5c1.1-0.8,2.7-0.6,3.5,0.6l12.8,17.5c0.6,0.9,0.6,2.1,0,2.9l-12.8,17.5
				C191.8,396.1,191.1,396.5,190.3,396.5L190.3,396.5z"/>
		</g>
	</g>
</g>
<g>
	<g>
		<g>
			<path fill="#FFFFFF" d="M1576.5,113.5c-0.5,0-1-0.2-1.5-0.5c-1.1-0.8-1.4-2.4-0.6-3.5l11.7-16.1l-11.7-16.1
				c-0.8-1.1-0.6-2.7,0.6-3.5c1.1-0.8,2.7-0.6,3.5,0.6l12.8,17.5c0.6,0.9,0.6,2.1,0,2.9l-12.8,17.5
				C1578.1,113.2,1577.3,113.5,1576.5,113.5L1576.5,113.5z"/>
		</g>
	</g>
	<g>
		<g>
			<path fill="#FFFFFF" d="M1559.9,113.5c-0.5,0-1-0.2-1.5-0.5c-1.1-0.8-1.4-2.4-0.6-3.5l11.7-16.1l-11.7-16.1
				c-0.8-1.1-0.6-2.7,0.6-3.5c1.1-0.8,2.7-0.6,3.5,0.6l12.8,17.5c0.6,0.9,0.6,2.1,0,2.9l-12.8,17.5
				C1561.4,113.2,1560.7,113.5,1559.9,113.5L1559.9,113.5z"/>
		</g>
	</g>
</g>
<g>
	<g>
		<g>
			<path fill="#FFFFFF" d="M436.1,364.9c0-0.7,0.6-1.3,1.3-1.3h32.1c0.7,0,1.3,0.6,1.3,1.3c0,0.7-0.6,1.3-1.3,1.3h-32.1
				C436.6,366.2,436.1,365.6,436.1,364.9L436.1,364.9z"/>
		</g>
		<g>
			<path fill="#FFFFFF" d="M436.1,378.8c0-0.7,0.6-1.3,1.3-1.3h32.1c0.7,0,1.3,0.6,1.3,1.3c0,0.7-0.6,1.3-1.3,1.3h-32.1
				C436.6,380.1,436.1,379.5,436.1,378.8L436.1,378.8z"/>
		</g>
		<g>
			<path fill="#FFFFFF" d="M436.1,392.7c0-0.7,0.6-1.3,1.3-1.3h32.1c0.7,0,1.3,0.6,1.3,1.3c0,0.7-0.6,1.3-1.3,1.3h-32.1
				C436.6,394,436.1,393.4,436.1,392.7L436.1,392.7z"/>
		</g>
		<g>
			<polygon fill="#FFFFFF" points="451.9,368.7 451.9,361.1 471,361.1 471,368.7 451.9,368.7 			"/>
		</g>
		<g>
			<polygon fill="#FFFFFF" points="451.9,382.6 451.9,375 471,375 471,382.6 451.9,382.6 			"/>
		</g>
		<g>
			<polygon fill="#FFFFFF" points="451.9,396.5 451.9,388.9 471,388.9 471,396.5 451.9,396.5 			"/>
		</g>
	</g>
	<g>
		<g>
			<path fill="#FFFFFF" d="M436.1,323.1c0-0.7,0.6-1.3,1.3-1.3h32.1c0.7,0,1.3,0.6,1.3,1.3c0,0.7-0.6,1.3-1.3,1.3h-32.1
				C436.6,324.3,436.1,323.8,436.1,323.1L436.1,323.1z"/>
		</g>
		<g>
			<path fill="#FFFFFF" d="M436.1,337c0-0.7,0.6-1.3,1.3-1.3h32.1c0.7,0,1.3,0.6,1.3,1.3c0,0.7-0.6,1.3-1.3,1.3h-32.1
				C436.6,338.2,436.1,337.7,436.1,337L436.1,337z"/>
		</g>
		<g>
			<path fill="#FFFFFF" d="M436.1,350.9c0-0.7,0.6-1.3,1.3-1.3h32.1c0.7,0,1.3,0.6,1.3,1.3c0,0.7-0.6,1.3-1.3,1.3h-32.1
				C436.6,352.1,436.1,351.6,436.1,350.9L436.1,350.9z"/>
		</g>
		<g>
			<polygon fill="#FFFFFF" points="451.9,326.9 451.9,319.3 471,319.3 471,326.9 451.9,326.9 			"/>
		</g>
		<g>
			<polygon fill="#FFFFFF" points="451.9,340.8 451.9,333.2 471,333.2 471,340.8 451.9,340.8 			"/>
		</g>
		<g>
			<polygon fill="#FFFFFF" points="451.9,354.7 451.9,347.1 471,347.1 471,354.7 451.9,354.7 			"/>
		</g>
	</g>
	<g>
		<g>
			<path fill="#FFFFFF" d="M436.1,281.2c0-0.7,0.6-1.3,1.3-1.3h32.1c0.7,0,1.3,0.6,1.3,1.3c0,0.7-0.6,1.3-1.3,1.3h-32.1
				C436.6,282.5,436.1,281.9,436.1,281.2L436.1,281.2z"/>
		</g>
		<g>
			<path fill="#FFFFFF" d="M436.1,295.1c0-0.7,0.6-1.3,1.3-1.3h32.1c0.7,0,1.3,0.6,1.3,1.3c0,0.7-0.6,1.3-1.3,1.3h-32.1
				C436.6,296.4,436.1,295.8,436.1,295.1L436.1,295.1z"/>
		</g>
		<g>
			<path fill="#FFFFFF" d="M436.1,309c0-0.7,0.6-1.3,1.3-1.3h32.1c0.7,0,1.3,0.6,1.3,1.3c0,0.7-0.6,1.3-1.3,1.3h-32.1
				C436.6,310.3,436.1,309.7,436.1,309L436.1,309z"/>
		</g>
		<g>
			<polygon fill="#FFFFFF" points="451.9,285 451.9,277.4 471,277.4 471,285 451.9,285 			"/>
		</g>
		<g>
			<polygon fill="#FFFFFF" points="451.9,298.9 451.9,291.3 471,291.3 471,298.9 451.9,298.9 			"/>
		</g>
		<g>
			<polygon fill="#FFFFFF" points="451.9,312.8 451.9,305.2 471,305.2 471,312.8 451.9,312.8 			"/>
		</g>
	</g>
</g>
<g>
	<rect x="475.7" y="1" fill="#D1D3D4" width="1083.7" height="190.1"/>
	<g>
		<g>
			<rect x="843.8" y="12" fill="#455565" width="169.2" height="169.2"/>
			<g>
				<path fill="#FFFFFF" d="M885.7,158.3h2.7v1.9c0.6-1.3,1.5-2.2,3.1-2.1v2.9h-0.1c-1.8,0-2.9,1.1-2.9,3.4v3.6h-2.7V158.3z"/>
				<path fill="#FFFFFF" d="M892.5,163.1L892.5,163.1c0-2.8,2-5.1,4.8-5.1c3.2,0,4.7,2.5,4.7,5.2c0,0.2,0,0.5,0,0.7h-6.7
					c0.3,1.2,1.1,1.9,2.4,1.9c0.9,0,1.6-0.3,2.3-1l1.6,1.4c-0.9,1.1-2.2,1.8-3.9,1.8C894.6,168.1,892.5,166.1,892.5,163.1z
					 M899.3,162.3c-0.2-1.2-0.9-2.1-2-2.1c-1.1,0-1.9,0.8-2.1,2.1H899.3z"/>
				<path fill="#FFFFFF" d="M903.2,166.6l1.2-1.8c1,0.8,2.1,1.2,3,1.2c0.8,0,1.2-0.3,1.2-0.7v0c0-0.6-0.9-0.8-2-1.1
					c-1.4-0.4-2.9-1-2.9-2.9v0c0-2,1.6-3.1,3.5-3.1c1.2,0,2.6,0.4,3.6,1.1l-1,1.9c-1-0.6-1.9-0.9-2.6-0.9c-0.7,0-1,0.3-1,0.7v0
					c0,0.5,0.9,0.8,2,1.2c1.3,0.5,2.9,1.1,2.9,2.9v0c0,2.1-1.6,3.1-3.7,3.1C906,168.1,904.5,167.6,903.2,166.6z"/>
				<path fill="#FFFFFF" d="M912.6,163.1L912.6,163.1c0-2.8,2.2-5.1,5.2-5.1c3,0,5.2,2.2,5.2,5v0c0,2.8-2.2,5-5.2,5
					C914.8,168.1,912.6,165.9,912.6,163.1z M920.3,163.1L920.3,163.1c0-1.5-1-2.7-2.5-2.7c-1.6,0-2.5,1.2-2.5,2.6v0
					c0,1.4,1,2.7,2.5,2.7C919.4,165.8,920.3,164.6,920.3,163.1z"/>
				<path fill="#FFFFFF" d="M924.9,164.5v-6.2h2.7v5.4c0,1.3,0.6,2,1.7,2s1.7-0.7,1.7-2v-5.4h2.7v9.7H931v-1.4
					c-0.6,0.8-1.4,1.5-2.8,1.5C926.1,168.1,924.9,166.7,924.9,164.5z"/>
				<path fill="#FFFFFF" d="M936.2,158.3h2.7v1.9c0.6-1.3,1.5-2.2,3.1-2.1v2.9h-0.1c-1.8,0-2.9,1.1-2.9,3.4v3.6h-2.7V158.3z"/>
				<path fill="#FFFFFF" d="M943,163.1L943,163.1c0-2.8,2.1-5.1,5.1-5.1c1.8,0,3,0.6,3.9,1.6l-1.7,1.8c-0.6-0.6-1.2-1.1-2.2-1.1
					c-1.4,0-2.3,1.2-2.3,2.6v0c0,1.5,1,2.7,2.4,2.7c0.9,0,1.5-0.4,2.2-1l1.6,1.6c-0.9,1-2,1.8-3.9,1.8
					C945.1,168.1,943,165.9,943,163.1z"/>
				<path fill="#FFFFFF" d="M953,163.1L953,163.1c0-2.8,2-5.1,4.8-5.1c3.2,0,4.7,2.5,4.7,5.2c0,0.2,0,0.5,0,0.7h-6.7
					c0.3,1.2,1.1,1.9,2.4,1.9c0.9,0,1.6-0.3,2.3-1l1.6,1.4c-0.9,1.1-2.2,1.8-3.9,1.8C955.1,168.1,953,166.1,953,163.1z M959.8,162.3
					c-0.2-1.2-0.9-2.1-2-2.1c-1.1,0-1.9,0.8-2.1,2.1H959.8z"/>
				<path fill="#FFFFFF" d="M963.7,166.6l1.2-1.8c1,0.8,2.1,1.2,3,1.2c0.8,0,1.2-0.3,1.2-0.7v0c0-0.6-0.9-0.8-2-1.1
					c-1.4-0.4-2.9-1-2.9-2.9v0c0-2,1.6-3.1,3.5-3.1c1.2,0,2.6,0.4,3.6,1.1l-1,1.9c-1-0.6-1.9-0.9-2.6-0.9c-0.7,0-1,0.3-1,0.7v0
					c0,0.5,0.9,0.8,2,1.2c1.3,0.5,2.9,1.1,2.9,2.9v0c0,2.1-1.6,3.1-3.7,3.1C966.5,168.1,965,167.6,963.7,166.6z"/>
			</g>
		</g>
		<g>
			<g>
				<path fill="#FFFFFF" d="M927,99c-0.7,0-1.4-0.2-2.1-0.5L875.8,71c-1.3-0.7-2.2-2.2-2.2-3.7c0-1.5,0.8-2.9,2.2-3.7l48.8-27.3
					c1.3-0.7,2.9-0.7,4.1,0l49.1,27.5c1.3,0.7,2.2,2.2,2.2,3.7s-0.8,2.9-2.2,3.7l-48.8,27.3C928.5,98.9,927.7,99,927,99L927,99z
					 M886.5,67.3L927,90l40.2-22.5l-40.5-22.7L886.5,67.3L886.5,67.3z"/>
			</g>
			<g>
				<path fill="#FFFFFF" d="M927,118c-0.7,0-1.4-0.2-2.1-0.5L875.8,90c-2-1.1-2.8-3.7-1.6-5.7c1.1-2,3.7-2.8,5.7-1.6L927,109
					l46.7-26.2c2-1.1,4.6-0.4,5.7,1.6c1.1,2,0.4,4.6-1.6,5.7l-48.8,27.3C928.5,117.9,927.7,118,927,118L927,118z"/>
			</g>
			<g>
				<path fill="#FFFFFF" d="M927,137c-0.7,0-1.4-0.2-2.1-0.5L875.8,109c-2-1.1-2.8-3.7-1.6-5.7c1.1-2,3.7-2.8,5.7-1.6L927,128
					l46.7-26.2c2-1.1,4.6-0.4,5.7,1.6c1.1,2,0.4,4.6-1.6,5.7l-48.8,27.3C928.5,136.9,927.7,137,927,137L927,137z"/>
			</g>
		</g>
	</g>
	<g>
		<g>
			<rect x="1201.1" y="11.7" fill="#455565" width="169.2" height="169.2"/>
			<g>
				<path fill="#FFFFFF" d="M1265.6,164.8v-4.6h-1.2v-2.3h1.2v-2.5h2.7v2.5h2.3v2.3h-2.3v4.1c0,0.6,0.3,0.9,0.9,0.9
					c0.5,0,1-0.1,1.4-0.3v2.2c-0.6,0.3-1.2,0.6-2.2,0.6C1266.7,167.7,1265.6,167.1,1265.6,164.8z"/>
				<path fill="#FFFFFF" d="M1271.9,162.8L1271.9,162.8c0-2.8,2-5.1,4.8-5.1c3.2,0,4.7,2.5,4.7,5.2c0,0.2,0,0.5,0,0.7h-6.7
					c0.3,1.2,1.1,1.9,2.4,1.9c0.9,0,1.6-0.3,2.3-1l1.6,1.4c-0.9,1.1-2.2,1.8-3.9,1.8C1274,167.8,1271.9,165.8,1271.9,162.8z
					 M1278.7,162c-0.2-1.2-0.9-2.1-2-2.1c-1.1,0-1.9,0.8-2.1,2.1H1278.7z"/>
				<path fill="#FFFFFF" d="M1282.6,166.3l1.2-1.8c1,0.8,2.1,1.2,3,1.2c0.8,0,1.2-0.3,1.2-0.7v0c0-0.6-0.9-0.8-2-1.1
					c-1.3-0.4-2.9-1-2.9-2.9v0c0-2,1.6-3.1,3.5-3.1c1.2,0,2.6,0.4,3.6,1.1l-1,1.9c-1-0.6-1.9-0.9-2.6-0.9c-0.7,0-1,0.3-1,0.7v0
					c0,0.5,0.9,0.8,2,1.2c1.4,0.5,2.9,1.1,2.9,2.9v0c0,2.1-1.6,3.1-3.7,3.1C1285.4,167.8,1283.9,167.3,1282.6,166.3z"/>
				<path fill="#FFFFFF" d="M1292.7,164.8v-4.6h-1.2v-2.3h1.2v-2.5h2.7v2.5h2.3v2.3h-2.3v4.1c0,0.6,0.3,0.9,0.9,0.9
					c0.5,0,1-0.1,1.4-0.3v2.2c-0.6,0.3-1.2,0.6-2.2,0.6C1293.8,167.7,1292.7,167.1,1292.7,164.8z"/>
				<path fill="#FFFFFF" d="M1298.9,166.3l1.2-1.8c1,0.8,2.1,1.2,3,1.2c0.8,0,1.2-0.3,1.2-0.7v0c0-0.6-0.9-0.8-2-1.1
					c-1.4-0.4-2.9-1-2.9-2.9v0c0-2,1.6-3.1,3.5-3.1c1.2,0,2.6,0.4,3.6,1.1l-1,1.9c-1-0.6-1.9-0.9-2.6-0.9c-0.7,0-1,0.3-1,0.7v0
					c0,0.5,0.9,0.8,2,1.2c1.3,0.5,2.9,1.1,2.9,2.9v0c0,2.1-1.6,3.1-3.7,3.1C1301.7,167.8,1300.2,167.3,1298.9,166.3z"/>
			</g>
		</g>
		<g>
			<g>
				<path fill="#FFFFFF" d="M1280.2,104.6c-1.1,0-2.1-0.4-2.9-1.2L1267,92.6c-1.5-1.6-1.4-4.1,0.1-5.6c1.6-1.5,4.1-1.5,5.6,0.1
					l7.2,7.5l19.8-24.2c1.4-1.7,3.9-1.9,5.6-0.6c1.7,1.4,1.9,3.9,0.5,5.6l-22.7,27.6c-0.7,0.9-1.8,1.4-2.9,1.4
					C1280.3,104.6,1280.2,104.6,1280.2,104.6L1280.2,104.6z"/>
			</g>
			<g>
				<path fill="#FFFFFF" d="M1329.6,135.9h-86.4c-2.2,0-4-1.8-4-4V45.6c0-2.2,1.8-4,4-4h86.4c2.2,0,4,1.8,4,4V132
					C1333.5,134.2,1331.8,135.9,1329.6,135.9L1329.6,135.9z M1247.1,128h78.5V49.5h-78.5V128L1247.1,128z"/>
			</g>
		</g>
	</g>
	<g>
		<g>
			<rect x="486.1" y="12" fill="#455565" width="169.2" height="169.2"/>
			<g>
				<path fill="#FFFFFF" d="M526.8,165.1L526.8,165.1c0-2.1,1.6-3.1,3.9-3.1c1,0,1.7,0.2,2.4,0.4v-0.2c0-1.1-0.7-1.8-2.1-1.8
					c-1,0-1.8,0.2-2.7,0.5l-0.7-2.1c1.1-0.5,2.1-0.8,3.7-0.8c1.5,0,2.6,0.4,3.3,1.1c0.7,0.7,1,1.8,1,3.1v5.6H533v-1
					c-0.7,0.7-1.6,1.2-2.9,1.2C528.3,168.1,526.8,167,526.8,165.1z M533.1,164.5V164c-0.5-0.2-1.1-0.4-1.7-0.4
					c-1.2,0-1.9,0.5-1.9,1.3v0c0,0.7,0.6,1.2,1.5,1.2C532.2,166.2,533.1,165.5,533.1,164.5z"/>
				<path fill="#FFFFFF" d="M538.4,165.2v-4.6h-1.2v-2.3h1.2v-2.5h2.7v2.5h2.3v2.3h-2.3v4.1c0,0.6,0.3,0.9,0.9,0.9
					c0.5,0,1-0.1,1.4-0.3v2.2c-0.6,0.3-1.2,0.6-2.2,0.6C539.5,168.1,538.4,167.4,538.4,165.2z"/>
				<path fill="#FFFFFF" d="M545.8,165.2v-4.6h-1.2v-2.3h1.2v-2.5h2.7v2.5h2.3v2.3h-2.3v4.1c0,0.6,0.3,0.9,0.9,0.9
					c0.5,0,1-0.1,1.4-0.3v2.2c-0.6,0.3-1.2,0.6-2.2,0.6C547,168.1,545.8,167.4,545.8,165.2z"/>
				<path fill="#FFFFFF" d="M552.9,158.3h2.7v1.9c0.6-1.3,1.5-2.2,3.1-2.1v2.9h-0.1c-1.8,0-2.9,1.1-2.9,3.4v3.6h-2.7V158.3z"/>
				<path fill="#FFFFFF" d="M560.4,154.8h2.9v2.4h-2.9V154.8z M560.5,158.3h2.7v9.7h-2.7V158.3z"/>
				<path fill="#FFFFFF" d="M568.6,166.6v1.3h-2.7v-13.1h2.7v4.9c0.7-0.9,1.6-1.6,3-1.6c2.3,0,4.4,1.8,4.4,5v0c0,3.2-2.1,5-4.4,5
					C570.1,168.1,569.2,167.4,568.6,166.6z M573.2,163.1L573.2,163.1c0-1.6-1.1-2.7-2.4-2.7c-1.3,0-2.3,1.1-2.3,2.7v0
					c0,1.6,1.1,2.7,2.3,2.7C572.1,165.8,573.2,164.7,573.2,163.1z"/>
				<path fill="#FFFFFF" d="M577.9,164.5v-6.2h2.7v5.4c0,1.3,0.6,2,1.7,2c1,0,1.7-0.7,1.7-2v-5.4h2.7v9.7H584v-1.4
					c-0.6,0.8-1.4,1.5-2.8,1.5C579.1,168.1,577.9,166.7,577.9,164.5z"/>
				<path fill="#FFFFFF" d="M589.6,165.2v-4.6h-1.2v-2.3h1.2v-2.5h2.7v2.5h2.3v2.3h-2.3v4.1c0,0.6,0.3,0.9,0.9,0.9
					c0.5,0,1-0.1,1.4-0.3v2.2c-0.6,0.3-1.2,0.6-2.2,0.6C590.8,168.1,589.6,167.4,589.6,165.2z"/>
				<path fill="#FFFFFF" d="M595.9,163.1L595.9,163.1c0-2.8,2-5.1,4.8-5.1c3.2,0,4.7,2.5,4.7,5.2c0,0.2,0,0.5,0,0.7h-6.7
					c0.3,1.2,1.1,1.9,2.4,1.9c0.9,0,1.6-0.3,2.3-1l1.6,1.4c-0.9,1.1-2.2,1.8-3.9,1.8C598.1,168.1,595.9,166.1,595.9,163.1z
					 M602.7,162.3c-0.2-1.2-0.9-2.1-2-2.1c-1.1,0-1.9,0.8-2.1,2.1H602.7z"/>
				<path fill="#FFFFFF" d="M606.7,166.6l1.2-1.8c1,0.8,2.1,1.2,3,1.2c0.8,0,1.2-0.3,1.2-0.7v0c0-0.6-0.9-0.8-2-1.1
					c-1.4-0.4-2.9-1-2.9-2.9v0c0-2,1.6-3.1,3.5-3.1c1.2,0,2.6,0.4,3.6,1.1l-1,1.9c-1-0.6-1.9-0.9-2.6-0.9c-0.7,0-1,0.3-1,0.7v0
					c0,0.5,0.9,0.8,2,1.2c1.4,0.5,2.9,1.1,2.9,2.9v0c0,2.1-1.6,3.1-3.7,3.1C609.5,168.1,607.9,167.6,606.7,166.6z"/>
			</g>
		</g>
		<g>
			<g>
				<g>
					<g>
						<path fill="#FFFFFF" d="M575.7,112.2c-3.8,0-6.8-3.1-6.8-6.8c0-3.8,3.1-6.8,6.8-6.8c3.8,0,6.8,3.1,6.8,6.8
							C582.5,109.2,579.4,112.2,575.7,112.2L575.7,112.2z M575.7,100.9c-2.5,0-4.6,2-4.6,4.6c0,2.5,2,4.6,4.6,4.6
							c2.5,0,4.6-2,4.6-4.6C580.2,102.9,578.2,100.9,575.7,100.9L575.7,100.9z"/>
					</g>
					<g>
						<g>
							<path fill="#FFFFFF" d="M571.4,102.3c-0.3,0-0.6-0.1-0.8-0.3l-1.6-1.6c-0.4-0.4-0.4-1.2,0-1.6c0.4-0.4,1.2-0.4,1.6,0l1.6,1.6
								c0.4,0.4,0.4,1.2,0,1.6C572,102.1,571.7,102.3,571.4,102.3L571.4,102.3z"/>
						</g>
						<g>
							<path fill="#FFFFFF" d="M581.5,112.4c-0.3,0-0.6-0.1-0.8-0.3l-1.9-1.9c-0.4-0.4-0.4-1.2,0-1.6c0.4-0.4,1.2-0.4,1.6,0l1.9,1.9
								c0.4,0.4,0.4,1.2,0,1.6C582.1,112.3,581.8,112.4,581.5,112.4L581.5,112.4z"/>
						</g>
					</g>
					<g>
						<g>
							<path fill="#FFFFFF" d="M580,102.3c-0.3,0-0.6-0.1-0.8-0.3c-0.4-0.4-0.4-1.2,0-1.6l1.6-1.6c0.4-0.4,1.2-0.4,1.6,0
								c0.4,0.4,0.4,1.2,0,1.6l-1.6,1.6C580.5,102.2,580.2,102.3,580,102.3L580,102.3z"/>
						</g>
						<g>
							<path fill="#FFFFFF" d="M569.8,112.4c-0.3,0-0.6-0.1-0.8-0.3c-0.4-0.4-0.4-1.2,0-1.6l1.9-1.9c0.4-0.4,1.2-0.4,1.6,0
								c0.4,0.4,0.4,1.2,0,1.6l-1.9,1.9C570.4,112.3,570.1,112.4,569.8,112.4L569.8,112.4z"/>
						</g>
					</g>
					<g>
						<g>
							<path fill="#FFFFFF" d="M575.7,100.5c-0.6,0-1.1-0.5-1.1-1.1v-2.2c0-0.6,0.5-1.1,1.1-1.1c0.6,0,1.1,0.5,1.1,1.1v2.2
								C576.8,100,576.3,100.5,575.7,100.5L575.7,100.5z"/>
						</g>
						<g>
							<path fill="#FFFFFF" d="M575.7,114.9L575.7,114.9c-0.6,0-1.1-0.5-1.1-1.1l0-2.6c0-0.6,0.5-1.1,1.1-1.1l0,0
								c0.6,0,1.1,0.5,1.1,1.1l0,2.6C576.8,114.4,576.3,114.9,575.7,114.9L575.7,114.9z"/>
						</g>
					</g>
					<g>
						<g>
							<path fill="#FFFFFF" d="M584,106.6h-2.2c-0.6,0-1.1-0.5-1.1-1.1c0-0.6,0.5-1.1,1.1-1.1h2.2c0.6,0,1.1,0.5,1.1,1.1
								C585.1,106,584.6,106.6,584,106.6L584,106.6z"/>
						</g>
						<g>
							<path fill="#FFFFFF" d="M570,106.6h-2.6c-0.6,0-1.1-0.5-1.1-1.1c0-0.6,0.5-1.1,1.1-1.1h2.6c0.6,0,1.1,0.5,1.1,1.1
								C571.1,106,570.6,106.6,570,106.6L570,106.6z"/>
						</g>
					</g>
				</g>
				<g>
					<g>
						<path fill="#FFFFFF" d="M591.5,119.9c-2.9,0-5.2-2.3-5.2-5.2c0-2.9,2.3-5.2,5.2-5.2c2.9,0,5.2,2.3,5.2,5.2
							C596.7,117.6,594.4,119.9,591.5,119.9L591.5,119.9z M591.5,111.3c-1.9,0-3.5,1.6-3.5,3.5c0,1.9,1.6,3.5,3.5,3.5
							c1.9,0,3.5-1.6,3.5-3.5C595,112.8,593.4,111.3,591.5,111.3L591.5,111.3z"/>
					</g>
					<g>
						<g>
							<path fill="#FFFFFF" d="M588.3,112.3c-0.2,0-0.4-0.1-0.6-0.3l-1.2-1.2c-0.3-0.3-0.3-0.9,0-1.2c0.3-0.3,0.9-0.3,1.2,0l1.2,1.2
								c0.3,0.3,0.3,0.9,0,1.2C588.7,112.2,588.5,112.3,588.3,112.3L588.3,112.3z"/>
						</g>
						<g>
							<path fill="#FFFFFF" d="M596,120.1c-0.2,0-0.4-0.1-0.6-0.3l-1.4-1.4c-0.3-0.3-0.3-0.9,0-1.2c0.3-0.3,0.9-0.3,1.2,0l1.4,1.4
								c0.3,0.3,0.3,0.9,0,1.2C596.4,120,596.2,120.1,596,120.1L596,120.1z"/>
						</g>
					</g>
					<g>
						<g>
							<path fill="#FFFFFF" d="M594.8,112.3c-0.2,0-0.4-0.1-0.6-0.3c-0.3-0.3-0.3-0.9,0-1.2l1.2-1.2c0.3-0.3,0.9-0.3,1.2,0
								c0.3,0.3,0.3,0.9,0,1.2l-1.2,1.2C595.2,112.2,595,112.3,594.8,112.3L594.8,112.3z"/>
						</g>
						<g>
							<path fill="#FFFFFF" d="M587.1,120.1c-0.2,0-0.4-0.1-0.6-0.3c-0.3-0.3-0.3-0.9,0-1.2l1.4-1.4c0.3-0.3,0.9-0.3,1.2,0
								c0.3,0.3,0.3,0.9,0,1.2l-1.4,1.4C587.5,120,587.3,120.1,587.1,120.1L587.1,120.1z"/>
						</g>
					</g>
					<g>
						<g>
							<path fill="#FFFFFF" d="M591.5,111c-0.5,0-0.9-0.4-0.9-0.9v-1.7c0-0.5,0.4-0.9,0.9-0.9c0.5,0,0.9,0.4,0.9,0.9v1.7
								C592.4,110.6,592,111,591.5,111L591.5,111z"/>
						</g>
						<g>
							<path fill="#FFFFFF" d="M591.5,121.9L591.5,121.9c-0.5,0-0.9-0.4-0.9-0.9l0-2c0-0.5,0.4-0.9,0.9-0.9l0,0
								c0.5,0,0.9,0.4,0.9,0.9l0,2C592.4,121.5,592,121.9,591.5,121.9L591.5,121.9z"/>
						</g>
					</g>
					<g>
						<g>
							<path fill="#FFFFFF" d="M597.9,115.6h-1.7c-0.5,0-0.9-0.4-0.9-0.9c0-0.5,0.4-0.9,0.9-0.9h1.7c0.5,0,0.9,0.4,0.9,0.9
								C598.7,115.2,598.3,115.6,597.9,115.6L597.9,115.6z"/>
						</g>
						<g>
							<path fill="#FFFFFF" d="M587.2,115.6h-2c-0.5,0-0.9-0.4-0.9-0.9c0-0.5,0.4-0.9,0.9-0.9h2c0.5,0,0.9,0.4,0.9,0.9
								C588.1,115.2,587.7,115.6,587.2,115.6L587.2,115.6z"/>
						</g>
					</g>
				</g>
				<g>
					<g>
						<path fill="#FFFFFF" d="M579,124.8c-2.1,0-3.8-1.7-3.8-3.8c0-2.1,1.7-3.8,3.8-3.8c2.1,0,3.8,1.7,3.8,3.8
							C582.8,123.1,581.1,124.8,579,124.8L579,124.8z M579,118.5c-1.4,0-2.5,1.1-2.5,2.5c0,1.4,1.1,2.5,2.5,2.5
							c1.4,0,2.5-1.1,2.5-2.5C581.5,119.6,580.4,118.5,579,118.5L579,118.5z"/>
					</g>
					<g>
						<g>
							<path fill="#FFFFFF" d="M576.6,119.3c-0.2,0-0.3-0.1-0.4-0.2l-0.9-0.9c-0.2-0.2-0.2-0.6,0-0.9c0.2-0.2,0.6-0.2,0.9,0l0.9,0.9
								c0.2,0.2,0.2,0.6,0,0.9C576.9,119.2,576.8,119.3,576.6,119.3L576.6,119.3z"/>
						</g>
						<g>
							<path fill="#FFFFFF" d="M582.2,124.9c-0.2,0-0.3-0.1-0.4-0.2l-1-1c-0.2-0.2-0.2-0.6,0-0.9c0.2-0.2,0.6-0.2,0.9,0l1,1
								c0.2,0.2,0.2,0.6,0,0.9C582.5,124.8,582.4,124.9,582.2,124.9L582.2,124.9z"/>
						</g>
					</g>
					<g>
						<g>
							<path fill="#FFFFFF" d="M581.4,119.3c-0.2,0-0.3-0.1-0.4-0.2c-0.2-0.2-0.2-0.6,0-0.9l0.9-0.9c0.2-0.2,0.6-0.2,0.9,0
								c0.2,0.2,0.2,0.6,0,0.9l-0.9,0.9C581.7,119.2,581.5,119.3,581.4,119.3L581.4,119.3z"/>
						</g>
						<g>
							<path fill="#FFFFFF" d="M575.7,124.9c-0.2,0-0.3-0.1-0.4-0.2c-0.2-0.2-0.2-0.6,0-0.9l1-1c0.2-0.2,0.6-0.2,0.9,0
								c0.2,0.2,0.2,0.6,0,0.9l-1,1C576.1,124.8,575.9,124.9,575.7,124.9L575.7,124.9z"/>
						</g>
					</g>
					<g>
						<g>
							<path fill="#FFFFFF" d="M579,118.3c-0.3,0-0.6-0.3-0.6-0.6v-1.2c0-0.3,0.3-0.6,0.6-0.6c0.3,0,0.6,0.3,0.6,0.6v1.2
								C579.6,118,579.3,118.3,579,118.3L579,118.3z"/>
						</g>
						<g>
							<path fill="#FFFFFF" d="M579,126.2L579,126.2c-0.3,0-0.6-0.3-0.6-0.6l0-1.5c0-0.3,0.3-0.6,0.6-0.6l0,0c0.3,0,0.6,0.3,0.6,0.6
								l0,1.5C579.6,126,579.3,126.2,579,126.2L579,126.2z"/>
						</g>
					</g>
					<g>
						<g>
							<path fill="#FFFFFF" d="M583.6,121.6h-1.2c-0.3,0-0.6-0.3-0.6-0.6c0-0.3,0.3-0.6,0.6-0.6h1.2c0.3,0,0.6,0.3,0.6,0.6
								C584.2,121.4,583.9,121.6,583.6,121.6L583.6,121.6z"/>
						</g>
						<g>
							<path fill="#FFFFFF" d="M575.8,121.6h-1.5c-0.3,0-0.6-0.3-0.6-0.6c0-0.3,0.3-0.6,0.6-0.6h1.5c0.3,0,0.6,0.3,0.6,0.6
								C576.5,121.4,576.2,121.6,575.8,121.6L575.8,121.6z"/>
						</g>
					</g>
				</g>
			</g>
			<g>
				<g>
					<path fill="#FFFFFF" d="M588.3,82.6h-31.4c-1.1,0-2-0.9-2-2V62.8c0-1.1,0.9-2,2-2h31.4c1.1,0,2,0.9,2,2v17.7
						C590.4,81.6,589.5,82.6,588.3,82.6L588.3,82.6z M559,78.5h27.3V64.8H559V78.5L559,78.5z"/>
				</g>
				<g>
					<g>
						<path fill="#FFFFFF" d="M605.5,138.7h-70.2c-2.3,0-4.1-1.8-4.1-4.1V46.3c0-2.3,1.8-4.1,4.1-4.1h70.2c2.3,0,4.1,1.8,4.1,4.1
							v88.3C609.6,136.9,607.8,138.7,605.5,138.7L605.5,138.7z M539.4,130.5h62V50.4h-62V130.5L539.4,130.5z"/>
					</g>
					<g>
						<path fill="#FFFFFF" d="M542.5,66.9h-14.3c-2.3,0-4.1-1.8-4.1-4.1c0-2.3,1.8-4.1,4.1-4.1h14.3c2.3,0,4.1,1.8,4.1,4.1
							C546.6,65.1,544.7,66.9,542.5,66.9L542.5,66.9z"/>
					</g>
					<g>
						<path fill="#FFFFFF" d="M542.5,85.2h-14.3c-2.3,0-4.1-1.8-4.1-4.1c0-2.3,1.8-4.1,4.1-4.1h14.3c2.3,0,4.1,1.8,4.1,4.1
							C546.6,83.3,544.7,85.2,542.5,85.2L542.5,85.2z"/>
					</g>
					<g>
						<path fill="#FFFFFF" d="M542.5,103.5h-14.3c-2.3,0-4.1-1.8-4.1-4.1s1.8-4.1,4.1-4.1h14.3c2.3,0,4.1,1.8,4.1,4.1
							S544.7,103.5,542.5,103.5L542.5,103.5z"/>
					</g>
					<g>
						<path fill="#FFFFFF" d="M542.5,121.7h-14.3c-2.3,0-4.1-1.8-4.1-4.1c0-2.3,1.8-4.1,4.1-4.1h14.3c2.3,0,4.1,1.8,4.1,4.1
							C546.6,119.9,544.7,121.7,542.5,121.7L542.5,121.7z"/>
					</g>
				</g>
			</g>
		</g>
	</g>
	<g>
		<g>
			<rect x="664.6" y="11.2" fill="#445464" width="169.2" height="169.2"/>
			<g>
				<path fill="#FFFFFF" d="M732,159.7h-1.1v-2.3h1.1v-0.6c0-1.1,0.3-1.8,0.8-2.3c0.5-0.5,1.2-0.8,2.2-0.8c0.9,0,1.4,0.1,1.9,0.3
					v2.3c-0.4-0.1-0.8-0.2-1.2-0.2c-0.6,0-1,0.3-1,1v0.4h2.2v2.2h-2.2v7.3H732V159.7z"/>
				<path fill="#FFFFFF" d="M738.5,153.9h2.9v2.4h-2.9V153.9z M738.5,157.4h2.7v9.7h-2.7V157.4z"/>
				<path fill="#FFFFFF" d="M744,153.9h2.7V167H744V153.9z"/>
				<path fill="#FFFFFF" d="M748.8,162.3L748.8,162.3c0-2.8,2-5.1,4.8-5.1c3.2,0,4.7,2.5,4.7,5.2c0,0.2,0,0.5,0,0.7h-6.7
					c0.3,1.2,1.1,1.9,2.4,1.9c0.9,0,1.6-0.3,2.3-1l1.6,1.4c-0.9,1.1-2.2,1.8-3.9,1.8C750.9,167.3,748.8,165.2,748.8,162.3z
					 M755.6,161.5c-0.2-1.2-0.9-2.1-2-2.1c-1.1,0-1.9,0.8-2.1,2.1H755.6z"/>
				<path fill="#FFFFFF" d="M759.6,165.8l1.2-1.8c1,0.8,2.1,1.2,3,1.2c0.8,0,1.2-0.3,1.2-0.7v0c0-0.6-0.9-0.8-2-1.1
					c-1.4-0.4-2.9-1-2.9-2.9v0c0-2,1.6-3.1,3.5-3.1c1.2,0,2.6,0.4,3.6,1.1l-1,1.9c-1-0.6-1.9-0.9-2.6-0.9c-0.7,0-1,0.3-1,0.7v0
					c0,0.5,0.9,0.8,2,1.2c1.4,0.5,2.9,1.1,2.9,2.9v0c0,2.1-1.6,3.1-3.7,3.1C762.3,167.2,760.8,166.8,759.6,165.8z"/>
			</g>
		</g>
		<g>
			<g>
				<g>
					<path fill="#FFFFFF" d="M770.7,80.8h-31.4c-1.1,0-2-0.9-2-2V61c0-1.1,0.9-2,2-2h31.4c1.1,0,2,0.9,2,2v17.7
						C772.7,79.9,771.8,80.8,770.7,80.8L770.7,80.8z M741.3,76.7h27.3V63.1h-27.3V76.7L741.3,76.7z"/>
				</g>
				<g>
					<g>
						<path fill="#FFFFFF" d="M787.9,136.9h-70.2c-2.3,0-4.1-1.8-4.1-4.1V44.6c0-2.3,1.8-4.1,4.1-4.1h70.2c2.3,0,4.1,1.8,4.1,4.1
							v88.3C792,135.1,790.1,136.9,787.9,136.9L787.9,136.9z M721.8,128.8h62V48.7h-62V128.8L721.8,128.8z"/>
					</g>
					<g>
						<path fill="#FFFFFF" d="M724.8,65.2h-14.3c-2.3,0-4.1-1.8-4.1-4.1s1.8-4.1,4.1-4.1h14.3c2.3,0,4.1,1.8,4.1,4.1
							S727.1,65.2,724.8,65.2L724.8,65.2z"/>
					</g>
					<g>
						<path fill="#FFFFFF" d="M724.8,83.4h-14.3c-2.3,0-4.1-1.8-4.1-4.1c0-2.3,1.8-4.1,4.1-4.1h14.3c2.3,0,4.1,1.8,4.1,4.1
							C728.9,81.6,727.1,83.4,724.8,83.4L724.8,83.4z"/>
					</g>
					<g>
						<path fill="#FFFFFF" d="M724.8,101.7h-14.3c-2.3,0-4.1-1.8-4.1-4.1s1.8-4.1,4.1-4.1h14.3c2.3,0,4.1,1.8,4.1,4.1
							S727.1,101.7,724.8,101.7L724.8,101.7z"/>
					</g>
					<g>
						<path fill="#FFFFFF" d="M724.8,120h-14.3c-2.3,0-4.1-1.8-4.1-4.1c0-2.3,1.8-4.1,4.1-4.1h14.3c2.3,0,4.1,1.8,4.1,4.1
							C728.9,118.2,727.1,120,724.8,120L724.8,120z"/>
					</g>
				</g>
			</g>
			<g>
				<g>
					<g>
						<path fill="#FFFFFF" d="M753.2,124.2c-0.2,0-0.4-0.1-0.6-0.2c-0.3-0.2-0.5-0.5-0.5-0.9v-21.3c0-0.4,0.3-0.8,0.7-1l12-4.5
							c0.3-0.1,0.7-0.1,1,0.1c0.3,0.2,0.5,0.5,0.5,0.9v21.3c0,0.4-0.3,0.8-0.7,1l-12,4.5C753.4,124.2,753.3,124.2,753.2,124.2
							L753.2,124.2z M754.3,102.6v19l9.9-3.7v-19L754.3,102.6L754.3,102.6z"/>
					</g>
					<g>
						<path fill="#FFFFFF" d="M755.7,107c-0.2,0-0.4-0.1-0.5-0.3c-0.1-0.3,0-0.6,0.3-0.7l7.2-2.7c0.3-0.1,0.6,0,0.7,0.3
							c0.1,0.3,0,0.6-0.3,0.7l-7.2,2.7C755.8,107,755.7,107,755.7,107L755.7,107z"/>
					</g>
					<g>
						<path fill="#FFFFFF" d="M755.7,113.9c-0.2,0-0.4-0.1-0.5-0.3c-0.1-0.3,0-0.6,0.3-0.7l7.2-2.7c0.3-0.1,0.6,0,0.7,0.3
							c0.1,0.3,0,0.6-0.3,0.7l-7.2,2.7C755.8,113.9,755.7,113.9,755.7,113.9L755.7,113.9z"/>
					</g>
					<g>
						<path fill="#FFFFFF" d="M755.7,117.4c-0.2,0-0.4-0.1-0.5-0.3c-0.1-0.3,0-0.6,0.3-0.7l7.2-2.7c0.3-0.1,0.6,0,0.7,0.3
							c0.1,0.3,0,0.6-0.3,0.7l-7.2,2.7C755.8,117.4,755.7,117.4,755.7,117.4L755.7,117.4z"/>
					</g>
					<g>
						<path fill="#FFFFFF" d="M755.7,110.5c-0.2,0-0.4-0.1-0.5-0.3c-0.1-0.3,0-0.6,0.3-0.7l7.2-2.7c0.3-0.1,0.6,0,0.7,0.3
							c0.1,0.3,0,0.6-0.3,0.7l-7.2,2.7C755.8,110.5,755.7,110.5,755.7,110.5L755.7,110.5z"/>
					</g>
				</g>
				<g>
					<g>
						<path fill="#FFFFFF" d="M772.8,122c-0.3,0-0.5-0.2-0.5-0.5v-6.2c0-0.2,0.1-0.3,0.2-0.4c0.1-0.1,0.3-0.1,0.5-0.1l4.4,1.7
							c0.3,0.1,0.4,0.4,0.3,0.7c-0.1,0.3-0.4,0.4-0.7,0.3l-3.7-1.4v5.4C773.3,121.7,773.1,122,772.8,122L772.8,122z"/>
					</g>
					<g>
						<path fill="#FFFFFF" d="M772.8,122.5c-0.1,0-0.3,0-0.4-0.1l-7.6-2.9c-0.4-0.2-0.7-0.6-0.7-1V97.3c0-0.4,0.2-0.7,0.5-0.9
							c0.3-0.2,0.7-0.2,1-0.1l12,4.5c0.4,0.2,0.7,0.6,0.7,1l0,15c0,0.3-0.1,0.5-0.3,0.7l-4.4,4.5
							C773.3,122.4,773.1,122.5,772.8,122.5L772.8,122.5z M766.3,117.8l6.2,2.4l3.6-3.7l0-13.9l-9.9-3.7V117.8L766.3,117.8z"/>
					</g>
					<g>
						<path fill="#FFFFFF" d="M775,107.1c-0.1,0-0.1,0-0.2,0l-7.2-2.7c-0.3-0.1-0.4-0.4-0.3-0.7c0.1-0.3,0.4-0.4,0.7-0.3l7.2,2.7
							c0.3,0.1,0.4,0.4,0.3,0.7C775.4,107,775.2,107.1,775,107.1L775,107.1z"/>
					</g>
					<g>
						<path fill="#FFFFFF" d="M775,114c-0.1,0-0.1,0-0.2,0l-7.2-2.7c-0.3-0.1-0.4-0.4-0.3-0.7c0.1-0.3,0.4-0.4,0.7-0.3l7.2,2.7
							c0.3,0.1,0.4,0.4,0.3,0.7C775.4,113.9,775.2,114,775,114L775,114z"/>
					</g>
					<g>
						<path fill="#FFFFFF" d="M775,110.6c-0.1,0-0.1,0-0.2,0l-7.2-2.7c-0.3-0.1-0.4-0.4-0.3-0.7c0.1-0.3,0.4-0.4,0.7-0.3l7.2,2.7
							c0.3,0.1,0.4,0.4,0.3,0.7C775.4,110.4,775.2,110.6,775,110.6L775,110.6z"/>
					</g>
				</g>
			</g>
		</g>
	</g>
	<g>
		<g>
			<rect x="1022.1" y="11.7" fill="#445464" width="169.2" height="169.2"/>
			<g>
				<path fill="#FFFFFF" d="M1067.5,164.9v-4.6h-1.2v-2.3h1.2v-2.5h2.7v2.5h2.3v2.3h-2.3v4.1c0,0.6,0.3,0.9,0.9,0.9
					c0.5,0,1-0.1,1.4-0.3v2.2c-0.6,0.3-1.2,0.6-2.2,0.6C1068.6,167.8,1067.5,167.1,1067.5,164.9z"/>
				<path fill="#FFFFFF" d="M1073.8,162.8L1073.8,162.8c0-2.8,2-5.1,4.8-5.1c3.2,0,4.7,2.5,4.7,5.2c0,0.2,0,0.5,0,0.7h-6.7
					c0.3,1.2,1.1,1.9,2.4,1.9c0.9,0,1.6-0.3,2.3-1l1.6,1.4c-0.9,1.1-2.2,1.8-3.9,1.8C1075.9,167.8,1073.8,165.8,1073.8,162.8z
					 M1080.6,162c-0.2-1.2-0.9-2.1-2-2.1c-1.1,0-1.9,0.8-2.1,2.1H1080.6z"/>
				<path fill="#FFFFFF" d="M1085.3,157.9h2.7v1.4c0.6-0.8,1.5-1.5,2.8-1.5c1.3,0,2.2,0.6,2.7,1.5c0.8-1,1.9-1.5,3.2-1.5
					c2,0,3.3,1.2,3.3,3.5v6.3h-2.7v-5.4c0-1.3-0.6-2-1.6-2s-1.7,0.7-1.7,2v5.4h-2.7v-5.4c0-1.3-0.6-2-1.6-2s-1.7,0.7-1.7,2v5.4h-2.7
					V157.9z"/>
				<path fill="#FFFFFF" d="M1102.4,157.9h2.7v1.4c0.7-0.9,1.6-1.6,3-1.6c2.3,0,4.4,1.8,4.4,5v0c0,3.2-2.1,5-4.4,5
					c-1.5,0-2.4-0.7-3-1.4v4.1h-2.7V157.9z M1109.8,162.8L1109.8,162.8c0-1.6-1.1-2.7-2.4-2.7s-2.3,1.1-2.3,2.7v0
					c0,1.6,1.1,2.7,2.3,2.7S1109.8,164.4,1109.8,162.8z"/>
				<path fill="#FFFFFF" d="M1114.7,154.4h2.7v13.1h-2.7V154.4z"/>
				<path fill="#FFFFFF" d="M1119.4,164.8L1119.4,164.8c0-2.1,1.6-3.1,3.9-3.1c1,0,1.7,0.2,2.4,0.4v-0.2c0-1.1-0.7-1.8-2.1-1.8
					c-1,0-1.8,0.2-2.7,0.5l-0.7-2.1c1.1-0.5,2.1-0.8,3.7-0.8c1.5,0,2.6,0.4,3.3,1.1c0.7,0.7,1,1.8,1,3.1v5.6h-2.6v-1
					c-0.7,0.7-1.6,1.2-2.9,1.2C1120.9,167.8,1119.4,166.7,1119.4,164.8z M1125.7,164.2v-0.5c-0.5-0.2-1.1-0.4-1.7-0.4
					c-1.2,0-1.9,0.5-1.9,1.3v0c0,0.7,0.6,1.2,1.5,1.2C1124.8,165.9,1125.7,165.2,1125.7,164.2z"/>
				<path fill="#FFFFFF" d="M1131,164.9v-4.6h-1.2v-2.3h1.2v-2.5h2.7v2.5h2.3v2.3h-2.3v4.1c0,0.6,0.3,0.9,0.9,0.9
					c0.5,0,1-0.1,1.4-0.3v2.2c-0.6,0.3-1.2,0.6-2.2,0.6C1132.1,167.8,1131,167.1,1131,164.9z"/>
				<path fill="#FFFFFF" d="M1137.3,162.8L1137.3,162.8c0-2.8,2-5.1,4.8-5.1c3.2,0,4.7,2.5,4.7,5.2c0,0.2,0,0.5,0,0.7h-6.7
					c0.3,1.2,1.1,1.9,2.4,1.9c0.9,0,1.6-0.3,2.3-1l1.6,1.4c-0.9,1.1-2.2,1.8-3.9,1.8C1139.4,167.8,1137.3,165.8,1137.3,162.8z
					 M1144.1,162c-0.2-1.2-0.9-2.1-2-2.1c-1.1,0-1.9,0.8-2.1,2.1H1144.1z"/>
			</g>
		</g>
		<g>
			<g>
				<g>
					<g>
						<path fill="#FFFFFF" d="M1106.5,122.1c-0.2,0-0.4-0.1-0.6-0.2c-0.3-0.2-0.5-0.5-0.5-0.9V99.5c0-0.5,0.3-0.9,0.7-1l12.2-4.6
							c0.3-0.1,0.7-0.1,1,0.1c0.3,0.2,0.5,0.5,0.5,0.9v21.6c0,0.5-0.3,0.9-0.7,1l-12.2,4.6C1106.7,122.1,1106.6,122.1,1106.5,122.1
							L1106.5,122.1z M1107.6,100.2v19.3l10-3.8V96.4L1107.6,100.2L1107.6,100.2z"/>
					</g>
				</g>
				<g>
					<g>
						<path fill="#FFFFFF" d="M1131,122.1c-0.1,0-0.3,0-0.4-0.1l-12.2-4.6c-0.4-0.2-0.7-0.6-0.7-1V94.8c0-0.4,0.2-0.7,0.5-0.9
							c0.3-0.2,0.7-0.2,1-0.1l12.2,4.6c0.4,0.2,0.7,0.6,0.7,1V121c0,0.4-0.2,0.7-0.5,0.9C1131.4,122.1,1131.2,122.1,1131,122.1
							L1131,122.1z M1119.9,115.7l10,3.8v-19.3l-10-3.8V115.7L1119.9,115.7z"/>
					</g>
				</g>
			</g>
			<g>
				<g>
					<path fill="#FFFFFF" d="M1125.2,79.4h-31.4c-1.1,0-2-0.9-2-2V59.6c0-1.1,0.9-2,2-2h31.4c1.1,0,2,0.9,2,2v17.7
						C1127.2,78.4,1126.3,79.4,1125.2,79.4L1125.2,79.4z M1095.8,75.3h27.3V61.6h-27.3V75.3L1095.8,75.3z"/>
				</g>
				<g>
					<g>
						<path fill="#FFFFFF" d="M1142.4,135.5h-70.2c-2.3,0-4.1-1.8-4.1-4.1V43.1c0-2.3,1.8-4.1,4.1-4.1h70.2c2.3,0,4.1,1.8,4.1,4.1
							v88.3C1146.5,133.7,1144.6,135.5,1142.4,135.5L1142.4,135.5z M1076.2,127.3h62V47.2h-62V127.3L1076.2,127.3z"/>
					</g>
					<g>
						<path fill="#FFFFFF" d="M1079.3,63.7H1065c-2.3,0-4.1-1.8-4.1-4.1s1.8-4.1,4.1-4.1h14.3c2.3,0,4.1,1.8,4.1,4.1
							S1081.6,63.7,1079.3,63.7L1079.3,63.7z"/>
					</g>
					<g>
						<path fill="#FFFFFF" d="M1079.3,82H1065c-2.3,0-4.1-1.8-4.1-4.1c0-2.3,1.8-4.1,4.1-4.1h14.3c2.3,0,4.1,1.8,4.1,4.1
							C1083.4,80.2,1081.6,82,1079.3,82L1079.3,82z"/>
					</g>
					<g>
						<path fill="#FFFFFF" d="M1079.3,100.3H1065c-2.3,0-4.1-1.8-4.1-4.1s1.8-4.1,4.1-4.1h14.3c2.3,0,4.1,1.8,4.1,4.1
							S1081.6,100.3,1079.3,100.3L1079.3,100.3z"/>
					</g>
					<g>
						<path fill="#FFFFFF" d="M1079.3,118.5H1065c-2.3,0-4.1-1.8-4.1-4.1c0-2.3,1.8-4.1,4.1-4.1h14.3c2.3,0,4.1,1.8,4.1,4.1
							C1083.4,116.7,1081.6,118.5,1079.3,118.5L1079.3,118.5z"/>
					</g>
				</g>
			</g>
		</g>
	</g>
	<g>
		<g>
			<rect x="1381.1" y="11.3" fill="#455565" width="169.2" height="169.2"/>
			<g>
				<path fill="#FFFFFF" d="M1431.4,158.4h2.7l2,5.9l2-5.9h2.6l-3.5,8.9h-2.3L1431.4,158.4z"/>
				<path fill="#FFFFFF" d="M1441.2,162.9L1441.2,162.9c0-2.6,1.8-4.6,4.4-4.6c3,0,4.3,2.3,4.3,4.8c0,0.2,0,0.4,0,0.7h-6.2
					c0.2,1.1,1,1.7,2.2,1.7c0.8,0,1.5-0.3,2.1-0.9l1.4,1.3c-0.8,1-2,1.6-3.6,1.6C1443.1,167.4,1441.2,165.6,1441.2,162.9z
					 M1447.4,162.1c-0.1-1.1-0.8-1.9-1.9-1.9c-1,0-1.7,0.7-1.9,1.9H1447.4z"/>
				<path fill="#FFFFFF" d="M1451.7,158.4h2.5v1.8c0.5-1.2,1.3-2,2.8-1.9v2.6h-0.1c-1.7,0-2.7,1-2.7,3.1v3.3h-2.5V158.4z"/>
				<path fill="#FFFFFF" d="M1457.9,166.1l1.1-1.6c1,0.7,2,1.1,2.8,1.1c0.7,0,1.1-0.3,1.1-0.7v0c0-0.5-0.9-0.7-1.8-1
					c-1.2-0.4-2.6-0.9-2.6-2.7v0c0-1.8,1.5-2.8,3.2-2.8c1.1,0,2.3,0.4,3.3,1l-1,1.7c-0.9-0.5-1.7-0.8-2.4-0.8
					c-0.6,0-0.9,0.3-0.9,0.6v0c0,0.5,0.8,0.7,1.8,1.1c1.2,0.4,2.7,1,2.7,2.6v0c0,2-1.5,2.9-3.4,2.9
					C1460.5,167.4,1459.1,167,1457.9,166.1z"/>
				<path fill="#FFFFFF" d="M1467,155.2h2.6v2.2h-2.6V155.2z M1467,158.4h2.5v8.8h-2.5V158.4z"/>
				<path fill="#FFFFFF" d="M1471.5,162.9L1471.5,162.9c0-2.6,2-4.6,4.8-4.6c2.7,0,4.8,2,4.8,4.6v0c0,2.5-2,4.6-4.8,4.6
					C1473.5,167.4,1471.5,165.4,1471.5,162.9z M1478.5,162.9L1478.5,162.9c0-1.3-0.9-2.5-2.3-2.5c-1.4,0-2.3,1.1-2.3,2.4v0
					c0,1.3,0.9,2.4,2.3,2.4C1477.7,165.3,1478.5,164.2,1478.5,162.9z"/>
				<path fill="#FFFFFF" d="M1482.8,158.4h2.5v1.3c0.6-0.7,1.3-1.4,2.6-1.4c1.9,0,3,1.3,3,3.3v5.7h-2.5v-4.9c0-1.2-0.6-1.8-1.5-1.8
					c-1,0-1.6,0.6-1.6,1.8v4.9h-2.5V158.4z"/>
				<path fill="#FFFFFF" d="M1492.4,166.1l1.1-1.6c1,0.7,2,1.1,2.8,1.1c0.7,0,1.1-0.3,1.1-0.7v0c0-0.5-0.9-0.7-1.8-1
					c-1.2-0.4-2.6-0.9-2.6-2.7v0c0-1.8,1.5-2.8,3.2-2.8c1.1,0,2.3,0.4,3.3,1l-1,1.7c-0.9-0.5-1.7-0.8-2.4-0.8
					c-0.6,0-0.9,0.3-0.9,0.6v0c0,0.5,0.8,0.7,1.8,1.1c1.2,0.4,2.7,1,2.7,2.6v0c0,2-1.5,2.9-3.4,2.9
					C1495,167.4,1493.6,167,1492.4,166.1z"/>
			</g>
		</g>
		<g>
			<g>
				<g>
					<g>
						<path fill="#FFFFFF" d="M1485.2,82.6h-31.4c-1.1,0-2-0.9-2-2V62.9c0-1.1,0.9-2,2-2h31.4c1.1,0,2,0.9,2,2v17.7
							C1487.2,81.7,1486.3,82.6,1485.2,82.6L1485.2,82.6z M1455.8,78.5h27.3V64.9h-27.3V78.5L1455.8,78.5z"/>
					</g>
					<g>
						<g>
							<path fill="#FFFFFF" d="M1502.4,138.8h-70.2c-2.3,0-4.1-1.8-4.1-4.1V46.4c0-2.3,1.8-4.1,4.1-4.1h70.2c2.3,0,4.1,1.8,4.1,4.1
								v88.3C1506.5,136.9,1504.6,138.8,1502.4,138.8L1502.4,138.8z M1436.2,130.6h62V50.5h-62V130.6L1436.2,130.6z"/>
						</g>
						<g>
							<path fill="#FFFFFF" d="M1439.3,67H1425c-2.3,0-4.1-1.8-4.1-4.1c0-2.3,1.8-4.1,4.1-4.1h14.3c2.3,0,4.1,1.8,4.1,4.1
								C1443.4,65.2,1441.6,67,1439.3,67L1439.3,67z"/>
						</g>
						<g>
							<path fill="#FFFFFF" d="M1439.3,85.3H1425c-2.3,0-4.1-1.8-4.1-4.1c0-2.3,1.8-4.1,4.1-4.1h14.3c2.3,0,4.1,1.8,4.1,4.1
								C1443.4,83.4,1441.6,85.3,1439.3,85.3L1439.3,85.3z"/>
						</g>
						<g>
							<path fill="#FFFFFF" d="M1439.3,103.5H1425c-2.3,0-4.1-1.8-4.1-4.1s1.8-4.1,4.1-4.1h14.3c2.3,0,4.1,1.8,4.1,4.1
								S1441.6,103.5,1439.3,103.5L1439.3,103.5z"/>
						</g>
						<g>
							<path fill="#FFFFFF" d="M1439.3,121.8H1425c-2.3,0-4.1-1.8-4.1-4.1c0-2.3,1.8-4.1,4.1-4.1h14.3c2.3,0,4.1,1.8,4.1,4.1
								C1443.4,120,1441.6,121.8,1439.3,121.8L1439.3,121.8z"/>
						</g>
					</g>
				</g>
			</g>
			<path fill="#FFFFFF" d="M1473,119.3c-1.9,0-3.4,1.5-3.4,3.4c0,1.9,1.5,3.4,3.4,3.4c1.9,0,3.4-1.5,3.4-3.4
				C1476.4,120.9,1474.9,119.3,1473,119.3L1473,119.3z"/>
			<path fill="#FFFFFF" d="M1481.9,119.3c-1.9,0-3.4,1.5-3.4,3.4c0,1.9,1.5,3.4,3.4,3.4c1.9,0,3.4-1.5,3.4-3.4
				C1485.3,120.9,1483.8,119.3,1481.9,119.3L1481.9,119.3z"/>
			<path fill="#FFFFFF" d="M1490.8,119.3c-1.9,0-3.4,1.5-3.4,3.4c0,1.9,1.5,3.4,3.4,3.4c1.9,0,3.4-1.5,3.4-3.4
				C1494.1,120.9,1492.6,119.3,1490.8,119.3L1490.8,119.3z"/>
		</g>
	</g>
	<g>
		<g>
			<rect x="485.8" y="251.6" fill="#445464" width="169.2" height="169.2"/>
			<g>
				<path fill="#FFFFFF" d="M521,402.7L521,402.7c0-2.8,2.1-5.1,5.1-5.1c1.8,0,3,0.6,3.9,1.6l-1.7,1.8c-0.6-0.6-1.2-1.1-2.2-1.1
					c-1.4,0-2.3,1.2-2.3,2.6v0c0,1.5,1,2.7,2.4,2.7c0.9,0,1.5-0.4,2.2-1l1.6,1.6c-0.9,1-2,1.8-3.9,1.8
					C523.1,407.7,521,405.5,521,402.7z"/>
				<path fill="#FFFFFF" d="M531,402.7L531,402.7c0-2.8,2.2-5.1,5.2-5.1c3,0,5.2,2.2,5.2,5v0c0,2.8-2.2,5-5.2,5
					C533.2,407.7,531,405.5,531,402.7z M538.8,402.7L538.8,402.7c0-1.5-1-2.7-2.5-2.7c-1.6,0-2.5,1.2-2.5,2.6v0c0,1.4,1,2.7,2.5,2.7
					C537.8,405.4,538.8,404.2,538.8,402.7z"/>
				<path fill="#FFFFFF" d="M543,402.7L543,402.7c0-2.8,2.2-5.1,5.2-5.1c3,0,5.2,2.2,5.2,5v0c0,2.8-2.2,5-5.2,5
					C545.2,407.7,543,405.5,543,402.7z M550.7,402.7L550.7,402.7c0-1.5-1-2.7-2.5-2.7c-1.6,0-2.5,1.2-2.5,2.6v0c0,1.4,1,2.7,2.5,2.7
					C549.8,405.4,550.7,404.2,550.7,402.7z"/>
				<path fill="#FFFFFF" d="M555.4,394.4h2.7v7l3.2-3.5h3.3l-3.7,3.8l3.8,5.9h-3.1l-2.5-3.9l-1,1v2.9h-2.7V394.4z"/>
				<path fill="#FFFFFF" d="M568.8,406.3v1.3H566v-13.1h2.7v4.9c0.7-0.9,1.6-1.6,3-1.6c2.3,0,4.4,1.8,4.4,5v0c0,3.2-2.1,5-4.4,5
					C570.3,407.7,569.4,407,568.8,406.3z M573.4,402.7L573.4,402.7c0-1.6-1.1-2.7-2.4-2.7c-1.3,0-2.3,1.1-2.3,2.7v0
					c0,1.6,1.1,2.7,2.3,2.7C572.4,405.4,573.4,404.3,573.4,402.7z"/>
				<path fill="#FFFFFF" d="M577.7,402.7L577.7,402.7c0-2.8,2.2-5.1,5.2-5.1c3,0,5.2,2.2,5.2,5v0c0,2.8-2.2,5-5.2,5
					C579.9,407.7,577.7,405.5,577.7,402.7z M585.5,402.7L585.5,402.7c0-1.5-1-2.7-2.5-2.7c-1.6,0-2.5,1.2-2.5,2.6v0
					c0,1.4,1,2.7,2.5,2.7C584.5,405.4,585.5,404.2,585.5,402.7z"/>
				<path fill="#FFFFFF" d="M589.7,402.7L589.7,402.7c0-2.8,2.2-5.1,5.2-5.1c3,0,5.2,2.2,5.2,5v0c0,2.8-2.2,5-5.2,5
					C591.9,407.7,589.7,405.5,589.7,402.7z M597.4,402.7L597.4,402.7c0-1.5-1-2.7-2.5-2.7c-1.6,0-2.5,1.2-2.5,2.6v0
					c0,1.4,1,2.7,2.5,2.7C596.5,405.4,597.4,404.2,597.4,402.7z"/>
				<path fill="#FFFFFF" d="M602.1,394.4h2.7v7l3.2-3.5h3.3l-3.7,3.8l3.8,5.9h-3.1l-2.5-3.9l-1,1v2.9h-2.7V394.4z"/>
				<path fill="#FFFFFF" d="M612,406.2l1.2-1.8c1,0.8,2.1,1.2,3,1.2c0.8,0,1.2-0.3,1.2-0.7v0c0-0.6-0.9-0.8-2-1.1
					c-1.4-0.4-2.9-1-2.9-2.9v0c0-2,1.6-3.1,3.5-3.1c1.2,0,2.6,0.4,3.6,1.1l-1,1.9c-1-0.6-1.9-0.9-2.6-0.9c-0.7,0-1,0.3-1,0.7v0
					c0,0.5,0.9,0.8,2,1.2c1.4,0.5,2.9,1.1,2.9,2.9v0c0,2.1-1.6,3.1-3.7,3.1C614.8,407.7,613.3,407.2,612,406.2z"/>
			</g>
		</g>
		<g>
			<g>
				<path fill="#FFFFFF" d="M589.9,320.5h-31.4c-1.1,0-2-0.9-2-2v-17.7c0-1.1,0.9-2,2-2h31.4c1.1,0,2,0.9,2,2v17.7
					C591.9,319.6,591,320.5,589.9,320.5L589.9,320.5z M560.6,316.4h27.3v-13.6h-27.3V316.4L560.6,316.4z"/>
			</g>
			<g>
				<g>
					<path fill="#FFFFFF" d="M607.1,376.7h-70.2c-2.3,0-4.1-1.8-4.1-4.1v-88.3c0-2.3,1.8-4.1,4.1-4.1h70.2c2.3,0,4.1,1.8,4.1,4.1
						v88.3C611.2,374.8,609.4,376.7,607.1,376.7L607.1,376.7z M541,368.5h62v-80.1h-62V368.5L541,368.5z"/>
				</g>
				<g>
					<path fill="#FFFFFF" d="M544,304.9h-14.3c-2.3,0-4.1-1.8-4.1-4.1c0-2.3,1.8-4.1,4.1-4.1H544c2.3,0,4.1,1.8,4.1,4.1
						C548.1,303.1,546.3,304.9,544,304.9L544,304.9z"/>
				</g>
				<g>
					<path fill="#FFFFFF" d="M544,323.2h-14.3c-2.3,0-4.1-1.8-4.1-4.1c0-2.3,1.8-4.1,4.1-4.1H544c2.3,0,4.1,1.8,4.1,4.1
						C548.1,321.3,546.3,323.2,544,323.2L544,323.2z"/>
				</g>
				<g>
					<path fill="#FFFFFF" d="M544,341.4h-14.3c-2.3,0-4.1-1.8-4.1-4.1s1.8-4.1,4.1-4.1H544c2.3,0,4.1,1.8,4.1,4.1
						S546.3,341.4,544,341.4L544,341.4z"/>
				</g>
				<g>
					<path fill="#FFFFFF" d="M544,359.7h-14.3c-2.3,0-4.1-1.8-4.1-4.1c0-2.3,1.8-4.1,4.1-4.1H544c2.3,0,4.1,1.8,4.1,4.1
						C548.1,357.9,546.3,359.7,544,359.7L544,359.7z"/>
				</g>
			</g>
		</g>
	</g>
	<g>
		<rect x="475.6" y="180.8" fill="#D1D3D4" width="188.9" height="70.2"/>
		<rect x="486.1" y="180.8" fill="#768797" width="168.8" height="70.5"/>
	</g>
</g>
</svg>
