<?xml version="1.0" encoding="utf-8"?>
<!-- Generator: Adobe Illustrator 18.1.1, SVG Export Plug-In . SVG Version: 6.00 Build 0)  -->
<svg version="1.1" id="Layer_1" xmlns="http://www.w3.org/2000/svg" xmlns:xlink="http://www.w3.org/1999/xlink" x="0px" y="0px"
	 viewBox="0 0 1798.2 858.2" enable-background="new 0 0 1798.2 858.2" xml:space="preserve">
<rect x="239" y="241" fill="#F08921" width="189.2" height="190.2"/>
<g>
	<rect x="10.6" y="252.4" fill="#5872AD" width="169.2" height="169.2"/>
	<g>
		<path fill="#FFFFFF" d="M146.3,321.6l-45.8-45.8c-2.6-2.6-6.9-2.6-9.6,0l-9.5,9.5l12.1,12.1c2.8-0.9,6-0.3,8.3,1.9
			c2.2,2.2,2.9,5.5,1.9,8.3l11.6,11.6c2.8-1,6.1-0.3,8.3,1.9c3.1,3.1,3.1,8.2,0,11.4c-3.1,3.1-8.2,3.1-11.4,0
			c-2.4-2.4-2.9-5.8-1.7-8.7l-10.8-10.8v28.5c0.8,0.4,1.5,0.9,2.1,1.5c3.1,3.1,3.1,8.2,0,11.4c-3.1,3.1-8.2,3.1-11.4,0
			c-3.1-3.1-3.1-8.2,0-11.4c0.8-0.8,1.7-1.4,2.6-1.8v-28.8c-1-0.4-1.9-1-2.6-1.8c-2.4-2.4-2.9-5.9-1.7-8.8L76.8,290l-31.4,31.4
			c-2.6,2.6-2.6,6.9,0,9.6l45.8,45.8c2.6,2.6,6.9,2.6,9.6,0l45.6-45.6C148.9,328.5,148.9,324.2,146.3,321.6z"/>
	</g>
	<text transform="matrix(1 0 0 1 50.4793 408.3265)" fill="#FFFFFF" font-family="'Gotham-Bold'" font-size="18">chef-repo</text>
</g>
<g>
	<g>
		<rect x="10.6" y="252.8" fill="#7F888D" width="169.2" height="169.2"/>
		<text transform="matrix(1 0 0 1 50.4793 408.66)" fill="#FFFFFF" font-family="'Gotham-Bold'" font-size="18">chef-repo</text>
	</g>
	<g>
		<path fill="#FFFFFF" d="M94.8,354c11.6,0,21.5-3.1,24.9-7.4v-6.8c-0.1-0.2-0.3-0.3-0.4-0.5c-3.4,4.4-13.3,7.5-25,7.5
			c-11.2,0-20.7-2.9-24.5-6.9c0,0-0.1,0.1-0.1,0.1v6.5C73,350.8,83,354,94.8,354z"/>
		<path fill="#FFFFFF" d="M75.7,335.8c4.8,2.1,11.6,3.4,19.1,3.4s14.3-1.3,19.1-3.4c2.2-1,4-2.1,5.2-3.3c0.2-0.2,0.4-0.5,0.6-0.7
			V325c-0.1-0.2-0.3-0.3-0.4-0.5c-1.2,1.5-3.2,2.9-5.9,4.1c-4.8,2.1-11.6,3.4-19.1,3.4c-7.5,0-14.3-1.3-19.1-3.4
			c-2.3-1-4.2-2.2-5.4-3.5c0,0-0.1,0.1-0.1,0.1v6.5c0.1,0.1,0.2,0.2,0.3,0.3C71.2,333.4,73.1,334.7,75.7,335.8z"/>
		<path fill="#FFFFFF" d="M75.9,320.8c4.5,2.2,11.3,3.5,18.8,3.5c7.6,0,14.3-1.4,18.9-3.6c2.3-1.1,4-2.4,5-3.9
			c0.6-0.9,0.9-1.8,0.9-2.8c0-5.6-11.1-10.2-24.8-10.2c-13.7,0-24.8,4.6-24.8,10.2c0,0.8,0.2,1.6,0.6,2.3
			C71.4,318.1,73.3,319.6,75.9,320.8z"/>
		<path fill="#FFFFFF" d="M137.6,283H52.3c-2.2,0-3.9,1.7-3.9,3.9v85.3c0,2.2,1.8,3.9,3.9,3.9h85.3c2.2,0,3.9-1.8,3.9-3.9v-85.3
			C141.6,284.8,139.8,283,137.6,283z M133.7,368.3H56.2v-77.5h77.5V368.3z"/>
	</g>
</g>
<rect x="190.1" y="252.4" fill="#D1D3D4" width="48.7" height="168.1"/>
<g>
	<g>
		<rect x="248.7" y="251.8" fill="#7F888D" width="169.2" height="169.2"/>
		<text transform="matrix(1 0 0 1 278.863 407.6512)" fill="#FFFFFF" font-family="'Gotham-Bold'" font-size="18">workstation</text>
	</g>
	<g>
		<g>
			<path fill="#FFFFFF" d="M380.1,355.8h-94.4c-2.4,0-4.3-1.9-4.3-4.3v-60.1c0-2.4,1.9-4.3,4.3-4.3h94.4c2.4,0,4.3,1.9,4.3,4.3v60.1
				C384.4,353.9,382.5,355.8,380.1,355.8L380.1,355.8z M290,347.2h85.8v-51.5H290V347.2L290,347.2z"/>
		</g>
		<g>
			<path fill="#FFFFFF" d="M371.5,345.1h-77.2c-1.2,0-2.1-1-2.1-2.1V300c0-1.2,1-2.1,2.1-2.1h77.2c1.2,0,2.1,1,2.1,2.1v42.9
				C373.6,344.1,372.7,345.1,371.5,345.1L371.5,345.1z M296.4,340.8h72.9v-38.6h-72.9V340.8L296.4,340.8z"/>
		</g>
		<g>
			<path fill="#FFFFFF" d="M393.3,368.3H273.9c-2.4,0-4.3-1.9-4.3-4.3c0-2.4,1.9-4.3,4.3-4.3h119.4c2.4,0,4.3,1.9,4.3,4.3
				C397.6,366.4,395.7,368.3,393.3,368.3L393.3,368.3z"/>
		</g>
	</g>
</g>
<rect x="0" y="243" fill="#D1D3D4" width="190.3" height="190.1"/>
<g>
	<g>
		<rect x="10.6" y="252.8" fill="#5872AD" width="169.2" height="169.2"/>
		<text transform="matrix(1 0 0 1 50.4793 408.66)" fill="#FFFFFF" font-family="'Gotham-Bold'" font-size="18">chef-repo</text>
	</g>
	<g>
		<path fill="#FFFFFF" d="M94.8,354c11.6,0,21.5-3.1,24.9-7.4v-6.8c-0.1-0.2-0.3-0.3-0.4-0.5c-3.4,4.4-13.3,7.5-25,7.5
			c-11.2,0-20.7-2.9-24.5-6.9c0,0-0.1,0.1-0.1,0.1v6.5C73,350.8,83,354,94.8,354z"/>
		<path fill="#FFFFFF" d="M75.7,335.8c4.8,2.1,11.6,3.4,19.1,3.4s14.3-1.3,19.1-3.4c2.2-1,4-2.1,5.2-3.3c0.2-0.2,0.4-0.5,0.6-0.7
			V325c-0.1-0.2-0.3-0.3-0.4-0.5c-1.2,1.5-3.2,2.9-5.9,4.1c-4.8,2.1-11.6,3.4-19.1,3.4c-7.5,0-14.3-1.3-19.1-3.4
			c-2.3-1-4.2-2.2-5.4-3.5c0,0-0.1,0.1-0.1,0.1v6.5c0.1,0.1,0.2,0.2,0.3,0.3C71.2,333.4,73.1,334.7,75.7,335.8z"/>
		<path fill="#FFFFFF" d="M75.9,320.8c4.5,2.2,11.3,3.5,18.8,3.5c7.6,0,14.3-1.4,18.9-3.6c2.3-1.1,4-2.4,5-3.9
			c0.6-0.9,0.9-1.8,0.9-2.8c0-5.6-11.1-10.2-24.8-10.2c-13.7,0-24.8,4.6-24.8,10.2c0,0.8,0.2,1.6,0.6,2.3
			C71.4,318.1,73.3,319.6,75.9,320.8z"/>
		<path fill="#FFFFFF" d="M137.6,283H52.3c-2.2,0-3.9,1.7-3.9,3.9v85.3c0,2.2,1.8,3.9,3.9,3.9h85.3c2.2,0,3.9-1.8,3.9-3.9v-85.3
			C141.6,284.8,139.8,283,137.6,283z M133.7,368.3H56.2v-77.5h77.5V368.3z"/>
	</g>
</g>
<g>
	<g>
		<g>
			<path fill="#FFFFFF" d="M213.1,276.1c0.5,0,1,0.2,1.5,0.5c1.1,0.8,1.4,2.4,0.6,3.5l-11.7,16.1l11.7,16.1c0.8,1.1,0.6,2.7-0.6,3.5
				c-1.1,0.8-2.7,0.6-3.5-0.6l-12.8-17.5c-0.6-0.9-0.6-2.1,0-2.9l12.8-17.5C211.5,276.5,212.3,276.1,213.1,276.1L213.1,276.1z"/>
		</g>
	</g>
	<g>
		<g>
			<path fill="#FFFFFF" d="M229.7,276.1c0.5,0,1,0.2,1.5,0.5c1.1,0.8,1.4,2.4,0.6,3.5L220,296.1l11.7,16.1c0.8,1.1,0.6,2.7-0.6,3.5
				c-1.1,0.8-2.7,0.6-3.5-0.6l-12.8-17.5c-0.6-0.9-0.6-2.1,0-2.9l12.8-17.5C228.2,276.5,228.9,276.1,229.7,276.1L229.7,276.1z"/>
		</g>
	</g>
</g>
<g>
	<g>
		<g>
			<path fill="#FFFFFF" d="M206.9,396.5c-0.5,0-1-0.2-1.5-0.5c-1.1-0.8-1.4-2.4-0.6-3.5l11.7-16.1l-11.7-16.1
				c-0.8-1.1-0.6-2.7,0.6-3.5c1.1-0.8,2.7-0.6,3.5,0.6l12.8,17.5c0.6,0.9,0.6,2.1,0,2.9L209,395.5
				C208.5,396.1,207.7,396.5,206.9,396.5L206.9,396.5z"/>
		</g>
	</g>
	<g>
		<g>
			<path fill="#FFFFFF" d="M190.3,396.5c-0.5,0-1-0.2-1.5-0.5c-1.1-0.8-1.4-2.4-0.6-3.5l11.7-16.1l-11.7-16.1
				c-0.8-1.1-0.6-2.7,0.6-3.5c1.1-0.8,2.7-0.6,3.5,0.6l12.8,17.5c0.6,0.9,0.6,2.1,0,2.9l-12.8,17.5
				C191.8,396.1,191.1,396.5,190.3,396.5L190.3,396.5z"/>
		</g>
	</g>
</g>
<g>
	<g>
		<g>
			<path fill="#FFFFFF" d="M436.1,364.9c0-0.7,0.6-1.3,1.3-1.3h32.1c0.7,0,1.3,0.6,1.3,1.3c0,0.7-0.6,1.3-1.3,1.3h-32.1
				C436.6,366.2,436.1,365.6,436.1,364.9L436.1,364.9z"/>
		</g>
		<g>
			<path fill="#FFFFFF" d="M436.1,378.8c0-0.7,0.6-1.3,1.3-1.3h32.1c0.7,0,1.3,0.6,1.3,1.3c0,0.7-0.6,1.3-1.3,1.3h-32.1
				C436.6,380.1,436.1,379.5,436.1,378.8L436.1,378.8z"/>
		</g>
		<g>
			<path fill="#FFFFFF" d="M436.1,392.7c0-0.7,0.6-1.3,1.3-1.3h32.1c0.7,0,1.3,0.6,1.3,1.3c0,0.7-0.6,1.3-1.3,1.3h-32.1
				C436.6,394,436.1,393.4,436.1,392.7L436.1,392.7z"/>
		</g>
		<g>
			<polygon fill="#FFFFFF" points="451.9,368.7 451.9,361.1 471,361.1 471,368.7 451.9,368.7 			"/>
		</g>
		<g>
			<polygon fill="#FFFFFF" points="451.9,382.6 451.9,375 471,375 471,382.6 451.9,382.6 			"/>
		</g>
		<g>
			<polygon fill="#FFFFFF" points="451.9,396.5 451.9,388.9 471,388.9 471,396.5 451.9,396.5 			"/>
		</g>
	</g>
	<g>
		<g>
			<path fill="#FFFFFF" d="M436.1,323.1c0-0.7,0.6-1.3,1.3-1.3h32.1c0.7,0,1.3,0.6,1.3,1.3c0,0.7-0.6,1.3-1.3,1.3h-32.1
				C436.6,324.3,436.1,323.8,436.1,323.1L436.1,323.1z"/>
		</g>
		<g>
			<path fill="#FFFFFF" d="M436.1,337c0-0.7,0.6-1.3,1.3-1.3h32.1c0.7,0,1.3,0.6,1.3,1.3c0,0.7-0.6,1.3-1.3,1.3h-32.1
				C436.6,338.2,436.1,337.7,436.1,337L436.1,337z"/>
		</g>
		<g>
			<path fill="#FFFFFF" d="M436.1,350.9c0-0.7,0.6-1.3,1.3-1.3h32.1c0.7,0,1.3,0.6,1.3,1.3c0,0.7-0.6,1.3-1.3,1.3h-32.1
				C436.6,352.1,436.1,351.6,436.1,350.9L436.1,350.9z"/>
		</g>
		<g>
			<polygon fill="#FFFFFF" points="451.9,326.9 451.9,319.3 471,319.3 471,326.9 451.9,326.9 			"/>
		</g>
		<g>
			<polygon fill="#FFFFFF" points="451.9,340.8 451.9,333.2 471,333.2 471,340.8 451.9,340.8 			"/>
		</g>
		<g>
			<polygon fill="#FFFFFF" points="451.9,354.7 451.9,347.1 471,347.1 471,354.7 451.9,354.7 			"/>
		</g>
	</g>
	<g>
		<g>
			<path fill="#FFFFFF" d="M436.1,281.2c0-0.7,0.6-1.3,1.3-1.3h32.1c0.7,0,1.3,0.6,1.3,1.3c0,0.7-0.6,1.3-1.3,1.3h-32.1
				C436.6,282.5,436.1,281.9,436.1,281.2L436.1,281.2z"/>
		</g>
		<g>
			<path fill="#FFFFFF" d="M436.1,295.1c0-0.7,0.6-1.3,1.3-1.3h32.1c0.7,0,1.3,0.6,1.3,1.3c0,0.7-0.6,1.3-1.3,1.3h-32.1
				C436.6,296.4,436.1,295.8,436.1,295.1L436.1,295.1z"/>
		</g>
		<g>
			<path fill="#FFFFFF" d="M436.1,309c0-0.7,0.6-1.3,1.3-1.3h32.1c0.7,0,1.3,0.6,1.3,1.3c0,0.7-0.6,1.3-1.3,1.3h-32.1
				C436.6,310.3,436.1,309.7,436.1,309L436.1,309z"/>
		</g>
		<g>
			<polygon fill="#FFFFFF" points="451.9,285 451.9,277.4 471,277.4 471,285 451.9,285 			"/>
		</g>
		<g>
			<polygon fill="#FFFFFF" points="451.9,298.9 451.9,291.3 471,291.3 471,298.9 451.9,298.9 			"/>
		</g>
		<g>
			<polygon fill="#FFFFFF" points="451.9,312.8 451.9,305.2 471,305.2 471,312.8 451.9,312.8 			"/>
		</g>
	</g>
</g>
</svg>
