<?xml version="1.0" encoding="utf-8"?>
<!-- Generator: Adobe Illustrator 18.1.1, SVG Export Plug-In . SVG Version: 6.00 Build 0)  -->
<svg version="1.1" id="Layer_1" xmlns="http://www.w3.org/2000/svg" xmlns:xlink="http://www.w3.org/1999/xlink" x="0px" y="0px"
	 viewBox="0 0 1798.2 858.2" enable-background="new 0 0 1798.2 858.2" xml:space="preserve">
<rect x="239" y="241" fill="#F08921" width="189.2" height="190.2"/>
<g>
	<g>
		<rect x="248.7" y="251.8" fill="#7F888D" width="169.2" height="169.2"/>
		<g>
			<path fill="#FFFFFF" d="M279.7,398h2.8l1.5,5.9l1.8-5.9h2.4l1.8,5.9l1.6-5.9h2.7l-3,9.7h-2.5l-1.9-5.9l-1.9,5.9h-2.4L279.7,398z"
				/>
			<path fill="#FFFFFF" d="M295,402.9L295,402.9c0-2.8,2.2-5.1,5.2-5.1c3,0,5.2,2.2,5.2,5v0c0,2.8-2.2,5-5.2,5
				C297.2,407.9,295,405.7,295,402.9z M302.8,402.9L302.8,402.9c0-1.5-1-2.7-2.5-2.7c-1.6,0-2.5,1.2-2.5,2.6v0c0,1.4,1,2.7,2.5,2.7
				C301.8,405.5,302.8,404.3,302.8,402.9z"/>
			<path fill="#FFFFFF" d="M307.4,398h2.7v1.9c0.6-1.3,1.5-2.2,3.1-2.1v2.9h-0.1c-1.8,0-2.9,1.1-2.9,3.4v3.6h-2.7V398z"/>
			<path fill="#FFFFFF" d="M315,394.5h2.7v7l3.2-3.5h3.3l-3.7,3.8l3.8,5.9h-3.1l-2.5-3.9l-1,1v2.9H315V394.5z"/>
			<path fill="#FFFFFF" d="M324.9,406.4l1.2-1.8c1,0.8,2.1,1.2,3,1.2c0.8,0,1.2-0.3,1.2-0.7v0c0-0.6-0.9-0.8-2-1.1
				c-1.4-0.4-2.9-1-2.9-2.9v0c0-2,1.6-3.1,3.5-3.1c1.2,0,2.6,0.4,3.6,1.1l-1,1.9c-1-0.6-1.9-0.9-2.6-0.9c-0.7,0-1,0.3-1,0.7v0
				c0,0.5,0.9,0.8,2,1.2c1.4,0.5,2.9,1.1,2.9,2.9v0c0,2.1-1.6,3.1-3.7,3.1C327.7,407.8,326.1,407.4,324.9,406.4z"/>
			<path fill="#FFFFFF" d="M334.9,404.9v-4.6h-1.2V398h1.2v-2.5h2.7v2.5h2.3v2.3h-2.3v4.1c0,0.6,0.3,0.9,0.9,0.9
				c0.5,0,1-0.1,1.4-0.3v2.2c-0.6,0.3-1.2,0.6-2.2,0.6C336.1,407.8,334.9,407.1,334.9,404.9z"/>
			<path fill="#FFFFFF" d="M341.4,404.9L341.4,404.9c0-2.1,1.6-3.1,3.9-3.1c1,0,1.7,0.2,2.4,0.4V402c0-1.1-0.7-1.8-2.1-1.8
				c-1,0-1.8,0.2-2.7,0.5l-0.7-2.1c1.1-0.5,2.1-0.8,3.7-0.8c1.5,0,2.6,0.4,3.3,1.1c0.7,0.7,1,1.8,1,3.1v5.6h-2.6v-1
				c-0.7,0.7-1.6,1.2-2.9,1.2C342.9,407.8,341.4,406.8,341.4,404.9z M347.7,404.2v-0.5c-0.5-0.2-1.1-0.4-1.7-0.4
				c-1.2,0-1.9,0.5-1.9,1.3v0c0,0.7,0.6,1.2,1.5,1.2C346.8,405.9,347.7,405.2,347.7,404.2z"/>
			<path fill="#FFFFFF" d="M353,404.9v-4.6h-1.2V398h1.2v-2.5h2.7v2.5h2.3v2.3h-2.3v4.1c0,0.6,0.3,0.9,0.9,0.9c0.5,0,1-0.1,1.4-0.3
				v2.2c-0.6,0.3-1.2,0.6-2.2,0.6C354.1,407.8,353,407.1,353,404.9z"/>
			<path fill="#FFFFFF" d="M360,394.5h2.9v2.4H360V394.5z M360.1,398h2.7v9.7h-2.7V398z"/>
			<path fill="#FFFFFF" d="M365,402.9L365,402.9c0-2.8,2.2-5.1,5.2-5.1c3,0,5.2,2.2,5.2,5v0c0,2.8-2.2,5-5.2,5
				C367.2,407.9,365,405.7,365,402.9z M372.7,402.9L372.7,402.9c0-1.5-1-2.7-2.5-2.7c-1.6,0-2.5,1.2-2.5,2.6v0c0,1.4,1,2.7,2.5,2.7
				C371.8,405.5,372.7,404.3,372.7,402.9z"/>
			<path fill="#FFFFFF" d="M377.4,398h2.7v1.4c0.6-0.8,1.4-1.5,2.8-1.5c2.1,0,3.3,1.4,3.3,3.6v6.2h-2.7v-5.4c0-1.3-0.6-2-1.7-2
				c-1,0-1.7,0.7-1.7,2v5.4h-2.7V398z"/>
		</g>
	</g>
	<g>
		<g>
			<path fill="#FFFFFF" d="M380.1,355.8h-94.4c-2.4,0-4.3-1.9-4.3-4.3v-60.1c0-2.4,1.9-4.3,4.3-4.3h94.4c2.4,0,4.3,1.9,4.3,4.3v60.1
				C384.4,353.9,382.5,355.8,380.1,355.8L380.1,355.8z M290,347.2h85.8v-51.5H290V347.2L290,347.2z"/>
		</g>
		<g>
			<path fill="#FFFFFF" d="M371.5,345.1h-77.2c-1.2,0-2.1-1-2.1-2.1V300c0-1.2,1-2.1,2.1-2.1h77.2c1.2,0,2.1,1,2.1,2.1v42.9
				C373.6,344.1,372.7,345.1,371.5,345.1L371.5,345.1z M296.4,340.8h72.9v-38.6h-72.9V340.8L296.4,340.8z"/>
		</g>
		<g>
			<path fill="#FFFFFF" d="M393.3,368.3H273.9c-2.4,0-4.3-1.9-4.3-4.3c0-2.4,1.9-4.3,4.3-4.3h119.4c2.4,0,4.3,1.9,4.3,4.3
				C397.6,366.4,395.7,368.3,393.3,368.3L393.3,368.3z"/>
		</g>
	</g>
</g>
</svg>
