<?xml version="1.0" encoding="utf-8"?>
<!-- Generator: Adobe Illustrator 18.1.1, SVG Export Plug-In . SVG Version: 6.00 Build 0)  -->
<svg version="1.1" id="Layer_1" xmlns="http://www.w3.org/2000/svg" xmlns:xlink="http://www.w3.org/1999/xlink" x="0px" y="0px"
	 viewBox="0 0 1798.2 858.2" enable-background="new 0 0 1798.2 858.2" xml:space="preserve">
<rect x="239" y="241" fill="#F08921" width="189.2" height="190.2"/>
<rect x="0" y="243" fill="#D1D3D4" width="190.3" height="190.1"/>
<g>
	<rect x="10.6" y="252.4" fill="#5872AD" width="169.2" height="169.2"/>
	<g>
		<path fill="#FFFFFF" d="M146.3,321.6l-45.8-45.8c-2.6-2.6-6.9-2.6-9.6,0l-9.5,9.5l12.1,12.1c2.8-0.9,6-0.3,8.3,1.9
			c2.2,2.2,2.9,5.5,1.9,8.3l11.6,11.6c2.8-1,6.1-0.3,8.3,1.9c3.1,3.1,3.1,8.2,0,11.4c-3.1,3.1-8.2,3.1-11.4,0
			c-2.4-2.4-2.9-5.8-1.7-8.7l-10.8-10.8v28.5c0.8,0.4,1.5,0.9,2.1,1.5c3.1,3.1,3.1,8.2,0,11.4c-3.1,3.1-8.2,3.1-11.4,0
			c-3.1-3.1-3.1-8.2,0-11.4c0.8-0.8,1.7-1.4,2.6-1.8v-28.8c-1-0.4-1.9-1-2.6-1.8c-2.4-2.4-2.9-5.9-1.7-8.8L76.8,290l-31.4,31.4
			c-2.6,2.6-2.6,6.9,0,9.6l45.8,45.8c2.6,2.6,6.9,2.6,9.6,0l45.6-45.6C148.9,328.5,148.9,324.2,146.3,321.6z"/>
	</g>
	<text transform="matrix(1 0 0 1 50.4793 408.3265)" fill="#FFFFFF" font-family="'Gotham-Bold'" font-size="18">chef-repo</text>
</g>
<g>
	<g>
		<g>
			<rect x="1022.5" y="252.1" fill="#65BAAF" width="169.2" height="169.2"/>
			<text transform="matrix(1 0 0 1 1085.0549 408.0135)" fill="#FFFFFF" font-family="'Gotham-Bold'" font-size="18">tests</text>
		</g>
		<g>
			<g>
				<path fill="#FFFFFF" d="M1119.3,374.1c-1.1,0-2-0.9-2-2v-24.4c0-1.1,0.9-2,2-2h24.4c1.1,0,2,0.9,2,2c0,1.1-0.9,2-2,2h-22.3v22.3
					C1121.3,373.2,1120.4,374.1,1119.3,374.1L1119.3,374.1z"/>
			</g>
			<g>
				<path fill="#FFFFFF" d="M1119.3,376.1h-41.9c-2.2,0-4.1-1.8-4.1-4.1v-83.3c0-2.2,1.8-4.1,4.1-4.1h66.3c2.2,0,4.1,1.8,4.1,4.1v59
					c0,1.1-0.4,2.1-1.2,2.9l-24.4,24.4C1121.4,375.7,1120.4,376.1,1119.3,376.1L1119.3,376.1z M1081.4,368h36.2l22-22v-53.2h-58.2
					V368L1081.4,368z"/>
			</g>
			<g>
				<path fill="#FFFFFF" d="M1065.9,366.5c-2.2,0-4.1-1.8-4.1-4.1v-81.7c0-4.5,3.6-8.1,8.1-8.1h62.2c2.2,0,4.1,1.8,4.1,4.1
					c0,2.2-1.8,4.1-4.1,4.1H1070v81.7C1070,364.7,1068.2,366.5,1065.9,366.5L1065.9,366.5z"/>
			</g>
			<g>
				<g>
					<path fill="#FFFFFF" d="M1108.3,325.3c-0.4,0-0.8-0.2-1.1-0.5l-3.9-4.1c-0.6-0.6-0.5-1.6,0.1-2.1c0.6-0.6,1.6-0.6,2.1,0.1
						l2.7,2.9l7.5-9.2c0.5-0.6,1.5-0.7,2.1-0.2c0.6,0.5,0.7,1.5,0.2,2.1l-8.6,10.5C1109.2,325.1,1108.8,325.3,1108.3,325.3
						C1108.3,325.3,1108.3,325.3,1108.3,325.3L1108.3,325.3z"/>
				</g>
				<g>
					<path fill="#FFFFFF" d="M1127.1,337.2h-32.8c-0.8,0-1.5-0.7-1.5-1.5v-32.8c0-0.8,0.7-1.5,1.5-1.5h32.8c0.8,0,1.5,0.7,1.5,1.5
						v32.8C1128.6,336.5,1127.9,337.2,1127.1,337.2L1127.1,337.2z M1095.7,334.2h29.8v-29.8h-29.8V334.2L1095.7,334.2z"/>
				</g>
			</g>
		</g>
	</g>
	<g>
		<g>
			<rect x="486" y="251.8" fill="#768593" width="169.2" height="169.2"/>
			<text transform="matrix(1 0 0 1 520.2788 407.68)" fill="#FFFFFF" font-family="'Gotham-Bold'" font-size="18">cookbooks</text>
		</g>
		<g>
			<g>
				<path fill="#FFFFFF" d="M590.1,320.7h-31.4c-1.1,0-2-0.9-2-2v-17.7c0-1.1,0.9-2,2-2h31.4c1.1,0,2,0.9,2,2v17.7
					C592.1,319.8,591.2,320.7,590.1,320.7L590.1,320.7z M560.7,316.6H588V303h-27.3V316.6L560.7,316.6z"/>
			</g>
			<g>
				<g>
					<path fill="#FFFFFF" d="M607.3,376.8H537c-2.3,0-4.1-1.8-4.1-4.1v-88.3c0-2.3,1.8-4.1,4.1-4.1h70.2c2.3,0,4.1,1.8,4.1,4.1v88.3
						C611.4,375,609.5,376.8,607.3,376.8L607.3,376.8z M541.1,368.7h62v-80.1h-62V368.7L541.1,368.7z"/>
				</g>
				<g>
					<path fill="#FFFFFF" d="M544.2,305.1h-14.3c-2.3,0-4.1-1.8-4.1-4.1s1.8-4.1,4.1-4.1h14.3c2.3,0,4.1,1.8,4.1,4.1
						S546.5,305.1,544.2,305.1L544.2,305.1z"/>
				</g>
				<g>
					<path fill="#FFFFFF" d="M544.2,323.3h-14.3c-2.3,0-4.1-1.8-4.1-4.1c0-2.3,1.8-4.1,4.1-4.1h14.3c2.3,0,4.1,1.8,4.1,4.1
						C548.3,321.5,546.5,323.3,544.2,323.3L544.2,323.3z"/>
				</g>
				<g>
					<path fill="#FFFFFF" d="M544.2,341.6h-14.3c-2.3,0-4.1-1.8-4.1-4.1c0-2.3,1.8-4.1,4.1-4.1h14.3c2.3,0,4.1,1.8,4.1,4.1
						C548.3,339.8,546.5,341.6,544.2,341.6L544.2,341.6z"/>
				</g>
				<g>
					<path fill="#FFFFFF" d="M544.2,359.9h-14.3c-2.3,0-4.1-1.8-4.1-4.1c0-2.3,1.8-4.1,4.1-4.1h14.3c2.3,0,4.1,1.8,4.1,4.1
						C548.3,358.1,546.5,359.9,544.2,359.9L544.2,359.9z"/>
				</g>
			</g>
		</g>
	</g>
	<g>
		<g>
			<rect x="1201.1" y="251.8" fill="#7D5D7D" width="169.2" height="169.2"/>
			<text transform="matrix(1 0 0 1 1252.9871 407.68)" fill="#FFFFFF" font-family="'Gotham-Bold'" font-size="18">secrets</text>
		</g>
		<g>
			<g>
				<g>
					<path fill="#FFFFFF" d="M1331,375.3h-86.3c-2.2,0-4-1.8-4-4V285c0-2.2,1.8-4,4-4h86.3c2.2,0,4,1.8,4,4v86.3
						C1335,373.5,1333.2,375.3,1331,375.3L1331,375.3z M1248.7,367.2h78.3V289h-78.3V367.2L1248.7,367.2z"/>
				</g>
				<g>
					<path fill="#FFFFFF" d="M1318.3,360.5h-60.8c-1.1,0-2-0.9-2-2v-60.8c0-1.1,0.9-2,2-2h60.8c1.1,0,2,0.9,2,2v60.8
						C1320.3,359.6,1319.4,360.5,1318.3,360.5L1318.3,360.5z M1259.4,356.5h56.8v-56.8h-56.8V356.5L1259.4,356.5z"/>
				</g>
				<g>
					<g>
						<path fill="#FFFFFF" d="M1257.4,320.4c-2.2,0-4-1.8-4-4v-5c0-2.2,1.8-4,4-4s4,1.8,4,4v5
							C1261.4,318.6,1259.6,320.4,1257.4,320.4L1257.4,320.4z"/>
					</g>
					<g>
						<path fill="#FFFFFF" d="M1257.4,348.7c-2.2,0-4-1.8-4-4v-5c0-2.2,1.8-4,4-4s4,1.8,4,4v5
							C1261.4,346.9,1259.6,348.7,1257.4,348.7L1257.4,348.7z"/>
					</g>
				</g>
			</g>
			<g>
				<g>
					<path fill="#FFFFFF" d="M1287.8,340.2c-6.7,0-12.1-5.4-12.1-12.1c0-6.7,5.4-12.1,12.1-12.1c6.7,0,12.1,5.4,12.1,12.1
						C1299.9,334.8,1294.5,340.2,1287.8,340.2L1287.8,340.2z M1287.8,320c-4.4,0-8.1,3.6-8.1,8.1c0,4.5,3.6,8.1,8.1,8.1
						c4.5,0,8.1-3.6,8.1-8.1C1295.9,323.6,1292.3,320,1287.8,320L1287.8,320z"/>
				</g>
				<g>
					<g>
						<path fill="#FFFFFF" d="M1280.2,322.5c-0.5,0-1-0.2-1.4-0.6l-2.8-2.8c-0.8-0.8-0.8-2.1,0-2.8c0.8-0.8,2.1-0.8,2.8,0l2.8,2.8
							c0.8,0.8,0.8,2.1,0,2.8C1281.3,322.3,1280.8,322.5,1280.2,322.5L1280.2,322.5z"/>
					</g>
					<g>
						<path fill="#FFFFFF" d="M1298.3,340.5c-0.5,0-1-0.2-1.4-0.6l-3.3-3.3c-0.8-0.8-0.8-2.1,0-2.8c0.8-0.8,2.1-0.8,2.8,0l3.3,3.3
							c0.8,0.8,0.8,2.1,0,2.8C1299.3,340.3,1298.8,340.5,1298.3,340.5L1298.3,340.5z"/>
					</g>
				</g>
				<g>
					<g>
						<path fill="#FFFFFF" d="M1295.4,322.5c-0.5,0-1-0.2-1.4-0.6c-0.8-0.8-0.8-2.1,0-2.8l2.8-2.8c0.8-0.8,2.1-0.8,2.8,0
							c0.8,0.8,0.8,2.1,0,2.8l-2.8,2.8C1296.5,322.3,1296,322.5,1295.4,322.5L1295.4,322.5z"/>
					</g>
					<g>
						<path fill="#FFFFFF" d="M1277.4,340.5c-0.5,0-1-0.2-1.4-0.6c-0.8-0.8-0.8-2.1,0-2.8l3.3-3.3c0.8-0.8,2.1-0.8,2.8,0
							c0.8,0.8,0.8,2.1,0,2.8l-3.3,3.3C1278.5,340.3,1277.9,340.5,1277.4,340.5L1277.4,340.5z"/>
					</g>
				</g>
				<g>
					<g>
						<path fill="#FFFFFF" d="M1287.8,319.4c-1.1,0-2-0.9-2-2v-4c0-1.1,0.9-2,2-2c1.1,0,2,0.9,2,2v4
							C1289.9,318.5,1289,319.4,1287.8,319.4L1287.8,319.4z"/>
					</g>
					<g>
						<path fill="#FFFFFF" d="M1287.8,344.8L1287.8,344.8c-1.1,0-2-0.9-2-2l0-4.7c0-1.1,0.9-2,2-2l0,0c1.1,0,2,0.9,2,2l0,4.7
							C1289.8,343.9,1288.9,344.8,1287.8,344.8L1287.8,344.8z"/>
					</g>
				</g>
				<g>
					<g>
						<path fill="#FFFFFF" d="M1302.6,330.1h-4c-1.1,0-2-0.9-2-2c0-1.1,0.9-2,2-2h4c1.1,0,2,0.9,2,2
							C1304.6,329.2,1303.7,330.1,1302.6,330.1L1302.6,330.1z"/>
					</g>
					<g>
						<path fill="#FFFFFF" d="M1277.8,330.1h-4.7c-1.1,0-2-0.9-2-2c0-1.1,0.9-2,2-2h4.7c1.1,0,2,0.9,2,2
							C1279.8,329.2,1278.9,330.1,1277.8,330.1L1277.8,330.1z"/>
					</g>
				</g>
			</g>
		</g>
	</g>
	<g>
		<g>
			<rect x="665.6" y="251.9" fill="#768593" width="169.2" height="169.2"/>
			<text transform="matrix(1 0 0 1 716.9231 407.8299)" fill="#FFFFFF" font-family="'Gotham-Bold'" font-size="18">recipes</text>
		</g>
		<g>
			<path fill="#FFFFFF" d="M773.4,356.8v-83.9c0-1-0.8-1.8-1.8-1.8h-63.1c-1,0-1.8,0.8-1.8,1.8v83.9c0,1,0.8,1.8,1.8,1.8h63.1
				C772.6,358.6,773.4,357.8,773.4,356.8z M748.1,280.6h8.8c1,0,1.8,0.8,1.8,1.8c0,1-0.8,1.8-1.8,1.8h-8.8c-1,0-1.8-0.8-1.8-1.8
				C746.3,281.4,747.1,280.6,748.1,280.6z M756,290.1c0,1-0.8,1.8-1.8,1.8h-31.7c-1,0-1.8-0.8-1.8-1.8c0-1,0.8-1.8,1.8-1.8h31.7
				C755.3,288.3,756,289.1,756,290.1z M732.9,280.6h8.8c1,0,1.8,0.8,1.8,1.8c0,1-0.8,1.8-1.8,1.8h-8.8c-1,0-1.8-0.8-1.8-1.8
				C731.1,281.4,731.9,280.6,732.9,280.6z M717.7,280.6h8.8c1,0,1.8,0.8,1.8,1.8c0,1-0.8,1.8-1.8,1.8h-8.8c-1,0-1.8-0.8-1.8-1.8
				C715.9,281.4,716.7,280.6,717.7,280.6z M748,306.7h-25.5c-1,0-1.8-0.8-1.8-1.8c0-1,0.8-1.8,1.8-1.8H748c1,0,1.8,0.8,1.8,1.8
				C749.8,305.9,749,306.7,748,306.7z M749.8,312.3c0,1-0.8,1.8-1.8,1.8h-25.5c-1,0-1.8-0.8-1.8-1.8c0-1,0.8-1.8,1.8-1.8H748
				C749,310.5,749.8,311.3,749.8,312.3z M726.5,329.3h-8.8c-1,0-1.8-0.8-1.8-1.8c0-1,0.8-1.8,1.8-1.8h8.8c1,0,1.8,0.8,1.8,1.8
				C728.3,328.6,727.5,329.3,726.5,329.3z M761.8,321.7h-39.2c-1,0-1.8-0.8-1.8-1.8c0-1,0.8-1.8,1.8-1.8h39.2c1,0,1.8,0.8,1.8,1.8
				C763.5,320.9,762.7,321.7,761.8,321.7z M761.8,299.5h-39.2c-1,0-1.8-0.8-1.8-1.8c0-1,0.8-1.8,1.8-1.8h39.2c1,0,1.8,0.8,1.8,1.8
				C763.5,298.7,762.7,299.5,761.8,299.5z"/>
			<path fill="#FFFFFF" d="M783.5,370.5h-63.1c-1,0-1.8-0.8-1.8-1.8v-4.1h59c1,0,1.8-0.8,1.8-1.8V283h4.2c1,0,1.8,0.8,1.8,1.8v83.9
				C785.3,369.7,784.5,370.5,783.5,370.5z"/>
			<path fill="#FFFFFF" d="M797.2,296.7v83.9c0,1-0.8,1.8-1.8,1.8h-63.1c-1,0-1.8-0.8-1.8-1.8v-4.1h59c1,0,1.8-0.8,1.8-1.8v-79.8
				h4.1C796.4,294.9,797.2,295.7,797.2,296.7z"/>
		</g>
	</g>
	<g>
		<g>
			<rect x="1381" y="251.9" fill="#7D6C5D" width="169.2" height="169.2"/>
			<text transform="matrix(1 0 0 1 1437.6316 407.7845)" fill="#FFFFFF" font-family="'Gotham-Bold'" font-size="18">policy</text>
		</g>
		<g>
			<g>
				<path fill="#FFFFFF" d="M1511.2,376.4h-89.8c-2.4,0-4.3-1.9-4.3-4.3v-30.3c0-2.4,1.9-4.3,4.3-4.3h27.8c2.4,0,4.3,1.9,4.3,4.3v6
					h25.7v-6c0-2.4,1.9-4.3,4.3-4.3h27.8c2.4,0,4.3,1.9,4.3,4.3v30.3C1515.5,374.5,1513.6,376.4,1511.2,376.4L1511.2,376.4z
					 M1425.7,367.9h81.2v-21.7h-19.2v1.8c0,4.7-3.8,8.6-8.6,8.6h-25.7c-4.7,0-8.6-3.8-8.6-8.6v-1.8h-19.2V367.9L1425.7,367.9z"/>
			</g>
			<g>
				<path fill="#FFFFFF" d="M1506.4,345.5c-2.4,0-4.3-1.9-4.3-4.3v-29.9h-70.5v29.9c0,2.4-1.9,4.3-4.3,4.3c-2.4,0-4.3-1.9-4.3-4.3
					V307c0-2.4,1.9-4.3,4.3-4.3h79.1c2.4,0,4.3,1.9,4.3,4.3v34.2C1510.7,343.6,1508.8,345.5,1506.4,345.5L1506.4,345.5z"/>
			</g>
			<g>
				<path fill="#FFFFFF" d="M1501.4,298.5h-69.1c-1.2,0-2.1-1-2.1-2.1c0-1.2,1-2.1,2.1-2.1h69.1c1.2,0,2.1,1,2.1,2.1
					C1503.6,297.5,1502.6,298.5,1501.4,298.5L1501.4,298.5z"/>
			</g>
			<g>
				<path fill="#FFFFFF" d="M1497.3,289.9h-60.9c-1.2,0-2.1-1-2.1-2.1c0-1.2,1-2.1,2.1-2.1h60.9c1.2,0,2.1,1,2.1,2.1
					C1499.5,289,1498.5,289.9,1497.3,289.9L1497.3,289.9z"/>
			</g>
		</g>
	</g>
</g>
<g>
	<g>
		<rect x="10.6" y="252.8" fill="#7F888D" width="169.2" height="169.2"/>
		<text transform="matrix(1 0 0 1 50.4793 408.66)" fill="#FFFFFF" font-family="'Gotham-Bold'" font-size="18">chef-repo</text>
	</g>
	<g>
		<path fill="#FFFFFF" d="M94.8,354c11.6,0,21.5-3.1,24.9-7.4v-6.8c-0.1-0.2-0.3-0.3-0.4-0.5c-3.4,4.4-13.3,7.5-25,7.5
			c-11.2,0-20.7-2.9-24.5-6.9c0,0-0.1,0.1-0.1,0.1v6.5C73,350.8,83,354,94.8,354z"/>
		<path fill="#FFFFFF" d="M75.7,335.8c4.8,2.1,11.6,3.4,19.1,3.4s14.3-1.3,19.1-3.4c2.2-1,4-2.1,5.2-3.3c0.2-0.2,0.4-0.5,0.6-0.7
			V325c-0.1-0.2-0.3-0.3-0.4-0.5c-1.2,1.5-3.2,2.9-5.9,4.1c-4.8,2.1-11.6,3.4-19.1,3.4c-7.5,0-14.3-1.3-19.1-3.4
			c-2.3-1-4.2-2.2-5.4-3.5c0,0-0.1,0.1-0.1,0.1v6.5c0.1,0.1,0.2,0.2,0.3,0.3C71.2,333.4,73.1,334.7,75.7,335.8z"/>
		<path fill="#FFFFFF" d="M75.9,320.8c4.5,2.2,11.3,3.5,18.8,3.5c7.6,0,14.3-1.4,18.9-3.6c2.3-1.1,4-2.4,5-3.9
			c0.6-0.9,0.9-1.8,0.9-2.8c0-5.6-11.1-10.2-24.8-10.2c-13.7,0-24.8,4.6-24.8,10.2c0,0.8,0.2,1.6,0.6,2.3
			C71.4,318.1,73.3,319.6,75.9,320.8z"/>
		<path fill="#FFFFFF" d="M137.6,283H52.3c-2.2,0-3.9,1.7-3.9,3.9v85.3c0,2.2,1.8,3.9,3.9,3.9h85.3c2.2,0,3.9-1.8,3.9-3.9v-85.3
			C141.6,284.8,139.8,283,137.6,283z M133.7,368.3H56.2v-77.5h77.5V368.3z"/>
	</g>
</g>
<rect x="190.1" y="252.4" fill="#D1D3D4" width="48.7" height="168.1"/>
<rect x="427.6" y="251.7" fill="#D1D3D4" width="48.7" height="169"/>
<g>
	<g>
		<rect x="248.7" y="251.8" fill="#7F888D" width="169.2" height="169.2"/>
		<text transform="matrix(1 0 0 1 278.863 407.6512)" fill="#FFFFFF" font-family="'Gotham-Bold'" font-size="18">workstation</text>
	</g>
	<g>
		<g>
			<path fill="#FFFFFF" d="M380.1,355.8h-94.4c-2.4,0-4.3-1.9-4.3-4.3v-60.1c0-2.4,1.9-4.3,4.3-4.3h94.4c2.4,0,4.3,1.9,4.3,4.3v60.1
				C384.4,353.9,382.5,355.8,380.1,355.8L380.1,355.8z M290,347.2h85.8v-51.5H290V347.2L290,347.2z"/>
		</g>
		<g>
			<path fill="#FFFFFF" d="M371.5,345.1h-77.2c-1.2,0-2.1-1-2.1-2.1V300c0-1.2,1-2.1,2.1-2.1h77.2c1.2,0,2.1,1,2.1,2.1v42.9
				C373.6,344.1,372.7,345.1,371.5,345.1L371.5,345.1z M296.4,340.8h72.9v-38.6h-72.9V340.8L296.4,340.8z"/>
		</g>
		<g>
			<path fill="#FFFFFF" d="M393.3,368.3H273.9c-2.4,0-4.3-1.9-4.3-4.3c0-2.4,1.9-4.3,4.3-4.3h119.4c2.4,0,4.3,1.9,4.3,4.3
				C397.6,366.4,395.7,368.3,393.3,368.3L393.3,368.3z"/>
		</g>
	</g>
</g>
<rect x="475.7" y="241" fill="#D1D3D4" width="1083.7" height="190.1"/>
<g>
	<g>
		<rect x="1022.3" y="252" fill="#7F888D" width="169.2" height="169.2"/>
		<text transform="matrix(1 0 0 1 1084.8883 407.847)" fill="#FFFFFF" font-family="'Gotham-Bold'" font-size="18">tests</text>
	</g>
	<g>
		<g>
			<path fill="#FFFFFF" d="M1119.1,373.9c-1.1,0-2-0.9-2-2v-24.4c0-1.1,0.9-2,2-2h24.4c1.1,0,2,0.9,2,2c0,1.1-0.9,2-2,2h-22.3v22.3
				C1121.1,373,1120.2,373.9,1119.1,373.9L1119.1,373.9z"/>
		</g>
		<g>
			<path fill="#FFFFFF" d="M1119.1,376h-41.9c-2.2,0-4.1-1.8-4.1-4.1v-83.3c0-2.2,1.8-4.1,4.1-4.1h66.3c2.2,0,4.1,1.8,4.1,4.1v59
				c0,1.1-0.4,2.1-1.2,2.9l-24.4,24.4C1121.2,375.5,1120.2,376,1119.1,376L1119.1,376z M1081.2,367.8h36.2l22-22v-53.2h-58.2V367.8
				L1081.2,367.8z"/>
		</g>
		<g>
			<path fill="#FFFFFF" d="M1065.8,366.3c-2.2,0-4.1-1.8-4.1-4.1v-81.7c0-4.5,3.6-8.1,8.1-8.1h62.2c2.2,0,4.1,1.8,4.1,4.1
				c0,2.2-1.8,4.1-4.1,4.1h-62.2v81.7C1069.8,364.5,1068,366.3,1065.8,366.3L1065.8,366.3z"/>
		</g>
		<g>
			<g>
				<path fill="#FFFFFF" d="M1108.1,325.1c-0.4,0-0.8-0.2-1.1-0.5l-3.9-4.1c-0.6-0.6-0.5-1.6,0.1-2.1c0.6-0.6,1.6-0.6,2.1,0.1
					l2.7,2.9l7.5-9.2c0.5-0.6,1.5-0.7,2.1-0.2c0.6,0.5,0.7,1.5,0.2,2.1l-8.6,10.5C1109,324.9,1108.6,325.1,1108.1,325.1
					C1108.2,325.1,1108.2,325.1,1108.1,325.1L1108.1,325.1z"/>
			</g>
			<g>
				<path fill="#FFFFFF" d="M1126.9,337h-32.8c-0.8,0-1.5-0.7-1.5-1.5v-32.8c0-0.8,0.7-1.5,1.5-1.5h32.8c0.8,0,1.5,0.7,1.5,1.5v32.8
					C1128.4,336.3,1127.7,337,1126.9,337L1126.9,337z M1095.6,334h29.8v-29.8h-29.8V334L1095.6,334z"/>
			</g>
		</g>
	</g>
</g>
<g>
	<g>
		<rect x="485.8" y="251.6" fill="#7F888D" width="169.2" height="169.2"/>
		<text transform="matrix(1 0 0 1 520.1121 407.5135)" fill="#FFFFFF" font-family="'Gotham-Bold'" font-size="18">cookbooks</text>
	</g>
	<g>
		<g>
			<path fill="#FFFFFF" d="M589.9,320.5h-31.4c-1.1,0-2-0.9-2-2v-17.7c0-1.1,0.9-2,2-2h31.4c1.1,0,2,0.9,2,2v17.7
				C591.9,319.6,591,320.5,589.9,320.5L589.9,320.5z M560.6,316.4h27.3v-13.6h-27.3V316.4L560.6,316.4z"/>
		</g>
		<g>
			<g>
				<path fill="#FFFFFF" d="M607.1,376.7h-70.2c-2.3,0-4.1-1.8-4.1-4.1v-88.3c0-2.3,1.8-4.1,4.1-4.1h70.2c2.3,0,4.1,1.8,4.1,4.1
					v88.3C611.2,374.8,609.4,376.7,607.1,376.7L607.1,376.7z M541,368.5h62v-80.1h-62V368.5L541,368.5z"/>
			</g>
			<g>
				<path fill="#FFFFFF" d="M544,304.9h-14.3c-2.3,0-4.1-1.8-4.1-4.1c0-2.3,1.8-4.1,4.1-4.1H544c2.3,0,4.1,1.8,4.1,4.1
					C548.1,303.1,546.3,304.9,544,304.9L544,304.9z"/>
			</g>
			<g>
				<path fill="#FFFFFF" d="M544,323.2h-14.3c-2.3,0-4.1-1.8-4.1-4.1c0-2.3,1.8-4.1,4.1-4.1H544c2.3,0,4.1,1.8,4.1,4.1
					C548.1,321.3,546.3,323.2,544,323.2L544,323.2z"/>
			</g>
			<g>
				<path fill="#FFFFFF" d="M544,341.4h-14.3c-2.3,0-4.1-1.8-4.1-4.1s1.8-4.1,4.1-4.1H544c2.3,0,4.1,1.8,4.1,4.1
					S546.3,341.4,544,341.4L544,341.4z"/>
			</g>
			<g>
				<path fill="#FFFFFF" d="M544,359.7h-14.3c-2.3,0-4.1-1.8-4.1-4.1c0-2.3,1.8-4.1,4.1-4.1H544c2.3,0,4.1,1.8,4.1,4.1
					C548.1,357.9,546.3,359.7,544,359.7L544,359.7z"/>
			</g>
		</g>
	</g>
</g>
<g>
	<g>
		<rect x="1200.9" y="251.6" fill="#7F888D" width="169.2" height="169.2"/>
		<text transform="matrix(1 0 0 1 1252.8204 407.5135)" fill="#FFFFFF" font-family="'Gotham-Bold'" font-size="18">secrets</text>
	</g>
	<g>
		<g>
			<g>
				<path fill="#FFFFFF" d="M1330.8,375.1h-86.3c-2.2,0-4-1.8-4-4v-86.3c0-2.2,1.8-4,4-4h86.3c2.2,0,4,1.8,4,4v86.3
					C1334.8,373.3,1333,375.1,1330.8,375.1L1330.8,375.1z M1248.5,367.1h78.3v-78.2h-78.3V367.1L1248.5,367.1z"/>
			</g>
			<g>
				<path fill="#FFFFFF" d="M1318.1,360.4h-60.8c-1.1,0-2-0.9-2-2v-60.8c0-1.1,0.9-2,2-2h60.8c1.1,0,2,0.9,2,2v60.8
					C1320.1,359.5,1319.2,360.4,1318.1,360.4L1318.1,360.4z M1259.3,356.3h56.8v-56.8h-56.8V356.3L1259.3,356.3z"/>
			</g>
			<g>
				<g>
					<path fill="#FFFFFF" d="M1257.3,320.3c-2.2,0-4-1.8-4-4v-5c0-2.2,1.8-4,4-4s4,1.8,4,4v5
						C1261.3,318.5,1259.5,320.3,1257.3,320.3L1257.3,320.3z"/>
				</g>
				<g>
					<path fill="#FFFFFF" d="M1257.3,348.6c-2.2,0-4-1.8-4-4v-5c0-2.2,1.8-4,4-4s4,1.8,4,4v5
						C1261.3,346.8,1259.5,348.6,1257.3,348.6L1257.3,348.6z"/>
				</g>
			</g>
		</g>
		<g>
			<g>
				<path fill="#FFFFFF" d="M1287.7,340c-6.7,0-12.1-5.4-12.1-12.1c0-6.7,5.4-12.1,12.1-12.1c6.7,0,12.1,5.4,12.1,12.1
					C1299.8,334.6,1294.3,340,1287.7,340L1287.7,340z M1287.7,319.9c-4.4,0-8.1,3.6-8.1,8.1c0,4.5,3.6,8.1,8.1,8.1
					c4.5,0,8.1-3.6,8.1-8.1C1295.7,323.5,1292.1,319.9,1287.7,319.9L1287.7,319.9z"/>
			</g>
			<g>
				<g>
					<path fill="#FFFFFF" d="M1280.1,322.3c-0.5,0-1-0.2-1.4-0.6l-2.8-2.8c-0.8-0.8-0.8-2.1,0-2.8c0.8-0.8,2.1-0.8,2.8,0l2.8,2.8
						c0.8,0.8,0.8,2.1,0,2.8C1281.1,322.1,1280.6,322.3,1280.1,322.3L1280.1,322.3z"/>
				</g>
				<g>
					<path fill="#FFFFFF" d="M1298.1,340.4c-0.5,0-1-0.2-1.4-0.6l-3.3-3.3c-0.8-0.8-0.8-2.1,0-2.8c0.8-0.8,2.1-0.8,2.8,0l3.3,3.3
						c0.8,0.8,0.8,2.1,0,2.8C1299.1,340.2,1298.6,340.4,1298.1,340.4L1298.1,340.4z"/>
				</g>
			</g>
			<g>
				<g>
					<path fill="#FFFFFF" d="M1295.3,322.3c-0.5,0-1-0.2-1.4-0.6c-0.8-0.8-0.8-2.1,0-2.8l2.8-2.8c0.8-0.8,2.1-0.8,2.8,0
						c0.8,0.8,0.8,2.1,0,2.8l-2.8,2.8C1296.3,322.1,1295.8,322.3,1295.3,322.3L1295.3,322.3z"/>
				</g>
				<g>
					<path fill="#FFFFFF" d="M1277.3,340.4c-0.5,0-1-0.2-1.4-0.6c-0.8-0.8-0.8-2.1,0-2.8l3.3-3.3c0.8-0.8,2.1-0.8,2.8,0
						c0.8,0.8,0.8,2.1,0,2.8l-3.3,3.3C1278.3,340.2,1277.8,340.4,1277.3,340.4L1277.3,340.4z"/>
				</g>
			</g>
			<g>
				<g>
					<path fill="#FFFFFF" d="M1287.7,319.2c-1.1,0-2-0.9-2-2v-4c0-1.1,0.9-2,2-2c1.1,0,2,0.9,2,2v4
						C1289.7,318.3,1288.8,319.2,1287.7,319.2L1287.7,319.2z"/>
				</g>
				<g>
					<path fill="#FFFFFF" d="M1287.7,344.7L1287.7,344.7c-1.1,0-2-0.9-2-2l0-4.7c0-1.1,0.9-2,2-2l0,0c1.1,0,2,0.9,2,2l0,4.7
						C1289.7,343.8,1288.8,344.7,1287.7,344.7L1287.7,344.7z"/>
				</g>
			</g>
			<g>
				<g>
					<path fill="#FFFFFF" d="M1302.4,329.9h-4c-1.1,0-2-0.9-2-2c0-1.1,0.9-2,2-2h4c1.1,0,2,0.9,2,2
						C1304.4,329,1303.5,329.9,1302.4,329.9L1302.4,329.9z"/>
				</g>
				<g>
					<path fill="#FFFFFF" d="M1277.6,329.9h-4.7c-1.1,0-2-0.9-2-2c0-1.1,0.9-2,2-2h4.7c1.1,0,2,0.9,2,2
						C1279.7,329,1278.8,329.9,1277.6,329.9L1277.6,329.9z"/>
				</g>
			</g>
		</g>
	</g>
</g>
<g>
	<g>
		<rect x="843.9" y="251.6" fill="#7F888D" width="169.2" height="169.2"/>
		<text transform="matrix(1 0 0 1 904.8948 407.5135)" fill="#FFFFFF" font-family="'Gotham-Bold'" font-size="18">Ruby</text>
	</g>
	<g>
		<g>
			<path fill="#FFFFFF" d="M892.7,363.4c-0.6-0.8-1.2-1.9-1-3l10-70.4c0.3-1.9,2-3.2,3.9-3l27.7,2.7c0.8,0.1,1.6,0.4,2.2,1
				l30.4,30.4c0.6,0.6,0.9,1.4,1,2.2l2.7,27.7c0.2,1.9-1.2,3.6-3.1,3.9l-70.8,9.6C894.6,364.6,893.5,364.2,892.7,363.4L892.7,363.4z
				 M908.2,294.4l-8.8,62.3l62.7-8.5l-2.3-23l-28.6-28.6L908.2,294.4L908.2,294.4z"/>
		</g>
		<g>
			<path fill="#FFFFFF" d="M964.7,352.6l-60.8-60.8c-0.5-0.5-0.7-1.3-0.3-2c0.3-0.7,1-1.1,1.8-1l27.7,2.7c0.4,0,0.8,0.2,1.1,0.5
				l30.4,30.4c0.3,0.3,0.5,0.7,0.5,1.1l2.7,27.7c0.1,0.7-0.3,1.5-1,1.8C966.1,353.2,965.3,353.1,964.7,352.6L964.7,352.6z
				 M910,292.8l53.7,53.7l-2.2-22.1L932.1,295L910,292.8L910,292.8z"/>
		</g>
		<g>
			<path fill="#FFFFFF" d="M893.8,362.7c-0.6-0.6-0.7-1.4-0.3-2.1l37.5-67c0.5-0.9,1.6-1.2,2.4-0.7c0.9,0.5,1.2,1.6,0.7,2.4
				l-34.4,61.5l61.5-34.4c0.9-0.5,1.9-0.2,2.4,0.7c0.5,0.9,0.2,1.9-0.7,2.4L896,363C895.3,363.4,894.4,363.3,893.8,362.7
				L893.8,362.7z"/>
		</g>
		<g>
			<path fill="#FFFFFF" d="M934.4,322.1c-0.3-0.3-0.5-0.6-0.5-1.1l-3.1-26.4c-0.1-1,0.6-1.9,1.6-2c1-0.1,1.9,0.6,2,1.6l2.9,25
				l25,2.9c1,0.1,1.7,1,1.6,2c-0.1,1-1,1.7-2,1.6l-26.4-3.1C935.1,322.6,934.7,322.4,934.4,322.1L934.4,322.1z"/>
		</g>
		<g>
			<path fill="#FFFFFF" d="M963.1,350.5c-0.1-0.1-0.2-0.3-0.3-0.4L944,312.5l-37.6-18.8c-0.8-0.4-1.1-1.4-0.7-2.2
				c0.4-0.8,1.4-1.1,2.2-0.7l38.1,19c0.3,0.2,0.6,0.4,0.7,0.7l19,38.2c0.4,0.8,0.1,1.8-0.7,2.2C964.3,351.2,963.6,351,963.1,350.5
				L963.1,350.5z"/>
		</g>
	</g>
</g>
<g>
	<g>
		<rect x="665.4" y="251.8" fill="#7F888D" width="169.2" height="169.2"/>
		<text transform="matrix(1 0 0 1 716.7564 407.6634)" fill="#FFFFFF" font-family="'Gotham-Bold'" font-size="18">recipes</text>
	</g>
	<g>
		<path fill="#FFFFFF" d="M773.2,356.7v-83.9c0-1-0.8-1.8-1.8-1.8h-63.1c-1,0-1.8,0.8-1.8,1.8v83.9c0,1,0.8,1.8,1.8,1.8h63.1
			C772.4,358.5,773.2,357.7,773.2,356.7z M748,280.4h8.8c1,0,1.8,0.8,1.8,1.8c0,1-0.8,1.8-1.8,1.8H748c-1,0-1.8-0.8-1.8-1.8
			C746.2,281.2,747,280.4,748,280.4z M755.9,289.9c0,1-0.8,1.8-1.8,1.8h-31.7c-1,0-1.8-0.8-1.8-1.8c0-1,0.8-1.8,1.8-1.8h31.7
			C755.1,288.2,755.9,289,755.9,289.9z M732.7,280.4h8.8c1,0,1.8,0.8,1.8,1.8c0,1-0.8,1.8-1.8,1.8h-8.8c-1,0-1.8-0.8-1.8-1.8
			C730.9,281.2,731.7,280.4,732.7,280.4z M717.5,280.4h8.8c1,0,1.8,0.8,1.8,1.8c0,1-0.8,1.8-1.8,1.8h-8.8c-1,0-1.8-0.8-1.8-1.8
			C715.7,281.2,716.5,280.4,717.5,280.4z M747.9,306.5h-25.5c-1,0-1.8-0.8-1.8-1.8c0-1,0.8-1.8,1.8-1.8h25.5c1,0,1.8,0.8,1.8,1.8
			C749.6,305.7,748.8,306.5,747.9,306.5z M749.6,312.1c0,1-0.8,1.8-1.8,1.8h-25.5c-1,0-1.8-0.8-1.8-1.8c0-1,0.8-1.8,1.8-1.8h25.5
			C748.8,310.3,749.6,311.1,749.6,312.1z M726.3,329.2h-8.8c-1,0-1.8-0.8-1.8-1.8c0-1,0.8-1.8,1.8-1.8h8.8c1,0,1.8,0.8,1.8,1.8
			C728.1,328.4,727.3,329.2,726.3,329.2z M761.6,321.5h-39.2c-1,0-1.8-0.8-1.8-1.8c0-1,0.8-1.8,1.8-1.8h39.2c1,0,1.8,0.8,1.8,1.8
			C763.4,320.7,762.6,321.5,761.6,321.5z M761.6,299.4h-39.2c-1,0-1.8-0.8-1.8-1.8c0-1,0.8-1.8,1.8-1.8h39.2c1,0,1.8,0.8,1.8,1.8
			C763.4,298.6,762.6,299.4,761.6,299.4z"/>
		<path fill="#FFFFFF" d="M783.3,370.4h-63.1c-1,0-1.8-0.8-1.8-1.8v-4.1h59c1,0,1.8-0.8,1.8-1.8v-79.8h4.2c1,0,1.8,0.8,1.8,1.8v83.9
			C785.1,369.6,784.3,370.4,783.3,370.4z"/>
		<path fill="#FFFFFF" d="M797,296.6v83.9c0,1-0.8,1.8-1.8,1.8h-63.1c-1,0-1.8-0.8-1.8-1.8v-4.1h59c1,0,1.8-0.8,1.8-1.8v-79.8h4.1
			C796.2,294.8,797,295.6,797,296.6z"/>
	</g>
</g>
<g>
	<g>
		<rect x="1380.9" y="251.7" fill="#7F888D" width="169.2" height="169.2"/>
		<text transform="matrix(1 0 0 1 1437.4648 407.618)" fill="#FFFFFF" font-family="'Gotham-Bold'" font-size="18">policy</text>
	</g>
	<g>
		<g>
			<path fill="#FFFFFF" d="M1511,376.3h-89.8c-2.4,0-4.3-1.9-4.3-4.3v-30.3c0-2.4,1.9-4.3,4.3-4.3h27.8c2.4,0,4.3,1.9,4.3,4.3v6
				h25.7v-6c0-2.4,1.9-4.3,4.3-4.3h27.8c2.4,0,4.3,1.9,4.3,4.3V372C1515.3,374.4,1513.4,376.3,1511,376.3L1511,376.3z M1425.5,367.7
				h81.2V346h-19.2v1.8c0,4.7-3.8,8.6-8.6,8.6h-25.7c-4.7,0-8.6-3.8-8.6-8.6V346h-19.2V367.7L1425.5,367.7z"/>
		</g>
		<g>
			<path fill="#FFFFFF" d="M1506.2,345.4c-2.4,0-4.3-1.9-4.3-4.3v-29.9h-70.5v29.9c0,2.4-1.9,4.3-4.3,4.3c-2.4,0-4.3-1.9-4.3-4.3
				v-34.2c0-2.4,1.9-4.3,4.3-4.3h79.1c2.4,0,4.3,1.9,4.3,4.3v34.2C1510.5,343.4,1508.6,345.4,1506.2,345.4L1506.2,345.4z"/>
		</g>
		<g>
			<path fill="#FFFFFF" d="M1501.3,298.3h-69.1c-1.2,0-2.1-1-2.1-2.1c0-1.2,1-2.1,2.1-2.1h69.1c1.2,0,2.1,1,2.1,2.1
				C1503.4,297.4,1502.4,298.3,1501.3,298.3L1501.3,298.3z"/>
		</g>
		<g>
			<path fill="#FFFFFF" d="M1497.2,289.8h-60.9c-1.2,0-2.1-1-2.1-2.1c0-1.2,1-2.1,2.1-2.1h60.9c1.2,0,2.1,1,2.1,2.1
				C1499.3,288.8,1498.3,289.8,1497.2,289.8L1497.2,289.8z"/>
		</g>
	</g>
</g>
<g>
	<g>
		<g>
			<path fill="#FFFFFF" d="M213.1,276.1c0.5,0,1,0.2,1.5,0.5c1.1,0.8,1.4,2.4,0.6,3.5l-11.7,16.1l11.7,16.1c0.8,1.1,0.6,2.7-0.6,3.5
				c-1.1,0.8-2.7,0.6-3.5-0.6l-12.8-17.5c-0.6-0.9-0.6-2.1,0-2.9l12.8-17.5C211.5,276.5,212.3,276.1,213.1,276.1L213.1,276.1z"/>
		</g>
	</g>
	<g>
		<g>
			<path fill="#FFFFFF" d="M229.7,276.1c0.5,0,1,0.2,1.5,0.5c1.1,0.8,1.4,2.4,0.6,3.5L220,296.1l11.7,16.1c0.8,1.1,0.6,2.7-0.6,3.5
				c-1.1,0.8-2.7,0.6-3.5-0.6l-12.8-17.5c-0.6-0.9-0.6-2.1,0-2.9l12.8-17.5C228.2,276.5,228.9,276.1,229.7,276.1L229.7,276.1z"/>
		</g>
	</g>
</g>
<g>
	<g>
		<g>
			<path fill="#FFFFFF" d="M206.9,396.5c-0.5,0-1-0.2-1.5-0.5c-1.1-0.8-1.4-2.4-0.6-3.5l11.7-16.1l-11.7-16.1
				c-0.8-1.1-0.6-2.7,0.6-3.5c1.1-0.8,2.7-0.6,3.5,0.6l12.8,17.5c0.6,0.9,0.6,2.1,0,2.9L209,395.5
				C208.5,396.1,207.7,396.5,206.9,396.5L206.9,396.5z"/>
		</g>
	</g>
	<g>
		<g>
			<path fill="#FFFFFF" d="M190.3,396.5c-0.5,0-1-0.2-1.5-0.5c-1.1-0.8-1.4-2.4-0.6-3.5l11.7-16.1l-11.7-16.1
				c-0.8-1.1-0.6-2.7,0.6-3.5c1.1-0.8,2.7-0.6,3.5,0.6l12.8,17.5c0.6,0.9,0.6,2.1,0,2.9l-12.8,17.5
				C191.8,396.1,191.1,396.5,190.3,396.5L190.3,396.5z"/>
		</g>
	</g>
</g>
<g>
	<g>
		<g>
			<path fill="#FFFFFF" d="M1576.5,113.5c-0.5,0-1-0.2-1.5-0.5c-1.1-0.8-1.4-2.4-0.6-3.5l11.7-16.1l-11.7-16.1
				c-0.8-1.1-0.6-2.7,0.6-3.5c1.1-0.8,2.7-0.6,3.5,0.6l12.8,17.5c0.6,0.9,0.6,2.1,0,2.9l-12.8,17.5
				C1578.1,113.2,1577.3,113.5,1576.5,113.5L1576.5,113.5z"/>
		</g>
	</g>
	<g>
		<g>
			<path fill="#FFFFFF" d="M1559.9,113.5c-0.5,0-1-0.2-1.5-0.5c-1.1-0.8-1.4-2.4-0.6-3.5l11.7-16.1l-11.7-16.1
				c-0.8-1.1-0.6-2.7,0.6-3.5c1.1-0.8,2.7-0.6,3.5,0.6l12.8,17.5c0.6,0.9,0.6,2.1,0,2.9l-12.8,17.5
				C1561.4,113.2,1560.7,113.5,1559.9,113.5L1559.9,113.5z"/>
		</g>
	</g>
</g>
<g>
	<g>
		<g>
			<path fill="#FFFFFF" d="M436.1,364.9c0-0.7,0.6-1.3,1.3-1.3h32.1c0.7,0,1.3,0.6,1.3,1.3c0,0.7-0.6,1.3-1.3,1.3h-32.1
				C436.6,366.2,436.1,365.6,436.1,364.9L436.1,364.9z"/>
		</g>
		<g>
			<path fill="#FFFFFF" d="M436.1,378.8c0-0.7,0.6-1.3,1.3-1.3h32.1c0.7,0,1.3,0.6,1.3,1.3c0,0.7-0.6,1.3-1.3,1.3h-32.1
				C436.6,380.1,436.1,379.5,436.1,378.8L436.1,378.8z"/>
		</g>
		<g>
			<path fill="#FFFFFF" d="M436.1,392.7c0-0.7,0.6-1.3,1.3-1.3h32.1c0.7,0,1.3,0.6,1.3,1.3c0,0.7-0.6,1.3-1.3,1.3h-32.1
				C436.6,394,436.1,393.4,436.1,392.7L436.1,392.7z"/>
		</g>
		<g>
			<polygon fill="#FFFFFF" points="451.9,368.7 451.9,361.1 471,361.1 471,368.7 451.9,368.7 			"/>
		</g>
		<g>
			<polygon fill="#FFFFFF" points="451.9,382.6 451.9,375 471,375 471,382.6 451.9,382.6 			"/>
		</g>
		<g>
			<polygon fill="#FFFFFF" points="451.9,396.5 451.9,388.9 471,388.9 471,396.5 451.9,396.5 			"/>
		</g>
	</g>
	<g>
		<g>
			<path fill="#FFFFFF" d="M436.1,323.1c0-0.7,0.6-1.3,1.3-1.3h32.1c0.7,0,1.3,0.6,1.3,1.3c0,0.7-0.6,1.3-1.3,1.3h-32.1
				C436.6,324.3,436.1,323.8,436.1,323.1L436.1,323.1z"/>
		</g>
		<g>
			<path fill="#FFFFFF" d="M436.1,337c0-0.7,0.6-1.3,1.3-1.3h32.1c0.7,0,1.3,0.6,1.3,1.3c0,0.7-0.6,1.3-1.3,1.3h-32.1
				C436.6,338.2,436.1,337.7,436.1,337L436.1,337z"/>
		</g>
		<g>
			<path fill="#FFFFFF" d="M436.1,350.9c0-0.7,0.6-1.3,1.3-1.3h32.1c0.7,0,1.3,0.6,1.3,1.3c0,0.7-0.6,1.3-1.3,1.3h-32.1
				C436.6,352.1,436.1,351.6,436.1,350.9L436.1,350.9z"/>
		</g>
		<g>
			<polygon fill="#FFFFFF" points="451.9,326.9 451.9,319.3 471,319.3 471,326.9 451.9,326.9 			"/>
		</g>
		<g>
			<polygon fill="#FFFFFF" points="451.9,340.8 451.9,333.2 471,333.2 471,340.8 451.9,340.8 			"/>
		</g>
		<g>
			<polygon fill="#FFFFFF" points="451.9,354.7 451.9,347.1 471,347.1 471,354.7 451.9,354.7 			"/>
		</g>
	</g>
	<g>
		<g>
			<path fill="#FFFFFF" d="M436.1,281.2c0-0.7,0.6-1.3,1.3-1.3h32.1c0.7,0,1.3,0.6,1.3,1.3c0,0.7-0.6,1.3-1.3,1.3h-32.1
				C436.6,282.5,436.1,281.9,436.1,281.2L436.1,281.2z"/>
		</g>
		<g>
			<path fill="#FFFFFF" d="M436.1,295.1c0-0.7,0.6-1.3,1.3-1.3h32.1c0.7,0,1.3,0.6,1.3,1.3c0,0.7-0.6,1.3-1.3,1.3h-32.1
				C436.6,296.4,436.1,295.8,436.1,295.1L436.1,295.1z"/>
		</g>
		<g>
			<path fill="#FFFFFF" d="M436.1,309c0-0.7,0.6-1.3,1.3-1.3h32.1c0.7,0,1.3,0.6,1.3,1.3c0,0.7-0.6,1.3-1.3,1.3h-32.1
				C436.6,310.3,436.1,309.7,436.1,309L436.1,309z"/>
		</g>
		<g>
			<polygon fill="#FFFFFF" points="451.9,285 451.9,277.4 471,277.4 471,285 451.9,285 			"/>
		</g>
		<g>
			<polygon fill="#FFFFFF" points="451.9,298.9 451.9,291.3 471,291.3 471,298.9 451.9,298.9 			"/>
		</g>
		<g>
			<polygon fill="#FFFFFF" points="451.9,312.8 451.9,305.2 471,305.2 471,312.8 451.9,312.8 			"/>
		</g>
	</g>
</g>
<g>
	<rect x="475.7" y="1" fill="#D1D3D4" width="1083.7" height="190.1"/>
	<g>
		<g>
			<rect x="843.8" y="12" fill="#455565" width="169.2" height="169.2"/>
			<text transform="matrix(1 0 0 1 884.0683 167.9051)" fill="#FFFFFF" font-family="'Gotham-Bold'" font-size="18">resources</text>
		</g>
		<g>
			<g>
				<path fill="#FFFFFF" d="M927,99c-0.7,0-1.4-0.2-2.1-0.5L875.8,71c-1.3-0.7-2.2-2.2-2.2-3.7c0-1.5,0.8-2.9,2.2-3.7l48.8-27.3
					c1.3-0.7,2.9-0.7,4.1,0l49.1,27.5c1.3,0.7,2.2,2.2,2.2,3.7s-0.8,2.9-2.2,3.7l-48.8,27.3C928.5,98.9,927.7,99,927,99L927,99z
					 M886.5,67.3L927,90l40.2-22.5l-40.5-22.7L886.5,67.3L886.5,67.3z"/>
			</g>
			<g>
				<path fill="#FFFFFF" d="M927,118c-0.7,0-1.4-0.2-2.1-0.5L875.8,90c-2-1.1-2.8-3.7-1.6-5.7c1.1-2,3.7-2.8,5.7-1.6L927,109
					l46.7-26.2c2-1.1,4.6-0.4,5.7,1.6c1.1,2,0.4,4.6-1.6,5.7l-48.8,27.3C928.5,117.9,927.7,118,927,118L927,118z"/>
			</g>
			<g>
				<path fill="#FFFFFF" d="M927,137c-0.7,0-1.4-0.2-2.1-0.5L875.8,109c-2-1.1-2.8-3.7-1.6-5.7c1.1-2,3.7-2.8,5.7-1.6L927,128
					l46.7-26.2c2-1.1,4.6-0.4,5.7,1.6c1.1,2,0.4,4.6-1.6,5.7l-48.8,27.3C928.5,136.9,927.7,137,927,137L927,137z"/>
			</g>
		</g>
	</g>
	<g>
		<g>
			<rect x="1201.1" y="11.7" fill="#455565" width="169.2" height="169.2"/>
			<text transform="matrix(1 0 0 1 1263.6843 167.5721)" fill="#FFFFFF" font-family="'Gotham-Bold'" font-size="18">tests</text>
		</g>
		<g>
			<g>
				<path fill="#FFFFFF" d="M1280.2,104.6c-1.1,0-2.1-0.4-2.9-1.2L1267,92.6c-1.5-1.6-1.4-4.1,0.1-5.6c1.6-1.5,4.1-1.5,5.6,0.1
					l7.2,7.5l19.8-24.2c1.4-1.7,3.9-1.9,5.6-0.6c1.7,1.4,1.9,3.9,0.5,5.6l-22.7,27.6c-0.7,0.9-1.8,1.4-2.9,1.4
					C1280.3,104.6,1280.2,104.6,1280.2,104.6L1280.2,104.6z"/>
			</g>
			<g>
				<path fill="#FFFFFF" d="M1329.6,135.9h-86.4c-2.2,0-4-1.8-4-4V45.6c0-2.2,1.8-4,4-4h86.4c2.2,0,4,1.8,4,4V132
					C1333.5,134.2,1331.8,135.9,1329.6,135.9L1329.6,135.9z M1247.1,128h78.5V49.5h-78.5V128L1247.1,128z"/>
			</g>
		</g>
	</g>
	<g>
		<g>
			<rect x="486.1" y="12" fill="#455565" width="169.2" height="169.2"/>
			<text transform="matrix(1 0 0 1 525.9529 167.9051)" fill="#FFFFFF" font-family="'Gotham-Bold'" font-size="18">attributes</text>
		</g>
		<g>
			<g>
				<g>
					<g>
						<path fill="#FFFFFF" d="M575.7,112.2c-3.8,0-6.8-3.1-6.8-6.8c0-3.8,3.1-6.8,6.8-6.8c3.8,0,6.8,3.1,6.8,6.8
							C582.5,109.2,579.4,112.2,575.7,112.2L575.7,112.2z M575.7,100.9c-2.5,0-4.6,2-4.6,4.6c0,2.5,2,4.6,4.6,4.6
							c2.5,0,4.6-2,4.6-4.6C580.2,102.9,578.2,100.9,575.7,100.9L575.7,100.9z"/>
					</g>
					<g>
						<g>
							<path fill="#FFFFFF" d="M571.4,102.3c-0.3,0-0.6-0.1-0.8-0.3l-1.6-1.6c-0.4-0.4-0.4-1.2,0-1.6c0.4-0.4,1.2-0.4,1.6,0l1.6,1.6
								c0.4,0.4,0.4,1.2,0,1.6C572,102.1,571.7,102.3,571.4,102.3L571.4,102.3z"/>
						</g>
						<g>
							<path fill="#FFFFFF" d="M581.5,112.4c-0.3,0-0.6-0.1-0.8-0.3l-1.9-1.9c-0.4-0.4-0.4-1.2,0-1.6c0.4-0.4,1.2-0.4,1.6,0l1.9,1.9
								c0.4,0.4,0.4,1.2,0,1.6C582.1,112.3,581.8,112.4,581.5,112.4L581.5,112.4z"/>
						</g>
					</g>
					<g>
						<g>
							<path fill="#FFFFFF" d="M580,102.3c-0.3,0-0.6-0.1-0.8-0.3c-0.4-0.4-0.4-1.2,0-1.6l1.6-1.6c0.4-0.4,1.2-0.4,1.6,0
								c0.4,0.4,0.4,1.2,0,1.6l-1.6,1.6C580.5,102.2,580.2,102.3,580,102.3L580,102.3z"/>
						</g>
						<g>
							<path fill="#FFFFFF" d="M569.8,112.4c-0.3,0-0.6-0.1-0.8-0.3c-0.4-0.4-0.4-1.2,0-1.6l1.9-1.9c0.4-0.4,1.2-0.4,1.6,0
								c0.4,0.4,0.4,1.2,0,1.6l-1.9,1.9C570.4,112.3,570.1,112.4,569.8,112.4L569.8,112.4z"/>
						</g>
					</g>
					<g>
						<g>
							<path fill="#FFFFFF" d="M575.7,100.5c-0.6,0-1.1-0.5-1.1-1.1v-2.2c0-0.6,0.5-1.1,1.1-1.1c0.6,0,1.1,0.5,1.1,1.1v2.2
								C576.8,100,576.3,100.5,575.7,100.5L575.7,100.5z"/>
						</g>
						<g>
							<path fill="#FFFFFF" d="M575.7,114.9L575.7,114.9c-0.6,0-1.1-0.5-1.1-1.1l0-2.6c0-0.6,0.5-1.1,1.1-1.1l0,0
								c0.6,0,1.1,0.5,1.1,1.1l0,2.6C576.8,114.4,576.3,114.9,575.7,114.9L575.7,114.9z"/>
						</g>
					</g>
					<g>
						<g>
							<path fill="#FFFFFF" d="M584,106.6h-2.2c-0.6,0-1.1-0.5-1.1-1.1c0-0.6,0.5-1.1,1.1-1.1h2.2c0.6,0,1.1,0.5,1.1,1.1
								C585.1,106,584.6,106.6,584,106.6L584,106.6z"/>
						</g>
						<g>
							<path fill="#FFFFFF" d="M570,106.6h-2.6c-0.6,0-1.1-0.5-1.1-1.1c0-0.6,0.5-1.1,1.1-1.1h2.6c0.6,0,1.1,0.5,1.1,1.1
								C571.1,106,570.6,106.6,570,106.6L570,106.6z"/>
						</g>
					</g>
				</g>
				<g>
					<g>
						<path fill="#FFFFFF" d="M591.5,119.9c-2.9,0-5.2-2.3-5.2-5.2c0-2.9,2.3-5.2,5.2-5.2c2.9,0,5.2,2.3,5.2,5.2
							C596.7,117.6,594.4,119.9,591.5,119.9L591.5,119.9z M591.5,111.3c-1.9,0-3.5,1.6-3.5,3.5c0,1.9,1.6,3.5,3.5,3.5
							c1.9,0,3.5-1.6,3.5-3.5C595,112.8,593.4,111.3,591.5,111.3L591.5,111.3z"/>
					</g>
					<g>
						<g>
							<path fill="#FFFFFF" d="M588.3,112.3c-0.2,0-0.4-0.1-0.6-0.3l-1.2-1.2c-0.3-0.3-0.3-0.9,0-1.2c0.3-0.3,0.9-0.3,1.2,0l1.2,1.2
								c0.3,0.3,0.3,0.9,0,1.2C588.7,112.2,588.5,112.3,588.3,112.3L588.3,112.3z"/>
						</g>
						<g>
							<path fill="#FFFFFF" d="M596,120.1c-0.2,0-0.4-0.1-0.6-0.3l-1.4-1.4c-0.3-0.3-0.3-0.9,0-1.2c0.3-0.3,0.9-0.3,1.2,0l1.4,1.4
								c0.3,0.3,0.3,0.9,0,1.2C596.4,120,596.2,120.1,596,120.1L596,120.1z"/>
						</g>
					</g>
					<g>
						<g>
							<path fill="#FFFFFF" d="M594.8,112.3c-0.2,0-0.4-0.1-0.6-0.3c-0.3-0.3-0.3-0.9,0-1.2l1.2-1.2c0.3-0.3,0.9-0.3,1.2,0
								c0.3,0.3,0.3,0.9,0,1.2l-1.2,1.2C595.2,112.2,595,112.3,594.8,112.3L594.8,112.3z"/>
						</g>
						<g>
							<path fill="#FFFFFF" d="M587.1,120.1c-0.2,0-0.4-0.1-0.6-0.3c-0.3-0.3-0.3-0.9,0-1.2l1.4-1.4c0.3-0.3,0.9-0.3,1.2,0
								c0.3,0.3,0.3,0.9,0,1.2l-1.4,1.4C587.5,120,587.3,120.1,587.1,120.1L587.1,120.1z"/>
						</g>
					</g>
					<g>
						<g>
							<path fill="#FFFFFF" d="M591.5,111c-0.5,0-0.9-0.4-0.9-0.9v-1.7c0-0.5,0.4-0.9,0.9-0.9c0.5,0,0.9,0.4,0.9,0.9v1.7
								C592.4,110.6,592,111,591.5,111L591.5,111z"/>
						</g>
						<g>
							<path fill="#FFFFFF" d="M591.5,121.9L591.5,121.9c-0.5,0-0.9-0.4-0.9-0.9l0-2c0-0.5,0.4-0.9,0.9-0.9l0,0
								c0.5,0,0.9,0.4,0.9,0.9l0,2C592.4,121.5,592,121.9,591.5,121.9L591.5,121.9z"/>
						</g>
					</g>
					<g>
						<g>
							<path fill="#FFFFFF" d="M597.9,115.6h-1.7c-0.5,0-0.9-0.4-0.9-0.9c0-0.5,0.4-0.9,0.9-0.9h1.7c0.5,0,0.9,0.4,0.9,0.9
								C598.7,115.2,598.3,115.6,597.9,115.6L597.9,115.6z"/>
						</g>
						<g>
							<path fill="#FFFFFF" d="M587.2,115.6h-2c-0.5,0-0.9-0.4-0.9-0.9c0-0.5,0.4-0.9,0.9-0.9h2c0.5,0,0.9,0.4,0.9,0.9
								C588.1,115.2,587.7,115.6,587.2,115.6L587.2,115.6z"/>
						</g>
					</g>
				</g>
				<g>
					<g>
						<path fill="#FFFFFF" d="M579,124.8c-2.1,0-3.8-1.7-3.8-3.8c0-2.1,1.7-3.8,3.8-3.8c2.1,0,3.8,1.7,3.8,3.8
							C582.8,123.1,581.1,124.8,579,124.8L579,124.8z M579,118.5c-1.4,0-2.5,1.1-2.5,2.5c0,1.4,1.1,2.5,2.5,2.5
							c1.4,0,2.5-1.1,2.5-2.5C581.5,119.6,580.4,118.5,579,118.5L579,118.5z"/>
					</g>
					<g>
						<g>
							<path fill="#FFFFFF" d="M576.6,119.3c-0.2,0-0.3-0.1-0.4-0.2l-0.9-0.9c-0.2-0.2-0.2-0.6,0-0.9c0.2-0.2,0.6-0.2,0.9,0l0.9,0.9
								c0.2,0.2,0.2,0.6,0,0.9C576.9,119.2,576.8,119.3,576.6,119.3L576.6,119.3z"/>
						</g>
						<g>
							<path fill="#FFFFFF" d="M582.2,124.9c-0.2,0-0.3-0.1-0.4-0.2l-1-1c-0.2-0.2-0.2-0.6,0-0.9c0.2-0.2,0.6-0.2,0.9,0l1,1
								c0.2,0.2,0.2,0.6,0,0.9C582.5,124.8,582.4,124.9,582.2,124.9L582.2,124.9z"/>
						</g>
					</g>
					<g>
						<g>
							<path fill="#FFFFFF" d="M581.4,119.3c-0.2,0-0.3-0.1-0.4-0.2c-0.2-0.2-0.2-0.6,0-0.9l0.9-0.9c0.2-0.2,0.6-0.2,0.9,0
								c0.2,0.2,0.2,0.6,0,0.9l-0.9,0.9C581.7,119.2,581.5,119.3,581.4,119.3L581.4,119.3z"/>
						</g>
						<g>
							<path fill="#FFFFFF" d="M575.7,124.9c-0.2,0-0.3-0.1-0.4-0.2c-0.2-0.2-0.2-0.6,0-0.9l1-1c0.2-0.2,0.6-0.2,0.9,0
								c0.2,0.2,0.2,0.6,0,0.9l-1,1C576.1,124.8,575.9,124.9,575.7,124.9L575.7,124.9z"/>
						</g>
					</g>
					<g>
						<g>
							<path fill="#FFFFFF" d="M579,118.3c-0.3,0-0.6-0.3-0.6-0.6v-1.2c0-0.3,0.3-0.6,0.6-0.6c0.3,0,0.6,0.3,0.6,0.6v1.2
								C579.6,118,579.3,118.3,579,118.3L579,118.3z"/>
						</g>
						<g>
							<path fill="#FFFFFF" d="M579,126.2L579,126.2c-0.3,0-0.6-0.3-0.6-0.6l0-1.5c0-0.3,0.3-0.6,0.6-0.6l0,0c0.3,0,0.6,0.3,0.6,0.6
								l0,1.5C579.6,126,579.3,126.2,579,126.2L579,126.2z"/>
						</g>
					</g>
					<g>
						<g>
							<path fill="#FFFFFF" d="M583.6,121.6h-1.2c-0.3,0-0.6-0.3-0.6-0.6c0-0.3,0.3-0.6,0.6-0.6h1.2c0.3,0,0.6,0.3,0.6,0.6
								C584.2,121.4,583.9,121.6,583.6,121.6L583.6,121.6z"/>
						</g>
						<g>
							<path fill="#FFFFFF" d="M575.8,121.6h-1.5c-0.3,0-0.6-0.3-0.6-0.6c0-0.3,0.3-0.6,0.6-0.6h1.5c0.3,0,0.6,0.3,0.6,0.6
								C576.5,121.4,576.2,121.6,575.8,121.6L575.8,121.6z"/>
						</g>
					</g>
				</g>
			</g>
			<g>
				<g>
					<path fill="#FFFFFF" d="M588.3,82.6h-31.4c-1.1,0-2-0.9-2-2V62.8c0-1.1,0.9-2,2-2h31.4c1.1,0,2,0.9,2,2v17.7
						C590.4,81.6,589.5,82.6,588.3,82.6L588.3,82.6z M559,78.5h27.3V64.8H559V78.5L559,78.5z"/>
				</g>
				<g>
					<g>
						<path fill="#FFFFFF" d="M605.5,138.7h-70.2c-2.3,0-4.1-1.8-4.1-4.1V46.3c0-2.3,1.8-4.1,4.1-4.1h70.2c2.3,0,4.1,1.8,4.1,4.1
							v88.3C609.6,136.9,607.8,138.7,605.5,138.7L605.5,138.7z M539.4,130.5h62V50.4h-62V130.5L539.4,130.5z"/>
					</g>
					<g>
						<path fill="#FFFFFF" d="M542.5,66.9h-14.3c-2.3,0-4.1-1.8-4.1-4.1c0-2.3,1.8-4.1,4.1-4.1h14.3c2.3,0,4.1,1.8,4.1,4.1
							C546.6,65.1,544.7,66.9,542.5,66.9L542.5,66.9z"/>
					</g>
					<g>
						<path fill="#FFFFFF" d="M542.5,85.2h-14.3c-2.3,0-4.1-1.8-4.1-4.1c0-2.3,1.8-4.1,4.1-4.1h14.3c2.3,0,4.1,1.8,4.1,4.1
							C546.6,83.3,544.7,85.2,542.5,85.2L542.5,85.2z"/>
					</g>
					<g>
						<path fill="#FFFFFF" d="M542.5,103.5h-14.3c-2.3,0-4.1-1.8-4.1-4.1s1.8-4.1,4.1-4.1h14.3c2.3,0,4.1,1.8,4.1,4.1
							S544.7,103.5,542.5,103.5L542.5,103.5z"/>
					</g>
					<g>
						<path fill="#FFFFFF" d="M542.5,121.7h-14.3c-2.3,0-4.1-1.8-4.1-4.1c0-2.3,1.8-4.1,4.1-4.1h14.3c2.3,0,4.1,1.8,4.1,4.1
							C546.6,119.9,544.7,121.7,542.5,121.7L542.5,121.7z"/>
					</g>
				</g>
			</g>
		</g>
	</g>
	<g>
		<g>
			<rect x="664.6" y="11.2" fill="#445464" width="169.2" height="169.2"/>
			<text transform="matrix(1 0 0 1 730.3013 167.0487)" fill="#FFFFFF" font-family="'Gotham-Bold'" font-size="18">files</text>
		</g>
		<g>
			<g>
				<g>
					<path fill="#FFFFFF" d="M770.7,80.8h-31.4c-1.1,0-2-0.9-2-2V61c0-1.1,0.9-2,2-2h31.4c1.1,0,2,0.9,2,2v17.7
						C772.7,79.9,771.8,80.8,770.7,80.8L770.7,80.8z M741.3,76.7h27.3V63.1h-27.3V76.7L741.3,76.7z"/>
				</g>
				<g>
					<g>
						<path fill="#FFFFFF" d="M787.9,136.9h-70.2c-2.3,0-4.1-1.8-4.1-4.1V44.6c0-2.3,1.8-4.1,4.1-4.1h70.2c2.3,0,4.1,1.8,4.1,4.1
							v88.3C792,135.1,790.1,136.9,787.9,136.9L787.9,136.9z M721.8,128.8h62V48.7h-62V128.8L721.8,128.8z"/>
					</g>
					<g>
						<path fill="#FFFFFF" d="M724.8,65.2h-14.3c-2.3,0-4.1-1.8-4.1-4.1s1.8-4.1,4.1-4.1h14.3c2.3,0,4.1,1.8,4.1,4.1
							S727.1,65.2,724.8,65.2L724.8,65.2z"/>
					</g>
					<g>
						<path fill="#FFFFFF" d="M724.8,83.4h-14.3c-2.3,0-4.1-1.8-4.1-4.1c0-2.3,1.8-4.1,4.1-4.1h14.3c2.3,0,4.1,1.8,4.1,4.1
							C728.9,81.6,727.1,83.4,724.8,83.4L724.8,83.4z"/>
					</g>
					<g>
						<path fill="#FFFFFF" d="M724.8,101.7h-14.3c-2.3,0-4.1-1.8-4.1-4.1s1.8-4.1,4.1-4.1h14.3c2.3,0,4.1,1.8,4.1,4.1
							S727.1,101.7,724.8,101.7L724.8,101.7z"/>
					</g>
					<g>
						<path fill="#FFFFFF" d="M724.8,120h-14.3c-2.3,0-4.1-1.8-4.1-4.1c0-2.3,1.8-4.1,4.1-4.1h14.3c2.3,0,4.1,1.8,4.1,4.1
							C728.9,118.2,727.1,120,724.8,120L724.8,120z"/>
					</g>
				</g>
			</g>
			<g>
				<g>
					<g>
						<path fill="#FFFFFF" d="M753.2,124.2c-0.2,0-0.4-0.1-0.6-0.2c-0.3-0.2-0.5-0.5-0.5-0.9v-21.3c0-0.4,0.3-0.8,0.7-1l12-4.5
							c0.3-0.1,0.7-0.1,1,0.1c0.3,0.2,0.5,0.5,0.5,0.9v21.3c0,0.4-0.3,0.8-0.7,1l-12,4.5C753.4,124.2,753.3,124.2,753.2,124.2
							L753.2,124.2z M754.3,102.6v19l9.9-3.7v-19L754.3,102.6L754.3,102.6z"/>
					</g>
					<g>
						<path fill="#FFFFFF" d="M755.7,107c-0.2,0-0.4-0.1-0.5-0.3c-0.1-0.3,0-0.6,0.3-0.7l7.2-2.7c0.3-0.1,0.6,0,0.7,0.3
							c0.1,0.3,0,0.6-0.3,0.7l-7.2,2.7C755.8,107,755.7,107,755.7,107L755.7,107z"/>
					</g>
					<g>
						<path fill="#FFFFFF" d="M755.7,113.9c-0.2,0-0.4-0.1-0.5-0.3c-0.1-0.3,0-0.6,0.3-0.7l7.2-2.7c0.3-0.1,0.6,0,0.7,0.3
							c0.1,0.3,0,0.6-0.3,0.7l-7.2,2.7C755.8,113.9,755.7,113.9,755.7,113.9L755.7,113.9z"/>
					</g>
					<g>
						<path fill="#FFFFFF" d="M755.7,117.4c-0.2,0-0.4-0.1-0.5-0.3c-0.1-0.3,0-0.6,0.3-0.7l7.2-2.7c0.3-0.1,0.6,0,0.7,0.3
							c0.1,0.3,0,0.6-0.3,0.7l-7.2,2.7C755.8,117.4,755.7,117.4,755.7,117.4L755.7,117.4z"/>
					</g>
					<g>
						<path fill="#FFFFFF" d="M755.7,110.5c-0.2,0-0.4-0.1-0.5-0.3c-0.1-0.3,0-0.6,0.3-0.7l7.2-2.7c0.3-0.1,0.6,0,0.7,0.3
							c0.1,0.3,0,0.6-0.3,0.7l-7.2,2.7C755.8,110.5,755.7,110.5,755.7,110.5L755.7,110.5z"/>
					</g>
				</g>
				<g>
					<g>
						<path fill="#FFFFFF" d="M772.8,122c-0.3,0-0.5-0.2-0.5-0.5v-6.2c0-0.2,0.1-0.3,0.2-0.4c0.1-0.1,0.3-0.1,0.5-0.1l4.4,1.7
							c0.3,0.1,0.4,0.4,0.3,0.7c-0.1,0.3-0.4,0.4-0.7,0.3l-3.7-1.4v5.4C773.3,121.7,773.1,122,772.8,122L772.8,122z"/>
					</g>
					<g>
						<path fill="#FFFFFF" d="M772.8,122.5c-0.1,0-0.3,0-0.4-0.1l-7.6-2.9c-0.4-0.2-0.7-0.6-0.7-1V97.3c0-0.4,0.2-0.7,0.5-0.9
							c0.3-0.2,0.7-0.2,1-0.1l12,4.5c0.4,0.2,0.7,0.6,0.7,1l0,15c0,0.3-0.1,0.5-0.3,0.7l-4.4,4.5
							C773.3,122.4,773.1,122.5,772.8,122.5L772.8,122.5z M766.3,117.8l6.2,2.4l3.6-3.7l0-13.9l-9.9-3.7V117.8L766.3,117.8z"/>
					</g>
					<g>
						<path fill="#FFFFFF" d="M775,107.1c-0.1,0-0.1,0-0.2,0l-7.2-2.7c-0.3-0.1-0.4-0.4-0.3-0.7c0.1-0.3,0.4-0.4,0.7-0.3l7.2,2.7
							c0.3,0.1,0.4,0.4,0.3,0.7C775.4,107,775.2,107.1,775,107.1L775,107.1z"/>
					</g>
					<g>
						<path fill="#FFFFFF" d="M775,114c-0.1,0-0.1,0-0.2,0l-7.2-2.7c-0.3-0.1-0.4-0.4-0.3-0.7c0.1-0.3,0.4-0.4,0.7-0.3l7.2,2.7
							c0.3,0.1,0.4,0.4,0.3,0.7C775.4,113.9,775.2,114,775,114L775,114z"/>
					</g>
					<g>
						<path fill="#FFFFFF" d="M775,110.6c-0.1,0-0.1,0-0.2,0l-7.2-2.7c-0.3-0.1-0.4-0.4-0.3-0.7c0.1-0.3,0.4-0.4,0.7-0.3l7.2,2.7
							c0.3,0.1,0.4,0.4,0.3,0.7C775.4,110.4,775.2,110.6,775,110.6L775,110.6z"/>
					</g>
				</g>
			</g>
		</g>
	</g>
	<g>
		<g>
			<rect x="1022.1" y="11.7" fill="#445464" width="169.2" height="169.2"/>
			<text transform="matrix(1 0 0 1 1065.5173 167.5887)" fill="#FFFFFF" font-family="'Gotham-Bold'" font-size="18">template</text>
		</g>
		<g>
			<g>
				<g>
					<g>
						<path fill="#FFFFFF" d="M1106.5,122.1c-0.2,0-0.4-0.1-0.6-0.2c-0.3-0.2-0.5-0.5-0.5-0.9V99.5c0-0.5,0.3-0.9,0.7-1l12.2-4.6
							c0.3-0.1,0.7-0.1,1,0.1c0.3,0.2,0.5,0.5,0.5,0.9v21.6c0,0.5-0.3,0.9-0.7,1l-12.2,4.6C1106.7,122.1,1106.6,122.1,1106.5,122.1
							L1106.5,122.1z M1107.6,100.2v19.3l10-3.8V96.4L1107.6,100.2L1107.6,100.2z"/>
					</g>
				</g>
				<g>
					<g>
						<path fill="#FFFFFF" d="M1131,122.1c-0.1,0-0.3,0-0.4-0.1l-12.2-4.6c-0.4-0.2-0.7-0.6-0.7-1V94.8c0-0.4,0.2-0.7,0.5-0.9
							c0.3-0.2,0.7-0.2,1-0.1l12.2,4.6c0.4,0.2,0.7,0.6,0.7,1V121c0,0.4-0.2,0.7-0.5,0.9C1131.4,122.1,1131.2,122.1,1131,122.1
							L1131,122.1z M1119.9,115.7l10,3.8v-19.3l-10-3.8V115.7L1119.9,115.7z"/>
					</g>
				</g>
			</g>
			<g>
				<g>
					<path fill="#FFFFFF" d="M1125.2,79.4h-31.4c-1.1,0-2-0.9-2-2V59.6c0-1.1,0.9-2,2-2h31.4c1.1,0,2,0.9,2,2v17.7
						C1127.2,78.4,1126.3,79.4,1125.2,79.4L1125.2,79.4z M1095.8,75.3h27.3V61.6h-27.3V75.3L1095.8,75.3z"/>
				</g>
				<g>
					<g>
						<path fill="#FFFFFF" d="M1142.4,135.5h-70.2c-2.3,0-4.1-1.8-4.1-4.1V43.1c0-2.3,1.8-4.1,4.1-4.1h70.2c2.3,0,4.1,1.8,4.1,4.1
							v88.3C1146.5,133.7,1144.6,135.5,1142.4,135.5L1142.4,135.5z M1076.2,127.3h62V47.2h-62V127.3L1076.2,127.3z"/>
					</g>
					<g>
						<path fill="#FFFFFF" d="M1079.3,63.7H1065c-2.3,0-4.1-1.8-4.1-4.1s1.8-4.1,4.1-4.1h14.3c2.3,0,4.1,1.8,4.1,4.1
							S1081.6,63.7,1079.3,63.7L1079.3,63.7z"/>
					</g>
					<g>
						<path fill="#FFFFFF" d="M1079.3,82H1065c-2.3,0-4.1-1.8-4.1-4.1c0-2.3,1.8-4.1,4.1-4.1h14.3c2.3,0,4.1,1.8,4.1,4.1
							C1083.4,80.2,1081.6,82,1079.3,82L1079.3,82z"/>
					</g>
					<g>
						<path fill="#FFFFFF" d="M1079.3,100.3H1065c-2.3,0-4.1-1.8-4.1-4.1s1.8-4.1,4.1-4.1h14.3c2.3,0,4.1,1.8,4.1,4.1
							S1081.6,100.3,1079.3,100.3L1079.3,100.3z"/>
					</g>
					<g>
						<path fill="#FFFFFF" d="M1079.3,118.5H1065c-2.3,0-4.1-1.8-4.1-4.1c0-2.3,1.8-4.1,4.1-4.1h14.3c2.3,0,4.1,1.8,4.1,4.1
							C1083.4,116.7,1081.6,118.5,1079.3,118.5L1079.3,118.5z"/>
					</g>
				</g>
			</g>
		</g>
	</g>
	<g>
		<g>
			<rect x="1381.1" y="11.3" fill="#455565" width="169.2" height="169.2"/>
			<text transform="matrix(1 0 0 1 1430.8347 167.2391)" fill="#FFFFFF" font-family="'Gotham-Bold'" font-size="16.5">versions</text>
		</g>
		<g>
			<g>
				<g>
					<g>
						<path fill="#FFFFFF" d="M1485.2,82.6h-31.4c-1.1,0-2-0.9-2-2V62.9c0-1.1,0.9-2,2-2h31.4c1.1,0,2,0.9,2,2v17.7
							C1487.2,81.7,1486.3,82.6,1485.2,82.6L1485.2,82.6z M1455.8,78.5h27.3V64.9h-27.3V78.5L1455.8,78.5z"/>
					</g>
					<g>
						<g>
							<path fill="#FFFFFF" d="M1502.4,138.8h-70.2c-2.3,0-4.1-1.8-4.1-4.1V46.4c0-2.3,1.8-4.1,4.1-4.1h70.2c2.3,0,4.1,1.8,4.1,4.1
								v88.3C1506.5,136.9,1504.6,138.8,1502.4,138.8L1502.4,138.8z M1436.2,130.6h62V50.5h-62V130.6L1436.2,130.6z"/>
						</g>
						<g>
							<path fill="#FFFFFF" d="M1439.3,67H1425c-2.3,0-4.1-1.8-4.1-4.1c0-2.3,1.8-4.1,4.1-4.1h14.3c2.3,0,4.1,1.8,4.1,4.1
								C1443.4,65.2,1441.6,67,1439.3,67L1439.3,67z"/>
						</g>
						<g>
							<path fill="#FFFFFF" d="M1439.3,85.3H1425c-2.3,0-4.1-1.8-4.1-4.1c0-2.3,1.8-4.1,4.1-4.1h14.3c2.3,0,4.1,1.8,4.1,4.1
								C1443.4,83.4,1441.6,85.3,1439.3,85.3L1439.3,85.3z"/>
						</g>
						<g>
							<path fill="#FFFFFF" d="M1439.3,103.5H1425c-2.3,0-4.1-1.8-4.1-4.1s1.8-4.1,4.1-4.1h14.3c2.3,0,4.1,1.8,4.1,4.1
								S1441.6,103.5,1439.3,103.5L1439.3,103.5z"/>
						</g>
						<g>
							<path fill="#FFFFFF" d="M1439.3,121.8H1425c-2.3,0-4.1-1.8-4.1-4.1c0-2.3,1.8-4.1,4.1-4.1h14.3c2.3,0,4.1,1.8,4.1,4.1
								C1443.4,120,1441.6,121.8,1439.3,121.8L1439.3,121.8z"/>
						</g>
					</g>
				</g>
			</g>
			<path fill="#FFFFFF" d="M1473,119.3c-1.9,0-3.4,1.5-3.4,3.4c0,1.9,1.5,3.4,3.4,3.4c1.9,0,3.4-1.5,3.4-3.4
				C1476.4,120.9,1474.9,119.3,1473,119.3L1473,119.3z"/>
			<path fill="#FFFFFF" d="M1481.9,119.3c-1.9,0-3.4,1.5-3.4,3.4c0,1.9,1.5,3.4,3.4,3.4c1.9,0,3.4-1.5,3.4-3.4
				C1485.3,120.9,1483.8,119.3,1481.9,119.3L1481.9,119.3z"/>
			<path fill="#FFFFFF" d="M1490.8,119.3c-1.9,0-3.4,1.5-3.4,3.4c0,1.9,1.5,3.4,3.4,3.4c1.9,0,3.4-1.5,3.4-3.4
				C1494.1,120.9,1492.6,119.3,1490.8,119.3L1490.8,119.3z"/>
		</g>
	</g>
	<g>
		<g>
			<rect x="485.8" y="251.6" fill="#445464" width="169.2" height="169.2"/>
			<text transform="matrix(1 0 0 1 520.1121 407.5135)" fill="#FFFFFF" font-family="'Gotham-Bold'" font-size="18">cookbooks</text>
		</g>
		<g>
			<g>
				<path fill="#FFFFFF" d="M589.9,320.5h-31.4c-1.1,0-2-0.9-2-2v-17.7c0-1.1,0.9-2,2-2h31.4c1.1,0,2,0.9,2,2v17.7
					C591.9,319.6,591,320.5,589.9,320.5L589.9,320.5z M560.6,316.4h27.3v-13.6h-27.3V316.4L560.6,316.4z"/>
			</g>
			<g>
				<g>
					<path fill="#FFFFFF" d="M607.1,376.7h-70.2c-2.3,0-4.1-1.8-4.1-4.1v-88.3c0-2.3,1.8-4.1,4.1-4.1h70.2c2.3,0,4.1,1.8,4.1,4.1
						v88.3C611.2,374.8,609.4,376.7,607.1,376.7L607.1,376.7z M541,368.5h62v-80.1h-62V368.5L541,368.5z"/>
				</g>
				<g>
					<path fill="#FFFFFF" d="M544,304.9h-14.3c-2.3,0-4.1-1.8-4.1-4.1c0-2.3,1.8-4.1,4.1-4.1H544c2.3,0,4.1,1.8,4.1,4.1
						C548.1,303.1,546.3,304.9,544,304.9L544,304.9z"/>
				</g>
				<g>
					<path fill="#FFFFFF" d="M544,323.2h-14.3c-2.3,0-4.1-1.8-4.1-4.1c0-2.3,1.8-4.1,4.1-4.1H544c2.3,0,4.1,1.8,4.1,4.1
						C548.1,321.3,546.3,323.2,544,323.2L544,323.2z"/>
				</g>
				<g>
					<path fill="#FFFFFF" d="M544,341.4h-14.3c-2.3,0-4.1-1.8-4.1-4.1s1.8-4.1,4.1-4.1H544c2.3,0,4.1,1.8,4.1,4.1
						S546.3,341.4,544,341.4L544,341.4z"/>
				</g>
				<g>
					<path fill="#FFFFFF" d="M544,359.7h-14.3c-2.3,0-4.1-1.8-4.1-4.1c0-2.3,1.8-4.1,4.1-4.1H544c2.3,0,4.1,1.8,4.1,4.1
						C548.1,357.9,546.3,359.7,544,359.7L544,359.7z"/>
				</g>
			</g>
		</g>
	</g>
	<g>
		<rect x="475.6" y="180.8" fill="#D1D3D4" width="188.9" height="70.2"/>
		<rect x="486.1" y="180.8" fill="#768797" width="168.8" height="70.5"/>
	</g>
</g>
</svg>
