<?xml version="1.0" encoding="utf-8"?>
<!-- Generator: Adobe Illustrator 18.1.1, SVG Export Plug-In . SVG Version: 6.00 Build 0)  -->
<svg version="1.1" id="Layer_1" xmlns="http://www.w3.org/2000/svg" xmlns:xlink="http://www.w3.org/1999/xlink" x="0px" y="0px"
	 viewBox="0 0 1798.2 858.2" enable-background="new 0 0 1798.2 858.2" xml:space="preserve">
<g>
	<g>
		<rect x="248.7" y="251.8" fill="#7F888D" width="169.2" height="169.2"/>
		<g>
			<path fill="#FFFFFF" d="M279.7,398h2.8l1.5,5.9l1.8-5.9h2.4l1.8,5.9l1.6-5.9h2.7l-3,9.7h-2.5l-1.9-5.9l-1.9,5.9h-2.4L279.7,398z"
				/>
			<path fill="#FFFFFF" d="M295,402.9L295,402.9c0-2.8,2.2-5.1,5.2-5.1c3,0,5.2,2.2,5.2,5v0c0,2.8-2.2,5-5.2,5
				C297.2,407.9,295,405.7,295,402.9z M302.8,402.9L302.8,402.9c0-1.5-1-2.7-2.5-2.7c-1.6,0-2.5,1.2-2.5,2.6v0c0,1.4,1,2.7,2.5,2.7
				C301.8,405.5,302.8,404.3,302.8,402.9z"/>
			<path fill="#FFFFFF" d="M307.4,398h2.7v1.9c0.6-1.3,1.5-2.2,3.1-2.1v2.9h-0.1c-1.8,0-2.9,1.1-2.9,3.4v3.6h-2.7V398z"/>
			<path fill="#FFFFFF" d="M315,394.5h2.7v7l3.2-3.5h3.3l-3.7,3.8l3.8,5.9h-3.1l-2.5-3.9l-1,1v2.9H315V394.5z"/>
			<path fill="#FFFFFF" d="M324.9,406.4l1.2-1.8c1,0.8,2.1,1.2,3,1.2c0.8,0,1.2-0.3,1.2-0.7v0c0-0.6-0.9-0.8-2-1.1
				c-1.4-0.4-2.9-1-2.9-2.9v0c0-2,1.6-3.1,3.5-3.1c1.2,0,2.6,0.4,3.6,1.1l-1,1.9c-1-0.6-1.9-0.9-2.6-0.9c-0.7,0-1,0.3-1,0.7v0
				c0,0.5,0.9,0.8,2,1.2c1.4,0.5,2.9,1.1,2.9,2.9v0c0,2.1-1.6,3.1-3.7,3.1C327.7,407.8,326.1,407.4,324.9,406.4z"/>
			<path fill="#FFFFFF" d="M334.9,404.9v-4.6h-1.2V398h1.2v-2.5h2.7v2.5h2.3v2.3h-2.3v4.1c0,0.6,0.3,0.9,0.9,0.9
				c0.5,0,1-0.1,1.4-0.3v2.2c-0.6,0.3-1.2,0.6-2.2,0.6C336.1,407.8,334.9,407.1,334.9,404.9z"/>
			<path fill="#FFFFFF" d="M341.4,404.9L341.4,404.9c0-2.1,1.6-3.1,3.9-3.1c1,0,1.7,0.2,2.4,0.4V402c0-1.1-0.7-1.8-2.1-1.8
				c-1,0-1.8,0.2-2.7,0.5l-0.7-2.1c1.1-0.5,2.1-0.8,3.7-0.8c1.5,0,2.6,0.4,3.3,1.1c0.7,0.7,1,1.8,1,3.1v5.6h-2.6v-1
				c-0.7,0.7-1.6,1.2-2.9,1.2C342.9,407.8,341.4,406.8,341.4,404.9z M347.7,404.2v-0.5c-0.5-0.2-1.1-0.4-1.7-0.4
				c-1.2,0-1.9,0.5-1.9,1.3v0c0,0.7,0.6,1.2,1.5,1.2C346.8,405.9,347.7,405.2,347.7,404.2z"/>
			<path fill="#FFFFFF" d="M353,404.9v-4.6h-1.2V398h1.2v-2.5h2.7v2.5h2.3v2.3h-2.3v4.1c0,0.6,0.3,0.9,0.9,0.9c0.5,0,1-0.1,1.4-0.3
				v2.2c-0.6,0.3-1.2,0.6-2.2,0.6C354.1,407.8,353,407.1,353,404.9z"/>
			<path fill="#FFFFFF" d="M360,394.5h2.9v2.4H360V394.5z M360.1,398h2.7v9.7h-2.7V398z"/>
			<path fill="#FFFFFF" d="M365,402.9L365,402.9c0-2.8,2.2-5.1,5.2-5.1c3,0,5.2,2.2,5.2,5v0c0,2.8-2.2,5-5.2,5
				C367.2,407.9,365,405.7,365,402.9z M372.7,402.9L372.7,402.9c0-1.5-1-2.7-2.5-2.7c-1.6,0-2.5,1.2-2.5,2.6v0c0,1.4,1,2.7,2.5,2.7
				C371.8,405.5,372.7,404.3,372.7,402.9z"/>
			<path fill="#FFFFFF" d="M377.4,398h2.7v1.4c0.6-0.8,1.4-1.5,2.8-1.5c2.1,0,3.3,1.4,3.3,3.6v6.2h-2.7v-5.4c0-1.3-0.6-2-1.7-2
				c-1,0-1.7,0.7-1.7,2v5.4h-2.7V398z"/>
		</g>
	</g>
	<g>
		<g>
			<path fill="#FFFFFF" d="M380.1,355.8h-94.4c-2.4,0-4.3-1.9-4.3-4.3v-60.1c0-2.4,1.9-4.3,4.3-4.3h94.4c2.4,0,4.3,1.9,4.3,4.3v60.1
				C384.4,353.9,382.5,355.8,380.1,355.8L380.1,355.8z M290,347.2h85.8v-51.5H290V347.2L290,347.2z"/>
		</g>
		<g>
			<path fill="#FFFFFF" d="M371.5,345.1h-77.2c-1.2,0-2.1-1-2.1-2.1V300c0-1.2,1-2.1,2.1-2.1h77.2c1.2,0,2.1,1,2.1,2.1v42.9
				C373.6,344.1,372.7,345.1,371.5,345.1L371.5,345.1z M296.4,340.8h72.9v-38.6h-72.9V340.8L296.4,340.8z"/>
		</g>
		<g>
			<path fill="#FFFFFF" d="M393.3,368.3H273.9c-2.4,0-4.3-1.9-4.3-4.3c0-2.4,1.9-4.3,4.3-4.3h119.4c2.4,0,4.3,1.9,4.3,4.3
				C397.6,366.4,395.7,368.3,393.3,368.3L393.3,368.3z"/>
		</g>
	</g>
</g>
<rect x="239" y="241" fill="#F08921" width="189.2" height="190.2"/>
<g>
	<g>
		<rect x="248.7" y="251.9" fill="#F08921" width="169.2" height="169.2"/>
		<g>
			<path fill="#FFFFFF" d="M296.8,401.5L296.8,401.5c0-3.6,2.7-6.6,6.6-6.6c2.4,0,3.8,0.8,5,1.9l-1.8,2c-1-0.9-2-1.4-3.2-1.4
				c-2.1,0-3.7,1.8-3.7,3.9v0c0,2.2,1.5,4,3.7,4c1.4,0,2.3-0.6,3.3-1.5l1.8,1.8c-1.3,1.4-2.7,2.3-5.2,2.3
				C299.5,408,296.8,405.1,296.8,401.5z"/>
			<path fill="#FFFFFF" d="M310.3,394.6h2.7v4.9c0.6-0.8,1.4-1.5,2.8-1.5c2.1,0,3.3,1.4,3.3,3.6v6.2h-2.7v-5.4c0-1.3-0.6-2-1.7-2
				c-1,0-1.7,0.7-1.7,2v5.4h-2.7V394.6z"/>
			<path fill="#FFFFFF" d="M321.1,403L321.1,403c0-2.8,2-5.1,4.8-5.1c3.2,0,4.7,2.5,4.7,5.2c0,0.2,0,0.5,0,0.7h-6.7
				c0.3,1.2,1.1,1.9,2.4,1.9c0.9,0,1.6-0.3,2.3-1l1.6,1.4c-0.9,1.1-2.2,1.8-3.9,1.8C323.2,408,321.1,406,321.1,403z M327.9,402.2
				c-0.2-1.2-0.9-2.1-2-2.1c-1.1,0-1.9,0.8-2.1,2.1H327.9z"/>
			<path fill="#FFFFFF" d="M333.1,400.5h-1.1v-2.3h1.1v-0.6c0-1.1,0.3-1.8,0.8-2.3c0.5-0.5,1.2-0.8,2.2-0.8c0.9,0,1.4,0.1,1.9,0.3
				v2.3c-0.4-0.1-0.8-0.2-1.2-0.2c-0.6,0-1,0.3-1,1v0.4h2.2v2.2h-2.2v7.3h-2.7V400.5z"/>
			<path fill="#FFFFFF" d="M345.1,395.2h4.9c4,0,6.7,2.7,6.7,6.3v0c0,3.5-2.7,6.3-6.7,6.3h-4.9V395.2z M350.1,405.3
				c2.3,0,3.8-1.5,3.8-3.8v0c0-2.2-1.5-3.8-3.8-3.8h-2.1v7.6H350.1z"/>
			<path fill="#FFFFFF" d="M359.2,395.2h2.8v5.5l5.1-5.5h3.3l-5.1,5.3l5.4,7.3h-3.3l-3.9-5.4l-1.5,1.5v3.9h-2.8V395.2z"/>
		</g>
	</g>
	<g>
		<g>
			<g>
				<path fill="#FFFFFF" d="M303.3,373.5c-3.1,0-5.8-1.1-7.8-3.1c-4.8-4.8-4-13.3,1.9-19.2l19.1-19.1c1.5-1.5,4-1.5,5.5,0l11.8,11.8
					c0.7,0.7,1.1,1.7,1.1,2.7c0,1-0.4,2-1.1,2.7l-19.1,19.1C311.4,371.7,307.3,373.5,303.3,373.5L303.3,373.5z M319.2,340.4
					l-16.3,16.3c-3,3-3.4,6.7-1.9,8.2c0.7,0.7,1.7,0.8,2.3,0.8c1.9,0,4.1-1,5.9-2.8l16.3-16.3L319.2,340.4L319.2,340.4z"/>
			</g>
			<g>
				<path fill="#FFFFFF" d="M367,308.3c-2.5,0-4.9-1-6.7-2.8c-3.7-3.7-3.7-9.6,0-13.3l6.5-6.5c1.5-1.5,4-1.5,5.5,0l7.8,7.8
					c0.7,0.7,1.1,1.7,1.1,2.7c0,1-0.4,2-1.1,2.7l-6.5,6.5C371.8,307.3,369.5,308.3,367,308.3L367,308.3z M369.5,294l-3.7,3.7
					c-0.6,0.6-0.6,1.7,0,2.3c0.8,0.8,1.5,0.8,2.3,0l3.7-3.7L369.5,294L369.5,294z"/>
			</g>
			<g>
				<path fill="#FFFFFF" d="M341.7,328c-1,0-2-0.4-2.7-1.1c-1.5-1.5-1.5-4,0-5.5l21.3-21.3c1.5-1.5,4-1.5,5.5,0c1.5,1.5,1.5,4,0,5.5
					l-21.3,21.3C343.7,327.6,342.7,328,341.7,328L341.7,328z"/>
			</g>
		</g>
		<g>
			<path fill="#FFFFFF" d="M360.4,375.2L360.4,375.2c-4,0-7.7-1.6-10.6-4.4l-37.1-37.1c-8.1,1.3-16.3-1.4-22.1-7.1
				c-7-7.1-9.3-17.7-5.8-27c0.5-1.2,1.5-2.2,2.8-2.4c1.3-0.3,2.6,0.1,3.6,1l10.5,10.5l5.7-1.5l1.5-5.7L298.3,291
				c-0.9-0.9-1.3-2.3-1-3.6c0.3-1.3,1.2-2.3,2.4-2.8c2.9-1.1,5.9-1.6,9-1.6c6.8,0,13.2,2.7,18,7.5c5.8,5.8,8.4,14.1,7.1,22.1
				l37.1,37.1c2.8,2.8,4.4,6.6,4.4,10.6s-1.6,7.7-4.4,10.6C368.1,373.6,364.4,375.2,360.4,375.2L360.4,375.2z M314,325.6
				c1,0,2,0.4,2.7,1.1l38.6,38.6c2.7,2.7,7.4,2.7,10.2,0c1.4-1.4,2.1-3.2,2.1-5.1c0-1.9-0.8-3.7-2.1-5.1l-38.6-38.6
				c-1-1-1.3-2.4-1-3.7c1.6-6.2-0.2-12.5-4.6-17c-3.3-3.3-7.6-5.1-12.2-5.2l6.8,6.8c1,1,1.4,2.4,1,3.7l-2.7,10
				c-0.4,1.3-1.4,2.4-2.7,2.7l-10,2.7c-1.3,0.4-2.8,0-3.8-1l-6.8-6.8c0.1,4.5,1.9,8.9,5.2,12.2c4.4,4.4,10.9,6.2,17,4.6
				C313.3,325.6,313.7,325.6,314,325.6L314,325.6z"/>
		</g>
		<path fill="#FFFFFF" d="M359.8,356.2c-1.8,0-3.2,1.4-3.2,3.2c0,1.8,1.4,3.2,3.2,3.2c1.8,0,3.2-1.4,3.2-3.2
			C363.1,357.6,361.6,356.2,359.8,356.2L359.8,356.2z"/>
	</g>
</g>
</svg>
