<?xml version="1.0" encoding="utf-8"?>
<!-- Generator: Adobe Illustrator 18.1.1, SVG Export Plug-In . SVG Version: 6.00 Build 0)  -->
<svg version="1.1" id="Layer_1" xmlns="http://www.w3.org/2000/svg" xmlns:xlink="http://www.w3.org/1999/xlink" x="0px" y="0px"
	 viewBox="0 0 1798.2 858.2" enable-background="new 0 0 1798.2 858.2" xml:space="preserve">
<g>
	<g>
		<rect x="248.7" y="251.8" fill="#7F888D" width="169.2" height="169.2"/>
		<text transform="matrix(1 0 0 1 278.863 407.6512)" fill="#FFFFFF" font-family="'Gotham-Bold'" font-size="18">workstation</text>
	</g>
	<g>
		<g>
			<path fill="#FFFFFF" d="M380.1,355.8h-94.4c-2.4,0-4.3-1.9-4.3-4.3v-60.1c0-2.4,1.9-4.3,4.3-4.3h94.4c2.4,0,4.3,1.9,4.3,4.3v60.1
				C384.4,353.9,382.5,355.8,380.1,355.8L380.1,355.8z M290,347.2h85.8v-51.5H290V347.2L290,347.2z"/>
		</g>
		<g>
			<path fill="#FFFFFF" d="M371.5,345.1h-77.2c-1.2,0-2.1-1-2.1-2.1V300c0-1.2,1-2.1,2.1-2.1h77.2c1.2,0,2.1,1,2.1,2.1v42.9
				C373.6,344.1,372.7,345.1,371.5,345.1L371.5,345.1z M296.4,340.8h72.9v-38.6h-72.9V340.8L296.4,340.8z"/>
		</g>
		<g>
			<path fill="#FFFFFF" d="M393.3,368.3H273.9c-2.4,0-4.3-1.9-4.3-4.3c0-2.4,1.9-4.3,4.3-4.3h119.4c2.4,0,4.3,1.9,4.3,4.3
				C397.6,366.4,395.7,368.3,393.3,368.3L393.3,368.3z"/>
		</g>
	</g>
</g>
<rect x="239" y="241" fill="#F08921" width="189.2" height="190.2"/>
<g>
	<g>
		<rect x="248.7" y="251.9" fill="#F08921" width="169.2" height="169.2"/>
		<text transform="matrix(1 0 0 1 295.8303 407.7733)" fill="#FFFFFF" font-family="'Gotham-Bold'" font-size="18">Chef DK</text>
	</g>
	<g>
		<g>
			<g>
				<path fill="#FFFFFF" d="M303.3,373.5c-3.1,0-5.8-1.1-7.8-3.1c-4.8-4.8-4-13.3,1.9-19.2l19.1-19.1c1.5-1.5,4-1.5,5.5,0l11.8,11.8
					c0.7,0.7,1.1,1.7,1.1,2.7c0,1-0.4,2-1.1,2.7l-19.1,19.1C311.4,371.7,307.3,373.5,303.3,373.5L303.3,373.5z M319.2,340.4
					l-16.3,16.3c-3,3-3.4,6.7-1.9,8.2c0.7,0.7,1.7,0.8,2.3,0.8c1.9,0,4.1-1,5.9-2.8l16.3-16.3L319.2,340.4L319.2,340.4z"/>
			</g>
			<g>
				<path fill="#FFFFFF" d="M367,308.3c-2.5,0-4.9-1-6.7-2.8c-3.7-3.7-3.7-9.6,0-13.3l6.5-6.5c1.5-1.5,4-1.5,5.5,0l7.8,7.8
					c0.7,0.7,1.1,1.7,1.1,2.7c0,1-0.4,2-1.1,2.7l-6.5,6.5C371.8,307.3,369.5,308.3,367,308.3L367,308.3z M369.5,294l-3.7,3.7
					c-0.6,0.6-0.6,1.7,0,2.3c0.8,0.8,1.5,0.8,2.3,0l3.7-3.7L369.5,294L369.5,294z"/>
			</g>
			<g>
				<path fill="#FFFFFF" d="M341.7,328c-1,0-2-0.4-2.7-1.1c-1.5-1.5-1.5-4,0-5.5l21.3-21.3c1.5-1.5,4-1.5,5.5,0c1.5,1.5,1.5,4,0,5.5
					l-21.3,21.3C343.7,327.6,342.7,328,341.7,328L341.7,328z"/>
			</g>
		</g>
		<g>
			<path fill="#FFFFFF" d="M360.4,375.2L360.4,375.2c-4,0-7.7-1.6-10.6-4.4l-37.1-37.1c-8.1,1.3-16.3-1.4-22.1-7.1
				c-7-7.1-9.3-17.7-5.8-27c0.5-1.2,1.5-2.2,2.8-2.4c1.3-0.3,2.6,0.1,3.6,1l10.5,10.5l5.7-1.5l1.5-5.7L298.3,291
				c-0.9-0.9-1.3-2.3-1-3.6c0.3-1.3,1.2-2.3,2.4-2.8c2.9-1.1,5.9-1.6,9-1.6c6.8,0,13.2,2.7,18,7.5c5.8,5.8,8.4,14.1,7.1,22.1
				l37.1,37.1c2.8,2.8,4.4,6.6,4.4,10.6s-1.6,7.7-4.4,10.6C368.1,373.6,364.4,375.2,360.4,375.2L360.4,375.2z M314,325.6
				c1,0,2,0.4,2.7,1.1l38.6,38.6c2.7,2.7,7.4,2.7,10.2,0c1.4-1.4,2.1-3.2,2.1-5.1c0-1.9-0.8-3.7-2.1-5.1l-38.6-38.6
				c-1-1-1.3-2.4-1-3.7c1.6-6.2-0.2-12.5-4.6-17c-3.3-3.3-7.6-5.1-12.2-5.2l6.8,6.8c1,1,1.4,2.4,1,3.7l-2.7,10
				c-0.4,1.3-1.4,2.4-2.7,2.7l-10,2.7c-1.3,0.4-2.8,0-3.8-1l-6.8-6.8c0.1,4.5,1.9,8.9,5.2,12.2c4.4,4.4,10.9,6.2,17,4.6
				C313.3,325.6,313.7,325.6,314,325.6L314,325.6z"/>
		</g>
		<path fill="#FFFFFF" d="M359.8,356.2c-1.8,0-3.2,1.4-3.2,3.2c0,1.8,1.4,3.2,3.2,3.2c1.8,0,3.2-1.4,3.2-3.2
			C363.1,357.6,361.6,356.2,359.8,356.2L359.8,356.2z"/>
	</g>
</g>
</svg>
