<?xml version="1.0" encoding="utf-8"?>
<!-- Generator: Adobe Illustrator 18.1.1, SVG Export Plug-In . SVG Version: 6.00 Build 0)  -->
<svg version="1.1" id="Layer_1" xmlns="http://www.w3.org/2000/svg" xmlns:xlink="http://www.w3.org/1999/xlink" x="0px" y="0px"
	 viewBox="0 0 1798.2 858.2" enable-background="new 0 0 1798.2 858.2" xml:space="preserve">
<g>
	<g>
		<rect x="1276.6" y="478.8" fill="#D1D3D4" width="367.7" height="369.2"/>
		<g>
			<g>
				<g>
					<rect x="1465.5" y="668.7" fill="#404447" width="169.2" height="169.2"/>
					<g>
						<path fill="#FFFFFF" d="M1528.1,814.9h2.7v1.4c0.6-0.8,1.4-1.5,2.8-1.5c2.1,0,3.3,1.4,3.3,3.6v6.2h-2.7v-5.4
							c0-1.3-0.6-2-1.7-2s-1.7,0.7-1.7,2v5.4h-2.7V814.9z"/>
						<path fill="#FFFFFF" d="M1538.9,819.8L1538.9,819.8c0-2.8,2.2-5.1,5.2-5.1c3,0,5.2,2.2,5.2,5v0c0,2.8-2.2,5-5.2,5
							C1541.1,824.8,1538.9,822.6,1538.9,819.8z M1546.6,819.8L1546.6,819.8c0-1.5-1-2.7-2.5-2.7c-1.6,0-2.5,1.2-2.5,2.6v0
							c0,1.4,1,2.7,2.5,2.7C1545.7,822.5,1546.6,821.2,1546.6,819.8z"/>
						<path fill="#FFFFFF" d="M1550.9,819.8L1550.9,819.8c0-3.3,2.1-5,4.4-5c1.5,0,2.4,0.7,3,1.4v-4.8h2.7v13.1h-2.7v-1.4
							c-0.7,0.9-1.6,1.6-3,1.6C1553,824.8,1550.9,823,1550.9,819.8z M1558.3,819.8L1558.3,819.8c0-1.6-1.1-2.7-2.3-2.7
							s-2.4,1-2.4,2.7v0c0,1.6,1.1,2.7,2.4,2.7S1558.3,821.4,1558.3,819.8z"/>
						<path fill="#FFFFFF" d="M1563,819.8L1563,819.8c0-2.8,2-5.1,4.8-5.1c3.2,0,4.7,2.5,4.7,5.2c0,0.2,0,0.5,0,0.7h-6.7
							c0.3,1.2,1.1,1.9,2.4,1.9c0.9,0,1.6-0.3,2.3-1l1.6,1.4c-0.9,1.1-2.2,1.8-3.9,1.8C1565.1,824.8,1563,822.8,1563,819.8z
							 M1569.8,819c-0.2-1.2-0.9-2.1-2-2.1c-1.1,0-1.9,0.8-2.1,2.1H1569.8z"/>
					</g>
				</g>
				<g>
					<path fill="#FFFFFF" d="M1593.6,791.4h-86.3c-2.2,0-4-1.8-4-4v-84.7c0-2.2,1.8-4,4-4h86.3c2.2,0,4,1.8,4,4v84.7
						C1597.6,789.6,1595.8,791.4,1593.6,791.4L1593.6,791.4z M1511.3,783.5h78.3v-76.8h-78.3V783.5L1511.3,783.5z"/>
				</g>
			</g>
			<g>
				<polygon fill="#FFFFFF" points="1572.6,742.7 1572.6,722.7 1549.7,726.1 1549.7,742.7 				"/>
				<polygon fill="#FFFFFF" points="1548.1,726.3 1531.5,728.7 1531.5,742.7 1548.1,742.7 				"/>
				<polygon fill="#FFFFFF" points="1531.5,744.9 1531.5,759 1548.1,761.5 1548.1,744.9 				"/>
				<polygon fill="#FFFFFF" points="1549.7,761.7 1572.6,765.1 1572.6,744.9 1549.7,744.9 				"/>
			</g>
		</g>
		<g>
			<g>
				<g>
					<rect x="1286.5" y="489.7" fill="#404447" width="169.2" height="169.2"/>
					<g>
						<path fill="#FFFFFF" d="M1349.1,635.9h2.7v1.4c0.6-0.8,1.4-1.5,2.8-1.5c2.1,0,3.3,1.4,3.3,3.6v6.2h-2.7v-5.4
							c0-1.3-0.6-2-1.7-2s-1.7,0.7-1.7,2v5.4h-2.7V635.9z"/>
						<path fill="#FFFFFF" d="M1359.9,640.8L1359.9,640.8c0-2.8,2.2-5.1,5.2-5.1c3,0,5.2,2.2,5.2,5v0c0,2.8-2.2,5-5.2,5
							C1362.1,645.8,1359.9,643.6,1359.9,640.8z M1367.6,640.8L1367.6,640.8c0-1.5-1-2.7-2.5-2.7c-1.6,0-2.5,1.2-2.5,2.6v0
							c0,1.4,1,2.7,2.5,2.7C1366.7,643.5,1367.6,642.2,1367.6,640.8z"/>
						<path fill="#FFFFFF" d="M1371.9,640.8L1371.9,640.8c0-3.3,2.1-5,4.4-5c1.5,0,2.4,0.7,3,1.4v-4.8h2.7v13.1h-2.7v-1.4
							c-0.7,0.9-1.6,1.6-3,1.6C1374,645.8,1371.9,644,1371.9,640.8z M1379.3,640.8L1379.3,640.8c0-1.6-1.1-2.7-2.3-2.7
							s-2.4,1-2.4,2.7v0c0,1.6,1.1,2.7,2.4,2.7S1379.3,642.4,1379.3,640.8z"/>
						<path fill="#FFFFFF" d="M1384,640.8L1384,640.8c0-2.8,2-5.1,4.8-5.1c3.2,0,4.7,2.5,4.7,5.2c0,0.2,0,0.5,0,0.7h-6.7
							c0.3,1.2,1.1,1.9,2.4,1.9c0.9,0,1.6-0.3,2.3-1l1.6,1.4c-0.9,1.1-2.2,1.8-3.9,1.8C1386.1,645.8,1384,643.8,1384,640.8z
							 M1390.8,640c-0.2-1.2-0.9-2.1-2-2.1c-1.1,0-1.9,0.8-2.1,2.1H1390.8z"/>
					</g>
				</g>
				<g>
					<path fill="#FFFFFF" d="M1414.6,612.4h-86.3c-2.2,0-4-1.8-4-4v-84.7c0-2.2,1.8-4,4-4h86.3c2.2,0,4,1.8,4,4v84.7
						C1418.6,610.6,1416.8,612.4,1414.6,612.4L1414.6,612.4z M1332.3,604.5h78.3v-76.8h-78.3V604.5L1332.3,604.5z"/>
				</g>
			</g>
			<g>
				<path fill="#FFFFFF" d="M1357.2,567.4c1.9,0,3.8,0,5.7,0c0.5,0,0.9,0.1,1.4,0.2c-0.3,0.3-0.5,0.7-0.8,1
					c-1.3,1.3-2.5,2.5-3.8,3.8c-1.7,1.7-3.4,3.4-5.1,5.1c-0.7,0.7-0.7,0.7-1.4,0c-1-1-2-2-3-3c-0.6-0.6-0.9-1.1-0.8-2.1
					c0.1-1.3-0.1-2.6-0.1-3.8c0-1.1,0.2-1.3,1.3-1.3C1352.8,567.4,1355,567.4,1357.2,567.4z"/>
				<path fill="#FFFFFF" d="M1386,562.7c-1.9-0.1-3.8-0.2-5.7-0.3c-0.5,0-1.1,0.2-1.7,0.2c-0.4,0-0.7-0.1-1.1-0.2
					c0.2-0.3,0.3-0.7,0.5-0.9c0.8-0.9,1.7-1.7,2.5-2.5c2.2-2.2,4.4-4.4,6.6-6.6c0.5-0.5,0.8-0.5,1.2,0c1.1,1.1,2.2,2.2,3.3,3.3
					c0.4,0.4,0.6,0.9,0.6,1.5c0,1.4,0,2.8,0,4.2c0,1-0.2,1.2-1.2,1.2C1389.4,562.6,1387.7,562.6,1386,562.7
					C1386,562.6,1386,562.7,1386,562.7z"/>
				<path fill="#FFFFFF" d="M1373.3,551.3c0-2.1,0-4.2,0-6.2c0-1,0.1-1,1.1-1.1c1.5,0,2.9,0,4.4,0c0.5,0,1,0.2,1.3,0.5
					c1.1,1,2.2,2.1,3.3,3.1c0.5,0.5,0.5,0.9,0,1.4c-3,3-6,6-9.1,9c-0.2,0.2-0.5,0.2-0.7,0.4c-0.1-0.3-0.2-0.5-0.2-0.8
					C1373.3,555.6,1373.3,553.4,1373.3,551.3z"/>
				<path fill="#FFFFFF" d="M1368.3,578.8c0,2.1,0,4.3,0,6.4c0,1-0.1,1.1-1,1.1c-1.5,0-2.9,0-4.4,0c-0.6,0-1.1-0.1-1.5-0.6
					c-1.1-1.1-2.1-2.2-3.2-3.2c-0.5-0.5-0.4-0.8,0.1-1.3c3.1-3.1,6.3-6.3,9.4-9.4c0.1-0.1,0.4-0.2,0.5-0.3c0,0.2,0.1,0.4,0.1,0.6
					C1368.3,574.4,1368.3,576.6,1368.3,578.8C1368.3,578.8,1368.3,578.8,1368.3,578.8z"/>
				<path fill="#FFFFFF" d="M1384.7,567.7c2.1,0,4.2,0,6.2,0c1.2,0,1.2,0,1.3,1.2c0,1.1-0.1,2.1,0,3.2c0.1,0.9-0.2,1.6-0.8,2.1
					c-1.1,1.1-2.2,2.2-3.3,3.3c-0.4,0.4-0.8,0.3-1.2,0c-0.7-0.7-1.4-1.4-2.2-2.1c-2.3-2.3-4.5-4.5-6.8-6.8c-0.2-0.2-0.3-0.4-0.5-0.7
					c0.3-0.1,0.6-0.2,0.9-0.2C1380.6,567.7,1382.7,567.7,1384.7,567.7z"/>
				<path fill="#FFFFFF" d="M1367.9,558.5c-2.1-2.2-4.2-4.3-6.3-6.5c-1-1-2-2.1-3.1-3.1c-0.5-0.5-0.6-0.9-0.2-1.4
					c1.1-1.1,2.3-2.1,3.4-3.2c0.2-0.2,0.6-0.3,0.9-0.3c1.6,0,3.1,0,4.7,0c0.6,0,0.9,0.2,0.9,0.9c0,4.5,0,9,0,13.5
					C1368.1,558.4,1368,558.5,1367.9,558.5z"/>
				<path fill="#FFFFFF" d="M1373.3,578.7c0-2,0-4,0-6.1c0-0.3,0.1-0.5,0.2-0.8c0.2,0.1,0.5,0.1,0.7,0.3c3,3,6,6,9.1,9
					c0.4,0.4,0.4,0.8,0.1,1.1c-1.1,1.1-2.2,2.2-3.3,3.3c-0.2,0.2-0.6,0.3-0.9,0.3c-1.6,0-3.3,0-4.9,0c-0.9,0-0.9,0-0.9-1
					C1373.3,582.9,1373.3,580.8,1373.3,578.7z"/>
				<path fill="#FFFFFF" d="M1356.9,562.3c-2.1,0-4.2,0-6.2,0c-1,0-1,0-1-0.9c0-1.4,0-2.8,0-4.2c0-0.6,0.2-1,0.6-1.3
					c1.1-1.1,2.2-2.1,3.2-3.2c0.5-0.5,0.8-0.5,1.3,0c3,3,6,6,9,9.1c0.1,0.1,0.1,0.4,0.2,0.5c-0.2,0-0.3,0.1-0.5,0.1
					C1361.3,562.3,1359.1,562.3,1356.9,562.3z"/>
				<path fill="#FFFFFF" d="M1371.6,578.7c0,2.6,0,5.3,0,7.9c0,1.3,0,1.3,1.4,1.4c1.2,0,2.4,0,3.5,0c0.2,0,0.4,0.1,0.6,0.2
					c-0.1,0.2-0.2,0.5-0.4,0.6c-1.8,1.8-3.6,3.6-5.4,5.4c-0.7,0.7-0.8,0.7-1.5,0c-1.3-1.3-2.6-2.5-3.8-3.8c-0.6-0.6-1.3-1.3-1.9-1.9
					c-0.1-0.1-0.2-0.3-0.1-0.3c0.1-0.1,0.2-0.2,0.4-0.2c1.5,0,2.9,0,4.4,0c1.1,0,1.1,0,1.1-1.1c0-5.3,0-10.6,0-15.9
					c0-0.5,0-1,0.2-1.5c0.1-0.3,0.5-0.5,0.7-0.6c0.2,0,0.5,0.3,0.6,0.5c0.1,0.4,0.2,0.9,0.2,1.3
					C1371.7,573.4,1371.6,576,1371.6,578.7z"/>
				<path fill="#FFFFFF" d="M1354.3,586.3c-1.2,0-2.5,0-3.7,0c-1,0-1.3-0.2-1.3-1.1c0-2.6,0-5.3,0-7.9c0-0.2,0.1-0.4,0.2-0.6
					c0.2,0.1,0.4,0.1,0.6,0.2c0.8,0.7,1.5,1.5,2.3,2.3c1.6,1.6,1.6,1.6,3.3-0.1c3.5-3.5,7-7,10.5-10.5c0.3-0.3,0.6-0.7,1-0.9
					c0.2-0.1,0.7-0.2,0.9,0c0.2,0.2,0.3,0.7,0.1,0.9c-0.2,0.4-0.5,0.7-0.8,1c-3.7,3.7-7.3,7.3-11,11c-0.2,0.2-0.5,0.5-0.7,0.7
					c-0.6,0.4-0.4,0.8,0,1.2c1,1,2,2,3,3c0.2,0.2,0.2,0.5,0.3,0.7c-0.2,0.1-0.4,0.2-0.6,0.2C1357,586.3,1355.7,586.3,1354.3,586.3
					C1354.3,586.3,1354.3,586.3,1354.3,586.3z"/>
				<path fill="#FFFFFF" d="M1364,541.8c0.1-0.1,0.2-0.3,0.3-0.4c1.9-1.9,3.7-3.7,5.6-5.6c0.7-0.7,0.8-0.7,1.5-0.1
					c1.9,1.9,3.7,3.7,5.6,5.6c0.1,0.1,0.2,0.3,0.3,0.4c-0.2,0.1-0.4,0.2-0.6,0.2c-1.3,0-2.7,0-4,0c-0.9,0-0.9,0-0.9,1
					c0,0.8,0,1.6,0,2.4c0,4.4,0,8.9,0,13.3c0,0.4,0,0.9,0,1.3c0,0.6-0.4,1.1-0.9,1c-0.3,0-0.6-0.6-0.7-1c-0.1-0.3,0-0.8,0-1.2
					c0-5,0-10,0-15c0-2.1,0.2-1.9-1.9-1.9c-1.2,0-2.5,0-3.7,0C1364.3,542,1364.2,541.9,1364,541.8z"/>
				<path fill="#FFFFFF" d="M1392,553.4c-0.7-0.7-1.5-1.4-2.2-2.1c-0.5-0.5-1-0.9-1.4-1.4c-0.5-0.5-0.9-0.5-1.4,0
					c-0.9,0.9-1.8,1.8-2.7,2.7c-2.9,2.9-5.9,5.9-8.8,8.8c-0.3,0.3-0.6,0.7-1,0.9c-0.2,0.1-0.6,0.1-0.7,0c-0.2-0.2-0.4-0.7-0.3-0.9
					c0.2-0.4,0.6-0.8,1-1.2c3.6-3.6,7.2-7.2,10.9-10.9c0.3-0.3,0.5-0.6,0.8-0.8c0.4-0.4,0.4-0.7,0-1.1c-1-0.9-1.9-1.9-2.9-2.9
					c-0.4-0.5-0.3-0.8,0.3-0.9c0.2,0,0.4,0,0.7,0c2.3,0,4.5,0,6.8,0c1.2,0,1.3,0.2,1.4,1.2c0,2.7,0,5.4,0,8.1
					C1392.2,553.1,1392.1,553.2,1392,553.4z"/>
				<path fill="#FFFFFF" d="M1382.3,585.9c1.2-1.2,2.2-2.2,3.2-3.2c1.3-1.3,1.1-1,0-2c-3.7-3.7-7.4-7.4-11.1-11.1
					c-0.3-0.3-0.7-0.6-0.9-1c-0.3-0.5-0.1-0.9,0.4-0.9c0.5,0,0.8,0.1,1.2,0.5c3.9,3.9,7.7,7.8,11.6,11.8c0.8,0.8,0.8,0.8,1.6,0
					c1-1,2.1-2.1,3.1-3.1c0.1-0.1,0.4-0.2,0.6-0.2c0.1,0,0.2,0.3,0.2,0.4c0,2.7,0,5.4,0,8.1c0,0.5-0.2,0.8-0.7,0.8
					C1388.6,585.9,1385.6,585.9,1382.3,585.9z"/>
				<path fill="#FFFFFF" d="M1394,571.8c-0.1-0.6-0.1-0.9-0.1-1.3c0-1,0-1.9,0-2.9c0-2.3,0.3-2-1.9-2c-5.1,0-10.2,0-15.4,0
					c-0.4,0-0.9,0-1.3-0.1c-0.2-0.1-0.5-0.4-0.5-0.6c0.1-0.3,0.3-0.6,0.5-0.7c0.4-0.1,0.9-0.1,1.3-0.1c5,0,10,0,15,0
					c0.5,0,0.9,0,1.4,0c0.6,0,0.9-0.2,0.9-0.9c0-1.5,0-2.9,0-4.4c0-0.2,0.1-0.4,0.1-0.6c0.2,0.1,0.4,0.1,0.6,0.3
					c1.9,1.9,3.8,3.8,5.7,5.7c0.3,0.3,0.5,0.6,0.1,1C1398.4,567.5,1396.3,569.6,1394,571.8z"/>
				<path fill="#FFFFFF" d="M1349.8,553.6c-0.1-0.5-0.1-0.8-0.1-1c0-2.5,0-5.1,0-7.6c0-0.5,0.1-0.9,0.7-0.9c2.9,0,5.7,0,8.9,0
					c-1.1,1.1-2,2-2.8,2.8c-0.3,0.3-0.6,0.6-0.8,0.8c-0.3,0.3-0.3,0.7,0,1.1c0.3,0.3,0.6,0.7,0.9,1c3.5,3.5,7.1,7.1,10.6,10.6
					c0.3,0.3,0.6,0.6,0.9,1c0.1,0.2,0.1,0.5,0,0.6c-0.1,0.1-0.4,0.3-0.6,0.2c-0.4-0.2-0.9-0.4-1.3-0.7c-2.4-2.4-4.8-4.8-7.2-7.2
					c-1.5-1.5-2.9-3-4.4-4.4c-0.7-0.6-0.7-0.6-1.4,0C1352.2,551.1,1351.1,552.3,1349.8,553.6z"/>
				<path fill="#FFFFFF" d="M1347.3,571.7c-2-2-4-4.1-6-6.1c-0.3-0.3-0.3-0.5,0-0.8c2-2,4-4,6-5.9c0.1-0.1,0.2,0,0.4-0.1
					c0,1.5,0,2.9,0,4.4c0,1.2,0,1.2,1.2,1.2c5.4,0,10.8,0,16.2,0c0.4,0,0.8-0.1,1.2,0c0.3,0.1,0.5,0.3,0.8,0.5
					c-0.2,0.3-0.4,0.6-0.6,0.7c-0.5,0.2-1,0.2-1.5,0.2c-5.2,0-10.4,0-15.5,0c-1.9,0-1.7-0.2-1.8,1.7c0,1.4,0,2.8,0,4.2
					C1347.5,571.6,1347.4,571.7,1347.3,571.7z"/>
			</g>
		</g>
		<g>
			<g>
				<g>
					<rect x="1286.5" y="668.7" fill="#404447" width="169.2" height="169.2"/>
					<g>
						<path fill="#FFFFFF" d="M1349.1,814.9h2.7v1.4c0.6-0.8,1.4-1.5,2.8-1.5c2.1,0,3.3,1.4,3.3,3.6v6.2h-2.7v-5.4
							c0-1.3-0.6-2-1.7-2s-1.7,0.7-1.7,2v5.4h-2.7V814.9z"/>
						<path fill="#FFFFFF" d="M1359.9,819.8L1359.9,819.8c0-2.8,2.2-5.1,5.2-5.1c3,0,5.2,2.2,5.2,5v0c0,2.8-2.2,5-5.2,5
							C1362.1,824.8,1359.9,822.6,1359.9,819.8z M1367.6,819.8L1367.6,819.8c0-1.5-1-2.7-2.5-2.7c-1.6,0-2.5,1.2-2.5,2.6v0
							c0,1.4,1,2.7,2.5,2.7C1366.7,822.5,1367.6,821.2,1367.6,819.8z"/>
						<path fill="#FFFFFF" d="M1371.9,819.8L1371.9,819.8c0-3.3,2.1-5,4.4-5c1.5,0,2.4,0.7,3,1.4v-4.8h2.7v13.1h-2.7v-1.4
							c-0.7,0.9-1.6,1.6-3,1.6C1374,824.8,1371.9,823,1371.9,819.8z M1379.3,819.8L1379.3,819.8c0-1.6-1.1-2.7-2.3-2.7
							s-2.4,1-2.4,2.7v0c0,1.6,1.1,2.7,2.4,2.7S1379.3,821.4,1379.3,819.8z"/>
						<path fill="#FFFFFF" d="M1384,819.8L1384,819.8c0-2.8,2-5.1,4.8-5.1c3.2,0,4.7,2.5,4.7,5.2c0,0.2,0,0.5,0,0.7h-6.7
							c0.3,1.2,1.1,1.9,2.4,1.9c0.9,0,1.6-0.3,2.3-1l1.6,1.4c-0.9,1.1-2.2,1.8-3.9,1.8C1386.1,824.8,1384,822.8,1384,819.8z
							 M1390.8,819c-0.2-1.2-0.9-2.1-2-2.1c-1.1,0-1.9,0.8-2.1,2.1H1390.8z"/>
					</g>
				</g>
				<g>
					<path fill="#FFFFFF" d="M1414.6,791.4h-86.3c-2.2,0-4-1.8-4-4v-84.7c0-2.2,1.8-4,4-4h86.3c2.2,0,4,1.8,4,4v84.7
						C1418.6,789.6,1416.8,791.4,1414.6,791.4L1414.6,791.4z M1332.3,783.5h78.3v-76.8h-78.3V783.5L1332.3,783.5z"/>
				</g>
			</g>
			<path fill="#FFFFFF" d="M1348.4,741.9c-2.7,0-4.8,2.1-4.8,4.8c0,2.7,2.1,4.8,4.8,4.8c2.7,0,4.8-2.1,4.8-4.8
				C1353.2,744.1,1351,741.9,1348.4,741.9z M1382.6,763.7c-2.3,1.3-3.1,4.3-1.8,6.6c1.3,2.3,4.3,3.1,6.6,1.8
				c2.3-1.3,3.1-4.3,1.8-6.6C1387.9,763.2,1384.9,762.4,1382.6,763.7z M1358.8,746.7c0-4.7,2.4-8.9,6-11.5l-3.5-5.9
				c-4.2,2.8-7.3,7.1-8.6,12.1c1.5,1.2,2.5,3.1,2.5,5.2c0,2.1-1,4-2.5,5.2c1.3,5,4.4,9.3,8.6,12.1l3.5-5.9
				C1361.1,755.6,1358.8,751.5,1358.8,746.7z M1372.8,732.7c7.3,0,13.3,5.6,14,12.8l6.8-0.1c-0.3-5.3-2.6-10-6.2-13.5
				c-1.8,0.7-3.9,0.6-5.8-0.5c-1.8-1.1-3-2.8-3.3-4.8c-1.8-0.5-3.6-0.8-5.6-0.8c-3.3,0-6.5,0.8-9.2,2.2l3.3,6
				C1368.7,733.2,1370.7,732.7,1372.8,732.7z M1372.8,760.7c-2.1,0-4.1-0.5-5.9-1.3l-3.3,6c2.8,1.4,5.9,2.2,9.2,2.2
				c1.9,0,3.8-0.3,5.6-0.8c0.3-1.9,1.5-3.7,3.3-4.8c1.8-1.1,3.9-1.2,5.8-0.5c3.5-3.5,5.9-8.2,6.2-13.5l-6.8-0.1
				C1386.1,755.1,1380.1,760.7,1372.8,760.7z M1382.6,729.7c2.3,1.3,5.2,0.5,6.6-1.8c1.3-2.3,0.5-5.2-1.8-6.6
				c-2.3-1.3-5.2-0.5-6.6,1.8C1379.5,725.4,1380.3,728.4,1382.6,729.7z"/>
		</g>
		<g>
			<g>
				<g>
					<rect x="1465.5" y="489.7" fill="#404447" width="169.2" height="169.2"/>
					<g>
						<path fill="#FFFFFF" d="M1528.1,635.9h2.7v1.4c0.6-0.8,1.4-1.5,2.8-1.5c2.1,0,3.3,1.4,3.3,3.6v6.2h-2.7v-5.4
							c0-1.3-0.6-2-1.7-2s-1.7,0.7-1.7,2v5.4h-2.7V635.9z"/>
						<path fill="#FFFFFF" d="M1538.9,640.8L1538.9,640.8c0-2.8,2.2-5.1,5.2-5.1c3,0,5.2,2.2,5.2,5v0c0,2.8-2.2,5-5.2,5
							C1541.1,645.8,1538.9,643.6,1538.9,640.8z M1546.6,640.8L1546.6,640.8c0-1.5-1-2.7-2.5-2.7c-1.6,0-2.5,1.2-2.5,2.6v0
							c0,1.4,1,2.7,2.5,2.7C1545.7,643.5,1546.6,642.2,1546.6,640.8z"/>
						<path fill="#FFFFFF" d="M1550.9,640.8L1550.9,640.8c0-3.3,2.1-5,4.4-5c1.5,0,2.4,0.7,3,1.4v-4.8h2.7v13.1h-2.7v-1.4
							c-0.7,0.9-1.6,1.6-3,1.6C1553,645.8,1550.9,644,1550.9,640.8z M1558.3,640.8L1558.3,640.8c0-1.6-1.1-2.7-2.3-2.7
							s-2.4,1-2.4,2.7v0c0,1.6,1.1,2.7,2.4,2.7S1558.3,642.4,1558.3,640.8z"/>
						<path fill="#FFFFFF" d="M1563,640.8L1563,640.8c0-2.8,2-5.1,4.8-5.1c3.2,0,4.7,2.5,4.7,5.2c0,0.2,0,0.5,0,0.7h-6.7
							c0.3,1.2,1.1,1.9,2.4,1.9c0.9,0,1.6-0.3,2.3-1l1.6,1.4c-0.9,1.1-2.2,1.8-3.9,1.8C1565.1,645.8,1563,643.8,1563,640.8z
							 M1569.8,640c-0.2-1.2-0.9-2.1-2-2.1c-1.1,0-1.9,0.8-2.1,2.1H1569.8z"/>
					</g>
				</g>
				<g>
					<path fill="#FFFFFF" d="M1593.6,612.4h-86.3c-2.2,0-4-1.8-4-4v-84.7c0-2.2,1.8-4,4-4h86.3c2.2,0,4,1.8,4,4v84.7
						C1597.6,610.6,1595.8,612.4,1593.6,612.4L1593.6,612.4z M1511.3,604.5h78.3v-76.8h-78.3V604.5L1511.3,604.5z"/>
				</g>
			</g>
			<g>
				<path fill="#FFFFFF" d="M1572.9,556.7c-1-0.8-3.7-1.9-4.4-1.9c-0.2,0-0.6,0.4-0.9,0.9c-0.4,0.8-1.6,1.9-2.1,1.9
					c-0.1,0,0.1-0.6,0.5-1.2c0.4-0.7,0.7-1.6,0.7-2c0-2.1-2.3-8.3-4.1-11.2c-0.9-1.3-1.3-1.8-2.2-2.3c-1.6-0.9-3.6-1-6.2-0.3
					c-1.5,0.4-2.3,0.5-3.7,0.4c-6-0.4-5.7-0.4-6.7,0.1c-1.3,0.6-1.6,1.4-2.4,4.6c-0.8,3.5-0.9,4.6-0.1,5.5c0.8,0.9,3.3,2.1,5.8,2.6
					c3,0.7,5,1.3,5.6,1.7c0.3,0.2,0.6,0.6,0.8,1c0.6,1.7,1,2.4,1.3,2.7c0.2,0.2,0.4,0.5,0.4,0.6c0,1.6-11.3-1.9-14.2-4.4
					c-1.3-1.1-1.6-1.9-1.5-3.2l0.1-1.1l-2.9,0.1c-2.4,0.1-3.1,0.2-3.9,0.6c-3,1.5-2.9,3.9,0.4,7c4.8,4.6,14.7,9,22.5,10.2
					c2.7,0.4,6.6,0.4,9.1,0c4.9-0.7,8.3-2.7,9.7-5.7C1575.6,560.6,1575.1,558.3,1572.9,556.7z M1549.8,547.5c-2.1,0.2-3.1,0.5-3.5,1
					c-0.4,0.5-0.9,0.3-2.1-0.8c-0.8-0.8-1.1-1.3-1.1-1.7c0-1.1,0.8-1.7,1.4-1c1,0.9,1.3,1,3.5,0.9c2.3-0.1,3.6,0.1,3.8,0.7
					C1552.1,547.1,1551.7,547.3,1549.8,547.5z M1556.6,544.3c-1-0.1-1.1-0.3-0.1-0.6c0.9-0.2,1.3-0.9,0.9-1.2
					c-0.5-0.3-2.2-0.5-2.9-0.3c-0.4,0.1-0.6,0.1-0.5-0.1c0.2-0.4,2.6-0.8,3.9-0.6c1.4,0.1,2.5,0.6,2.7,1.2
					C1560.8,543.6,1558.7,544.5,1556.6,544.3z"/>
				<path fill="#FFFFFF" d="M1574,576.6c-1.9-0.2-4.3,0-5.9,0.5c-0.7,0.2-0.9,0.4-1,0.9c-0.1,0.5-0.3,0.7-1.4,1.1
					c-0.9,0.4-1.7,0.9-2.7,1.9c-0.8,0.8-1.6,1.5-1.9,1.6c-0.6,0.3-1.6,0.5-1.6,0.4c0-0.1,1.7-2.7,3.7-5.5c0.7-1,1-1.6,1-2.4
					c0.1-0.6,0.3-1.8,0.6-2.7c0.3-0.9,0.4-1.6,0.4-1.7s-0.5,0-1.1,0.2c-1.1,0.4-1.9,0.4-3.2,0.1c-0.8-0.2-1.1-0.2-1.9,0.1
					c-0.9,0.4-1,0.4-1.9,0c-0.9-0.3-1.1-0.3-3.1,0c-3.8,0.7-5.1,0.3-7.7-2.3c-1.6-1.6-2.2-2-2.5-1.5c-0.1,0.1-0.4,0.2-0.7,0.2
					c-0.4,0-0.7-0.3-1.2-1.1c-0.4-0.6-1-1.3-1.3-1.5c-1.8-1.3-3.9-0.4-3.9,1.8c0,0.9,1.8,3.6,2.7,4c1.2,0.6,0.5,1.5-1,1.3
					c-0.8-0.1-1.1-0.3-2.1-1.5c-1.1-1.2-1.3-1.3-2.1-1.3c-0.5,0-1.3,0.2-1.8,0.4c-1.3,0.6-2.9,0.9-4.7,0.9h-1.4
					c3.7,10.9,14,18.8,26.1,18.8c9.8,0,18.4-5.1,23.3-12.9C1575.4,576.9,1575,576.8,1574,576.6z M1557,576.9c-0.3,0-0.8-0.2-1.2-0.4
					c-0.4-0.2-1-0.4-1.3-0.4c-0.6,0-0.9-0.5-0.5-1c0.3-0.4,1.5-0.4,2.2,0c0.8,0.4,1.4,0.4,1.9-0.1c0.5-0.6,0.8-0.5,0.8,0.1
					C1558.8,575.7,1557.7,576.9,1557,576.9z"/>
			</g>
		</g>
	</g>
	<rect x="1227.9" y="490.9" fill="#D1D3D4" width="50.1" height="168.1"/>
	<g>
		<g>
			<g>
				<path fill="#FFFFFF" d="M1253.9,592.9c-0.5,0-1-0.2-1.5-0.5c-1.1-0.8-1.4-2.4-0.6-3.5l11.7-16.1l-11.7-16.1
					c-0.8-1.1-0.6-2.7,0.6-3.5c1.1-0.8,2.7-0.6,3.5,0.6l12.8,17.5c0.6,0.9,0.6,2.1,0,2.9l-12.8,17.5
					C1255.4,592.5,1254.7,592.9,1253.9,592.9L1253.9,592.9z"/>
			</g>
		</g>
		<g>
			<g>
				<path fill="#FFFFFF" d="M1237.3,592.9c-0.5,0-1-0.2-1.5-0.5c-1.1-0.8-1.4-2.4-0.6-3.5l11.7-16.1l-11.7-16.1
					c-0.8-1.1-0.6-2.7,0.6-3.5c1.1-0.8,2.7-0.6,3.5,0.6l12.8,17.5c0.6,0.9,0.6,2.1,0,2.9l-12.8,17.5
					C1238.8,592.5,1238,592.9,1237.3,592.9L1237.3,592.9z"/>
			</g>
		</g>
	</g>
	<rect x="1228.1" y="668.9" fill="#D1D3D4" width="49.9" height="169.1"/>
	<g>
		<g>
			<g>
				<path fill="#FFFFFF" d="M1253.9,770.9c-0.5,0-1-0.2-1.5-0.5c-1.1-0.8-1.4-2.4-0.6-3.5l11.7-16.1l-11.7-16.1
					c-0.8-1.1-0.6-2.7,0.6-3.5c1.1-0.8,2.7-0.6,3.5,0.6l12.8,17.5c0.6,0.9,0.6,2.1,0,2.9l-12.8,17.5
					C1255.4,770.5,1254.7,770.9,1253.9,770.9L1253.9,770.9z"/>
			</g>
		</g>
		<g>
			<g>
				<path fill="#FFFFFF" d="M1237.3,770.9c-0.5,0-1-0.2-1.5-0.5c-1.1-0.8-1.4-2.4-0.6-3.5l11.7-16.1l-11.7-16.1
					c-0.8-1.1-0.6-2.7,0.6-3.5c1.1-0.8,2.7-0.6,3.5,0.6l12.8,17.5c0.6,0.9,0.6,2.1,0,2.9l-12.8,17.5
					C1238.8,770.5,1238,770.9,1237.3,770.9L1237.3,770.9z"/>
			</g>
		</g>
	</g>
	<rect x="1228.1" y="669.5" fill="#D1D3D4" width="49.9" height="169.1"/>
	<g>
		<g>
			<g>
				<path fill="#FFFFFF" d="M1253.9,771.5c-0.5,0-1-0.2-1.5-0.5c-1.1-0.8-1.4-2.4-0.6-3.5l11.7-16.1l-11.7-16.1
					c-0.8-1.1-0.6-2.7,0.6-3.5c1.1-0.8,2.7-0.6,3.5,0.6l12.8,17.5c0.6,0.9,0.6,2.1,0,2.9l-12.8,17.5
					C1255.4,771.2,1254.7,771.5,1253.9,771.5L1253.9,771.5z"/>
			</g>
		</g>
		<g>
			<g>
				<path fill="#FFFFFF" d="M1237.3,771.5c-0.5,0-1-0.2-1.5-0.5c-1.1-0.8-1.4-2.4-0.6-3.5l11.7-16.1l-11.7-16.1
					c-0.8-1.1-0.6-2.7,0.6-3.5c1.1-0.8,2.7-0.6,3.5,0.6l12.8,17.5c0.6,0.9,0.6,2.1,0,2.9l-12.8,17.5
					C1238.8,771.2,1238,771.5,1237.3,771.5L1237.3,771.5z"/>
			</g>
		</g>
	</g>
</g>
<rect x="475.7" y="241" fill="#D1D3D4" width="1083.7" height="190.1"/>
<g>
	<g>
		<rect x="1380.9" y="251.7" fill="#7F888D" width="169.2" height="169.2"/>
		<g>
			<path fill="#FFFFFF" d="M1438.7,398h2.7v1.4c0.7-0.9,1.6-1.6,3-1.6c2.3,0,4.4,1.8,4.4,5v0c0,3.2-2.1,5-4.4,5
				c-1.5,0-2.4-0.7-3-1.4v4.1h-2.7V398z M1446.1,402.8L1446.1,402.8c0-1.6-1.1-2.7-2.4-2.7s-2.3,1.1-2.3,2.7v0
				c0,1.6,1.1,2.7,2.3,2.7S1446.1,404.4,1446.1,402.8z"/>
			<path fill="#FFFFFF" d="M1450.4,402.8L1450.4,402.8c0-2.8,2.2-5.1,5.2-5.1c3,0,5.2,2.2,5.2,5v0c0,2.8-2.2,5-5.2,5
				C1452.6,407.8,1450.4,405.6,1450.4,402.8z M1458.2,402.8L1458.2,402.8c0-1.5-1-2.7-2.5-2.7c-1.6,0-2.5,1.2-2.5,2.6v0
				c0,1.4,1,2.7,2.5,2.7C1457.2,405.5,1458.2,404.3,1458.2,402.8z"/>
			<path fill="#FFFFFF" d="M1463,394.5h2.7v13.1h-2.7V394.5z"/>
			<path fill="#FFFFFF" d="M1468.3,394.5h2.9v2.4h-2.9V394.5z M1468.4,398h2.7v9.7h-2.7V398z"/>
			<path fill="#FFFFFF" d="M1473.2,402.8L1473.2,402.8c0-2.8,2.1-5.1,5.1-5.1c1.8,0,3,0.6,3.9,1.6l-1.7,1.8
				c-0.6-0.6-1.2-1.1-2.2-1.1c-1.4,0-2.3,1.2-2.3,2.6v0c0,1.5,1,2.7,2.4,2.7c0.9,0,1.5-0.4,2.2-1l1.6,1.6c-0.9,1-2,1.8-3.9,1.8
				C1475.4,407.8,1473.2,405.6,1473.2,402.8z"/>
			<path fill="#FFFFFF" d="M1483.8,409.9l0.9-2c0.4,0.2,0.8,0.4,1.2,0.4c0.5,0,0.7-0.1,1-0.6l-3.8-9.7h2.9l2.2,6.6l2.1-6.6h2.8
				l-3.7,9.9c-0.7,2-1.5,2.7-3.2,2.7C1485.2,410.6,1484.5,410.3,1483.8,409.9z"/>
		</g>
	</g>
	<g>
		<g>
			<path fill="#FFFFFF" d="M1511,376.3h-89.8c-2.4,0-4.3-1.9-4.3-4.3v-30.3c0-2.4,1.9-4.3,4.3-4.3h27.8c2.4,0,4.3,1.9,4.3,4.3v6
				h25.7v-6c0-2.4,1.9-4.3,4.3-4.3h27.8c2.4,0,4.3,1.9,4.3,4.3V372C1515.3,374.4,1513.4,376.3,1511,376.3L1511,376.3z M1425.5,367.7
				h81.2V346h-19.2v1.8c0,4.7-3.8,8.6-8.6,8.6h-25.7c-4.7,0-8.6-3.8-8.6-8.6V346h-19.2V367.7L1425.5,367.7z"/>
		</g>
		<g>
			<path fill="#FFFFFF" d="M1506.2,345.4c-2.4,0-4.3-1.9-4.3-4.3v-29.9h-70.5v29.9c0,2.4-1.9,4.3-4.3,4.3c-2.4,0-4.3-1.9-4.3-4.3
				v-34.2c0-2.4,1.9-4.3,4.3-4.3h79.1c2.4,0,4.3,1.9,4.3,4.3v34.2C1510.5,343.4,1508.6,345.4,1506.2,345.4L1506.2,345.4z"/>
		</g>
		<g>
			<path fill="#FFFFFF" d="M1501.3,298.3h-69.1c-1.2,0-2.1-1-2.1-2.1c0-1.2,1-2.1,2.1-2.1h69.1c1.2,0,2.1,1,2.1,2.1
				C1503.4,297.4,1502.4,298.3,1501.3,298.3L1501.3,298.3z"/>
		</g>
		<g>
			<path fill="#FFFFFF" d="M1497.2,289.8h-60.9c-1.2,0-2.1-1-2.1-2.1c0-1.2,1-2.1,2.1-2.1h60.9c1.2,0,2.1,1,2.1,2.1
				C1499.3,288.8,1498.3,289.8,1497.2,289.8L1497.2,289.8z"/>
		</g>
	</g>
</g>
<rect x="239" y="241" fill="#F08921" width="189.2" height="190.2"/>
<rect x="0" y="243" fill="#D1D3D4" width="190.3" height="190.1"/>
<g>
	<rect x="476.9" y="468.2" fill="#F08921" width="751.4" height="389"/>
	<g>
		<rect x="669.8" y="479" fill="#D1D3D4" width="547.4" height="369.2"/>
		<g>
			<g>
				<g>
					<rect x="680" y="668.5" fill="#FDBB55" width="169.2" height="169.2"/>
					<g>
						<path fill="#FFFFFF" d="M740.3,821v-6.2h2.7v5.4c0,1.3,0.6,2,1.7,2c1,0,1.7-0.7,1.7-2v-5.4h2.7v9.7h-2.7V823
							c-0.6,0.8-1.4,1.5-2.8,1.5C741.5,824.6,740.3,823.2,740.3,821z"/>
						<path fill="#FFFFFF" d="M751.6,814.7h2.7v1.4c0.6-0.8,1.4-1.5,2.8-1.5c2.1,0,3.3,1.4,3.3,3.6v6.2h-2.7V819c0-1.3-0.6-2-1.7-2
							c-1,0-1.7,0.7-1.7,2v5.4h-2.7V814.7z"/>
						<path fill="#FFFFFF" d="M762.8,811.2h2.9v2.4h-2.9V811.2z M762.9,814.7h2.7v9.7h-2.7V814.7z"/>
						<path fill="#FFFFFF" d="M767.7,819.6L767.7,819.6c0-2.8,2.2-5.1,5.2-5.1c3,0,5.2,2.2,5.2,5v0c0,2.8-2.2,5-5.2,5
							C770,824.6,767.7,822.4,767.7,819.6z M775.5,819.6L775.5,819.6c0-1.5-1-2.7-2.5-2.7c-1.6,0-2.5,1.2-2.5,2.6v0
							c0,1.4,1,2.7,2.5,2.7C774.6,822.2,775.5,821,775.5,819.6z"/>
						<path fill="#FFFFFF" d="M780.2,814.7h2.7v1.4c0.6-0.8,1.4-1.5,2.8-1.5c2.1,0,3.3,1.4,3.3,3.6v6.2h-2.7V819c0-1.3-0.6-2-1.7-2
							s-1.7,0.7-1.7,2v5.4h-2.7V814.7z"/>
					</g>
				</g>
				<g>
					<g>
						<g>
							<path fill="#FFFFFF" d="M758.4,785.2c-2.2,0-3.9-1.8-3.9-3.9v-24.1h-24.1c-2.2,0-3.9-1.8-3.9-3.9c0-2.2,1.8-3.9,3.9-3.9h28
								c2.2,0,3.9,1.8,3.9,3.9v28C762.3,783.4,760.6,785.2,758.4,785.2L758.4,785.2z"/>
						</g>
						<g>
							<path fill="#FFFFFF" d="M723.6,792c-1,0-2-0.4-2.8-1.2c-1.5-1.5-1.5-4,0-5.6l34.8-34.9c1.5-1.5,4-1.5,5.6,0
								c1.5,1.5,1.5,4,0,5.6l-34.8,34.9C725.6,791.6,724.6,792,723.6,792L723.6,792z"/>
						</g>
					</g>
					<g>
						<g>
							<path fill="#FFFFFF" d="M775,785.2c-2.2,0-3.9-1.8-3.9-3.9v-28c0-2.2,1.8-3.9,3.9-3.9h28c2.2,0,3.9,1.8,3.9,3.9
								c0,2.2-1.8,3.9-3.9,3.9H779v24.1C779,783.4,777.2,785.2,775,785.2L775,785.2z"/>
						</g>
						<g>
							<path fill="#FFFFFF" d="M809.9,792c-1,0-2-0.4-2.8-1.2L772.3,756c-1.5-1.5-1.5-4,0-5.6c1.5-1.5,4-1.5,5.6,0l34.8,34.9
								c1.5,1.5,1.5,4,0,5.6C811.9,791.6,810.9,792,809.9,792L809.9,792z"/>
						</g>
					</g>
					<g>
						<g>
							<path fill="#FFFFFF" d="M803.1,740.5h-28c-2.2,0-3.9-1.8-3.9-3.9v-28c0-2.2,1.8-3.9,3.9-3.9c2.2,0,3.9,1.8,3.9,3.9v24.1h24.1
								c2.2,0,3.9,1.8,3.9,3.9C807,738.8,805.3,740.5,803.1,740.5L803.1,740.5z"/>
						</g>
						<g>
							<path fill="#FFFFFF" d="M775,740.5c-1,0-2-0.4-2.8-1.2c-1.5-1.5-1.5-4,0-5.6l34.8-34.9c1.5-1.5,4-1.5,5.6,0
								c1.5,1.5,1.5,4,0,5.6l-34.8,34.9C777.1,740.2,776.1,740.5,775,740.5L775,740.5z"/>
						</g>
					</g>
					<g>
						<g>
							<path fill="#FFFFFF" d="M758.4,740.5h-28c-2.2,0-3.9-1.8-3.9-3.9c0-2.2,1.8-3.9,3.9-3.9h24.1v-24.1c0-2.2,1.8-3.9,3.9-3.9
								c2.2,0,3.9,1.8,3.9,3.9v28C762.3,738.8,760.6,740.5,758.4,740.5L758.4,740.5z"/>
						</g>
						<g>
							<path fill="#FFFFFF" d="M758.4,740.5c-1,0-2-0.4-2.8-1.2l-34.8-34.9c-1.5-1.5-1.5-4,0-5.6c1.5-1.5,4-1.5,5.6,0l34.8,34.9
								c1.5,1.5,1.5,4,0,5.6C760.4,740.2,759.4,740.5,758.4,740.5L758.4,740.5z"/>
						</g>
					</g>
				</g>
			</g>
			<g>
				<g>
					<rect x="680" y="489" fill="#FBBB54" width="169.2" height="169.2"/>
					<g>
						<path fill="#FFFFFF" d="M727.8,642.1L727.8,642.1c0-2.1,1.6-3.1,3.9-3.1c1,0,1.7,0.2,2.4,0.4v-0.2c0-1.1-0.7-1.8-2.1-1.8
							c-1,0-1.8,0.2-2.7,0.5l-0.7-2.1c1.1-0.5,2.1-0.8,3.7-0.8c1.5,0,2.6,0.4,3.3,1.1c0.7,0.7,1,1.8,1,3.1v5.6H734v-1
							c-0.7,0.7-1.6,1.2-2.9,1.2C729.3,645.1,727.8,644,727.8,642.1z M734,641.5V641c-0.5-0.2-1.1-0.4-1.7-0.4
							c-1.2,0-1.9,0.5-1.9,1.3v0c0,0.7,0.6,1.2,1.5,1.2C733.2,643.2,734,642.5,734,641.5z"/>
						<path fill="#FFFFFF" d="M739,635.2h2.7v1.4c0.7-0.9,1.6-1.6,3-1.6c2.2,0,4.4,1.8,4.4,5v0c0,3.2-2.1,5-4.4,5
							c-1.5,0-2.4-0.7-3-1.4v4.1H739V635.2z M746.4,640.1L746.4,640.1c0-1.6-1.1-2.7-2.4-2.7c-1.3,0-2.3,1.1-2.3,2.7v0
							c0,1.6,1.1,2.7,2.3,2.7C745.3,642.7,746.4,641.7,746.4,640.1z"/>
						<path fill="#FFFFFF" d="M751.1,635.2h2.7v1.4c0.7-0.9,1.6-1.6,3-1.6c2.3,0,4.4,1.8,4.4,5v0c0,3.2-2.1,5-4.4,5
							c-1.5,0-2.4-0.7-3-1.4v4.1h-2.7V635.2z M758.5,640.1L758.5,640.1c0-1.6-1.1-2.7-2.4-2.7s-2.3,1.1-2.3,2.7v0
							c0,1.6,1.1,2.7,2.3,2.7S758.5,641.7,758.5,640.1z"/>
						<path fill="#FFFFFF" d="M763.3,635.2h2.7v1.9c0.6-1.3,1.5-2.2,3.1-2.1v2.9H769c-1.8,0-2.9,1.1-2.9,3.4v3.6h-2.7V635.2z"/>
						<path fill="#FFFFFF" d="M770.1,640.1L770.1,640.1c0-2.8,2.2-5.1,5.2-5.1c3,0,5.2,2.2,5.2,5v0c0,2.8-2.2,5-5.2,5
							C772.3,645.1,770.1,642.9,770.1,640.1z M777.8,640.1L777.8,640.1c0-1.5-1-2.7-2.5-2.7c-1.6,0-2.5,1.2-2.5,2.6v0
							c0,1.4,1,2.7,2.5,2.7C776.9,642.7,777.8,641.5,777.8,640.1z"/>
						<path fill="#FFFFFF" d="M781.1,635.2h2.9l2.2,6.5l2.2-6.5h2.8l-3.8,9.7h-2.5L781.1,635.2z"/>
						<path fill="#FFFFFF" d="M791.7,640.1L791.7,640.1c0-2.8,2-5.1,4.8-5.1c3.2,0,4.7,2.5,4.7,5.2c0,0.2,0,0.5,0,0.7h-6.7
							c0.3,1.2,1.1,1.9,2.4,1.9c0.9,0,1.6-0.3,2.3-1l1.6,1.4c-0.9,1.1-2.2,1.8-3.9,1.8C793.9,645.1,791.7,643.1,791.7,640.1z
							 M798.6,639.3c-0.2-1.2-0.9-2.1-2-2.1c-1.1,0-1.9,0.8-2.1,2.1H798.6z"/>
					</g>
				</g>
				<g>
					<g>
						<g>
							<path fill="#FFFFFF" d="M791.7,615.1h-60c-4.5,0-8.2-4-8.2-8.9v-66.8c0-4.9,3.7-8.9,8.2-8.9h60c4.5,0,8.2,4,8.2,8.9v66.8
								C799.9,611.1,796.2,615.1,791.7,615.1L791.7,615.1z M791.7,606.2v4.5V606.2L791.7,606.2L791.7,606.2z M731.7,539.4v66.8h60
								l0-66.8H731.7L731.7,539.4z"/>
						</g>
						<g>
							<path fill="#FFFFFF" d="M776.6,549.8c-2.3,0-4.1-2-4.1-4.5v-27.8H751v27.8c0,2.5-1.8,4.5-4.1,4.5c-2.3,0-4.1-2-4.1-4.5v-27.8
								c0-4.9,3.7-8.9,8.2-8.9h21.5c4.5,0,8.2,4,8.2,8.9v27.8C780.7,547.8,778.8,549.8,776.6,549.8L776.6,549.8z"/>
						</g>
					</g>
					<g>
						<path fill="#FFFFFF" d="M755.7,595.2c-1.1,0-2.1-0.4-2.8-1.2l-10.1-10.6c-1.5-1.6-1.4-4,0.1-5.5c1.6-1.5,4-1.4,5.5,0.1
							l7.1,7.4l19.6-23.9c1.4-1.7,3.8-1.9,5.5-0.5c1.7,1.4,1.9,3.8,0.5,5.5l-22.4,27.3c-0.7,0.9-1.8,1.4-2.9,1.4
							C755.8,595.2,755.7,595.2,755.7,595.2L755.7,595.2z"/>
					</g>
				</g>
			</g>
			<g>
				<g>
					<rect x="860" y="489.1" fill="#FBBB54" width="169.2" height="169.2"/>
					<g>
						<path fill="#FFFFFF" d="M925.3,643.7v1.3h-2.7v-13.1h2.7v4.9c0.7-0.9,1.6-1.6,3-1.6c2.2,0,4.4,1.8,4.4,5v0c0,3.2-2.1,5-4.4,5
							C926.9,645.2,926,644.5,925.3,643.7z M930,640.2L930,640.2c0-1.6-1.1-2.7-2.4-2.7c-1.3,0-2.3,1.1-2.3,2.7v0
							c0,1.6,1.1,2.7,2.3,2.7C928.9,642.9,930,641.8,930,640.2z"/>
						<path fill="#FFFFFF" d="M934.7,641.6v-6.2h2.7v5.4c0,1.3,0.6,2,1.7,2c1,0,1.7-0.7,1.7-2v-5.4h2.7v9.7h-2.7v-1.4
							c-0.6,0.8-1.4,1.5-2.8,1.5C935.9,645.2,934.7,643.8,934.7,641.6z"/>
						<path fill="#FFFFFF" d="M946,631.9h2.9v2.4H946V631.9z M946.1,635.3h2.7v9.7h-2.7V635.3z"/>
						<path fill="#FFFFFF" d="M951.5,631.9h2.7V645h-2.7V631.9z"/>
						<path fill="#FFFFFF" d="M956.4,640.2L956.4,640.2c0-3.3,2.1-5,4.4-5c1.5,0,2.4,0.7,3,1.4v-4.8h2.7V645h-2.7v-1.4
							c-0.7,0.9-1.6,1.6-3,1.6C958.5,645.2,956.4,643.4,956.4,640.2z M963.8,640.2L963.8,640.2c0-1.6-1.1-2.7-2.3-2.7
							c-1.3,0-2.4,1-2.4,2.7v0c0,1.6,1.1,2.7,2.4,2.7C962.8,642.9,963.8,641.8,963.8,640.2z"/>
					</g>
				</g>
				<g>
					<g>
						<g>
							<g>
								<path fill="#FFFFFF" d="M969.5,616.2c-1.1,0-2.2-0.4-3.1-1.3l-16.8-16.8c-1.7-1.7-1.7-4.4,0-6.1l16.8-16.8
									c1.7-1.7,4.4-1.7,6.1,0c1.7,1.7,1.7,4.4,0,6.1L958.8,595l13.7,13.7c1.7,1.7,1.7,4.5,0,6.1
									C971.7,615.7,970.6,616.2,969.5,616.2L969.5,616.2z"/>
							</g>
						</g>
						<g>
							<path fill="#FFFFFF" d="M945.2,551.1"/>
						</g>
						<g>
							<path fill="#FFFFFF" d="M981.1,599.7h-22.9c-2.2,0-4-1.8-4-4c0-2.2,1.8-4,4-4h22.9c4.5,0,8.1-3.6,8.1-8.1v-49.6
								c0-4.5-3.6-8.1-8.1-8.1h-72.4c-4.5,0-8.1,3.6-8.1,8.1v49.6c0,4.5,3.6,8.1,8.1,8.1h22.9c2.2,0,4,1.8,4,4c0,2.2-1.8,4-4,4
								h-22.9c-8.9,0-16.2-7.3-16.2-16.2v-49.6c0-8.9,7.3-16.2,16.2-16.2h72.4c8.9,0,16.2,7.3,16.2,16.2v49.6
								C997.3,592.5,990.1,599.7,981.1,599.7L981.1,599.7z"/>
						</g>
					</g>
					<g>
						<g>
							<path fill="#FFFFFF" d="M930.1,573.3c-7.9,0-14.4-6.5-14.4-14.4c0-7.9,6.5-14.4,14.4-14.4c8,0,14.4,6.5,14.4,14.4
								C944.5,566.8,938.1,573.3,930.1,573.3L930.1,573.3z M930.1,549.2c-5.3,0-9.6,4.3-9.6,9.6c0,5.3,4.3,9.6,9.6,9.6
								c5.3,0,9.6-4.3,9.6-9.6C939.8,553.5,935.4,549.2,930.1,549.2L930.1,549.2z"/>
						</g>
						<g>
							<g>
								<path fill="#FFFFFF" d="M921.1,552.2c-0.6,0-1.2-0.2-1.7-0.7l-3.3-3.3c-0.9-0.9-0.9-2.5,0-3.4c0.9-0.9,2.5-0.9,3.4,0
									l3.3,3.3c0.9,0.9,0.9,2.5,0,3.4C922.3,551.9,921.7,552.2,921.1,552.2L921.1,552.2z"/>
							</g>
							<g>
								<path fill="#FFFFFF" d="M942.5,573.6c-0.6,0-1.2-0.2-1.7-0.7l-3.9-4c-0.9-0.9-0.9-2.5,0-3.4c0.9-0.9,2.5-0.9,3.4,0l3.9,4
									c0.9,0.9,0.9,2.5,0,3.4C943.8,573.4,943.1,573.6,942.5,573.6L942.5,573.6z"/>
							</g>
						</g>
						<g>
							<g>
								<path fill="#FFFFFF" d="M939.2,552.2c-0.6,0-1.2-0.2-1.7-0.7c-0.9-0.9-0.9-2.5,0-3.4l3.3-3.3c0.9-0.9,2.5-0.9,3.4,0
									c0.9,0.9,0.9,2.5,0,3.4l-3.3,3.3C940.4,551.9,939.8,552.2,939.2,552.2L939.2,552.2z"/>
							</g>
							<g>
								<path fill="#FFFFFF" d="M917.7,573.6c-0.6,0-1.2-0.2-1.7-0.7c-0.9-0.9-0.9-2.5,0-3.4l4-3.9c0.9-0.9,2.5-0.9,3.4,0
									c0.9,0.9,0.9,2.5,0,3.4l-4,3.9C918.9,573.4,918.3,573.6,917.7,573.6L917.7,573.6z"/>
							</g>
						</g>
						<g>
							<g>
								<path fill="#FFFFFF" d="M930.1,548.4c-1.3,0-2.4-1.1-2.4-2.4v-4.7c0-1.3,1.1-2.4,2.4-2.4c1.3,0,2.4,1.1,2.4,2.4v4.7
									C932.5,547.3,931.5,548.4,930.1,548.4L930.1,548.4z"/>
							</g>
							<g>
								<path fill="#FFFFFF" d="M930.1,578.8L930.1,578.8c-1.3,0-2.4-1.1-2.4-2.4l0-5.6c0-1.3,1.1-2.4,2.4-2.4l0,0
									c1.3,0,2.4,1.1,2.4,2.4l0,5.6C932.5,577.7,931.4,578.8,930.1,578.8L930.1,578.8z"/>
							</g>
						</g>
						<g>
							<g>
								<path fill="#FFFFFF" d="M947.7,561.2h-4.7c-1.3,0-2.4-1.1-2.4-2.4c0-1.3,1.1-2.4,2.4-2.4h4.7c1.3,0,2.4,1.1,2.4,2.4
									C950.1,560.2,949,561.2,947.7,561.2L947.7,561.2z"/>
							</g>
							<g>
								<path fill="#FFFFFF" d="M918.2,561.2h-5.6c-1.3,0-2.4-1.1-2.4-2.4c0-1.3,1.1-2.4,2.4-2.4h5.6c1.3,0,2.4,1.1,2.4,2.4
									C920.6,560.2,919.5,561.2,918.2,561.2L918.2,561.2z"/>
							</g>
						</g>
					</g>
					<g>
						<g>
							<path fill="#FFFFFF" d="M965.8,557.8c-5.5,0-9.9-4.4-9.9-9.9c0-5.5,4.4-9.9,9.9-9.9c5.5,0,9.9,4.4,9.9,9.9
								C975.7,553.3,971.3,557.8,965.8,557.8L965.8,557.8z M965.8,541.3c-3.6,0-6.6,3-6.6,6.6c0,3.6,3,6.6,6.6,6.6
								c3.6,0,6.6-3,6.6-6.6C972.5,544.2,969.5,541.3,965.8,541.3L965.8,541.3z"/>
						</g>
						<g>
							<g>
								<path fill="#FFFFFF" d="M959.6,543.3c-0.4,0-0.8-0.2-1.2-0.5l-2.3-2.3c-0.6-0.6-0.6-1.7,0-2.3c0.6-0.6,1.7-0.6,2.3,0
									l2.3,2.3c0.6,0.6,0.6,1.7,0,2.3C960.5,543.2,960,543.3,959.6,543.3L959.6,543.3z"/>
							</g>
							<g>
								<path fill="#FFFFFF" d="M974.4,558.1c-0.4,0-0.8-0.2-1.2-0.5l-2.7-2.7c-0.6-0.6-0.6-1.7,0-2.3c0.6-0.6,1.7-0.6,2.3,0
									l2.7,2.7c0.6,0.6,0.6,1.7,0,2.3C975.2,557.9,974.8,558.1,974.4,558.1L974.4,558.1z"/>
							</g>
						</g>
						<g>
							<g>
								<path fill="#FFFFFF" d="M972.1,543.3c-0.4,0-0.8-0.2-1.2-0.5c-0.6-0.6-0.6-1.7,0-2.3l2.3-2.3c0.6-0.6,1.7-0.6,2.3,0
									c0.6,0.6,0.6,1.7,0,2.3l-2.3,2.3C972.9,543.2,972.5,543.3,972.1,543.3L972.1,543.3z"/>
							</g>
							<g>
								<path fill="#FFFFFF" d="M957.3,558.1c-0.4,0-0.8-0.2-1.2-0.5c-0.6-0.6-0.6-1.7,0-2.3l2.7-2.7c0.6-0.6,1.7-0.6,2.3,0
									c0.6,0.6,0.6,1.7,0,2.3l-2.7,2.7C958.2,557.9,957.7,558.1,957.3,558.1L957.3,558.1z"/>
							</g>
						</g>
						<g>
							<g>
								<path fill="#FFFFFF" d="M965.9,540.7c-0.9,0-1.6-0.7-1.6-1.6v-3.2c0-0.9,0.7-1.6,1.6-1.6c0.9,0,1.6,0.7,1.6,1.6v3.2
									C967.5,540,966.8,540.7,965.9,540.7L965.9,540.7z"/>
							</g>
							<g>
								<path fill="#FFFFFF" d="M965.8,561.6L965.8,561.6c-0.9,0-1.6-0.7-1.6-1.6l0-3.8c0-0.9,0.7-1.6,1.6-1.6l0,0
									c0.9,0,1.6,0.7,1.6,1.6l0,3.8C967.5,560.9,966.8,561.6,965.8,561.6L965.8,561.6z"/>
							</g>
						</g>
						<g>
							<g>
								<path fill="#FFFFFF" d="M977.9,549.5h-3.2c-0.9,0-1.6-0.7-1.6-1.6c0-0.9,0.7-1.6,1.6-1.6h3.2c0.9,0,1.6,0.7,1.6,1.6
									C979.5,548.8,978.8,549.5,977.9,549.5L977.9,549.5z"/>
							</g>
							<g>
								<path fill="#FFFFFF" d="M957.6,549.5h-3.8c-0.9,0-1.6-0.7-1.6-1.6c0-0.9,0.7-1.6,1.6-1.6h3.8c0.9,0,1.6,0.7,1.6,1.6
									C959.3,548.8,958.5,549.5,957.6,549.5L957.6,549.5z"/>
							</g>
						</g>
					</g>
				</g>
			</g>
			<g>
				<g>
					<rect x="1037.1" y="489" fill="#FBBB54" width="169.2" height="169.2"/>
					<g>
						<path fill="#FFFFFF" d="M1089.6,635.2h2.7v1.4c0.7-0.9,1.6-1.6,3-1.6c2.2,0,4.4,1.8,4.4,5v0c0,3.2-2.1,5-4.4,5
							c-1.5,0-2.4-0.7-3-1.4v4.1h-2.7V635.2z M1097,640.1L1097,640.1c0-1.6-1.1-2.7-2.4-2.7c-1.3,0-2.3,1.1-2.3,2.7v0
							c0,1.6,1.1,2.7,2.3,2.7C1096,642.7,1097,641.7,1097,640.1z"/>
						<path fill="#FFFFFF" d="M1101.7,641.5v-6.2h2.7v5.4c0,1.3,0.6,2,1.7,2c1,0,1.7-0.7,1.7-2v-5.4h2.7v9.7h-2.7v-1.4
							c-0.6,0.8-1.4,1.5-2.8,1.5C1102.9,645.1,1101.7,643.7,1101.7,641.5z"/>
						<path fill="#FFFFFF" d="M1115.7,643.6v1.3h-2.7v-13.1h2.7v4.9c0.7-0.9,1.6-1.6,3-1.6c2.3,0,4.4,1.8,4.4,5v0c0,3.2-2.1,5-4.4,5
							C1117.3,645.1,1116.4,644.4,1115.7,643.6z M1120.4,640.1L1120.4,640.1c0-1.6-1.1-2.7-2.4-2.7s-2.3,1.1-2.3,2.7v0
							c0,1.6,1.1,2.7,2.3,2.7S1120.4,641.7,1120.4,640.1z"/>
						<path fill="#FFFFFF" d="M1125.3,631.7h2.7v13.1h-2.7V631.7z"/>
						<path fill="#FFFFFF" d="M1130.6,631.7h2.9v2.4h-2.9V631.7z M1130.7,635.2h2.7v9.7h-2.7V635.2z"/>
						<path fill="#FFFFFF" d="M1135.3,643.6l1.2-1.8c1,0.8,2.1,1.2,3,1.2c0.8,0,1.2-0.3,1.2-0.7v0c0-0.6-0.9-0.8-2-1.1
							c-1.3-0.4-2.9-1-2.9-2.9v0c0-2,1.6-3.1,3.5-3.1c1.2,0,2.6,0.4,3.6,1.1l-1,1.9c-1-0.6-1.9-0.9-2.6-0.9c-0.7,0-1,0.3-1,0.7v0
							c0,0.5,0.9,0.8,2,1.2c1.4,0.5,2.9,1.1,2.9,2.9v0c0,2.1-1.6,3.1-3.7,3.1C1138.1,645.1,1136.5,644.6,1135.3,643.6z"/>
						<path fill="#FFFFFF" d="M1145.1,631.7h2.7v4.9c0.6-0.8,1.4-1.5,2.8-1.5c2.1,0,3.3,1.4,3.3,3.6v6.2h-2.7v-5.4
							c0-1.3-0.6-2-1.7-2s-1.7,0.7-1.7,2v5.4h-2.7V631.7z"/>
					</g>
				</g>
				<g>
					<g>
						<g>
							<path fill="#FFFFFF" d="M1130.7,585.2c-1,0-2-0.4-2.8-1.1c-1.5-1.5-1.5-4,0-5.5l13.6-13.6l-13.6-13.6c-1.5-1.5-1.5-4,0-5.5
								c1.5-1.5,4-1.5,5.5,0l16.3,16.3c1.5,1.5,1.5,4,0,5.5l-16.3,16.3C1132.7,584.8,1131.7,585.2,1130.7,585.2L1130.7,585.2z"/>
						</g>
						<g>
							<path fill="#FFFFFF" d="M1095.4,568.9c-2.1,0-3.9-1.7-3.9-3.9c0-2.1,1.7-3.9,3.9-3.9l47.2,0c2.2,0,3.9,1.7,3.9,3.9
								c0,2.1-1.7,3.9-3.9,3.9L1095.4,568.9L1095.4,568.9z"/>
						</g>
					</g>
					<g>
						<path fill="#FFFFFF" d="M1163.7,611.4h-85c-2.2,0-3.9-1.7-3.9-3.9v-85c0-2.2,1.7-3.9,3.9-3.9h85c2.2,0,3.9,1.7,3.9,3.9v85
							C1167.6,609.6,1165.9,611.4,1163.7,611.4L1163.7,611.4z M1082.6,603.6h77.2v-77.2h-77.2V603.6L1082.6,603.6z"/>
					</g>
				</g>
			</g>
			<g>
				<g>
					<rect x="860" y="668.2" fill="#FBBB54" width="169.2" height="169.2"/>
					<g>
						<path fill="#FFFFFF" d="M906.5,814.4h2.7v1.9c0.6-1.3,1.5-2.2,3.1-2.1v2.9h-0.1c-1.8,0-2.9,1.1-2.9,3.4v3.6h-2.7V814.4z"/>
						<path fill="#FFFFFF" d="M913.3,819.3L913.3,819.3c0-2.8,2-5.1,4.8-5.1c3.2,0,4.7,2.5,4.7,5.2c0,0.2,0,0.5,0,0.7H916
							c0.3,1.2,1.1,1.9,2.4,1.9c0.9,0,1.6-0.3,2.3-1l1.6,1.4c-0.9,1.1-2.2,1.8-3.9,1.8C915.4,824.3,913.3,822.2,913.3,819.3z
							 M920.1,818.5c-0.2-1.2-0.9-2.1-2-2.1c-1.1,0-1.9,0.8-2.1,2.1H920.1z"/>
						<path fill="#FFFFFF" d="M924.8,810.9h2.7v4.9c0.6-0.8,1.4-1.5,2.8-1.5c2.1,0,3.3,1.4,3.3,3.6v6.2h-2.7v-5.4c0-1.3-0.6-2-1.7-2
							c-1,0-1.7,0.7-1.7,2v5.4h-2.7V810.9z"/>
						<path fill="#FFFFFF" d="M935.5,819.3L935.5,819.3c0-2.8,2-5.1,4.8-5.1c3.2,0,4.7,2.5,4.7,5.2c0,0.2,0,0.5,0,0.7h-6.7
							c0.3,1.2,1.1,1.9,2.4,1.9c0.9,0,1.6-0.3,2.3-1l1.6,1.4c-0.9,1.1-2.2,1.8-3.9,1.8C937.7,824.3,935.5,822.2,935.5,819.3z
							 M942.3,818.5c-0.2-1.2-0.9-2.1-2-2.1c-1.1,0-1.9,0.8-2.1,2.1H942.3z"/>
						<path fill="#FFFFFF" d="M946.4,821.3L946.4,821.3c0-2.1,1.6-3.1,3.9-3.1c1,0,1.7,0.2,2.4,0.4v-0.2c0-1.1-0.7-1.8-2.1-1.8
							c-1,0-1.8,0.2-2.7,0.5l-0.7-2.1c1.1-0.5,2.1-0.8,3.7-0.8c1.5,0,2.6,0.4,3.3,1.1c0.7,0.7,1,1.8,1,3.1v5.6h-2.6v-1
							c-0.7,0.7-1.6,1.2-2.9,1.2C947.9,824.2,946.4,823.2,946.4,821.3z M952.7,820.7v-0.5c-0.5-0.2-1.1-0.4-1.7-0.4
							c-1.2,0-1.9,0.5-1.9,1.3v0c0,0.7,0.6,1.2,1.5,1.2C951.9,822.3,952.7,821.6,952.7,820.7z"/>
						<path fill="#FFFFFF" d="M957.7,814.4h2.7v1.9c0.6-1.3,1.5-2.2,3.1-2.1v2.9h-0.1c-1.8,0-2.9,1.1-2.9,3.4v3.6h-2.7V814.4z"/>
						<path fill="#FFFFFF" d="M964.4,822.8l1.2-1.8c1,0.8,2.1,1.2,3,1.2c0.8,0,1.2-0.3,1.2-0.7v0c0-0.6-0.9-0.8-2-1.1
							c-1.4-0.4-2.9-1-2.9-2.9v0c0-2,1.6-3.1,3.5-3.1c1.2,0,2.6,0.4,3.6,1.1l-1,1.9c-1-0.6-1.9-0.9-2.6-0.9c-0.7,0-1,0.3-1,0.7v0
							c0,0.5,0.9,0.8,2,1.2c1.4,0.5,2.9,1.1,2.9,2.9v0c0,2.1-1.6,3.1-3.7,3.1C967.2,824.2,965.7,823.8,964.4,822.8z"/>
						<path fill="#FFFFFF" d="M973.8,819.3L973.8,819.3c0-2.8,2-5.1,4.8-5.1c3.2,0,4.7,2.5,4.7,5.2c0,0.2,0,0.5,0,0.7h-6.7
							c0.3,1.2,1.1,1.9,2.4,1.9c0.9,0,1.6-0.3,2.3-1l1.6,1.4c-0.9,1.1-2.2,1.8-3.9,1.8C975.9,824.3,973.8,822.2,973.8,819.3z
							 M980.6,818.5c-0.2-1.2-0.9-2.1-2-2.1c-1.1,0-1.9,0.8-2.1,2.1H980.6z"/>
					</g>
				</g>
				<g>
					<g>
						<g>
							<path fill="#FFFFFF" d="M928.1,763.6c-0.6,0-1.2-0.2-1.7-0.7l-6.4-6.2c-1-1-1-2.5-0.1-3.5c0.9-1,2.5-1,3.5-0.1l6.4,6.2
								c1,1,1,2.5,0.1,3.5C929.4,763.3,928.8,763.6,928.1,763.6L928.1,763.6z"/>
						</g>
						<g>
							<path fill="#FFFFFF" d="M938.7,762.6c-0.6,0-1.3-0.2-1.8-0.7c-1-1-1-2.5,0-3.5l23.1-23.1c0.4-0.4,0.9-0.7,1.5-0.7l9.8-1
								c1.4-0.1,2.6,0.8,2.7,2.2c0.1,1.4-0.8,2.6-2.2,2.7l-8.9,0.9l-22.5,22.5C939.9,762.4,939.3,762.6,938.7,762.6L938.7,762.6z"/>
						</g>
						<g>
							<path fill="#FFFFFF" d="M933.3,756.6c-0.7,0-1.3-0.3-1.8-0.7l-14.6-14.6c-0.5-0.5-0.7-1.1-0.7-1.8c0-0.7,0.3-1.3,0.7-1.8
								l14.6-14.6c1-1,2.5-1,3.5,0l14.6,14.6c1,1,1,2.5,0,3.5L935,755.8C934.6,756.3,933.9,756.6,933.3,756.6L933.3,756.6z
								 M922.2,739.5l11.1,11.1l11.1-11.1l-11.1-11.1L922.2,739.5L922.2,739.5z"/>
						</g>
						<g>
							<polygon fill="#FFFFFF" points="936.8,739.5 933.3,736 938.8,730.4 942.3,733.9 936.8,739.5 							"/>
						</g>
						<g>
							<path fill="#FFFFFF" d="M933.5,773.1c-2.1,0-4.1-0.8-5.6-2.3c-1.5-1.5-2.3-3.5-2.3-5.6s0.8-4.1,2.3-5.6c3-3,8.2-3,11.1,0
								c1.5,1.5,2.3,3.5,2.3,5.6s-0.8,4.1-2.3,5.6C937.6,772.3,935.6,773.1,933.5,773.1L933.5,773.1z M933.5,762.3
								c-0.8,0-1.5,0.3-2.1,0.9c-0.6,0.6-0.9,1.3-0.9,2.1c0,0.8,0.3,1.5,0.9,2.1c1.1,1.1,3,1.1,4.1,0c1.1-1.1,1.1-3,0-4.1
								C935,762.6,934.3,762.3,933.5,762.3L933.5,762.3z"/>
						</g>
					</g>
					<g>
						<path fill="#FFFFFF" d="M986.2,793h-85.3c-2.2,0-3.9-1.7-3.9-3.9v-85.3c0-2.2,1.7-3.9,3.9-3.9h85.3c2.2,0,3.9,1.7,3.9,3.9
							v85.3C990.1,791.2,988.4,793,986.2,793L986.2,793z M904.8,785.2h77.5v-77.5h-77.5V785.2L904.8,785.2z"/>
					</g>
				</g>
			</g>
			<g>
				<g>
					<rect x="1037" y="668.1" fill="#FBBB54" width="169.2" height="169.2"/>
					<g>
						<path fill="#FFFFFF" d="M1091,819.2L1091,819.2c0-3.3,2.1-5,4.4-5c1.5,0,2.4,0.7,3,1.4v-4.8h2.7V824h-2.7v-1.4
							c-0.7,0.9-1.6,1.6-3,1.6C1093.1,824.2,1091,822.4,1091,819.2z M1098.4,819.2L1098.4,819.2c0-1.6-1.1-2.7-2.3-2.7
							s-2.4,1-2.4,2.7v0c0,1.6,1.1,2.7,2.4,2.7S1098.4,820.8,1098.4,819.2z"/>
						<path fill="#FFFFFF" d="M1103.1,819.2L1103.1,819.2c0-2.8,2-5.1,4.8-5.1c3.2,0,4.7,2.5,4.7,5.2c0,0.2,0,0.5,0,0.7h-6.7
							c0.3,1.2,1.1,1.9,2.4,1.9c0.9,0,1.6-0.3,2.3-1l1.6,1.4c-0.9,1.1-2.2,1.8-3.9,1.8C1105.2,824.2,1103.1,822.2,1103.1,819.2z
							 M1109.9,818.4c-0.2-1.2-0.9-2.1-2-2.1c-1.1,0-1.9,0.8-2.1,2.1H1109.9z"/>
						<path fill="#FFFFFF" d="M1114.7,810.8h2.7V824h-2.7V810.8z"/>
						<path fill="#FFFFFF" d="M1120.1,810.8h2.9v2.4h-2.9V810.8z M1120.2,814.3h2.7v9.7h-2.7V814.3z"/>
						<path fill="#FFFFFF" d="M1124.6,814.3h2.9l2.2,6.5l2.2-6.5h2.8l-3.8,9.7h-2.5L1124.6,814.3z"/>
						<path fill="#FFFFFF" d="M1135.3,819.2L1135.3,819.2c0-2.8,2-5.1,4.8-5.1c3.2,0,4.7,2.5,4.7,5.2c0,0.2,0,0.5,0,0.7h-6.7
							c0.3,1.2,1.1,1.9,2.4,1.9c0.9,0,1.6-0.3,2.3-1l1.6,1.4c-0.9,1.1-2.2,1.8-3.9,1.8C1137.4,824.2,1135.3,822.2,1135.3,819.2z
							 M1142.1,818.4c-0.2-1.2-0.9-2.1-2-2.1c-1.1,0-1.9,0.8-2.1,2.1H1142.1z"/>
						<path fill="#FFFFFF" d="M1146.8,814.3h2.7v1.9c0.6-1.3,1.5-2.2,3.1-2.1v2.9h-0.1c-1.8,0-2.9,1.1-2.9,3.4v3.6h-2.7V814.3z"/>
					</g>
				</g>
				<g>
					<g>
						<path fill="#FFFFFF" d="M1162.4,792.7h-85.3c-2.2,0-3.9-1.7-3.9-3.9v-85.3c0-2.2,1.7-3.9,3.9-3.9h85.3c2.2,0,3.9,1.7,3.9,3.9
							v85.3C1166.3,791,1164.6,792.7,1162.4,792.7L1162.4,792.7z M1081,784.9h77.5v-77.5H1081V784.9L1081,784.9z"/>
					</g>
					<path fill="#FFFFFF" d="M1092.4,717.8v55.8h55.3v-55.8H1092.4z M1120.1,727.2c4.2,0,8,1.4,11.1,3.7l-1.9,2.6
						c-2.6-1.9-5.8-3.1-9.2-3.1c-6.5,0-12.2,4.1-14.4,9.9l-2.9-1.2C1105.5,732.2,1112.2,727.2,1120.1,727.2z M1108.2,746
						c0,5.1,3.1,9.4,7.5,11.2l-1.2,2.9c-2.8-1.1-5.1-3.1-6.8-5.5c-1.7-2.4-2.7-5.4-2.7-8.6H1108.2z M1106.1,740.5
						c1.1-2.8,3-5.3,5.5-7c2.4-1.7,5.4-2.7,8.6-2.7v3.2c-5.1,0-9.4,3.2-11.1,7.7L1106.1,740.5z M1108.6,746
						c0-6.4,5.2-11.6,11.5-11.6c5.6,0,10.2,4,11.3,9.3h-3.2c-1-3.5-4.2-6.1-8.1-6.1c-4.6,0-8.4,3.8-8.4,8.5s3.8,8.5,8.4,8.5
						c3.8,0,7-2.6,8.1-6.1h3.2c-1.1,5.3-5.7,9.3-11.3,9.3C1113.8,757.6,1108.6,752.4,1108.6,746z M1124.2,743.7
						c-0.5-0.9-1.4-1.6-2.3-2l1.2-3.1c2.3,0.9,4,2.8,4.8,5.2H1124.2z M1127.8,748.3c-0.7,2.4-2.5,4.3-4.8,5.2l-1.2-3.1
						c1-0.4,1.8-1.1,2.3-2H1127.8z M1115.5,746c0,0.7,0.1,1.3,0.4,1.9l-3.1,1.4c-0.4-1-0.7-2.1-0.7-3.2c0-4.4,3.6-8.1,8-8.1v3.4
						C1117.6,741.3,1115.5,743.4,1115.5,746z M1120.1,750.7v3.4c-2.2,0-4.2-0.9-5.7-2.4l2.4-2.4
						C1117.7,750.2,1118.9,750.7,1120.1,750.7z M1120.1,758c5.8,0,10.6-4.2,11.7-9.7h3.2c-1.1,7.3-7.4,12.8-14.9,12.8V758z
						 M1131.8,743.7c-0.8-4.1-3.6-7.4-7.4-8.9l1.1-3c4.9,1.9,8.6,6.4,9.4,11.8H1131.8z M1103.1,753.6c-0.3-0.7-0.6-1.4-0.8-2.1
						c0-0.1,0-0.1,0-0.2c0-0.1-0.1-0.3-0.1-0.4c0-0.1,0-0.2-0.1-0.3c0-0.1-0.1-0.2-0.1-0.3c0-0.1-0.1-0.3-0.1-0.4
						c0-0.1,0-0.2-0.1-0.3c0-0.2-0.1-0.3-0.1-0.5c0-0.1,0-0.1,0-0.2c0-0.2-0.1-0.4-0.1-0.6c0,0,0,0,0,0c-0.1-0.7-0.1-1.5-0.1-2.3
						h3.2c0,0.7,0,1.4,0.1,2.1c0,0.1,0,0.2,0,0.3c0,0.1,0,0.2,0.1,0.4c0,0.1,0,0.1,0,0.2c0,0.1,0.1,0.3,0.1,0.4c0,0,0,0.1,0,0.1
						c0,0.2,0.1,0.3,0.1,0.5c0,0,0,0,0,0c0,0.2,0.1,0.4,0.2,0.5c0.2,0.6,0.4,1.2,0.6,1.8L1103.1,753.6z M1120.1,764.8
						c-5.1,0-9.8-2.1-13.2-5.5l2.2-2.3c2.8,2.8,6.7,4.6,10.9,4.6c7.7,0,14.2-5.8,15.3-13.2h3.2
						C1137.5,757.6,1129.6,764.8,1120.1,764.8z M1135.4,743.7c-0.3-2.1-1.1-4.1-2.2-5.9l2.7-1.7c1.4,2.3,2.3,4.8,2.7,7.6H1135.4z"/>
				</g>
			</g>
		</g>
	</g>
	<g>
		<g>
			<rect x="489.7" y="489" fill="#F08921" width="169.2" height="169.2"/>
			<g>
				<path fill="#FFFFFF" d="M513.6,638.6L513.6,638.6c0-3.6,2.7-6.6,6.6-6.6c2.4,0,3.8,0.8,5,1.9l-1.8,2c-1-0.9-2-1.4-3.2-1.4
					c-2.1,0-3.7,1.8-3.7,3.9v0c0,2.2,1.5,4,3.7,4c1.4,0,2.3-0.6,3.3-1.5l1.8,1.8c-1.3,1.4-2.7,2.3-5.2,2.3
					C516.3,645.1,513.6,642.3,513.6,638.6z"/>
				<path fill="#FFFFFF" d="M527.1,631.8h2.7v4.9c0.6-0.8,1.4-1.5,2.8-1.5c2.1,0,3.3,1.4,3.3,3.6v6.2h-2.7v-5.4c0-1.3-0.6-2-1.7-2
					c-1,0-1.7,0.7-1.7,2v5.4h-2.7V631.8z"/>
				<path fill="#FFFFFF" d="M537.9,640.1L537.9,640.1c0-2.8,2-5.1,4.8-5.1c3.2,0,4.7,2.5,4.7,5.2c0,0.2,0,0.5,0,0.7h-6.7
					c0.3,1.2,1.1,1.9,2.4,1.9c0.9,0,1.6-0.3,2.3-1l1.6,1.4c-0.9,1.1-2.2,1.8-3.9,1.8C540,645.1,537.9,643.1,537.9,640.1z
					 M544.7,639.3c-0.2-1.2-0.9-2.1-2-2.1c-1.1,0-1.9,0.8-2.1,2.1H544.7z"/>
				<path fill="#FFFFFF" d="M549.8,637.6h-1.1v-2.3h1.1v-0.6c0-1.1,0.3-1.8,0.8-2.3c0.5-0.5,1.2-0.8,2.2-0.8c0.9,0,1.4,0.1,1.9,0.3
					v2.3c-0.4-0.1-0.8-0.2-1.2-0.2c-0.6,0-1,0.3-1,1v0.4h2.2v2.2h-2.2v7.3h-2.7V637.6z"/>
				<path fill="#FFFFFF" d="M561.9,632.3h4.9c4,0,6.7,2.7,6.7,6.3v0c0,3.5-2.7,6.3-6.7,6.3h-4.9V632.3z M566.8,642.4
					c2.3,0,3.8-1.5,3.8-3.8v0c0-2.2-1.5-3.8-3.8-3.8h-2.1v7.6H566.8z"/>
				<path fill="#FFFFFF" d="M575.3,640.1L575.3,640.1c0-2.8,2-5.1,4.8-5.1c3.2,0,4.7,2.5,4.7,5.2c0,0.2,0,0.5,0,0.7H578
					c0.3,1.2,1.1,1.9,2.4,1.9c0.9,0,1.6-0.3,2.3-1l1.6,1.4c-0.9,1.1-2.2,1.8-3.9,1.8C577.4,645.1,575.3,643.1,575.3,640.1z
					 M582.1,639.3c-0.2-1.2-0.9-2.1-2-2.1c-1.1,0-1.9,0.8-2.1,2.1H582.1z"/>
				<path fill="#FFFFFF" d="M586.9,631.8h2.7v13.1h-2.7V631.8z"/>
				<path fill="#FFFFFF" d="M592.2,631.8h2.9v2.4h-2.9V631.8z M592.3,635.3h2.7v9.7h-2.7V635.3z"/>
				<path fill="#FFFFFF" d="M596.8,635.3h2.9l2.2,6.5l2.2-6.5h2.8L603,645h-2.5L596.8,635.3z"/>
				<path fill="#FFFFFF" d="M607.4,640.1L607.4,640.1c0-2.8,2-5.1,4.8-5.1c3.2,0,4.7,2.5,4.7,5.2c0,0.2,0,0.5,0,0.7h-6.7
					c0.3,1.2,1.1,1.9,2.4,1.9c0.9,0,1.6-0.3,2.3-1l1.6,1.4c-0.9,1.1-2.2,1.8-3.9,1.8C609.6,645.1,607.4,643.1,607.4,640.1z
					 M614.2,639.3c-0.2-1.2-0.9-2.1-2-2.1c-1.1,0-1.9,0.8-2.1,2.1H614.2z"/>
				<path fill="#FFFFFF" d="M618.9,635.3h2.7v1.9c0.6-1.3,1.5-2.2,3.1-2.1v2.9h-0.1c-1.8,0-2.9,1.1-2.9,3.4v3.6h-2.7V635.3z"/>
				<path fill="#FFFFFF" d="M626.3,647.2l0.9-2c0.4,0.2,0.8,0.4,1.2,0.4c0.5,0,0.7-0.1,1-0.6l-3.8-9.7h2.9l2.2,6.6l2.1-6.6h2.8
					l-3.7,9.9c-0.7,2-1.5,2.7-3.2,2.7C627.8,647.8,627,647.6,626.3,647.2z"/>
			</g>
		</g>
		<g>
			<g>
				<path fill="#FFFFFF" d="M575.7,583.8c-9.7,0-17.6-7.9-17.6-17.6c0-9.7,7.9-17.6,17.6-17.6c8,0,14.8,5.4,16.9,12.7h6.8
					c-2.3-11-12-19.3-23.7-19.3c-13.3,0-24.2,10.9-24.2,24.2c0,13.3,10.9,24.2,24.2,24.2c11.7,0,21.4-8.3,23.7-19.3h-6.8
					C590.5,578.4,583.7,583.8,575.7,583.8"/>
				<path fill="#FFFFFF" d="M563.8,578c3,3,7.2,4.9,11.9,4.9v-7c-2.7,0-5.1-1.1-6.9-2.9L563.8,578z"/>
				<path fill="#FFFFFF" d="M558.9,566.2c0,2.4,0.5,4.7,1.4,6.8l6.4-2.8c-0.5-1.2-0.8-2.5-0.8-3.9c0-5.4,4.4-9.8,9.8-9.8v-7
					C566.4,549.4,558.9,556.9,558.9,566.2"/>
				<path fill="#FFFFFF" d="M581.8,550.5l-2.5,6.5c2.1,0.8,3.8,2.3,4.9,4.2h7.6C590.2,556.4,586.5,552.4,581.8,550.5"/>
				<path fill="#FFFFFF" d="M579.2,575.3l2.5,6.5c4.8-1.9,8.5-5.8,10-10.8h-7.6C583,573,581.3,574.5,579.2,575.3"/>
				<path fill="#FFFFFF" d="M544.6,575.6c-0.1-0.4-0.2-0.7-0.3-1.1c0,0,0,0,0-0.1c-0.1-0.3-0.2-0.7-0.3-1c0-0.1,0-0.1,0-0.2
					c-0.1-0.3-0.1-0.6-0.2-0.9c0-0.1,0-0.3-0.1-0.4c0-0.2-0.1-0.5-0.1-0.7c0-0.2-0.1-0.4-0.1-0.6c-0.2-1.4-0.3-2.9-0.3-4.3h-6.6
					c0,1.6,0.1,3.2,0.3,4.7h0c0,0,0,0.1,0,0.1c0.1,0.4,0.1,0.8,0.2,1.3c0,0.1,0,0.2,0.1,0.3c0.1,0.3,0.1,0.7,0.2,1
					c0,0.2,0.1,0.4,0.1,0.5c0.1,0.3,0.1,0.5,0.2,0.8c0.1,0.2,0.1,0.5,0.2,0.7c0.1,0.2,0.1,0.4,0.2,0.6c0.1,0.3,0.2,0.6,0.2,0.8
					c0,0.1,0.1,0.2,0.1,0.3l0,0c0.5,1.5,1,3,1.6,4.4l6.1-2.7C545.5,578,545,576.8,544.6,575.6z"/>
				<path fill="#FFFFFF" d="M575.7,598.6c-8.9,0-17.1-3.6-22.9-9.5l-4.7,4.7c7.1,7.1,16.8,11.4,27.6,11.4
					c19.9,0,36.4-14.9,38.8-34.2h-6.7C605.4,586.6,591.9,598.6,575.7,598.6"/>
				<path fill="#FFFFFF" d="M575.7,533.7c7.3,0,14,2.4,19.4,6.5l4-5.3c-6.5-4.9-14.6-7.8-23.4-7.8c-16.6,0-30.7,10.3-36.4,24.9
					l6.2,2.4C550.2,542.3,561.9,533.7,575.7,533.7"/>
				<path fill="#FFFFFF" d="M607.8,561.3h6.7c-0.7-5.7-2.7-11.1-5.6-15.8l-5.6,3.5C605.5,552.7,607.1,556.8,607.8,561.3"/>
				<path fill="#FFFFFF" d="M600.2,561.3h6.7c-1.8-11.3-9.5-20.6-19.8-24.6l-2.4,6.2C592.6,545.9,598.5,552.9,600.2,561.3"/>
				<path fill="#FFFFFF" d="M575.7,541.2L575.7,541.2l0-6.6h0c-13.4,0-24.9,8.4-29.5,20.2l6.2,2.4
					C556,547.8,565.1,541.2,575.7,541.2"/>
				<path fill="#FFFFFF" d="M550.7,566.2L550.7,566.2l-6.6,0v0c0,13.3,8.2,24.7,19.9,29.4l2.5-6.1
					C557.2,585.7,550.7,576.7,550.7,566.2"/>
				<path fill="#FFFFFF" d="M575.7,591.2v6.6c15.8,0,28.9-11.6,31.2-26.7h-6.7C597.9,582.5,587.8,591.2,575.7,591.2"/>
			</g>
			<rect x="522.3" y="513.9" fill="none" stroke="#FFFFFF" stroke-width="4" stroke-miterlimit="10" width="105.2" height="104.7"/>
		</g>
	</g>
</g>
<g>
	<g>
		<rect x="843.9" y="252" fill="#FCB716" width="169.2" height="169.2"/>
		<g>
			<path fill="#FFFFFF" d="M906.6,395.2h5.8c1.6,0,2.8,0.4,3.7,1.3c0.7,0.7,1.1,1.7,1.1,2.9v0c0,2-1.1,3.3-2.7,3.9l3.1,4.5h-3.2
				l-2.7-4h0h-2.1v4h-2.8V395.2z M912.2,401.4c1.4,0,2.1-0.7,2.1-1.8v0c0-1.2-0.8-1.8-2.2-1.8h-2.8v3.6H912.2z"/>
			<path fill="#FFFFFF" d="M919.3,404.4v-6.2h2.7v5.4c0,1.3,0.6,2,1.7,2c1,0,1.7-0.7,1.7-2v-5.4h2.7v9.7h-2.7v-1.4
				c-0.6,0.8-1.4,1.5-2.8,1.5C920.5,408,919.3,406.7,919.3,404.4z"/>
			<path fill="#FFFFFF" d="M933.3,406.6v1.3h-2.7v-13.1h2.7v4.9c0.7-0.9,1.6-1.6,3-1.6c2.3,0,4.4,1.8,4.4,5v0c0,3.2-2.1,5-4.4,5
				C934.9,408,934,407.4,933.3,406.6z M938,403L938,403c0-1.6-1.1-2.7-2.4-2.7s-2.3,1.1-2.3,2.7v0c0,1.6,1.1,2.7,2.3,2.7
				S938,404.7,938,403z"/>
			<path fill="#FFFFFF" d="M942.1,410.1l0.9-2c0.4,0.2,0.8,0.4,1.2,0.4c0.5,0,0.7-0.1,1-0.6l-3.8-9.7h2.9l2.2,6.6l2.1-6.6h2.8
				l-3.7,9.9c-0.7,2-1.5,2.7-3.2,2.7C943.6,410.8,942.8,410.5,942.1,410.1z"/>
		</g>
	</g>
	<g>
		<g>
			<path fill="#FFFFFF" d="M892.7,363.7c-0.6-0.8-1.2-1.9-1-3l10-70.4c0.3-1.9,2-3.2,3.9-3l27.7,2.7c0.8,0.1,1.6,0.4,2.2,1
				l30.4,30.4c0.6,0.6,0.9,1.4,1,2.2l2.7,27.7c0.2,1.9-1.2,3.6-3.1,3.9l-70.8,9.6C894.6,364.9,893.5,364.5,892.7,363.7L892.7,363.7z
				 M908.2,294.7l-8.8,62.3l62.7-8.5l-2.3-23L931.2,297L908.2,294.7L908.2,294.7z"/>
		</g>
		<g>
			<path fill="#FFFFFF" d="M964.7,352.9l-60.8-60.8c-0.5-0.5-0.7-1.3-0.3-2c0.3-0.7,1-1.1,1.8-1l27.7,2.7c0.4,0,0.8,0.2,1.1,0.5
				l30.4,30.4c0.3,0.3,0.5,0.7,0.5,1.1l2.7,27.7c0.1,0.7-0.3,1.5-1,1.8C966.1,353.6,965.3,353.4,964.7,352.9L964.7,352.9z
				 M910,293.1l53.7,53.7l-2.2-22.1l-29.5-29.5L910,293.1L910,293.1z"/>
		</g>
		<g>
			<path fill="#FFFFFF" d="M893.8,363c-0.6-0.6-0.7-1.4-0.3-2.1l37.5-67c0.5-0.9,1.6-1.2,2.4-0.7c0.9,0.5,1.2,1.6,0.7,2.4
				l-34.4,61.5l61.5-34.4c0.9-0.5,1.9-0.2,2.4,0.7c0.5,0.9,0.2,1.9-0.7,2.4l-67,37.5C895.3,363.7,894.4,363.6,893.8,363L893.8,363z"
				/>
		</g>
		<g>
			<path fill="#FFFFFF" d="M934.4,322.4c-0.3-0.3-0.5-0.6-0.5-1.1l-3.1-26.4c-0.1-1,0.6-1.9,1.6-2c1-0.1,1.9,0.6,2,1.6l2.9,25
				l25,2.9c1,0.1,1.7,1,1.6,2c-0.1,1-1,1.7-2,1.6l-26.4-3.1C935.1,322.9,934.7,322.7,934.4,322.4L934.4,322.4z"/>
		</g>
		<g>
			<path fill="#FFFFFF" d="M963.1,350.9c-0.1-0.1-0.2-0.3-0.3-0.4L944,312.8L906.4,294c-0.8-0.4-1.1-1.4-0.7-2.2
				c0.4-0.8,1.4-1.1,2.2-0.7l38.1,19c0.3,0.2,0.6,0.4,0.7,0.7l19,38.2c0.4,0.8,0.1,1.8-0.7,2.2C964.3,351.5,963.6,351.4,963.1,350.9
				L963.1,350.9z"/>
		</g>
	</g>
</g>
<rect x="833.7" y="1" fill="#D1D3D4" width="188.9" height="190.1"/>
<g>
	<g>
		<rect x="843.3" y="11.3" fill="#FCB716" width="169.2" height="169.2"/>
		<g>
			<path fill="#FFFFFF" d="M884.5,157.6h2.7v1.9c0.6-1.3,1.5-2.2,3.1-2.1v2.9h-0.1c-1.8,0-2.9,1.1-2.9,3.4v3.6h-2.7V157.6z"/>
			<path fill="#FFFFFF" d="M891.3,162.4L891.3,162.4c0-2.8,2-5.1,4.8-5.1c3.2,0,4.7,2.5,4.7,5.2c0,0.2,0,0.5,0,0.7h-6.7
				c0.3,1.2,1.1,1.9,2.4,1.9c0.9,0,1.6-0.3,2.3-1l1.6,1.4c-0.9,1.1-2.2,1.8-3.9,1.8C893.5,167.4,891.3,165.4,891.3,162.4z
				 M898.1,161.6c-0.2-1.2-0.9-2.1-2-2.1c-1.1,0-1.9,0.8-2.1,2.1H898.1z"/>
			<path fill="#FFFFFF" d="M902.4,162.4L902.4,162.4c0-2.8,2.1-5.1,5.1-5.1c1.8,0,3,0.6,3.9,1.6l-1.7,1.8c-0.6-0.6-1.2-1.1-2.2-1.1
				c-1.4,0-2.3,1.2-2.3,2.6v0c0,1.5,1,2.7,2.4,2.7c0.9,0,1.5-0.4,2.2-1l1.6,1.6c-0.9,1-2,1.8-3.9,1.8
				C904.5,167.4,902.4,165.2,902.4,162.4z"/>
			<path fill="#FFFFFF" d="M913.2,154.1h2.9v2.4h-2.9V154.1z M913.2,157.6h2.7v9.7h-2.7V157.6z"/>
			<path fill="#FFFFFF" d="M918.5,157.6h2.7v1.4c0.7-0.9,1.6-1.6,3-1.6c2.3,0,4.4,1.8,4.4,5v0c0,3.2-2.1,5-4.4,5
				c-1.5,0-2.4-0.7-3-1.4v4.1h-2.7V157.6z M925.9,162.4L925.9,162.4c0-1.6-1.1-2.7-2.4-2.7s-2.3,1.1-2.3,2.7v0
				c0,1.6,1.1,2.7,2.3,2.7S925.9,164,925.9,162.4z"/>
			<path fill="#FFFFFF" d="M930.2,162.4L930.2,162.4c0-2.8,2-5.1,4.8-5.1c3.2,0,4.7,2.5,4.7,5.2c0,0.2,0,0.5,0,0.7h-6.7
				c0.3,1.2,1.1,1.9,2.4,1.9c0.9,0,1.6-0.3,2.3-1l1.6,1.4c-0.9,1.1-2.2,1.8-3.9,1.8C932.4,167.4,930.2,165.4,930.2,162.4z
				 M937,161.6c-0.2-1.2-0.9-2.1-2-2.1c-1.1,0-1.9,0.8-2.1,2.1H937z"/>
			<path fill="#FFFFFF" d="M946.7,162.4L946.7,162.4c0-3.3,2.1-5,4.4-5c1.5,0,2.4,0.7,3,1.4v-4.8h2.7v13.1h-2.7v-1.4
				c-0.7,0.9-1.6,1.6-3,1.6C948.8,167.4,946.7,165.6,946.7,162.4z M954.1,162.4L954.1,162.4c0-1.6-1.1-2.7-2.3-2.7s-2.4,1-2.4,2.7v0
				c0,1.6,1.1,2.7,2.4,2.7S954.1,164,954.1,162.4z"/>
			<path fill="#FFFFFF" d="M958.5,165.9l1.2-1.8c1,0.8,2.1,1.2,3,1.2c0.8,0,1.2-0.3,1.2-0.7v0c0-0.6-0.9-0.8-2-1.1
				c-1.4-0.4-2.9-1-2.9-2.9v0c0-2,1.6-3.1,3.5-3.1c1.2,0,2.6,0.4,3.6,1.1l-1,1.9c-1-0.6-1.9-0.9-2.6-0.9c-0.7,0-1,0.3-1,0.7v0
				c0,0.5,0.9,0.8,2,1.2c1.3,0.5,2.9,1.1,2.9,2.9v0c0,2.1-1.6,3.1-3.7,3.1C961.3,167.4,959.8,166.9,958.5,165.9z"/>
			<path fill="#FFFFFF" d="M968.4,154.1h2.7v13.1h-2.7V154.1z"/>
		</g>
	</g>
	<g>
		<path fill="#FFFFFF" d="M918.2,42.1c2.8,0,6.2,4.5,9.2,4.5s6.3-4.5,9.2-4.5c0.2,0,0.4,0,0.5,0.1c3,0.7,4.1,6.9,6.8,8.2
			c0.5,0.3,1.2,0.4,1.9,0.4c2,0,4.5-0.8,6.5-0.8c0.9,0,1.7,0.2,2.3,0.6c2.4,1.9,0.7,8,2.6,10.4c1.9,2.4,8.2,2,9.5,4.8
			c1.3,2.7-2.9,7.4-2.2,10.5c0.7,2.9,6.5,5.4,6.5,8.5s-5.8,5.6-6.5,8.5c-0.7,3,3.5,7.7,2.2,10.5c-1.3,2.8-7.6,2.4-9.5,4.8
			c-1.9,2.4-0.2,8.5-2.6,10.4c-0.6,0.5-1.4,0.6-2.3,0.6c-2,0-4.5-0.8-6.5-0.8c-0.7,0-1.3,0.1-1.9,0.4c-2.7,1.3-3.8,7.5-6.8,8.2
			c-0.2,0-0.4,0.1-0.5,0.1c-2.8,0-6.2-4.5-9.2-4.5s-6.3,4.5-9.2,4.5c-0.2,0-0.4,0-0.5-0.1c-3-0.7-4.1-6.9-6.8-8.2
			c-0.5-0.3-1.2-0.4-1.9-0.4c-2,0-4.5,0.8-6.5,0.8c-0.9,0-1.7-0.2-2.3-0.6c-2.4-1.9-0.7-8-2.6-10.4c-1.9-2.4-8.2-2-9.5-4.8
			c-1.3-2.7,2.9-7.4,2.2-10.5c-0.7-2.9-6.5-5.4-6.5-8.5s5.8-5.6,6.5-8.5c0.7-3-3.5-7.7-2.2-10.5c1.3-2.8,7.6-2.4,9.5-4.8
			c1.9-2.4,0.2-8.5,2.6-10.4c0.6-0.5,1.4-0.6,2.3-0.6c2,0,4.5,0.8,6.5,0.8c0.7,0,1.3-0.1,1.9-0.4c2.7-1.3,3.8-7.5,6.8-8.2
			C917.8,42.1,918,42.1,918.2,42.1 M918.2,33.7c-0.8,0-1.6,0.1-2.4,0.3c-5.1,1.2-7.5,5.3-9,8c-1.3-0.2-2.7-0.4-4.3-0.4
			c-3,0-5.5,0.8-7.6,2.5c-4.1,3.2-4.5,8-4.6,11.1c-3,0.8-7.6,2.3-9.8,7c-2.3,4.7-0.5,9.2,0.6,12c-2.3,2.1-5.8,5.4-5.8,10.6
			c0,5.2,3.5,8.5,5.8,10.6c-1.2,2.8-2.9,7.4-0.6,12c2.2,4.7,6.8,6.1,9.8,7c0.2,3.1,0.6,7.9,4.6,11.1c2.1,1.6,4.6,2.5,7.6,2.5
			c1.5,0,3-0.2,4.3-0.4c1.5,2.7,4,6.9,9.1,8c0.8,0.2,1.6,0.3,2.4,0.3c4,0,7-2,9.2-3.6c2.2,1.6,5.2,3.6,9.2,3.6
			c0.8,0,1.6-0.1,2.4-0.3c5.1-1.1,7.5-5.3,9-8c1.3,0.2,2.7,0.4,4.3,0.4c3,0,5.5-0.8,7.6-2.5c4-3.2,4.5-8,4.6-11.1
			c3-0.8,7.6-2.3,9.8-7c2.3-4.7,0.5-9.2-0.7-12c2.3-2.1,5.8-5.4,5.8-10.6c0-5.2-3.5-8.5-5.8-10.6c1.2-2.8,2.9-7.3,0.7-12
			c-2.3-4.7-6.8-6.2-9.8-7c-0.2-3.1-0.6-7.9-4.6-11.1c-2.1-1.6-4.6-2.5-7.6-2.5c-1.5,0-3,0.2-4.3,0.4c-1.5-2.7-4-6.9-9-8
			c-0.8-0.2-1.6-0.3-2.4-0.3c-4,0-7,2-9.2,3.6C925.1,35.7,922.2,33.7,918.2,33.7L918.2,33.7z"/>
		<g>
			<g>
				<path fill="#FFFFFF" d="M911.2,72.2c0-0.9,0.7-1.7,1.7-1.7h29.7c0.9,0,1.7,0.7,1.7,1.7c0,0.9-0.7,1.7-1.7,1.7h-29.7
					C911.9,73.9,911.2,73.2,911.2,72.2L911.2,72.2z"/>
			</g>
			<g>
				<path fill="#FFFFFF" d="M911.2,79.4c0-0.9,0.7-1.7,1.7-1.7h36.8c0.9,0,1.7,0.7,1.7,1.7c0,0.9-0.7,1.7-1.7,1.7h-36.8
					C911.9,81.1,911.2,80.3,911.2,79.4L911.2,79.4z"/>
			</g>
			<g>
				<path fill="#FFFFFF" d="M911.2,93c0-0.9,0.7-1.7,1.7-1.7h23.9c0.9,0,1.7,0.7,1.7,1.7s-0.7,1.7-1.7,1.7h-23.9
					C911.9,94.7,911.2,94,911.2,93L911.2,93z"/>
			</g>
			<g>
				<path fill="#FFFFFF" d="M906.6,107.4c0-0.9,0.7-1.7,1.7-1.7h8.3c0.9,0,1.7,0.7,1.7,1.7c0,0.9-0.7,1.7-1.7,1.7h-8.3
					C907.3,109,906.6,108.3,906.6,107.4L906.6,107.4z"/>
			</g>
			<g>
				<path fill="#FFFFFF" d="M911.2,100.2c0-0.9,0.7-1.7,1.7-1.7h36.8c0.9,0,1.7,0.7,1.7,1.7c0,0.9-0.7,1.7-1.7,1.7h-36.8
					C911.9,101.9,911.2,101.1,911.2,100.2L911.2,100.2z"/>
			</g>
			<g>
				<path fill="#FFFFFF" d="M906.6,65c0-0.9,0.7-1.7,1.7-1.7h8.3c0.9,0,1.7,0.7,1.7,1.7c0,0.9-0.7,1.7-1.7,1.7h-8.3
					C907.3,66.6,906.6,65.9,906.6,65L906.6,65z"/>
			</g>
			<g>
				<path fill="#FFFFFF" d="M920.9,65c0-0.9,0.7-1.7,1.7-1.7h8.3c0.9,0,1.7,0.7,1.7,1.7c0,0.9-0.7,1.7-1.7,1.7h-8.3
					C921.6,66.6,920.9,65.9,920.9,65L920.9,65z"/>
			</g>
			<g>
				<path fill="#FFFFFF" d="M935.1,65c0-0.9,0.7-1.7,1.7-1.7h8.3c0.9,0,1.7,0.7,1.7,1.7c0,0.9-0.7,1.7-1.7,1.7h-8.3
					C935.9,66.6,935.1,65.9,935.1,65L935.1,65z"/>
			</g>
			<g>
				<path fill="#FFFFFF" d="M911.2,86.1c0-0.9,0.7-1.7,1.7-1.7h23.9c0.9,0,1.7,0.7,1.7,1.7c0,0.9-0.7,1.7-1.7,1.7h-23.9
					C911.9,87.8,911.2,87,911.2,86.1L911.2,86.1z"/>
			</g>
		</g>
	</g>
</g>
<g>
	<rect x="833.6" y="181.3" fill="#D1D3D4" width="188.9" height="70.2"/>
	<rect x="844.1" y="181.3" fill="#FFD132" width="168.8" height="70.5"/>
</g>
<g>
	<rect x="10.6" y="252.4" fill="#5872AD" width="169.2" height="169.2"/>
	<g>
		<path fill="#FFFFFF" d="M146.3,321.6l-45.8-45.8c-2.6-2.6-6.9-2.6-9.6,0l-9.5,9.5l12.1,12.1c2.8-0.9,6-0.3,8.3,1.9
			c2.2,2.2,2.9,5.5,1.9,8.3l11.6,11.6c2.8-1,6.1-0.3,8.3,1.9c3.1,3.1,3.1,8.2,0,11.4c-3.1,3.1-8.2,3.1-11.4,0
			c-2.4-2.4-2.9-5.8-1.7-8.7l-10.8-10.8v28.5c0.8,0.4,1.5,0.9,2.1,1.5c3.1,3.1,3.1,8.2,0,11.4c-3.1,3.1-8.2,3.1-11.4,0
			c-3.1-3.1-3.1-8.2,0-11.4c0.8-0.8,1.7-1.4,2.6-1.8v-28.8c-1-0.4-1.9-1-2.6-1.8c-2.4-2.4-2.9-5.9-1.7-8.8L76.8,290l-31.4,31.4
			c-2.6,2.6-2.6,6.9,0,9.6l45.8,45.8c2.6,2.6,6.9,2.6,9.6,0l45.6-45.6C148.9,328.5,148.9,324.2,146.3,321.6z"/>
	</g>
	<g>
		<path fill="#FFFFFF" d="M51.4,403.6L51.4,403.6c0-2.8,2.1-5.1,5.1-5.1c1.8,0,3,0.6,3.9,1.6l-1.7,1.8c-0.6-0.6-1.2-1.1-2.2-1.1
			c-1.4,0-2.3,1.2-2.3,2.6v0c0,1.5,1,2.7,2.4,2.7c0.9,0,1.5-0.4,2.2-1l1.6,1.6c-0.9,1-2,1.8-3.9,1.8
			C53.5,408.5,51.4,406.3,51.4,403.6z"/>
		<path fill="#FFFFFF" d="M62.1,395.2h2.7v4.9c0.6-0.8,1.4-1.5,2.8-1.5c2.1,0,3.3,1.4,3.3,3.6v6.2h-2.7v-5.4c0-1.3-0.6-2-1.7-2
			c-1,0-1.7,0.7-1.7,2v5.4h-2.7V395.2z"/>
		<path fill="#FFFFFF" d="M72.9,403.6L72.9,403.6c0-2.8,2-5.1,4.8-5.1c3.2,0,4.7,2.5,4.7,5.2c0,0.2,0,0.5,0,0.7h-6.7
			c0.3,1.2,1.1,1.9,2.4,1.9c0.9,0,1.6-0.3,2.3-1l1.6,1.4c-0.9,1.1-2.2,1.8-3.9,1.8C75,408.5,72.9,406.5,72.9,403.6z M79.7,402.7
			c-0.2-1.2-0.9-2.1-2-2.1c-1.1,0-1.9,0.8-2.1,2.1H79.7z"/>
		<path fill="#FFFFFF" d="M84.8,401h-1.1v-2.3h1.1v-0.6c0-1.1,0.3-1.8,0.8-2.3c0.5-0.5,1.2-0.8,2.2-0.8c0.9,0,1.4,0.1,1.9,0.3v2.3
			c-0.4-0.1-0.8-0.2-1.2-0.2c-0.6,0-1,0.3-1,1v0.4h2.2v2.2h-2.2v7.3h-2.7V401z"/>
		<path fill="#FFFFFF" d="M90.9,401.4h5.5v2.6h-5.5V401.4z"/>
		<path fill="#FFFFFF" d="M98.6,398.7h2.7v1.9c0.6-1.3,1.5-2.2,3.1-2.1v2.9h-0.1c-1.8,0-2.9,1.1-2.9,3.4v3.6h-2.7V398.7z"/>
		<path fill="#FFFFFF" d="M105.4,403.6L105.4,403.6c0-2.8,2-5.1,4.8-5.1c3.2,0,4.7,2.5,4.7,5.2c0,0.2,0,0.5,0,0.7h-6.7
			c0.3,1.2,1.1,1.9,2.4,1.9c0.9,0,1.6-0.3,2.3-1l1.6,1.4c-0.9,1.1-2.2,1.8-3.9,1.8C107.5,408.5,105.4,406.5,105.4,403.6z
			 M112.2,402.7c-0.2-1.2-0.9-2.1-2-2.1c-1.1,0-1.9,0.8-2.1,2.1H112.2z"/>
		<path fill="#FFFFFF" d="M116.9,398.7h2.7v1.4c0.7-0.9,1.6-1.6,3-1.6c2.3,0,4.4,1.8,4.4,5v0c0,3.2-2.1,5-4.4,5
			c-1.5,0-2.4-0.7-3-1.4v4.1h-2.7V398.7z M124.3,403.5L124.3,403.5c0-1.6-1.1-2.7-2.4-2.7c-1.3,0-2.3,1.1-2.3,2.7v0
			c0,1.6,1.1,2.7,2.3,2.7C123.2,406.2,124.3,405.1,124.3,403.5z"/>
		<path fill="#FFFFFF" d="M128.6,403.6L128.6,403.6c0-2.8,2.2-5.1,5.2-5.1c3,0,5.2,2.2,5.2,5v0c0,2.8-2.2,5-5.2,5
			C130.8,408.5,128.6,406.3,128.6,403.6z M136.3,403.6L136.3,403.6c0-1.5-1-2.7-2.5-2.7c-1.6,0-2.5,1.2-2.5,2.6v0
			c0,1.4,1,2.7,2.5,2.7C135.4,406.2,136.3,405,136.3,403.6z"/>
	</g>
</g>
<rect x="248.2" y="430.7" fill="#D1D3D4" width="169.3" height="50.8"/>
<rect x="426.3" y="491.2" fill="#D1D3D4" width="50.4" height="168.1"/>
<rect x="427.6" y="251.7" fill="#D1D3D4" width="48.7" height="169"/>
<g>
	<g>
		<rect x="248.7" y="251.8" fill="#7F888D" width="169.2" height="169.2"/>
		<g>
			<path fill="#FFFFFF" d="M279.7,398h2.8l1.5,5.9l1.8-5.9h2.4l1.8,5.9l1.6-5.9h2.7l-3,9.7h-2.5l-1.9-5.9l-1.9,5.9h-2.4L279.7,398z"
				/>
			<path fill="#FFFFFF" d="M295,402.9L295,402.9c0-2.8,2.2-5.1,5.2-5.1c3,0,5.2,2.2,5.2,5v0c0,2.8-2.2,5-5.2,5
				C297.2,407.9,295,405.7,295,402.9z M302.8,402.9L302.8,402.9c0-1.5-1-2.7-2.5-2.7c-1.6,0-2.5,1.2-2.5,2.6v0c0,1.4,1,2.7,2.5,2.7
				C301.8,405.5,302.8,404.3,302.8,402.9z"/>
			<path fill="#FFFFFF" d="M307.4,398h2.7v1.9c0.6-1.3,1.5-2.2,3.1-2.1v2.9h-0.1c-1.8,0-2.9,1.1-2.9,3.4v3.6h-2.7V398z"/>
			<path fill="#FFFFFF" d="M315,394.5h2.7v7l3.2-3.5h3.3l-3.7,3.8l3.8,5.9h-3.1l-2.5-3.9l-1,1v2.9H315V394.5z"/>
			<path fill="#FFFFFF" d="M324.9,406.4l1.2-1.8c1,0.8,2.1,1.2,3,1.2c0.8,0,1.2-0.3,1.2-0.7v0c0-0.6-0.9-0.8-2-1.1
				c-1.4-0.4-2.9-1-2.9-2.9v0c0-2,1.6-3.1,3.5-3.1c1.2,0,2.6,0.4,3.6,1.1l-1,1.9c-1-0.6-1.9-0.9-2.6-0.9c-0.7,0-1,0.3-1,0.7v0
				c0,0.5,0.9,0.8,2,1.2c1.4,0.5,2.9,1.1,2.9,2.9v0c0,2.1-1.6,3.1-3.7,3.1C327.7,407.8,326.1,407.4,324.9,406.4z"/>
			<path fill="#FFFFFF" d="M334.9,404.9v-4.6h-1.2V398h1.2v-2.5h2.7v2.5h2.3v2.3h-2.3v4.1c0,0.6,0.3,0.9,0.9,0.9
				c0.5,0,1-0.1,1.4-0.3v2.2c-0.6,0.3-1.2,0.6-2.2,0.6C336.1,407.8,334.9,407.1,334.9,404.9z"/>
			<path fill="#FFFFFF" d="M341.4,404.9L341.4,404.9c0-2.1,1.6-3.1,3.9-3.1c1,0,1.7,0.2,2.4,0.4V402c0-1.1-0.7-1.8-2.1-1.8
				c-1,0-1.8,0.2-2.7,0.5l-0.7-2.1c1.1-0.5,2.1-0.8,3.7-0.8c1.5,0,2.6,0.4,3.3,1.1c0.7,0.7,1,1.8,1,3.1v5.6h-2.6v-1
				c-0.7,0.7-1.6,1.2-2.9,1.2C342.9,407.8,341.4,406.8,341.4,404.9z M347.7,404.2v-0.5c-0.5-0.2-1.1-0.4-1.7-0.4
				c-1.2,0-1.9,0.5-1.9,1.3v0c0,0.7,0.6,1.2,1.5,1.2C346.8,405.9,347.7,405.2,347.7,404.2z"/>
			<path fill="#FFFFFF" d="M353,404.9v-4.6h-1.2V398h1.2v-2.5h2.7v2.5h2.3v2.3h-2.3v4.1c0,0.6,0.3,0.9,0.9,0.9c0.5,0,1-0.1,1.4-0.3
				v2.2c-0.6,0.3-1.2,0.6-2.2,0.6C354.1,407.8,353,407.1,353,404.9z"/>
			<path fill="#FFFFFF" d="M360,394.5h2.9v2.4H360V394.5z M360.1,398h2.7v9.7h-2.7V398z"/>
			<path fill="#FFFFFF" d="M365,402.9L365,402.9c0-2.8,2.2-5.1,5.2-5.1c3,0,5.2,2.2,5.2,5v0c0,2.8-2.2,5-5.2,5
				C367.2,407.9,365,405.7,365,402.9z M372.7,402.9L372.7,402.9c0-1.5-1-2.7-2.5-2.7c-1.6,0-2.5,1.2-2.5,2.6v0c0,1.4,1,2.7,2.5,2.7
				C371.8,405.5,372.7,404.3,372.7,402.9z"/>
			<path fill="#FFFFFF" d="M377.4,398h2.7v1.4c0.6-0.8,1.4-1.5,2.8-1.5c2.1,0,3.3,1.4,3.3,3.6v6.2h-2.7v-5.4c0-1.3-0.6-2-1.7-2
				c-1,0-1.7,0.7-1.7,2v5.4h-2.7V398z"/>
		</g>
	</g>
	<g>
		<g>
			<path fill="#FFFFFF" d="M380.1,355.8h-94.4c-2.4,0-4.3-1.9-4.3-4.3v-60.1c0-2.4,1.9-4.3,4.3-4.3h94.4c2.4,0,4.3,1.9,4.3,4.3v60.1
				C384.4,353.9,382.5,355.8,380.1,355.8L380.1,355.8z M290,347.2h85.8v-51.5H290V347.2L290,347.2z"/>
		</g>
		<g>
			<path fill="#FFFFFF" d="M371.5,345.1h-77.2c-1.2,0-2.1-1-2.1-2.1V300c0-1.2,1-2.1,2.1-2.1h77.2c1.2,0,2.1,1,2.1,2.1v42.9
				C373.6,344.1,372.7,345.1,371.5,345.1L371.5,345.1z M296.4,340.8h72.9v-38.6h-72.9V340.8L296.4,340.8z"/>
		</g>
		<g>
			<path fill="#FFFFFF" d="M393.3,368.3H273.9c-2.4,0-4.3-1.9-4.3-4.3c0-2.4,1.9-4.3,4.3-4.3h119.4c2.4,0,4.3,1.9,4.3,4.3
				C397.6,366.4,395.7,368.3,393.3,368.3L393.3,368.3z"/>
		</g>
	</g>
</g>
<g>
	<g>
		<rect x="1022.3" y="252" fill="#7F888D" width="169.2" height="169.2"/>
		<g>
			<path fill="#FFFFFF" d="M1086.8,405.1v-4.6h-1.2v-2.3h1.2v-2.5h2.7v2.5h2.3v2.3h-2.3v4.1c0,0.6,0.3,0.9,0.9,0.9
				c0.5,0,1-0.1,1.4-0.3v2.2c-0.6,0.3-1.2,0.6-2.2,0.6C1087.9,408,1086.8,407.3,1086.8,405.1z"/>
			<path fill="#FFFFFF" d="M1093.1,403.1L1093.1,403.1c0-2.8,2-5.1,4.8-5.1c3.2,0,4.7,2.5,4.7,5.2c0,0.2,0,0.5,0,0.7h-6.7
				c0.3,1.2,1.1,1.9,2.4,1.9c0.9,0,1.6-0.3,2.3-1l1.6,1.4c-0.9,1.1-2.2,1.8-3.9,1.8C1095.2,408.1,1093.1,406,1093.1,403.1z
				 M1099.9,402.3c-0.2-1.2-0.9-2.1-2-2.1c-1.1,0-1.9,0.8-2.1,2.1H1099.9z"/>
			<path fill="#FFFFFF" d="M1103.8,406.6l1.2-1.8c1,0.8,2.1,1.2,3,1.2c0.8,0,1.2-0.3,1.2-0.7v0c0-0.6-0.9-0.8-2-1.1
				c-1.3-0.4-2.9-1-2.9-2.9v0c0-2,1.6-3.1,3.5-3.1c1.2,0,2.6,0.4,3.6,1.1l-1,1.9c-1-0.6-1.9-0.9-2.6-0.9c-0.7,0-1,0.3-1,0.7v0
				c0,0.5,0.9,0.8,2,1.2c1.4,0.5,2.9,1.1,2.9,2.9v0c0,2.1-1.6,3.1-3.7,3.1C1106.6,408,1105.1,407.6,1103.8,406.6z"/>
			<path fill="#FFFFFF" d="M1113.9,405.1v-4.6h-1.2v-2.3h1.2v-2.5h2.7v2.5h2.3v2.3h-2.3v4.1c0,0.6,0.3,0.9,0.9,0.9
				c0.5,0,1-0.1,1.4-0.3v2.2c-0.6,0.3-1.2,0.6-2.2,0.6C1115,408,1113.9,407.3,1113.9,405.1z"/>
			<path fill="#FFFFFF" d="M1120.1,406.6l1.2-1.8c1,0.8,2.1,1.2,3,1.2c0.8,0,1.2-0.3,1.2-0.7v0c0-0.6-0.9-0.8-2-1.1
				c-1.4-0.4-2.9-1-2.9-2.9v0c0-2,1.6-3.1,3.5-3.1c1.2,0,2.6,0.4,3.6,1.1l-1,1.9c-1-0.6-1.9-0.9-2.6-0.9c-0.7,0-1,0.3-1,0.7v0
				c0,0.5,0.9,0.8,2,1.2c1.3,0.5,2.9,1.1,2.9,2.9v0c0,2.1-1.6,3.1-3.7,3.1C1122.9,408,1121.4,407.6,1120.1,406.6z"/>
		</g>
	</g>
	<g>
		<g>
			<path fill="#FFFFFF" d="M1119.1,373.9c-1.1,0-2-0.9-2-2v-24.4c0-1.1,0.9-2,2-2h24.4c1.1,0,2,0.9,2,2c0,1.1-0.9,2-2,2h-22.3v22.3
				C1121.1,373,1120.2,373.9,1119.1,373.9L1119.1,373.9z"/>
		</g>
		<g>
			<path fill="#FFFFFF" d="M1119.1,376h-41.9c-2.2,0-4.1-1.8-4.1-4.1v-83.3c0-2.2,1.8-4.1,4.1-4.1h66.3c2.2,0,4.1,1.8,4.1,4.1v59
				c0,1.1-0.4,2.1-1.2,2.9l-24.4,24.4C1121.2,375.5,1120.2,376,1119.1,376L1119.1,376z M1081.2,367.8h36.2l22-22v-53.2h-58.2V367.8
				L1081.2,367.8z"/>
		</g>
		<g>
			<path fill="#FFFFFF" d="M1065.8,366.3c-2.2,0-4.1-1.8-4.1-4.1v-81.7c0-4.5,3.6-8.1,8.1-8.1h62.2c2.2,0,4.1,1.8,4.1,4.1
				c0,2.2-1.8,4.1-4.1,4.1h-62.2v81.7C1069.8,364.5,1068,366.3,1065.8,366.3L1065.8,366.3z"/>
		</g>
		<g>
			<g>
				<path fill="#FFFFFF" d="M1108.1,325.1c-0.4,0-0.8-0.2-1.1-0.5l-3.9-4.1c-0.6-0.6-0.5-1.6,0.1-2.1c0.6-0.6,1.6-0.6,2.1,0.1
					l2.7,2.9l7.5-9.2c0.5-0.6,1.5-0.7,2.1-0.2c0.6,0.5,0.7,1.5,0.2,2.1l-8.6,10.5C1109,324.9,1108.6,325.1,1108.1,325.1
					C1108.2,325.1,1108.2,325.1,1108.1,325.1L1108.1,325.1z"/>
			</g>
			<g>
				<path fill="#FFFFFF" d="M1126.9,337h-32.8c-0.8,0-1.5-0.7-1.5-1.5v-32.8c0-0.8,0.7-1.5,1.5-1.5h32.8c0.8,0,1.5,0.7,1.5,1.5v32.8
					C1128.4,336.3,1127.7,337,1126.9,337L1126.9,337z M1095.6,334h29.8v-29.8h-29.8V334L1095.6,334z"/>
			</g>
		</g>
	</g>
</g>
<g>
	<g>
		<rect x="485.8" y="251.6" fill="#7F888D" width="169.2" height="169.2"/>
		<g>
			<path fill="#FFFFFF" d="M521,402.7L521,402.7c0-2.8,2.1-5.1,5.1-5.1c1.8,0,3,0.6,3.9,1.6l-1.7,1.8c-0.6-0.6-1.2-1.1-2.2-1.1
				c-1.4,0-2.3,1.2-2.3,2.6v0c0,1.5,1,2.7,2.4,2.7c0.9,0,1.5-0.4,2.2-1l1.6,1.6c-0.9,1-2,1.8-3.9,1.8
				C523.1,407.7,521,405.5,521,402.7z"/>
			<path fill="#FFFFFF" d="M531,402.7L531,402.7c0-2.8,2.2-5.1,5.2-5.1c3,0,5.2,2.2,5.2,5v0c0,2.8-2.2,5-5.2,5
				C533.2,407.7,531,405.5,531,402.7z M538.8,402.7L538.8,402.7c0-1.5-1-2.7-2.5-2.7c-1.6,0-2.5,1.2-2.5,2.6v0c0,1.4,1,2.7,2.5,2.7
				C537.8,405.4,538.8,404.2,538.8,402.7z"/>
			<path fill="#FFFFFF" d="M543,402.7L543,402.7c0-2.8,2.2-5.1,5.2-5.1c3,0,5.2,2.2,5.2,5v0c0,2.8-2.2,5-5.2,5
				C545.2,407.7,543,405.5,543,402.7z M550.7,402.7L550.7,402.7c0-1.5-1-2.7-2.5-2.7c-1.6,0-2.5,1.2-2.5,2.6v0c0,1.4,1,2.7,2.5,2.7
				C549.8,405.4,550.7,404.2,550.7,402.7z"/>
			<path fill="#FFFFFF" d="M555.4,394.4h2.7v7l3.2-3.5h3.3l-3.7,3.8l3.8,5.9h-3.1l-2.5-3.9l-1,1v2.9h-2.7V394.4z"/>
			<path fill="#FFFFFF" d="M568.8,406.3v1.3H566v-13.1h2.7v4.9c0.7-0.9,1.6-1.6,3-1.6c2.3,0,4.4,1.8,4.4,5v0c0,3.2-2.1,5-4.4,5
				C570.3,407.7,569.4,407,568.8,406.3z M573.4,402.7L573.4,402.7c0-1.6-1.1-2.7-2.4-2.7c-1.3,0-2.3,1.1-2.3,2.7v0
				c0,1.6,1.1,2.7,2.3,2.7C572.4,405.4,573.4,404.3,573.4,402.7z"/>
			<path fill="#FFFFFF" d="M577.7,402.7L577.7,402.7c0-2.8,2.2-5.1,5.2-5.1c3,0,5.2,2.2,5.2,5v0c0,2.8-2.2,5-5.2,5
				C579.9,407.7,577.7,405.5,577.7,402.7z M585.5,402.7L585.5,402.7c0-1.5-1-2.7-2.5-2.7c-1.6,0-2.5,1.2-2.5,2.6v0
				c0,1.4,1,2.7,2.5,2.7C584.5,405.4,585.5,404.2,585.5,402.7z"/>
			<path fill="#FFFFFF" d="M589.7,402.7L589.7,402.7c0-2.8,2.2-5.1,5.2-5.1c3,0,5.2,2.2,5.2,5v0c0,2.8-2.2,5-5.2,5
				C591.9,407.7,589.7,405.5,589.7,402.7z M597.4,402.7L597.4,402.7c0-1.5-1-2.7-2.5-2.7c-1.6,0-2.5,1.2-2.5,2.6v0
				c0,1.4,1,2.7,2.5,2.7C596.5,405.4,597.4,404.2,597.4,402.7z"/>
			<path fill="#FFFFFF" d="M602.1,394.4h2.7v7l3.2-3.5h3.3l-3.7,3.8l3.8,5.9h-3.1l-2.5-3.9l-1,1v2.9h-2.7V394.4z"/>
			<path fill="#FFFFFF" d="M612,406.2l1.2-1.8c1,0.8,2.1,1.2,3,1.2c0.8,0,1.2-0.3,1.2-0.7v0c0-0.6-0.9-0.8-2-1.1
				c-1.4-0.4-2.9-1-2.9-2.9v0c0-2,1.6-3.1,3.5-3.1c1.2,0,2.6,0.4,3.6,1.1l-1,1.9c-1-0.6-1.9-0.9-2.6-0.9c-0.7,0-1,0.3-1,0.7v0
				c0,0.5,0.9,0.8,2,1.2c1.4,0.5,2.9,1.1,2.9,2.9v0c0,2.1-1.6,3.1-3.7,3.1C614.8,407.7,613.3,407.2,612,406.2z"/>
		</g>
	</g>
	<g>
		<g>
			<path fill="#FFFFFF" d="M589.9,320.5h-31.4c-1.1,0-2-0.9-2-2v-17.7c0-1.1,0.9-2,2-2h31.4c1.1,0,2,0.9,2,2v17.7
				C591.9,319.6,591,320.5,589.9,320.5L589.9,320.5z M560.6,316.4h27.3v-13.6h-27.3V316.4L560.6,316.4z"/>
		</g>
		<g>
			<g>
				<path fill="#FFFFFF" d="M607.1,376.7h-70.2c-2.3,0-4.1-1.8-4.1-4.1v-88.3c0-2.3,1.8-4.1,4.1-4.1h70.2c2.3,0,4.1,1.8,4.1,4.1
					v88.3C611.2,374.8,609.4,376.7,607.1,376.7L607.1,376.7z M541,368.5h62v-80.1h-62V368.5L541,368.5z"/>
			</g>
			<g>
				<path fill="#FFFFFF" d="M544,304.9h-14.3c-2.3,0-4.1-1.8-4.1-4.1c0-2.3,1.8-4.1,4.1-4.1H544c2.3,0,4.1,1.8,4.1,4.1
					C548.1,303.1,546.3,304.9,544,304.9L544,304.9z"/>
			</g>
			<g>
				<path fill="#FFFFFF" d="M544,323.2h-14.3c-2.3,0-4.1-1.8-4.1-4.1c0-2.3,1.8-4.1,4.1-4.1H544c2.3,0,4.1,1.8,4.1,4.1
					C548.1,321.3,546.3,323.2,544,323.2L544,323.2z"/>
			</g>
			<g>
				<path fill="#FFFFFF" d="M544,341.4h-14.3c-2.3,0-4.1-1.8-4.1-4.1s1.8-4.1,4.1-4.1H544c2.3,0,4.1,1.8,4.1,4.1
					S546.3,341.4,544,341.4L544,341.4z"/>
			</g>
			<g>
				<path fill="#FFFFFF" d="M544,359.7h-14.3c-2.3,0-4.1-1.8-4.1-4.1c0-2.3,1.8-4.1,4.1-4.1H544c2.3,0,4.1,1.8,4.1,4.1
					C548.1,357.9,546.3,359.7,544,359.7L544,359.7z"/>
			</g>
		</g>
	</g>
</g>
<g>
	<g>
		<rect x="1200.9" y="251.6" fill="#7F888D" width="169.2" height="169.2"/>
		<g>
			<path fill="#FFFFFF" d="M1253.4,406.2l1.2-1.8c1,0.8,2.1,1.2,3,1.2c0.8,0,1.2-0.3,1.2-0.7v0c0-0.6-0.9-0.8-2-1.1
				c-1.3-0.4-2.9-1-2.9-2.9v0c0-2,1.6-3.1,3.5-3.1c1.2,0,2.6,0.4,3.6,1.1l-1,1.9c-1-0.6-1.9-0.9-2.6-0.9c-0.7,0-1,0.3-1,0.7v0
				c0,0.5,0.9,0.8,2,1.2c1.4,0.5,2.9,1.1,2.9,2.9v0c0,2.1-1.6,3.1-3.7,3.1C1256.2,407.7,1254.7,407.2,1253.4,406.2z"/>
			<path fill="#FFFFFF" d="M1262.7,402.7L1262.7,402.7c0-2.8,2-5.1,4.8-5.1c3.2,0,4.7,2.5,4.7,5.2c0,0.2,0,0.5,0,0.7h-6.7
				c0.3,1.2,1.1,1.9,2.4,1.9c0.9,0,1.6-0.3,2.3-1l1.6,1.4c-0.9,1.1-2.2,1.8-3.9,1.8C1264.9,407.7,1262.7,405.7,1262.7,402.7z
				 M1269.6,401.9c-0.2-1.2-0.9-2.1-2-2.1c-1.1,0-1.9,0.8-2.1,2.1H1269.6z"/>
			<path fill="#FFFFFF" d="M1273.8,402.7L1273.8,402.7c0-2.8,2.1-5.1,5.1-5.1c1.8,0,3,0.6,3.9,1.6l-1.7,1.8
				c-0.6-0.6-1.2-1.1-2.2-1.1c-1.4,0-2.3,1.2-2.3,2.6v0c0,1.5,1,2.7,2.4,2.7c0.9,0,1.5-0.4,2.2-1l1.6,1.6c-0.9,1-2,1.8-3.9,1.8
				C1275.9,407.7,1273.8,405.5,1273.8,402.7z"/>
			<path fill="#FFFFFF" d="M1284.5,397.9h2.7v1.9c0.6-1.3,1.5-2.2,3.1-2.1v2.9h-0.1c-1.8,0-2.9,1.1-2.9,3.4v3.6h-2.7V397.9z"/>
			<path fill="#FFFFFF" d="M1291.3,402.7L1291.3,402.7c0-2.8,2-5.1,4.8-5.1c3.2,0,4.7,2.5,4.7,5.2c0,0.2,0,0.5,0,0.7h-6.7
				c0.3,1.2,1.1,1.9,2.4,1.9c0.9,0,1.6-0.3,2.3-1l1.6,1.4c-0.9,1.1-2.2,1.8-3.9,1.8C1293.5,407.7,1291.3,405.7,1291.3,402.7z
				 M1298.1,401.9c-0.2-1.2-0.9-2.1-2-2.1c-1.1,0-1.9,0.8-2.1,2.1H1298.1z"/>
			<path fill="#FFFFFF" d="M1303.3,404.8v-4.6h-1.2v-2.3h1.2v-2.5h2.7v2.5h2.3v2.3h-2.3v4.1c0,0.6,0.3,0.9,0.9,0.9
				c0.5,0,1-0.1,1.4-0.3v2.2c-0.6,0.3-1.2,0.6-2.2,0.6C1304.4,407.7,1303.3,407,1303.3,404.8z"/>
			<path fill="#FFFFFF" d="M1309.5,406.2l1.2-1.8c1,0.8,2.1,1.2,3,1.2c0.8,0,1.2-0.3,1.2-0.7v0c0-0.6-0.9-0.8-2-1.1
				c-1.4-0.4-2.9-1-2.9-2.9v0c0-2,1.6-3.1,3.5-3.1c1.2,0,2.6,0.4,3.6,1.1l-1,1.9c-1-0.6-1.9-0.9-2.6-0.9c-0.7,0-1,0.3-1,0.7v0
				c0,0.5,0.9,0.8,2,1.2c1.3,0.5,2.9,1.1,2.9,2.9v0c0,2.1-1.6,3.1-3.7,3.1C1312.3,407.7,1310.8,407.2,1309.5,406.2z"/>
		</g>
	</g>
	<g>
		<g>
			<g>
				<path fill="#FFFFFF" d="M1330.8,375.1h-86.3c-2.2,0-4-1.8-4-4v-86.3c0-2.2,1.8-4,4-4h86.3c2.2,0,4,1.8,4,4v86.3
					C1334.8,373.3,1333,375.1,1330.8,375.1L1330.8,375.1z M1248.5,367.1h78.3v-78.2h-78.3V367.1L1248.5,367.1z"/>
			</g>
			<g>
				<path fill="#FFFFFF" d="M1318.1,360.4h-60.8c-1.1,0-2-0.9-2-2v-60.8c0-1.1,0.9-2,2-2h60.8c1.1,0,2,0.9,2,2v60.8
					C1320.1,359.5,1319.2,360.4,1318.1,360.4L1318.1,360.4z M1259.3,356.3h56.8v-56.8h-56.8V356.3L1259.3,356.3z"/>
			</g>
			<g>
				<g>
					<path fill="#FFFFFF" d="M1257.3,320.3c-2.2,0-4-1.8-4-4v-5c0-2.2,1.8-4,4-4s4,1.8,4,4v5
						C1261.3,318.5,1259.5,320.3,1257.3,320.3L1257.3,320.3z"/>
				</g>
				<g>
					<path fill="#FFFFFF" d="M1257.3,348.6c-2.2,0-4-1.8-4-4v-5c0-2.2,1.8-4,4-4s4,1.8,4,4v5
						C1261.3,346.8,1259.5,348.6,1257.3,348.6L1257.3,348.6z"/>
				</g>
			</g>
		</g>
		<g>
			<g>
				<path fill="#FFFFFF" d="M1287.7,340c-6.7,0-12.1-5.4-12.1-12.1c0-6.7,5.4-12.1,12.1-12.1c6.7,0,12.1,5.4,12.1,12.1
					C1299.8,334.6,1294.3,340,1287.7,340L1287.7,340z M1287.7,319.9c-4.4,0-8.1,3.6-8.1,8.1c0,4.5,3.6,8.1,8.1,8.1
					c4.5,0,8.1-3.6,8.1-8.1C1295.7,323.5,1292.1,319.9,1287.7,319.9L1287.7,319.9z"/>
			</g>
			<g>
				<g>
					<path fill="#FFFFFF" d="M1280.1,322.3c-0.5,0-1-0.2-1.4-0.6l-2.8-2.8c-0.8-0.8-0.8-2.1,0-2.8c0.8-0.8,2.1-0.8,2.8,0l2.8,2.8
						c0.8,0.8,0.8,2.1,0,2.8C1281.1,322.1,1280.6,322.3,1280.1,322.3L1280.1,322.3z"/>
				</g>
				<g>
					<path fill="#FFFFFF" d="M1298.1,340.4c-0.5,0-1-0.2-1.4-0.6l-3.3-3.3c-0.8-0.8-0.8-2.1,0-2.8c0.8-0.8,2.1-0.8,2.8,0l3.3,3.3
						c0.8,0.8,0.8,2.1,0,2.8C1299.1,340.2,1298.6,340.4,1298.1,340.4L1298.1,340.4z"/>
				</g>
			</g>
			<g>
				<g>
					<path fill="#FFFFFF" d="M1295.3,322.3c-0.5,0-1-0.2-1.4-0.6c-0.8-0.8-0.8-2.1,0-2.8l2.8-2.8c0.8-0.8,2.1-0.8,2.8,0
						c0.8,0.8,0.8,2.1,0,2.8l-2.8,2.8C1296.3,322.1,1295.8,322.3,1295.3,322.3L1295.3,322.3z"/>
				</g>
				<g>
					<path fill="#FFFFFF" d="M1277.3,340.4c-0.5,0-1-0.2-1.4-0.6c-0.8-0.8-0.8-2.1,0-2.8l3.3-3.3c0.8-0.8,2.1-0.8,2.8,0
						c0.8,0.8,0.8,2.1,0,2.8l-3.3,3.3C1278.3,340.2,1277.8,340.4,1277.3,340.4L1277.3,340.4z"/>
				</g>
			</g>
			<g>
				<g>
					<path fill="#FFFFFF" d="M1287.7,319.2c-1.1,0-2-0.9-2-2v-4c0-1.1,0.9-2,2-2c1.1,0,2,0.9,2,2v4
						C1289.7,318.3,1288.8,319.2,1287.7,319.2L1287.7,319.2z"/>
				</g>
				<g>
					<path fill="#FFFFFF" d="M1287.7,344.7L1287.7,344.7c-1.1,0-2-0.9-2-2l0-4.7c0-1.1,0.9-2,2-2l0,0c1.1,0,2,0.9,2,2l0,4.7
						C1289.7,343.8,1288.8,344.7,1287.7,344.7L1287.7,344.7z"/>
				</g>
			</g>
			<g>
				<g>
					<path fill="#FFFFFF" d="M1302.4,329.9h-4c-1.1,0-2-0.9-2-2c0-1.1,0.9-2,2-2h4c1.1,0,2,0.9,2,2
						C1304.4,329,1303.5,329.9,1302.4,329.9L1302.4,329.9z"/>
				</g>
				<g>
					<path fill="#FFFFFF" d="M1277.6,329.9h-4.7c-1.1,0-2-0.9-2-2c0-1.1,0.9-2,2-2h4.7c1.1,0,2,0.9,2,2
						C1279.7,329,1278.8,329.9,1277.6,329.9L1277.6,329.9z"/>
				</g>
			</g>
		</g>
	</g>
</g>
<g>
	<g>
		<rect x="665.4" y="251.8" fill="#7F888D" width="169.2" height="169.2"/>
		<g>
			<path fill="#FFFFFF" d="M718.1,398h2.7v1.9c0.6-1.3,1.5-2.2,3.1-2.1v2.9h-0.1c-1.8,0-2.9,1.1-2.9,3.4v3.6h-2.7V398z"/>
			<path fill="#FFFFFF" d="M724.9,402.9L724.9,402.9c0-2.8,2-5.1,4.8-5.1c3.2,0,4.7,2.5,4.7,5.2c0,0.2,0,0.5,0,0.7h-6.7
				c0.3,1.2,1.1,1.9,2.4,1.9c0.9,0,1.6-0.3,2.3-1l1.6,1.4c-0.9,1.1-2.2,1.8-3.9,1.8C727,407.9,724.9,405.8,724.9,402.9z
				 M731.7,402.1c-0.2-1.2-0.9-2.1-2-2.1c-1.1,0-1.9,0.8-2.1,2.1H731.7z"/>
			<path fill="#FFFFFF" d="M735.9,402.9L735.9,402.9c0-2.8,2.1-5.1,5.1-5.1c1.8,0,3,0.6,3.9,1.6l-1.7,1.8c-0.6-0.6-1.2-1.1-2.2-1.1
				c-1.4,0-2.3,1.2-2.3,2.6v0c0,1.5,1,2.7,2.4,2.7c0.9,0,1.5-0.4,2.2-1l1.6,1.6c-0.9,1-2,1.8-3.9,1.8
				C738.1,407.9,735.9,405.6,735.9,402.9z"/>
			<path fill="#FFFFFF" d="M746.7,394.5h2.9v2.4h-2.9V394.5z M746.8,398h2.7v9.7h-2.7V398z"/>
			<path fill="#FFFFFF" d="M752.1,398h2.7v1.4c0.7-0.9,1.6-1.6,3-1.6c2.2,0,4.4,1.8,4.4,5v0c0,3.2-2.1,5-4.4,5c-1.5,0-2.4-0.7-3-1.4
				v4.1h-2.7V398z M759.5,402.9L759.5,402.9c0-1.6-1.1-2.7-2.4-2.7c-1.3,0-2.3,1.1-2.3,2.7v0c0,1.6,1.1,2.7,2.3,2.7
				C758.4,405.5,759.5,404.5,759.5,402.9z"/>
			<path fill="#FFFFFF" d="M763.8,402.9L763.8,402.9c0-2.8,2-5.1,4.8-5.1c3.2,0,4.7,2.5,4.7,5.2c0,0.2,0,0.5,0,0.7h-6.7
				c0.3,1.2,1.1,1.9,2.4,1.9c0.9,0,1.6-0.3,2.3-1l1.6,1.4c-0.9,1.1-2.2,1.8-3.9,1.8C765.9,407.9,763.8,405.8,763.8,402.9z
				 M770.6,402.1c-0.2-1.2-0.9-2.1-2-2.1c-1.1,0-1.9,0.8-2.1,2.1H770.6z"/>
			<path fill="#FFFFFF" d="M774.5,406.4l1.2-1.8c1,0.8,2.1,1.2,3,1.2c0.8,0,1.2-0.3,1.2-0.7v0c0-0.6-0.9-0.8-2-1.1
				c-1.3-0.4-2.9-1-2.9-2.9v0c0-2,1.6-3.1,3.5-3.1c1.2,0,2.6,0.4,3.6,1.1l-1,1.9c-1-0.6-1.9-0.9-2.6-0.9c-0.7,0-1,0.3-1,0.7v0
				c0,0.5,0.9,0.8,2,1.2c1.4,0.5,2.9,1.1,2.9,2.9v0c0,2.1-1.6,3.1-3.7,3.1C777.3,407.8,775.8,407.4,774.5,406.4z"/>
		</g>
	</g>
	<g>
		<path fill="#FFFFFF" d="M773.2,356.7v-83.9c0-1-0.8-1.8-1.8-1.8h-63.1c-1,0-1.8,0.8-1.8,1.8v83.9c0,1,0.8,1.8,1.8,1.8h63.1
			C772.4,358.5,773.2,357.7,773.2,356.7z M748,280.4h8.8c1,0,1.8,0.8,1.8,1.8c0,1-0.8,1.8-1.8,1.8H748c-1,0-1.8-0.8-1.8-1.8
			C746.2,281.2,747,280.4,748,280.4z M755.9,289.9c0,1-0.8,1.8-1.8,1.8h-31.7c-1,0-1.8-0.8-1.8-1.8c0-1,0.8-1.8,1.8-1.8h31.7
			C755.1,288.2,755.9,289,755.9,289.9z M732.7,280.4h8.8c1,0,1.8,0.8,1.8,1.8c0,1-0.8,1.8-1.8,1.8h-8.8c-1,0-1.8-0.8-1.8-1.8
			C730.9,281.2,731.7,280.4,732.7,280.4z M717.5,280.4h8.8c1,0,1.8,0.8,1.8,1.8c0,1-0.8,1.8-1.8,1.8h-8.8c-1,0-1.8-0.8-1.8-1.8
			C715.7,281.2,716.5,280.4,717.5,280.4z M747.9,306.5h-25.5c-1,0-1.8-0.8-1.8-1.8c0-1,0.8-1.8,1.8-1.8h25.5c1,0,1.8,0.8,1.8,1.8
			C749.6,305.7,748.8,306.5,747.9,306.5z M749.6,312.1c0,1-0.8,1.8-1.8,1.8h-25.5c-1,0-1.8-0.8-1.8-1.8c0-1,0.8-1.8,1.8-1.8h25.5
			C748.8,310.3,749.6,311.1,749.6,312.1z M726.3,329.2h-8.8c-1,0-1.8-0.8-1.8-1.8c0-1,0.8-1.8,1.8-1.8h8.8c1,0,1.8,0.8,1.8,1.8
			C728.1,328.4,727.3,329.2,726.3,329.2z M761.6,321.5h-39.2c-1,0-1.8-0.8-1.8-1.8c0-1,0.8-1.8,1.8-1.8h39.2c1,0,1.8,0.8,1.8,1.8
			C763.4,320.7,762.6,321.5,761.6,321.5z M761.6,299.4h-39.2c-1,0-1.8-0.8-1.8-1.8c0-1,0.8-1.8,1.8-1.8h39.2c1,0,1.8,0.8,1.8,1.8
			C763.4,298.6,762.6,299.4,761.6,299.4z"/>
		<path fill="#FFFFFF" d="M783.3,370.4h-63.1c-1,0-1.8-0.8-1.8-1.8v-4.1h59c1,0,1.8-0.8,1.8-1.8v-79.8h4.2c1,0,1.8,0.8,1.8,1.8v83.9
			C785.1,369.6,784.3,370.4,783.3,370.4z"/>
		<path fill="#FFFFFF" d="M797,296.6v83.9c0,1-0.8,1.8-1.8,1.8h-63.1c-1,0-1.8-0.8-1.8-1.8v-4.1h59c1,0,1.8-0.8,1.8-1.8v-79.8h4.1
			C796.2,294.8,797,295.6,797,296.6z"/>
	</g>
</g>
<g>
	<rect x="238.1" y="480.1" fill="#D1D3D4" width="189.7" height="189.9"/>
	<g>
		<g>
			<rect x="248.4" y="490.2" fill="#7F888D" width="169.2" height="169.2"/>
			<g>
				<path fill="#FFFFFF" d="M269.4,641.4L269.4,641.4c0-2.8,2.1-5.1,5.1-5.1c1.8,0,3,0.6,3.9,1.6l-1.7,1.8c-0.6-0.6-1.2-1.1-2.2-1.1
					c-1.4,0-2.3,1.2-2.3,2.6v0c0,1.5,1,2.7,2.4,2.7c0.9,0,1.5-0.4,2.2-1l1.6,1.6c-0.9,1-2,1.8-3.9,1.8
					C271.6,646.3,269.4,644.1,269.4,641.4z"/>
				<path fill="#FFFFFF" d="M279.5,641.4L279.5,641.4c0-2.8,2.2-5.1,5.2-5.1c3,0,5.2,2.2,5.2,5v0c0,2.8-2.2,5-5.2,5
					C281.7,646.3,279.5,644.1,279.5,641.4z M287.2,641.4L287.2,641.4c0-1.5-1-2.7-2.5-2.7c-1.6,0-2.5,1.2-2.5,2.6v0
					c0,1.4,1,2.7,2.5,2.7C286.3,644,287.2,642.8,287.2,641.4z"/>
				<path fill="#FFFFFF" d="M291.9,636.5h2.7v1.4c0.6-0.8,1.5-1.5,2.8-1.5c1.3,0,2.2,0.6,2.7,1.5c0.8-1,1.9-1.5,3.2-1.5
					c2,0,3.3,1.2,3.3,3.5v6.3h-2.7v-5.4c0-1.3-0.6-2-1.6-2s-1.7,0.7-1.7,2v5.4h-2.7v-5.4c0-1.3-0.6-2-1.6-2s-1.7,0.7-1.7,2v5.4h-2.7
					V636.5z"/>
				<path fill="#FFFFFF" d="M309,636.5h2.7v1.4c0.6-0.8,1.5-1.5,2.8-1.5c1.3,0,2.2,0.6,2.7,1.5c0.8-1,1.9-1.5,3.2-1.5
					c2,0,3.3,1.2,3.3,3.5v6.3H321v-5.4c0-1.3-0.6-2-1.6-2c-1,0-1.7,0.7-1.7,2v5.4H315v-5.4c0-1.3-0.6-2-1.6-2s-1.7,0.7-1.7,2v5.4
					H309V636.5z"/>
				<path fill="#FFFFFF" d="M325.5,643.4L325.5,643.4c0-2.1,1.6-3.1,3.9-3.1c1,0,1.7,0.2,2.4,0.4v-0.2c0-1.1-0.7-1.8-2.1-1.8
					c-1,0-1.8,0.2-2.7,0.5l-0.7-2.1c1.1-0.5,2.1-0.8,3.7-0.8c1.5,0,2.6,0.4,3.3,1.1c0.7,0.7,1,1.8,1,3.1v5.6h-2.6v-1
					c-0.7,0.7-1.6,1.2-2.9,1.2C327,646.3,325.5,645.3,325.5,643.4z M331.8,642.7v-0.5c-0.5-0.2-1.1-0.4-1.7-0.4
					c-1.2,0-1.9,0.5-1.9,1.3v0c0,0.7,0.6,1.2,1.5,1.2C330.9,644.4,331.8,643.7,331.8,642.7z"/>
				<path fill="#FFFFFF" d="M336.7,636.5h2.7v1.4c0.6-0.8,1.4-1.5,2.8-1.5c2.1,0,3.3,1.4,3.3,3.6v6.2h-2.7v-5.4c0-1.3-0.6-2-1.7-2
					c-1,0-1.7,0.7-1.7,2v5.4h-2.7V636.5z"/>
				<path fill="#FFFFFF" d="M347.5,641.3L347.5,641.3c0-3.3,2.1-5,4.4-5c1.5,0,2.4,0.7,3,1.4V633h2.7v13.1h-2.7v-1.4
					c-0.7,0.9-1.6,1.6-3,1.6C349.7,646.3,347.5,644.5,347.5,641.3z M354.9,641.3L354.9,641.3c0-1.6-1.1-2.7-2.3-2.7s-2.4,1-2.4,2.7
					v0c0,1.6,1.1,2.7,2.4,2.7S354.9,642.9,354.9,641.3z"/>
				<path fill="#FFFFFF" d="M365.6,633h2.7v13.1h-2.7V633z"/>
				<path fill="#FFFFFF" d="M371,633h2.9v2.4H371V633z M371.1,636.5h2.7v9.7h-2.7V636.5z"/>
				<path fill="#FFFFFF" d="M376.4,636.5h2.7v1.4c0.6-0.8,1.4-1.5,2.8-1.5c2.1,0,3.3,1.4,3.3,3.6v6.2h-2.7v-5.4c0-1.3-0.6-2-1.7-2
					c-1,0-1.7,0.7-1.7,2v5.4h-2.7V636.5z"/>
				<path fill="#FFFFFF" d="M387.1,641.4L387.1,641.4c0-2.8,2-5.1,4.8-5.1c3.2,0,4.7,2.5,4.7,5.2c0,0.2,0,0.5,0,0.7h-6.7
					c0.3,1.2,1.1,1.9,2.4,1.9c0.9,0,1.6-0.3,2.3-1l1.6,1.4c-0.9,1.1-2.2,1.8-3.9,1.8C389.2,646.3,387.1,644.3,387.1,641.4z
					 M393.9,640.6c-0.2-1.2-0.9-2.1-2-2.1c-1.1,0-1.9,0.8-2.1,2.1H393.9z"/>
			</g>
		</g>
		<g>
			<g>
				<g>
					<path fill="#FFFFFF" d="M376.1,612.9h-85.2c-2.2,0-3.9-1.8-3.9-3.9v-85.2c0-2.2,1.8-3.9,3.9-3.9h85.2c2.2,0,3.9,1.8,3.9,3.9
						v85.2C380,611.1,378.3,612.9,376.1,612.9L376.1,612.9z M294.8,605h77.4v-77.4h-77.4V605L294.8,605z"/>
				</g>
				<g>
					<path fill="#FFFFFF" d="M374.7,548.5h-82.4c-1.1,0-2-0.9-2-2c0-1.1,0.9-2,2-2h82.4c1.1,0,2,0.9,2,2
						C376.7,547.6,375.8,548.5,374.7,548.5L374.7,548.5z"/>
				</g>
				<path fill="#FFFFFF" d="M304.8,531.3c-2.7,0-4.9,2.2-4.9,4.9c0,2.7,2.2,4.9,4.9,4.9c2.7,0,4.9-2.2,4.9-4.9
					C309.7,533.5,307.5,531.3,304.8,531.3L304.8,531.3z"/>
				<path fill="#FFFFFF" d="M318.1,531.3c-2.7,0-4.9,2.2-4.9,4.9c0,2.7,2.2,4.9,4.9,4.9s4.9-2.2,4.9-4.9
					C323.1,533.5,320.8,531.3,318.1,531.3L318.1,531.3z"/>
				<path fill="#FFFFFF" d="M331.5,531.3c-2.7,0-4.9,2.2-4.9,4.9c0,2.7,2.2,4.9,4.9,4.9c2.7,0,4.9-2.2,4.9-4.9
					C336.4,533.5,334.2,531.3,331.5,531.3L331.5,531.3z"/>
			</g>
			<g>
				<g>
					<g>
						<path fill="#FFFFFF" d="M357,592.9h-25c-2.2,0-3.9-1.8-3.9-3.9c0-2.2,1.8-3.9,3.9-3.9h25c2.2,0,3.9,1.8,3.9,3.9
							C360.9,591.1,359.2,592.9,357,592.9L357,592.9z"/>
					</g>
				</g>
				<g>
					<g>
						<path fill="#FFFFFF" d="M310,592.9c-1,0-2-0.4-2.8-1.1c-1.5-1.5-1.5-4,0-5.5l11.4-11.4l-11.4-11.4c-1.5-1.5-1.5-4,0-5.5
							c1.5-1.5,4-1.5,5.5,0L327,572c1.5,1.5,1.5,4,0,5.5l-14.2,14.2C312,592.5,311,592.9,310,592.9L310,592.9z"/>
					</g>
				</g>
			</g>
		</g>
	</g>
</g>
<g>
	<g>
		<g>
			<path fill="#FFFFFF" d="M314.7,457.3c0-0.5,0.2-1,0.5-1.5c0.8-1.1,2.4-1.4,3.5-0.6l16.1,11.7l16.1-11.7c1.1-0.8,2.7-0.6,3.5,0.6
				c0.8,1.1,0.6,2.7-0.6,3.5l-17.5,12.8c-0.9,0.6-2.1,0.6-2.9,0l-17.5-12.8C315.1,458.8,314.7,458.1,314.7,457.3L314.7,457.3z"/>
		</g>
	</g>
	<g>
		<g>
			<path fill="#FFFFFF" d="M314.7,440.7c0-0.5,0.2-1,0.5-1.5c0.8-1.1,2.4-1.4,3.5-0.6l16.1,11.7l16.1-11.7c1.1-0.8,2.7-0.6,3.5,0.6
				c0.8,1.1,0.6,2.7-0.6,3.5l-17.5,12.8c-0.9,0.6-2.1,0.6-2.9,0l-17.5-12.8C315.1,442.2,314.7,441.4,314.7,440.7L314.7,440.7z"/>
		</g>
	</g>
</g>
<g>
	<g>
		<g>
			<path fill="#FFFFFF" d="M443.8,593.3c-0.5,0-1-0.2-1.5-0.5c-1.1-0.8-1.4-2.4-0.6-3.5l11.7-16.1l-11.7-16.1
				c-0.8-1.1-0.6-2.7,0.6-3.5c1.1-0.8,2.7-0.6,3.5,0.6l12.8,17.5c0.6,0.9,0.6,2.1,0,2.9l-12.8,17.5
				C445.3,593,444.5,593.3,443.8,593.3L443.8,593.3z"/>
		</g>
	</g>
	<g>
		<g>
			<path fill="#FFFFFF" d="M427.1,593.3c-0.5,0-1-0.2-1.5-0.5c-1.1-0.8-1.4-2.4-0.6-3.5l11.7-16.1l-11.7-16.1
				c-0.8-1.1-0.6-2.7,0.6-3.5c1.1-0.8,2.7-0.6,3.5,0.6l12.8,17.5c0.6,0.9,0.6,2.1,0,2.9l-12.8,17.5
				C428.7,593,427.9,593.3,427.1,593.3L427.1,593.3z"/>
		</g>
	</g>
</g>
<g>
	<rect x="71.7" y="428.7" fill="#D1D3D4" width="50.1" height="170"/>
	<rect x="71.7" y="548.6" fill="#D1D3D4" width="170.1" height="50.1"/>
	<g>
		<g>
			<g>
				<path fill="#FFFFFF" d="M216,593.5c-0.5,0-1-0.2-1.5-0.5c-1.1-0.8-1.4-2.4-0.6-3.5l11.7-16.1L214,557.3
					c-0.8-1.1-0.6-2.7,0.6-3.5c1.1-0.8,2.7-0.6,3.5,0.6l12.8,17.5c0.6,0.9,0.6,2.1,0,2.9L218,592.4
					C217.6,593.1,216.8,593.5,216,593.5L216,593.5z"/>
			</g>
		</g>
		<g>
			<g>
				<path fill="#FFFFFF" d="M199.4,593.5c-0.5,0-1-0.2-1.5-0.5c-1.1-0.8-1.4-2.4-0.6-3.5l11.7-16.1l-11.7-16.1
					c-0.8-1.1-0.6-2.7,0.6-3.5c1.1-0.8,2.7-0.6,3.5,0.6l12.8,17.5c0.6,0.9,0.6,2.1,0,2.9l-12.8,17.5
					C200.9,593.1,200.2,593.5,199.4,593.5L199.4,593.5z"/>
			</g>
		</g>
	</g>
	<g>
		<g>
			<g>
				<path fill="#FFFFFF" d="M183.5,593.5c-0.5,0-1-0.2-1.5-0.5c-1.1-0.8-1.4-2.4-0.6-3.5l11.7-16.1l-11.7-16.1
					c-0.8-1.1-0.6-2.7,0.6-3.5c1.1-0.8,2.7-0.6,3.5,0.6l12.8,17.5c0.6,0.9,0.6,2.1,0,2.9l-12.8,17.5
					C185.1,593.1,184.3,593.5,183.5,593.5L183.5,593.5z"/>
			</g>
		</g>
		<g>
			<g>
				<path fill="#FFFFFF" d="M166.9,593.5c-0.5,0-1-0.2-1.5-0.5c-1.1-0.8-1.4-2.4-0.6-3.5l11.7-16.1l-11.7-16.1
					c-0.8-1.1-0.6-2.7,0.6-3.5c1.1-0.8,2.7-0.6,3.5,0.6l12.8,17.5c0.6,0.9,0.6,2.1,0,2.9l-12.8,17.5
					C168.4,593.1,167.7,593.5,166.9,593.5L166.9,593.5z"/>
			</g>
		</g>
	</g>
	<g>
		<g>
			<g>
				<path fill="#FFFFFF" d="M76.7,457.9c0-0.5,0.2-1,0.5-1.5c0.8-1.1,2.4-1.4,3.5-0.6l16.1,11.7l16.1-11.7c1.1-0.8,2.7-0.6,3.5,0.6
					c0.8,1.1,0.6,2.7-0.6,3.5l-17.5,12.8c-0.9,0.6-2.1,0.6-2.9,0l-17.5-12.8C77.1,459.4,76.7,458.7,76.7,457.9L76.7,457.9z"/>
			</g>
		</g>
		<g>
			<g>
				<path fill="#FFFFFF" d="M76.7,441.3c0-0.5,0.2-1,0.5-1.5c0.8-1.1,2.4-1.4,3.5-0.6L96.7,451l16.1-11.7c1.1-0.8,2.7-0.6,3.5,0.6
					c0.8,1.1,0.6,2.7-0.6,3.5l-17.5,12.8c-0.9,0.6-2.1,0.6-2.9,0l-17.5-12.8C77.1,442.8,76.7,442.1,76.7,441.3L76.7,441.3z"/>
			</g>
		</g>
	</g>
	<g>
		<g>
			<g>
				<path fill="#FFFFFF" d="M76.7,491.6c0-0.5,0.2-1,0.5-1.5c0.8-1.1,2.4-1.4,3.5-0.6l16.1,11.7l16.1-11.7c1.1-0.8,2.7-0.6,3.5,0.6
					c0.8,1.1,0.6,2.7-0.6,3.5l-17.5,12.8c-0.9,0.6-2.1,0.6-2.9,0l-17.5-12.8C77.1,493.1,76.7,492.4,76.7,491.6L76.7,491.6z"/>
			</g>
		</g>
		<g>
			<g>
				<path fill="#FFFFFF" d="M76.7,475c0-0.5,0.2-1,0.5-1.5c0.8-1.1,2.4-1.4,3.5-0.6l16.1,11.7l16.1-11.7c1.1-0.8,2.7-0.6,3.5,0.6
					c0.8,1.1,0.6,2.7-0.6,3.5l-17.5,12.8c-0.9,0.6-2.1,0.6-2.9,0L77.7,477C77.1,476.5,76.7,475.7,76.7,475L76.7,475z"/>
			</g>
		</g>
	</g>
</g>
<g>
	<g>
		<g>
			<path fill="#FFFFFF" d="M436.1,364.9c0-0.7,0.6-1.3,1.3-1.3h32.1c0.7,0,1.3,0.6,1.3,1.3c0,0.7-0.6,1.3-1.3,1.3h-32.1
				C436.6,366.2,436.1,365.6,436.1,364.9L436.1,364.9z"/>
		</g>
		<g>
			<path fill="#FFFFFF" d="M436.1,378.8c0-0.7,0.6-1.3,1.3-1.3h32.1c0.7,0,1.3,0.6,1.3,1.3c0,0.7-0.6,1.3-1.3,1.3h-32.1
				C436.6,380.1,436.1,379.5,436.1,378.8L436.1,378.8z"/>
		</g>
		<g>
			<path fill="#FFFFFF" d="M436.1,392.7c0-0.7,0.6-1.3,1.3-1.3h32.1c0.7,0,1.3,0.6,1.3,1.3c0,0.7-0.6,1.3-1.3,1.3h-32.1
				C436.6,394,436.1,393.4,436.1,392.7L436.1,392.7z"/>
		</g>
		<g>
			<polygon fill="#FFFFFF" points="451.9,368.7 451.9,361.1 471,361.1 471,368.7 451.9,368.7 			"/>
		</g>
		<g>
			<polygon fill="#FFFFFF" points="451.9,382.6 451.9,375 471,375 471,382.6 451.9,382.6 			"/>
		</g>
		<g>
			<polygon fill="#FFFFFF" points="451.9,396.5 451.9,388.9 471,388.9 471,396.5 451.9,396.5 			"/>
		</g>
	</g>
	<g>
		<g>
			<path fill="#FFFFFF" d="M436.1,323.1c0-0.7,0.6-1.3,1.3-1.3h32.1c0.7,0,1.3,0.6,1.3,1.3c0,0.7-0.6,1.3-1.3,1.3h-32.1
				C436.6,324.3,436.1,323.8,436.1,323.1L436.1,323.1z"/>
		</g>
		<g>
			<path fill="#FFFFFF" d="M436.1,337c0-0.7,0.6-1.3,1.3-1.3h32.1c0.7,0,1.3,0.6,1.3,1.3c0,0.7-0.6,1.3-1.3,1.3h-32.1
				C436.6,338.2,436.1,337.7,436.1,337L436.1,337z"/>
		</g>
		<g>
			<path fill="#FFFFFF" d="M436.1,350.9c0-0.7,0.6-1.3,1.3-1.3h32.1c0.7,0,1.3,0.6,1.3,1.3c0,0.7-0.6,1.3-1.3,1.3h-32.1
				C436.6,352.1,436.1,351.6,436.1,350.9L436.1,350.9z"/>
		</g>
		<g>
			<polygon fill="#FFFFFF" points="451.9,326.9 451.9,319.3 471,319.3 471,326.9 451.9,326.9 			"/>
		</g>
		<g>
			<polygon fill="#FFFFFF" points="451.9,340.8 451.9,333.2 471,333.2 471,340.8 451.9,340.8 			"/>
		</g>
		<g>
			<polygon fill="#FFFFFF" points="451.9,354.7 451.9,347.1 471,347.1 471,354.7 451.9,354.7 			"/>
		</g>
	</g>
	<g>
		<g>
			<path fill="#FFFFFF" d="M436.1,281.2c0-0.7,0.6-1.3,1.3-1.3h32.1c0.7,0,1.3,0.6,1.3,1.3c0,0.7-0.6,1.3-1.3,1.3h-32.1
				C436.6,282.5,436.1,281.9,436.1,281.2L436.1,281.2z"/>
		</g>
		<g>
			<path fill="#FFFFFF" d="M436.1,295.1c0-0.7,0.6-1.3,1.3-1.3h32.1c0.7,0,1.3,0.6,1.3,1.3c0,0.7-0.6,1.3-1.3,1.3h-32.1
				C436.6,296.4,436.1,295.8,436.1,295.1L436.1,295.1z"/>
		</g>
		<g>
			<path fill="#FFFFFF" d="M436.1,309c0-0.7,0.6-1.3,1.3-1.3h32.1c0.7,0,1.3,0.6,1.3,1.3c0,0.7-0.6,1.3-1.3,1.3h-32.1
				C436.6,310.3,436.1,309.7,436.1,309L436.1,309z"/>
		</g>
		<g>
			<polygon fill="#FFFFFF" points="451.9,285 451.9,277.4 471,277.4 471,285 451.9,285 			"/>
		</g>
		<g>
			<polygon fill="#FFFFFF" points="451.9,298.9 451.9,291.3 471,291.3 471,298.9 451.9,298.9 			"/>
		</g>
		<g>
			<polygon fill="#FFFFFF" points="451.9,312.8 451.9,305.2 471,305.2 471,312.8 451.9,312.8 			"/>
		</g>
	</g>
</g>
<g>
	<g>
		<rect x="486" y="251.8" fill="#5D6E7E" width="169.2" height="169.2"/>
		<g>
			<path fill="#FFFFFF" d="M521.2,402.9L521.2,402.9c0-2.8,2.1-5.1,5.1-5.1c1.8,0,3,0.6,3.9,1.6l-1.7,1.8c-0.6-0.6-1.2-1.1-2.2-1.1
				c-1.4,0-2.3,1.2-2.3,2.6v0c0,1.5,1,2.7,2.4,2.7c0.9,0,1.5-0.4,2.2-1l1.6,1.6c-0.9,1-2,1.8-3.9,1.8
				C523.3,407.9,521.2,405.7,521.2,402.9z"/>
			<path fill="#FFFFFF" d="M531.2,402.9L531.2,402.9c0-2.8,2.2-5.1,5.2-5.1c3,0,5.2,2.2,5.2,5v0c0,2.8-2.2,5-5.2,5
				C533.4,407.9,531.2,405.7,531.2,402.9z M538.9,402.9L538.9,402.9c0-1.5-1-2.7-2.5-2.7c-1.6,0-2.5,1.2-2.5,2.6v0
				c0,1.4,1,2.7,2.5,2.7C538,405.5,538.9,404.3,538.9,402.9z"/>
			<path fill="#FFFFFF" d="M543.1,402.9L543.1,402.9c0-2.8,2.2-5.1,5.2-5.1c3,0,5.2,2.2,5.2,5v0c0,2.8-2.2,5-5.2,5
				C545.3,407.9,543.1,405.7,543.1,402.9z M550.9,402.9L550.9,402.9c0-1.5-1-2.7-2.5-2.7c-1.6,0-2.5,1.2-2.5,2.6v0
				c0,1.4,1,2.7,2.5,2.7C549.9,405.5,550.9,404.3,550.9,402.9z"/>
			<path fill="#FFFFFF" d="M555.6,394.5h2.7v7l3.2-3.5h3.3l-3.7,3.8l3.8,5.9h-3.1l-2.5-3.9l-1,1v2.9h-2.7V394.5z"/>
			<path fill="#FFFFFF" d="M568.9,406.4v1.3h-2.7v-13.1h2.7v4.9c0.7-0.9,1.6-1.6,3-1.6c2.3,0,4.4,1.8,4.4,5v0c0,3.2-2.1,5-4.4,5
				C570.5,407.9,569.6,407.2,568.9,406.4z M573.6,402.9L573.6,402.9c0-1.6-1.1-2.7-2.4-2.7c-1.3,0-2.3,1.1-2.3,2.7v0
				c0,1.6,1.1,2.7,2.3,2.7C572.5,405.5,573.6,404.5,573.6,402.9z"/>
			<path fill="#FFFFFF" d="M577.9,402.9L577.9,402.9c0-2.8,2.2-5.1,5.2-5.1c3,0,5.2,2.2,5.2,5v0c0,2.8-2.2,5-5.2,5
				C580.1,407.9,577.9,405.7,577.9,402.9z M585.6,402.9L585.6,402.9c0-1.5-1-2.7-2.5-2.7c-1.6,0-2.5,1.2-2.5,2.6v0
				c0,1.4,1,2.7,2.5,2.7C584.7,405.5,585.6,404.3,585.6,402.9z"/>
			<path fill="#FFFFFF" d="M589.8,402.9L589.8,402.9c0-2.8,2.2-5.1,5.2-5.1c3,0,5.2,2.2,5.2,5v0c0,2.8-2.2,5-5.2,5
				C592.1,407.9,589.8,405.7,589.8,402.9z M597.6,402.9L597.6,402.9c0-1.5-1-2.7-2.5-2.7c-1.6,0-2.5,1.2-2.5,2.6v0
				c0,1.4,1,2.7,2.5,2.7C596.6,405.5,597.6,404.3,597.6,402.9z"/>
			<path fill="#FFFFFF" d="M602.3,394.5h2.7v7l3.2-3.5h3.3l-3.7,3.8l3.8,5.9h-3.1l-2.5-3.9l-1,1v2.9h-2.7V394.5z"/>
			<path fill="#FFFFFF" d="M612.2,406.4l1.2-1.8c1,0.8,2.1,1.2,3,1.2c0.8,0,1.2-0.3,1.2-0.7v0c0-0.6-0.9-0.8-2-1.1
				c-1.4-0.4-2.9-1-2.9-2.9v0c0-2,1.6-3.1,3.5-3.1c1.2,0,2.6,0.4,3.6,1.1l-1,1.9c-1-0.6-1.9-0.9-2.6-0.9c-0.7,0-1,0.3-1,0.7v0
				c0,0.5,0.9,0.8,2,1.2c1.4,0.5,2.9,1.1,2.9,2.9v0c0,2.1-1.6,3.1-3.7,3.1C614.9,407.9,613.4,407.4,612.2,406.4z"/>
		</g>
	</g>
	<g>
		<g>
			<path fill="#FFFFFF" d="M590.1,320.7h-31.4c-1.1,0-2-0.9-2-2v-17.7c0-1.1,0.9-2,2-2h31.4c1.1,0,2,0.9,2,2v17.7
				C592.1,319.8,591.2,320.7,590.1,320.7L590.1,320.7z M560.7,316.6H588V303h-27.3V316.6L560.7,316.6z"/>
		</g>
		<g>
			<g>
				<path fill="#FFFFFF" d="M607.3,376.8H537c-2.3,0-4.1-1.8-4.1-4.1v-88.3c0-2.3,1.8-4.1,4.1-4.1h70.2c2.3,0,4.1,1.8,4.1,4.1v88.3
					C611.4,375,609.5,376.8,607.3,376.8L607.3,376.8z M541.1,368.7h62v-80.1h-62V368.7L541.1,368.7z"/>
			</g>
			<g>
				<path fill="#FFFFFF" d="M544.2,305.1h-14.3c-2.3,0-4.1-1.8-4.1-4.1s1.8-4.1,4.1-4.1h14.3c2.3,0,4.1,1.8,4.1,4.1
					S546.5,305.1,544.2,305.1L544.2,305.1z"/>
			</g>
			<g>
				<path fill="#FFFFFF" d="M544.2,323.3h-14.3c-2.3,0-4.1-1.8-4.1-4.1c0-2.3,1.8-4.1,4.1-4.1h14.3c2.3,0,4.1,1.8,4.1,4.1
					C548.3,321.5,546.5,323.3,544.2,323.3L544.2,323.3z"/>
			</g>
			<g>
				<path fill="#FFFFFF" d="M544.2,341.6h-14.3c-2.3,0-4.1-1.8-4.1-4.1c0-2.3,1.8-4.1,4.1-4.1h14.3c2.3,0,4.1,1.8,4.1,4.1
					C548.3,339.8,546.5,341.6,544.2,341.6L544.2,341.6z"/>
			</g>
			<g>
				<path fill="#FFFFFF" d="M544.2,359.9h-14.3c-2.3,0-4.1-1.8-4.1-4.1c0-2.3,1.8-4.1,4.1-4.1h14.3c2.3,0,4.1,1.8,4.1,4.1
					C548.3,358.1,546.5,359.9,544.2,359.9L544.2,359.9z"/>
			</g>
		</g>
	</g>
</g>
</svg>
