<?xml version="1.0" encoding="utf-8"?>
<!-- Generator: Adobe Illustrator 19.1.0, SVG Export Plug-In . SVG Version: 6.00 Build 0)  -->
<svg version="1.1" id="Layer_1" xmlns="http://www.w3.org/2000/svg" xmlns:xlink="http://www.w3.org/1999/xlink" x="0px" y="0px"
	 viewBox="0 0 94.2 92.7" enable-background="new 0 0 94.2 92.7" xml:space="preserve">
<g>
	<g>
		<path fill="#404447" d="M90.2,92.7H4c-2.2,0-4-1.8-4-4V4c0-2.2,1.8-4,4-4h86.3c2.2,0,4,1.8,4,4v84.7
			C94.2,90.9,92.4,92.7,90.2,92.7L90.2,92.7z M7.9,84.7h78.3V7.9H7.9V84.7L7.9,84.7z"/>
	</g>
	<g>
		<g>
			<g>
				<path fill="#404447" d="M33.2,48.7c-7.7,0-14-6.3-14-14c0-7.7,6.3-14,14-14c7.7,0,14,6.3,14,14C47.1,42.4,40.9,48.7,33.2,48.7
					L33.2,48.7z M33.2,25.4c-5.1,0-9.3,4.2-9.3,9.3c0,5.1,4.2,9.3,9.3,9.3c5.2,0,9.3-4.2,9.3-9.3C42.5,29.6,38.3,25.4,33.2,25.4
					L33.2,25.4z"/>
			</g>
			<g>
				<g>
					<path fill="#404447" d="M24.4,28.2c-0.6,0-1.2-0.2-1.6-0.7l-3.2-3.2c-0.9-0.9-0.9-2.4,0-3.3c0.9-0.9,2.4-0.9,3.3,0l3.2,3.2
						c0.9,0.9,0.9,2.4,0,3.3C25.6,28,25,28.2,24.4,28.2L24.4,28.2z"/>
				</g>
				<g>
					<path fill="#404447" d="M45.2,49.1c-0.6,0-1.2-0.2-1.6-0.7l-3.8-3.8c-0.9-0.9-0.9-2.4,0-3.3c0.9-0.9,2.4-0.9,3.3,0l3.8,3.8
						c0.9,0.9,0.9,2.4,0,3.3C46.4,48.8,45.8,49.1,45.2,49.1L45.2,49.1z"/>
				</g>
			</g>
			<g>
				<g>
					<path fill="#404447" d="M42,28.2c-0.6,0-1.2-0.2-1.6-0.7c-0.9-0.9-0.9-2.4,0-3.3l3.2-3.2c0.9-0.9,2.4-0.9,3.3,0
						c0.9,0.9,0.9,2.4,0,3.3l-3.2,3.2C43.1,28,42.6,28.2,42,28.2L42,28.2z"/>
				</g>
				<g>
					<path fill="#404447" d="M21.1,49.1c-0.6,0-1.2-0.2-1.6-0.7c-0.9-0.9-0.9-2.4,0-3.3l3.8-3.8c0.9-0.9,2.4-0.9,3.3,0
						c0.9,0.9,0.9,2.4,0,3.3l-3.8,3.8C22.3,48.8,21.7,49.1,21.1,49.1L21.1,49.1z"/>
				</g>
			</g>
			<g>
				<g>
					<path fill="#404447" d="M33.2,24.6c-1.3,0-2.3-1-2.3-2.3v-4.6c0-1.3,1-2.3,2.3-2.3c1.3,0,2.3,1,2.3,2.3v4.6
						C35.5,23.6,34.5,24.6,33.2,24.6L33.2,24.6z"/>
				</g>
				<g>
					<path fill="#404447" d="M33.2,54L33.2,54c-1.3,0-2.3-1-2.3-2.3l0-5.4c0-1.3,1-2.3,2.3-2.3l0,0c1.3,0,2.3,1,2.3,2.3l0,5.4
						C35.5,53,34.5,54,33.2,54L33.2,54z"/>
				</g>
			</g>
			<g>
				<g>
					<path fill="#404447" d="M50.2,37h-4.6c-1.3,0-2.3-1-2.3-2.3c0-1.3,1-2.3,2.3-2.3h4.6c1.3,0,2.3,1,2.3,2.3
						C52.5,36,51.5,37,50.2,37L50.2,37z"/>
				</g>
				<g>
					<path fill="#404447" d="M21.6,37h-5.4c-1.3,0-2.3-1-2.3-2.3c0-1.3,1-2.3,2.3-2.3h5.4c1.3,0,2.3,1,2.3,2.3
						C23.9,36,22.9,37,21.6,37L21.6,37z"/>
				</g>
			</g>
		</g>
		<g>
			<g>
				<path fill="#404447" d="M65.7,64.4c-5.9,0-10.6-4.8-10.6-10.6c0-5.9,4.8-10.6,10.6-10.6c5.9,0,10.6,4.8,10.6,10.6
					C76.3,59.6,71.5,64.4,65.7,64.4L65.7,64.4z M65.7,46.7c-3.9,0-7.1,3.2-7.1,7.1c0,3.9,3.2,7.1,7.1,7.1c3.9,0,7.1-3.2,7.1-7.1
					C72.8,49.8,69.6,46.7,65.7,46.7L65.7,46.7z"/>
			</g>
			<g>
				<g>
					<path fill="#404447" d="M59,48.8c-0.5,0-0.9-0.2-1.2-0.5l-2.5-2.5c-0.7-0.7-0.7-1.8,0-2.5c0.7-0.7,1.8-0.7,2.5,0l2.5,2.5
						c0.7,0.7,0.7,1.8,0,2.5C59.9,48.7,59.5,48.8,59,48.8L59,48.8z"/>
				</g>
				<g>
					<path fill="#404447" d="M74.8,64.7c-0.5,0-0.9-0.2-1.2-0.5l-2.9-2.9c-0.7-0.7-0.7-1.8,0-2.5c0.7-0.7,1.8-0.7,2.5,0l2.9,2.9
						c0.7,0.7,0.7,1.8,0,2.5C75.7,64.5,75.3,64.7,74.8,64.7L74.8,64.7z"/>
				</g>
			</g>
			<g>
				<g>
					<path fill="#404447" d="M72.4,48.8c-0.4,0-0.9-0.2-1.2-0.5c-0.7-0.7-0.7-1.8,0-2.5l2.5-2.5c0.7-0.7,1.8-0.7,2.5,0
						c0.7,0.7,0.7,1.8,0,2.5l-2.5,2.5C73.3,48.7,72.8,48.8,72.4,48.8L72.4,48.8z"/>
				</g>
				<g>
					<path fill="#404447" d="M56.5,64.7c-0.4,0-0.9-0.2-1.2-0.5c-0.7-0.7-0.7-1.8,0-2.5l2.9-2.9c0.7-0.7,1.8-0.7,2.5,0
						c0.7,0.7,0.7,1.8,0,2.5l-2.9,2.9C57.4,64.5,57,64.7,56.5,64.7L56.5,64.7z"/>
				</g>
			</g>
			<g>
				<g>
					<path fill="#404447" d="M65.7,46.1c-1,0-1.8-0.8-1.8-1.8v-3.5c0-1,0.8-1.8,1.8-1.8c1,0,1.8,0.8,1.8,1.8v3.5
						C67.4,45.3,66.7,46.1,65.7,46.1L65.7,46.1z"/>
				</g>
				<g>
					<path fill="#404447" d="M65.7,68.5L65.7,68.5c-1,0-1.8-0.8-1.8-1.8l0-4.1c0-1,0.8-1.8,1.8-1.8l0,0c1,0,1.8,0.8,1.8,1.8l0,4.1
						C67.4,67.7,66.6,68.5,65.7,68.5L65.7,68.5z"/>
				</g>
			</g>
			<g>
				<g>
					<path fill="#404447" d="M78.6,55.5h-3.5c-1,0-1.8-0.8-1.8-1.8c0-1,0.8-1.8,1.8-1.8h3.5c1,0,1.8,0.8,1.8,1.8
						C80.4,54.7,79.6,55.5,78.6,55.5L78.6,55.5z"/>
				</g>
				<g>
					<path fill="#404447" d="M56.9,55.5h-4.1c-1,0-1.8-0.8-1.8-1.8c0-1,0.8-1.8,1.8-1.8h4.1c1,0,1.8,0.8,1.8,1.8
						C58.6,54.7,57.8,55.5,56.9,55.5L56.9,55.5z"/>
				</g>
			</g>
		</g>
		<g>
			<g>
				<path fill="#404447" d="M40,74.4c-4.3,0-7.7-3.5-7.7-7.7c0-4.3,3.5-7.7,7.7-7.7c4.3,0,7.7,3.5,7.7,7.7
					C47.7,70.9,44.2,74.4,40,74.4L40,74.4z M40,61.5c-2.8,0-5.2,2.3-5.2,5.2c0,2.8,2.3,5.2,5.2,5.2c2.8,0,5.2-2.3,5.2-5.2
					C45.1,63.8,42.8,61.5,40,61.5L40,61.5z"/>
			</g>
			<g>
				<g>
					<path fill="#404447" d="M35.1,63.1c-0.3,0-0.7-0.1-0.9-0.4l-1.8-1.8c-0.5-0.5-0.5-1.3,0-1.8c0.5-0.5,1.3-0.5,1.8,0l1.8,1.8
						c0.5,0.5,0.5,1.3,0,1.8C35.8,62.9,35.4,63.1,35.1,63.1L35.1,63.1z"/>
				</g>
				<g>
					<path fill="#404447" d="M46.6,74.6c-0.3,0-0.7-0.1-0.9-0.4l-2.1-2.1c-0.5-0.5-0.5-1.3,0-1.8c0.5-0.5,1.3-0.5,1.8,0l2.1,2.1
						c0.5,0.5,0.5,1.3,0,1.8C47.3,74.5,46.9,74.6,46.6,74.6L46.6,74.6z"/>
				</g>
			</g>
			<g>
				<g>
					<path fill="#404447" d="M44.8,63.1c-0.3,0-0.7-0.1-0.9-0.4c-0.5-0.5-0.5-1.3,0-1.8l1.8-1.8c0.5-0.5,1.3-0.5,1.8,0
						c0.5,0.5,0.5,1.3,0,1.8l-1.8,1.8C45.5,62.9,45.2,63.1,44.8,63.1L44.8,63.1z"/>
				</g>
				<g>
					<path fill="#404447" d="M33.3,74.6c-0.3,0-0.7-0.1-0.9-0.4c-0.5-0.5-0.5-1.3,0-1.8l2.1-2.1c0.5-0.5,1.3-0.5,1.8,0
						c0.5,0.5,0.5,1.3,0,1.8l-2.1,2.1C34,74.5,33.6,74.6,33.3,74.6L33.3,74.6z"/>
				</g>
			</g>
			<g>
				<g>
					<path fill="#404447" d="M40,61.1c-0.7,0-1.3-0.6-1.3-1.3v-2.5c0-0.7,0.6-1.3,1.3-1.3c0.7,0,1.3,0.6,1.3,1.3v2.5
						C41.3,60.5,40.7,61.1,40,61.1L40,61.1z"/>
				</g>
				<g>
					<path fill="#404447" d="M40,77.3L40,77.3c-0.7,0-1.3-0.6-1.3-1.3l0-3c0-0.7,0.6-1.3,1.3-1.3l0,0c0.7,0,1.3,0.6,1.3,1.3l0,3
						C41.3,76.8,40.7,77.3,40,77.3L40,77.3z"/>
				</g>
			</g>
			<g>
				<g>
					<path fill="#404447" d="M49.4,67.9h-2.5c-0.7,0-1.3-0.6-1.3-1.3c0-0.7,0.6-1.3,1.3-1.3h2.5c0.7,0,1.3,0.6,1.3,1.3
						C50.7,67.4,50.1,67.9,49.4,67.9L49.4,67.9z"/>
				</g>
				<g>
					<path fill="#404447" d="M33.6,67.9h-3c-0.7,0-1.3-0.6-1.3-1.3c0-0.7,0.6-1.3,1.3-1.3h3c0.7,0,1.3,0.6,1.3,1.3
						C34.8,67.4,34.3,67.9,33.6,67.9L33.6,67.9z"/>
				</g>
			</g>
		</g>
	</g>
</g>
</svg>
