<?xml version="1.0" encoding="utf-8"?>
<!-- Generator: Adobe Illustrator 18.1.1, SVG Export Plug-In . SVG Version: 6.00 Build 0)  -->
<svg version="1.1" id="Layer_1" xmlns="http://www.w3.org/2000/svg" xmlns:xlink="http://www.w3.org/1999/xlink" x="0px" y="0px"
	 viewBox="0 0 769.2 886.5" enable-background="new 0 0 769.2 886.5" xml:space="preserve">
<g>
	<g>
		<g>
			<rect x="302" y="0" fill="#FFFFFF" width="169.2" height="169.2"/>
			<g>
				<path fill="#445464" d="M361.4,143.3h2.6l5.9,7.8v-7.8h2.7v12.6h-2.4l-6.1-8v8h-2.7V143.3z"/>
				<path fill="#445464" d="M375.3,157.8l0.9-2.1c1,0.6,2,0.9,3.3,0.9c1.9,0,2.8-0.9,2.8-2.6v-0.5c-0.8,1-1.7,1.6-3.2,1.6
					c-2.3,0-4.3-1.6-4.3-4.5v0c0-2.9,2.1-4.5,4.3-4.5c1.5,0,2.4,0.6,3.1,1.4v-1.3h2.7v7.5c0,1.7-0.4,3-1.2,3.8
					c-0.9,0.9-2.3,1.3-4.2,1.3C378,158.8,376.6,158.5,375.3,157.8z M382.3,150.6L382.3,150.6c0-1.4-1-2.3-2.4-2.3
					c-1.3,0-2.3,0.9-2.3,2.2v0c0,1.3,1,2.2,2.3,2.2C381.3,152.8,382.3,151.9,382.3,150.6z"/>
				<path fill="#445464" d="M387.5,142.8h2.9v2.4h-2.9V142.8z M387.6,146.2h2.7v9.7h-2.7V146.2z"/>
				<path fill="#445464" d="M392.9,146.2h2.7v1.4c0.6-0.8,1.4-1.5,2.8-1.5c2.1,0,3.3,1.4,3.3,3.6v6.2H399v-5.4c0-1.3-0.6-2-1.7-2
					c-1,0-1.7,0.7-1.7,2v5.4h-2.7V146.2z"/>
				<path fill="#445464" d="M406.7,151l-3.3-4.8h2.9l1.8,2.8l1.8-2.8h2.9l-3.3,4.7l3.4,5H410l-1.9-3l-1.9,3h-2.9L406.7,151z"/>
			</g>
		</g>
	</g>
	<g>
		<g>
			<path fill="#445464" d="M437.7,133.4H332.9c-2.7,0-4.8-2.2-4.8-4.8v-103c0-2.7,2.2-4.8,4.8-4.8h104.8c2.7,0,4.8,2.2,4.8,4.8v103
				C442.6,131.2,440.4,133.4,437.7,133.4L437.7,133.4z M337.7,123.7h95.2V30.4h-95.2V123.7L337.7,123.7z"/>
		</g>
		<g>
			<g>
				<path fill="#445464" d="M381.7,81.9c-2-2-2-5.2,0-7.1c2-2,5.2-2,7.1,0c2,2,2,5.2,0,7.1C386.9,83.8,383.7,83.8,381.7,81.9
					L381.7,81.9z M386.9,76.7c-0.9-0.9-2.3-0.9-3.2,0c-0.9,0.9-0.9,2.4,0,3.2c0.9,0.9,2.4,0.9,3.2,0C387.8,79,387.8,77.5,386.9,76.7
					L386.9,76.7z"/>
			</g>
			<g>
				<path fill="#445464" d="M391.7,111.4h-13.1c-1.4,0-2.5-1.1-2.5-2.5V95.8c0-1.4,1.1-2.5,2.5-2.5h13.1c1.4,0,2.5,1.1,2.5,2.5v13.1
					C394.3,110.3,393.1,111.4,391.7,111.4L391.7,111.4z M381.2,106.4h8v-8h-8V106.4L381.2,106.4z"/>
			</g>
			<g>
				<path fill="#445464" d="M391.8,62.8h-13.1c-1.4,0-2.5-1.1-2.5-2.5V47.2c0-1.4,1.1-2.5,2.5-2.5h13.1c1.4,0,2.5,1.1,2.5,2.5v13.1
					C394.4,61.7,393.2,62.8,391.8,62.8L391.8,62.8z M381.3,57.8h8v-8h-8V57.8L381.3,57.8z"/>
			</g>
			<g>
				<path fill="#445464" d="M367.7,111.4h-13.1c-1.4,0-2.5-1.1-2.5-2.5V95.8c0-1.4,1.1-2.5,2.5-2.5h13.1c1.4,0,2.5,1.1,2.5,2.5v13.1
					C370.3,110.3,369.1,111.4,367.7,111.4L367.7,111.4z M357.2,106.4h8v-8h-8V106.4L357.2,106.4z"/>
			</g>
			<g>
				<path fill="#445464" d="M415.9,111.4h-13.1c-1.4,0-2.5-1.1-2.5-2.5V95.8c0-1.4,1.1-2.5,2.5-2.5h13.1c1.4,0,2.5,1.1,2.5,2.5v13.1
					C418.4,110.3,417.3,111.4,415.9,111.4L415.9,111.4z M405.4,106.4h8v-8h-8V106.4L405.4,106.4z"/>
			</g>
			<rect x="389.2" y="77.2" fill="#445464" width="21.6" height="2.1"/>
			<rect x="359.2" y="77.2" fill="#445464" width="21.6" height="2.1"/>
			<rect x="408.7" y="78.7" fill="#445464" width="2" height="15.2"/>
			<rect x="359.2" y="78.7" fill="#445464" width="2.2" height="15.3"/>
			<rect x="384.2" y="81.1" fill="#445464" width="2" height="15.2"/>
			<rect x="384.3" y="60.1" fill="#445464" width="2" height="15.2"/>
		</g>
	</g>
	<g>
		<g>
			<rect x="600" y="717.2" fill="#FFFFFF" width="169.2" height="169.2"/>
			<g>
				<path fill="#445464" d="M633.9,866.9L633.9,866.9c0-3.6,2.7-6.6,6.6-6.6c2.4,0,3.8,0.8,5,1.9l-1.8,2c-1-0.9-2-1.4-3.2-1.4
					c-2.1,0-3.7,1.8-3.7,3.9v0c0,2.2,1.5,4,3.7,4c1.4,0,2.3-0.6,3.3-1.5l1.8,1.8c-1.3,1.4-2.7,2.3-5.2,2.3
					C636.6,873.4,633.9,870.5,633.9,866.9z"/>
				<path fill="#445464" d="M646.8,868.4L646.8,868.4c0-2.8,2.2-5.1,5.2-5.1c3,0,5.2,2.2,5.2,5v0c0,2.8-2.2,5-5.2,5
					C649,873.4,646.8,871.1,646.8,868.4z M654.5,868.4L654.5,868.4c0-1.5-1-2.7-2.5-2.7c-1.6,0-2.5,1.2-2.5,2.6v0
					c0,1.4,1,2.7,2.5,2.7C653.6,871,654.5,869.8,654.5,868.4z"/>
				<path fill="#445464" d="M658.7,868.4L658.7,868.4c0-2.8,2.2-5.1,5.2-5.1c3,0,5.2,2.2,5.2,5v0c0,2.8-2.2,5-5.2,5
					C660.9,873.4,658.7,871.1,658.7,868.4z M666.5,868.4L666.5,868.4c0-1.5-1-2.7-2.5-2.7c-1.6,0-2.5,1.2-2.5,2.6v0
					c0,1.4,1,2.7,2.5,2.7C665.5,871,666.5,869.8,666.5,868.4z"/>
				<path fill="#445464" d="M671.1,860h2.7v7l3.2-3.5h3.3l-3.7,3.8l3.8,5.9h-3.1l-2.5-3.9l-1,1v2.9h-2.7V860z"/>
				<path fill="#445464" d="M684.5,871.9v1.3h-2.7V860h2.7v4.9c0.7-0.9,1.6-1.6,3-1.6c2.3,0,4.4,1.8,4.4,5v0c0,3.2-2.1,5-4.4,5
					C686.1,873.3,685.2,872.7,684.5,871.9z M689.2,868.3L689.2,868.3c0-1.6-1.1-2.7-2.4-2.7s-2.3,1.1-2.3,2.7v0
					c0,1.6,1.1,2.7,2.3,2.7S689.2,870,689.2,868.3z"/>
				<path fill="#445464" d="M693.5,868.4L693.5,868.4c0-2.8,2.2-5.1,5.2-5.1c3,0,5.2,2.2,5.2,5v0c0,2.8-2.2,5-5.2,5
					C695.7,873.4,693.5,871.1,693.5,868.4z M701.2,868.4L701.2,868.4c0-1.5-1-2.7-2.5-2.7c-1.6,0-2.5,1.2-2.5,2.6v0
					c0,1.4,1,2.7,2.5,2.7C700.3,871,701.2,869.8,701.2,868.4z"/>
				<path fill="#445464" d="M705.4,868.4L705.4,868.4c0-2.8,2.2-5.1,5.2-5.1c3,0,5.2,2.2,5.2,5v0c0,2.8-2.2,5-5.2,5
					C707.6,873.4,705.4,871.1,705.4,868.4z M713.2,868.4L713.2,868.4c0-1.5-1-2.7-2.5-2.7c-1.6,0-2.5,1.2-2.5,2.6v0
					c0,1.4,1,2.7,2.5,2.7C712.2,871,713.2,869.8,713.2,868.4z"/>
				<path fill="#445464" d="M717.9,860h2.7v7l3.2-3.5h3.3l-3.7,3.8l3.8,5.9h-3.1l-2.5-3.9l-1,1v2.9h-2.7V860z"/>
				<path fill="#445464" d="M727.8,871.9l1.2-1.8c1,0.8,2.1,1.2,3,1.2c0.8,0,1.2-0.3,1.2-0.7v0c0-0.6-0.9-0.8-2-1.1
					c-1.4-0.4-2.9-1-2.9-2.9v0c0-2,1.6-3.1,3.5-3.1c1.2,0,2.6,0.4,3.6,1.1l-1,1.9c-1-0.6-1.9-0.9-2.6-0.9c-0.7,0-1,0.3-1,0.7v0
					c0,0.5,0.9,0.8,2,1.2c1.3,0.5,2.9,1.1,2.9,2.9v0c0,2.1-1.6,3.1-3.7,3.1C730.5,873.3,729,872.9,727.8,871.9z"/>
			</g>
		</g>
		<g>
			<path fill="#445464" d="M684.3,823.1c14.7,0,27.1-3.9,31.5-9.4v-8.6c-0.2-0.2-0.3-0.4-0.5-0.6c-4.3,5.5-16.8,9.5-31.5,9.5
				c-14.1,0-26.1-3.6-30.9-8.7c-0.1,0-0.1,0.1-0.1,0.1v8.2C656.9,819.1,669.5,823.1,684.3,823.1z"/>
			<path fill="#445464" d="M660.2,800.1c6,2.6,14.6,4.3,24.1,4.3c9.5,0,18.1-1.7,24.1-4.3c2.8-1.2,5-2.6,6.6-4.2
				c0.3-0.3,0.5-0.6,0.8-0.9v-8.6c-0.2-0.2-0.3-0.4-0.5-0.6c-1.5,2-4.1,3.7-7.4,5.2c-6,2.6-14.6,4.3-24.1,4.3
				c-9.5,0-18.1-1.7-24.1-4.3c-2.9-1.3-5.2-2.8-6.8-4.5c0,0-0.1,0.1-0.1,0.1v8.2c0.1,0.1,0.2,0.3,0.3,0.4
				C654.6,797,657.1,798.7,660.2,800.1z"/>
			<path fill="#445464" d="M660.5,781.2c5.7,2.7,14.2,4.5,23.7,4.5c9.6,0,18.1-1.8,23.8-4.6c2.9-1.4,5-3,6.3-4.9
				c0.7-1.1,1.1-2.3,1.1-3.5c0-7.1-14-12.9-31.3-12.9c-17.3,0-31.3,5.8-31.3,12.9c0,1,0.3,2,0.8,2.9
				C654.9,777.8,657.3,779.7,660.5,781.2z"/>
			<path fill="#445464" d="M738.4,733.5H630.8c-2.7,0-4.9,2.2-4.9,4.9v107.7c0,2.7,2.2,4.9,4.9,4.9h107.7c2.7,0,4.9-2.2,4.9-4.9
				V738.4C743.4,735.7,741.2,733.5,738.4,733.5z M733.5,841.2h-97.8v-97.8h97.8V841.2z"/>
		</g>
	</g>
	<g>
		<g>
			<rect x="400" y="717.2" fill="#FFFFFF" width="169.2" height="169.2"/>
			<g>
				<path fill="#445464" d="M432,860.5h5.1c3,0,4.8,1.8,4.8,4.4v0c0,2.9-2.3,4.4-5.1,4.4h-2.1v3.8H432V860.5z M436.9,866.9
					c1.4,0,2.2-0.8,2.2-1.9v0c0-1.2-0.9-1.9-2.3-1.9h-2.1v3.9H436.9z"/>
				<path fill="#445464" d="M443.1,868.4L443.1,868.4c0-2.8,2.2-5.1,5.2-5.1c3,0,5.2,2.2,5.2,5v0c0,2.8-2.2,5-5.2,5
					C445.3,873.4,443.1,871.1,443.1,868.4z M450.9,868.4L450.9,868.4c0-1.5-1-2.7-2.5-2.7c-1.6,0-2.5,1.2-2.5,2.6v0
					c0,1.4,1,2.7,2.5,2.7C449.9,871,450.9,869.8,450.9,868.4z"/>
				<path fill="#445464" d="M454.8,871.9l1.2-1.8c1,0.8,2.1,1.2,3,1.2c0.8,0,1.2-0.3,1.2-0.7v0c0-0.6-0.9-0.8-2-1.1
					c-1.3-0.4-2.9-1-2.9-2.9v0c0-2,1.6-3.1,3.5-3.1c1.2,0,2.6,0.4,3.6,1.1l-1,1.9c-1-0.6-1.9-0.9-2.6-0.9c-0.7,0-1,0.3-1,0.7v0
					c0,0.5,0.9,0.8,2,1.2c1.4,0.5,2.9,1.1,2.9,2.9v0c0,2.1-1.6,3.1-3.7,3.1C457.6,873.3,456.1,872.9,454.8,871.9z"/>
				<path fill="#445464" d="M464.9,870.4v-4.6h-1.2v-2.3h1.2V861h2.7v2.5h2.3v2.3h-2.3v4.1c0,0.6,0.3,0.9,0.9,0.9
					c0.5,0,1-0.1,1.4-0.3v2.2c-0.6,0.3-1.2,0.6-2.2,0.6C466,873.3,464.9,872.6,464.9,870.4z"/>
				<path fill="#445464" d="M471.7,875.1l0.9-2.1c1,0.6,2,0.9,3.3,0.9c1.9,0,2.8-0.9,2.8-2.6v-0.5c-0.8,1-1.7,1.6-3.2,1.6
					c-2.3,0-4.3-1.6-4.3-4.5v0c0-2.9,2.1-4.5,4.3-4.5c1.5,0,2.4,0.6,3.1,1.4v-1.3h2.7v7.5c0,1.7-0.4,3-1.2,3.8
					c-0.9,0.9-2.3,1.3-4.2,1.3C474.4,876.1,472.9,875.7,471.7,875.1z M478.6,867.8L478.6,867.8c0-1.4-1-2.3-2.4-2.3
					s-2.3,0.9-2.3,2.2v0c0,1.3,1,2.2,2.3,2.2S478.6,869.2,478.6,867.8z"/>
				<path fill="#445464" d="M483.8,863.5h2.7v1.9c0.6-1.3,1.5-2.2,3.1-2.1v2.9h-0.1c-1.8,0-2.9,1.1-2.9,3.4v3.6h-2.7V863.5z"/>
				<path fill="#445464" d="M490.5,868.4L490.5,868.4c0-2.8,2-5.1,4.8-5.1c3.2,0,4.7,2.5,4.7,5.2c0,0.2,0,0.5,0,0.7h-6.7
					c0.3,1.2,1.1,1.9,2.4,1.9c0.9,0,1.6-0.3,2.3-1l1.6,1.4c-0.9,1.1-2.2,1.8-3.9,1.8C492.7,873.4,490.5,871.3,490.5,868.4z
					 M497.4,867.6c-0.2-1.2-0.9-2.1-2-2.1c-1.1,0-1.9,0.8-2.1,2.1H497.4z"/>
				<path fill="#445464" d="M501.5,871.3l1.6-2c1.1,0.9,2.3,1.5,3.8,1.5c1.1,0,1.8-0.5,1.8-1.2v0c0-0.7-0.4-1.1-2.5-1.6
					c-2.5-0.6-4.2-1.4-4.2-3.9v0c0-2.3,1.8-3.8,4.4-3.8c1.8,0,3.4,0.6,4.7,1.6l-1.4,2.1c-1.1-0.8-2.2-1.2-3.3-1.2s-1.6,0.5-1.6,1.1
					v0c0,0.8,0.5,1.1,2.7,1.7c2.6,0.7,4,1.6,4,3.8v0c0,2.5-1.9,3.9-4.6,3.9C504.9,873.3,503,872.7,501.5,871.3z"/>
				<path fill="#445464" d="M523.7,872.3c-1.1,0.7-2.3,1.1-3.7,1.1c-3.9,0-6.7-2.9-6.7-6.5v0c0-3.6,2.8-6.5,6.7-6.5
					c3.9,0,6.7,2.9,6.7,6.5v0c0,1.3-0.4,2.6-1.1,3.6l1.3,1.1l-1.8,2L523.7,872.3z M521.7,870.5l-2.1-1.7l1.8-2l2.1,1.9
					c0.2-0.5,0.3-1.1,0.3-1.7v0c0-2.2-1.6-4-3.8-4c-2.2,0-3.8,1.8-3.8,3.9v0c0,2.2,1.6,4,3.8,4C520.6,870.8,521.2,870.7,521.7,870.5
					z"/>
				<path fill="#445464" d="M529.2,860.5h2.8v10.1h6.3v2.5h-9.1V860.5z"/>
			</g>
		</g>
		<g>
			<path fill="#445464" d="M484.3,823.1c14.7,0,27.1-3.9,31.5-9.4v-8.6c-0.2-0.2-0.3-0.4-0.5-0.6c-4.3,5.5-16.8,9.5-31.5,9.5
				c-14.1,0-26.1-3.6-30.9-8.7c-0.1,0-0.1,0.1-0.1,0.1v8.2C456.9,819.1,469.5,823.1,484.3,823.1z"/>
			<path fill="#445464" d="M460.2,800.1c6,2.6,14.6,4.3,24.1,4.3c9.5,0,18.1-1.7,24.1-4.3c2.8-1.2,5-2.6,6.6-4.2
				c0.3-0.3,0.5-0.6,0.8-0.9v-8.6c-0.2-0.2-0.3-0.4-0.5-0.6c-1.5,2-4.1,3.7-7.4,5.2c-6,2.6-14.6,4.3-24.1,4.3
				c-9.5,0-18.1-1.7-24.1-4.3c-2.9-1.3-5.2-2.8-6.8-4.5c0,0-0.1,0.1-0.1,0.1v8.2c0.1,0.1,0.2,0.3,0.3,0.4
				C454.6,797,457.1,798.7,460.2,800.1z"/>
			<path fill="#445464" d="M460.5,781.2c5.7,2.7,14.2,4.5,23.7,4.5c9.6,0,18.1-1.8,23.8-4.6c2.9-1.4,5-3,6.3-4.9
				c0.7-1.1,1.1-2.3,1.1-3.5c0-7.1-14-12.9-31.3-12.9c-17.3,0-31.3,5.8-31.3,12.9c0,1,0.3,2,0.8,2.9
				C454.9,777.8,457.3,779.7,460.5,781.2z"/>
			<path fill="#445464" d="M538.4,733.5H430.8c-2.7,0-4.9,2.2-4.9,4.9v107.7c0,2.7,2.2,4.9,4.9,4.9h107.7c2.7,0,4.9-2.2,4.9-4.9
				V738.4C543.4,735.7,541.2,733.5,538.4,733.5z M533.5,841.2h-97.8v-97.8h97.8V841.2z"/>
		</g>
	</g>
	<g>
		<g>
			<rect x="200" y="717.2" fill="#FFFFFF" width="169.2" height="169.2"/>
			<g>
				<path fill="#445464" d="M226.4,871.3l1.6-2c1.1,0.9,2.3,1.5,3.8,1.5c1.1,0,1.8-0.5,1.8-1.2v0c0-0.7-0.4-1.1-2.5-1.6
					c-2.5-0.6-4.2-1.4-4.2-3.9v0c0-2.3,1.8-3.8,4.4-3.8c1.8,0,3.4,0.6,4.7,1.6l-1.4,2.1c-1.1-0.8-2.2-1.2-3.3-1.2
					c-1.1,0-1.6,0.5-1.6,1.1v0c0,0.8,0.5,1.1,2.7,1.7c2.6,0.7,4,1.6,4,3.8v0c0,2.5-1.9,3.9-4.6,3.9
					C229.8,873.3,227.9,872.7,226.4,871.3z"/>
				<path fill="#445464" d="M238,868.4L238,868.4c0-2.8,2-5.1,4.8-5.1c3.2,0,4.7,2.5,4.7,5.2c0,0.2,0,0.5,0,0.7h-6.7
					c0.3,1.2,1.1,1.9,2.4,1.9c0.9,0,1.6-0.3,2.3-1l1.6,1.4c-0.9,1.1-2.2,1.8-3.9,1.8C240.1,873.4,238,871.3,238,868.4z M244.8,867.6
					c-0.2-1.2-0.9-2.1-2-2.1c-1.1,0-1.9,0.8-2.1,2.1H244.8z"/>
				<path fill="#445464" d="M248.9,870.4L248.9,870.4c0-2.1,1.6-3.1,3.9-3.1c1,0,1.7,0.2,2.4,0.4v-0.2c0-1.1-0.7-1.8-2.1-1.8
					c-1,0-1.8,0.2-2.7,0.5l-0.7-2.1c1.1-0.5,2.1-0.8,3.7-0.8c1.5,0,2.6,0.4,3.3,1.1c0.7,0.7,1,1.8,1,3.1v5.6h-2.6v-1
					c-0.7,0.7-1.6,1.2-2.9,1.2C250.4,873.3,248.9,872.3,248.9,870.4z M255.2,869.7v-0.5c-0.5-0.2-1.1-0.4-1.7-0.4
					c-1.2,0-1.9,0.5-1.9,1.3v0c0,0.7,0.6,1.2,1.5,1.2C254.4,871.4,255.2,870.7,255.2,869.7z"/>
				<path fill="#445464" d="M260.2,863.5h2.7v1.9c0.6-1.3,1.5-2.2,3.1-2.1v2.9h-0.1c-1.8,0-2.9,1.1-2.9,3.4v3.6h-2.7V863.5z"/>
				<path fill="#445464" d="M267,868.4L267,868.4c0-2.8,2.1-5.1,5.1-5.1c1.8,0,3,0.6,3.9,1.6l-1.7,1.8c-0.6-0.6-1.2-1.1-2.2-1.1
					c-1.4,0-2.3,1.2-2.3,2.6v0c0,1.5,1,2.7,2.4,2.7c0.9,0,1.5-0.4,2.2-1l1.6,1.6c-0.9,1-2,1.8-3.9,1.8
					C269.1,873.4,267,871.1,267,868.4z"/>
				<path fill="#445464" d="M277.7,860h2.7v4.9c0.6-0.8,1.4-1.5,2.8-1.5c2.1,0,3.3,1.4,3.3,3.6v6.2h-2.7v-5.4c0-1.3-0.6-2-1.7-2
					c-1,0-1.7,0.7-1.7,2v5.4h-2.7V860z"/>
				<path fill="#445464" d="M294.7,860.5h2.8v12.6h-2.8V860.5z"/>
				<path fill="#445464" d="M300.4,863.5h2.7v1.4c0.6-0.8,1.4-1.5,2.8-1.5c2.1,0,3.3,1.4,3.3,3.6v6.2h-2.7v-5.4c0-1.3-0.6-2-1.7-2
					s-1.7,0.7-1.7,2v5.4h-2.7V863.5z"/>
				<path fill="#445464" d="M311.1,868.3L311.1,868.3c0-3.3,2.1-5,4.4-5c1.5,0,2.4,0.7,3,1.4V860h2.7v13.1h-2.7v-1.4
					c-0.7,0.9-1.6,1.6-3,1.6C313.3,873.3,311.1,871.6,311.1,868.3z M318.6,868.3L318.6,868.3c0-1.6-1.1-2.7-2.3-2.7s-2.4,1-2.4,2.7
					v0c0,1.6,1.1,2.7,2.4,2.7S318.6,869.9,318.6,868.3z"/>
				<path fill="#445464" d="M323.3,868.4L323.3,868.4c0-2.8,2-5.1,4.8-5.1c3.2,0,4.7,2.5,4.7,5.2c0,0.2,0,0.5,0,0.7H326
					c0.3,1.2,1.1,1.9,2.4,1.9c0.9,0,1.6-0.3,2.3-1l1.6,1.4c-0.9,1.1-2.2,1.8-3.9,1.8C325.4,873.4,323.3,871.3,323.3,868.4z
					 M330.1,867.6c-0.2-1.2-0.9-2.1-2-2.1c-1.1,0-1.9,0.8-2.1,2.1H330.1z"/>
				<path fill="#445464" d="M336.8,868.2l-3.3-4.8h2.9l1.8,2.8l1.8-2.8h2.9l-3.3,4.7l3.4,5h-2.9l-1.9-3l-1.9,3h-2.9L336.8,868.2z"/>
			</g>
		</g>
		<g>
			<path fill="#445464" d="M284.3,823.1c14.7,0,27.1-3.9,31.5-9.4v-8.6c-0.2-0.2-0.3-0.4-0.5-0.6c-4.3,5.5-16.8,9.5-31.5,9.5
				c-14.1,0-26.1-3.6-30.9-8.7c-0.1,0-0.1,0.1-0.1,0.1v8.2C256.9,819.1,269.5,823.1,284.3,823.1z"/>
			<path fill="#445464" d="M260.2,800.1c6,2.6,14.6,4.3,24.1,4.3c9.5,0,18.1-1.7,24.1-4.3c2.8-1.2,5-2.6,6.6-4.2
				c0.3-0.3,0.5-0.6,0.8-0.9v-8.6c-0.2-0.2-0.3-0.4-0.5-0.6c-1.5,2-4.1,3.7-7.4,5.2c-6,2.6-14.6,4.3-24.1,4.3
				c-9.5,0-18.1-1.7-24.1-4.3c-2.9-1.3-5.2-2.8-6.8-4.5c0,0-0.1,0.1-0.1,0.1v8.2c0.1,0.1,0.2,0.3,0.3,0.4
				C254.6,797,257.1,798.7,260.2,800.1z"/>
			<path fill="#445464" d="M260.5,781.2c5.7,2.7,14.2,4.5,23.7,4.5c9.6,0,18.1-1.8,23.8-4.6c2.9-1.4,5-3,6.3-4.9
				c0.7-1.1,1.1-2.3,1.1-3.5c0-7.1-14-12.9-31.3-12.9c-17.3,0-31.3,5.8-31.3,12.9c0,1,0.3,2,0.8,2.9
				C254.9,777.8,257.3,779.7,260.5,781.2z"/>
			<path fill="#445464" d="M338.4,733.5H230.8c-2.7,0-4.9,2.2-4.9,4.9v107.7c0,2.7,2.2,4.9,4.9,4.9h107.7c2.7,0,4.9-2.2,4.9-4.9
				V738.4C343.4,735.7,341.2,733.5,338.4,733.5z M333.5,841.2h-97.8v-97.8h97.8V841.2z"/>
		</g>
	</g>
	<g>
		<rect x="254.7" y="660.2" fill="#F08921" width="59.8" height="28.5"/>
		<rect x="254.7" y="532.2" fill="#F08921" fill-opacity="0.2" width="59.8" height="28.5"/>
		<rect x="254.7" y="564.2" fill="#F08921" fill-opacity="0.4" width="59.8" height="28.5"/>
		<rect x="254.7" y="596.2" fill="#F08921" fill-opacity="0.6" width="59.8" height="28.5"/>
		<rect x="254.7" y="628.2" fill="#F08921" fill-opacity="0.8" width="59.8" height="28.5"/>
	</g>
	<g>
		<rect x="300" y="288" fill="#FFFFFF" width="169.2" height="169.2"/>
		<g>
			<path fill="#F08921" d="M332.2,437.6L332.2,437.6c0-3.6,2.7-6.6,6.6-6.6c2.4,0,3.8,0.8,5,1.9l-1.8,2c-1-0.9-2-1.4-3.2-1.4
				c-2.1,0-3.7,1.8-3.7,3.9v0c0,2.2,1.5,4,3.7,4c1.4,0,2.3-0.6,3.3-1.5l1.8,1.8c-1.3,1.4-2.7,2.3-5.2,2.3
				C335,444.1,332.2,441.2,332.2,437.6z"/>
			<path fill="#F08921" d="M345.8,430.8h2.7v4.9c0.6-0.8,1.4-1.5,2.8-1.5c2.1,0,3.3,1.4,3.3,3.6v6.2h-2.7v-5.4c0-1.3-0.6-2-1.7-2
				c-1,0-1.7,0.7-1.7,2v5.4h-2.7V430.8z"/>
			<path fill="#F08921" d="M356.5,439.1L356.5,439.1c0-2.8,2-5.1,4.8-5.1c3.2,0,4.7,2.5,4.7,5.2c0,0.2,0,0.5,0,0.7h-6.7
				c0.3,1.2,1.1,1.9,2.4,1.9c0.9,0,1.6-0.3,2.3-1l1.6,1.4c-0.9,1.1-2.2,1.8-3.9,1.8C358.7,444.1,356.5,442.1,356.5,439.1z
				 M363.3,438.3c-0.2-1.2-0.9-2.1-2-2.1c-1.1,0-1.9,0.8-2.1,2.1H363.3z"/>
			<path fill="#F08921" d="M368.5,436.6h-1.1v-2.3h1.1v-0.6c0-1.1,0.3-1.8,0.8-2.3c0.5-0.5,1.2-0.8,2.2-0.8c0.9,0,1.4,0.1,1.9,0.3
				v2.3c-0.4-0.1-0.8-0.2-1.2-0.2c-0.6,0-1,0.3-1,1v0.4h2.2v2.2h-2.2v7.3h-2.7V436.6z"/>
			<path fill="#F08921" d="M379.7,442.1l1.6-2c1.1,0.9,2.3,1.5,3.8,1.5c1.1,0,1.8-0.5,1.8-1.2v0c0-0.7-0.4-1.1-2.5-1.6
				c-2.5-0.6-4.2-1.4-4.2-3.9v0c0-2.3,1.8-3.8,4.4-3.8c1.8,0,3.4,0.6,4.7,1.6l-1.4,2.1c-1.1-0.8-2.2-1.2-3.3-1.2s-1.6,0.5-1.6,1.1v0
				c0,0.8,0.5,1.1,2.7,1.7c2.6,0.7,4,1.6,4,3.8v0c0,2.5-1.9,3.9-4.6,3.9C383.2,444.1,381.2,443.4,379.7,442.1z"/>
			<path fill="#F08921" d="M391.3,439.1L391.3,439.1c0-2.8,2-5.1,4.8-5.1c3.2,0,4.7,2.5,4.7,5.2c0,0.2,0,0.5,0,0.7h-6.7
				c0.3,1.2,1.1,1.9,2.4,1.9c0.9,0,1.6-0.3,2.3-1l1.6,1.4c-0.9,1.1-2.2,1.8-3.9,1.8C393.5,444.1,391.3,442.1,391.3,439.1z
				 M398.2,438.3c-0.2-1.2-0.9-2.1-2-2.1c-1.1,0-1.9,0.8-2.1,2.1H398.2z"/>
			<path fill="#F08921" d="M402.9,434.2h2.7v1.9c0.6-1.3,1.5-2.2,3.1-2.1v2.9h-0.1c-1.8,0-2.9,1.1-2.9,3.4v3.6h-2.7V434.2z"/>
			<path fill="#F08921" d="M409.5,434.2h2.9l2.2,6.5l2.2-6.5h2.8l-3.8,9.7h-2.5L409.5,434.2z"/>
			<path fill="#F08921" d="M420.2,439.1L420.2,439.1c0-2.8,2-5.1,4.8-5.1c3.2,0,4.7,2.5,4.7,5.2c0,0.2,0,0.5,0,0.7h-6.7
				c0.3,1.2,1.1,1.9,2.4,1.9c0.9,0,1.6-0.3,2.3-1l1.6,1.4c-0.9,1.1-2.2,1.8-3.9,1.8C422.3,444.1,420.2,442.1,420.2,439.1z
				 M427,438.3c-0.2-1.2-0.9-2.1-2-2.1c-1.1,0-1.9,0.8-2.1,2.1H427z"/>
			<path fill="#F08921" d="M431.7,434.2h2.7v1.9c0.6-1.3,1.5-2.2,3.1-2.1v2.9h-0.1c-1.8,0-2.9,1.1-2.9,3.4v3.6h-2.7V434.2z"/>
		</g>
	</g>
	<g>
		<line fill="#E6E7E8" x1="684.6" y1="456.8" x2="684.6" y2="726.2"/>
		<g>
			<line fill="none" stroke="#7F888D" stroke-width="4" stroke-miterlimit="10" x1="684.6" y1="456.8" x2="684.6" y2="709"/>
			<g>
				<polygon fill="#7F888D" points="672.6,705.5 684.6,726.2 696.6,705.5 				"/>
			</g>
		</g>
	</g>
	<g>
		<rect x="0" y="288" fill="#FFFFFF" width="169.2" height="169.2"/>
		<g>
			<path fill="#6CB2E2" d="M50.5,431.3h3l3.3,5.3l3.3-5.3h3v12.6h-2.8v-8.2l-3.5,5.4h-0.1l-3.5-5.3v8.2h-2.7V431.3z"/>
			<path fill="#6CB2E2" d="M65.2,441.1L65.2,441.1c0-2.1,1.6-3.1,3.9-3.1c1,0,1.7,0.2,2.4,0.4v-0.2c0-1.1-0.7-1.8-2.1-1.8
				c-1,0-1.8,0.2-2.7,0.5l-0.7-2.1c1.1-0.5,2.1-0.8,3.7-0.8c1.5,0,2.6,0.4,3.3,1.1c0.7,0.7,1,1.8,1,3.1v5.6h-2.6v-1
				c-0.7,0.7-1.6,1.2-2.9,1.2C66.7,444.1,65.2,443,65.2,441.1z M71.5,440.5V440c-0.5-0.2-1.1-0.4-1.7-0.4c-1.2,0-1.9,0.5-1.9,1.3v0
				c0,0.7,0.6,1.2,1.5,1.2C70.6,442.2,71.5,441.5,71.5,440.5z"/>
			<path fill="#6CB2E2" d="M76.5,434.2h2.7v1.4c0.6-0.8,1.4-1.5,2.8-1.5c2.1,0,3.3,1.4,3.3,3.6v6.2h-2.7v-5.4c0-1.3-0.6-2-1.7-2
				c-1,0-1.7,0.7-1.7,2v5.4h-2.7V434.2z"/>
			<path fill="#6CB2E2" d="M87.1,441.1L87.1,441.1c0-2.1,1.6-3.1,3.9-3.1c1,0,1.7,0.2,2.4,0.4v-0.2c0-1.1-0.7-1.8-2.1-1.8
				c-1,0-1.8,0.2-2.7,0.5l-0.7-2.1c1.1-0.5,2.1-0.8,3.7-0.8c1.5,0,2.6,0.4,3.3,1.1c0.7,0.7,1,1.8,1,3.1v5.6h-2.6v-1
				c-0.7,0.7-1.6,1.2-2.9,1.2C88.6,444.1,87.1,443,87.1,441.1z M93.4,440.5V440c-0.5-0.2-1.1-0.4-1.7-0.4c-1.2,0-1.9,0.5-1.9,1.3v0
				c0,0.7,0.6,1.2,1.5,1.2C92.5,442.2,93.4,441.5,93.4,440.5z"/>
			<path fill="#6CB2E2" d="M98.4,445.8l0.9-2.1c1,0.6,2,0.9,3.3,0.9c1.9,0,2.8-0.9,2.8-2.6v-0.5c-0.8,1-1.7,1.6-3.2,1.6
				c-2.3,0-4.3-1.6-4.3-4.5v0c0-2.9,2.1-4.5,4.3-4.5c1.5,0,2.4,0.6,3.1,1.4v-1.3h2.7v7.5c0,1.7-0.4,3-1.2,3.8
				c-0.9,0.9-2.3,1.3-4.2,1.3C101.1,446.8,99.6,446.5,98.4,445.8z M105.3,438.6L105.3,438.6c0-1.4-1-2.3-2.4-2.3s-2.3,0.9-2.3,2.2v0
				c0,1.3,1,2.2,2.3,2.2S105.3,439.9,105.3,438.6z"/>
			<path fill="#6CB2E2" d="M110,439.1L110,439.1c0-2.8,2-5.1,4.8-5.1c3.2,0,4.7,2.5,4.7,5.2c0,0.2,0,0.5,0,0.7h-6.7
				c0.3,1.2,1.1,1.9,2.4,1.9c0.9,0,1.6-0.3,2.3-1l1.6,1.4c-0.9,1.1-2.2,1.8-3.9,1.8C112.1,444.1,110,442.1,110,439.1z M116.8,438.3
				c-0.2-1.2-0.9-2.1-2-2.1c-1.1,0-1.9,0.8-2.1,2.1H116.8z"/>
		</g>
	</g>
	<g>
		<g>
			<g>
				<path fill="#6CB2E2" d="M137.4,420.3H31.8c-2.7,0-4.9-2.2-4.9-4.9V309.8c0-2.7,2.2-4.9,4.9-4.9h105.6c2.7,0,4.9,2.2,4.9,4.9
					v105.6C142.3,418.1,140.1,420.3,137.4,420.3L137.4,420.3z M36.7,410.6h95.9v-95.9H36.7V410.6L36.7,410.6z"/>
			</g>
			<g>
				<path fill="#6CB2E2" d="M135.7,340.5H33.5c-1.3,0-2.4-1.1-2.4-2.4c0-1.3,1.1-2.4,2.4-2.4h102.1c1.3,0,2.4,1.1,2.4,2.4
					C138.1,339.4,137,340.5,135.7,340.5L135.7,340.5z"/>
			</g>
			<path fill="#6CB2E2" d="M49,319.2c-3.4,0-6.1,2.7-6.1,6.1c0,3.4,2.7,6.1,6.1,6.1c3.4,0,6.1-2.7,6.1-6.1
				C55.1,321.9,52.4,319.2,49,319.2L49,319.2z"/>
			<path fill="#6CB2E2" d="M65.6,319.2c-3.4,0-6.1,2.7-6.1,6.1c0,3.4,2.7,6.1,6.1,6.1c3.4,0,6.1-2.7,6.1-6.1
				C71.7,321.9,68.9,319.2,65.6,319.2L65.6,319.2z"/>
			<path fill="#6CB2E2" d="M82.1,319.2c-3.4,0-6.1,2.7-6.1,6.1c0,3.4,2.7,6.1,6.1,6.1c3.4,0,6.1-2.7,6.1-6.1
				C88.2,321.9,85.5,319.2,82.1,319.2L82.1,319.2z"/>
		</g>
		<g>
			<g>
				<path fill="#6CB2E2" d="M84.6,360H51.5c-1.3,0-2.4-1.1-2.4-2.4c0-1.3,1.1-2.4,2.4-2.4h33.2c1.3,0,2.4,1.1,2.4,2.4
					C87,358.9,86,360,84.6,360L84.6,360z"/>
			</g>
			<g>
				<path fill="#6CB2E2" d="M84.6,375.3H51.5c-1.3,0-2.4-1.1-2.4-2.4c0-1.3,1.1-2.4,2.4-2.4h33.2c1.3,0,2.4,1.1,2.4,2.4
					C87,374.2,86,375.3,84.6,375.3L84.6,375.3z"/>
			</g>
			<g>
				<path fill="#6CB2E2" d="M84.6,390.7H51.5c-1.3,0-2.4-1.1-2.4-2.4c0-1.3,1.1-2.4,2.4-2.4h33.2c1.3,0,2.4,1.1,2.4,2.4
					C87,389.6,86,390.7,84.6,390.7L84.6,390.7z"/>
			</g>
			<g>
				<path fill="#6CB2E2" d="M117.8,390.7h-21c-1.3,0-2.4-1.1-2.4-2.4v-30.7c0-1.3,1.1-2.4,2.4-2.4h21c1.3,0,2.4,1.1,2.4,2.4v30.7
					C120.2,389.6,119.1,390.7,117.8,390.7L117.8,390.7z M99.2,385.8h16.2V360H99.2V385.8L99.2,385.8z"/>
			</g>
		</g>
	</g>
	<g>
		<rect x="600" y="288" fill="#FFFFFF" width="169.2" height="169.2"/>
		<g>
			<path fill="#6CB2E2" d="M640.6,431.3h5.9c1.4,0,2.6,0.4,3.3,1.1c0.6,0.6,0.9,1.3,0.9,2.1v0c0,1.4-0.8,2.2-1.7,2.7
				c1.5,0.6,2.4,1.4,2.4,3.1v0c0,2.3-1.9,3.5-4.7,3.5h-6V431.3z M645.8,436.4c1.2,0,2-0.4,2-1.3v0c0-0.8-0.6-1.3-1.8-1.3h-2.7v2.7
				H645.8z M646.5,441.5c1.2,0,2-0.4,2-1.4v0c0-0.8-0.6-1.4-2.1-1.4h-3.2v2.8H646.5z"/>
			<path fill="#6CB2E2" d="M652.8,439.1L652.8,439.1c0-2.8,2.2-5.1,5.2-5.1c3,0,5.2,2.2,5.2,5v0c0,2.8-2.2,5-5.2,5
				C655,444.1,652.8,441.9,652.8,439.1z M660.5,439.1L660.5,439.1c0-1.5-1-2.7-2.5-2.7c-1.6,0-2.5,1.2-2.5,2.6v0
				c0,1.4,1,2.7,2.5,2.7C659.6,441.8,660.5,440.5,660.5,439.1z"/>
			<path fill="#6CB2E2" d="M664.7,439.1L664.7,439.1c0-2.8,2.2-5.1,5.2-5.1c3,0,5.2,2.2,5.2,5v0c0,2.8-2.2,5-5.2,5
				C667,444.1,664.7,441.9,664.7,439.1z M672.5,439.1L672.5,439.1c0-1.5-1-2.7-2.5-2.7c-1.6,0-2.5,1.2-2.5,2.6v0
				c0,1.4,1,2.7,2.5,2.7C671.6,441.8,672.5,440.5,672.5,439.1z"/>
			<path fill="#6CB2E2" d="M677.2,430.8h2.7v7l3.2-3.5h3.3l-3.7,3.8l3.8,5.9h-3.1l-2.5-3.9l-1,1v2.9h-2.7V430.8z"/>
			<path fill="#6CB2E2" d="M687.1,442.6l1.2-1.8c1,0.8,2.1,1.2,3,1.2c0.8,0,1.2-0.3,1.2-0.7v0c0-0.6-0.9-0.8-2-1.1
				c-1.3-0.4-2.9-1-2.9-2.9v0c0-2,1.6-3.1,3.5-3.1c1.2,0,2.6,0.4,3.6,1.1l-1,1.9c-1-0.6-1.9-0.9-2.6-0.9c-0.7,0-1,0.3-1,0.7v0
				c0,0.5,0.9,0.8,2,1.2c1.4,0.5,2.9,1.1,2.9,2.9v0c0,2.1-1.6,3.1-3.7,3.1C689.9,444.1,688.3,443.6,687.1,442.6z"/>
			<path fill="#6CB2E2" d="M696.9,430.8h2.7v4.9c0.6-0.8,1.4-1.5,2.8-1.5c2.1,0,3.3,1.4,3.3,3.6v6.2H703v-5.4c0-1.3-0.6-2-1.7-2
				s-1.7,0.7-1.7,2v5.4h-2.7V430.8z"/>
			<path fill="#6CB2E2" d="M707.6,439.1L707.6,439.1c0-2.8,2-5.1,4.8-5.1c3.2,0,4.7,2.5,4.7,5.2c0,0.2,0,0.5,0,0.7h-6.7
				c0.3,1.2,1.1,1.9,2.4,1.9c0.9,0,1.6-0.3,2.3-1l1.6,1.4c-0.9,1.1-2.2,1.8-3.9,1.8C709.7,444.1,707.6,442.1,707.6,439.1z
				 M714.4,438.3c-0.2-1.2-0.9-2.1-2-2.1c-1.1,0-1.9,0.8-2.1,2.1H714.4z"/>
			<path fill="#6CB2E2" d="M719.2,430.8h2.7v13.1h-2.7V430.8z"/>
			<path fill="#6CB2E2" d="M725,436.6h-1.1v-2.3h1.1v-0.6c0-1.1,0.3-1.8,0.8-2.3c0.5-0.5,1.2-0.8,2.2-0.8c0.9,0,1.4,0.1,1.9,0.3v2.3
				c-0.4-0.1-0.8-0.2-1.2-0.2c-0.6,0-1,0.3-1,1v0.4h2.2v2.2h-2.2v7.3H725V436.6z"/>
		</g>
	</g>
	<g>
		<g>
			<path fill="#6CB2E2" d="M709.3,353.5h-36.1c-1.3,0-2.4-1.1-2.4-2.4v-20.4c0-1.3,1-2.4,2.4-2.4h36.1c1.3,0,2.4,1.1,2.4,2.4v20.4
				C711.7,352.5,710.6,353.5,709.3,353.5L709.3,353.5z M675.6,348.8H707v-15.7h-31.4V348.8L675.6,348.8z"/>
		</g>
		<g>
			<g>
				<path fill="#6CB2E2" d="M729.1,418h-80.7c-2.6,0-4.7-2.1-4.7-4.7V311.9c0-2.6,2.1-4.7,4.7-4.7h80.7c2.6,0,4.7,2.1,4.7,4.7v101.4
					C733.8,415.9,731.7,418,729.1,418L729.1,418z M653.1,408.6h71.3v-92h-71.3V408.6L653.1,408.6z"/>
			</g>
			<g>
				<path fill="#6CB2E2" d="M656.6,335.6h-16.5c-2.6,0-4.7-2.1-4.7-4.7c0-2.6,2.1-4.7,4.7-4.7h16.5c2.6,0,4.7,2.1,4.7,4.7
					C661.3,333.4,659.2,335.6,656.6,335.6L656.6,335.6z"/>
			</g>
			<g>
				<path fill="#6CB2E2" d="M656.6,356.5h-16.5c-2.6,0-4.7-2.1-4.7-4.7c0-2.6,2.1-4.7,4.7-4.7h16.5c2.6,0,4.7,2.1,4.7,4.7
					C661.3,354.4,659.2,356.5,656.6,356.5L656.6,356.5z"/>
			</g>
			<g>
				<path fill="#6CB2E2" d="M656.6,377.5h-16.5c-2.6,0-4.7-2.1-4.7-4.7c0-2.6,2.1-4.7,4.7-4.7h16.5c2.6,0,4.7,2.1,4.7,4.7
					C661.3,375.4,659.2,377.5,656.6,377.5L656.6,377.5z"/>
			</g>
			<g>
				<path fill="#6CB2E2" d="M656.6,398.5h-16.5c-2.6,0-4.7-2.1-4.7-4.7c0-2.6,2.1-4.7,4.7-4.7h16.5c2.6,0,4.7,2.1,4.7,4.7
					C661.3,396.4,659.2,398.5,656.6,398.5L656.6,398.5z"/>
			</g>
		</g>
	</g>
	<g>
		<path fill="#445464" d="M167.9,590.8h3l3.3,5.3l3.3-5.3h3v12.6h-2.8v-8.2l-3.5,5.4h-0.1l-3.5-5.3v8.2h-2.7V590.8z"/>
		<path fill="#445464" d="M182.8,598.7L182.8,598.7c0-2.8,2-5.1,4.8-5.1c3.2,0,4.7,2.5,4.7,5.2c0,0.2,0,0.5,0,0.7h-6.7
			c0.3,1.2,1.1,1.9,2.4,1.9c0.9,0,1.6-0.3,2.3-1l1.6,1.4c-0.9,1.1-2.2,1.8-3.9,1.8C184.9,603.7,182.8,601.6,182.8,598.7z
			 M189.6,597.9c-0.2-1.2-0.9-2.1-2-2.1c-1.1,0-1.9,0.8-2.1,2.1H189.6z"/>
		<path fill="#445464" d="M193.5,602.2l1.2-1.8c1,0.8,2.1,1.2,3,1.2c0.8,0,1.2-0.3,1.2-0.7v0c0-0.6-0.9-0.8-2-1.1
			c-1.4-0.4-2.9-1-2.9-2.9v0c0-2,1.6-3.1,3.5-3.1c1.2,0,2.6,0.4,3.6,1.1l-1,1.9c-1-0.6-1.9-0.9-2.6-0.9c-0.7,0-1,0.3-1,0.7v0
			c0,0.5,0.9,0.8,2,1.2c1.4,0.5,2.9,1.1,2.9,2.9v0c0,2.1-1.6,3.1-3.7,3.1C196.3,603.6,194.8,603.2,193.5,602.2z"/>
		<path fill="#445464" d="M202.4,602.2l1.2-1.8c1,0.8,2.1,1.2,3,1.2c0.8,0,1.2-0.3,1.2-0.7v0c0-0.6-0.9-0.8-2-1.1
			c-1.4-0.4-2.9-1-2.9-2.9v0c0-2,1.6-3.1,3.5-3.1c1.2,0,2.6,0.4,3.6,1.1l-1,1.9c-1-0.6-1.9-0.9-2.6-0.9c-0.7,0-1,0.3-1,0.7v0
			c0,0.5,0.9,0.8,2,1.2c1.4,0.5,2.9,1.1,2.9,2.9v0c0,2.1-1.6,3.1-3.7,3.1C205.2,603.6,203.7,603.2,202.4,602.2z"/>
		<path fill="#445464" d="M211.6,600.7L211.6,600.7c0-2.1,1.6-3.1,3.9-3.1c1,0,1.7,0.2,2.4,0.4v-0.2c0-1.1-0.7-1.8-2.1-1.8
			c-1,0-1.8,0.2-2.7,0.5l-0.7-2.1c1.1-0.5,2.1-0.8,3.7-0.8c1.5,0,2.6,0.4,3.3,1.1c0.7,0.7,1,1.8,1,3.1v5.6h-2.6v-1
			c-0.7,0.7-1.6,1.2-2.9,1.2C213.1,603.6,211.6,602.6,211.6,600.7z M217.9,600v-0.5c-0.5-0.2-1.1-0.4-1.7-0.4
			c-1.2,0-1.9,0.5-1.9,1.3v0c0,0.7,0.6,1.2,1.5,1.2C217,601.7,217.9,601,217.9,600z"/>
		<path fill="#445464" d="M222.9,605.3l0.9-2.1c1,0.6,2,0.9,3.3,0.9c1.9,0,2.8-0.9,2.8-2.6v-0.5c-0.8,1-1.7,1.6-3.2,1.6
			c-2.2,0-4.3-1.6-4.3-4.5v0c0-2.9,2.1-4.5,4.3-4.5c1.5,0,2.4,0.6,3.1,1.4v-1.3h2.7v7.5c0,1.7-0.4,3-1.2,3.8
			c-0.9,0.9-2.3,1.3-4.2,1.3C225.6,606.4,224.1,606,222.9,605.3z M229.8,598.1L229.8,598.1c0-1.4-1-2.3-2.4-2.3
			c-1.3,0-2.3,0.9-2.3,2.2v0c0,1.3,1,2.2,2.3,2.2C228.8,600.4,229.8,599.5,229.8,598.1z"/>
		<path fill="#445464" d="M234.5,598.7L234.5,598.7c0-2.8,2-5.1,4.8-5.1c3.2,0,4.7,2.5,4.7,5.2c0,0.2,0,0.5,0,0.7h-6.7
			c0.3,1.2,1.1,1.9,2.4,1.9c0.9,0,1.6-0.3,2.3-1l1.6,1.4c-0.9,1.1-2.2,1.8-3.9,1.8C236.7,603.7,234.5,601.6,234.5,598.7z
			 M241.3,597.9c-0.2-1.2-0.9-2.1-2-2.1c-1.1,0-1.9,0.8-2.1,2.1H241.3z"/>
		<path fill="#445464" d="M187.3,624.2c-1.1,0.7-2.3,1.1-3.7,1.1c-3.9,0-6.7-2.9-6.7-6.5v0c0-3.6,2.8-6.5,6.7-6.5
			c3.9,0,6.7,2.9,6.7,6.5v0c0,1.3-0.4,2.6-1.1,3.6l1.3,1.1l-1.8,2L187.3,624.2z M185.3,622.4l-2.1-1.7l1.8-2l2.1,1.9
			c0.2-0.5,0.3-1.1,0.3-1.7v0c0-2.2-1.6-4-3.8-4c-2.2,0-3.8,1.8-3.8,3.9v0c0,2.2,1.6,4,3.8,4C184.2,622.7,184.8,622.6,185.3,622.4z"
			/>
		<path fill="#445464" d="M192.4,621.6v-6.2h2.7v5.4c0,1.3,0.6,2,1.7,2c1,0,1.7-0.7,1.7-2v-5.4h2.7v9.7h-2.7v-1.4
			c-0.6,0.8-1.4,1.5-2.8,1.5C193.6,625.2,192.4,623.8,192.4,621.6z"/>
		<path fill="#445464" d="M203.2,620.3L203.2,620.3c0-2.8,2-5.1,4.8-5.1c3.2,0,4.7,2.5,4.7,5.2c0,0.2,0,0.5,0,0.7H206
			c0.3,1.2,1.1,1.9,2.4,1.9c0.9,0,1.6-0.3,2.3-1l1.6,1.4c-0.9,1.1-2.2,1.8-3.9,1.8C205.4,625.3,203.2,623.2,203.2,620.3z M210,619.5
			c-0.2-1.2-0.9-2.1-2-2.1c-1.1,0-1.9,0.8-2.1,2.1H210z"/>
		<path fill="#445464" d="M214.7,621.6v-6.2h2.7v5.4c0,1.3,0.6,2,1.7,2c1,0,1.7-0.7,1.7-2v-5.4h2.7v9.7h-2.7v-1.4
			c-0.6,0.8-1.4,1.5-2.8,1.5C215.9,625.2,214.7,623.8,214.7,621.6z"/>
		<path fill="#445464" d="M225.5,620.3L225.5,620.3c0-2.8,2-5.1,4.8-5.1c3.2,0,4.7,2.5,4.7,5.2c0,0.2,0,0.5,0,0.7h-6.7
			c0.3,1.2,1.1,1.9,2.4,1.9c0.9,0,1.6-0.3,2.3-1l1.6,1.4c-0.9,1.1-2.2,1.8-3.9,1.8C227.6,625.3,225.5,623.2,225.5,620.3z
			 M232.3,619.5c-0.2-1.2-0.9-2.1-2-2.1c-1.1,0-1.9,0.8-2.1,2.1H232.3z"/>
		<path fill="#445464" d="M236.2,623.8l1.2-1.8c1,0.8,2.1,1.2,3,1.2c0.8,0,1.2-0.3,1.2-0.7v0c0-0.6-0.9-0.8-2-1.1
			c-1.4-0.4-2.9-1-2.9-2.9v0c0-2,1.6-3.1,3.5-3.1c1.2,0,2.6,0.4,3.6,1.1l-1,1.9c-1-0.6-1.9-0.9-2.6-0.9c-0.7,0-1,0.3-1,0.7v0
			c0,0.5,0.9,0.8,2,1.2c1.4,0.5,2.9,1.1,2.9,2.9v0c0,2.1-1.6,3.1-3.7,3.1C239,625.2,237.5,624.8,236.2,623.8z"/>
	</g>
	<g>
		<g>
			<polyline fill="none" stroke="#7F888D" stroke-width="4" stroke-miterlimit="10" points="284.7,708 284.7,510.7 484.3,511.6 
				484.3,709 			"/>
			<g>
				<polygon fill="#7F888D" points="296.7,704.5 284.7,725.2 272.7,704.5 				"/>
			</g>
			<g>
				<polygon fill="#7F888D" points="472.3,705.5 484.3,726.2 496.2,705.5 				"/>
			</g>
		</g>
	</g>
	<line fill="none" stroke="#7F888D" stroke-width="4" stroke-miterlimit="10" x1="385.3" y1="509.1" x2="385.3" y2="457.1"/>
	<path fill="none" stroke="#7F888D" stroke-width="4" stroke-miterlimit="10" d="M172.2,372.9"/>
	<g>
		<g>
			<line fill="#E6E7E8" x1="323.9" y1="362.6" x2="255.5" y2="362.6"/>
			<g>
				<line fill="none" stroke="#7F888D" stroke-width="4" stroke-miterlimit="10" x1="306.7" y1="362.6" x2="255.5" y2="362.6"/>
				<g>
					<polygon fill="#7F888D" points="303.2,350.6 323.9,362.6 303.2,374.6 					"/>
				</g>
			</g>
		</g>
		<g>
			<path fill="#6CB2E2" d="M226.2,339.7c1.5,0,3.4,2.4,4.9,2.4c1.6,0,3.4-2.4,4.9-2.4c0.1,0,0.2,0,0.3,0c1.6,0.4,2.2,3.7,3.7,4.4
				c0.3,0.1,0.6,0.2,1,0.2c1.1,0,2.4-0.4,3.5-0.4c0.5,0,0.9,0.1,1.2,0.3c1.3,1,0.4,4.3,1.4,5.6c1,1.3,4.4,1.1,5.1,2.6
				c0.7,1.5-1.5,4-1.2,5.6c0.4,1.6,3.5,2.9,3.5,4.6s-3.1,3-3.5,4.6c-0.4,1.6,1.9,4.2,1.2,5.6c-0.7,1.5-4.1,1.3-5.1,2.6
				c-1,1.3-0.1,4.5-1.4,5.6c-0.3,0.3-0.8,0.3-1.3,0.3c-1.1,0-2.4-0.4-3.5-0.4c-0.4,0-0.7,0.1-1,0.2c-1.5,0.7-2,4-3.7,4.4
				c-0.1,0-0.2,0-0.3,0c-1.5,0-3.3-2.4-4.9-2.4c-1.6,0-3.4,2.4-4.9,2.4c-0.1,0-0.2,0-0.3,0c-1.6-0.4-2.2-3.7-3.7-4.4
				c-0.3-0.1-0.6-0.2-1-0.2c-1.1,0-2.4,0.4-3.5,0.4c-0.5,0-0.9-0.1-1.2-0.3c-1.3-1-0.4-4.3-1.4-5.6c-1-1.3-4.4-1.1-5.1-2.6
				c-0.7-1.5,1.5-4,1.2-5.6c-0.4-1.6-3.5-2.9-3.5-4.6s3.1-3,3.5-4.6c0.4-1.6-1.9-4.2-1.2-5.6c0.7-1.5,4.1-1.3,5.1-2.6
				c1-1.3,0.1-4.5,1.4-5.6c0.3-0.3,0.8-0.3,1.2-0.3c1.1,0,2.4,0.4,3.5,0.4c0.4,0,0.7-0.1,1-0.2c1.5-0.7,2-4,3.7-4.4
				C226,339.7,226.1,339.7,226.2,339.7 M226.2,335.2c-0.4,0-0.9,0-1.3,0.1c-2.7,0.6-4.1,2.8-4.9,4.3c-0.7-0.1-1.5-0.2-2.3-0.2
				c-1.6,0-3,0.4-4.1,1.3c-2.2,1.7-2.4,4.3-2.5,6c-1.6,0.5-4.1,1.3-5.3,3.8c-1.2,2.5-0.3,4.9,0.3,6.4c-1.3,1.1-3.1,2.9-3.1,5.7
				c0,2.8,1.9,4.6,3.1,5.7c-0.6,1.5-1.6,4-0.3,6.5c1.2,2.5,3.7,3.3,5.3,3.8c0.1,1.7,0.3,4.2,2.5,6c1.1,0.9,2.5,1.3,4.1,1.3
				c0.8,0,1.6-0.1,2.3-0.2c0.8,1.5,2.1,3.7,4.9,4.3c0.4,0.1,0.9,0.1,1.3,0.1c2.1,0,3.7-1.1,4.9-2c1.2,0.9,2.8,2,4.9,2
				c0.4,0,0.9-0.1,1.3-0.1c2.7-0.6,4-2.8,4.9-4.3c0.7,0.1,1.5,0.2,2.3,0.2c1.6,0,3-0.4,4.1-1.3c2.2-1.7,2.4-4.3,2.5-6
				c1.6-0.5,4.1-1.2,5.3-3.8c1.2-2.5,0.3-4.9-0.3-6.5c1.3-1.1,3.1-2.9,3.1-5.7c0-2.8-1.9-4.6-3.1-5.7c0.6-1.5,1.6-3.9,0.4-6.4
				c-1.2-2.5-3.7-3.3-5.3-3.8c-0.1-1.7-0.3-4.2-2.5-6c-1.1-0.9-2.5-1.3-4.1-1.3c-0.8,0-1.6,0.1-2.3,0.2c-0.8-1.5-2.1-3.7-4.9-4.3
				c-0.4-0.1-0.9-0.1-1.3-0.1c-2.1,0-3.7,1.1-4.9,2C229.9,336.3,228.3,335.2,226.2,335.2L226.2,335.2z"/>
			<g>
				<path fill="#6CB2E2" d="M220.8,356h2.6l5.4,12.7h-2.9l-1.2-2.8h-5.3l-1.2,2.8h-2.8L220.8,356z M223.7,363.4l-1.7-4.1l-1.7,4.1
					H223.7z"/>
				<path fill="#6CB2E2" d="M230.7,356.1h5.1c3,0,4.8,1.8,4.8,4.4v0c0,2.9-2.3,4.4-5.1,4.4h-2.1v3.8h-2.8V356.1z M235.7,362.5
					c1.4,0,2.2-0.8,2.2-1.9v0c0-1.2-0.9-1.9-2.3-1.9h-2.1v3.9H235.7z"/>
				<path fill="#6CB2E2" d="M242.8,356.1h2.8v12.6h-2.8V356.1z"/>
			</g>
		</g>
		<line fill="#E6E7E8" stroke="#7F888D" stroke-width="4" stroke-miterlimit="10" x1="203.1" y1="362.6" x2="145.6" y2="362.6"/>
	</g>
	<g>
		<g>
			<path fill="#F08921" d="M437,418.1H332.2c-2.7,0-4.8-2.2-4.8-4.8v-103c0-2.7,2.2-4.8,4.8-4.8H437c2.7,0,4.8,2.2,4.8,4.8v103
				C441.9,415.9,439.7,418.1,437,418.1L437,418.1z M337,408.4h95.2v-93.3H337V408.4L337,408.4z"/>
		</g>
		<path fill="#F08921" d="M348.8,325.4v71h71v-71H348.8z M384.3,337.4c5.4,0,10.3,1.8,14.3,4.7l-2.4,3.3c-3.3-2.5-7.4-3.9-11.9-3.9
			c-8.4,0-15.6,5.2-18.5,12.6l-3.8-1.5C365.5,343.7,374.2,337.4,384.3,337.4z M369,361.3c0,6.4,4,11.9,9.6,14.2l-1.5,3.8
			c-3.6-1.4-6.6-3.9-8.7-7c-2.1-3.1-3.4-6.9-3.4-11H369z M366.3,354.3c1.4-3.6,3.9-6.7,7-8.9c3.1-2.2,6.9-3.5,11-3.5v4
			c-6.5,0-12,4-14.3,9.7L366.3,354.3z M369.5,361.3c0-8.2,6.6-14.8,14.8-14.8c7.1,0,13.1,5.1,14.5,11.8h-4.2
			c-1.3-4.5-5.4-7.8-10.3-7.8c-5.9,0-10.8,4.8-10.8,10.8s4.8,10.8,10.8,10.8c4.9,0,9-3.3,10.3-7.8h4.2c-1.4,6.7-7.4,11.8-14.5,11.8
			C376.2,376.1,369.5,369.5,369.5,361.3z M389.5,358.3c-0.7-1.2-1.7-2.1-3-2.6l1.6-4c2.9,1.1,5.2,3.6,6.1,6.6H389.5z M394.1,364.3
			c-0.9,3-3.2,5.4-6.1,6.6l-1.6-4c1.3-0.5,2.3-1.4,3-2.6H394.1z M378.3,361.3c0,0.9,0.2,1.7,0.5,2.4l-3.9,1.7
			c-0.6-1.3-0.9-2.7-0.9-4.1c0-5.7,4.6-10.3,10.3-10.3v4.3C381,355.3,378.3,358,378.3,361.3z M384.3,367.3v4.3c-2.8,0-5.4-1.2-7.2-3
			l3-3C381.2,366.6,382.7,367.3,384.3,367.3z M384.3,376.6c7.4,0,13.6-5.3,15-12.3h4.1c-1.4,9.3-9.5,16.4-19.1,16.4V376.6z
			 M399.3,358.3c-1-5.2-4.7-9.4-9.5-11.3l1.5-3.8c6.3,2.5,11,8.2,12.1,15H399.3z M362.4,370.9c-0.4-0.9-0.7-1.8-1-2.7
			c0-0.1,0-0.1-0.1-0.2c0-0.2-0.1-0.3-0.1-0.5c0-0.1-0.1-0.3-0.1-0.4c0-0.1-0.1-0.3-0.1-0.4c0-0.2-0.1-0.3-0.1-0.5
			c0-0.1-0.1-0.2-0.1-0.3c0-0.2-0.1-0.4-0.1-0.6c0-0.1,0-0.1,0-0.2c0-0.3-0.1-0.5-0.1-0.8c0,0,0,0,0-0.1c-0.1-0.9-0.2-1.9-0.2-2.9
			h4.1c0,0.9,0.1,1.8,0.2,2.6c0,0.1,0,0.3,0.1,0.4c0,0.2,0.1,0.3,0.1,0.4c0,0.1,0,0.2,0,0.2c0,0.2,0.1,0.4,0.1,0.6c0,0,0,0.1,0,0.1
			c0.1,0.2,0.1,0.4,0.2,0.6c0,0,0,0,0,0c0.1,0.2,0.1,0.5,0.2,0.7c0.2,0.8,0.5,1.5,0.8,2.2L362.4,370.9z M384.3,385.2
			c-6.6,0-12.6-2.7-16.9-7l2.9-2.9c3.6,3.6,8.5,5.8,14,5.8c9.9,0,18.2-7.3,19.6-16.8h4.1C406.5,376.1,396.5,385.2,384.3,385.2z
			 M403.9,358.3c-0.4-2.7-1.4-5.3-2.8-7.5l3.4-2.1c1.8,2.9,3,6.1,3.4,9.7H403.9z"/>
	</g>
	<line fill="#E6E7E8" stroke="#7F888D" stroke-width="4" stroke-miterlimit="10" x1="633.2" y1="361.8" x2="445.8" y2="361.8"/>
	<g>
		<g>
			<polyline fill="none" stroke="#7F888D" stroke-width="4" stroke-miterlimit="10" points="80,284.8 80,234.1 386.1,234.1 
				386.1,284.8 			"/>
			<g>
				<polygon fill="#7F888D" points="92,281.3 80,302 68,281.3 				"/>
			</g>
			<g>
				<polygon fill="#7F888D" points="374.1,281.3 386.1,302 398.1,281.3 				"/>
			</g>
		</g>
	</g>
	<g>
		<g>
			<polyline fill="none" stroke="#7F888D" stroke-width="4" stroke-miterlimit="10" points="690.4,284.8 690.4,234.1 386.1,234.1 
				386.1,167.9 			"/>
			<g>
				<polygon fill="#7F888D" points="702.4,281.3 690.4,302 678.5,281.3 				"/>
			</g>
		</g>
	</g>
</g>
</svg>
