<?xml version="1.0" encoding="utf-8"?>
<!-- Generator: Adobe Illustrator 17.0.0, SVG Export Plug-In . SVG Version: 6.00 Build 0)  -->
<!DOCTYPE svg PUBLIC "-//W3C//DTD SVG 1.1//EN" "http://www.w3.org/Graphics/SVG/1.1/DTD/svg11.dtd">
<svg version="1.1" id="Layer_1" xmlns="http://www.w3.org/2000/svg" xmlns:xlink="http://www.w3.org/1999/xlink" x="0px" y="0px"
	 width="512px" height="512px" viewBox="0 0 512 512" enable-background="new 0 0 512 512" xml:space="preserve">
<g>
	<g>
		<path fill="#9EC9D4" d="M465.286,416.583c0,4.95-4.05,9-9,9H55.714c-4.95,0-9-4.05-9-9V166.82c0-4.95,4.05-9,9-9h400.572
			c4.95,0,9,4.05,9,9V416.583z"/>
	</g>
	<g>
		<path fill="#9EC9D4" d="M310.168,86.417H200.601c-13.598,0-24.622,11.024-24.622,24.622v62.786
			c0,13.599,11.024,24.622,24.622,24.622h109.567c13.598,0,24.622-11.023,24.622-24.622v-62.786
			C334.79,97.441,323.766,86.417,310.168,86.417z M298.473,157.205c0,10.879-8.819,19.697-19.698,19.697h-48.013
			c-10.878,0-19.697-8.818-19.697-19.697v-23.391c0-10.878,8.819-19.697,19.697-19.697h48.013c10.879,0,19.698,8.819,19.698,19.697
			V157.205z"/>
	</g>
	<g>
		<path fill="#FFFFFF" d="M465.286,251.999H298.473v-35.702h-87.408v35.702H46.714v22.775h164.351v49.859h87.408v-49.859h166.813
			V251.999z M280.995,306.178h-52.453v-71.424h52.453V306.178z"/>
	</g>
</g>
<g>
</g>
<g>
</g>
<g>
</g>
<g>
</g>
<g>
</g>
<g>
</g>
</svg>
