<?xml version="1.0" encoding="utf-8"?>
<!-- Generator: Adobe Illustrator 17.0.0, SVG Export Plug-In . SVG Version: 6.00 Build 0)  -->
<!DOCTYPE svg PUBLIC "-//W3C//DTD SVG 1.1//EN" "http://www.w3.org/Graphics/SVG/1.1/DTD/svg11.dtd">
<svg version="1.1" id="Layer_1" xmlns="http://www.w3.org/2000/svg" xmlns:xlink="http://www.w3.org/1999/xlink" x="0px" y="0px"
	 width="512px" height="512px" viewBox="0 0 512 512" enable-background="new 0 0 512 512" xml:space="preserve">
<g>
	<g>
		<rect x="82.565" y="80.424" opacity="0.5" fill="#7297A4" width="170.587" height="170.587"/>
		<rect x="45.929" y="43.787" opacity="0.5" fill="#7297A4" width="170.587" height="170.587"/>
		<g>
			<rect x="82.85" y="89.886" fill="none" width="122.979" height="156.018"/>
			<path fill="#FFFFFF" d="M142.078,190.2v-67.421c-12.546,9.632-20.993,14.447-25.338,14.447c-2.075,0-3.916-0.826-5.52-2.482
				c-1.605-1.654-2.408-3.568-2.408-5.742c0-2.519,0.79-4.372,2.371-5.557c1.581-1.186,4.372-2.716,8.372-4.594
				c5.976-2.815,10.755-5.779,14.336-8.891c3.581-3.112,6.754-6.594,9.521-10.447c2.766-3.853,4.568-6.224,5.409-7.112
				c0.839-0.889,2.419-1.334,4.742-1.334c2.618,0,4.716,1.013,6.298,3.038c1.58,2.026,2.371,4.815,2.371,8.372v84.833
				c0,9.928-3.384,14.892-10.15,14.892c-3.013,0-5.434-1.013-7.261-3.038C142.991,197.14,142.078,194.152,142.078,190.2z"/>
		</g>
	</g>
	<g>
		<rect x="82.565" y="293.343" opacity="0.5" fill="#7297A4" width="170.587" height="170.587"/>
		<rect x="45.929" y="256.706" opacity="0.5" fill="#7297A4" width="170.587" height="170.587"/>
		<g>
			<rect x="82.85" y="302.805" fill="none" width="122.979" height="156.018"/>
			<path fill="#FFFFFF" d="M140.818,347.698c4.543,0,8.458-1.334,11.743-4.001c3.284-2.667,4.927-6.494,4.927-11.483
				c0-3.803-1.309-7.076-3.927-9.817c-2.619-2.741-6.149-4.111-10.595-4.111c-3.014,0-5.496,0.42-7.446,1.259
				c-1.952,0.841-3.495,1.952-4.63,3.334c-1.137,1.384-2.211,3.162-3.223,5.335c-1.013,2.174-1.939,4.223-2.779,6.149
				c-0.494,1.037-1.383,1.853-2.667,2.445c-1.285,0.593-2.767,0.889-4.445,0.889c-1.976,0-3.792-0.803-5.446-2.408
				c-1.655-1.604-2.482-3.741-2.482-6.408c0-2.568,0.778-5.272,2.334-8.113c1.556-2.84,3.827-5.544,6.816-8.112
				c2.988-2.568,6.706-4.631,11.151-6.187s9.409-2.334,14.892-2.334c4.791,0,9.162,0.655,13.114,1.963
				c3.951,1.31,7.383,3.199,10.298,5.668c2.914,2.471,5.112,5.335,6.594,8.595c1.482,3.26,2.223,6.768,2.223,10.521
				c0,4.939-1.074,9.176-3.223,12.706c-2.148,3.532-5.223,6.978-9.224,10.336c3.853,2.074,7.1,4.445,9.743,7.112
				c2.642,2.668,4.63,5.619,5.964,8.854c1.333,3.236,2,6.731,2,10.484c0,4.495-0.902,8.842-2.705,13.039
				c-1.804,4.199-4.458,7.94-7.964,11.225c-3.508,3.286-7.668,5.854-12.484,7.706c-4.816,1.852-10.139,2.778-15.966,2.778
				c-5.927,0-11.237-1.063-15.929-3.187c-4.693-2.123-8.557-4.778-11.595-7.964c-3.038-3.187-5.334-6.483-6.891-9.892
				c-1.556-3.408-2.333-6.224-2.333-8.446c0-2.863,0.926-5.173,2.778-6.927c1.852-1.753,4.16-2.631,6.927-2.631
				c1.382,0,2.716,0.408,4.001,1.223c1.284,0.815,2.123,1.791,2.519,2.927c2.567,6.866,5.321,11.966,8.261,15.3
				c2.938,3.334,7.076,5.001,12.41,5.001c3.062,0,6.013-0.753,8.854-2.26c2.84-1.506,5.187-3.742,7.039-6.705
				c1.852-2.964,2.778-6.396,2.778-10.299c0-5.779-1.582-10.31-4.742-13.596c-3.162-3.284-7.557-4.927-13.188-4.927
				c-0.989,0-2.519,0.1-4.593,0.297c-2.075,0.197-3.408,0.296-4.001,0.296c-2.717,0-4.816-0.678-6.298-2.037
				c-1.481-1.358-2.223-3.247-2.223-5.668c0-2.371,0.889-4.284,2.667-5.742c1.778-1.456,4.42-2.186,7.927-2.186H140.818z"/>
		</g>
	</g>
	<g>
		<rect x="295.484" y="80.424" opacity="0.5" fill="#A3CCD7" width="170.587" height="170.587"/>
		<rect x="258.848" y="43.787" opacity="0.5" fill="#A3CCD7" width="170.587" height="170.587"/>
		<g>
			<rect x="295.769" y="89.886" fill="none" width="122.979" height="156.018"/>
			<path fill="#FFFFFF" d="M346.034,182.865h38.674c3.854,0,6.791,0.791,8.817,2.371c2.024,1.582,3.037,3.73,3.037,6.446
				c0,2.42-0.803,4.471-2.407,6.149c-1.606,1.68-4.038,2.519-7.298,2.519h-54.53c-3.704,0-6.594-1.024-8.669-3.075
				c-2.074-2.049-3.111-4.457-3.111-7.224c0-1.778,0.667-4.136,2-7.076c1.334-2.938,2.79-5.248,4.372-6.927
				c6.568-6.816,12.495-12.657,17.781-17.522c5.284-4.864,9.063-8.063,11.336-9.594c4.049-2.864,7.42-5.742,10.113-8.632
				c2.691-2.889,4.741-5.853,6.149-8.891c1.407-3.038,2.111-6.013,2.111-8.928c0-3.16-0.754-5.988-2.26-8.483
				c-1.508-2.493-3.557-4.433-6.149-5.816c-2.594-1.382-5.422-2.074-8.483-2.074c-6.472,0-11.558,2.841-15.263,8.52
				c-0.494,0.741-1.321,2.767-2.481,6.075c-1.161,3.31-2.471,5.854-3.927,7.631c-1.458,1.778-3.594,2.667-6.409,2.667
				c-2.471,0-4.52-0.815-6.149-2.445c-1.63-1.63-2.444-3.853-2.444-6.668c0-3.408,0.765-6.964,2.296-10.669
				c1.531-3.704,3.816-7.062,6.854-10.076c3.038-3.012,6.891-5.445,11.559-7.298c4.667-1.852,10.137-2.778,16.41-2.778
				c7.558,0,14.003,1.186,19.338,3.557c3.456,1.581,6.494,3.754,9.112,6.52c2.618,2.767,4.655,5.964,6.112,9.595
				s2.187,7.397,2.187,11.299c0,6.125-1.52,11.694-4.557,16.707c-3.038,5.014-6.138,8.94-9.299,11.78
				c-3.161,2.841-8.459,7.298-15.892,13.373c-7.435,6.076-12.534,10.793-15.3,14.151
				C348.479,179.383,347.268,180.988,346.034,182.865z"/>
		</g>
	</g>
	<g>
		<rect x="295.484" y="297.625" opacity="0.5" fill="#154047" width="170.587" height="170.587"/>
		<rect x="258.848" y="260.989" opacity="0.5" fill="#154047" width="170.587" height="170.587"/>
		<g>
			<rect x="295.769" y="307.088" fill="none" width="122.979" height="156.018"/>
			<path fill="#FFFFFF" d="M365.297,408.142V394.36h-37.192c-4.693,0-8.213-1.062-10.559-3.186
				c-2.346-2.123-3.519-5.013-3.519-8.668c0-0.938,0.172-1.89,0.519-2.853c0.345-0.964,0.863-1.976,1.556-3.038
				c0.691-1.062,1.407-2.086,2.148-3.074s1.654-2.197,2.741-3.631l39.268-52.529c2.567-3.457,4.68-5.964,6.335-7.521
				c1.654-1.556,3.642-2.334,5.964-2.334c7.508,0,11.262,4.298,11.262,12.892v57.346h3.186c3.803,0,6.854,0.519,9.15,1.556
				s3.445,3.31,3.445,6.816c0,2.865-0.939,4.952-2.815,6.261c-1.878,1.31-4.693,1.963-8.446,1.963h-4.52v13.781
				c0,3.804-0.841,6.631-2.519,8.483c-1.681,1.852-3.927,2.778-6.742,2.778c-2.768,0-5.001-0.952-6.705-2.853
				C366.149,414.649,365.297,411.846,365.297,408.142z M333.438,377.765h31.858v-43.046L333.438,377.765z"/>
		</g>
	</g>
</g>
<g>
</g>
<g>
</g>
<g>
</g>
<g>
</g>
<g>
</g>
<g>
</g>
</svg>
