<?xml version="1.0" encoding="utf-8"?>
<!-- Generator: Adobe Illustrator 17.0.0, SVG Export Plug-In . SVG Version: 6.00 Build 0)  -->
<!DOCTYPE svg PUBLIC "-//W3C//DTD SVG 1.1//EN" "http://www.w3.org/Graphics/SVG/1.1/DTD/svg11.dtd">
<svg version="1.1" id="Layer_1" xmlns="http://www.w3.org/2000/svg" xmlns:xlink="http://www.w3.org/1999/xlink" x="0px" y="0px"
	 width="512px" height="512px" viewBox="0 0 512 512" enable-background="new 0 0 512 512" xml:space="preserve">
<g>
	<g>
		<path fill="#427585" d="M246.326,306.509h-59.83v-15.624h59.83V306.509z M157.918,306.509h-49.352
			c-1.026,0-2.052-0.027-3.071-0.08l-7.801-0.404l0.809-15.601l7.801,0.404c0.751,0.038,1.503,0.057,2.262,0.057h49.352V306.509z
			 M278.936,297.777l-10.07-11.947l5.974-5.035c9.712-8.184,15.281-20.154,15.281-32.837v-7.812l15.624-0.208v8.02
			c0,17.301-7.595,33.623-20.835,44.784L278.936,297.777z M66.577,289.504l-4.719-6.225c-7.751-10.24-11.848-22.452-11.844-35.322
			v-19.153h15.624v19.154c-0.004,9.437,2.998,18.386,8.678,25.885l4.715,6.227L66.577,289.504z M305.745,211.356h-15.624v-59.828
			h15.624V211.356z M65.638,200.222H50.014v-59.828h15.624V200.222z M305.745,122.946h-15.624v-19.051
			c0-9.466-3.021-18.443-8.735-25.958l-4.73-6.218l12.435-9.458l4.73,6.22c7.801,10.255,11.924,22.502,11.924,35.414V122.946z
			 M50.014,111.812v-7.917c0-17.255,7.56-33.55,20.739-44.706l5.962-5.048l10.093,11.926l-5.962,5.047
			c-9.666,8.182-15.208,20.131-15.208,32.782v7.812L50.014,111.812z M257.148,61.426l-7.801-0.402
			c-0.713-0.038-1.434-0.055-2.155-0.055h-49.455V45.344h49.455c0.996,0,1.984,0.025,2.964,0.074l7.801,0.404L257.148,61.426z
			 M169.156,60.968h-59.83V45.344h59.83V60.968z"/>
	</g>
	<g>
		<path fill="#427585" d="M402.568,392.441h-59.83v-15.624h59.83V392.441z M314.156,392.441h-49.348
			c-1.026,0-2.052-0.027-3.071-0.08l-7.801-0.404l0.809-15.601l7.801,0.404c0.751,0.038,1.503,0.057,2.262,0.057h49.348V392.441z
			 M435.174,383.71l-10.066-11.951l5.973-5.031c9.712-8.182,15.281-20.148,15.281-32.835v-7.812l15.624-0.206v8.018
			c0,17.302-7.595,33.628-20.835,44.782L435.174,383.71z M222.822,375.436l-4.719-6.225c-7.751-10.238-11.848-22.448-11.848-35.318
			v-19.16h15.624v19.16c0,9.437,3.002,18.386,8.682,25.881l4.715,6.229L222.822,375.436z M461.986,297.293h-15.624v-59.83h15.624
			V297.293z M221.879,286.153h-15.624v-59.83h15.624V286.153z M461.986,208.883h-15.624v-19.055c0-9.469-3.021-18.445-8.731-25.954
			l-4.73-6.218l12.435-9.46l4.73,6.218c7.797,10.251,11.92,22.498,11.92,35.414V208.883z M206.255,197.74v-7.913
			c0-17.257,7.56-33.552,20.743-44.71l5.962-5.047l10.093,11.926l-5.962,5.048c-9.666,8.182-15.212,20.131-15.212,32.782v7.812
			L206.255,197.74z M413.397,147.359l-7.801-0.402c-0.717-0.038-1.438-0.055-2.163-0.055h-49.451v-15.624h49.451
			c0.992,0,1.98,0.025,2.964,0.074l7.804,0.402L413.397,147.359z M325.401,146.901h-59.83v-15.624h59.83V146.901z"/>
	</g>
	<g>
		<path fill="#427585" d="M316.635,466.656h-59.83v-15.624h59.83V466.656z M228.223,466.656h-49.348
			c-1.026,0-2.052-0.027-3.071-0.08l-7.801-0.404l0.809-15.601l7.801,0.404c0.751,0.038,1.503,0.057,2.262,0.057h49.348V466.656z
			 M349.241,457.924l-10.066-11.951l5.973-5.031c9.712-8.182,15.281-20.148,15.281-32.835v-7.812l15.624-0.206v8.018
			c0,17.302-7.595,33.628-20.835,44.782L349.241,457.924z M136.889,449.651l-4.719-6.225c-7.751-10.238-11.848-22.448-11.848-35.318
			v-19.16h15.624v19.16c0,9.437,3.002,18.386,8.682,25.881l4.715,6.229L136.889,449.651z M376.053,371.507h-15.624v-59.83h15.624
			V371.507z M135.947,360.365h-15.624v-59.83h15.624V360.365z M376.053,283.099h-15.624v-19.057c0-9.469-3.021-18.443-8.731-25.952
			l-4.73-6.218l12.435-9.46l4.73,6.218c7.797,10.251,11.92,22.498,11.92,35.412V283.099z M120.323,271.955v-7.913
			c0-17.257,7.56-33.552,20.743-44.71l5.962-5.047l10.093,11.926l-5.962,5.048c-9.666,8.182-15.212,20.131-15.212,32.782v7.812
			L120.323,271.955z M327.464,221.573l-7.801-0.402c-0.717-0.038-1.438-0.055-2.163-0.055H268.05v-15.624h49.451
			c0.992,0,1.98,0.025,2.964,0.074l7.804,0.402L327.464,221.573z M239.468,221.116h-59.83v-15.624h59.83V221.116z"/>
	</g>
</g>
<g>
</g>
<g>
</g>
<g>
</g>
<g>
</g>
<g>
</g>
<g>
</g>
</svg>
