<?xml version="1.0" encoding="utf-8"?>
<!-- Generator: Adobe Illustrator 17.0.0, SVG Export Plug-In . SVG Version: 6.00 Build 0)  -->
<!DOCTYPE svg PUBLIC "-//W3C//DTD SVG 1.1//EN" "http://www.w3.org/Graphics/SVG/1.1/DTD/svg11.dtd">
<svg version="1.1" id="Layer_1" xmlns="http://www.w3.org/2000/svg" xmlns:xlink="http://www.w3.org/1999/xlink" x="0px" y="0px"
	 width="512px" height="512px" viewBox="0 0 512 512" enable-background="new 0 0 512 512" xml:space="preserve">
<g>
	<g>
		<g>
			<g>
				<path fill="#B1B1B1" d="M58.727,77.609v228h353.25v-228H58.727z M387.644,275.215H83.059V108.003h304.585V275.215z"/>
			</g>
		</g>
		<g>
			<g>
				<path fill="#B1B1B1" d="M58.727,322.859v52.5h353.25v-52.5H58.727z M387.644,358.859H235.352v-24h152.292V358.859z"/>
			</g>
		</g>
		<g>
			<path fill="#646565" d="M177.749,187.985l-71.534,30.573v-13.183l56.652-23.502l-56.652-23.282v-13.188l71.534,30.208V187.985z"
				/>
			<path fill="#646565" d="M174.791,247.192v-9.576h64.338v9.576H174.791z"/>
		</g>
	</g>
	<g>
		<rect x="204.458" y="406.265" fill="#67909D" width="248.724" height="29.767"/>
		<path fill="#67909D" d="M377.771,275.619c0,31.235-22.656,88.31-50.604,88.31c-27.949,0-50.605-57.074-50.605-88.31
			c0-31.237,22.656-56.559,50.605-56.559C355.115,219.061,377.771,244.383,377.771,275.619z"/>
		<path fill="#67909D" d="M453.182,407.919c0-21.372-55.679-59.866-124.362-59.866s-124.362,38.494-124.362,59.866"/>
	</g>
</g>
<g>
</g>
<g>
</g>
<g>
</g>
<g>
</g>
<g>
</g>
<g>
</g>
</svg>
