<?xml version="1.0" encoding="utf-8"?>
<!-- Generator: Adobe Illustrator 17.0.0, SVG Export Plug-In . SVG Version: 6.00 Build 0)  -->
<!DOCTYPE svg PUBLIC "-//W3C//DTD SVG 1.1//EN" "http://www.w3.org/Graphics/SVG/1.1/DTD/svg11.dtd">
<svg version="1.1" id="Layer_1" xmlns="http://www.w3.org/2000/svg" xmlns:xlink="http://www.w3.org/1999/xlink" x="0px" y="0px"
	 width="512px" height="512px" viewBox="0 0 512 512" enable-background="new 0 0 512 512" xml:space="preserve">
<g>
	<g>
		<rect x="119.49" y="55.307" fill="#CCCBCB" width="296.021" height="57.97"/>
		<rect x="45.485" y="55.307" fill="#CCCBCB" width="59.204" height="57.97"/>
		<rect x="119.49" y="128.078" fill="#CCCBCB" width="296.021" height="57.971"/>
		<rect x="45.485" y="128.078" fill="#CCCBCB" width="59.204" height="57.971"/>
		<rect x="119.49" y="200.85" fill="#CCCBCB" width="296.021" height="57.971"/>
		<rect x="45.485" y="200.85" fill="#CCCBCB" width="59.204" height="57.971"/>
		<rect x="119.49" y="272.388" fill="#CCCBCB" width="296.021" height="57.971"/>
		<rect x="45.485" y="272.388" fill="#CCCBCB" width="59.204" height="57.971"/>
	</g>
	<g>
		<g>
			<g>
				<path fill="#427585" d="M252.699,221.205c-52.549,0-95.149,42.599-95.149,95.148s42.6,95.149,95.149,95.149
					c52.549,0,95.148-42.6,95.148-95.149S305.248,221.205,252.699,221.205z M252.699,367.916c-28.477,0-51.563-23.085-51.563-51.563
					c0-28.477,23.085-51.562,51.563-51.562c28.477,0,51.562,23.085,51.562,51.562C304.261,344.831,281.176,367.916,252.699,367.916z
					"/>
			</g>
		</g>
		<g>
			<path fill="#427585" d="M285.648,369.771v62.665c0,13.397-10.86,24.257-24.257,24.257h-17.384
				c-13.397,0-24.257-10.86-24.257-24.257v-62.665"/>
			<path fill="#427585" d="M219.749,262.936v-62.664c0-13.397,10.86-24.257,24.257-24.257h17.384
				c13.397,0,24.257,10.86,24.257,24.257v62.664"/>
		</g>
		<g>
			<path fill="#427585" d="M306.866,283.404h62.665c13.397,0,24.257,10.86,24.257,24.257v17.384
				c0,13.397-10.86,24.257-24.257,24.257h-62.665"/>
			<path fill="#427585" d="M198.531,349.303h-62.665c-13.396,0-24.257-10.86-24.257-24.257v-17.384
				c0-13.397,10.861-24.257,24.257-24.257h62.665"/>
		</g>
		<path fill="#427585" d="M265.245,254.02l44.311-44.311c9.473-9.473,24.832-9.473,34.305,0l12.293,12.293
			c9.473,9.473,9.473,24.832,0,34.305l-44.311,44.311"/>
		<path fill="#427585" d="M311.842,331.209l44.311,44.311c9.473,9.473,9.473,24.832,0,34.305l-12.293,12.293
			c-9.473,9.473-24.832,9.473-34.305,0l-44.311-44.311"/>
		<path fill="#427585" d="M192.555,300.617l-44.311-44.311c-9.473-9.473-9.473-24.832,0-34.305l12.293-12.293
			c9.473-9.473,24.832-9.473,34.305,0l44.311,44.311"/>
		<path fill="#427585" d="M239.153,377.807l-44.311,44.311c-9.473,9.473-24.832,9.473-34.305,0l-12.293-12.293
			c-9.473-9.473-9.473-24.832,0-34.305l44.311-44.311"/>
	</g>
	<g>
		<g>
			<g>
				<path fill="#427585" d="M402.698,121.441c-23.769,0-43.037,19.269-43.037,43.037c0,23.769,19.269,43.037,43.037,43.037
					s43.037-19.268,43.037-43.037C445.736,140.71,426.467,121.441,402.698,121.441z M402.698,187.801
					c-12.88,0-23.322-10.442-23.322-23.323c0-12.88,10.442-23.322,23.322-23.322c12.881,0,23.323,10.442,23.323,23.322
					C426.021,177.359,415.579,187.801,402.698,187.801z"/>
			</g>
		</g>
		<g>
			<path fill="#427585" d="M417.602,188.64v28.344c0,6.06-4.912,10.972-10.972,10.972h-7.863c-6.06,0-10.972-4.912-10.972-10.972
				V188.64"/>
			<path fill="#427585" d="M387.795,140.317v-28.344c0-6.06,4.912-10.972,10.972-10.972h7.863c6.06,0,10.972,4.912,10.972,10.972
				v28.344"/>
		</g>
		<g>
			<path fill="#427585" d="M427.199,149.575h28.344c6.06,0,10.972,4.913,10.972,10.972v7.863c0,6.06-4.912,10.972-10.972,10.972
				h-28.344"/>
			<path fill="#427585" d="M378.198,179.382h-28.344c-6.06,0-10.972-4.912-10.972-10.972v-7.863c0-6.059,4.912-10.972,10.972-10.972
				h28.344"/>
		</g>
		<path fill="#427585" d="M408.373,136.284l20.042-20.042c4.285-4.285,11.232-4.285,15.516,0l5.56,5.56
			c4.285,4.284,4.285,11.232,0,15.516l-20.042,20.042"/>
		<path fill="#427585" d="M429.45,171.198l20.042,20.043c4.285,4.284,4.285,11.232,0,15.516l-5.56,5.56
			c-4.285,4.285-11.232,4.285-15.516,0l-20.042-20.043"/>
		<path fill="#427585" d="M375.495,157.361l-20.042-20.042c-4.285-4.285-4.285-11.232,0-15.516l5.56-5.56
			c4.285-4.285,11.232-4.285,15.516,0l20.043,20.042"/>
		<path fill="#427585" d="M396.572,192.275l-20.043,20.043c-4.285,4.285-11.232,4.285-15.516,0l-5.56-5.56
			c-4.285-4.285-4.285-11.232,0-15.516l20.042-20.043"/>
	</g>
</g>
<g>
</g>
<g>
</g>
<g>
</g>
<g>
</g>
<g>
</g>
<g>
</g>
</svg>
