<?xml version="1.0" encoding="utf-8"?>
<!-- Generator: Adobe Illustrator 17.0.0, SVG Export Plug-In . SVG Version: 6.00 Build 0)  -->
<!DOCTYPE svg PUBLIC "-//W3C//DTD SVG 1.1//EN" "http://www.w3.org/Graphics/SVG/1.1/DTD/svg11.dtd">
<svg version="1.1" id="Layer_1" xmlns="http://www.w3.org/2000/svg" xmlns:xlink="http://www.w3.org/1999/xlink" x="0px" y="0px"
	 width="512px" height="512px" viewBox="0 0 512 512" enable-background="new 0 0 512 512" xml:space="preserve">
<g>
	<g>
		<path fill="#707171" d="M395.454,255.696c9.926,0,18,8.075,18,18v123.75c0,9.925-8.074,18-18,18h-175.5c-9.925,0-18-8.075-18-18
			v-123.75c0-9.925,8.075-18,18-18H395.454 M395.454,201.696h-175.5c-39.764,0-72,32.236-72,72v123.75c0,39.765,32.236,72,72,72
			h175.5c39.765,0,72-32.235,72-72v-123.75C467.454,233.932,435.219,201.696,395.454,201.696L395.454,201.696z"/>
	</g>
	<g>
		<rect x="199.986" y="270.321" fill="none" width="113.062" height="143.438"/>
		<path fill="#43666D" d="M254.707,350.648v-53.986c-10.046,7.712-16.81,11.568-20.289,11.568c-1.661,0-3.136-0.662-4.42-1.987
			c-1.286-1.325-1.928-2.857-1.928-4.598c0-2.018,0.632-3.5,1.898-4.449c1.265-0.949,3.5-2.175,6.703-3.679
			c4.785-2.255,8.611-4.628,11.479-7.119c2.867-2.491,5.408-5.28,7.624-8.365c2.214-3.085,3.657-4.983,4.331-5.695
			c0.672-0.712,1.938-1.067,3.797-1.067c2.096,0,3.775,0.811,5.043,2.432c1.264,1.623,1.898,3.856,1.898,6.704v67.929
			c0,7.949-2.711,11.925-8.129,11.925c-2.412,0-4.352-0.812-5.813-2.433C255.438,356.206,254.707,353.813,254.707,350.648z"/>
	</g>
	<path fill="#707171" d="M291.954,98.196c9.925,0,18,8.075,18,18v68.345h54v-68.345c0-39.764-32.235-72-72-72l0,0h-175.5
		c-39.764,0-72,32.236-72,72v123.75c0,39.765,32.236,72,72,72v-54c-9.925,0-18-8.074-18-18v-123.75c0-9.925,8.075-18,18-18H291.954"
		/>
	<g>
		<rect x="87.486" y="103.821" fill="none" width="113.062" height="143.438"/>
		<path fill="#43666D" d="M135.029,178.276h30.968c3.085,0,5.438,0.633,7.06,1.898c1.621,1.266,2.433,2.987,2.433,5.161
			c0,1.938-0.644,3.58-1.928,4.924c-1.286,1.345-3.233,2.017-5.844,2.017h-43.664c-2.967,0-5.28-0.82-6.941-2.462
			c-1.661-1.641-2.491-3.569-2.491-5.784c0-1.424,0.533-3.312,1.602-5.666c1.067-2.353,2.233-4.202,3.5-5.547
			c5.26-5.458,10.006-10.135,14.238-14.031c4.231-3.895,7.257-6.456,9.077-7.683c3.242-2.293,5.941-4.598,8.098-6.912
			c2.155-2.313,3.797-4.687,4.924-7.119c1.128-2.432,1.691-4.814,1.691-7.148c0-2.531-0.604-4.795-1.81-6.793
			c-1.207-1.997-2.848-3.549-4.924-4.657c-2.077-1.107-4.342-1.661-6.793-1.661c-5.182,0-9.255,2.275-12.222,6.822
			c-0.396,0.594-1.059,2.216-1.987,4.865c-0.93,2.65-1.979,4.687-3.145,6.11c-1.167,1.424-2.877,2.136-5.131,2.136
			c-1.979,0-3.619-0.652-4.925-1.958c-1.305-1.305-1.957-3.085-1.957-5.339c0-2.729,0.612-5.577,1.839-8.543
			c1.226-2.967,3.055-5.656,5.487-8.068c2.433-2.412,5.518-4.361,9.255-5.844c3.737-1.483,8.117-2.225,13.141-2.225
			c6.052,0,11.213,0.949,15.484,2.848c2.768,1.266,5.2,3.006,7.297,5.221c2.096,2.215,3.728,4.775,4.895,7.683
			c1.166,2.907,1.75,5.923,1.75,9.047c0,4.905-1.216,9.365-3.648,13.378c-2.433,4.015-4.915,7.159-7.445,9.433
			c-2.531,2.275-6.773,5.844-12.726,10.708c-5.953,4.865-10.036,8.642-12.251,11.331
			C136.986,175.488,136.017,176.773,135.029,178.276z"/>
	</g>
</g>
<g>
</g>
<g>
</g>
<g>
</g>
<g>
</g>
<g>
</g>
<g>
</g>
</svg>
