<?xml version="1.0" encoding="utf-8"?>
<!-- Generator: Adobe Illustrator 17.0.0, SVG Export Plug-In . SVG Version: 6.00 Build 0)  -->
<!DOCTYPE svg PUBLIC "-//W3C//DTD SVG 1.1//EN" "http://www.w3.org/Graphics/SVG/1.1/DTD/svg11.dtd">
<svg version="1.1" id="Layer_1" xmlns="http://www.w3.org/2000/svg" xmlns:xlink="http://www.w3.org/1999/xlink" x="0px" y="0px"
	 width="512px" height="512px" viewBox="0 0 512 512" enable-background="new 0 0 512 512" xml:space="preserve">
<g>
	<polygon opacity="0.5" fill="#AFAEAE" points="152.219,47.734 82.188,95.266 82.188,374.266 294.25,374.266 341.781,326.734 
		341.781,47.734 	"/>
	<rect x="114.812" y="129.578" fill="#F5F5F5" width="148.5" height="28.688"/>
	<rect x="114.812" y="179.078" fill="#F5F5F5" width="148.5" height="28.688"/>
	<rect x="204.812" y="228.578" fill="#F5F5F5" width="58.5" height="28.688"/>
	<path fill="#427585" d="M236.312,293.266c0-14.912,12.088-27,27-27h139.5c14.912,0,27,12.088,27,27v144c0,14.912-12.088,27-27,27
		h-139.5c-14.912,0-27-12.088-27-27V293.266z"/>
	<g>
		<rect x="230.125" y="296.641" fill="none" width="199.688" height="164.25"/>
		<path fill="#FFFFFF" d="M308.143,313.452l53.949,81.633v-82.389c0-5.353,1.15-9.368,3.449-12.046
			c2.299-2.677,5.4-4.016,9.307-4.016c4.031,0,7.211,1.339,9.543,4.016c2.33,2.678,3.496,6.693,3.496,12.046v108.938
			c0,12.157-5.041,18.235-15.117,18.235c-2.52,0-4.787-0.363-6.803-1.087c-2.018-0.725-3.906-1.873-5.67-3.448
			c-1.764-1.574-3.4-3.416-4.912-5.527c-1.512-2.109-3.023-4.267-4.535-6.472l-52.627-80.688v81.16
			c0,5.291-1.229,9.292-3.686,11.999c-2.455,2.708-5.605,4.063-9.447,4.063c-3.969,0-7.15-1.37-9.543-4.11
			c-2.395-2.74-3.59-6.723-3.59-11.952V316.948c0-4.535,0.502-8.093,1.512-10.677c1.195-2.834,3.18-5.149,5.951-6.944
			s5.764-2.692,8.977-2.692c2.518,0,4.678,0.41,6.473,1.229s3.369,1.922,4.723,3.307c1.355,1.386,2.74,3.182,4.158,5.385
			C305.168,308.761,306.631,311.06,308.143,313.452z"/>
	</g>
</g>
<g>
</g>
<g>
</g>
<g>
</g>
<g>
</g>
<g>
</g>
<g>
</g>
</svg>
