<?xml version="1.0" encoding="utf-8"?>
<!-- Generator: Adobe Illustrator 17.0.0, SVG Export Plug-In . SVG Version: 6.00 Build 0)  -->
<!DOCTYPE svg PUBLIC "-//W3C//DTD SVG 1.1//EN" "http://www.w3.org/Graphics/SVG/1.1/DTD/svg11.dtd">
<svg version="1.1" id="Layer_1" xmlns="http://www.w3.org/2000/svg" xmlns:xlink="http://www.w3.org/1999/xlink" x="0px" y="0px"
	 width="512px" height="512px" viewBox="0 0 512 512" enable-background="new 0 0 512 512" xml:space="preserve">
<g>
	<g>
		<rect x="81.017" y="79.493" fill="#7297A4" width="169.875" height="169.875"/>
		<g>
			<rect x="109.423" y="110.711" fill="none" width="113.062" height="143.438"/>
			<path fill="#FFFFFF" d="M181.108,203.48c-4.495,3.498-8.844,6.12-13.044,7.868c-4.201,1.748-8.912,2.623-14.134,2.623
				c-4.768,0-8.957-0.943-12.567-2.827c-3.61-1.884-6.392-4.438-8.344-7.663c-1.953-3.224-2.929-6.72-2.929-10.489
				c0-5.085,1.611-9.422,4.836-13.01c3.224-3.587,7.651-5.994,13.282-7.22c1.18-0.272,4.109-0.886,8.787-1.839
				c4.676-0.954,8.685-1.828,12.022-2.623c3.338-0.794,6.958-1.759,10.865-2.895c-0.228-4.904-1.216-8.503-2.963-10.796
				c-1.749-2.292-5.37-3.44-10.864-3.44c-4.723,0-8.276,0.659-10.66,1.976c-2.384,1.317-4.427,3.293-6.13,5.926
				c-1.703,2.634-2.906,4.371-3.61,5.211c-0.705,0.841-2.214,1.26-4.53,1.26c-2.089,0-3.894-0.669-5.415-2.009
				c-1.522-1.339-2.282-3.054-2.282-5.143c0-3.27,1.158-6.448,3.474-9.536c2.316-3.088,5.926-5.63,10.831-7.629
				c4.904-1.998,11.011-2.997,18.323-2.997c8.174,0,14.599,0.965,19.277,2.895c4.676,1.931,7.98,4.984,9.911,9.162
				c1.93,4.178,2.895,9.718,2.895,16.62c0,4.359-0.012,8.061-0.034,11.103c-0.023,3.042-0.058,6.426-0.103,10.149
				c0,3.497,0.579,7.142,1.737,10.933c1.158,3.792,1.737,6.232,1.737,7.322c0,1.907-0.897,3.644-2.69,5.211
				c-1.794,1.566-3.826,2.35-6.096,2.35c-1.907,0-3.792-0.897-5.654-2.691C185.172,209.486,183.196,206.887,181.108,203.48z
				 M179.882,176.575c-2.725,1-6.687,2.055-11.886,3.167c-5.2,1.113-8.799,1.931-10.796,2.452c-1.999,0.522-3.906,1.544-5.722,3.065
				c-1.817,1.522-2.725,3.645-2.725,6.369c0,2.816,1.066,5.21,3.201,7.186c2.134,1.975,4.927,2.963,8.378,2.963
				c3.678,0,7.072-0.806,10.183-2.418c3.11-1.611,5.392-3.689,6.846-6.233c1.68-2.815,2.521-7.447,2.521-13.896V176.575z"/>
		</g>
	</g>
	<g>
		<rect x="261.017" y="79.493" fill="#B6D8DF" width="169.875" height="169.875"/>
		<g>
			<rect x="289.423" y="110.711" fill="none" width="113.062" height="143.438"/>
			<path fill="#FFFFFF" d="M329.129,121.334v28.404c3.496-3.632,7.061-6.414,10.693-8.344c3.633-1.93,8.129-2.895,13.486-2.895
				c6.176,0,11.59,1.464,16.246,4.393c4.654,2.929,8.264,7.176,10.83,12.738c2.564,5.563,3.85,12.158,3.85,19.787
				c0,5.631-0.717,10.796-2.146,15.497c-1.43,4.7-3.508,8.776-6.232,12.227c-2.725,3.452-6.029,6.12-9.91,8.003
				c-3.883,1.884-8.164,2.827-12.84,2.827c-2.861,0-5.553-0.341-8.072-1.022s-4.666-1.577-6.438-2.69
				c-1.77-1.112-3.281-2.259-4.529-3.44c-1.25-1.18-2.895-2.951-4.938-5.313v1.839c0,3.497-0.842,6.142-2.521,7.935
				s-3.814,2.691-6.402,2.691c-2.635,0-4.734-0.897-6.301-2.691s-2.35-4.438-2.35-7.935v-81.193c0-3.769,0.76-6.618,2.281-8.549
				c1.521-1.93,3.645-2.895,6.369-2.895c2.861,0,5.062,0.919,6.607,2.758C328.355,115.306,329.129,117.928,329.129,121.334z
				 M330.014,176.575c0,7.402,1.691,13.09,5.074,17.063c3.383,3.974,7.822,5.96,13.316,5.96c4.678,0,8.707-2.032,12.092-6.096
				c3.381-4.063,5.074-9.888,5.074-17.472c0-4.904-0.705-9.127-2.111-12.669c-1.408-3.542-3.406-6.277-5.994-8.208
				c-2.59-1.93-5.609-2.895-9.061-2.895c-3.541,0-6.697,0.965-9.467,2.895c-2.771,1.931-4.951,4.724-6.539,8.378
				C330.809,167.187,330.014,171.535,330.014,176.575z"/>
		</g>
	</g>
	<g>
		<rect x="261.017" y="259.493" fill="#43666D" width="169.875" height="169.875"/>
		<g>
			<rect x="289.423" y="290.711" fill="none" width="113.062" height="143.438"/>
			<path fill="#FFFFFF" d="M362.914,383.345v-1.839c-2.498,2.86-4.963,5.188-7.391,6.981c-2.43,1.794-5.064,3.156-7.902,4.087
				c-2.838,0.93-5.938,1.396-9.297,1.396c-4.451,0-8.572-0.943-12.363-2.827c-3.793-1.884-7.074-4.574-9.842-8.071
				c-2.771-3.496-4.871-7.605-6.301-12.329c-1.432-4.723-2.146-9.831-2.146-15.326c0-11.624,2.838-20.684,8.514-27.178
				c5.676-6.493,13.146-9.74,22.41-9.74c5.357,0,9.877,0.919,13.555,2.759c3.68,1.839,7.266,4.666,10.764,8.48v-27.451
				c0-3.814,0.76-6.697,2.281-8.65c1.521-1.952,3.689-2.929,6.506-2.929c2.814,0,4.982,0.896,6.504,2.69s2.281,4.439,2.281,7.936
				v82.011c0,3.542-0.816,6.198-2.451,7.97c-1.635,1.771-3.746,2.656-6.334,2.656c-2.545,0-4.645-0.92-6.301-2.759
				C363.742,389.373,362.914,386.75,362.914,383.345z M326.336,356.03c0,5.04,0.783,9.332,2.35,12.874s3.713,6.21,6.438,8.003
				c2.725,1.795,5.697,2.69,8.922,2.69c3.27,0,6.256-0.851,8.957-2.554s4.859-4.313,6.471-7.833c1.611-3.519,2.42-7.912,2.42-13.181
				c0-4.949-0.809-9.206-2.42-12.771c-1.611-3.564-3.791-6.289-6.539-8.174c-2.748-1.884-5.754-2.827-9.023-2.827
				c-3.406,0-6.449,0.966-9.129,2.896c-2.68,1.931-4.758,4.699-6.232,8.31C327.072,347.073,326.336,351.262,326.336,356.03z"/>
		</g>
	</g>
	<g>
		<rect x="81.017" y="259.493" fill="#CECECE" width="169.875" height="169.875"/>
		<g>
			<rect x="109.423" y="290.711" fill="none" width="113.062" height="143.438"/>
			<path fill="#FFFFFF" d="M200.793,370.947c0,2.316-0.693,4.792-2.078,7.425c-1.386,2.634-3.497,5.143-6.334,7.526
				c-2.838,2.385-6.415,4.304-10.729,5.756c-4.314,1.453-9.173,2.18-14.576,2.18c-11.489,0-20.458-3.348-26.906-10.047
				c-6.449-6.697-9.672-15.677-9.672-26.939c0-7.629,1.475-14.372,4.428-20.23c2.951-5.857,7.22-10.388,12.806-13.589
				c5.585-3.201,12.261-4.802,20.025-4.802c4.813,0,9.23,0.704,13.249,2.111c4.019,1.408,7.425,3.225,10.217,5.449
				c2.793,2.226,4.927,4.598,6.403,7.118c1.475,2.521,2.214,4.87,2.214,7.05c0,2.226-0.829,4.11-2.486,5.653
				c-1.658,1.545-3.667,2.316-6.028,2.316c-1.544,0-2.827-0.397-3.849-1.192c-1.022-0.794-2.169-2.077-3.44-3.849
				c-2.271-3.45-4.644-6.039-7.118-7.765c-2.476-1.726-5.62-2.589-9.434-2.589c-5.495,0-9.922,2.146-13.282,6.438
				c-3.361,4.291-5.041,10.16-5.041,17.607c0,3.497,0.431,6.709,1.294,9.639c0.862,2.929,2.111,5.427,3.746,7.492
				c1.635,2.067,3.61,3.634,5.926,4.7c2.316,1.067,4.859,1.601,7.629,1.601c3.723,0,6.914-0.862,9.57-2.589
				c2.657-1.725,5.007-4.359,7.05-7.9c1.135-2.089,2.361-3.724,3.679-4.904c1.316-1.181,2.929-1.771,4.836-1.771
				c2.27,0,4.155,0.863,5.653,2.588C200.044,367.156,200.793,368.995,200.793,370.947z"/>
		</g>
	</g>
</g>
<g>
</g>
<g>
</g>
<g>
</g>
<g>
</g>
<g>
</g>
<g>
</g>
</svg>
