<?xml version="1.0" encoding="utf-8"?>
<!-- Generator: Adobe Illustrator 17.0.0, SVG Export Plug-In . SVG Version: 6.00 Build 0)  -->
<!DOCTYPE svg PUBLIC "-//W3C//DTD SVG 1.1//EN" "http://www.w3.org/Graphics/SVG/1.1/DTD/svg11.dtd">
<svg version="1.1" id="Layer_1" xmlns="http://www.w3.org/2000/svg" xmlns:xlink="http://www.w3.org/1999/xlink" x="0px" y="0px"
	 width="512px" height="512px" viewBox="0 0 512 512" enable-background="new 0 0 512 512" xml:space="preserve">
<g>
	<path fill="#ACACAC" d="M455.706,238.275c0-33.507-32.3-60.67-72.145-60.67c-9.109,0-17.79,1.479-25.815,4.07
		c1.779-5.567,2.759-11.492,2.759-17.649c0-32.002-25.943-57.944-57.944-57.944c-13.347,0-25.604,4.559-35.4,12.142
		c-17.585-21.569-47.386-35.754-81.192-35.754c-54.055,0-97.875,36.265-97.875,81c0,7.481,1.251,14.716,3.545,21.594
		c-42.709,2.264-76.67,37.508-76.67,80.781c0,44.735,36.265,81,81,81c13.171,0,25.569-3.212,36.562-8.79
		c10.993,5.578,23.391,8.79,36.562,8.79c12.283,0,23.882-2.813,34.312-7.706c10.43,4.893,22.03,7.706,34.312,7.706
		c13.284,0,25.786-3.26,36.848-8.928c11.063,5.668,23.565,8.928,36.849,8.928c32.96,0,61.266-19.718,73.913-47.974
		C424.349,298.073,455.706,271.281,455.706,238.275z"/>
	<g>
		<path fill="#427585" d="M303.531,258.531c0-14.911,12.088-27,27-27h139.5c14.912,0,27,12.089,27,27v144c0,14.912-12.088,27-27,27
			h-139.5c-14.912,0-27-12.088-27-27V258.531z"/>
		<g>
			<rect x="297.344" y="261.906" fill="none" width="199.688" height="164.25"/>
			<path fill="#FFFFFF" d="M375.361,278.714l53.949,81.633v-82.389c0-5.353,1.149-9.368,3.449-12.046
				c2.299-2.677,5.4-4.016,9.307-4.016c4.03,0,7.211,1.339,9.543,4.016c2.329,2.678,3.495,6.693,3.495,12.046v108.938
				c0,12.157-5.04,18.235-15.117,18.235c-2.52,0-4.787-0.363-6.803-1.087c-2.017-0.725-3.906-1.873-5.669-3.448
				c-1.764-1.574-3.401-3.416-4.913-5.527c-1.512-2.109-3.023-4.267-4.535-6.472l-52.626-80.688v81.16
				c0,5.291-1.229,9.292-3.686,11.999c-2.456,2.708-5.606,4.063-9.448,4.063c-3.968,0-7.149-1.37-9.542-4.11
				c-2.396-2.74-3.591-6.723-3.591-11.952V282.21c0-4.535,0.503-8.093,1.512-10.677c1.195-2.834,3.18-5.149,5.952-6.944
				c2.771-1.795,5.764-2.692,8.977-2.692c2.518,0,4.677,0.41,6.472,1.229s3.369,1.922,4.724,3.307
				c1.354,1.386,2.74,3.182,4.157,5.385C372.386,274.022,373.85,276.321,375.361,278.714z"/>
		</g>
	</g>
</g>
<g>
</g>
<g>
</g>
<g>
</g>
<g>
</g>
<g>
</g>
<g>
</g>
</svg>
