<?xml version="1.0" encoding="utf-8"?>
<!-- Generator: Adobe Illustrator 17.0.0, SVG Export Plug-In . SVG Version: 6.00 Build 0)  -->
<!DOCTYPE svg PUBLIC "-//W3C//DTD SVG 1.1//EN" "http://www.w3.org/Graphics/SVG/1.1/DTD/svg11.dtd">
<svg version="1.1" id="Layer_1" xmlns="http://www.w3.org/2000/svg" xmlns:xlink="http://www.w3.org/1999/xlink" x="0px" y="0px"
	 width="512px" height="512px" viewBox="0 0 512 512" enable-background="new 0 0 512 512" xml:space="preserve">
<g>
	<g>
		<ellipse fill="#B6D8DF" cx="229.016" cy="374.219" rx="164.593" ry="32.992"/>
		<ellipse fill="#B6D8DF" cx="229.016" cy="267.456" rx="164.593" ry="32.992"/>
		<g>
			<ellipse fill="#B6D8DF" cx="229.016" cy="160.694" rx="164.593" ry="32.993"/>
			<ellipse fill="#B6D8DF" cx="229.016" cy="89.519" rx="164.593" ry="32.992"/>
			<rect x="64.424" y="89.519" fill="#B6D8DF" width="329.185" height="71.175"/>
		</g>
		<g>
			<g>
				<path fill="#B6D8DF" d="M229.016,229.274c-90.902,0-164.593-14.771-164.593-32.993v71.176h329.185v-71.176
					C393.609,214.503,319.918,229.274,229.016,229.274z"/>
			</g>
		</g>
		<g>
			<g>
				<path fill="#B6D8DF" d="M229.016,336.037c-90.902,0-164.593-14.771-164.593-32.993v71.175h329.185v-71.175
					C393.609,321.265,319.918,336.037,229.016,336.037z"/>
			</g>
		</g>
	</g>
	<g>
		<path fill="#427585" d="M361.75,281.218c39.034,0,70.792,31.757,70.792,70.791h32.673c0-57.142-46.323-103.464-103.465-103.464
			l0,0c-32.026,0-60.653,14.55-79.632,37.402l20.905,22.488C315.753,289.566,337.327,281.218,361.75,281.218 M259.216,338.074
			c-0.614,4.558-0.931,9.21-0.931,13.935c0,57.142,46.323,103.465,103.465,103.465c31.521,0,59.749-14.096,78.726-36.327
			c2.618-3.067,5.06-6.289,7.311-9.65l-21.654-23.979c0,0-7.064,8.606-11.892,13.942c-12.963,14.327-31.694,23.341-52.491,23.341
			c-39.034,0-70.792-31.757-70.792-70.792c0-4.043,0.341-8.008,0.995-11.868L259.216,338.074z"/>
		<polygon fill="#427585" points="449.559,389.737 411.542,346.206 487.576,346.206 		"/>
		<polygon fill="#427585" points="274.07,305.365 236.053,348.896 312.086,348.896 		"/>
	</g>
</g>
<g>
</g>
<g>
</g>
<g>
</g>
<g>
</g>
<g>
</g>
<g>
</g>
</svg>
