<?xml version="1.0" encoding="utf-8"?>
<!-- Generator: Adobe Illustrator 17.0.0, SVG Export Plug-In . SVG Version: 6.00 Build 0)  -->
<!DOCTYPE svg PUBLIC "-//W3C//DTD SVG 1.1//EN" "http://www.w3.org/Graphics/SVG/1.1/DTD/svg11.dtd">
<svg version="1.1" id="Layer_1" xmlns="http://www.w3.org/2000/svg" xmlns:xlink="http://www.w3.org/1999/xlink" x="0px" y="0px"
	 width="512px" height="512px" viewBox="0 0 512 512" enable-background="new 0 0 512 512" xml:space="preserve">
<g>
	<g>
		<rect x="130.28" y="52.794" fill="#CCCBCB" width="296.021" height="57.97"/>
		<rect x="56.275" y="52.794" fill="#CCCBCB" width="59.204" height="57.97"/>
		<rect x="130.28" y="125.565" fill="#CCCBCB" width="296.021" height="57.971"/>
		<rect x="56.275" y="125.565" fill="#CCCBCB" width="59.204" height="57.971"/>
		<rect x="130.28" y="198.337" fill="#CCCBCB" width="296.021" height="57.971"/>
		<rect x="56.275" y="198.337" fill="#CCCBCB" width="59.204" height="57.971"/>
		<rect x="130.28" y="269.875" fill="#CCCBCB" width="296.021" height="57.971"/>
		<rect x="56.275" y="269.875" fill="#CCCBCB" width="59.204" height="57.971"/>
	</g>
	<g>
		<g>
			<g>
				<path fill="#427585" d="M444.544,350.844l-6.59-6.59l-69.505,69.505c-8.787,8.786-23.033,8.786-31.82,0L201.336,278.464
					l3.482,39.482l136.311,136.312c8.787,8.786,23.033,8.786,31.82,0l71.595-71.595C453.331,373.876,453.331,359.63,444.544,350.844
					z"/>
				<path fill="#427585" d="M214.445,218.235c3.383,5.171,8.996,8.743,15.48,9.343c2.029-0.66,4.19-1.027,6.439-1.027
					c0.654,0,1.3,0.039,1.939,0.098c6.865-2.233,12.15-7.936,13.809-15.04l-27.459-3.836L214.445,218.235z"/>
			</g>
		</g>
	</g>
	<g>
		<g>
			<path fill="#427585" d="M449.044,274.344L318.448,143.747l-89.295-12.475l-27.102,27.778l7.267,82.396l136.312,136.312
				c8.787,8.787,23.033,8.787,31.82,0l71.595-71.595C457.831,297.376,457.831,283.13,449.044,274.344z M240.863,191.675
				c-11.494,0-20.812-9.318-20.812-20.812c0-11.494,9.318-20.812,20.812-20.812s20.812,9.318,20.812,20.812
				C261.676,182.358,252.358,191.675,240.863,191.675z"/>
		</g>
	</g>
</g>
<g>
</g>
<g>
</g>
<g>
</g>
<g>
</g>
<g>
</g>
<g>
</g>
</svg>
