<?xml version="1.0" encoding="utf-8"?>
<!-- Generator: Adobe Illustrator 17.0.0, SVG Export Plug-In . SVG Version: 6.00 Build 0)  -->
<!DOCTYPE svg PUBLIC "-//W3C//DTD SVG 1.1//EN" "http://www.w3.org/Graphics/SVG/1.1/DTD/svg11.dtd">
<svg version="1.1" id="Layer_1" xmlns="http://www.w3.org/2000/svg" xmlns:xlink="http://www.w3.org/1999/xlink" x="0px" y="0px"
	 width="512px" height="512px" viewBox="0 0 512 512" enable-background="new 0 0 512 512" xml:space="preserve">
<g>
	<rect x="48.7" y="76.528" fill="#E6E6E5" width="100.71" height="269.566"/>
	<rect x="48.7" y="76.528" fill="#F0B086" width="413.094" height="53.672"/>
	<g>
		<g>
			<path fill="#B1B1B1" d="M30.005,60.849v301.528h451.689V60.849H30.005z M452.144,332.827H59.555V90.398h392.59V332.827z"/>
		</g>
	</g>
	<g>
		<rect x="255.246" y="424.014" fill="#67909D" width="226.749" height="27.137"/>
		<path fill="#67909D" d="M413.247,304.911c0,28.476-20.655,80.508-46.133,80.508c-25.48,0-46.134-52.032-46.134-80.508
			c0-28.477,20.655-51.562,46.134-51.562C392.592,253.349,413.247,276.434,413.247,304.911z"/>
		<path fill="#67909D" d="M481.995,425.522c0-19.484-50.76-54.577-113.375-54.577c-62.614,0-113.374,35.093-113.374,54.577"/>
	</g>
</g>
<g>
</g>
<g>
</g>
<g>
</g>
<g>
</g>
<g>
</g>
<g>
</g>
</svg>
