<?xml version="1.0" encoding="utf-8"?>
<!-- Generator: Adobe Illustrator 17.0.0, SVG Export Plug-In . SVG Version: 6.00 Build 0)  -->
<!DOCTYPE svg PUBLIC "-//W3C//DTD SVG 1.1//EN" "http://www.w3.org/Graphics/SVG/1.1/DTD/svg11.dtd">
<svg version="1.1" id="Layer_1" xmlns="http://www.w3.org/2000/svg" xmlns:xlink="http://www.w3.org/1999/xlink" x="0px" y="0px"
	 width="512px" height="512px" viewBox="0 0 512 512" enable-background="new 0 0 512 512" xml:space="preserve">
<g>
	<g>
		<rect x="144.992" y="81.969" fill="#67909D" width="296.021" height="57.971"/>
		<rect x="70.987" y="81.969" fill="#67909D" width="59.204" height="57.971"/>
		<rect x="144.992" y="154.74" fill="#8DACB5" width="296.021" height="57.971"/>
		<rect x="70.987" y="154.74" fill="#8DACB5" width="59.204" height="57.971"/>
		<rect x="144.992" y="227.512" fill="#B3C7CE" width="296.021" height="57.971"/>
		<rect x="70.987" y="227.512" fill="#B3C7CE" width="59.204" height="57.971"/>
		<rect x="144.992" y="299.05" fill="#D9E3E7" width="296.021" height="57.971"/>
		<rect x="70.987" y="299.05" fill="#D9E3E7" width="59.204" height="57.971"/>
	</g>
	<g>
		<path fill="#666666" d="M205.061,435.776c-7.148,11.543-26.677,12.431-43.62,1.982c-16.943-10.449-24.883-28.278-17.735-39.821
			c7.148-11.543,26.677-12.431,43.62-1.982C204.268,406.404,212.209,424.232,205.061,435.776z"/>
		<polygon fill="#666666" points="300.51,281.437 239.506,243.03 143.73,397.899 205.038,435.814 		"/>
		<path fill="#666666" d="M312.951,107.451c44.043,0,79.875,35.832,79.875,79.875s-35.832,79.875-79.875,79.875
			c-44.043,0-79.875-35.832-79.875-79.875S268.907,107.451,312.951,107.451 M312.951,66.951
			c-66.481,0-120.375,53.894-120.375,120.375s53.894,120.375,120.375,120.375c66.481,0,120.375-53.894,120.375-120.375
			S379.431,66.951,312.951,66.951L312.951,66.951z"/>
	</g>
</g>
<g>
</g>
<g>
</g>
<g>
</g>
<g>
</g>
<g>
</g>
<g>
</g>
</svg>
