<?xml version="1.0" encoding="utf-8"?>
<!-- Generator: Adobe Illustrator 17.0.0, SVG Export Plug-In . SVG Version: 6.00 Build 0)  -->
<!DOCTYPE svg PUBLIC "-//W3C//DTD SVG 1.1//EN" "http://www.w3.org/Graphics/SVG/1.1/DTD/svg11.dtd">
<svg version="1.1" id="Layer_1" xmlns="http://www.w3.org/2000/svg" xmlns:xlink="http://www.w3.org/1999/xlink" x="0px" y="0px"
	 width="512px" height="512px" viewBox="0 0 512 512" enable-background="new 0 0 512 512" xml:space="preserve">
<g>
	<g>
		<rect x="88.588" y="387.139" fill="#427585" width="334.824" height="65.57"/>
		<rect x="440.153" y="387.139" fill="#427585" width="33.482" height="65.57"/>
		<rect x="38.364" y="387.139" fill="#427585" width="33.482" height="65.57"/>
	</g>
	<g>
		<rect x="88.588" y="304.828" fill="#67909D" width="334.824" height="65.57"/>
		<rect x="440.153" y="304.828" fill="#67909D" width="33.482" height="65.57"/>
		<rect x="38.364" y="304.828" fill="#67909D" width="33.482" height="65.57"/>
	</g>
	<g>
		<rect x="88.588" y="222.517" fill="#8DACB5" width="334.824" height="65.57"/>
		<rect x="440.153" y="222.517" fill="#8DACB5" width="33.482" height="65.57"/>
		<rect x="38.364" y="222.517" fill="#8DACB5" width="33.482" height="65.57"/>
	</g>
	<g>
		<rect x="88.588" y="140.207" fill="#B3C7CE" width="334.824" height="65.57"/>
		<rect x="440.153" y="140.207" fill="#B3C7CE" width="33.482" height="65.57"/>
		<rect x="38.364" y="140.207" fill="#B3C7CE" width="33.482" height="65.57"/>
	</g>
	<g>
		<rect x="88.588" y="59.291" fill="#D9E3E7" width="334.824" height="65.57"/>
		<rect x="440.153" y="59.291" fill="#D9E3E7" width="33.482" height="65.57"/>
		<rect x="38.364" y="59.291" fill="#D9E3E7" width="33.482" height="65.57"/>
	</g>
</g>
<g>
</g>
<g>
</g>
<g>
</g>
<g>
</g>
<g>
</g>
<g>
</g>
</svg>
